<?xml version="1.0" encoding="UTF-8"?>
<!DOCTYPE svg PUBLIC "-//W3C//DTD SVG 1.1//EN" "http://www.w3.org/Graphics/SVG/1.1/DTD/svg11.dtd">

<svg xmlns="http://www.w3.org/2000/svg" xmlns:xlink="http://www.w3.org/1999/xlink" xmlns:xs="http://www.w3.org/2001/XMLSchema" xmlns:wb="http://www.ti.com/webench" version="1.1" width="100%" height="100%" viewBox="0 0 1565.0 660.0" preserveAspectRatio="xMidYMid meet">
  <defs>
    <g id="WB_CONTINUATION">
      <circle xmlns="" opacity="0.01" fill="#ffffff" stroke="#000000" stroke-width="0" cx="0" cy="0" r="14" />
      <line fill="none" stroke="#CC0000" stroke-width="2" x1="0" y1="10" x2="0" y2="-10" />
      <line fill="none" stroke="#CC0000" stroke-width="2" x1="-10" y1="-10" x2="10" y2="-10" />
    </g>
    <g id="WB_BLOCK_IO">
      <circle xmlns="" opacity="0.01" fill="#ffffff" stroke="#000000" stroke-width="0" cx="0" cy="0" r="14" />
      <line stroke="#CC0000" fill="none" stroke-width="2" x1="-5" y1="0" x2="5" y2="0" />
    </g>
    <g id="WB_STARTUP_VOLTAGE_SOURCE">
      <circle xmlns="" opacity="0.01" fill="#ffffff" stroke="#000000" stroke-width="0" cx="0" cy="0" r="14" />
      <circle fill-opacity="0.01" fill="#CC0000" stroke="#CC0000" stroke-width="2" cx="0" cy="0" r="14" />
      <polyline fill="none" stroke="#CC0000" stroke-width="2" points="-6,-11 -6,7 5,9 5,12 " />
      <line fill="none" stroke="#CC0000" stroke-width="2" x1="16" y1="-12" x2="16" y2="-18" />
      <line fill="none" stroke="#CC0000" stroke-width="2" x1="-17" y1="-12" x2="-17" y2="-18" />
      <line fill="none" stroke="#CC0000" stroke-width="2" x1="-14" y1="-15" x2="-20" y2="-15" />
      <line fill="none" stroke="#CC0000" stroke-width="2" x1="-15" y1="0" x2="-30" y2="0" />
      <line fill="none" stroke="#CC0000" stroke-width="2" x1="30" y1="0" x2="15" y2="0" />
    </g>
    <g id="WB_SOURCE_RESISTOR">
      <circle xmlns="" opacity="0.01" fill="#ffffff" stroke="#000000" stroke-width="0" cx="0" cy="0" r="14" />
      <polyline fill="none" stroke="#CC0000" stroke-width="2" stroke-linecap="round" stroke-linejoin="round" points="30,0 20,0 15,-6 7.5,6 0,-6 -7.5,6 -15,-6 -20,0 -30,0" />
    </g>
    <g id="WB_PRIM_STARTUP_VOLTAGE_SOURCE">
      <circle xmlns="" opacity="0.01" fill="#ffffff" stroke="#000000" stroke-width="0" cx="0" cy="0" r="14" />
      <circle fill-opacity="0.01" fill="#CC0000" stroke="#CC0000" stroke-width="2" cx="0" cy="0" r="14" />
      <polyline fill="none" stroke="#CC0000" stroke-width="2" points="-6,-11 -6,7 5,9 5,12 " />
      <line fill="none" stroke="#CC0000" stroke-width="2" x1="16" y1="-12" x2="16" y2="-18" />
      <line fill="none" stroke="#CC0000" stroke-width="2" x1="-17" y1="-12" x2="-17" y2="-18" />
      <line fill="none" stroke="#CC0000" stroke-width="2" x1="-14" y1="-15" x2="-20" y2="-15" />
      <line fill="none" stroke="#CC0000" stroke-width="2" x1="-15" y1="0" x2="-30" y2="0" />
      <line fill="none" stroke="#CC0000" stroke-width="2" x1="30" y1="0" x2="15" y2="0" />
    </g>
    <g id="WB_CURRENT_PROBE">
      <circle xmlns="" opacity="0.01" fill="#ffffff" stroke="#000000" stroke-width="0" cx="0" cy="0" r="14" />
      <line stroke="#CC0000" stroke-width="2" stroke-linecap="square" stroke-linejoin="round" x1="-16" y1="0" x2="-10" y2="0" />
      <polyline stroke="#CC0000" stroke-width="2" stroke-linecap="square" stroke-linejoin="round" points="6,0 3,-3.5 3,3.5 6,0 -6,0 " />
      <line stroke="#CC0000" stroke-width="2" stroke-linecap="square" stroke-linejoin="round" x1="10" y1="0" x2="16" y2="0" />
      <rect stroke-width="1" x="-9.5" y="-7" fill="none" stroke="#CC0000" width="19" height="14" />
    </g>
    <g id="WB_PWL_CURRENT_LOAD">
      <circle xmlns="" opacity="0.01" fill="#ffffff" stroke="#000000" stroke-width="0" cx="0" cy="0" r="14" />
      <circle fill-opacity="0.01" fill="#CC0000" stroke="#CC0000" stroke-width="2" cx="0" cy="0" r="14" />
      <line y1="0" x2="-20" stroke="#CC0000" x1="-30" fill="none" stroke-width="2" y2="0" />
      <line y1="0" x2="20" stroke="#CC0000" x1="30" fill="none" stroke-width="2" y2="0" />
      <polyline stroke="#CC0000" points="-7,6 4,8  " stroke-linejoin="round" fill="none" stroke-width="2" stroke-linecap="round" />
      <polyline stroke="#CC0000" points="-7,-6 4,-8  " stroke-linejoin="round" fill="none" stroke-width="2" stroke-linecap="round" />
      <polyline stroke="#CC0000" points="-20,0 -15,0  " stroke-linejoin="round" fill="none" stroke-width="2" stroke-linecap="round" />
      <polyline stroke="#CC0000" points="20,0 15,0  " stroke-linejoin="round" fill="none" stroke-width="2" stroke-linecap="round" />
      <polyline stroke="#CC0000" points="-7,-6 -7,6  " stroke-linejoin="round" fill="none" stroke-width="2" stroke-linecap="round" />
      <polyline stroke="#CC0000" points="4,-8 4,-11  " stroke-linejoin="round" fill="none" stroke-width="2" stroke-linecap="round" />
      <polyline stroke="#CC0000" points="4,8 4,11  " stroke-linejoin="round" fill="none" stroke-width="2" stroke-linecap="round" />
      <line x1="23" y1="-13" x2="23" y2="-7" stroke="#CC0000" fill="none" stroke-width="2" stroke-linecap="round" />
      <line x1="-23" y1="-13" x2="-23" y2="-7" stroke="#CC0000" fill="none" stroke-width="2" stroke-linecap="round" />
      <line x1="-26" y1="-10" x2="-20" y2="-10" stroke="#CC0000" fill="none" stroke-width="2" stroke-linecap="round" />
    </g>
    <g id="WB_RESISTOR">
      <circle xmlns="" opacity="0.01" fill="#ffffff" stroke="#000000" stroke-width="0" cx="0" cy="0" r="14" />
      <polyline fill="none" stroke="#115566" stroke-width="2" stroke-linecap="round" stroke-linejoin="round" points="30,0 20,0 15,-6 7.5,6 0,-6 -7.5,6 -15,-6 -20,0 -30,0" />
    </g>
    <g id="WB_CURRENT_LOAD">
      <circle xmlns="" opacity="0.01" fill="#ffffff" stroke="#000000" stroke-width="0" cx="0" cy="0" r="14" />
      <path fill="none" stroke="#CC0000" stroke-width="2" stroke-linecap="round" stroke-linejoin="round" d="M-15,0c 0.1, 4.2, 1.6, 7.7, 4.4, 10.6c 2.8, 2.8, 6.4, 4.3, 10.6, 4.4c 4.3-0.1, 7.8-1.6, 10.6 -4.4c 2.9-2.9, 4.3-6.4, 4.4-10.6" />
      <path fill="none" stroke="#CC0000" stroke-width="2" stroke-linecap="round" stroke-linejoin="round" d="M15,0c -0.1,-4.2,-1.6,-7.7,-4.4,-10.6c-2.8,-2.8,-6.4,-4.3,-10.6,-4.4c-4.3,0.1 -7.8,1.6 -10.6,4.4c-2.9,2.9 -4.3,6.4 -4.4,10.6" />
      <line fill="none" stroke="#CC0000" stroke-width="2" x1="30" y1="0" x2="15" y2="0" />
      <line fill="none" stroke="#CC0000" stroke-width="2" x1="-15" y1="0" x2="-30" y2="0" />
      <line fill="none" stroke="#CC0000" stroke-width="2" stroke-linecap="round" stroke-linejoin="round" x1="3" y1="7" x2="12" y2="0" />
      <line fill="none" stroke="#CC0000" stroke-width="2" stroke-linecap="round" stroke-linejoin="round" x1="3" y1="-7" x2="12" y2="0" />
      <line fill="none" stroke="#CC0000" stroke-width="2" stroke-linecap="round" stroke-linejoin="round" x1="12" y1="0" x2="-12" y2="0" />
    </g>
    <g id="WB_VOLTAGE_PROBE">
      <circle xmlns="" opacity="0.01" fill="#ffffff" stroke="#000000" stroke-width="0" cx="0" cy="0" r="14" />
      <rect stroke-width="1" width="20" stroke="#CC0000" x="-10" height="19.5" y="-30" fill="#CC0000" fill-opacity="0.01" />
      <polyline stroke="#CC0000" points="7,-27 4,-22 3,-26 0,-18 -1,-22 -5,-14  " stroke-linejoin="round" fill="none" stroke-width="2" stroke-linecap="round" />
      <line y1="0" x2="0" stroke="#CC0000" x1="0" fill="none" stroke-width="2" y2="-10" />
    </g>
    <g id="WB_GND">
      <circle xmlns="" opacity="0.01" fill="#ffffff" stroke="#000000" stroke-width="0" cx="0" cy="0" r="14" />
      <line fill="none" stroke="black" stroke-width="2" x1="0" y1="-10" x2="0" y2="0" />
      <line fill="none" stroke="black" stroke-width="2" x1="-13" y1="0" x2="13" y2="0" />
      <line fill="none" stroke="black" stroke-width="2" x1="-9" y1="4" x2="9" y2="4" />
      <line fill="none" stroke="black" stroke-width="2" x1="-3" y1="8" x2="3" y2="8" />
    </g>
    <g id="WB_CAPACITOR">
      <circle xmlns="" opacity="0.01" fill="#ffffff" stroke="#000000" stroke-width="0" cx="0" cy="0" r="14" />
      <line y1="0" x2="20" stroke="#115566" x1="30" fill="none" stroke-width="2" y2="0" />
      <line y1="0" x2="-20" stroke="#115566" x1="-30" fill="none" stroke-width="2" y2="0" />
      <polyline stroke="#115566" points="3,12 3,-12  " stroke-linejoin="round" fill="none" stroke-width="2" stroke-linecap="round" />
      <polyline stroke="#115566" points="-20,0 -3,0  " stroke-linejoin="round" fill="none" stroke-width="2" stroke-linecap="round" />
      <polyline stroke="#115566" points="3,0 20,0  " stroke-linejoin="round" fill="none" stroke-width="2" stroke-linecap="round" />
      <polyline stroke="#115566" points="-3,12 -3,-12  " stroke-linejoin="round" fill="none" stroke-width="2" stroke-linecap="round" />
    </g>
    <g id="WB_ZERO_VOLT_SOURCE">
      <circle xmlns="" opacity="0.01" fill="#ffffff" stroke="#000000" stroke-width="0" cx="0" cy="0" r="14" />
      <line stroke="#CC0000" fill="none" stroke-width="2" x1="-5" y1="0" x2="5" y2="0" />
    </g>
    <g id="WB_DIODE_SCHOTTKY">
      <circle xmlns="" opacity="0.01" fill="#ffffff" stroke="#000000" stroke-width="0" cx="0" cy="0" r="14" />
      <line x1="-30" y1="0" x2="30" y2="0" stroke="#115566" fill="none" stroke-width="2" />
      <polygon stroke="#115566" points="8,-10 -8,0 8,10" stroke-linejoin="round" fill="#115566" stroke-width="2" stroke-linecap="round" />
      <polyline stroke="#115566" points="-11,-8 -11,-10 -8,-10 -8,10 -5,10 -5,8" stroke-linejoin="round" fill="none" stroke-width="2" stroke-linecap="round" />
    </g>
    <g id="WB_INDUCTOR">
      <circle xmlns="" opacity="0.01" fill="#ffffff" stroke="#000000" stroke-width="0" cx="0" cy="0" r="14" />
      <path fill="none" stroke="#115566" stroke-width="2" stroke-linecap="round" stroke-linejoin="round" d="M-10,0c0-0.6-0.2-1.8-0.6-3.3c-0.5-2.4-2-3.7-4.4-4c-2.4,0.3-3.8,1.6-4.3,4c-0.6,2.3-0.8,3.6-0.7,3M-20,0H-30" />
      <path fill="none" stroke="#115566" stroke-width="2" stroke-linecap="round" stroke-linejoin="round" d="M0,0c0-0.6-0.2-1.8-0.6-3.3c-0.5-2.4-2-3.7-4.4-4c-2.4,0.3-3.8,1.6-4.3,4c-0.6,2.3-0.8,3.6-0.7,4" />
      <path fill="none" stroke="#115566" stroke-width="2" stroke-linecap="round" stroke-linejoin="round" d="M10,0c0-0.6-0.2-1.8-0.6-3.3c-0.5-2.4-2-3.7-4.4-4c-2.4,0.3-3.8,1.6-4.3,4c-0.6,2.3-0.8,3.6-0.7,4" />
      <path fill="none" stroke="#115566" stroke-width="2" stroke-linecap="round" stroke-linejoin="round" d="M30,0H20c0-0.6-0.2-1.8-0.6-3.3c-0.5-2.4-2-3.7-4.4-4c-2.4,0.3-3.8,1.6-4.3,4c-0.6,2.3-0.8,3.6-0.7,4" />
      <path fill="none" stroke="#115566" stroke-width="2" stroke-linecap="round" stroke-linejoin="round" d=" M10,0 c0.1,0.4,0.1,0.6,0,0.7" />
      <path fill="none" stroke="#115566" stroke-width="2" stroke-linecap="round" stroke-linejoin="round" d=" M0,0  c0.1,0.4,0.1,0.6,0,0.7" />
      <path fill="none" stroke="#115566" stroke-width="2" stroke-linecap="round" stroke-linejoin="round" d=" M-10,0c0.1,0.4,0.1,0.6,0,0.7" />
    </g>
    <g id="WB_LM5157-Q1RTE">
      <circle xmlns="" opacity="0.01" fill="#ffffff" stroke="#000000" stroke-width="0" cx="0" cy="0" r="14" />
      <line fill="none" stroke="#000000" stroke-width="2" stroke-linecap="round" stroke-linejoin="round" x1="-80" y1="90" x2="80" y2="90" />
      <line fill="none" stroke="#000000" stroke-width="2" stroke-linecap="round" stroke-linejoin="round" x1="80" y1="90" x2="80" y2="-90" />
      <line fill="none" stroke="#000000" stroke-width="2" stroke-linecap="round" stroke-linejoin="round" x1="80" y1="-90" x2="-80" y2="-90" />
      <line fill="none" stroke="#000000" stroke-width="2" stroke-linecap="round" stroke-linejoin="round" x1="-80" y1="-90" x2="-80" y2="90" />
      <text id="partNumber_label" x="0" y="-77" style="font-family:arial;font-weight:bold;font-size:12px;text-anchor:middle;">LM5157-Q1RTE</text>
      <line fill="none" stroke="#000000" stroke-width="2" stroke-linecap="round" stroke-linejoin="round" x1="100" y1="70" x2="80" y2="70" />
      <text id="1" x="76" y="74" transform="rotate(0,76,74)" style="font-family:arial;font-weight:normal;font-size:9px;text-anchor:end;">PGND</text>
      <line fill="none" stroke="#000000" stroke-width="2" stroke-linecap="round" stroke-linejoin="round" x1="-100" y1="-70" x2="-80" y2="-70" />
      <text id="2" x="-76" y="-66" transform="rotate(0,-76,-66)" style="font-family:arial;font-weight:normal;font-size:9px;text-anchor:start;">VCC</text>
      <line fill="none" stroke="#000000" stroke-width="2" stroke-linecap="round" stroke-linejoin="round" x1="-100" y1="-50" x2="-80" y2="-50" />
      <text id="3" x="-76" y="-46" transform="rotate(0,-76,-46)" style="font-family:arial;font-weight:normal;font-size:9px;text-anchor:start;">BIAS</text>
      <line fill="none" stroke="#000000" stroke-width="2" stroke-linecap="round" stroke-linejoin="round" x1="100" y1="10" x2="80" y2="10" />
      <text id="4" x="76" y="14" transform="rotate(0,76,14)" style="font-family:arial;font-weight:normal;font-size:9px;text-anchor:end;">PGOOD</text>
      <line fill="none" stroke="#000000" stroke-width="2" stroke-linecap="round" stroke-linejoin="round" x1="-100" y1="40" x2="-80" y2="40" />
      <text id="5" x="-76" y="44" transform="rotate(0,-76,44)" style="font-family:arial;font-weight:normal;font-size:9px;text-anchor:start;">RT</text>
      <line fill="none" stroke="#000000" stroke-width="2" stroke-linecap="round" stroke-linejoin="round" x1="-100" y1="-30" x2="-80" y2="-30" />
      <text id="6" x="-76" y="-26" transform="rotate(0,-76,-26)" style="font-family:arial;font-weight:normal;font-size:9px;text-anchor:start;">EN_UVLO_SYNC</text>
      <line fill="none" stroke="#000000" stroke-width="2" stroke-linecap="round" stroke-linejoin="round" x1="100" y1="60" x2="80" y2="60" />
      <text id="7" x="76" y="64" transform="rotate(0,76,64)" style="font-family:arial;font-weight:normal;font-size:9px;text-anchor:end;">AGND</text>
      <line fill="none" stroke="#000000" stroke-width="2" stroke-linecap="round" stroke-linejoin="round" x1="-100" y1="80" x2="-80" y2="80" />
      <text id="8" x="-76" y="84" transform="rotate(0,-76,84)" style="font-family:arial;font-weight:normal;font-size:9px;text-anchor:start;">COMP</text>
      <line fill="none" stroke="#000000" stroke-width="2" stroke-linecap="round" stroke-linejoin="round" x1="-100" y1="0" x2="-80" y2="0" />
      <text id="9" x="-76" y="4" transform="rotate(0,-76,4)" style="font-family:arial;font-weight:normal;font-size:9px;text-anchor:start;">FB</text>
      <line fill="none" stroke="#000000" stroke-width="2" stroke-linecap="round" stroke-linejoin="round" x1="-100" y1="60" x2="-80" y2="60" />
      <text id="10" x="-76" y="64" transform="rotate(0,-76,64)" style="font-family:arial;font-weight:normal;font-size:9px;text-anchor:start;">SS</text>
      <line fill="none" stroke="#000000" stroke-width="2" stroke-linecap="round" stroke-linejoin="round" x1="-100" y1="20" x2="-80" y2="20" />
      <text id="11" x="-76" y="24" transform="rotate(0,-76,24)" style="font-family:arial;font-weight:normal;font-size:9px;text-anchor:start;">MODE</text>
      <line fill="none" stroke="#000000" stroke-width="2" stroke-linecap="round" stroke-linejoin="round" x1="100" y1="-70" x2="80" y2="-70" />
      <text id="12" x="76" y="-66" transform="rotate(0,76,-66)" style="font-family:arial;font-weight:normal;font-size:9px;text-anchor:end;">SW</text>
      <line fill="none" stroke="#000000" stroke-width="2" stroke-linecap="round" stroke-linejoin="round" x1="100" y1="-60" x2="80" y2="-60" />
      <text id="13" x="76" y="-56" transform="rotate(0,76,-56)" style="font-family:arial;font-weight:normal;font-size:9px;text-anchor:end;">SW</text>
      <line fill="none" stroke="#000000" stroke-width="2" stroke-linecap="round" stroke-linejoin="round" x1="100" y1="-50" x2="80" y2="-50" />
      <text id="14" x="76" y="-46" transform="rotate(0,76,-46)" style="font-family:arial;font-weight:normal;font-size:9px;text-anchor:end;">SW</text>
      <line fill="none" stroke="#000000" stroke-width="2" stroke-linecap="round" stroke-linejoin="round" x1="100" y1="-20" x2="80" y2="-20" />
      <text id="15" x="76" y="-16" transform="rotate(0,76,-16)" style="font-family:arial;font-weight:normal;font-size:9px;text-anchor:end;">NC</text>
      <line fill="none" stroke="#000000" stroke-width="2" stroke-linecap="round" stroke-linejoin="round" x1="100" y1="80" x2="80" y2="80" />
      <text id="16" x="76" y="84" transform="rotate(0,76,84)" style="font-family:arial;font-weight:normal;font-size:9px;text-anchor:end;">PGND</text>
      <line fill="none" stroke="#000000" stroke-width="2" stroke-linecap="round" stroke-linejoin="round" x1="100" y1="40" x2="80" y2="40" />
      <text id="17" x="76" y="44" transform="rotate(0,76,44)" style="font-family:arial;font-weight:normal;font-size:9px;text-anchor:end;">EP</text>
    </g>
    <g id="WB_PWL_VOLTAGE_SOURCE">
      <circle xmlns="" opacity="0.01" fill="#ffffff" stroke="#000000" stroke-width="0" cx="0" cy="0" r="14" />
      <circle fill-opacity="0.01" fill="#CC0000" stroke="#CC0000" stroke-width="2" cx="0" cy="0" r="14" />
      <line y1="0" x2="-20" stroke="#CC0000" x1="-30" fill="none" stroke-width="2" y2="0" />
      <line y1="0" x2="20" stroke="#CC0000" x1="30" fill="none" stroke-width="2" y2="0" />
      <polyline stroke="#CC0000" points="-7,6 4,8  " stroke-linejoin="round" fill="none" stroke-width="2" stroke-linecap="round" />
      <polyline stroke="#CC0000" points="-7,-6 4,-8  " stroke-linejoin="round" fill="none" stroke-width="2" stroke-linecap="round" />
      <polyline stroke="#CC0000" points="-20,0 -15,0  " stroke-linejoin="round" fill="none" stroke-width="2" stroke-linecap="round" />
      <polyline stroke="#CC0000" points="20,0 15,0  " stroke-linejoin="round" fill="none" stroke-width="2" stroke-linecap="round" />
      <polyline stroke="#CC0000" points="-7,-6 -7,6  " stroke-linejoin="round" fill="none" stroke-width="2" stroke-linecap="round" />
      <polyline stroke="#CC0000" points="4,-8 4,-11  " stroke-linejoin="round" fill="none" stroke-width="2" stroke-linecap="round" />
      <polyline stroke="#CC0000" points="4,8 4,11  " stroke-linejoin="round" fill="none" stroke-width="2" stroke-linecap="round" />
      <line x1="23" y1="-13" x2="23" y2="-7" stroke="#CC0000" fill="none" stroke-width="2" stroke-linecap="round" />
      <line x1="-23" y1="-13" x2="-23" y2="-7" stroke="#CC0000" fill="none" stroke-width="2" stroke-linecap="round" />
      <line x1="-26" y1="-10" x2="-20" y2="-10" stroke="#CC0000" fill="none" stroke-width="2" stroke-linecap="round" />
    </g>
    <g id="WB_PRIM_PWL_VOLTAGE_SOURCE">
      <circle xmlns="" opacity="0.01" fill="#ffffff" stroke="#000000" stroke-width="0" cx="0" cy="0" r="14" />
      <circle fill-opacity="0.01" fill="#CC0000" stroke="#CC0000" stroke-width="2" cx="0" cy="0" r="14" />
      <line x1="-30" y1="0" x2="-15" y2="0" stroke="#CC0000" fill="none" stroke-width="2" />
      <line x1="30" y1="0" x2="15" y2="0" stroke="#CC0000" fill="none" stroke-width="2" />
      <polyline stroke="#CC0000" points="0,13 0,8 -7,6 -7,0 7,-4 0,-8 0,-13" stroke-linejoin="round" fill="none" stroke-width="2" stroke-linecap="round" />
      <line x1="23" y1="-13" x2="23" y2="-7" stroke="#CC0000" fill="none" stroke-width="2" stroke-linecap="round" />
      <line x1="-23" y1="-13" x2="-23" y2="-7" stroke="#CC0000" fill="none" stroke-width="2" stroke-linecap="round" />
      <line x1="-26" y1="-10" x2="-20" y2="-10" stroke="#CC0000" fill="none" stroke-width="2" stroke-linecap="round" />
    </g>
    <g id="WB_LOAD_RESISTOR">
      <circle xmlns="" opacity="0.01" fill="#ffffff" stroke="#000000" stroke-width="0" cx="0" cy="0" r="14" />
      <polyline fill="none" stroke="#CC0000" stroke-width="2" stroke-linecap="round" stroke-linejoin="round" points="30,0 20,0 15,-6 7.5,6 0,-6 -7.5,6 -15,-6 -20,0 -30,0" />
    </g>
    <g id="WB_PRIMITIVE_BATTERY">
      <circle xmlns="" opacity="0.01" fill="#ffffff" stroke="#000000" stroke-width="0" cx="0" cy="0" r="14" />
      <line fill="none" stroke="#CC0000" stroke-width="2" x1="-8" y1="0" x2="-30" y2="0" />
      <line fill="none" stroke="#CC0000" stroke-width="2" x1="-7" y1="12" x2="-7" y2="-12" />
      <line fill="none" stroke="#CC0000" stroke-width="2" x1="4" y1="12" x2="4" y2="-12" />
      <line fill="none" stroke="#CC0000" stroke-width="2" x1="30" y1="0" x2="11" y2="0" />
      <line fill="none" stroke="#CC0000" stroke-width="2" x1="-2" y1="5" x2="-2" y2="-5" />
      <line fill="none" stroke="#CC0000" stroke-width="2" x1="-1" y1="5" x2="-1" y2="-5" />
      <line fill="none" stroke="#CC0000" stroke-width="2" x1="-14" y1="-9" x2="-14" y2="-15" />
      <line fill="none" stroke="#CC0000" stroke-width="2" x1="-11" y1="-12" x2="-17" y2="-12" />
      <line fill="none" stroke="#CC0000" stroke-width="2" x1="13" y1="-10" x2="13" y2="-15" />
      <line fill="none" stroke="#CC0000" stroke-width="2" x1="10" y1="5" x2="10" y2="-5" />
      <line fill="none" stroke="#CC0000" stroke-width="2" x1="9" y1="5" x2="9" y2="-5" />
    </g>
    <g id="WB_BATTERY">
      <circle xmlns="" opacity="0.01" fill="#ffffff" stroke="#000000" stroke-width="0" cx="0" cy="0" r="14" />
      <line fill="none" stroke="#CC0000" stroke-width="2" x1="-8" y1="0" x2="-30" y2="0" />
      <line fill="none" stroke="#CC0000" stroke-width="2" x1="-7" y1="12" x2="-7" y2="-12" />
      <line fill="none" stroke="#CC0000" stroke-width="2" x1="4" y1="12" x2="4" y2="-12" />
      <line fill="none" stroke="#CC0000" stroke-width="2" x1="30" y1="0" x2="11" y2="0" />
      <line fill="none" stroke="#CC0000" stroke-width="2" x1="-2" y1="5" x2="-2" y2="-5" />
      <line fill="none" stroke="#CC0000" stroke-width="2" x1="-1" y1="5" x2="-1" y2="-5" />
      <line fill="none" stroke="#CC0000" stroke-width="2" x1="-14" y1="-9" x2="-14" y2="-15" />
      <line fill="none" stroke="#CC0000" stroke-width="2" x1="-11" y1="-12" x2="-17" y2="-12" />
      <line fill="none" stroke="#CC0000" stroke-width="2" x1="13" y1="-10" x2="13" y2="-15" />
      <line fill="none" stroke="#CC0000" stroke-width="2" x1="10" y1="5" x2="10" y2="-5" />
      <line fill="none" stroke="#CC0000" stroke-width="2" x1="9" y1="5" x2="9" y2="-5" />
    </g>
  </defs>
  <use id="Rfbt" class="comp" xlink:href="#WB_RESISTOR" x="1150.0" y="305.0" transform="rotate(-90, 1150.0, 305.0)" partNo="CRCW0402118KFKED" thermalId="0402" resistance="118kOhm" manufacturer="Vishay-Dale" />
  <text for="Rfbt" x="1165.0" y="305.0" style="font-family:arial;font-size:13px;stroke-width:0.5;stroke:#115566;fill:#115566;">Rfbt</text>
  <text for="Rfbt" x="1165.0" y="315.0" style="font-family:arial;font-size:10px;stroke-width:0.1;stroke:#CC0000;fill:#CC0000;">118kOhm</text>
  <use id="GND8" class="other" xlink:href="#WB_GND" x="755.0" y="560.0" />
  <use id="Css" class="comp" xlink:href="#WB_CAPACITOR" x="520.0" y="435.0" transform="rotate(-90, 520.0, 435.0)" cap="68nF" partNo="GRM155R71C683KA88D" thermalId="0402" esr="1mOhm" manufacturer="MuRata" />
  <text for="Css" x="535.0" y="435.0" style="font-family:arial;font-size:13px;stroke-width:0.5;stroke:#115566;fill:#115566;">Css</text>
  <text for="Css" x="535.0" y="445.0" style="font-family:arial;font-size:10px;stroke-width:0.1;stroke:#CC0000;fill:#CC0000;">68nF</text>
  <text for="Css" x="535.0" y="455.0" style="font-family:arial;font-size:10px;stroke-width:0.1;stroke:#CC0000;fill:#CC0000;">1mOhm</text>
  <use id="Cbias" class="comp" xlink:href="#WB_CAPACITOR" x="535.0" y="240.0" transform="rotate(-180, 535.0, 240.0)" cap="100nF" partNo="GRM188R61E104KA01D" thermalId="0603" esr="30mOhm" manufacturer="MuRata" />
  <text for="Cbias" x="515.0" y="225.0" style="font-family:arial;font-size:13px;stroke-width:0.5;stroke:#115566;fill:#115566;">Cbias</text>
  <text for="Cbias" x="515.0" y="260.0" style="font-family:arial;font-size:10px;stroke-width:0.1;stroke:#CC0000;fill:#CC0000;">100nF</text>
  <text for="Cbias" x="515.0" y="270.0" style="font-family:arial;font-size:10px;stroke-width:0.1;stroke:#CC0000;fill:#CC0000;">30mOhm</text>
  <use id="Rcomp" class="comp" xlink:href="#WB_RESISTOR" x="665.0" y="500.0" transform="rotate(-90, 665.0, 500.0)" partNo="CRCW04021K18FKED" thermalId="0402" resistance="1.18kOhm" manufacturer="Vishay-Dale" />
  <text for="Rcomp" x="680.0" y="500.0" style="font-family:arial;font-size:13px;stroke-width:0.5;stroke:#115566;fill:#115566;">Rcomp</text>
  <text for="Rcomp" x="680.0" y="510.0" style="font-family:arial;font-size:10px;stroke-width:0.1;stroke:#CC0000;fill:#CC0000;">1.18kOhm</text>
  <use id="Cout" class="comp" xlink:href="#WB_CAPACITOR" x="1230.0" y="420.0" transform="rotate(-90, 1230.0, 420.0)" cap="1uF" partNo="CUSTOM" thermalId="CUSTOM" esr="1uOhm" manufacturer="CUSTOM" />
  <text for="Cout" x="1245.0" y="420.0" style="font-family:arial;font-size:13px;stroke-width:0.5;stroke:#115566;fill:#115566;">Cout</text>
  <text for="Cout" x="1245.0" y="430.0" style="font-family:arial;font-size:10px;stroke-width:0.1;stroke:#CC0000;fill:#CC0000;">1uF</text>
  <text for="Cout" x="1245.0" y="440.0" style="font-family:arial;font-size:10px;stroke-width:0.1;stroke:#CC0000;fill:#CC0000;">1uOhm</text>
  <use id="D1" class="comp" xlink:href="#WB_DIODE_SCHOTTKY" x="1090.0" y="220.0" transform="rotate(-180, 1090.0, 220.0)" vfatio="1V" partNo="CDBW46-G" io="150mA" thermalId="SOD-123" vrrm="" manufacturer="Comchip Technology" />
  <text for="D1" x="1070.0" y="205.0" style="font-family:arial;font-size:13px;stroke-width:0.5;stroke:#115566;fill:#115566;">D1</text>
  <text for="D1" x="1070.0" y="240.0" style="font-family:arial;font-size:10px;stroke-width:0.1;stroke:#CC0000;fill:#CC0000;">1V</text>
  <text for="D1" x="1070.0" y="250.0" style="font-family:arial;font-size:10px;stroke-width:0.1;stroke:#CC0000;fill:#CC0000;">150mA</text>
  <use id="Rfbb" class="comp" xlink:href="#WB_RESISTOR" x="1150.0" y="430.0" transform="rotate(-90, 1150.0, 430.0)" partNo="CRCW04022K49FKED" thermalId="0402" resistance="2.49kOhm" manufacturer="Vishay-Dale" />
  <text for="Rfbb" x="1165.0" y="430.0" style="font-family:arial;font-size:13px;stroke-width:0.5;stroke:#115566;fill:#115566;">Rfbb</text>
  <text for="Rfbb" x="1165.0" y="440.0" style="font-family:arial;font-size:10px;stroke-width:0.1;stroke:#CC0000;fill:#CC0000;">2.49kOhm</text>
  <use id="Ccomp" class="comp" xlink:href="#WB_CAPACITOR" x="665.0" y="430.0" transform="rotate(-90, 665.0, 430.0)" cap="10nF" partNo="GRM155R70J103KA01D" thermalId="0402" esr="1mOhm" manufacturer="MuRata" />
  <text for="Ccomp" x="680.0" y="430.0" style="font-family:arial;font-size:13px;stroke-width:0.5;stroke:#115566;fill:#115566;">Ccomp</text>
  <text for="Ccomp" x="680.0" y="440.0" style="font-family:arial;font-size:10px;stroke-width:0.1;stroke:#CC0000;fill:#CC0000;">10nF</text>
  <text for="Ccomp" x="680.0" y="450.0" style="font-family:arial;font-size:10px;stroke-width:0.1;stroke:#CC0000;fill:#CC0000;">1mOhm</text>
  <use id="L1" class="comp" xlink:href="#WB_INDUCTOR" x="785.0" y="110.0" partNo="NPI32C2R7MTRF" thermalId="IND_NPI32C" l="2.7uH" dcr="100mOhm" manufacturer="NIC Components" />
  <text for="L1" x="765.0" y="95.0" style="font-family:arial;font-size:13px;stroke-width:0.5;stroke:#115566;fill:#115566;">L1</text>
  <text for="L1" x="765.0" y="130.0" style="font-family:arial;font-size:10px;stroke-width:0.1;stroke:#CC0000;fill:#CC0000;">2.7uH</text>
  <text for="L1" x="765.0" y="140.0" style="font-family:arial;font-size:10px;stroke-width:0.1;stroke:#CC0000;fill:#CC0000;">100mOhm</text>
  <use id="GND9" class="other" xlink:href="#WB_GND" x="455.0" y="200.0" />
  <use id="Cin" class="comp" xlink:href="#WB_CAPACITOR" x="195.0" y="430.0" transform="rotate(-90, 195.0, 430.0)" cap="4.7uF" partNo="GRM21BR61E475MA12L" thermalId="0805" esr="2mOhm" manufacturer="MuRata" />
  <text for="Cin" x="210.0" y="430.0" style="font-family:arial;font-size:13px;stroke-width:0.5;stroke:#115566;fill:#115566;">Cin</text>
  <text for="Cin" x="210.0" y="440.0" style="font-family:arial;font-size:10px;stroke-width:0.1;stroke:#CC0000;fill:#CC0000;">4.7uF</text>
  <text for="Cin" x="210.0" y="450.0" style="font-family:arial;font-size:10px;stroke-width:0.1;stroke:#CC0000;fill:#CC0000;">2mOhm</text>
  <use id="Coutx" class="comp" xlink:href="#WB_CAPACITOR" x="1315.0" y="425.0" transform="rotate(-90, 1315.0, 425.0)" cap="100nF" partNo="C2012X7R2A104K125AA" thermalId="0805" esr="20.726mOhm" manufacturer="TDK" />
  <text for="Coutx" x="1330.0" y="425.0" style="font-family:arial;font-size:13px;stroke-width:0.5;stroke:#115566;fill:#115566;">Coutx</text>
  <text for="Coutx" x="1330.0" y="435.0" style="font-family:arial;font-size:10px;stroke-width:0.1;stroke:#CC0000;fill:#CC0000;">100nF</text>
  <text for="Coutx" x="1330.0" y="445.0" style="font-family:arial;font-size:10px;stroke-width:0.1;stroke:#CC0000;fill:#CC0000;">20.726mOhm</text>
  <use id="Rt" class="comp" xlink:href="#WB_RESISTOR" x="445.0" y="430.0" transform="rotate(-90, 445.0, 430.0)" partNo="CRCW04029K53FKED" thermalId="0402" resistance="9.53kOhm" manufacturer="Vishay-Dale" />
  <text for="Rt" x="460.0" y="430.0" style="font-family:arial;font-size:13px;stroke-width:0.5;stroke:#115566;fill:#115566;">Rt</text>
  <text for="Rt" x="460.0" y="440.0" style="font-family:arial;font-size:10px;stroke-width:0.1;stroke:#CC0000;fill:#CC0000;">9.53kOhm</text>
  <use id="Ccomp2" class="comp" xlink:href="#WB_CAPACITOR" x="595.0" y="470.0" transform="rotate(-90, 595.0, 470.0)" cap="300pF" partNo="GRM1555C1E301JA01D" thermalId="0402" esr="1mOhm" manufacturer="MuRata" />
  <text for="Ccomp2" x="610.0" y="470.0" style="font-family:arial;font-size:13px;stroke-width:0.5;stroke:#115566;fill:#115566;">Ccomp2</text>
  <text for="Ccomp2" x="610.0" y="480.0" style="font-family:arial;font-size:10px;stroke-width:0.1;stroke:#CC0000;fill:#CC0000;">300pF</text>
  <text for="Ccomp2" x="610.0" y="490.0" style="font-family:arial;font-size:10px;stroke-width:0.1;stroke:#CC0000;fill:#CC0000;">1mOhm</text>
  <use id="U1" class="comp" xlink:href="#WB_LM5157-Q1RTE" x="790.0" y="290.0" />
  <text for="U1" x="770.0" y="290.0" style="font-family:arial;font-size:13px;stroke-width:0.5;stroke:#115566;fill:#115566;">U1</text>
  <use id="Cvcc" class="comp" xlink:href="#WB_CAPACITOR" x="580.0" y="170.0" transform="rotate(-180, 580.0, 170.0)" cap="1uF" partNo="C0805C105K4RACTU" thermalId="0805" esr="15mOhm" manufacturer="Kemet" />
  <text for="Cvcc" x="560.0" y="155.0" style="font-family:arial;font-size:13px;stroke-width:0.5;stroke:#115566;fill:#115566;">Cvcc</text>
  <text for="Cvcc" x="560.0" y="190.0" style="font-family:arial;font-size:10px;stroke-width:0.1;stroke:#CC0000;fill:#CC0000;">1uF</text>
  <text for="Cvcc" x="560.0" y="200.0" style="font-family:arial;font-size:10px;stroke-width:0.1;stroke:#CC0000;fill:#CC0000;">15mOhm</text>
  <use id="Vin" class="other" xlink:href="#WB_BATTERY" x="100.0" y="400.0" transform="rotate(-270, 100.0, 400.0)" />
  <text for="Vin" x="115.0" y="400.0" style="font-family:arial;font-size:13px;stroke-width:0.5;stroke:#CC0000;fill:#CC0000;">Vin</text>
  <use id="Iout" class="other" xlink:href="#WB_CURRENT_LOAD" x="1450.0" y="460.0" transform="rotate(-270, 1450.0, 460.0)" />
  <text for="Iout" x="1465.0" y="460.0" style="font-family:arial;font-size:13px;stroke-width:0.5;stroke:#CC0000;fill:#CC0000;">Iout</text>
  <line x1="590.0" y1="260.0" x2="590.0" y2="240.0" stroke="#000000" stroke-width="2" fill="none" />
  <line x1="590.0" y1="260.0" x2="690.0" y2="260.0" stroke="#000000" stroke-width="2" fill="none" />
  <line x1="365.0" y1="540.0" x2="365.0" y2="310.0" stroke="#000000" stroke-width="2" fill="none" />
  <line x1="890.0" y1="350.0" x2="910.0" y2="350.0" stroke="#000000" stroke-width="2" fill="none" />
  <line x1="935.0" y1="360.0" x2="1150.0" y2="360.0" stroke="#000000" stroke-width="2" fill="none" />
  <line x1="505.0" y1="240.0" x2="490.0" y2="240.0" stroke="#000000" stroke-width="2" fill="none" />
  <line x1="910.0" y1="330.0" x2="910.0" y2="540.0" stroke="#000000" stroke-width="2" fill="none" />
  <line x1="690.0" y1="170.0" x2="690.0" y2="220.0" stroke="#000000" stroke-width="2" fill="none" />
  <line x1="445.0" y1="400.0" x2="445.0" y2="330.0" stroke="#000000" stroke-width="2" fill="none" />
  <line x1="635.0" y1="110.0" x2="635.0" y2="240.0" stroke="#000000" stroke-width="2" fill="none" />
  <line x1="490.0" y1="240.0" x2="490.0" y2="170.0" stroke="#000000" stroke-width="2" fill="none" />
  <line x1="690.0" y1="330.0" x2="445.0" y2="330.0" stroke="#000000" stroke-width="2" fill="none" />
  <line x1="890.0" y1="330.0" x2="910.0" y2="330.0" stroke="#000000" stroke-width="2" fill="none" />
  <line x1="890.0" y1="240.0" x2="910.0" y2="240.0" stroke="#000000" stroke-width="2" fill="none" />
  <line x1="520.0" y1="405.0" x2="520.0" y2="350.0" stroke="#000000" stroke-width="2" fill="none" />
  <line x1="690.0" y1="290.0" x2="665.0" y2="290.0" stroke="#000000" stroke-width="2" fill="none" />
  <line x1="690.0" y1="310.0" x2="365.0" y2="310.0" stroke="#000000" stroke-width="2" fill="none" />
  <line x1="665.0" y1="290.0" x2="665.0" y2="195.0" stroke="#000000" stroke-width="2" fill="none" />
  <line x1="610.0" y1="170.0" x2="690.0" y2="170.0" stroke="#000000" stroke-width="2" fill="none" />
  <line x1="1315.0" y1="455.0" x2="1315.0" y2="540.0" stroke="#000000" stroke-width="2" fill="none" />
  <line x1="595.0" y1="500.0" x2="595.0" y2="540.0" stroke="#000000" stroke-width="2" fill="none" />
  <line x1="445.0" y1="460.0" x2="445.0" y2="540.0" stroke="#000000" stroke-width="2" fill="none" />
  <line x1="890.0" y1="230.0" x2="910.0" y2="230.0" stroke="#000000" stroke-width="2" fill="none" />
  <line x1="455.0" y1="170.0" x2="550.0" y2="170.0" stroke="#000000" stroke-width="2" fill="none" />
  <line x1="965.0" y1="110.0" x2="965.0" y2="220.0" stroke="#000000" stroke-width="2" fill="none" />
  <line x1="895.0" y1="360.0" x2="895.0" y2="370.0" stroke="#000000" stroke-width="2" fill="none" />
  <line x1="665.0" y1="400.0" x2="665.0" y2="370.0" stroke="#000000" stroke-width="2" fill="none" />
  <line x1="565.0" y1="240.0" x2="690.0" y2="240.0" stroke="#000000" stroke-width="2" fill="none" />
  <line x1="665.0" y1="530.0" x2="665.0" y2="540.0" stroke="#000000" stroke-width="2" fill="none" />
  <line x1="455.0" y1="190.0" x2="455.0" y2="170.0" stroke="#000000" stroke-width="2" fill="none" />
  <line x1="1315.0" y1="395.0" x2="1315.0" y2="220.0" stroke="#000000" stroke-width="2" fill="none" />
  <line x1="690.0" y1="370.0" x2="595.0" y2="370.0" stroke="#000000" stroke-width="2" fill="none" />
  <line x1="1150.0" y1="460.0" x2="1150.0" y2="540.0" stroke="#000000" stroke-width="2" fill="none" />
  <line x1="1230.0" y1="450.0" x2="1230.0" y2="540.0" stroke="#000000" stroke-width="2" fill="none" />
  <line x1="1150.0" y1="335.0" x2="1150.0" y2="400.0" stroke="#000000" stroke-width="2" fill="none" />
  <line x1="935.0" y1="195.0" x2="935.0" y2="360.0" stroke="#000000" stroke-width="2" fill="none" />
  <line x1="755.0" y1="550.0" x2="755.0" y2="540.0" stroke="#000000" stroke-width="2" fill="none" />
  <line x1="815.0" y1="110.0" x2="965.0" y2="110.0" stroke="#000000" stroke-width="2" fill="none" />
  <line x1="520.0" y1="465.0" x2="520.0" y2="540.0" stroke="#000000" stroke-width="2" fill="none" />
  <line x1="195.0" y1="540.0" x2="195.0" y2="460.0" stroke="#000000" stroke-width="2" fill="none" />
  <line x1="1150.0" y1="275.0" x2="1150.0" y2="220.0" stroke="#000000" stroke-width="2" fill="none" />
  <line x1="690.0" y1="350.0" x2="520.0" y2="350.0" stroke="#000000" stroke-width="2" fill="none" />
  <line x1="665.0" y1="195.0" x2="935.0" y2="195.0" stroke="#000000" stroke-width="2" fill="none" />
  <line x1="890.0" y1="370.0" x2="910.0" y2="370.0" stroke="#000000" stroke-width="2" fill="none" />
  <line x1="665.0" y1="460.0" x2="665.0" y2="470.0" stroke="#000000" stroke-width="2" fill="none" />
  <line x1="595.0" y1="440.0" x2="595.0" y2="370.0" stroke="#000000" stroke-width="2" fill="none" />
  <line x1="890.0" y1="360.0" x2="895.0" y2="360.0" stroke="#000000" stroke-width="2" fill="none" />
  <line x1="910.0" y1="240.0" x2="910.0" y2="220.0" stroke="#000000" stroke-width="2" fill="none" />
  <line x1="1120.0" y1="220.0" x2="1450.0" y2="220.0" stroke="#000000" stroke-width="2" fill="none" />
  <line x1="100.0" y1="540.0" x2="1450.0" y2="540.0" stroke="#000000" stroke-width="2" fill="none" />
  <line x1="195.0" y1="400.0" x2="195.0" y2="110.0" stroke="#000000" stroke-width="2" fill="none" />
  <line x1="890.0" y1="220.0" x2="1060.0" y2="220.0" stroke="#000000" stroke-width="2" fill="none" />
  <line x1="100.0" y1="110.0" x2="755.0" y2="110.0" stroke="#000000" stroke-width="2" fill="none" />
  <line x1="1230.0" y1="390.0" x2="1230.0" y2="220.0" stroke="#000000" stroke-width="2" fill="none" />
  <line x1="100.0" y1="370.0" x2="100.0" y2="110.0" stroke="#000000" stroke-width="2" fill="none" />
  <line x1="100.0" y1="540.0" x2="100.0" y2="430.0" stroke="#000000" stroke-width="2" fill="none" />
  <line x1="1450.0" y1="430.0" x2="1450.0" y2="220.0" stroke="#000000" stroke-width="2" fill="none" />
  <line x1="1450.0" y1="540.0" x2="1450.0" y2="490.0" stroke="#000000" stroke-width="2" fill="none" />
  <circle cx="910.0" cy="350.0" r="5" stroke="#000000" stroke-width="0" fill="#000000" />
  <circle cx="910.0" cy="370.0" r="5" stroke="#000000" stroke-width="0" fill="#000000" />
  <circle cx="490.0" cy="170.0" r="5" stroke="#000000" stroke-width="0" fill="#000000" />
  <circle cx="590.0" cy="240.0" r="5" stroke="#000000" stroke-width="0" fill="#000000" />
  <circle cx="635.0" cy="240.0" r="5" stroke="#000000" stroke-width="0" fill="#000000" />
  <circle cx="665.0" cy="370.0" r="5" stroke="#000000" stroke-width="0" fill="#000000" />
  <circle cx="1150.0" cy="360.0" r="5" stroke="#000000" stroke-width="0" fill="#000000" />
  <circle cx="895.0" cy="370.0" r="5" stroke="#000000" stroke-width="0" fill="#000000" />
  <circle cx="910.0" cy="230.0" r="5" stroke="#000000" stroke-width="0" fill="#000000" />
  <circle cx="1315.0" cy="220.0" r="5" stroke="#000000" stroke-width="0" fill="#000000" />
  <circle cx="1150.0" cy="220.0" r="5" stroke="#000000" stroke-width="0" fill="#000000" />
  <circle cx="1230.0" cy="220.0" r="5" stroke="#000000" stroke-width="0" fill="#000000" />
  <circle cx="365.0" cy="540.0" r="5" stroke="#000000" stroke-width="0" fill="#000000" />
  <circle cx="910.0" cy="540.0" r="5" stroke="#000000" stroke-width="0" fill="#000000" />
  <circle cx="1315.0" cy="540.0" r="5" stroke="#000000" stroke-width="0" fill="#000000" />
  <circle cx="595.0" cy="540.0" r="5" stroke="#000000" stroke-width="0" fill="#000000" />
  <circle cx="445.0" cy="540.0" r="5" stroke="#000000" stroke-width="0" fill="#000000" />
  <circle cx="665.0" cy="540.0" r="5" stroke="#000000" stroke-width="0" fill="#000000" />
  <circle cx="1150.0" cy="540.0" r="5" stroke="#000000" stroke-width="0" fill="#000000" />
  <circle cx="1230.0" cy="540.0" r="5" stroke="#000000" stroke-width="0" fill="#000000" />
  <circle cx="755.0" cy="540.0" r="5" stroke="#000000" stroke-width="0" fill="#000000" />
  <circle cx="520.0" cy="540.0" r="5" stroke="#000000" stroke-width="0" fill="#000000" />
  <circle cx="195.0" cy="540.0" r="5" stroke="#000000" stroke-width="0" fill="#000000" />
  <circle cx="965.0" cy="220.0" r="5" stroke="#000000" stroke-width="0" fill="#000000" />
  <circle cx="910.0" cy="220.0" r="5" stroke="#000000" stroke-width="0" fill="#000000" />
  <circle cx="635.0" cy="110.0" r="5" stroke="#000000" stroke-width="0" fill="#000000" />
  <circle cx="195.0" cy="110.0" r="5" stroke="#000000" stroke-width="0" fill="#000000" />
</svg>

