%TF.GenerationSoftware,KiCad,Pcbnew,5.1.10*%
%TF.CreationDate,2021-06-21T22:36:55+02:00*%
%TF.ProjectId,supply,73757070-6c79-42e6-9b69-6361645f7063,rev?*%
%TF.SameCoordinates,Original*%
%TF.FileFunction,Copper,L2,Bot*%
%TF.FilePolarity,Positive*%
%FSLAX46Y46*%
G04 Gerber Fmt 4.6, Leading zero omitted, Abs format (unit mm)*
G04 Created by KiCad (PCBNEW 5.1.10) date 2021-06-21 22:36:55*
%MOMM*%
%LPD*%
G01*
G04 APERTURE LIST*
%TA.AperFunction,ComponentPad*%
%ADD10O,1.700000X1.700000*%
%TD*%
%TA.AperFunction,ComponentPad*%
%ADD11R,1.700000X1.700000*%
%TD*%
%TA.AperFunction,ComponentPad*%
%ADD12C,3.800000*%
%TD*%
%TA.AperFunction,ComponentPad*%
%ADD13C,1.600000*%
%TD*%
%TA.AperFunction,ComponentPad*%
%ADD14O,1.600000X1.600000*%
%TD*%
%TA.AperFunction,ComponentPad*%
%ADD15C,2.000000*%
%TD*%
%TA.AperFunction,ComponentPad*%
%ADD16R,2.000000X2.000000*%
%TD*%
%TA.AperFunction,ComponentPad*%
%ADD17R,1.600000X1.600000*%
%TD*%
%TA.AperFunction,ComponentPad*%
%ADD18R,1.800000X1.800000*%
%TD*%
%TA.AperFunction,ComponentPad*%
%ADD19C,1.800000*%
%TD*%
%TA.AperFunction,ComponentPad*%
%ADD20O,2.000000X2.000000*%
%TD*%
%TA.AperFunction,ComponentPad*%
%ADD21R,1.350000X1.350000*%
%TD*%
%TA.AperFunction,ComponentPad*%
%ADD22O,1.350000X1.350000*%
%TD*%
%TA.AperFunction,ComponentPad*%
%ADD23C,0.377500*%
%TD*%
%TA.AperFunction,ViaPad*%
%ADD24C,0.800000*%
%TD*%
%TA.AperFunction,Conductor*%
%ADD25C,0.250000*%
%TD*%
%TA.AperFunction,Conductor*%
%ADD26C,0.254000*%
%TD*%
%TA.AperFunction,Conductor*%
%ADD27C,0.100000*%
%TD*%
G04 APERTURE END LIST*
D10*
%TO.P,BT1,2*%
%TO.N,GND*%
X47500000Y-117540000D03*
D11*
%TO.P,BT1,1*%
%TO.N,Net-(BT1-Pad1)*%
X47500000Y-115000000D03*
%TD*%
D12*
%TO.P,J2,1*%
%TO.N,Net-(C6-Pad1)*%
X101500000Y-99500000D03*
%TD*%
%TO.P,J3,1*%
%TO.N,Net-(C5-Pad1)*%
X101500000Y-91500000D03*
%TD*%
%TO.P,J4,1*%
%TO.N,GND*%
X101500000Y-107000000D03*
%TD*%
D13*
%TO.P,R3,1*%
%TO.N,Net-(C10-Pad2)*%
X95000000Y-102000000D03*
D14*
%TO.P,R3,2*%
%TO.N,Net-(C6-Pad1)*%
X95000000Y-109620000D03*
%TD*%
%TO.P,R4,2*%
%TO.N,Net-(C10-Pad2)*%
X95000000Y-98620000D03*
D13*
%TO.P,R4,1*%
%TO.N,Net-(C5-Pad1)*%
X95000000Y-91000000D03*
%TD*%
D15*
%TO.P,TR1,6*%
%TO.N,Net-(C5-Pad2)*%
X84000000Y-93380000D03*
D16*
%TO.P,TR1,1*%
%TO.N,Net-(TR1-Pad1)*%
X71300000Y-93380000D03*
D15*
%TO.P,TR1,5*%
%TO.N,Net-(TR1-Pad5)*%
X84000000Y-101000000D03*
%TO.P,TR1,2*%
%TO.N,Net-(TR1-Pad2)*%
X71300000Y-101000000D03*
%TO.P,TR1,4*%
%TO.N,Net-(C6-Pad2)*%
X84000000Y-108620000D03*
%TO.P,TR1,3*%
%TO.N,GND*%
X71300000Y-108620000D03*
%TD*%
D12*
%TO.P,J6,1*%
%TO.N,Net-(J6-Pad1)*%
X45500000Y-135500000D03*
%TD*%
%TO.P,J7,1*%
%TO.N,Net-(J7-Pad1)*%
X107000000Y-135500000D03*
%TD*%
%TO.P,J8,1*%
%TO.N,Net-(J8-Pad1)*%
X45500000Y-89000000D03*
%TD*%
%TO.P,J9,1*%
%TO.N,Net-(J9-Pad1)*%
X107000000Y-89000000D03*
%TD*%
D13*
%TO.P,C1,2*%
%TO.N,GND*%
X52500000Y-117500000D03*
%TO.P,C1,1*%
%TO.N,Net-(BT1-Pad1)*%
X52500000Y-115000000D03*
%TD*%
%TO.P,C2,2*%
%TO.N,GND*%
X52500000Y-120500000D03*
%TO.P,C2,1*%
%TO.N,VCC*%
X52500000Y-123000000D03*
%TD*%
%TO.P,C3,1*%
%TO.N,Net-(C3-Pad1)*%
X95000000Y-114500000D03*
%TO.P,C3,2*%
%TO.N,GND*%
X97500000Y-114500000D03*
%TD*%
%TO.P,C4,1*%
%TO.N,Net-(C4-Pad1)*%
X52500000Y-128000000D03*
%TO.P,C4,2*%
%TO.N,GND*%
X52500000Y-125500000D03*
%TD*%
%TO.P,C5,1*%
%TO.N,Net-(C5-Pad1)*%
X89000000Y-91500000D03*
%TO.P,C5,2*%
%TO.N,Net-(C5-Pad2)*%
X89000000Y-94000000D03*
%TD*%
%TO.P,C6,2*%
%TO.N,Net-(C6-Pad2)*%
X89000000Y-110000000D03*
%TO.P,C6,1*%
%TO.N,Net-(C6-Pad1)*%
X89000000Y-107500000D03*
%TD*%
%TO.P,C7,2*%
%TO.N,GND*%
X59000000Y-115000000D03*
%TO.P,C7,1*%
%TO.N,Net-(C7-Pad1)*%
X59000000Y-117500000D03*
%TD*%
%TO.P,C8,1*%
%TO.N,Net-(C7-Pad1)*%
X59000000Y-120500000D03*
%TO.P,C8,2*%
%TO.N,Net-(C8-Pad2)*%
X59000000Y-123000000D03*
%TD*%
%TO.P,C9,2*%
%TO.N,Net-(C10-Pad2)*%
X97500000Y-119500000D03*
%TO.P,C9,1*%
%TO.N,GND*%
X95000000Y-119500000D03*
%TD*%
%TO.P,C10,1*%
%TO.N,GND*%
X94500000Y-128000000D03*
%TO.P,C10,2*%
%TO.N,Net-(C10-Pad2)*%
X94500000Y-125500000D03*
%TD*%
D17*
%TO.P,D1,1*%
%TO.N,Net-(C10-Pad2)*%
X67880000Y-114000000D03*
D14*
%TO.P,D1,2*%
%TO.N,Net-(D1-Pad2)*%
X75500000Y-114000000D03*
%TD*%
D18*
%TO.P,D2,1*%
%TO.N,GND*%
X101500000Y-126500000D03*
D19*
%TO.P,D2,2*%
%TO.N,Net-(C10-Pad2)*%
X101500000Y-123960000D03*
%TD*%
D15*
%TO.P,L1,1*%
%TO.N,VCC*%
X65275000Y-121325000D03*
D20*
%TO.P,L1,2*%
%TO.N,Net-(D1-Pad2)*%
X77975000Y-121325000D03*
%TD*%
D14*
%TO.P,R1,2*%
%TO.N,GND*%
X90620000Y-119500000D03*
D13*
%TO.P,R1,1*%
%TO.N,Net-(R1-Pad1)*%
X83000000Y-119500000D03*
%TD*%
%TO.P,R2,1*%
%TO.N,Net-(C8-Pad2)*%
X82880000Y-114500000D03*
D14*
%TO.P,R2,2*%
%TO.N,GND*%
X90500000Y-114500000D03*
%TD*%
D13*
%TO.P,R5,1*%
%TO.N,Net-(C10-Pad2)*%
X84000000Y-123500000D03*
D14*
%TO.P,R5,2*%
%TO.N,Net-(R5-Pad2)*%
X84000000Y-131120000D03*
%TD*%
%TO.P,R6,2*%
%TO.N,GND*%
X88500000Y-123500000D03*
D13*
%TO.P,R6,1*%
%TO.N,Net-(R5-Pad2)*%
X88500000Y-131120000D03*
%TD*%
D21*
%TO.P,SW1,1*%
%TO.N,Net-(BT1-Pad1)*%
X47500000Y-122500000D03*
D22*
%TO.P,SW1,2*%
%TO.N,VCC*%
X47500000Y-124500000D03*
%TD*%
D23*
%TO.P,U1,17*%
%TO.N,GND*%
X71000000Y-127500500D03*
X71000000Y-128255500D03*
X71755000Y-127500500D03*
X71755000Y-128255500D03*
%TD*%
D12*
%TO.P,J1,1*%
%TO.N,GND*%
X47825000Y-96675000D03*
%TD*%
%TO.P,J5,1*%
%TO.N,Net-(J5-Pad1)*%
X47825000Y-102025000D03*
%TD*%
D13*
%TO.P,C11,1*%
%TO.N,Net-(C11-Pad1)*%
X52000000Y-90000000D03*
%TO.P,C11,2*%
%TO.N,GND*%
X52000000Y-92500000D03*
%TD*%
%TO.P,R7,1*%
%TO.N,Net-(R7-Pad1)*%
X54000000Y-105120000D03*
D14*
%TO.P,R7,2*%
%TO.N,Net-(C11-Pad1)*%
X54000000Y-97500000D03*
%TD*%
D11*
%TO.P,RV1,1*%
%TO.N,Net-(R7-Pad1)*%
X59000000Y-91000000D03*
D10*
%TO.P,RV1,2*%
%TO.N,Net-(J5-Pad1)*%
X61540000Y-91000000D03*
%TO.P,RV1,3*%
%TO.N,Net-(RV1-Pad3)*%
X64080000Y-91000000D03*
%TD*%
D17*
%TO.P,U2,1*%
%TO.N,Net-(U2-Pad1)*%
X58380000Y-97500000D03*
D14*
%TO.P,U2,5*%
%TO.N,Net-(U2-Pad5)*%
X66000000Y-105120000D03*
%TO.P,U2,2*%
%TO.N,Net-(R7-Pad1)*%
X58380000Y-100040000D03*
%TO.P,U2,6*%
%TO.N,Net-(J5-Pad1)*%
X66000000Y-102580000D03*
%TO.P,U2,3*%
%TO.N,Net-(TR1-Pad1)*%
X58380000Y-102580000D03*
%TO.P,U2,7*%
%TO.N,VCC*%
X66000000Y-100040000D03*
%TO.P,U2,4*%
%TO.N,GND*%
X58380000Y-105120000D03*
%TO.P,U2,8*%
%TO.N,Net-(U2-Pad8)*%
X66000000Y-97500000D03*
%TD*%
D24*
%TO.N,Net-(C4-Pad1)*%
X75000000Y-127500000D03*
%TD*%
D25*
%TO.N,GND*%
X71000000Y-127500500D02*
X71000000Y-128255500D01*
X71755000Y-128255500D02*
X71755000Y-127500500D01*
X71000000Y-127500500D02*
X71755000Y-127500500D01*
%TO.N,Net-(BT1-Pad1)*%
X47500000Y-115000000D02*
X47500000Y-116175300D01*
X47500000Y-122500000D02*
X47500000Y-121499700D01*
X47500000Y-121499700D02*
X46324700Y-120324400D01*
X46324700Y-120324400D02*
X46324700Y-116983200D01*
X46324700Y-116983200D02*
X47132600Y-116175300D01*
X47132600Y-116175300D02*
X47500000Y-116175300D01*
%TO.N,VCC*%
X52500000Y-123000000D02*
X53750000Y-121750000D01*
X53750000Y-121750000D02*
X64850000Y-121750000D01*
X64850000Y-121750000D02*
X65275000Y-121325000D01*
%TO.N,Net-(C4-Pad1)*%
X53513251Y-126986749D02*
X52500000Y-128000000D01*
X74486749Y-126986749D02*
X53513251Y-126986749D01*
X75000000Y-127500000D02*
X74486749Y-126986749D01*
%TO.N,Net-(C5-Pad1)*%
X95500000Y-91500000D02*
X95000000Y-91000000D01*
X101500000Y-91500000D02*
X95500000Y-91500000D01*
X89500000Y-91000000D02*
X89000000Y-91500000D01*
X95000000Y-91000000D02*
X89500000Y-91000000D01*
%TO.N,Net-(C5-Pad2)*%
X84620000Y-94000000D02*
X84000000Y-93380000D01*
X89000000Y-94000000D02*
X84620000Y-94000000D01*
%TO.N,Net-(C6-Pad2)*%
X84000000Y-108620000D02*
X87620000Y-108620000D01*
X87625001Y-108625001D02*
X89000000Y-110000000D01*
X87620000Y-108620000D02*
X87625001Y-108625001D01*
%TO.N,Net-(C6-Pad1)*%
X92880000Y-107500000D02*
X95000000Y-109620000D01*
X89000000Y-107500000D02*
X92880000Y-107500000D01*
X93500000Y-107500000D02*
X92880000Y-107500000D01*
X101500000Y-99500000D02*
X93500000Y-107500000D01*
%TO.N,Net-(C7-Pad1)*%
X59000000Y-120500000D02*
X59000000Y-117500000D01*
%TO.N,Net-(C10-Pad2)*%
X84000000Y-123500000D02*
X77603200Y-117103200D01*
X77603200Y-117103200D02*
X77603200Y-114497100D01*
X77603200Y-114497100D02*
X73055700Y-109949600D01*
X97500000Y-123299900D02*
X100839900Y-123299900D01*
X100839900Y-123299900D02*
X101500000Y-123960000D01*
X94500000Y-125500000D02*
X96700100Y-123299900D01*
X96700100Y-123299900D02*
X97500000Y-123299900D01*
X97500000Y-123299900D02*
X97500000Y-119500000D01*
X69005300Y-114000000D02*
X73055700Y-109949600D01*
X67880000Y-114000000D02*
X69005300Y-114000000D01*
X95000000Y-98620000D02*
X95000000Y-102000000D01*
%TO.N,Net-(D1-Pad2)*%
X77975000Y-121325000D02*
X77975000Y-119999700D01*
X77975000Y-119999700D02*
X75500000Y-117524700D01*
X75500000Y-117524700D02*
X75500000Y-114000000D01*
%TO.N,Net-(R5-Pad2)*%
X84000000Y-131120000D02*
X88500000Y-131120000D01*
%TO.N,VCC*%
X67125001Y-112569997D02*
X67125001Y-101165001D01*
X67125001Y-101165001D02*
X66000000Y-100040000D01*
X65275000Y-114419998D02*
X67125001Y-112569997D01*
X65275000Y-121325000D02*
X65275000Y-114419998D01*
%TO.N,Net-(J5-Pad1)*%
X60364999Y-92175001D02*
X61540000Y-91000000D01*
X57674999Y-92175001D02*
X60364999Y-92175001D01*
X47825000Y-102025000D02*
X57674999Y-92175001D01*
X60364999Y-96944999D02*
X60364999Y-92175001D01*
X66000000Y-102580000D02*
X60364999Y-96944999D01*
%TO.N,Net-(R7-Pad1)*%
X54000000Y-104420000D02*
X54000000Y-105120000D01*
X58380000Y-100040000D02*
X54000000Y-104420000D01*
%TD*%
D26*
%TO.N,GND*%
X110340001Y-138840000D02*
X41660000Y-138840000D01*
X41660000Y-135250324D01*
X42965000Y-135250324D01*
X42965000Y-135749676D01*
X43062418Y-136239432D01*
X43253512Y-136700773D01*
X43530937Y-137115968D01*
X43884032Y-137469063D01*
X44299227Y-137746488D01*
X44760568Y-137937582D01*
X45250324Y-138035000D01*
X45749676Y-138035000D01*
X46239432Y-137937582D01*
X46700773Y-137746488D01*
X47115968Y-137469063D01*
X47469063Y-137115968D01*
X47746488Y-136700773D01*
X47937582Y-136239432D01*
X48035000Y-135749676D01*
X48035000Y-135250324D01*
X104465000Y-135250324D01*
X104465000Y-135749676D01*
X104562418Y-136239432D01*
X104753512Y-136700773D01*
X105030937Y-137115968D01*
X105384032Y-137469063D01*
X105799227Y-137746488D01*
X106260568Y-137937582D01*
X106750324Y-138035000D01*
X107249676Y-138035000D01*
X107739432Y-137937582D01*
X108200773Y-137746488D01*
X108615968Y-137469063D01*
X108969063Y-137115968D01*
X109246488Y-136700773D01*
X109437582Y-136239432D01*
X109535000Y-135749676D01*
X109535000Y-135250324D01*
X109437582Y-134760568D01*
X109246488Y-134299227D01*
X108969063Y-133884032D01*
X108615968Y-133530937D01*
X108200773Y-133253512D01*
X107739432Y-133062418D01*
X107249676Y-132965000D01*
X106750324Y-132965000D01*
X106260568Y-133062418D01*
X105799227Y-133253512D01*
X105384032Y-133530937D01*
X105030937Y-133884032D01*
X104753512Y-134299227D01*
X104562418Y-134760568D01*
X104465000Y-135250324D01*
X48035000Y-135250324D01*
X47937582Y-134760568D01*
X47746488Y-134299227D01*
X47469063Y-133884032D01*
X47115968Y-133530937D01*
X46700773Y-133253512D01*
X46239432Y-133062418D01*
X45749676Y-132965000D01*
X45250324Y-132965000D01*
X44760568Y-133062418D01*
X44299227Y-133253512D01*
X43884032Y-133530937D01*
X43530937Y-133884032D01*
X43253512Y-134299227D01*
X43062418Y-134760568D01*
X42965000Y-135250324D01*
X41660000Y-135250324D01*
X41660000Y-130978665D01*
X82565000Y-130978665D01*
X82565000Y-131261335D01*
X82620147Y-131538574D01*
X82728320Y-131799727D01*
X82885363Y-132034759D01*
X83085241Y-132234637D01*
X83320273Y-132391680D01*
X83581426Y-132499853D01*
X83858665Y-132555000D01*
X84141335Y-132555000D01*
X84418574Y-132499853D01*
X84679727Y-132391680D01*
X84914759Y-132234637D01*
X85114637Y-132034759D01*
X85218043Y-131880000D01*
X87281957Y-131880000D01*
X87385363Y-132034759D01*
X87585241Y-132234637D01*
X87820273Y-132391680D01*
X88081426Y-132499853D01*
X88358665Y-132555000D01*
X88641335Y-132555000D01*
X88918574Y-132499853D01*
X89179727Y-132391680D01*
X89414759Y-132234637D01*
X89614637Y-132034759D01*
X89771680Y-131799727D01*
X89879853Y-131538574D01*
X89935000Y-131261335D01*
X89935000Y-130978665D01*
X89879853Y-130701426D01*
X89771680Y-130440273D01*
X89614637Y-130205241D01*
X89414759Y-130005363D01*
X89179727Y-129848320D01*
X88918574Y-129740147D01*
X88641335Y-129685000D01*
X88358665Y-129685000D01*
X88081426Y-129740147D01*
X87820273Y-129848320D01*
X87585241Y-130005363D01*
X87385363Y-130205241D01*
X87281957Y-130360000D01*
X85218043Y-130360000D01*
X85114637Y-130205241D01*
X84914759Y-130005363D01*
X84679727Y-129848320D01*
X84418574Y-129740147D01*
X84141335Y-129685000D01*
X83858665Y-129685000D01*
X83581426Y-129740147D01*
X83320273Y-129848320D01*
X83085241Y-130005363D01*
X82885363Y-130205241D01*
X82728320Y-130440273D01*
X82620147Y-130701426D01*
X82565000Y-130978665D01*
X41660000Y-130978665D01*
X41660000Y-127858665D01*
X51065000Y-127858665D01*
X51065000Y-128141335D01*
X51120147Y-128418574D01*
X51228320Y-128679727D01*
X51385363Y-128914759D01*
X51585241Y-129114637D01*
X51820273Y-129271680D01*
X52081426Y-129379853D01*
X52358665Y-129435000D01*
X52641335Y-129435000D01*
X52918574Y-129379853D01*
X53179727Y-129271680D01*
X53414759Y-129114637D01*
X53614637Y-128914759D01*
X53771680Y-128679727D01*
X53879853Y-128418574D01*
X53935000Y-128141335D01*
X53935000Y-127858665D01*
X53912738Y-127746749D01*
X73993804Y-127746749D01*
X74004774Y-127801898D01*
X74082795Y-127990256D01*
X74196063Y-128159774D01*
X74340226Y-128303937D01*
X74509744Y-128417205D01*
X74698102Y-128495226D01*
X74898061Y-128535000D01*
X75101939Y-128535000D01*
X75301898Y-128495226D01*
X75490256Y-128417205D01*
X75659774Y-128303937D01*
X75803937Y-128159774D01*
X75917205Y-127990256D01*
X75995226Y-127801898D01*
X76035000Y-127601939D01*
X76035000Y-127398061D01*
X75995226Y-127198102D01*
X75917205Y-127009744D01*
X75803937Y-126840226D01*
X75659774Y-126696063D01*
X75490256Y-126582795D01*
X75301898Y-126504774D01*
X75101939Y-126465000D01*
X75041729Y-126465000D01*
X75026750Y-126446748D01*
X74911025Y-126351775D01*
X74778996Y-126281203D01*
X74635735Y-126237746D01*
X74524082Y-126226749D01*
X74524071Y-126226749D01*
X74486749Y-126223073D01*
X74449427Y-126226749D01*
X53550573Y-126226749D01*
X53513250Y-126223073D01*
X53475927Y-126226749D01*
X53475918Y-126226749D01*
X53364265Y-126237746D01*
X53221004Y-126281203D01*
X53088975Y-126351775D01*
X52973250Y-126446748D01*
X52949452Y-126475746D01*
X52823886Y-126601312D01*
X52641335Y-126565000D01*
X52358665Y-126565000D01*
X52081426Y-126620147D01*
X51820273Y-126728320D01*
X51585241Y-126885363D01*
X51385363Y-127085241D01*
X51228320Y-127320273D01*
X51120147Y-127581426D01*
X51065000Y-127858665D01*
X41660000Y-127858665D01*
X41660000Y-116983200D01*
X45561024Y-116983200D01*
X45564701Y-117020532D01*
X45564700Y-120287077D01*
X45561024Y-120324400D01*
X45564700Y-120361722D01*
X45564700Y-120361732D01*
X45575697Y-120473385D01*
X45618545Y-120614637D01*
X45619154Y-120616646D01*
X45689726Y-120748676D01*
X45719536Y-120784999D01*
X45784699Y-120864401D01*
X45813703Y-120888204D01*
X46340233Y-121414735D01*
X46294463Y-121470506D01*
X46235498Y-121580820D01*
X46199188Y-121700518D01*
X46186928Y-121825000D01*
X46186928Y-123175000D01*
X46199188Y-123299482D01*
X46235498Y-123419180D01*
X46294463Y-123529494D01*
X46373815Y-123626185D01*
X46460697Y-123697487D01*
X46339093Y-123879482D01*
X46240342Y-124117887D01*
X46190000Y-124370976D01*
X46190000Y-124629024D01*
X46240342Y-124882113D01*
X46339093Y-125120518D01*
X46482456Y-125335077D01*
X46664923Y-125517544D01*
X46879482Y-125660907D01*
X47117887Y-125759658D01*
X47370976Y-125810000D01*
X47629024Y-125810000D01*
X47882113Y-125759658D01*
X48120518Y-125660907D01*
X48335077Y-125517544D01*
X48493956Y-125358665D01*
X93065000Y-125358665D01*
X93065000Y-125641335D01*
X93120147Y-125918574D01*
X93228320Y-126179727D01*
X93385363Y-126414759D01*
X93585241Y-126614637D01*
X93820273Y-126771680D01*
X94081426Y-126879853D01*
X94358665Y-126935000D01*
X94641335Y-126935000D01*
X94918574Y-126879853D01*
X95179727Y-126771680D01*
X95414759Y-126614637D01*
X95614637Y-126414759D01*
X95771680Y-126179727D01*
X95879853Y-125918574D01*
X95935000Y-125641335D01*
X95935000Y-125358665D01*
X95898688Y-125176114D01*
X97014902Y-124059900D01*
X97462667Y-124059900D01*
X97500000Y-124063577D01*
X97537333Y-124059900D01*
X99965000Y-124059900D01*
X99965000Y-124111184D01*
X100023989Y-124407743D01*
X100139701Y-124687095D01*
X100307688Y-124938505D01*
X100521495Y-125152312D01*
X100772905Y-125320299D01*
X101052257Y-125436011D01*
X101348816Y-125495000D01*
X101651184Y-125495000D01*
X101947743Y-125436011D01*
X102227095Y-125320299D01*
X102478505Y-125152312D01*
X102692312Y-124938505D01*
X102860299Y-124687095D01*
X102976011Y-124407743D01*
X103035000Y-124111184D01*
X103035000Y-123808816D01*
X102976011Y-123512257D01*
X102860299Y-123232905D01*
X102692312Y-122981495D01*
X102478505Y-122767688D01*
X102227095Y-122599701D01*
X101947743Y-122483989D01*
X101651184Y-122425000D01*
X101348816Y-122425000D01*
X101052257Y-122483989D01*
X100909584Y-122543086D01*
X100877233Y-122539900D01*
X100877222Y-122539900D01*
X100839900Y-122536224D01*
X100802578Y-122539900D01*
X98260000Y-122539900D01*
X98260000Y-120718043D01*
X98414759Y-120614637D01*
X98614637Y-120414759D01*
X98771680Y-120179727D01*
X98879853Y-119918574D01*
X98935000Y-119641335D01*
X98935000Y-119358665D01*
X98879853Y-119081426D01*
X98771680Y-118820273D01*
X98614637Y-118585241D01*
X98414759Y-118385363D01*
X98179727Y-118228320D01*
X97918574Y-118120147D01*
X97641335Y-118065000D01*
X97358665Y-118065000D01*
X97081426Y-118120147D01*
X96820273Y-118228320D01*
X96585241Y-118385363D01*
X96385363Y-118585241D01*
X96228320Y-118820273D01*
X96120147Y-119081426D01*
X96065000Y-119358665D01*
X96065000Y-119641335D01*
X96120147Y-119918574D01*
X96228320Y-120179727D01*
X96385363Y-120414759D01*
X96585241Y-120614637D01*
X96740001Y-120718044D01*
X96740000Y-122539900D01*
X96737422Y-122539900D01*
X96700099Y-122536224D01*
X96662776Y-122539900D01*
X96662767Y-122539900D01*
X96551114Y-122550897D01*
X96407853Y-122594354D01*
X96275824Y-122664926D01*
X96160099Y-122759899D01*
X96136301Y-122788897D01*
X94823886Y-124101312D01*
X94641335Y-124065000D01*
X94358665Y-124065000D01*
X94081426Y-124120147D01*
X93820273Y-124228320D01*
X93585241Y-124385363D01*
X93385363Y-124585241D01*
X93228320Y-124820273D01*
X93120147Y-125081426D01*
X93065000Y-125358665D01*
X48493956Y-125358665D01*
X48517544Y-125335077D01*
X48660907Y-125120518D01*
X48759658Y-124882113D01*
X48810000Y-124629024D01*
X48810000Y-124370976D01*
X48759658Y-124117887D01*
X48660907Y-123879482D01*
X48539303Y-123697487D01*
X48626185Y-123626185D01*
X48705537Y-123529494D01*
X48764502Y-123419180D01*
X48800812Y-123299482D01*
X48813072Y-123175000D01*
X48813072Y-121825000D01*
X48800812Y-121700518D01*
X48764502Y-121580820D01*
X48705537Y-121470506D01*
X48626185Y-121373815D01*
X48529494Y-121294463D01*
X48419180Y-121235498D01*
X48299482Y-121199188D01*
X48195663Y-121188963D01*
X48134974Y-121075424D01*
X48040001Y-120959699D01*
X48011003Y-120935901D01*
X47084700Y-120009599D01*
X47084700Y-117298001D01*
X47447402Y-116935300D01*
X47462667Y-116935300D01*
X47500000Y-116938977D01*
X47648986Y-116924303D01*
X47792247Y-116880846D01*
X47924276Y-116810274D01*
X48040001Y-116715301D01*
X48134974Y-116599576D01*
X48194575Y-116488072D01*
X48350000Y-116488072D01*
X48474482Y-116475812D01*
X48594180Y-116439502D01*
X48704494Y-116380537D01*
X48801185Y-116301185D01*
X48880537Y-116204494D01*
X48939502Y-116094180D01*
X48975812Y-115974482D01*
X48988072Y-115850000D01*
X48988072Y-114858665D01*
X51065000Y-114858665D01*
X51065000Y-115141335D01*
X51120147Y-115418574D01*
X51228320Y-115679727D01*
X51385363Y-115914759D01*
X51585241Y-116114637D01*
X51820273Y-116271680D01*
X52081426Y-116379853D01*
X52358665Y-116435000D01*
X52641335Y-116435000D01*
X52918574Y-116379853D01*
X53179727Y-116271680D01*
X53414759Y-116114637D01*
X53614637Y-115914759D01*
X53771680Y-115679727D01*
X53879853Y-115418574D01*
X53935000Y-115141335D01*
X53935000Y-114858665D01*
X53879853Y-114581426D01*
X53771680Y-114320273D01*
X53614637Y-114085241D01*
X53414759Y-113885363D01*
X53179727Y-113728320D01*
X52918574Y-113620147D01*
X52641335Y-113565000D01*
X52358665Y-113565000D01*
X52081426Y-113620147D01*
X51820273Y-113728320D01*
X51585241Y-113885363D01*
X51385363Y-114085241D01*
X51228320Y-114320273D01*
X51120147Y-114581426D01*
X51065000Y-114858665D01*
X48988072Y-114858665D01*
X48988072Y-114150000D01*
X48975812Y-114025518D01*
X48939502Y-113905820D01*
X48880537Y-113795506D01*
X48801185Y-113698815D01*
X48704494Y-113619463D01*
X48594180Y-113560498D01*
X48474482Y-113524188D01*
X48350000Y-113511928D01*
X46650000Y-113511928D01*
X46525518Y-113524188D01*
X46405820Y-113560498D01*
X46295506Y-113619463D01*
X46198815Y-113698815D01*
X46119463Y-113795506D01*
X46060498Y-113905820D01*
X46024188Y-114025518D01*
X46011928Y-114150000D01*
X46011928Y-115850000D01*
X46024188Y-115974482D01*
X46060498Y-116094180D01*
X46087814Y-116145284D01*
X45813698Y-116419401D01*
X45784700Y-116443199D01*
X45760902Y-116472197D01*
X45760901Y-116472198D01*
X45689726Y-116558924D01*
X45619154Y-116690954D01*
X45593448Y-116775698D01*
X45575698Y-116834214D01*
X45566825Y-116924303D01*
X45561024Y-116983200D01*
X41660000Y-116983200D01*
X41660000Y-101775324D01*
X45290000Y-101775324D01*
X45290000Y-102274676D01*
X45387418Y-102764432D01*
X45578512Y-103225773D01*
X45855937Y-103640968D01*
X46209032Y-103994063D01*
X46624227Y-104271488D01*
X47085568Y-104462582D01*
X47575324Y-104560000D01*
X48074676Y-104560000D01*
X48564432Y-104462582D01*
X49025773Y-104271488D01*
X49440968Y-103994063D01*
X49794063Y-103640968D01*
X50071488Y-103225773D01*
X50262582Y-102764432D01*
X50360000Y-102274676D01*
X50360000Y-101775324D01*
X50262582Y-101285568D01*
X50080007Y-100844794D01*
X52735031Y-98189771D01*
X52885363Y-98414759D01*
X53085241Y-98614637D01*
X53320273Y-98771680D01*
X53581426Y-98879853D01*
X53858665Y-98935000D01*
X54141335Y-98935000D01*
X54418574Y-98879853D01*
X54679727Y-98771680D01*
X54914759Y-98614637D01*
X55114637Y-98414759D01*
X55271680Y-98179727D01*
X55379853Y-97918574D01*
X55435000Y-97641335D01*
X55435000Y-97358665D01*
X55379853Y-97081426D01*
X55271680Y-96820273D01*
X55114637Y-96585241D01*
X54914759Y-96385363D01*
X54689771Y-96235031D01*
X57989801Y-92935001D01*
X59605000Y-92935001D01*
X59604999Y-96227325D01*
X59534494Y-96169463D01*
X59424180Y-96110498D01*
X59304482Y-96074188D01*
X59180000Y-96061928D01*
X57580000Y-96061928D01*
X57455518Y-96074188D01*
X57335820Y-96110498D01*
X57225506Y-96169463D01*
X57128815Y-96248815D01*
X57049463Y-96345506D01*
X56990498Y-96455820D01*
X56954188Y-96575518D01*
X56941928Y-96700000D01*
X56941928Y-98300000D01*
X56954188Y-98424482D01*
X56990498Y-98544180D01*
X57049463Y-98654494D01*
X57128815Y-98751185D01*
X57225506Y-98830537D01*
X57335820Y-98889502D01*
X57455518Y-98925812D01*
X57463961Y-98926643D01*
X57265363Y-99125241D01*
X57108320Y-99360273D01*
X57000147Y-99621426D01*
X56945000Y-99898665D01*
X56945000Y-100181335D01*
X56981312Y-100363885D01*
X53610918Y-103734281D01*
X53581426Y-103740147D01*
X53320273Y-103848320D01*
X53085241Y-104005363D01*
X52885363Y-104205241D01*
X52728320Y-104440273D01*
X52620147Y-104701426D01*
X52565000Y-104978665D01*
X52565000Y-105261335D01*
X52620147Y-105538574D01*
X52728320Y-105799727D01*
X52885363Y-106034759D01*
X53085241Y-106234637D01*
X53320273Y-106391680D01*
X53581426Y-106499853D01*
X53858665Y-106555000D01*
X54141335Y-106555000D01*
X54418574Y-106499853D01*
X54679727Y-106391680D01*
X54914759Y-106234637D01*
X55114637Y-106034759D01*
X55271680Y-105799727D01*
X55379853Y-105538574D01*
X55435000Y-105261335D01*
X55435000Y-104978665D01*
X55379853Y-104701426D01*
X55271680Y-104440273D01*
X55184701Y-104310100D01*
X56945000Y-102549802D01*
X56945000Y-102721335D01*
X57000147Y-102998574D01*
X57108320Y-103259727D01*
X57265363Y-103494759D01*
X57465241Y-103694637D01*
X57700273Y-103851680D01*
X57961426Y-103959853D01*
X58238665Y-104015000D01*
X58521335Y-104015000D01*
X58798574Y-103959853D01*
X59059727Y-103851680D01*
X59294759Y-103694637D01*
X59494637Y-103494759D01*
X59651680Y-103259727D01*
X59759853Y-102998574D01*
X59815000Y-102721335D01*
X59815000Y-102438665D01*
X59759853Y-102161426D01*
X59651680Y-101900273D01*
X59494637Y-101665241D01*
X59294759Y-101465363D01*
X59062241Y-101310000D01*
X59294759Y-101154637D01*
X59494637Y-100954759D01*
X59651680Y-100719727D01*
X59759853Y-100458574D01*
X59815000Y-100181335D01*
X59815000Y-99898665D01*
X59759853Y-99621426D01*
X59651680Y-99360273D01*
X59494637Y-99125241D01*
X59296039Y-98926643D01*
X59304482Y-98925812D01*
X59424180Y-98889502D01*
X59534494Y-98830537D01*
X59631185Y-98751185D01*
X59710537Y-98654494D01*
X59769502Y-98544180D01*
X59805812Y-98424482D01*
X59818072Y-98300000D01*
X59818072Y-97476561D01*
X59824998Y-97485000D01*
X59854002Y-97508803D01*
X64601312Y-102256114D01*
X64565000Y-102438665D01*
X64565000Y-102721335D01*
X64620147Y-102998574D01*
X64728320Y-103259727D01*
X64885363Y-103494759D01*
X65085241Y-103694637D01*
X65317759Y-103850000D01*
X65085241Y-104005363D01*
X64885363Y-104205241D01*
X64728320Y-104440273D01*
X64620147Y-104701426D01*
X64565000Y-104978665D01*
X64565000Y-105261335D01*
X64620147Y-105538574D01*
X64728320Y-105799727D01*
X64885363Y-106034759D01*
X65085241Y-106234637D01*
X65320273Y-106391680D01*
X65581426Y-106499853D01*
X65858665Y-106555000D01*
X66141335Y-106555000D01*
X66365002Y-106510509D01*
X66365001Y-112255195D01*
X64763998Y-113856199D01*
X64735000Y-113879997D01*
X64711202Y-113908995D01*
X64711201Y-113908996D01*
X64640026Y-113995722D01*
X64569454Y-114127752D01*
X64546067Y-114204853D01*
X64532070Y-114250997D01*
X64525998Y-114271013D01*
X64511324Y-114419998D01*
X64515001Y-114457330D01*
X64515000Y-119870091D01*
X64500537Y-119876082D01*
X64232748Y-120055013D01*
X64005013Y-120282748D01*
X63826082Y-120550537D01*
X63702832Y-120848088D01*
X63674604Y-120990000D01*
X60350267Y-120990000D01*
X60379853Y-120918574D01*
X60435000Y-120641335D01*
X60435000Y-120358665D01*
X60379853Y-120081426D01*
X60271680Y-119820273D01*
X60114637Y-119585241D01*
X59914759Y-119385363D01*
X59760000Y-119281957D01*
X59760000Y-118718043D01*
X59914759Y-118614637D01*
X60114637Y-118414759D01*
X60271680Y-118179727D01*
X60379853Y-117918574D01*
X60435000Y-117641335D01*
X60435000Y-117358665D01*
X60379853Y-117081426D01*
X60271680Y-116820273D01*
X60114637Y-116585241D01*
X59914759Y-116385363D01*
X59679727Y-116228320D01*
X59418574Y-116120147D01*
X59141335Y-116065000D01*
X58858665Y-116065000D01*
X58581426Y-116120147D01*
X58320273Y-116228320D01*
X58085241Y-116385363D01*
X57885363Y-116585241D01*
X57728320Y-116820273D01*
X57620147Y-117081426D01*
X57565000Y-117358665D01*
X57565000Y-117641335D01*
X57620147Y-117918574D01*
X57728320Y-118179727D01*
X57885363Y-118414759D01*
X58085241Y-118614637D01*
X58240001Y-118718044D01*
X58240000Y-119281956D01*
X58085241Y-119385363D01*
X57885363Y-119585241D01*
X57728320Y-119820273D01*
X57620147Y-120081426D01*
X57565000Y-120358665D01*
X57565000Y-120641335D01*
X57620147Y-120918574D01*
X57649733Y-120990000D01*
X53787323Y-120990000D01*
X53750000Y-120986324D01*
X53712677Y-120990000D01*
X53712667Y-120990000D01*
X53601014Y-121000997D01*
X53472433Y-121040001D01*
X53457753Y-121044454D01*
X53325723Y-121115026D01*
X53301417Y-121134974D01*
X53209999Y-121209999D01*
X53186201Y-121238997D01*
X52823886Y-121601312D01*
X52641335Y-121565000D01*
X52358665Y-121565000D01*
X52081426Y-121620147D01*
X51820273Y-121728320D01*
X51585241Y-121885363D01*
X51385363Y-122085241D01*
X51228320Y-122320273D01*
X51120147Y-122581426D01*
X51065000Y-122858665D01*
X51065000Y-123141335D01*
X51120147Y-123418574D01*
X51228320Y-123679727D01*
X51385363Y-123914759D01*
X51585241Y-124114637D01*
X51820273Y-124271680D01*
X52081426Y-124379853D01*
X52358665Y-124435000D01*
X52641335Y-124435000D01*
X52918574Y-124379853D01*
X53179727Y-124271680D01*
X53414759Y-124114637D01*
X53614637Y-123914759D01*
X53771680Y-123679727D01*
X53879853Y-123418574D01*
X53935000Y-123141335D01*
X53935000Y-122858665D01*
X53898688Y-122676114D01*
X54064802Y-122510000D01*
X57649733Y-122510000D01*
X57620147Y-122581426D01*
X57565000Y-122858665D01*
X57565000Y-123141335D01*
X57620147Y-123418574D01*
X57728320Y-123679727D01*
X57885363Y-123914759D01*
X58085241Y-124114637D01*
X58320273Y-124271680D01*
X58581426Y-124379853D01*
X58858665Y-124435000D01*
X59141335Y-124435000D01*
X59418574Y-124379853D01*
X59679727Y-124271680D01*
X59914759Y-124114637D01*
X60114637Y-123914759D01*
X60271680Y-123679727D01*
X60379853Y-123418574D01*
X60435000Y-123141335D01*
X60435000Y-122858665D01*
X60379853Y-122581426D01*
X60350267Y-122510000D01*
X64147761Y-122510000D01*
X64232748Y-122594987D01*
X64500537Y-122773918D01*
X64798088Y-122897168D01*
X65113967Y-122960000D01*
X65436033Y-122960000D01*
X65751912Y-122897168D01*
X66049463Y-122773918D01*
X66317252Y-122594987D01*
X66544987Y-122367252D01*
X66723918Y-122099463D01*
X66847168Y-121801912D01*
X66910000Y-121486033D01*
X66910000Y-121163967D01*
X66847168Y-120848088D01*
X66723918Y-120550537D01*
X66544987Y-120282748D01*
X66317252Y-120055013D01*
X66049463Y-119876082D01*
X66035000Y-119870091D01*
X66035000Y-114734799D01*
X66441928Y-114327871D01*
X66441928Y-114800000D01*
X66454188Y-114924482D01*
X66490498Y-115044180D01*
X66549463Y-115154494D01*
X66628815Y-115251185D01*
X66725506Y-115330537D01*
X66835820Y-115389502D01*
X66955518Y-115425812D01*
X67080000Y-115438072D01*
X68680000Y-115438072D01*
X68804482Y-115425812D01*
X68924180Y-115389502D01*
X69034494Y-115330537D01*
X69131185Y-115251185D01*
X69210537Y-115154494D01*
X69269502Y-115044180D01*
X69305812Y-114924482D01*
X69318072Y-114800000D01*
X69318072Y-114694575D01*
X69429576Y-114634974D01*
X69545301Y-114540001D01*
X69569104Y-114510997D01*
X73055700Y-111024401D01*
X74783913Y-112752615D01*
X74585241Y-112885363D01*
X74385363Y-113085241D01*
X74228320Y-113320273D01*
X74120147Y-113581426D01*
X74065000Y-113858665D01*
X74065000Y-114141335D01*
X74120147Y-114418574D01*
X74228320Y-114679727D01*
X74385363Y-114914759D01*
X74585241Y-115114637D01*
X74740001Y-115218044D01*
X74740000Y-117487377D01*
X74736324Y-117524700D01*
X74740000Y-117562022D01*
X74740000Y-117562032D01*
X74750997Y-117673685D01*
X74773199Y-117746876D01*
X74794454Y-117816946D01*
X74865026Y-117948976D01*
X74904871Y-117997526D01*
X74959999Y-118064701D01*
X74989003Y-118088504D01*
X76946394Y-120045895D01*
X76932748Y-120055013D01*
X76705013Y-120282748D01*
X76526082Y-120550537D01*
X76402832Y-120848088D01*
X76340000Y-121163967D01*
X76340000Y-121486033D01*
X76402832Y-121801912D01*
X76526082Y-122099463D01*
X76705013Y-122367252D01*
X76932748Y-122594987D01*
X77200537Y-122773918D01*
X77498088Y-122897168D01*
X77813967Y-122960000D01*
X78136033Y-122960000D01*
X78451912Y-122897168D01*
X78749463Y-122773918D01*
X79017252Y-122594987D01*
X79244987Y-122367252D01*
X79423918Y-122099463D01*
X79547168Y-121801912D01*
X79610000Y-121486033D01*
X79610000Y-121163967D01*
X79547168Y-120848088D01*
X79423918Y-120550537D01*
X79244987Y-120282748D01*
X79017252Y-120055013D01*
X78749463Y-119876082D01*
X78725525Y-119866167D01*
X78724003Y-119850714D01*
X78680546Y-119707453D01*
X78609974Y-119575424D01*
X78538799Y-119488697D01*
X78515001Y-119459699D01*
X78486003Y-119435901D01*
X76260000Y-117209899D01*
X76260000Y-115218043D01*
X76414759Y-115114637D01*
X76614637Y-114914759D01*
X76747385Y-114716087D01*
X76843201Y-114811903D01*
X76843200Y-117065877D01*
X76839524Y-117103200D01*
X76843200Y-117140522D01*
X76843200Y-117140532D01*
X76854197Y-117252185D01*
X76884176Y-117351014D01*
X76897654Y-117395446D01*
X76968226Y-117527476D01*
X76996586Y-117562032D01*
X77063199Y-117643201D01*
X77092203Y-117667004D01*
X82601312Y-123176114D01*
X82565000Y-123358665D01*
X82565000Y-123641335D01*
X82620147Y-123918574D01*
X82728320Y-124179727D01*
X82885363Y-124414759D01*
X83085241Y-124614637D01*
X83320273Y-124771680D01*
X83581426Y-124879853D01*
X83858665Y-124935000D01*
X84141335Y-124935000D01*
X84418574Y-124879853D01*
X84679727Y-124771680D01*
X84914759Y-124614637D01*
X85114637Y-124414759D01*
X85271680Y-124179727D01*
X85379853Y-123918574D01*
X85435000Y-123641335D01*
X85435000Y-123358665D01*
X85379853Y-123081426D01*
X85271680Y-122820273D01*
X85114637Y-122585241D01*
X84914759Y-122385363D01*
X84679727Y-122228320D01*
X84418574Y-122120147D01*
X84141335Y-122065000D01*
X83858665Y-122065000D01*
X83676114Y-122101312D01*
X82365014Y-120790212D01*
X82581426Y-120879853D01*
X82858665Y-120935000D01*
X83141335Y-120935000D01*
X83418574Y-120879853D01*
X83679727Y-120771680D01*
X83914759Y-120614637D01*
X84114637Y-120414759D01*
X84271680Y-120179727D01*
X84379853Y-119918574D01*
X84435000Y-119641335D01*
X84435000Y-119358665D01*
X84379853Y-119081426D01*
X84271680Y-118820273D01*
X84114637Y-118585241D01*
X83914759Y-118385363D01*
X83679727Y-118228320D01*
X83418574Y-118120147D01*
X83141335Y-118065000D01*
X82858665Y-118065000D01*
X82581426Y-118120147D01*
X82320273Y-118228320D01*
X82085241Y-118385363D01*
X81885363Y-118585241D01*
X81728320Y-118820273D01*
X81620147Y-119081426D01*
X81565000Y-119358665D01*
X81565000Y-119641335D01*
X81620147Y-119918574D01*
X81709788Y-120134986D01*
X78363200Y-116788399D01*
X78363200Y-114534422D01*
X78366876Y-114497099D01*
X78363200Y-114459776D01*
X78363200Y-114459767D01*
X78353243Y-114358665D01*
X81445000Y-114358665D01*
X81445000Y-114641335D01*
X81500147Y-114918574D01*
X81608320Y-115179727D01*
X81765363Y-115414759D01*
X81965241Y-115614637D01*
X82200273Y-115771680D01*
X82461426Y-115879853D01*
X82738665Y-115935000D01*
X83021335Y-115935000D01*
X83298574Y-115879853D01*
X83559727Y-115771680D01*
X83794759Y-115614637D01*
X83994637Y-115414759D01*
X84151680Y-115179727D01*
X84259853Y-114918574D01*
X84315000Y-114641335D01*
X84315000Y-114358665D01*
X93565000Y-114358665D01*
X93565000Y-114641335D01*
X93620147Y-114918574D01*
X93728320Y-115179727D01*
X93885363Y-115414759D01*
X94085241Y-115614637D01*
X94320273Y-115771680D01*
X94581426Y-115879853D01*
X94858665Y-115935000D01*
X95141335Y-115935000D01*
X95418574Y-115879853D01*
X95679727Y-115771680D01*
X95914759Y-115614637D01*
X96114637Y-115414759D01*
X96271680Y-115179727D01*
X96379853Y-114918574D01*
X96435000Y-114641335D01*
X96435000Y-114358665D01*
X96379853Y-114081426D01*
X96271680Y-113820273D01*
X96114637Y-113585241D01*
X95914759Y-113385363D01*
X95679727Y-113228320D01*
X95418574Y-113120147D01*
X95141335Y-113065000D01*
X94858665Y-113065000D01*
X94581426Y-113120147D01*
X94320273Y-113228320D01*
X94085241Y-113385363D01*
X93885363Y-113585241D01*
X93728320Y-113820273D01*
X93620147Y-114081426D01*
X93565000Y-114358665D01*
X84315000Y-114358665D01*
X84259853Y-114081426D01*
X84151680Y-113820273D01*
X83994637Y-113585241D01*
X83794759Y-113385363D01*
X83559727Y-113228320D01*
X83298574Y-113120147D01*
X83021335Y-113065000D01*
X82738665Y-113065000D01*
X82461426Y-113120147D01*
X82200273Y-113228320D01*
X81965241Y-113385363D01*
X81765363Y-113585241D01*
X81608320Y-113820273D01*
X81500147Y-114081426D01*
X81445000Y-114358665D01*
X78353243Y-114358665D01*
X78352203Y-114348114D01*
X78308746Y-114204853D01*
X78238174Y-114072824D01*
X78143201Y-113957099D01*
X78114203Y-113933301D01*
X73619504Y-109438603D01*
X73595701Y-109409599D01*
X73479976Y-109314626D01*
X73347946Y-109244054D01*
X73204686Y-109200597D01*
X73055700Y-109185923D01*
X72906714Y-109200597D01*
X72763453Y-109244054D01*
X72631424Y-109314626D01*
X72515699Y-109409599D01*
X72491901Y-109438597D01*
X69153948Y-112776551D01*
X69131185Y-112748815D01*
X69034494Y-112669463D01*
X68924180Y-112610498D01*
X68804482Y-112574188D01*
X68680000Y-112561928D01*
X67887883Y-112561928D01*
X67885001Y-112532664D01*
X67885001Y-108458967D01*
X82365000Y-108458967D01*
X82365000Y-108781033D01*
X82427832Y-109096912D01*
X82551082Y-109394463D01*
X82730013Y-109662252D01*
X82957748Y-109889987D01*
X83225537Y-110068918D01*
X83523088Y-110192168D01*
X83838967Y-110255000D01*
X84161033Y-110255000D01*
X84476912Y-110192168D01*
X84774463Y-110068918D01*
X85042252Y-109889987D01*
X85269987Y-109662252D01*
X85448918Y-109394463D01*
X85454909Y-109380000D01*
X87305199Y-109380000D01*
X87601312Y-109676114D01*
X87565000Y-109858665D01*
X87565000Y-110141335D01*
X87620147Y-110418574D01*
X87728320Y-110679727D01*
X87885363Y-110914759D01*
X88085241Y-111114637D01*
X88320273Y-111271680D01*
X88581426Y-111379853D01*
X88858665Y-111435000D01*
X89141335Y-111435000D01*
X89418574Y-111379853D01*
X89679727Y-111271680D01*
X89914759Y-111114637D01*
X90114637Y-110914759D01*
X90271680Y-110679727D01*
X90379853Y-110418574D01*
X90435000Y-110141335D01*
X90435000Y-109858665D01*
X90379853Y-109581426D01*
X90271680Y-109320273D01*
X90114637Y-109085241D01*
X89914759Y-108885363D01*
X89712173Y-108750000D01*
X89914759Y-108614637D01*
X90114637Y-108414759D01*
X90218043Y-108260000D01*
X92565199Y-108260000D01*
X93601312Y-109296114D01*
X93565000Y-109478665D01*
X93565000Y-109761335D01*
X93620147Y-110038574D01*
X93728320Y-110299727D01*
X93885363Y-110534759D01*
X94085241Y-110734637D01*
X94320273Y-110891680D01*
X94581426Y-110999853D01*
X94858665Y-111055000D01*
X95141335Y-111055000D01*
X95418574Y-110999853D01*
X95679727Y-110891680D01*
X95914759Y-110734637D01*
X96114637Y-110534759D01*
X96271680Y-110299727D01*
X96379853Y-110038574D01*
X96435000Y-109761335D01*
X96435000Y-109478665D01*
X96379853Y-109201426D01*
X96271680Y-108940273D01*
X96114637Y-108705241D01*
X95914759Y-108505363D01*
X95679727Y-108348320D01*
X95418574Y-108240147D01*
X95141335Y-108185000D01*
X94858665Y-108185000D01*
X94676114Y-108221312D01*
X94264801Y-107810000D01*
X100319795Y-101755008D01*
X100760568Y-101937582D01*
X101250324Y-102035000D01*
X101749676Y-102035000D01*
X102239432Y-101937582D01*
X102700773Y-101746488D01*
X103115968Y-101469063D01*
X103469063Y-101115968D01*
X103746488Y-100700773D01*
X103937582Y-100239432D01*
X104035000Y-99749676D01*
X104035000Y-99250324D01*
X103937582Y-98760568D01*
X103746488Y-98299227D01*
X103469063Y-97884032D01*
X103115968Y-97530937D01*
X102700773Y-97253512D01*
X102239432Y-97062418D01*
X101749676Y-96965000D01*
X101250324Y-96965000D01*
X100760568Y-97062418D01*
X100299227Y-97253512D01*
X99884032Y-97530937D01*
X99530937Y-97884032D01*
X99253512Y-98299227D01*
X99062418Y-98760568D01*
X98965000Y-99250324D01*
X98965000Y-99749676D01*
X99062418Y-100239432D01*
X99244992Y-100680205D01*
X93185199Y-106740000D01*
X92917322Y-106740000D01*
X92880000Y-106736324D01*
X92842678Y-106740000D01*
X90218043Y-106740000D01*
X90114637Y-106585241D01*
X89914759Y-106385363D01*
X89679727Y-106228320D01*
X89418574Y-106120147D01*
X89141335Y-106065000D01*
X88858665Y-106065000D01*
X88581426Y-106120147D01*
X88320273Y-106228320D01*
X88085241Y-106385363D01*
X87885363Y-106585241D01*
X87728320Y-106820273D01*
X87620147Y-107081426D01*
X87565000Y-107358665D01*
X87565000Y-107641335D01*
X87608000Y-107857506D01*
X87582678Y-107860000D01*
X85454909Y-107860000D01*
X85448918Y-107845537D01*
X85269987Y-107577748D01*
X85042252Y-107350013D01*
X84774463Y-107171082D01*
X84476912Y-107047832D01*
X84161033Y-106985000D01*
X83838967Y-106985000D01*
X83523088Y-107047832D01*
X83225537Y-107171082D01*
X82957748Y-107350013D01*
X82730013Y-107577748D01*
X82551082Y-107845537D01*
X82427832Y-108143088D01*
X82365000Y-108458967D01*
X67885001Y-108458967D01*
X67885001Y-101202326D01*
X67888677Y-101165001D01*
X67885001Y-101127676D01*
X67885001Y-101127668D01*
X67874004Y-101016015D01*
X67830547Y-100872754D01*
X67812488Y-100838967D01*
X69665000Y-100838967D01*
X69665000Y-101161033D01*
X69727832Y-101476912D01*
X69851082Y-101774463D01*
X70030013Y-102042252D01*
X70257748Y-102269987D01*
X70525537Y-102448918D01*
X70823088Y-102572168D01*
X71138967Y-102635000D01*
X71461033Y-102635000D01*
X71776912Y-102572168D01*
X72074463Y-102448918D01*
X72342252Y-102269987D01*
X72569987Y-102042252D01*
X72748918Y-101774463D01*
X72872168Y-101476912D01*
X72935000Y-101161033D01*
X72935000Y-100838967D01*
X82365000Y-100838967D01*
X82365000Y-101161033D01*
X82427832Y-101476912D01*
X82551082Y-101774463D01*
X82730013Y-102042252D01*
X82957748Y-102269987D01*
X83225537Y-102448918D01*
X83523088Y-102572168D01*
X83838967Y-102635000D01*
X84161033Y-102635000D01*
X84476912Y-102572168D01*
X84774463Y-102448918D01*
X85042252Y-102269987D01*
X85269987Y-102042252D01*
X85448918Y-101774463D01*
X85572168Y-101476912D01*
X85635000Y-101161033D01*
X85635000Y-100838967D01*
X85572168Y-100523088D01*
X85448918Y-100225537D01*
X85269987Y-99957748D01*
X85042252Y-99730013D01*
X84774463Y-99551082D01*
X84476912Y-99427832D01*
X84161033Y-99365000D01*
X83838967Y-99365000D01*
X83523088Y-99427832D01*
X83225537Y-99551082D01*
X82957748Y-99730013D01*
X82730013Y-99957748D01*
X82551082Y-100225537D01*
X82427832Y-100523088D01*
X82365000Y-100838967D01*
X72935000Y-100838967D01*
X72872168Y-100523088D01*
X72748918Y-100225537D01*
X72569987Y-99957748D01*
X72342252Y-99730013D01*
X72074463Y-99551082D01*
X71776912Y-99427832D01*
X71461033Y-99365000D01*
X71138967Y-99365000D01*
X70823088Y-99427832D01*
X70525537Y-99551082D01*
X70257748Y-99730013D01*
X70030013Y-99957748D01*
X69851082Y-100225537D01*
X69727832Y-100523088D01*
X69665000Y-100838967D01*
X67812488Y-100838967D01*
X67759975Y-100740725D01*
X67665002Y-100625000D01*
X67636004Y-100601202D01*
X67398688Y-100363886D01*
X67435000Y-100181335D01*
X67435000Y-99898665D01*
X67379853Y-99621426D01*
X67271680Y-99360273D01*
X67114637Y-99125241D01*
X66914759Y-98925363D01*
X66682241Y-98770000D01*
X66914759Y-98614637D01*
X67050731Y-98478665D01*
X93565000Y-98478665D01*
X93565000Y-98761335D01*
X93620147Y-99038574D01*
X93728320Y-99299727D01*
X93885363Y-99534759D01*
X94085241Y-99734637D01*
X94240000Y-99838044D01*
X94240001Y-100781956D01*
X94085241Y-100885363D01*
X93885363Y-101085241D01*
X93728320Y-101320273D01*
X93620147Y-101581426D01*
X93565000Y-101858665D01*
X93565000Y-102141335D01*
X93620147Y-102418574D01*
X93728320Y-102679727D01*
X93885363Y-102914759D01*
X94085241Y-103114637D01*
X94320273Y-103271680D01*
X94581426Y-103379853D01*
X94858665Y-103435000D01*
X95141335Y-103435000D01*
X95418574Y-103379853D01*
X95679727Y-103271680D01*
X95914759Y-103114637D01*
X96114637Y-102914759D01*
X96271680Y-102679727D01*
X96379853Y-102418574D01*
X96435000Y-102141335D01*
X96435000Y-101858665D01*
X96379853Y-101581426D01*
X96271680Y-101320273D01*
X96114637Y-101085241D01*
X95914759Y-100885363D01*
X95760000Y-100781957D01*
X95760000Y-99838043D01*
X95914759Y-99734637D01*
X96114637Y-99534759D01*
X96271680Y-99299727D01*
X96379853Y-99038574D01*
X96435000Y-98761335D01*
X96435000Y-98478665D01*
X96379853Y-98201426D01*
X96271680Y-97940273D01*
X96114637Y-97705241D01*
X95914759Y-97505363D01*
X95679727Y-97348320D01*
X95418574Y-97240147D01*
X95141335Y-97185000D01*
X94858665Y-97185000D01*
X94581426Y-97240147D01*
X94320273Y-97348320D01*
X94085241Y-97505363D01*
X93885363Y-97705241D01*
X93728320Y-97940273D01*
X93620147Y-98201426D01*
X93565000Y-98478665D01*
X67050731Y-98478665D01*
X67114637Y-98414759D01*
X67271680Y-98179727D01*
X67379853Y-97918574D01*
X67435000Y-97641335D01*
X67435000Y-97358665D01*
X67379853Y-97081426D01*
X67271680Y-96820273D01*
X67114637Y-96585241D01*
X66914759Y-96385363D01*
X66679727Y-96228320D01*
X66418574Y-96120147D01*
X66141335Y-96065000D01*
X65858665Y-96065000D01*
X65581426Y-96120147D01*
X65320273Y-96228320D01*
X65085241Y-96385363D01*
X64885363Y-96585241D01*
X64728320Y-96820273D01*
X64620147Y-97081426D01*
X64565000Y-97358665D01*
X64565000Y-97641335D01*
X64620147Y-97918574D01*
X64728320Y-98179727D01*
X64885363Y-98414759D01*
X65085241Y-98614637D01*
X65317759Y-98770000D01*
X65085241Y-98925363D01*
X64885363Y-99125241D01*
X64728320Y-99360273D01*
X64620147Y-99621426D01*
X64565000Y-99898665D01*
X64565000Y-100070198D01*
X61124999Y-96630198D01*
X61124999Y-92489802D01*
X61173592Y-92441209D01*
X61393740Y-92485000D01*
X61686260Y-92485000D01*
X61973158Y-92427932D01*
X62243411Y-92315990D01*
X62486632Y-92153475D01*
X62693475Y-91946632D01*
X62810000Y-91772240D01*
X62926525Y-91946632D01*
X63133368Y-92153475D01*
X63376589Y-92315990D01*
X63646842Y-92427932D01*
X63933740Y-92485000D01*
X64226260Y-92485000D01*
X64513158Y-92427932D01*
X64628876Y-92380000D01*
X69661928Y-92380000D01*
X69661928Y-94380000D01*
X69674188Y-94504482D01*
X69710498Y-94624180D01*
X69769463Y-94734494D01*
X69848815Y-94831185D01*
X69945506Y-94910537D01*
X70055820Y-94969502D01*
X70175518Y-95005812D01*
X70300000Y-95018072D01*
X72300000Y-95018072D01*
X72424482Y-95005812D01*
X72544180Y-94969502D01*
X72654494Y-94910537D01*
X72751185Y-94831185D01*
X72830537Y-94734494D01*
X72889502Y-94624180D01*
X72925812Y-94504482D01*
X72938072Y-94380000D01*
X72938072Y-93218967D01*
X82365000Y-93218967D01*
X82365000Y-93541033D01*
X82427832Y-93856912D01*
X82551082Y-94154463D01*
X82730013Y-94422252D01*
X82957748Y-94649987D01*
X83225537Y-94828918D01*
X83523088Y-94952168D01*
X83838967Y-95015000D01*
X84161033Y-95015000D01*
X84476912Y-94952168D01*
X84774463Y-94828918D01*
X84877606Y-94760000D01*
X87781957Y-94760000D01*
X87885363Y-94914759D01*
X88085241Y-95114637D01*
X88320273Y-95271680D01*
X88581426Y-95379853D01*
X88858665Y-95435000D01*
X89141335Y-95435000D01*
X89418574Y-95379853D01*
X89679727Y-95271680D01*
X89914759Y-95114637D01*
X90114637Y-94914759D01*
X90271680Y-94679727D01*
X90379853Y-94418574D01*
X90435000Y-94141335D01*
X90435000Y-93858665D01*
X90379853Y-93581426D01*
X90271680Y-93320273D01*
X90114637Y-93085241D01*
X89914759Y-92885363D01*
X89712173Y-92750000D01*
X89914759Y-92614637D01*
X90114637Y-92414759D01*
X90271680Y-92179727D01*
X90379853Y-91918574D01*
X90411396Y-91760000D01*
X93781957Y-91760000D01*
X93885363Y-91914759D01*
X94085241Y-92114637D01*
X94320273Y-92271680D01*
X94581426Y-92379853D01*
X94858665Y-92435000D01*
X95141335Y-92435000D01*
X95418574Y-92379853D01*
X95679727Y-92271680D01*
X95697207Y-92260000D01*
X99070938Y-92260000D01*
X99253512Y-92700773D01*
X99530937Y-93115968D01*
X99884032Y-93469063D01*
X100299227Y-93746488D01*
X100760568Y-93937582D01*
X101250324Y-94035000D01*
X101749676Y-94035000D01*
X102239432Y-93937582D01*
X102700773Y-93746488D01*
X103115968Y-93469063D01*
X103469063Y-93115968D01*
X103746488Y-92700773D01*
X103937582Y-92239432D01*
X104035000Y-91749676D01*
X104035000Y-91250324D01*
X103937582Y-90760568D01*
X103746488Y-90299227D01*
X103469063Y-89884032D01*
X103115968Y-89530937D01*
X102700773Y-89253512D01*
X102239432Y-89062418D01*
X101749676Y-88965000D01*
X101250324Y-88965000D01*
X100760568Y-89062418D01*
X100299227Y-89253512D01*
X99884032Y-89530937D01*
X99530937Y-89884032D01*
X99253512Y-90299227D01*
X99070938Y-90740000D01*
X96411396Y-90740000D01*
X96379853Y-90581426D01*
X96271680Y-90320273D01*
X96114637Y-90085241D01*
X95914759Y-89885363D01*
X95679727Y-89728320D01*
X95418574Y-89620147D01*
X95141335Y-89565000D01*
X94858665Y-89565000D01*
X94581426Y-89620147D01*
X94320273Y-89728320D01*
X94085241Y-89885363D01*
X93885363Y-90085241D01*
X93781957Y-90240000D01*
X89697207Y-90240000D01*
X89679727Y-90228320D01*
X89418574Y-90120147D01*
X89141335Y-90065000D01*
X88858665Y-90065000D01*
X88581426Y-90120147D01*
X88320273Y-90228320D01*
X88085241Y-90385363D01*
X87885363Y-90585241D01*
X87728320Y-90820273D01*
X87620147Y-91081426D01*
X87565000Y-91358665D01*
X87565000Y-91641335D01*
X87620147Y-91918574D01*
X87728320Y-92179727D01*
X87885363Y-92414759D01*
X88085241Y-92614637D01*
X88287827Y-92750000D01*
X88085241Y-92885363D01*
X87885363Y-93085241D01*
X87781957Y-93240000D01*
X85635000Y-93240000D01*
X85635000Y-93218967D01*
X85572168Y-92903088D01*
X85448918Y-92605537D01*
X85269987Y-92337748D01*
X85042252Y-92110013D01*
X84774463Y-91931082D01*
X84476912Y-91807832D01*
X84161033Y-91745000D01*
X83838967Y-91745000D01*
X83523088Y-91807832D01*
X83225537Y-91931082D01*
X82957748Y-92110013D01*
X82730013Y-92337748D01*
X82551082Y-92605537D01*
X82427832Y-92903088D01*
X82365000Y-93218967D01*
X72938072Y-93218967D01*
X72938072Y-92380000D01*
X72925812Y-92255518D01*
X72889502Y-92135820D01*
X72830537Y-92025506D01*
X72751185Y-91928815D01*
X72654494Y-91849463D01*
X72544180Y-91790498D01*
X72424482Y-91754188D01*
X72300000Y-91741928D01*
X70300000Y-91741928D01*
X70175518Y-91754188D01*
X70055820Y-91790498D01*
X69945506Y-91849463D01*
X69848815Y-91928815D01*
X69769463Y-92025506D01*
X69710498Y-92135820D01*
X69674188Y-92255518D01*
X69661928Y-92380000D01*
X64628876Y-92380000D01*
X64783411Y-92315990D01*
X65026632Y-92153475D01*
X65233475Y-91946632D01*
X65395990Y-91703411D01*
X65507932Y-91433158D01*
X65565000Y-91146260D01*
X65565000Y-90853740D01*
X65507932Y-90566842D01*
X65395990Y-90296589D01*
X65233475Y-90053368D01*
X65026632Y-89846525D01*
X64783411Y-89684010D01*
X64513158Y-89572068D01*
X64226260Y-89515000D01*
X63933740Y-89515000D01*
X63646842Y-89572068D01*
X63376589Y-89684010D01*
X63133368Y-89846525D01*
X62926525Y-90053368D01*
X62810000Y-90227760D01*
X62693475Y-90053368D01*
X62486632Y-89846525D01*
X62243411Y-89684010D01*
X61973158Y-89572068D01*
X61686260Y-89515000D01*
X61393740Y-89515000D01*
X61106842Y-89572068D01*
X60836589Y-89684010D01*
X60593368Y-89846525D01*
X60461513Y-89978380D01*
X60439502Y-89905820D01*
X60380537Y-89795506D01*
X60301185Y-89698815D01*
X60204494Y-89619463D01*
X60094180Y-89560498D01*
X59974482Y-89524188D01*
X59850000Y-89511928D01*
X58150000Y-89511928D01*
X58025518Y-89524188D01*
X57905820Y-89560498D01*
X57795506Y-89619463D01*
X57698815Y-89698815D01*
X57619463Y-89795506D01*
X57560498Y-89905820D01*
X57524188Y-90025518D01*
X57511928Y-90150000D01*
X57511928Y-91430271D01*
X57382752Y-91469455D01*
X57250723Y-91540027D01*
X57134998Y-91635000D01*
X57111200Y-91663998D01*
X49005206Y-99769993D01*
X48564432Y-99587418D01*
X48074676Y-99490000D01*
X47575324Y-99490000D01*
X47085568Y-99587418D01*
X46624227Y-99778512D01*
X46209032Y-100055937D01*
X45855937Y-100409032D01*
X45578512Y-100824227D01*
X45387418Y-101285568D01*
X45290000Y-101775324D01*
X41660000Y-101775324D01*
X41660000Y-88750324D01*
X42965000Y-88750324D01*
X42965000Y-89249676D01*
X43062418Y-89739432D01*
X43253512Y-90200773D01*
X43530937Y-90615968D01*
X43884032Y-90969063D01*
X44299227Y-91246488D01*
X44760568Y-91437582D01*
X45250324Y-91535000D01*
X45749676Y-91535000D01*
X46239432Y-91437582D01*
X46700773Y-91246488D01*
X47115968Y-90969063D01*
X47469063Y-90615968D01*
X47746488Y-90200773D01*
X47888193Y-89858665D01*
X50565000Y-89858665D01*
X50565000Y-90141335D01*
X50620147Y-90418574D01*
X50728320Y-90679727D01*
X50885363Y-90914759D01*
X51085241Y-91114637D01*
X51320273Y-91271680D01*
X51581426Y-91379853D01*
X51858665Y-91435000D01*
X52141335Y-91435000D01*
X52418574Y-91379853D01*
X52679727Y-91271680D01*
X52914759Y-91114637D01*
X53114637Y-90914759D01*
X53271680Y-90679727D01*
X53379853Y-90418574D01*
X53435000Y-90141335D01*
X53435000Y-89858665D01*
X53379853Y-89581426D01*
X53271680Y-89320273D01*
X53114637Y-89085241D01*
X52914759Y-88885363D01*
X52712659Y-88750324D01*
X104465000Y-88750324D01*
X104465000Y-89249676D01*
X104562418Y-89739432D01*
X104753512Y-90200773D01*
X105030937Y-90615968D01*
X105384032Y-90969063D01*
X105799227Y-91246488D01*
X106260568Y-91437582D01*
X106750324Y-91535000D01*
X107249676Y-91535000D01*
X107739432Y-91437582D01*
X108200773Y-91246488D01*
X108615968Y-90969063D01*
X108969063Y-90615968D01*
X109246488Y-90200773D01*
X109437582Y-89739432D01*
X109535000Y-89249676D01*
X109535000Y-88750324D01*
X109437582Y-88260568D01*
X109246488Y-87799227D01*
X108969063Y-87384032D01*
X108615968Y-87030937D01*
X108200773Y-86753512D01*
X107739432Y-86562418D01*
X107249676Y-86465000D01*
X106750324Y-86465000D01*
X106260568Y-86562418D01*
X105799227Y-86753512D01*
X105384032Y-87030937D01*
X105030937Y-87384032D01*
X104753512Y-87799227D01*
X104562418Y-88260568D01*
X104465000Y-88750324D01*
X52712659Y-88750324D01*
X52679727Y-88728320D01*
X52418574Y-88620147D01*
X52141335Y-88565000D01*
X51858665Y-88565000D01*
X51581426Y-88620147D01*
X51320273Y-88728320D01*
X51085241Y-88885363D01*
X50885363Y-89085241D01*
X50728320Y-89320273D01*
X50620147Y-89581426D01*
X50565000Y-89858665D01*
X47888193Y-89858665D01*
X47937582Y-89739432D01*
X48035000Y-89249676D01*
X48035000Y-88750324D01*
X47937582Y-88260568D01*
X47746488Y-87799227D01*
X47469063Y-87384032D01*
X47115968Y-87030937D01*
X46700773Y-86753512D01*
X46239432Y-86562418D01*
X45749676Y-86465000D01*
X45250324Y-86465000D01*
X44760568Y-86562418D01*
X44299227Y-86753512D01*
X43884032Y-87030937D01*
X43530937Y-87384032D01*
X43253512Y-87799227D01*
X43062418Y-88260568D01*
X42965000Y-88750324D01*
X41660000Y-88750324D01*
X41660000Y-85660000D01*
X110340000Y-85660000D01*
X110340001Y-138840000D01*
%TA.AperFunction,Conductor*%
D27*
G36*
X110340001Y-138840000D02*
G01*
X41660000Y-138840000D01*
X41660000Y-135250324D01*
X42965000Y-135250324D01*
X42965000Y-135749676D01*
X43062418Y-136239432D01*
X43253512Y-136700773D01*
X43530937Y-137115968D01*
X43884032Y-137469063D01*
X44299227Y-137746488D01*
X44760568Y-137937582D01*
X45250324Y-138035000D01*
X45749676Y-138035000D01*
X46239432Y-137937582D01*
X46700773Y-137746488D01*
X47115968Y-137469063D01*
X47469063Y-137115968D01*
X47746488Y-136700773D01*
X47937582Y-136239432D01*
X48035000Y-135749676D01*
X48035000Y-135250324D01*
X104465000Y-135250324D01*
X104465000Y-135749676D01*
X104562418Y-136239432D01*
X104753512Y-136700773D01*
X105030937Y-137115968D01*
X105384032Y-137469063D01*
X105799227Y-137746488D01*
X106260568Y-137937582D01*
X106750324Y-138035000D01*
X107249676Y-138035000D01*
X107739432Y-137937582D01*
X108200773Y-137746488D01*
X108615968Y-137469063D01*
X108969063Y-137115968D01*
X109246488Y-136700773D01*
X109437582Y-136239432D01*
X109535000Y-135749676D01*
X109535000Y-135250324D01*
X109437582Y-134760568D01*
X109246488Y-134299227D01*
X108969063Y-133884032D01*
X108615968Y-133530937D01*
X108200773Y-133253512D01*
X107739432Y-133062418D01*
X107249676Y-132965000D01*
X106750324Y-132965000D01*
X106260568Y-133062418D01*
X105799227Y-133253512D01*
X105384032Y-133530937D01*
X105030937Y-133884032D01*
X104753512Y-134299227D01*
X104562418Y-134760568D01*
X104465000Y-135250324D01*
X48035000Y-135250324D01*
X47937582Y-134760568D01*
X47746488Y-134299227D01*
X47469063Y-133884032D01*
X47115968Y-133530937D01*
X46700773Y-133253512D01*
X46239432Y-133062418D01*
X45749676Y-132965000D01*
X45250324Y-132965000D01*
X44760568Y-133062418D01*
X44299227Y-133253512D01*
X43884032Y-133530937D01*
X43530937Y-133884032D01*
X43253512Y-134299227D01*
X43062418Y-134760568D01*
X42965000Y-135250324D01*
X41660000Y-135250324D01*
X41660000Y-130978665D01*
X82565000Y-130978665D01*
X82565000Y-131261335D01*
X82620147Y-131538574D01*
X82728320Y-131799727D01*
X82885363Y-132034759D01*
X83085241Y-132234637D01*
X83320273Y-132391680D01*
X83581426Y-132499853D01*
X83858665Y-132555000D01*
X84141335Y-132555000D01*
X84418574Y-132499853D01*
X84679727Y-132391680D01*
X84914759Y-132234637D01*
X85114637Y-132034759D01*
X85218043Y-131880000D01*
X87281957Y-131880000D01*
X87385363Y-132034759D01*
X87585241Y-132234637D01*
X87820273Y-132391680D01*
X88081426Y-132499853D01*
X88358665Y-132555000D01*
X88641335Y-132555000D01*
X88918574Y-132499853D01*
X89179727Y-132391680D01*
X89414759Y-132234637D01*
X89614637Y-132034759D01*
X89771680Y-131799727D01*
X89879853Y-131538574D01*
X89935000Y-131261335D01*
X89935000Y-130978665D01*
X89879853Y-130701426D01*
X89771680Y-130440273D01*
X89614637Y-130205241D01*
X89414759Y-130005363D01*
X89179727Y-129848320D01*
X88918574Y-129740147D01*
X88641335Y-129685000D01*
X88358665Y-129685000D01*
X88081426Y-129740147D01*
X87820273Y-129848320D01*
X87585241Y-130005363D01*
X87385363Y-130205241D01*
X87281957Y-130360000D01*
X85218043Y-130360000D01*
X85114637Y-130205241D01*
X84914759Y-130005363D01*
X84679727Y-129848320D01*
X84418574Y-129740147D01*
X84141335Y-129685000D01*
X83858665Y-129685000D01*
X83581426Y-129740147D01*
X83320273Y-129848320D01*
X83085241Y-130005363D01*
X82885363Y-130205241D01*
X82728320Y-130440273D01*
X82620147Y-130701426D01*
X82565000Y-130978665D01*
X41660000Y-130978665D01*
X41660000Y-127858665D01*
X51065000Y-127858665D01*
X51065000Y-128141335D01*
X51120147Y-128418574D01*
X51228320Y-128679727D01*
X51385363Y-128914759D01*
X51585241Y-129114637D01*
X51820273Y-129271680D01*
X52081426Y-129379853D01*
X52358665Y-129435000D01*
X52641335Y-129435000D01*
X52918574Y-129379853D01*
X53179727Y-129271680D01*
X53414759Y-129114637D01*
X53614637Y-128914759D01*
X53771680Y-128679727D01*
X53879853Y-128418574D01*
X53935000Y-128141335D01*
X53935000Y-127858665D01*
X53912738Y-127746749D01*
X73993804Y-127746749D01*
X74004774Y-127801898D01*
X74082795Y-127990256D01*
X74196063Y-128159774D01*
X74340226Y-128303937D01*
X74509744Y-128417205D01*
X74698102Y-128495226D01*
X74898061Y-128535000D01*
X75101939Y-128535000D01*
X75301898Y-128495226D01*
X75490256Y-128417205D01*
X75659774Y-128303937D01*
X75803937Y-128159774D01*
X75917205Y-127990256D01*
X75995226Y-127801898D01*
X76035000Y-127601939D01*
X76035000Y-127398061D01*
X75995226Y-127198102D01*
X75917205Y-127009744D01*
X75803937Y-126840226D01*
X75659774Y-126696063D01*
X75490256Y-126582795D01*
X75301898Y-126504774D01*
X75101939Y-126465000D01*
X75041729Y-126465000D01*
X75026750Y-126446748D01*
X74911025Y-126351775D01*
X74778996Y-126281203D01*
X74635735Y-126237746D01*
X74524082Y-126226749D01*
X74524071Y-126226749D01*
X74486749Y-126223073D01*
X74449427Y-126226749D01*
X53550573Y-126226749D01*
X53513250Y-126223073D01*
X53475927Y-126226749D01*
X53475918Y-126226749D01*
X53364265Y-126237746D01*
X53221004Y-126281203D01*
X53088975Y-126351775D01*
X52973250Y-126446748D01*
X52949452Y-126475746D01*
X52823886Y-126601312D01*
X52641335Y-126565000D01*
X52358665Y-126565000D01*
X52081426Y-126620147D01*
X51820273Y-126728320D01*
X51585241Y-126885363D01*
X51385363Y-127085241D01*
X51228320Y-127320273D01*
X51120147Y-127581426D01*
X51065000Y-127858665D01*
X41660000Y-127858665D01*
X41660000Y-116983200D01*
X45561024Y-116983200D01*
X45564701Y-117020532D01*
X45564700Y-120287077D01*
X45561024Y-120324400D01*
X45564700Y-120361722D01*
X45564700Y-120361732D01*
X45575697Y-120473385D01*
X45618545Y-120614637D01*
X45619154Y-120616646D01*
X45689726Y-120748676D01*
X45719536Y-120784999D01*
X45784699Y-120864401D01*
X45813703Y-120888204D01*
X46340233Y-121414735D01*
X46294463Y-121470506D01*
X46235498Y-121580820D01*
X46199188Y-121700518D01*
X46186928Y-121825000D01*
X46186928Y-123175000D01*
X46199188Y-123299482D01*
X46235498Y-123419180D01*
X46294463Y-123529494D01*
X46373815Y-123626185D01*
X46460697Y-123697487D01*
X46339093Y-123879482D01*
X46240342Y-124117887D01*
X46190000Y-124370976D01*
X46190000Y-124629024D01*
X46240342Y-124882113D01*
X46339093Y-125120518D01*
X46482456Y-125335077D01*
X46664923Y-125517544D01*
X46879482Y-125660907D01*
X47117887Y-125759658D01*
X47370976Y-125810000D01*
X47629024Y-125810000D01*
X47882113Y-125759658D01*
X48120518Y-125660907D01*
X48335077Y-125517544D01*
X48493956Y-125358665D01*
X93065000Y-125358665D01*
X93065000Y-125641335D01*
X93120147Y-125918574D01*
X93228320Y-126179727D01*
X93385363Y-126414759D01*
X93585241Y-126614637D01*
X93820273Y-126771680D01*
X94081426Y-126879853D01*
X94358665Y-126935000D01*
X94641335Y-126935000D01*
X94918574Y-126879853D01*
X95179727Y-126771680D01*
X95414759Y-126614637D01*
X95614637Y-126414759D01*
X95771680Y-126179727D01*
X95879853Y-125918574D01*
X95935000Y-125641335D01*
X95935000Y-125358665D01*
X95898688Y-125176114D01*
X97014902Y-124059900D01*
X97462667Y-124059900D01*
X97500000Y-124063577D01*
X97537333Y-124059900D01*
X99965000Y-124059900D01*
X99965000Y-124111184D01*
X100023989Y-124407743D01*
X100139701Y-124687095D01*
X100307688Y-124938505D01*
X100521495Y-125152312D01*
X100772905Y-125320299D01*
X101052257Y-125436011D01*
X101348816Y-125495000D01*
X101651184Y-125495000D01*
X101947743Y-125436011D01*
X102227095Y-125320299D01*
X102478505Y-125152312D01*
X102692312Y-124938505D01*
X102860299Y-124687095D01*
X102976011Y-124407743D01*
X103035000Y-124111184D01*
X103035000Y-123808816D01*
X102976011Y-123512257D01*
X102860299Y-123232905D01*
X102692312Y-122981495D01*
X102478505Y-122767688D01*
X102227095Y-122599701D01*
X101947743Y-122483989D01*
X101651184Y-122425000D01*
X101348816Y-122425000D01*
X101052257Y-122483989D01*
X100909584Y-122543086D01*
X100877233Y-122539900D01*
X100877222Y-122539900D01*
X100839900Y-122536224D01*
X100802578Y-122539900D01*
X98260000Y-122539900D01*
X98260000Y-120718043D01*
X98414759Y-120614637D01*
X98614637Y-120414759D01*
X98771680Y-120179727D01*
X98879853Y-119918574D01*
X98935000Y-119641335D01*
X98935000Y-119358665D01*
X98879853Y-119081426D01*
X98771680Y-118820273D01*
X98614637Y-118585241D01*
X98414759Y-118385363D01*
X98179727Y-118228320D01*
X97918574Y-118120147D01*
X97641335Y-118065000D01*
X97358665Y-118065000D01*
X97081426Y-118120147D01*
X96820273Y-118228320D01*
X96585241Y-118385363D01*
X96385363Y-118585241D01*
X96228320Y-118820273D01*
X96120147Y-119081426D01*
X96065000Y-119358665D01*
X96065000Y-119641335D01*
X96120147Y-119918574D01*
X96228320Y-120179727D01*
X96385363Y-120414759D01*
X96585241Y-120614637D01*
X96740001Y-120718044D01*
X96740000Y-122539900D01*
X96737422Y-122539900D01*
X96700099Y-122536224D01*
X96662776Y-122539900D01*
X96662767Y-122539900D01*
X96551114Y-122550897D01*
X96407853Y-122594354D01*
X96275824Y-122664926D01*
X96160099Y-122759899D01*
X96136301Y-122788897D01*
X94823886Y-124101312D01*
X94641335Y-124065000D01*
X94358665Y-124065000D01*
X94081426Y-124120147D01*
X93820273Y-124228320D01*
X93585241Y-124385363D01*
X93385363Y-124585241D01*
X93228320Y-124820273D01*
X93120147Y-125081426D01*
X93065000Y-125358665D01*
X48493956Y-125358665D01*
X48517544Y-125335077D01*
X48660907Y-125120518D01*
X48759658Y-124882113D01*
X48810000Y-124629024D01*
X48810000Y-124370976D01*
X48759658Y-124117887D01*
X48660907Y-123879482D01*
X48539303Y-123697487D01*
X48626185Y-123626185D01*
X48705537Y-123529494D01*
X48764502Y-123419180D01*
X48800812Y-123299482D01*
X48813072Y-123175000D01*
X48813072Y-121825000D01*
X48800812Y-121700518D01*
X48764502Y-121580820D01*
X48705537Y-121470506D01*
X48626185Y-121373815D01*
X48529494Y-121294463D01*
X48419180Y-121235498D01*
X48299482Y-121199188D01*
X48195663Y-121188963D01*
X48134974Y-121075424D01*
X48040001Y-120959699D01*
X48011003Y-120935901D01*
X47084700Y-120009599D01*
X47084700Y-117298001D01*
X47447402Y-116935300D01*
X47462667Y-116935300D01*
X47500000Y-116938977D01*
X47648986Y-116924303D01*
X47792247Y-116880846D01*
X47924276Y-116810274D01*
X48040001Y-116715301D01*
X48134974Y-116599576D01*
X48194575Y-116488072D01*
X48350000Y-116488072D01*
X48474482Y-116475812D01*
X48594180Y-116439502D01*
X48704494Y-116380537D01*
X48801185Y-116301185D01*
X48880537Y-116204494D01*
X48939502Y-116094180D01*
X48975812Y-115974482D01*
X48988072Y-115850000D01*
X48988072Y-114858665D01*
X51065000Y-114858665D01*
X51065000Y-115141335D01*
X51120147Y-115418574D01*
X51228320Y-115679727D01*
X51385363Y-115914759D01*
X51585241Y-116114637D01*
X51820273Y-116271680D01*
X52081426Y-116379853D01*
X52358665Y-116435000D01*
X52641335Y-116435000D01*
X52918574Y-116379853D01*
X53179727Y-116271680D01*
X53414759Y-116114637D01*
X53614637Y-115914759D01*
X53771680Y-115679727D01*
X53879853Y-115418574D01*
X53935000Y-115141335D01*
X53935000Y-114858665D01*
X53879853Y-114581426D01*
X53771680Y-114320273D01*
X53614637Y-114085241D01*
X53414759Y-113885363D01*
X53179727Y-113728320D01*
X52918574Y-113620147D01*
X52641335Y-113565000D01*
X52358665Y-113565000D01*
X52081426Y-113620147D01*
X51820273Y-113728320D01*
X51585241Y-113885363D01*
X51385363Y-114085241D01*
X51228320Y-114320273D01*
X51120147Y-114581426D01*
X51065000Y-114858665D01*
X48988072Y-114858665D01*
X48988072Y-114150000D01*
X48975812Y-114025518D01*
X48939502Y-113905820D01*
X48880537Y-113795506D01*
X48801185Y-113698815D01*
X48704494Y-113619463D01*
X48594180Y-113560498D01*
X48474482Y-113524188D01*
X48350000Y-113511928D01*
X46650000Y-113511928D01*
X46525518Y-113524188D01*
X46405820Y-113560498D01*
X46295506Y-113619463D01*
X46198815Y-113698815D01*
X46119463Y-113795506D01*
X46060498Y-113905820D01*
X46024188Y-114025518D01*
X46011928Y-114150000D01*
X46011928Y-115850000D01*
X46024188Y-115974482D01*
X46060498Y-116094180D01*
X46087814Y-116145284D01*
X45813698Y-116419401D01*
X45784700Y-116443199D01*
X45760902Y-116472197D01*
X45760901Y-116472198D01*
X45689726Y-116558924D01*
X45619154Y-116690954D01*
X45593448Y-116775698D01*
X45575698Y-116834214D01*
X45566825Y-116924303D01*
X45561024Y-116983200D01*
X41660000Y-116983200D01*
X41660000Y-101775324D01*
X45290000Y-101775324D01*
X45290000Y-102274676D01*
X45387418Y-102764432D01*
X45578512Y-103225773D01*
X45855937Y-103640968D01*
X46209032Y-103994063D01*
X46624227Y-104271488D01*
X47085568Y-104462582D01*
X47575324Y-104560000D01*
X48074676Y-104560000D01*
X48564432Y-104462582D01*
X49025773Y-104271488D01*
X49440968Y-103994063D01*
X49794063Y-103640968D01*
X50071488Y-103225773D01*
X50262582Y-102764432D01*
X50360000Y-102274676D01*
X50360000Y-101775324D01*
X50262582Y-101285568D01*
X50080007Y-100844794D01*
X52735031Y-98189771D01*
X52885363Y-98414759D01*
X53085241Y-98614637D01*
X53320273Y-98771680D01*
X53581426Y-98879853D01*
X53858665Y-98935000D01*
X54141335Y-98935000D01*
X54418574Y-98879853D01*
X54679727Y-98771680D01*
X54914759Y-98614637D01*
X55114637Y-98414759D01*
X55271680Y-98179727D01*
X55379853Y-97918574D01*
X55435000Y-97641335D01*
X55435000Y-97358665D01*
X55379853Y-97081426D01*
X55271680Y-96820273D01*
X55114637Y-96585241D01*
X54914759Y-96385363D01*
X54689771Y-96235031D01*
X57989801Y-92935001D01*
X59605000Y-92935001D01*
X59604999Y-96227325D01*
X59534494Y-96169463D01*
X59424180Y-96110498D01*
X59304482Y-96074188D01*
X59180000Y-96061928D01*
X57580000Y-96061928D01*
X57455518Y-96074188D01*
X57335820Y-96110498D01*
X57225506Y-96169463D01*
X57128815Y-96248815D01*
X57049463Y-96345506D01*
X56990498Y-96455820D01*
X56954188Y-96575518D01*
X56941928Y-96700000D01*
X56941928Y-98300000D01*
X56954188Y-98424482D01*
X56990498Y-98544180D01*
X57049463Y-98654494D01*
X57128815Y-98751185D01*
X57225506Y-98830537D01*
X57335820Y-98889502D01*
X57455518Y-98925812D01*
X57463961Y-98926643D01*
X57265363Y-99125241D01*
X57108320Y-99360273D01*
X57000147Y-99621426D01*
X56945000Y-99898665D01*
X56945000Y-100181335D01*
X56981312Y-100363885D01*
X53610918Y-103734281D01*
X53581426Y-103740147D01*
X53320273Y-103848320D01*
X53085241Y-104005363D01*
X52885363Y-104205241D01*
X52728320Y-104440273D01*
X52620147Y-104701426D01*
X52565000Y-104978665D01*
X52565000Y-105261335D01*
X52620147Y-105538574D01*
X52728320Y-105799727D01*
X52885363Y-106034759D01*
X53085241Y-106234637D01*
X53320273Y-106391680D01*
X53581426Y-106499853D01*
X53858665Y-106555000D01*
X54141335Y-106555000D01*
X54418574Y-106499853D01*
X54679727Y-106391680D01*
X54914759Y-106234637D01*
X55114637Y-106034759D01*
X55271680Y-105799727D01*
X55379853Y-105538574D01*
X55435000Y-105261335D01*
X55435000Y-104978665D01*
X55379853Y-104701426D01*
X55271680Y-104440273D01*
X55184701Y-104310100D01*
X56945000Y-102549802D01*
X56945000Y-102721335D01*
X57000147Y-102998574D01*
X57108320Y-103259727D01*
X57265363Y-103494759D01*
X57465241Y-103694637D01*
X57700273Y-103851680D01*
X57961426Y-103959853D01*
X58238665Y-104015000D01*
X58521335Y-104015000D01*
X58798574Y-103959853D01*
X59059727Y-103851680D01*
X59294759Y-103694637D01*
X59494637Y-103494759D01*
X59651680Y-103259727D01*
X59759853Y-102998574D01*
X59815000Y-102721335D01*
X59815000Y-102438665D01*
X59759853Y-102161426D01*
X59651680Y-101900273D01*
X59494637Y-101665241D01*
X59294759Y-101465363D01*
X59062241Y-101310000D01*
X59294759Y-101154637D01*
X59494637Y-100954759D01*
X59651680Y-100719727D01*
X59759853Y-100458574D01*
X59815000Y-100181335D01*
X59815000Y-99898665D01*
X59759853Y-99621426D01*
X59651680Y-99360273D01*
X59494637Y-99125241D01*
X59296039Y-98926643D01*
X59304482Y-98925812D01*
X59424180Y-98889502D01*
X59534494Y-98830537D01*
X59631185Y-98751185D01*
X59710537Y-98654494D01*
X59769502Y-98544180D01*
X59805812Y-98424482D01*
X59818072Y-98300000D01*
X59818072Y-97476561D01*
X59824998Y-97485000D01*
X59854002Y-97508803D01*
X64601312Y-102256114D01*
X64565000Y-102438665D01*
X64565000Y-102721335D01*
X64620147Y-102998574D01*
X64728320Y-103259727D01*
X64885363Y-103494759D01*
X65085241Y-103694637D01*
X65317759Y-103850000D01*
X65085241Y-104005363D01*
X64885363Y-104205241D01*
X64728320Y-104440273D01*
X64620147Y-104701426D01*
X64565000Y-104978665D01*
X64565000Y-105261335D01*
X64620147Y-105538574D01*
X64728320Y-105799727D01*
X64885363Y-106034759D01*
X65085241Y-106234637D01*
X65320273Y-106391680D01*
X65581426Y-106499853D01*
X65858665Y-106555000D01*
X66141335Y-106555000D01*
X66365002Y-106510509D01*
X66365001Y-112255195D01*
X64763998Y-113856199D01*
X64735000Y-113879997D01*
X64711202Y-113908995D01*
X64711201Y-113908996D01*
X64640026Y-113995722D01*
X64569454Y-114127752D01*
X64546067Y-114204853D01*
X64532070Y-114250997D01*
X64525998Y-114271013D01*
X64511324Y-114419998D01*
X64515001Y-114457330D01*
X64515000Y-119870091D01*
X64500537Y-119876082D01*
X64232748Y-120055013D01*
X64005013Y-120282748D01*
X63826082Y-120550537D01*
X63702832Y-120848088D01*
X63674604Y-120990000D01*
X60350267Y-120990000D01*
X60379853Y-120918574D01*
X60435000Y-120641335D01*
X60435000Y-120358665D01*
X60379853Y-120081426D01*
X60271680Y-119820273D01*
X60114637Y-119585241D01*
X59914759Y-119385363D01*
X59760000Y-119281957D01*
X59760000Y-118718043D01*
X59914759Y-118614637D01*
X60114637Y-118414759D01*
X60271680Y-118179727D01*
X60379853Y-117918574D01*
X60435000Y-117641335D01*
X60435000Y-117358665D01*
X60379853Y-117081426D01*
X60271680Y-116820273D01*
X60114637Y-116585241D01*
X59914759Y-116385363D01*
X59679727Y-116228320D01*
X59418574Y-116120147D01*
X59141335Y-116065000D01*
X58858665Y-116065000D01*
X58581426Y-116120147D01*
X58320273Y-116228320D01*
X58085241Y-116385363D01*
X57885363Y-116585241D01*
X57728320Y-116820273D01*
X57620147Y-117081426D01*
X57565000Y-117358665D01*
X57565000Y-117641335D01*
X57620147Y-117918574D01*
X57728320Y-118179727D01*
X57885363Y-118414759D01*
X58085241Y-118614637D01*
X58240001Y-118718044D01*
X58240000Y-119281956D01*
X58085241Y-119385363D01*
X57885363Y-119585241D01*
X57728320Y-119820273D01*
X57620147Y-120081426D01*
X57565000Y-120358665D01*
X57565000Y-120641335D01*
X57620147Y-120918574D01*
X57649733Y-120990000D01*
X53787323Y-120990000D01*
X53750000Y-120986324D01*
X53712677Y-120990000D01*
X53712667Y-120990000D01*
X53601014Y-121000997D01*
X53472433Y-121040001D01*
X53457753Y-121044454D01*
X53325723Y-121115026D01*
X53301417Y-121134974D01*
X53209999Y-121209999D01*
X53186201Y-121238997D01*
X52823886Y-121601312D01*
X52641335Y-121565000D01*
X52358665Y-121565000D01*
X52081426Y-121620147D01*
X51820273Y-121728320D01*
X51585241Y-121885363D01*
X51385363Y-122085241D01*
X51228320Y-122320273D01*
X51120147Y-122581426D01*
X51065000Y-122858665D01*
X51065000Y-123141335D01*
X51120147Y-123418574D01*
X51228320Y-123679727D01*
X51385363Y-123914759D01*
X51585241Y-124114637D01*
X51820273Y-124271680D01*
X52081426Y-124379853D01*
X52358665Y-124435000D01*
X52641335Y-124435000D01*
X52918574Y-124379853D01*
X53179727Y-124271680D01*
X53414759Y-124114637D01*
X53614637Y-123914759D01*
X53771680Y-123679727D01*
X53879853Y-123418574D01*
X53935000Y-123141335D01*
X53935000Y-122858665D01*
X53898688Y-122676114D01*
X54064802Y-122510000D01*
X57649733Y-122510000D01*
X57620147Y-122581426D01*
X57565000Y-122858665D01*
X57565000Y-123141335D01*
X57620147Y-123418574D01*
X57728320Y-123679727D01*
X57885363Y-123914759D01*
X58085241Y-124114637D01*
X58320273Y-124271680D01*
X58581426Y-124379853D01*
X58858665Y-124435000D01*
X59141335Y-124435000D01*
X59418574Y-124379853D01*
X59679727Y-124271680D01*
X59914759Y-124114637D01*
X60114637Y-123914759D01*
X60271680Y-123679727D01*
X60379853Y-123418574D01*
X60435000Y-123141335D01*
X60435000Y-122858665D01*
X60379853Y-122581426D01*
X60350267Y-122510000D01*
X64147761Y-122510000D01*
X64232748Y-122594987D01*
X64500537Y-122773918D01*
X64798088Y-122897168D01*
X65113967Y-122960000D01*
X65436033Y-122960000D01*
X65751912Y-122897168D01*
X66049463Y-122773918D01*
X66317252Y-122594987D01*
X66544987Y-122367252D01*
X66723918Y-122099463D01*
X66847168Y-121801912D01*
X66910000Y-121486033D01*
X66910000Y-121163967D01*
X66847168Y-120848088D01*
X66723918Y-120550537D01*
X66544987Y-120282748D01*
X66317252Y-120055013D01*
X66049463Y-119876082D01*
X66035000Y-119870091D01*
X66035000Y-114734799D01*
X66441928Y-114327871D01*
X66441928Y-114800000D01*
X66454188Y-114924482D01*
X66490498Y-115044180D01*
X66549463Y-115154494D01*
X66628815Y-115251185D01*
X66725506Y-115330537D01*
X66835820Y-115389502D01*
X66955518Y-115425812D01*
X67080000Y-115438072D01*
X68680000Y-115438072D01*
X68804482Y-115425812D01*
X68924180Y-115389502D01*
X69034494Y-115330537D01*
X69131185Y-115251185D01*
X69210537Y-115154494D01*
X69269502Y-115044180D01*
X69305812Y-114924482D01*
X69318072Y-114800000D01*
X69318072Y-114694575D01*
X69429576Y-114634974D01*
X69545301Y-114540001D01*
X69569104Y-114510997D01*
X73055700Y-111024401D01*
X74783913Y-112752615D01*
X74585241Y-112885363D01*
X74385363Y-113085241D01*
X74228320Y-113320273D01*
X74120147Y-113581426D01*
X74065000Y-113858665D01*
X74065000Y-114141335D01*
X74120147Y-114418574D01*
X74228320Y-114679727D01*
X74385363Y-114914759D01*
X74585241Y-115114637D01*
X74740001Y-115218044D01*
X74740000Y-117487377D01*
X74736324Y-117524700D01*
X74740000Y-117562022D01*
X74740000Y-117562032D01*
X74750997Y-117673685D01*
X74773199Y-117746876D01*
X74794454Y-117816946D01*
X74865026Y-117948976D01*
X74904871Y-117997526D01*
X74959999Y-118064701D01*
X74989003Y-118088504D01*
X76946394Y-120045895D01*
X76932748Y-120055013D01*
X76705013Y-120282748D01*
X76526082Y-120550537D01*
X76402832Y-120848088D01*
X76340000Y-121163967D01*
X76340000Y-121486033D01*
X76402832Y-121801912D01*
X76526082Y-122099463D01*
X76705013Y-122367252D01*
X76932748Y-122594987D01*
X77200537Y-122773918D01*
X77498088Y-122897168D01*
X77813967Y-122960000D01*
X78136033Y-122960000D01*
X78451912Y-122897168D01*
X78749463Y-122773918D01*
X79017252Y-122594987D01*
X79244987Y-122367252D01*
X79423918Y-122099463D01*
X79547168Y-121801912D01*
X79610000Y-121486033D01*
X79610000Y-121163967D01*
X79547168Y-120848088D01*
X79423918Y-120550537D01*
X79244987Y-120282748D01*
X79017252Y-120055013D01*
X78749463Y-119876082D01*
X78725525Y-119866167D01*
X78724003Y-119850714D01*
X78680546Y-119707453D01*
X78609974Y-119575424D01*
X78538799Y-119488697D01*
X78515001Y-119459699D01*
X78486003Y-119435901D01*
X76260000Y-117209899D01*
X76260000Y-115218043D01*
X76414759Y-115114637D01*
X76614637Y-114914759D01*
X76747385Y-114716087D01*
X76843201Y-114811903D01*
X76843200Y-117065877D01*
X76839524Y-117103200D01*
X76843200Y-117140522D01*
X76843200Y-117140532D01*
X76854197Y-117252185D01*
X76884176Y-117351014D01*
X76897654Y-117395446D01*
X76968226Y-117527476D01*
X76996586Y-117562032D01*
X77063199Y-117643201D01*
X77092203Y-117667004D01*
X82601312Y-123176114D01*
X82565000Y-123358665D01*
X82565000Y-123641335D01*
X82620147Y-123918574D01*
X82728320Y-124179727D01*
X82885363Y-124414759D01*
X83085241Y-124614637D01*
X83320273Y-124771680D01*
X83581426Y-124879853D01*
X83858665Y-124935000D01*
X84141335Y-124935000D01*
X84418574Y-124879853D01*
X84679727Y-124771680D01*
X84914759Y-124614637D01*
X85114637Y-124414759D01*
X85271680Y-124179727D01*
X85379853Y-123918574D01*
X85435000Y-123641335D01*
X85435000Y-123358665D01*
X85379853Y-123081426D01*
X85271680Y-122820273D01*
X85114637Y-122585241D01*
X84914759Y-122385363D01*
X84679727Y-122228320D01*
X84418574Y-122120147D01*
X84141335Y-122065000D01*
X83858665Y-122065000D01*
X83676114Y-122101312D01*
X82365014Y-120790212D01*
X82581426Y-120879853D01*
X82858665Y-120935000D01*
X83141335Y-120935000D01*
X83418574Y-120879853D01*
X83679727Y-120771680D01*
X83914759Y-120614637D01*
X84114637Y-120414759D01*
X84271680Y-120179727D01*
X84379853Y-119918574D01*
X84435000Y-119641335D01*
X84435000Y-119358665D01*
X84379853Y-119081426D01*
X84271680Y-118820273D01*
X84114637Y-118585241D01*
X83914759Y-118385363D01*
X83679727Y-118228320D01*
X83418574Y-118120147D01*
X83141335Y-118065000D01*
X82858665Y-118065000D01*
X82581426Y-118120147D01*
X82320273Y-118228320D01*
X82085241Y-118385363D01*
X81885363Y-118585241D01*
X81728320Y-118820273D01*
X81620147Y-119081426D01*
X81565000Y-119358665D01*
X81565000Y-119641335D01*
X81620147Y-119918574D01*
X81709788Y-120134986D01*
X78363200Y-116788399D01*
X78363200Y-114534422D01*
X78366876Y-114497099D01*
X78363200Y-114459776D01*
X78363200Y-114459767D01*
X78353243Y-114358665D01*
X81445000Y-114358665D01*
X81445000Y-114641335D01*
X81500147Y-114918574D01*
X81608320Y-115179727D01*
X81765363Y-115414759D01*
X81965241Y-115614637D01*
X82200273Y-115771680D01*
X82461426Y-115879853D01*
X82738665Y-115935000D01*
X83021335Y-115935000D01*
X83298574Y-115879853D01*
X83559727Y-115771680D01*
X83794759Y-115614637D01*
X83994637Y-115414759D01*
X84151680Y-115179727D01*
X84259853Y-114918574D01*
X84315000Y-114641335D01*
X84315000Y-114358665D01*
X93565000Y-114358665D01*
X93565000Y-114641335D01*
X93620147Y-114918574D01*
X93728320Y-115179727D01*
X93885363Y-115414759D01*
X94085241Y-115614637D01*
X94320273Y-115771680D01*
X94581426Y-115879853D01*
X94858665Y-115935000D01*
X95141335Y-115935000D01*
X95418574Y-115879853D01*
X95679727Y-115771680D01*
X95914759Y-115614637D01*
X96114637Y-115414759D01*
X96271680Y-115179727D01*
X96379853Y-114918574D01*
X96435000Y-114641335D01*
X96435000Y-114358665D01*
X96379853Y-114081426D01*
X96271680Y-113820273D01*
X96114637Y-113585241D01*
X95914759Y-113385363D01*
X95679727Y-113228320D01*
X95418574Y-113120147D01*
X95141335Y-113065000D01*
X94858665Y-113065000D01*
X94581426Y-113120147D01*
X94320273Y-113228320D01*
X94085241Y-113385363D01*
X93885363Y-113585241D01*
X93728320Y-113820273D01*
X93620147Y-114081426D01*
X93565000Y-114358665D01*
X84315000Y-114358665D01*
X84259853Y-114081426D01*
X84151680Y-113820273D01*
X83994637Y-113585241D01*
X83794759Y-113385363D01*
X83559727Y-113228320D01*
X83298574Y-113120147D01*
X83021335Y-113065000D01*
X82738665Y-113065000D01*
X82461426Y-113120147D01*
X82200273Y-113228320D01*
X81965241Y-113385363D01*
X81765363Y-113585241D01*
X81608320Y-113820273D01*
X81500147Y-114081426D01*
X81445000Y-114358665D01*
X78353243Y-114358665D01*
X78352203Y-114348114D01*
X78308746Y-114204853D01*
X78238174Y-114072824D01*
X78143201Y-113957099D01*
X78114203Y-113933301D01*
X73619504Y-109438603D01*
X73595701Y-109409599D01*
X73479976Y-109314626D01*
X73347946Y-109244054D01*
X73204686Y-109200597D01*
X73055700Y-109185923D01*
X72906714Y-109200597D01*
X72763453Y-109244054D01*
X72631424Y-109314626D01*
X72515699Y-109409599D01*
X72491901Y-109438597D01*
X69153948Y-112776551D01*
X69131185Y-112748815D01*
X69034494Y-112669463D01*
X68924180Y-112610498D01*
X68804482Y-112574188D01*
X68680000Y-112561928D01*
X67887883Y-112561928D01*
X67885001Y-112532664D01*
X67885001Y-108458967D01*
X82365000Y-108458967D01*
X82365000Y-108781033D01*
X82427832Y-109096912D01*
X82551082Y-109394463D01*
X82730013Y-109662252D01*
X82957748Y-109889987D01*
X83225537Y-110068918D01*
X83523088Y-110192168D01*
X83838967Y-110255000D01*
X84161033Y-110255000D01*
X84476912Y-110192168D01*
X84774463Y-110068918D01*
X85042252Y-109889987D01*
X85269987Y-109662252D01*
X85448918Y-109394463D01*
X85454909Y-109380000D01*
X87305199Y-109380000D01*
X87601312Y-109676114D01*
X87565000Y-109858665D01*
X87565000Y-110141335D01*
X87620147Y-110418574D01*
X87728320Y-110679727D01*
X87885363Y-110914759D01*
X88085241Y-111114637D01*
X88320273Y-111271680D01*
X88581426Y-111379853D01*
X88858665Y-111435000D01*
X89141335Y-111435000D01*
X89418574Y-111379853D01*
X89679727Y-111271680D01*
X89914759Y-111114637D01*
X90114637Y-110914759D01*
X90271680Y-110679727D01*
X90379853Y-110418574D01*
X90435000Y-110141335D01*
X90435000Y-109858665D01*
X90379853Y-109581426D01*
X90271680Y-109320273D01*
X90114637Y-109085241D01*
X89914759Y-108885363D01*
X89712173Y-108750000D01*
X89914759Y-108614637D01*
X90114637Y-108414759D01*
X90218043Y-108260000D01*
X92565199Y-108260000D01*
X93601312Y-109296114D01*
X93565000Y-109478665D01*
X93565000Y-109761335D01*
X93620147Y-110038574D01*
X93728320Y-110299727D01*
X93885363Y-110534759D01*
X94085241Y-110734637D01*
X94320273Y-110891680D01*
X94581426Y-110999853D01*
X94858665Y-111055000D01*
X95141335Y-111055000D01*
X95418574Y-110999853D01*
X95679727Y-110891680D01*
X95914759Y-110734637D01*
X96114637Y-110534759D01*
X96271680Y-110299727D01*
X96379853Y-110038574D01*
X96435000Y-109761335D01*
X96435000Y-109478665D01*
X96379853Y-109201426D01*
X96271680Y-108940273D01*
X96114637Y-108705241D01*
X95914759Y-108505363D01*
X95679727Y-108348320D01*
X95418574Y-108240147D01*
X95141335Y-108185000D01*
X94858665Y-108185000D01*
X94676114Y-108221312D01*
X94264801Y-107810000D01*
X100319795Y-101755008D01*
X100760568Y-101937582D01*
X101250324Y-102035000D01*
X101749676Y-102035000D01*
X102239432Y-101937582D01*
X102700773Y-101746488D01*
X103115968Y-101469063D01*
X103469063Y-101115968D01*
X103746488Y-100700773D01*
X103937582Y-100239432D01*
X104035000Y-99749676D01*
X104035000Y-99250324D01*
X103937582Y-98760568D01*
X103746488Y-98299227D01*
X103469063Y-97884032D01*
X103115968Y-97530937D01*
X102700773Y-97253512D01*
X102239432Y-97062418D01*
X101749676Y-96965000D01*
X101250324Y-96965000D01*
X100760568Y-97062418D01*
X100299227Y-97253512D01*
X99884032Y-97530937D01*
X99530937Y-97884032D01*
X99253512Y-98299227D01*
X99062418Y-98760568D01*
X98965000Y-99250324D01*
X98965000Y-99749676D01*
X99062418Y-100239432D01*
X99244992Y-100680205D01*
X93185199Y-106740000D01*
X92917322Y-106740000D01*
X92880000Y-106736324D01*
X92842678Y-106740000D01*
X90218043Y-106740000D01*
X90114637Y-106585241D01*
X89914759Y-106385363D01*
X89679727Y-106228320D01*
X89418574Y-106120147D01*
X89141335Y-106065000D01*
X88858665Y-106065000D01*
X88581426Y-106120147D01*
X88320273Y-106228320D01*
X88085241Y-106385363D01*
X87885363Y-106585241D01*
X87728320Y-106820273D01*
X87620147Y-107081426D01*
X87565000Y-107358665D01*
X87565000Y-107641335D01*
X87608000Y-107857506D01*
X87582678Y-107860000D01*
X85454909Y-107860000D01*
X85448918Y-107845537D01*
X85269987Y-107577748D01*
X85042252Y-107350013D01*
X84774463Y-107171082D01*
X84476912Y-107047832D01*
X84161033Y-106985000D01*
X83838967Y-106985000D01*
X83523088Y-107047832D01*
X83225537Y-107171082D01*
X82957748Y-107350013D01*
X82730013Y-107577748D01*
X82551082Y-107845537D01*
X82427832Y-108143088D01*
X82365000Y-108458967D01*
X67885001Y-108458967D01*
X67885001Y-101202326D01*
X67888677Y-101165001D01*
X67885001Y-101127676D01*
X67885001Y-101127668D01*
X67874004Y-101016015D01*
X67830547Y-100872754D01*
X67812488Y-100838967D01*
X69665000Y-100838967D01*
X69665000Y-101161033D01*
X69727832Y-101476912D01*
X69851082Y-101774463D01*
X70030013Y-102042252D01*
X70257748Y-102269987D01*
X70525537Y-102448918D01*
X70823088Y-102572168D01*
X71138967Y-102635000D01*
X71461033Y-102635000D01*
X71776912Y-102572168D01*
X72074463Y-102448918D01*
X72342252Y-102269987D01*
X72569987Y-102042252D01*
X72748918Y-101774463D01*
X72872168Y-101476912D01*
X72935000Y-101161033D01*
X72935000Y-100838967D01*
X82365000Y-100838967D01*
X82365000Y-101161033D01*
X82427832Y-101476912D01*
X82551082Y-101774463D01*
X82730013Y-102042252D01*
X82957748Y-102269987D01*
X83225537Y-102448918D01*
X83523088Y-102572168D01*
X83838967Y-102635000D01*
X84161033Y-102635000D01*
X84476912Y-102572168D01*
X84774463Y-102448918D01*
X85042252Y-102269987D01*
X85269987Y-102042252D01*
X85448918Y-101774463D01*
X85572168Y-101476912D01*
X85635000Y-101161033D01*
X85635000Y-100838967D01*
X85572168Y-100523088D01*
X85448918Y-100225537D01*
X85269987Y-99957748D01*
X85042252Y-99730013D01*
X84774463Y-99551082D01*
X84476912Y-99427832D01*
X84161033Y-99365000D01*
X83838967Y-99365000D01*
X83523088Y-99427832D01*
X83225537Y-99551082D01*
X82957748Y-99730013D01*
X82730013Y-99957748D01*
X82551082Y-100225537D01*
X82427832Y-100523088D01*
X82365000Y-100838967D01*
X72935000Y-100838967D01*
X72872168Y-100523088D01*
X72748918Y-100225537D01*
X72569987Y-99957748D01*
X72342252Y-99730013D01*
X72074463Y-99551082D01*
X71776912Y-99427832D01*
X71461033Y-99365000D01*
X71138967Y-99365000D01*
X70823088Y-99427832D01*
X70525537Y-99551082D01*
X70257748Y-99730013D01*
X70030013Y-99957748D01*
X69851082Y-100225537D01*
X69727832Y-100523088D01*
X69665000Y-100838967D01*
X67812488Y-100838967D01*
X67759975Y-100740725D01*
X67665002Y-100625000D01*
X67636004Y-100601202D01*
X67398688Y-100363886D01*
X67435000Y-100181335D01*
X67435000Y-99898665D01*
X67379853Y-99621426D01*
X67271680Y-99360273D01*
X67114637Y-99125241D01*
X66914759Y-98925363D01*
X66682241Y-98770000D01*
X66914759Y-98614637D01*
X67050731Y-98478665D01*
X93565000Y-98478665D01*
X93565000Y-98761335D01*
X93620147Y-99038574D01*
X93728320Y-99299727D01*
X93885363Y-99534759D01*
X94085241Y-99734637D01*
X94240000Y-99838044D01*
X94240001Y-100781956D01*
X94085241Y-100885363D01*
X93885363Y-101085241D01*
X93728320Y-101320273D01*
X93620147Y-101581426D01*
X93565000Y-101858665D01*
X93565000Y-102141335D01*
X93620147Y-102418574D01*
X93728320Y-102679727D01*
X93885363Y-102914759D01*
X94085241Y-103114637D01*
X94320273Y-103271680D01*
X94581426Y-103379853D01*
X94858665Y-103435000D01*
X95141335Y-103435000D01*
X95418574Y-103379853D01*
X95679727Y-103271680D01*
X95914759Y-103114637D01*
X96114637Y-102914759D01*
X96271680Y-102679727D01*
X96379853Y-102418574D01*
X96435000Y-102141335D01*
X96435000Y-101858665D01*
X96379853Y-101581426D01*
X96271680Y-101320273D01*
X96114637Y-101085241D01*
X95914759Y-100885363D01*
X95760000Y-100781957D01*
X95760000Y-99838043D01*
X95914759Y-99734637D01*
X96114637Y-99534759D01*
X96271680Y-99299727D01*
X96379853Y-99038574D01*
X96435000Y-98761335D01*
X96435000Y-98478665D01*
X96379853Y-98201426D01*
X96271680Y-97940273D01*
X96114637Y-97705241D01*
X95914759Y-97505363D01*
X95679727Y-97348320D01*
X95418574Y-97240147D01*
X95141335Y-97185000D01*
X94858665Y-97185000D01*
X94581426Y-97240147D01*
X94320273Y-97348320D01*
X94085241Y-97505363D01*
X93885363Y-97705241D01*
X93728320Y-97940273D01*
X93620147Y-98201426D01*
X93565000Y-98478665D01*
X67050731Y-98478665D01*
X67114637Y-98414759D01*
X67271680Y-98179727D01*
X67379853Y-97918574D01*
X67435000Y-97641335D01*
X67435000Y-97358665D01*
X67379853Y-97081426D01*
X67271680Y-96820273D01*
X67114637Y-96585241D01*
X66914759Y-96385363D01*
X66679727Y-96228320D01*
X66418574Y-96120147D01*
X66141335Y-96065000D01*
X65858665Y-96065000D01*
X65581426Y-96120147D01*
X65320273Y-96228320D01*
X65085241Y-96385363D01*
X64885363Y-96585241D01*
X64728320Y-96820273D01*
X64620147Y-97081426D01*
X64565000Y-97358665D01*
X64565000Y-97641335D01*
X64620147Y-97918574D01*
X64728320Y-98179727D01*
X64885363Y-98414759D01*
X65085241Y-98614637D01*
X65317759Y-98770000D01*
X65085241Y-98925363D01*
X64885363Y-99125241D01*
X64728320Y-99360273D01*
X64620147Y-99621426D01*
X64565000Y-99898665D01*
X64565000Y-100070198D01*
X61124999Y-96630198D01*
X61124999Y-92489802D01*
X61173592Y-92441209D01*
X61393740Y-92485000D01*
X61686260Y-92485000D01*
X61973158Y-92427932D01*
X62243411Y-92315990D01*
X62486632Y-92153475D01*
X62693475Y-91946632D01*
X62810000Y-91772240D01*
X62926525Y-91946632D01*
X63133368Y-92153475D01*
X63376589Y-92315990D01*
X63646842Y-92427932D01*
X63933740Y-92485000D01*
X64226260Y-92485000D01*
X64513158Y-92427932D01*
X64628876Y-92380000D01*
X69661928Y-92380000D01*
X69661928Y-94380000D01*
X69674188Y-94504482D01*
X69710498Y-94624180D01*
X69769463Y-94734494D01*
X69848815Y-94831185D01*
X69945506Y-94910537D01*
X70055820Y-94969502D01*
X70175518Y-95005812D01*
X70300000Y-95018072D01*
X72300000Y-95018072D01*
X72424482Y-95005812D01*
X72544180Y-94969502D01*
X72654494Y-94910537D01*
X72751185Y-94831185D01*
X72830537Y-94734494D01*
X72889502Y-94624180D01*
X72925812Y-94504482D01*
X72938072Y-94380000D01*
X72938072Y-93218967D01*
X82365000Y-93218967D01*
X82365000Y-93541033D01*
X82427832Y-93856912D01*
X82551082Y-94154463D01*
X82730013Y-94422252D01*
X82957748Y-94649987D01*
X83225537Y-94828918D01*
X83523088Y-94952168D01*
X83838967Y-95015000D01*
X84161033Y-95015000D01*
X84476912Y-94952168D01*
X84774463Y-94828918D01*
X84877606Y-94760000D01*
X87781957Y-94760000D01*
X87885363Y-94914759D01*
X88085241Y-95114637D01*
X88320273Y-95271680D01*
X88581426Y-95379853D01*
X88858665Y-95435000D01*
X89141335Y-95435000D01*
X89418574Y-95379853D01*
X89679727Y-95271680D01*
X89914759Y-95114637D01*
X90114637Y-94914759D01*
X90271680Y-94679727D01*
X90379853Y-94418574D01*
X90435000Y-94141335D01*
X90435000Y-93858665D01*
X90379853Y-93581426D01*
X90271680Y-93320273D01*
X90114637Y-93085241D01*
X89914759Y-92885363D01*
X89712173Y-92750000D01*
X89914759Y-92614637D01*
X90114637Y-92414759D01*
X90271680Y-92179727D01*
X90379853Y-91918574D01*
X90411396Y-91760000D01*
X93781957Y-91760000D01*
X93885363Y-91914759D01*
X94085241Y-92114637D01*
X94320273Y-92271680D01*
X94581426Y-92379853D01*
X94858665Y-92435000D01*
X95141335Y-92435000D01*
X95418574Y-92379853D01*
X95679727Y-92271680D01*
X95697207Y-92260000D01*
X99070938Y-92260000D01*
X99253512Y-92700773D01*
X99530937Y-93115968D01*
X99884032Y-93469063D01*
X100299227Y-93746488D01*
X100760568Y-93937582D01*
X101250324Y-94035000D01*
X101749676Y-94035000D01*
X102239432Y-93937582D01*
X102700773Y-93746488D01*
X103115968Y-93469063D01*
X103469063Y-93115968D01*
X103746488Y-92700773D01*
X103937582Y-92239432D01*
X104035000Y-91749676D01*
X104035000Y-91250324D01*
X103937582Y-90760568D01*
X103746488Y-90299227D01*
X103469063Y-89884032D01*
X103115968Y-89530937D01*
X102700773Y-89253512D01*
X102239432Y-89062418D01*
X101749676Y-88965000D01*
X101250324Y-88965000D01*
X100760568Y-89062418D01*
X100299227Y-89253512D01*
X99884032Y-89530937D01*
X99530937Y-89884032D01*
X99253512Y-90299227D01*
X99070938Y-90740000D01*
X96411396Y-90740000D01*
X96379853Y-90581426D01*
X96271680Y-90320273D01*
X96114637Y-90085241D01*
X95914759Y-89885363D01*
X95679727Y-89728320D01*
X95418574Y-89620147D01*
X95141335Y-89565000D01*
X94858665Y-89565000D01*
X94581426Y-89620147D01*
X94320273Y-89728320D01*
X94085241Y-89885363D01*
X93885363Y-90085241D01*
X93781957Y-90240000D01*
X89697207Y-90240000D01*
X89679727Y-90228320D01*
X89418574Y-90120147D01*
X89141335Y-90065000D01*
X88858665Y-90065000D01*
X88581426Y-90120147D01*
X88320273Y-90228320D01*
X88085241Y-90385363D01*
X87885363Y-90585241D01*
X87728320Y-90820273D01*
X87620147Y-91081426D01*
X87565000Y-91358665D01*
X87565000Y-91641335D01*
X87620147Y-91918574D01*
X87728320Y-92179727D01*
X87885363Y-92414759D01*
X88085241Y-92614637D01*
X88287827Y-92750000D01*
X88085241Y-92885363D01*
X87885363Y-93085241D01*
X87781957Y-93240000D01*
X85635000Y-93240000D01*
X85635000Y-93218967D01*
X85572168Y-92903088D01*
X85448918Y-92605537D01*
X85269987Y-92337748D01*
X85042252Y-92110013D01*
X84774463Y-91931082D01*
X84476912Y-91807832D01*
X84161033Y-91745000D01*
X83838967Y-91745000D01*
X83523088Y-91807832D01*
X83225537Y-91931082D01*
X82957748Y-92110013D01*
X82730013Y-92337748D01*
X82551082Y-92605537D01*
X82427832Y-92903088D01*
X82365000Y-93218967D01*
X72938072Y-93218967D01*
X72938072Y-92380000D01*
X72925812Y-92255518D01*
X72889502Y-92135820D01*
X72830537Y-92025506D01*
X72751185Y-91928815D01*
X72654494Y-91849463D01*
X72544180Y-91790498D01*
X72424482Y-91754188D01*
X72300000Y-91741928D01*
X70300000Y-91741928D01*
X70175518Y-91754188D01*
X70055820Y-91790498D01*
X69945506Y-91849463D01*
X69848815Y-91928815D01*
X69769463Y-92025506D01*
X69710498Y-92135820D01*
X69674188Y-92255518D01*
X69661928Y-92380000D01*
X64628876Y-92380000D01*
X64783411Y-92315990D01*
X65026632Y-92153475D01*
X65233475Y-91946632D01*
X65395990Y-91703411D01*
X65507932Y-91433158D01*
X65565000Y-91146260D01*
X65565000Y-90853740D01*
X65507932Y-90566842D01*
X65395990Y-90296589D01*
X65233475Y-90053368D01*
X65026632Y-89846525D01*
X64783411Y-89684010D01*
X64513158Y-89572068D01*
X64226260Y-89515000D01*
X63933740Y-89515000D01*
X63646842Y-89572068D01*
X63376589Y-89684010D01*
X63133368Y-89846525D01*
X62926525Y-90053368D01*
X62810000Y-90227760D01*
X62693475Y-90053368D01*
X62486632Y-89846525D01*
X62243411Y-89684010D01*
X61973158Y-89572068D01*
X61686260Y-89515000D01*
X61393740Y-89515000D01*
X61106842Y-89572068D01*
X60836589Y-89684010D01*
X60593368Y-89846525D01*
X60461513Y-89978380D01*
X60439502Y-89905820D01*
X60380537Y-89795506D01*
X60301185Y-89698815D01*
X60204494Y-89619463D01*
X60094180Y-89560498D01*
X59974482Y-89524188D01*
X59850000Y-89511928D01*
X58150000Y-89511928D01*
X58025518Y-89524188D01*
X57905820Y-89560498D01*
X57795506Y-89619463D01*
X57698815Y-89698815D01*
X57619463Y-89795506D01*
X57560498Y-89905820D01*
X57524188Y-90025518D01*
X57511928Y-90150000D01*
X57511928Y-91430271D01*
X57382752Y-91469455D01*
X57250723Y-91540027D01*
X57134998Y-91635000D01*
X57111200Y-91663998D01*
X49005206Y-99769993D01*
X48564432Y-99587418D01*
X48074676Y-99490000D01*
X47575324Y-99490000D01*
X47085568Y-99587418D01*
X46624227Y-99778512D01*
X46209032Y-100055937D01*
X45855937Y-100409032D01*
X45578512Y-100824227D01*
X45387418Y-101285568D01*
X45290000Y-101775324D01*
X41660000Y-101775324D01*
X41660000Y-88750324D01*
X42965000Y-88750324D01*
X42965000Y-89249676D01*
X43062418Y-89739432D01*
X43253512Y-90200773D01*
X43530937Y-90615968D01*
X43884032Y-90969063D01*
X44299227Y-91246488D01*
X44760568Y-91437582D01*
X45250324Y-91535000D01*
X45749676Y-91535000D01*
X46239432Y-91437582D01*
X46700773Y-91246488D01*
X47115968Y-90969063D01*
X47469063Y-90615968D01*
X47746488Y-90200773D01*
X47888193Y-89858665D01*
X50565000Y-89858665D01*
X50565000Y-90141335D01*
X50620147Y-90418574D01*
X50728320Y-90679727D01*
X50885363Y-90914759D01*
X51085241Y-91114637D01*
X51320273Y-91271680D01*
X51581426Y-91379853D01*
X51858665Y-91435000D01*
X52141335Y-91435000D01*
X52418574Y-91379853D01*
X52679727Y-91271680D01*
X52914759Y-91114637D01*
X53114637Y-90914759D01*
X53271680Y-90679727D01*
X53379853Y-90418574D01*
X53435000Y-90141335D01*
X53435000Y-89858665D01*
X53379853Y-89581426D01*
X53271680Y-89320273D01*
X53114637Y-89085241D01*
X52914759Y-88885363D01*
X52712659Y-88750324D01*
X104465000Y-88750324D01*
X104465000Y-89249676D01*
X104562418Y-89739432D01*
X104753512Y-90200773D01*
X105030937Y-90615968D01*
X105384032Y-90969063D01*
X105799227Y-91246488D01*
X106260568Y-91437582D01*
X106750324Y-91535000D01*
X107249676Y-91535000D01*
X107739432Y-91437582D01*
X108200773Y-91246488D01*
X108615968Y-90969063D01*
X108969063Y-90615968D01*
X109246488Y-90200773D01*
X109437582Y-89739432D01*
X109535000Y-89249676D01*
X109535000Y-88750324D01*
X109437582Y-88260568D01*
X109246488Y-87799227D01*
X108969063Y-87384032D01*
X108615968Y-87030937D01*
X108200773Y-86753512D01*
X107739432Y-86562418D01*
X107249676Y-86465000D01*
X106750324Y-86465000D01*
X106260568Y-86562418D01*
X105799227Y-86753512D01*
X105384032Y-87030937D01*
X105030937Y-87384032D01*
X104753512Y-87799227D01*
X104562418Y-88260568D01*
X104465000Y-88750324D01*
X52712659Y-88750324D01*
X52679727Y-88728320D01*
X52418574Y-88620147D01*
X52141335Y-88565000D01*
X51858665Y-88565000D01*
X51581426Y-88620147D01*
X51320273Y-88728320D01*
X51085241Y-88885363D01*
X50885363Y-89085241D01*
X50728320Y-89320273D01*
X50620147Y-89581426D01*
X50565000Y-89858665D01*
X47888193Y-89858665D01*
X47937582Y-89739432D01*
X48035000Y-89249676D01*
X48035000Y-88750324D01*
X47937582Y-88260568D01*
X47746488Y-87799227D01*
X47469063Y-87384032D01*
X47115968Y-87030937D01*
X46700773Y-86753512D01*
X46239432Y-86562418D01*
X45749676Y-86465000D01*
X45250324Y-86465000D01*
X44760568Y-86562418D01*
X44299227Y-86753512D01*
X43884032Y-87030937D01*
X43530937Y-87384032D01*
X43253512Y-87799227D01*
X43062418Y-88260568D01*
X42965000Y-88750324D01*
X41660000Y-88750324D01*
X41660000Y-85660000D01*
X110340000Y-85660000D01*
X110340001Y-138840000D01*
G37*
%TD.AperFunction*%
%TD*%
M02*
