%TF.GenerationSoftware,KiCad,Pcbnew,5.1.10*%
%TF.CreationDate,2021-06-23T13:28:15+02:00*%
%TF.ProjectId,supply,73757070-6c79-42e6-9b69-6361645f7063,rev?*%
%TF.SameCoordinates,Original*%
%TF.FileFunction,Legend,Top*%
%TF.FilePolarity,Positive*%
%FSLAX46Y46*%
G04 Gerber Fmt 4.6, Leading zero omitted, Abs format (unit mm)*
G04 Created by KiCad (PCBNEW 5.1.10) date 2021-06-23 13:28:15*
%MOMM*%
%LPD*%
G01*
G04 APERTURE LIST*
%ADD10C,0.120000*%
%ADD11C,0.150000*%
%ADD12C,0.010000*%
G04 APERTURE END LIST*
D10*
X70750000Y-126250000D02*
X72500000Y-126250000D01*
X73000000Y-129000000D02*
X73000000Y-126750000D01*
X69750000Y-127250000D02*
X69750000Y-129000000D01*
X70750000Y-126250000D02*
X69750000Y-127250000D01*
X69000000Y-127500000D02*
X68500000Y-127000000D01*
X68500000Y-127000000D02*
X69000000Y-127500000D01*
X69500000Y-127000000D02*
X68500000Y-127000000D01*
D11*
X105452380Y-108952380D02*
X104452380Y-108952380D01*
X104452380Y-108571428D01*
X104500000Y-108476190D01*
X104547619Y-108428571D01*
X104642857Y-108380952D01*
X104785714Y-108380952D01*
X104880952Y-108428571D01*
X104928571Y-108476190D01*
X104976190Y-108571428D01*
X104976190Y-108952380D01*
X105452380Y-107952380D02*
X104452380Y-107952380D01*
X104928571Y-107952380D02*
X104928571Y-107380952D01*
X105452380Y-107380952D02*
X104452380Y-107380952D01*
X105166666Y-106952380D02*
X105166666Y-106476190D01*
X105452380Y-107047619D02*
X104452380Y-106714285D01*
X105452380Y-106380952D01*
X105452380Y-106047619D02*
X104452380Y-106047619D01*
X105452380Y-105476190D01*
X104452380Y-105476190D01*
X104452380Y-105142857D02*
X104452380Y-104571428D01*
X105452380Y-104857142D02*
X104452380Y-104857142D01*
X104452380Y-104047619D02*
X104452380Y-103857142D01*
X104500000Y-103761904D01*
X104595238Y-103666666D01*
X104785714Y-103619047D01*
X105119047Y-103619047D01*
X105309523Y-103666666D01*
X105404761Y-103761904D01*
X105452380Y-103857142D01*
X105452380Y-104047619D01*
X105404761Y-104142857D01*
X105309523Y-104238095D01*
X105119047Y-104285714D01*
X104785714Y-104285714D01*
X104595238Y-104238095D01*
X104500000Y-104142857D01*
X104452380Y-104047619D01*
X105452380Y-103190476D02*
X104452380Y-103190476D01*
X105166666Y-102857142D01*
X104452380Y-102523809D01*
X105452380Y-102523809D01*
X105452380Y-101285714D02*
X104452380Y-101285714D01*
X104452380Y-100904761D01*
X104500000Y-100809523D01*
X104547619Y-100761904D01*
X104642857Y-100714285D01*
X104785714Y-100714285D01*
X104880952Y-100761904D01*
X104928571Y-100809523D01*
X104976190Y-100904761D01*
X104976190Y-101285714D01*
X104452380Y-100095238D02*
X104452380Y-99904761D01*
X104500000Y-99809523D01*
X104595238Y-99714285D01*
X104785714Y-99666666D01*
X105119047Y-99666666D01*
X105309523Y-99714285D01*
X105404761Y-99809523D01*
X105452380Y-99904761D01*
X105452380Y-100095238D01*
X105404761Y-100190476D01*
X105309523Y-100285714D01*
X105119047Y-100333333D01*
X104785714Y-100333333D01*
X104595238Y-100285714D01*
X104500000Y-100190476D01*
X104452380Y-100095238D01*
X104452380Y-99333333D02*
X105452380Y-99095238D01*
X104738095Y-98904761D01*
X105452380Y-98714285D01*
X104452380Y-98476190D01*
X104928571Y-98095238D02*
X104928571Y-97761904D01*
X105452380Y-97619047D02*
X105452380Y-98095238D01*
X104452380Y-98095238D01*
X104452380Y-97619047D01*
X105452380Y-96619047D02*
X104976190Y-96952380D01*
X105452380Y-97190476D02*
X104452380Y-97190476D01*
X104452380Y-96809523D01*
X104500000Y-96714285D01*
X104547619Y-96666666D01*
X104642857Y-96619047D01*
X104785714Y-96619047D01*
X104880952Y-96666666D01*
X104928571Y-96714285D01*
X104976190Y-96809523D01*
X104976190Y-97190476D01*
X104452380Y-95238095D02*
X104452380Y-95047619D01*
X104500000Y-94952380D01*
X104595238Y-94857142D01*
X104785714Y-94809523D01*
X105119047Y-94809523D01*
X105309523Y-94857142D01*
X105404761Y-94952380D01*
X105452380Y-95047619D01*
X105452380Y-95238095D01*
X105404761Y-95333333D01*
X105309523Y-95428571D01*
X105119047Y-95476190D01*
X104785714Y-95476190D01*
X104595238Y-95428571D01*
X104500000Y-95333333D01*
X104452380Y-95238095D01*
X104452380Y-94380952D02*
X105261904Y-94380952D01*
X105357142Y-94333333D01*
X105404761Y-94285714D01*
X105452380Y-94190476D01*
X105452380Y-94000000D01*
X105404761Y-93904761D01*
X105357142Y-93857142D01*
X105261904Y-93809523D01*
X104452380Y-93809523D01*
X104452380Y-93476190D02*
X104452380Y-92904761D01*
X105452380Y-93190476D02*
X104452380Y-93190476D01*
X43166666Y-103333333D02*
X43166666Y-102857142D01*
X43452380Y-103428571D02*
X42452380Y-103095238D01*
X43452380Y-102761904D01*
X42452380Y-102428571D02*
X43261904Y-102428571D01*
X43357142Y-102380952D01*
X43404761Y-102333333D01*
X43452380Y-102238095D01*
X43452380Y-102047619D01*
X43404761Y-101952380D01*
X43357142Y-101904761D01*
X43261904Y-101857142D01*
X42452380Y-101857142D01*
X43452380Y-101380952D02*
X42452380Y-101380952D01*
X42452380Y-101142857D01*
X42500000Y-101000000D01*
X42595238Y-100904761D01*
X42690476Y-100857142D01*
X42880952Y-100809523D01*
X43023809Y-100809523D01*
X43214285Y-100857142D01*
X43309523Y-100904761D01*
X43404761Y-101000000D01*
X43452380Y-101142857D01*
X43452380Y-101380952D01*
X43452380Y-100380952D02*
X42452380Y-100380952D01*
X42452380Y-99714285D02*
X42452380Y-99523809D01*
X42500000Y-99428571D01*
X42595238Y-99333333D01*
X42785714Y-99285714D01*
X43119047Y-99285714D01*
X43309523Y-99333333D01*
X43404761Y-99428571D01*
X43452380Y-99523809D01*
X43452380Y-99714285D01*
X43404761Y-99809523D01*
X43309523Y-99904761D01*
X43119047Y-99952380D01*
X42785714Y-99952380D01*
X42595238Y-99904761D01*
X42500000Y-99809523D01*
X42452380Y-99714285D01*
X42452380Y-97904761D02*
X42452380Y-97714285D01*
X42500000Y-97619047D01*
X42595238Y-97523809D01*
X42785714Y-97476190D01*
X43119047Y-97476190D01*
X43309523Y-97523809D01*
X43404761Y-97619047D01*
X43452380Y-97714285D01*
X43452380Y-97904761D01*
X43404761Y-98000000D01*
X43309523Y-98095238D01*
X43119047Y-98142857D01*
X42785714Y-98142857D01*
X42595238Y-98095238D01*
X42500000Y-98000000D01*
X42452380Y-97904761D01*
X42452380Y-97047619D02*
X43261904Y-97047619D01*
X43357142Y-97000000D01*
X43404761Y-96952380D01*
X43452380Y-96857142D01*
X43452380Y-96666666D01*
X43404761Y-96571428D01*
X43357142Y-96523809D01*
X43261904Y-96476190D01*
X42452380Y-96476190D01*
X42452380Y-96142857D02*
X42452380Y-95571428D01*
X43452380Y-95857142D02*
X42452380Y-95857142D01*
D12*
%TO.C,REF\u002A\u002A*%
G36*
X97099744Y-136419918D02*
G01*
X97155201Y-136447568D01*
X97204148Y-136498480D01*
X97217629Y-136517338D01*
X97232314Y-136542015D01*
X97241842Y-136568816D01*
X97247293Y-136604587D01*
X97249747Y-136656169D01*
X97250286Y-136724267D01*
X97247852Y-136817588D01*
X97239394Y-136887657D01*
X97223174Y-136939931D01*
X97197454Y-136979869D01*
X97160497Y-137012929D01*
X97157782Y-137014886D01*
X97121360Y-137034908D01*
X97077502Y-137044815D01*
X97021724Y-137047257D01*
X96931048Y-137047257D01*
X96931010Y-137135283D01*
X96930166Y-137184308D01*
X96925024Y-137213065D01*
X96911587Y-137230311D01*
X96885858Y-137244808D01*
X96879679Y-137247769D01*
X96850764Y-137261648D01*
X96828376Y-137270414D01*
X96811729Y-137271171D01*
X96800036Y-137261023D01*
X96792510Y-137237073D01*
X96788366Y-137196426D01*
X96786815Y-137136186D01*
X96787071Y-137053455D01*
X96788349Y-136945339D01*
X96788748Y-136913000D01*
X96790185Y-136801524D01*
X96791472Y-136728603D01*
X96930971Y-136728603D01*
X96931755Y-136790499D01*
X96935240Y-136830997D01*
X96943124Y-136857708D01*
X96957105Y-136878244D01*
X96966597Y-136888260D01*
X97005404Y-136917567D01*
X97039763Y-136919952D01*
X97075216Y-136895750D01*
X97076114Y-136894857D01*
X97090539Y-136876153D01*
X97099313Y-136850732D01*
X97103739Y-136811584D01*
X97105118Y-136751697D01*
X97105143Y-136738430D01*
X97101812Y-136655901D01*
X97090969Y-136598691D01*
X97071340Y-136563766D01*
X97041650Y-136548094D01*
X97024491Y-136546514D01*
X96983766Y-136553926D01*
X96955832Y-136578330D01*
X96939017Y-136622980D01*
X96931650Y-136691130D01*
X96930971Y-136728603D01*
X96791472Y-136728603D01*
X96791708Y-136715245D01*
X96793677Y-136650333D01*
X96796450Y-136602958D01*
X96800388Y-136569290D01*
X96805849Y-136545498D01*
X96813192Y-136527753D01*
X96822777Y-136512224D01*
X96826887Y-136506381D01*
X96881405Y-136451185D01*
X96950336Y-136419890D01*
X97030072Y-136411165D01*
X97099744Y-136419918D01*
G37*
X97099744Y-136419918D02*
X97155201Y-136447568D01*
X97204148Y-136498480D01*
X97217629Y-136517338D01*
X97232314Y-136542015D01*
X97241842Y-136568816D01*
X97247293Y-136604587D01*
X97249747Y-136656169D01*
X97250286Y-136724267D01*
X97247852Y-136817588D01*
X97239394Y-136887657D01*
X97223174Y-136939931D01*
X97197454Y-136979869D01*
X97160497Y-137012929D01*
X97157782Y-137014886D01*
X97121360Y-137034908D01*
X97077502Y-137044815D01*
X97021724Y-137047257D01*
X96931048Y-137047257D01*
X96931010Y-137135283D01*
X96930166Y-137184308D01*
X96925024Y-137213065D01*
X96911587Y-137230311D01*
X96885858Y-137244808D01*
X96879679Y-137247769D01*
X96850764Y-137261648D01*
X96828376Y-137270414D01*
X96811729Y-137271171D01*
X96800036Y-137261023D01*
X96792510Y-137237073D01*
X96788366Y-137196426D01*
X96786815Y-137136186D01*
X96787071Y-137053455D01*
X96788349Y-136945339D01*
X96788748Y-136913000D01*
X96790185Y-136801524D01*
X96791472Y-136728603D01*
X96930971Y-136728603D01*
X96931755Y-136790499D01*
X96935240Y-136830997D01*
X96943124Y-136857708D01*
X96957105Y-136878244D01*
X96966597Y-136888260D01*
X97005404Y-136917567D01*
X97039763Y-136919952D01*
X97075216Y-136895750D01*
X97076114Y-136894857D01*
X97090539Y-136876153D01*
X97099313Y-136850732D01*
X97103739Y-136811584D01*
X97105118Y-136751697D01*
X97105143Y-136738430D01*
X97101812Y-136655901D01*
X97090969Y-136598691D01*
X97071340Y-136563766D01*
X97041650Y-136548094D01*
X97024491Y-136546514D01*
X96983766Y-136553926D01*
X96955832Y-136578330D01*
X96939017Y-136622980D01*
X96931650Y-136691130D01*
X96930971Y-136728603D01*
X96791472Y-136728603D01*
X96791708Y-136715245D01*
X96793677Y-136650333D01*
X96796450Y-136602958D01*
X96800388Y-136569290D01*
X96805849Y-136545498D01*
X96813192Y-136527753D01*
X96822777Y-136512224D01*
X96826887Y-136506381D01*
X96881405Y-136451185D01*
X96950336Y-136419890D01*
X97030072Y-136411165D01*
X97099744Y-136419918D01*
G36*
X98216093Y-136427780D02*
G01*
X98262672Y-136454723D01*
X98295057Y-136481466D01*
X98318742Y-136509484D01*
X98335059Y-136543748D01*
X98345339Y-136589227D01*
X98350914Y-136650892D01*
X98353116Y-136733711D01*
X98353371Y-136793246D01*
X98353371Y-137012391D01*
X98291686Y-137040044D01*
X98230000Y-137067697D01*
X98222743Y-136827670D01*
X98219744Y-136738028D01*
X98216598Y-136672962D01*
X98212701Y-136628026D01*
X98207447Y-136598770D01*
X98200231Y-136580748D01*
X98190450Y-136569511D01*
X98187312Y-136567079D01*
X98139761Y-136548083D01*
X98091697Y-136555600D01*
X98063086Y-136575543D01*
X98051447Y-136589675D01*
X98043391Y-136608220D01*
X98038271Y-136636334D01*
X98035441Y-136679173D01*
X98034256Y-136741895D01*
X98034057Y-136807261D01*
X98034018Y-136889268D01*
X98032614Y-136947316D01*
X98027914Y-136986465D01*
X98017987Y-137011780D01*
X98000903Y-137028323D01*
X97974732Y-137041156D01*
X97939775Y-137054491D01*
X97901596Y-137069007D01*
X97906141Y-136811389D01*
X97907971Y-136718519D01*
X97910112Y-136649889D01*
X97913181Y-136600711D01*
X97917794Y-136566198D01*
X97924568Y-136541562D01*
X97934119Y-136522016D01*
X97945634Y-136504770D01*
X98001190Y-136449680D01*
X98068980Y-136417822D01*
X98142713Y-136410191D01*
X98216093Y-136427780D01*
G37*
X98216093Y-136427780D02*
X98262672Y-136454723D01*
X98295057Y-136481466D01*
X98318742Y-136509484D01*
X98335059Y-136543748D01*
X98345339Y-136589227D01*
X98350914Y-136650892D01*
X98353116Y-136733711D01*
X98353371Y-136793246D01*
X98353371Y-137012391D01*
X98291686Y-137040044D01*
X98230000Y-137067697D01*
X98222743Y-136827670D01*
X98219744Y-136738028D01*
X98216598Y-136672962D01*
X98212701Y-136628026D01*
X98207447Y-136598770D01*
X98200231Y-136580748D01*
X98190450Y-136569511D01*
X98187312Y-136567079D01*
X98139761Y-136548083D01*
X98091697Y-136555600D01*
X98063086Y-136575543D01*
X98051447Y-136589675D01*
X98043391Y-136608220D01*
X98038271Y-136636334D01*
X98035441Y-136679173D01*
X98034256Y-136741895D01*
X98034057Y-136807261D01*
X98034018Y-136889268D01*
X98032614Y-136947316D01*
X98027914Y-136986465D01*
X98017987Y-137011780D01*
X98000903Y-137028323D01*
X97974732Y-137041156D01*
X97939775Y-137054491D01*
X97901596Y-137069007D01*
X97906141Y-136811389D01*
X97907971Y-136718519D01*
X97910112Y-136649889D01*
X97913181Y-136600711D01*
X97917794Y-136566198D01*
X97924568Y-136541562D01*
X97934119Y-136522016D01*
X97945634Y-136504770D01*
X98001190Y-136449680D01*
X98068980Y-136417822D01*
X98142713Y-136410191D01*
X98216093Y-136427780D01*
G36*
X96541115Y-136421962D02*
G01*
X96609145Y-136457733D01*
X96659351Y-136515301D01*
X96677185Y-136552312D01*
X96691063Y-136607882D01*
X96698167Y-136678096D01*
X96698840Y-136754727D01*
X96693427Y-136829552D01*
X96682270Y-136894342D01*
X96665714Y-136940873D01*
X96660626Y-136948887D01*
X96600355Y-137008707D01*
X96528769Y-137044535D01*
X96451092Y-137055020D01*
X96372548Y-137038810D01*
X96350689Y-137029092D01*
X96308122Y-136999143D01*
X96270763Y-136959433D01*
X96267232Y-136954397D01*
X96252881Y-136930124D01*
X96243394Y-136904178D01*
X96237790Y-136870022D01*
X96235086Y-136821119D01*
X96234299Y-136750935D01*
X96234286Y-136735200D01*
X96234322Y-136730192D01*
X96379429Y-136730192D01*
X96380273Y-136796430D01*
X96383596Y-136840386D01*
X96390583Y-136868779D01*
X96402416Y-136888325D01*
X96408457Y-136894857D01*
X96443186Y-136919680D01*
X96476903Y-136918548D01*
X96510995Y-136897016D01*
X96531329Y-136874029D01*
X96543371Y-136840478D01*
X96550134Y-136787569D01*
X96550598Y-136781399D01*
X96551752Y-136685513D01*
X96539688Y-136614299D01*
X96514570Y-136568194D01*
X96476560Y-136547635D01*
X96462992Y-136546514D01*
X96427364Y-136552152D01*
X96402994Y-136571686D01*
X96388093Y-136609042D01*
X96380875Y-136668150D01*
X96379429Y-136730192D01*
X96234322Y-136730192D01*
X96234826Y-136660413D01*
X96237096Y-136608159D01*
X96242068Y-136571949D01*
X96250713Y-136545299D01*
X96264005Y-136521722D01*
X96266943Y-136517338D01*
X96316313Y-136458249D01*
X96370109Y-136423947D01*
X96435602Y-136410331D01*
X96457842Y-136409665D01*
X96541115Y-136421962D01*
G37*
X96541115Y-136421962D02*
X96609145Y-136457733D01*
X96659351Y-136515301D01*
X96677185Y-136552312D01*
X96691063Y-136607882D01*
X96698167Y-136678096D01*
X96698840Y-136754727D01*
X96693427Y-136829552D01*
X96682270Y-136894342D01*
X96665714Y-136940873D01*
X96660626Y-136948887D01*
X96600355Y-137008707D01*
X96528769Y-137044535D01*
X96451092Y-137055020D01*
X96372548Y-137038810D01*
X96350689Y-137029092D01*
X96308122Y-136999143D01*
X96270763Y-136959433D01*
X96267232Y-136954397D01*
X96252881Y-136930124D01*
X96243394Y-136904178D01*
X96237790Y-136870022D01*
X96235086Y-136821119D01*
X96234299Y-136750935D01*
X96234286Y-136735200D01*
X96234322Y-136730192D01*
X96379429Y-136730192D01*
X96380273Y-136796430D01*
X96383596Y-136840386D01*
X96390583Y-136868779D01*
X96402416Y-136888325D01*
X96408457Y-136894857D01*
X96443186Y-136919680D01*
X96476903Y-136918548D01*
X96510995Y-136897016D01*
X96531329Y-136874029D01*
X96543371Y-136840478D01*
X96550134Y-136787569D01*
X96550598Y-136781399D01*
X96551752Y-136685513D01*
X96539688Y-136614299D01*
X96514570Y-136568194D01*
X96476560Y-136547635D01*
X96462992Y-136546514D01*
X96427364Y-136552152D01*
X96402994Y-136571686D01*
X96388093Y-136609042D01*
X96380875Y-136668150D01*
X96379429Y-136730192D01*
X96234322Y-136730192D01*
X96234826Y-136660413D01*
X96237096Y-136608159D01*
X96242068Y-136571949D01*
X96250713Y-136545299D01*
X96264005Y-136521722D01*
X96266943Y-136517338D01*
X96316313Y-136458249D01*
X96370109Y-136423947D01*
X96435602Y-136410331D01*
X96457842Y-136409665D01*
X96541115Y-136421962D01*
G36*
X97668303Y-136431239D02*
G01*
X97725527Y-136469735D01*
X97769749Y-136525335D01*
X97796167Y-136596086D01*
X97801510Y-136648162D01*
X97800903Y-136669893D01*
X97795822Y-136686531D01*
X97781855Y-136701437D01*
X97754589Y-136717973D01*
X97709612Y-136739498D01*
X97642511Y-136769374D01*
X97642171Y-136769524D01*
X97580407Y-136797813D01*
X97529759Y-136822933D01*
X97495404Y-136842179D01*
X97482518Y-136852848D01*
X97482514Y-136852934D01*
X97493872Y-136876166D01*
X97520431Y-136901774D01*
X97550923Y-136920221D01*
X97566370Y-136923886D01*
X97608515Y-136911212D01*
X97644808Y-136879471D01*
X97662517Y-136844572D01*
X97679552Y-136818845D01*
X97712922Y-136789546D01*
X97752149Y-136764235D01*
X97786756Y-136750471D01*
X97793993Y-136749714D01*
X97802139Y-136762160D01*
X97802630Y-136793972D01*
X97796643Y-136836866D01*
X97785357Y-136882558D01*
X97769950Y-136922761D01*
X97769171Y-136924322D01*
X97722804Y-136989062D01*
X97662711Y-137033097D01*
X97594465Y-137054711D01*
X97523638Y-137052185D01*
X97455804Y-137023804D01*
X97452788Y-137021808D01*
X97399427Y-136973448D01*
X97364340Y-136910352D01*
X97344922Y-136827387D01*
X97342316Y-136804078D01*
X97337701Y-136694055D01*
X97343233Y-136642748D01*
X97482514Y-136642748D01*
X97484324Y-136674753D01*
X97494222Y-136684093D01*
X97518898Y-136677105D01*
X97557795Y-136660587D01*
X97601275Y-136639881D01*
X97602356Y-136639333D01*
X97639209Y-136619949D01*
X97654000Y-136607013D01*
X97650353Y-136593451D01*
X97634995Y-136575632D01*
X97595923Y-136549845D01*
X97553846Y-136547950D01*
X97516103Y-136566717D01*
X97490034Y-136602915D01*
X97482514Y-136642748D01*
X97343233Y-136642748D01*
X97347194Y-136606027D01*
X97371550Y-136536212D01*
X97405456Y-136487302D01*
X97466653Y-136437878D01*
X97534063Y-136413359D01*
X97602880Y-136411797D01*
X97668303Y-136431239D01*
G37*
X97668303Y-136431239D02*
X97725527Y-136469735D01*
X97769749Y-136525335D01*
X97796167Y-136596086D01*
X97801510Y-136648162D01*
X97800903Y-136669893D01*
X97795822Y-136686531D01*
X97781855Y-136701437D01*
X97754589Y-136717973D01*
X97709612Y-136739498D01*
X97642511Y-136769374D01*
X97642171Y-136769524D01*
X97580407Y-136797813D01*
X97529759Y-136822933D01*
X97495404Y-136842179D01*
X97482518Y-136852848D01*
X97482514Y-136852934D01*
X97493872Y-136876166D01*
X97520431Y-136901774D01*
X97550923Y-136920221D01*
X97566370Y-136923886D01*
X97608515Y-136911212D01*
X97644808Y-136879471D01*
X97662517Y-136844572D01*
X97679552Y-136818845D01*
X97712922Y-136789546D01*
X97752149Y-136764235D01*
X97786756Y-136750471D01*
X97793993Y-136749714D01*
X97802139Y-136762160D01*
X97802630Y-136793972D01*
X97796643Y-136836866D01*
X97785357Y-136882558D01*
X97769950Y-136922761D01*
X97769171Y-136924322D01*
X97722804Y-136989062D01*
X97662711Y-137033097D01*
X97594465Y-137054711D01*
X97523638Y-137052185D01*
X97455804Y-137023804D01*
X97452788Y-137021808D01*
X97399427Y-136973448D01*
X97364340Y-136910352D01*
X97344922Y-136827387D01*
X97342316Y-136804078D01*
X97337701Y-136694055D01*
X97343233Y-136642748D01*
X97482514Y-136642748D01*
X97484324Y-136674753D01*
X97494222Y-136684093D01*
X97518898Y-136677105D01*
X97557795Y-136660587D01*
X97601275Y-136639881D01*
X97602356Y-136639333D01*
X97639209Y-136619949D01*
X97654000Y-136607013D01*
X97650353Y-136593451D01*
X97634995Y-136575632D01*
X97595923Y-136549845D01*
X97553846Y-136547950D01*
X97516103Y-136566717D01*
X97490034Y-136602915D01*
X97482514Y-136642748D01*
X97343233Y-136642748D01*
X97347194Y-136606027D01*
X97371550Y-136536212D01*
X97405456Y-136487302D01*
X97466653Y-136437878D01*
X97534063Y-136413359D01*
X97602880Y-136411797D01*
X97668303Y-136431239D01*
G36*
X98875886Y-136351289D02*
G01*
X98880139Y-136410613D01*
X98885025Y-136445572D01*
X98891795Y-136460820D01*
X98901702Y-136461015D01*
X98904914Y-136459195D01*
X98947644Y-136446015D01*
X99003227Y-136446785D01*
X99059737Y-136460333D01*
X99095082Y-136477861D01*
X99131321Y-136505861D01*
X99157813Y-136537549D01*
X99175999Y-136577813D01*
X99187322Y-136631543D01*
X99193222Y-136703626D01*
X99195143Y-136798951D01*
X99195177Y-136817237D01*
X99195200Y-137022646D01*
X99149491Y-137038580D01*
X99117027Y-137049420D01*
X99099215Y-137054468D01*
X99098691Y-137054514D01*
X99096937Y-137040828D01*
X99095444Y-137003076D01*
X99094326Y-136946224D01*
X99093697Y-136875234D01*
X99093600Y-136832073D01*
X99093398Y-136746973D01*
X99092358Y-136685981D01*
X99089831Y-136644177D01*
X99085164Y-136616642D01*
X99077707Y-136598456D01*
X99066811Y-136584698D01*
X99060007Y-136578073D01*
X99013272Y-136551375D01*
X98962272Y-136549375D01*
X98916001Y-136571955D01*
X98907444Y-136580107D01*
X98894893Y-136595436D01*
X98886188Y-136613618D01*
X98880631Y-136639909D01*
X98877526Y-136679562D01*
X98876176Y-136737832D01*
X98875886Y-136818173D01*
X98875886Y-137022646D01*
X98830177Y-137038580D01*
X98797713Y-137049420D01*
X98779901Y-137054468D01*
X98779377Y-137054514D01*
X98778037Y-137040623D01*
X98776828Y-137001439D01*
X98775801Y-136940700D01*
X98775002Y-136862141D01*
X98774481Y-136769498D01*
X98774286Y-136666509D01*
X98774286Y-136269342D01*
X98821457Y-136249444D01*
X98868629Y-136229547D01*
X98875886Y-136351289D01*
G37*
X98875886Y-136351289D02*
X98880139Y-136410613D01*
X98885025Y-136445572D01*
X98891795Y-136460820D01*
X98901702Y-136461015D01*
X98904914Y-136459195D01*
X98947644Y-136446015D01*
X99003227Y-136446785D01*
X99059737Y-136460333D01*
X99095082Y-136477861D01*
X99131321Y-136505861D01*
X99157813Y-136537549D01*
X99175999Y-136577813D01*
X99187322Y-136631543D01*
X99193222Y-136703626D01*
X99195143Y-136798951D01*
X99195177Y-136817237D01*
X99195200Y-137022646D01*
X99149491Y-137038580D01*
X99117027Y-137049420D01*
X99099215Y-137054468D01*
X99098691Y-137054514D01*
X99096937Y-137040828D01*
X99095444Y-137003076D01*
X99094326Y-136946224D01*
X99093697Y-136875234D01*
X99093600Y-136832073D01*
X99093398Y-136746973D01*
X99092358Y-136685981D01*
X99089831Y-136644177D01*
X99085164Y-136616642D01*
X99077707Y-136598456D01*
X99066811Y-136584698D01*
X99060007Y-136578073D01*
X99013272Y-136551375D01*
X98962272Y-136549375D01*
X98916001Y-136571955D01*
X98907444Y-136580107D01*
X98894893Y-136595436D01*
X98886188Y-136613618D01*
X98880631Y-136639909D01*
X98877526Y-136679562D01*
X98876176Y-136737832D01*
X98875886Y-136818173D01*
X98875886Y-137022646D01*
X98830177Y-137038580D01*
X98797713Y-137049420D01*
X98779901Y-137054468D01*
X98779377Y-137054514D01*
X98778037Y-137040623D01*
X98776828Y-137001439D01*
X98775801Y-136940700D01*
X98775002Y-136862141D01*
X98774481Y-136769498D01*
X98774286Y-136666509D01*
X98774286Y-136269342D01*
X98821457Y-136249444D01*
X98868629Y-136229547D01*
X98875886Y-136351289D01*
G36*
X99539744Y-136450968D02*
G01*
X99596616Y-136472087D01*
X99597267Y-136472493D01*
X99632440Y-136498380D01*
X99658407Y-136528633D01*
X99676670Y-136568058D01*
X99688732Y-136621462D01*
X99696096Y-136693651D01*
X99700264Y-136789432D01*
X99700629Y-136803078D01*
X99705876Y-137008842D01*
X99661716Y-137031678D01*
X99629763Y-137047110D01*
X99610470Y-137054423D01*
X99609578Y-137054514D01*
X99606239Y-137041022D01*
X99603587Y-137004626D01*
X99601956Y-136951452D01*
X99601600Y-136908393D01*
X99601592Y-136838641D01*
X99598403Y-136794837D01*
X99587288Y-136773944D01*
X99563501Y-136772925D01*
X99522296Y-136788741D01*
X99460086Y-136817815D01*
X99414341Y-136841963D01*
X99390813Y-136862913D01*
X99383896Y-136885747D01*
X99383886Y-136886877D01*
X99395299Y-136926212D01*
X99429092Y-136947462D01*
X99480809Y-136950539D01*
X99518061Y-136950006D01*
X99537703Y-136960735D01*
X99549952Y-136986505D01*
X99557002Y-137019337D01*
X99546842Y-137037966D01*
X99543017Y-137040632D01*
X99507001Y-137051340D01*
X99456566Y-137052856D01*
X99404626Y-137045759D01*
X99367822Y-137032788D01*
X99316938Y-136989585D01*
X99288014Y-136929446D01*
X99282286Y-136882462D01*
X99286657Y-136840082D01*
X99302475Y-136805488D01*
X99333797Y-136774763D01*
X99384678Y-136743990D01*
X99459176Y-136709252D01*
X99463714Y-136707288D01*
X99530821Y-136676287D01*
X99572232Y-136650862D01*
X99589981Y-136628014D01*
X99586107Y-136604745D01*
X99562643Y-136578056D01*
X99555627Y-136571914D01*
X99508630Y-136548100D01*
X99459933Y-136549103D01*
X99417522Y-136572451D01*
X99389384Y-136615675D01*
X99386769Y-136624160D01*
X99361308Y-136665308D01*
X99329001Y-136685128D01*
X99282286Y-136704770D01*
X99282286Y-136653950D01*
X99296496Y-136580082D01*
X99338675Y-136512327D01*
X99360624Y-136489661D01*
X99410517Y-136460569D01*
X99473967Y-136447400D01*
X99539744Y-136450968D01*
G37*
X99539744Y-136450968D02*
X99596616Y-136472087D01*
X99597267Y-136472493D01*
X99632440Y-136498380D01*
X99658407Y-136528633D01*
X99676670Y-136568058D01*
X99688732Y-136621462D01*
X99696096Y-136693651D01*
X99700264Y-136789432D01*
X99700629Y-136803078D01*
X99705876Y-137008842D01*
X99661716Y-137031678D01*
X99629763Y-137047110D01*
X99610470Y-137054423D01*
X99609578Y-137054514D01*
X99606239Y-137041022D01*
X99603587Y-137004626D01*
X99601956Y-136951452D01*
X99601600Y-136908393D01*
X99601592Y-136838641D01*
X99598403Y-136794837D01*
X99587288Y-136773944D01*
X99563501Y-136772925D01*
X99522296Y-136788741D01*
X99460086Y-136817815D01*
X99414341Y-136841963D01*
X99390813Y-136862913D01*
X99383896Y-136885747D01*
X99383886Y-136886877D01*
X99395299Y-136926212D01*
X99429092Y-136947462D01*
X99480809Y-136950539D01*
X99518061Y-136950006D01*
X99537703Y-136960735D01*
X99549952Y-136986505D01*
X99557002Y-137019337D01*
X99546842Y-137037966D01*
X99543017Y-137040632D01*
X99507001Y-137051340D01*
X99456566Y-137052856D01*
X99404626Y-137045759D01*
X99367822Y-137032788D01*
X99316938Y-136989585D01*
X99288014Y-136929446D01*
X99282286Y-136882462D01*
X99286657Y-136840082D01*
X99302475Y-136805488D01*
X99333797Y-136774763D01*
X99384678Y-136743990D01*
X99459176Y-136709252D01*
X99463714Y-136707288D01*
X99530821Y-136676287D01*
X99572232Y-136650862D01*
X99589981Y-136628014D01*
X99586107Y-136604745D01*
X99562643Y-136578056D01*
X99555627Y-136571914D01*
X99508630Y-136548100D01*
X99459933Y-136549103D01*
X99417522Y-136572451D01*
X99389384Y-136615675D01*
X99386769Y-136624160D01*
X99361308Y-136665308D01*
X99329001Y-136685128D01*
X99282286Y-136704770D01*
X99282286Y-136653950D01*
X99296496Y-136580082D01*
X99338675Y-136512327D01*
X99360624Y-136489661D01*
X99410517Y-136460569D01*
X99473967Y-136447400D01*
X99539744Y-136450968D01*
G36*
X100029926Y-136449755D02*
G01*
X100095858Y-136474084D01*
X100149273Y-136517117D01*
X100170164Y-136547409D01*
X100192939Y-136602994D01*
X100192466Y-136643186D01*
X100168562Y-136670217D01*
X100159717Y-136674813D01*
X100121530Y-136689144D01*
X100102028Y-136685472D01*
X100095422Y-136661407D01*
X100095086Y-136648114D01*
X100082992Y-136599210D01*
X100051471Y-136564999D01*
X100007659Y-136548476D01*
X99958695Y-136552634D01*
X99918894Y-136574227D01*
X99905450Y-136586544D01*
X99895921Y-136601487D01*
X99889485Y-136624075D01*
X99885317Y-136659328D01*
X99882597Y-136712266D01*
X99880502Y-136787907D01*
X99879960Y-136811857D01*
X99877981Y-136893790D01*
X99875731Y-136951455D01*
X99872357Y-136989608D01*
X99867006Y-137013004D01*
X99858824Y-137026398D01*
X99846959Y-137034545D01*
X99839362Y-137038144D01*
X99807102Y-137050452D01*
X99788111Y-137054514D01*
X99781836Y-137040948D01*
X99778006Y-136999934D01*
X99776600Y-136930999D01*
X99777598Y-136833669D01*
X99777908Y-136818657D01*
X99780101Y-136729859D01*
X99782693Y-136665019D01*
X99786382Y-136619067D01*
X99791864Y-136586935D01*
X99799835Y-136563553D01*
X99810993Y-136543852D01*
X99816830Y-136535410D01*
X99850296Y-136498057D01*
X99887727Y-136469003D01*
X99892309Y-136466467D01*
X99959426Y-136446443D01*
X100029926Y-136449755D01*
G37*
X100029926Y-136449755D02*
X100095858Y-136474084D01*
X100149273Y-136517117D01*
X100170164Y-136547409D01*
X100192939Y-136602994D01*
X100192466Y-136643186D01*
X100168562Y-136670217D01*
X100159717Y-136674813D01*
X100121530Y-136689144D01*
X100102028Y-136685472D01*
X100095422Y-136661407D01*
X100095086Y-136648114D01*
X100082992Y-136599210D01*
X100051471Y-136564999D01*
X100007659Y-136548476D01*
X99958695Y-136552634D01*
X99918894Y-136574227D01*
X99905450Y-136586544D01*
X99895921Y-136601487D01*
X99889485Y-136624075D01*
X99885317Y-136659328D01*
X99882597Y-136712266D01*
X99880502Y-136787907D01*
X99879960Y-136811857D01*
X99877981Y-136893790D01*
X99875731Y-136951455D01*
X99872357Y-136989608D01*
X99867006Y-137013004D01*
X99858824Y-137026398D01*
X99846959Y-137034545D01*
X99839362Y-137038144D01*
X99807102Y-137050452D01*
X99788111Y-137054514D01*
X99781836Y-137040948D01*
X99778006Y-136999934D01*
X99776600Y-136930999D01*
X99777598Y-136833669D01*
X99777908Y-136818657D01*
X99780101Y-136729859D01*
X99782693Y-136665019D01*
X99786382Y-136619067D01*
X99791864Y-136586935D01*
X99799835Y-136563553D01*
X99810993Y-136543852D01*
X99816830Y-136535410D01*
X99850296Y-136498057D01*
X99887727Y-136469003D01*
X99892309Y-136466467D01*
X99959426Y-136446443D01*
X100029926Y-136449755D01*
G36*
X100690117Y-136565358D02*
G01*
X100689933Y-136673837D01*
X100689219Y-136757287D01*
X100687675Y-136819704D01*
X100685001Y-136865085D01*
X100680894Y-136897429D01*
X100675055Y-136920733D01*
X100667182Y-136938995D01*
X100661221Y-136949418D01*
X100611855Y-137005945D01*
X100549264Y-137041377D01*
X100480013Y-137054090D01*
X100410668Y-137042463D01*
X100369375Y-137021568D01*
X100326025Y-136985422D01*
X100296481Y-136941276D01*
X100278655Y-136883462D01*
X100270463Y-136806313D01*
X100269302Y-136749714D01*
X100269458Y-136745647D01*
X100370857Y-136745647D01*
X100371476Y-136810550D01*
X100374314Y-136853514D01*
X100380840Y-136881622D01*
X100392523Y-136901953D01*
X100406483Y-136917288D01*
X100453365Y-136946890D01*
X100503701Y-136949419D01*
X100551276Y-136924705D01*
X100554979Y-136921356D01*
X100570783Y-136903935D01*
X100580693Y-136883209D01*
X100586058Y-136852362D01*
X100588228Y-136804577D01*
X100588571Y-136751748D01*
X100587827Y-136685381D01*
X100584748Y-136641106D01*
X100578061Y-136612009D01*
X100566496Y-136591173D01*
X100557013Y-136580107D01*
X100512960Y-136552198D01*
X100462224Y-136548843D01*
X100413796Y-136570159D01*
X100404450Y-136578073D01*
X100388540Y-136595647D01*
X100378610Y-136616587D01*
X100373278Y-136647782D01*
X100371163Y-136696122D01*
X100370857Y-136745647D01*
X100269458Y-136745647D01*
X100272810Y-136658568D01*
X100284726Y-136590086D01*
X100307135Y-136538600D01*
X100342124Y-136498443D01*
X100369375Y-136477861D01*
X100418907Y-136455625D01*
X100476316Y-136445304D01*
X100529682Y-136448067D01*
X100559543Y-136459212D01*
X100571261Y-136462383D01*
X100579037Y-136450557D01*
X100584465Y-136418866D01*
X100588571Y-136370593D01*
X100593067Y-136316829D01*
X100599313Y-136284482D01*
X100610676Y-136265985D01*
X100630528Y-136253770D01*
X100643000Y-136248362D01*
X100690171Y-136228601D01*
X100690117Y-136565358D01*
G37*
X100690117Y-136565358D02*
X100689933Y-136673837D01*
X100689219Y-136757287D01*
X100687675Y-136819704D01*
X100685001Y-136865085D01*
X100680894Y-136897429D01*
X100675055Y-136920733D01*
X100667182Y-136938995D01*
X100661221Y-136949418D01*
X100611855Y-137005945D01*
X100549264Y-137041377D01*
X100480013Y-137054090D01*
X100410668Y-137042463D01*
X100369375Y-137021568D01*
X100326025Y-136985422D01*
X100296481Y-136941276D01*
X100278655Y-136883462D01*
X100270463Y-136806313D01*
X100269302Y-136749714D01*
X100269458Y-136745647D01*
X100370857Y-136745647D01*
X100371476Y-136810550D01*
X100374314Y-136853514D01*
X100380840Y-136881622D01*
X100392523Y-136901953D01*
X100406483Y-136917288D01*
X100453365Y-136946890D01*
X100503701Y-136949419D01*
X100551276Y-136924705D01*
X100554979Y-136921356D01*
X100570783Y-136903935D01*
X100580693Y-136883209D01*
X100586058Y-136852362D01*
X100588228Y-136804577D01*
X100588571Y-136751748D01*
X100587827Y-136685381D01*
X100584748Y-136641106D01*
X100578061Y-136612009D01*
X100566496Y-136591173D01*
X100557013Y-136580107D01*
X100512960Y-136552198D01*
X100462224Y-136548843D01*
X100413796Y-136570159D01*
X100404450Y-136578073D01*
X100388540Y-136595647D01*
X100378610Y-136616587D01*
X100373278Y-136647782D01*
X100371163Y-136696122D01*
X100370857Y-136745647D01*
X100269458Y-136745647D01*
X100272810Y-136658568D01*
X100284726Y-136590086D01*
X100307135Y-136538600D01*
X100342124Y-136498443D01*
X100369375Y-136477861D01*
X100418907Y-136455625D01*
X100476316Y-136445304D01*
X100529682Y-136448067D01*
X100559543Y-136459212D01*
X100571261Y-136462383D01*
X100579037Y-136450557D01*
X100584465Y-136418866D01*
X100588571Y-136370593D01*
X100593067Y-136316829D01*
X100599313Y-136284482D01*
X100610676Y-136265985D01*
X100630528Y-136253770D01*
X100643000Y-136248362D01*
X100690171Y-136228601D01*
X100690117Y-136565358D01*
G36*
X101279833Y-136458663D02*
G01*
X101282048Y-136496850D01*
X101283784Y-136554886D01*
X101284899Y-136628180D01*
X101285257Y-136705055D01*
X101285257Y-136965196D01*
X101239326Y-137011127D01*
X101207675Y-137039429D01*
X101179890Y-137050893D01*
X101141915Y-137050168D01*
X101126840Y-137048321D01*
X101079726Y-137042948D01*
X101040756Y-137039869D01*
X101031257Y-137039585D01*
X100999233Y-137041445D01*
X100953432Y-137046114D01*
X100935674Y-137048321D01*
X100892057Y-137051735D01*
X100862745Y-137044320D01*
X100833680Y-137021427D01*
X100823188Y-137011127D01*
X100777257Y-136965196D01*
X100777257Y-136478602D01*
X100814226Y-136461758D01*
X100846059Y-136449282D01*
X100864683Y-136444914D01*
X100869458Y-136458718D01*
X100873921Y-136497286D01*
X100877775Y-136556356D01*
X100880722Y-136631663D01*
X100882143Y-136695286D01*
X100886114Y-136945657D01*
X100920759Y-136950556D01*
X100952268Y-136947131D01*
X100967708Y-136936041D01*
X100972023Y-136915308D01*
X100975708Y-136871145D01*
X100978469Y-136809146D01*
X100980012Y-136734909D01*
X100980235Y-136696706D01*
X100980457Y-136476783D01*
X101026166Y-136460849D01*
X101058518Y-136450015D01*
X101076115Y-136444962D01*
X101076623Y-136444914D01*
X101078388Y-136458648D01*
X101080329Y-136496730D01*
X101082282Y-136554482D01*
X101084084Y-136627227D01*
X101085343Y-136695286D01*
X101089314Y-136945657D01*
X101176400Y-136945657D01*
X101180396Y-136717240D01*
X101184392Y-136488822D01*
X101226847Y-136466868D01*
X101258192Y-136451793D01*
X101276744Y-136444951D01*
X101277279Y-136444914D01*
X101279833Y-136458663D01*
G37*
X101279833Y-136458663D02*
X101282048Y-136496850D01*
X101283784Y-136554886D01*
X101284899Y-136628180D01*
X101285257Y-136705055D01*
X101285257Y-136965196D01*
X101239326Y-137011127D01*
X101207675Y-137039429D01*
X101179890Y-137050893D01*
X101141915Y-137050168D01*
X101126840Y-137048321D01*
X101079726Y-137042948D01*
X101040756Y-137039869D01*
X101031257Y-137039585D01*
X100999233Y-137041445D01*
X100953432Y-137046114D01*
X100935674Y-137048321D01*
X100892057Y-137051735D01*
X100862745Y-137044320D01*
X100833680Y-137021427D01*
X100823188Y-137011127D01*
X100777257Y-136965196D01*
X100777257Y-136478602D01*
X100814226Y-136461758D01*
X100846059Y-136449282D01*
X100864683Y-136444914D01*
X100869458Y-136458718D01*
X100873921Y-136497286D01*
X100877775Y-136556356D01*
X100880722Y-136631663D01*
X100882143Y-136695286D01*
X100886114Y-136945657D01*
X100920759Y-136950556D01*
X100952268Y-136947131D01*
X100967708Y-136936041D01*
X100972023Y-136915308D01*
X100975708Y-136871145D01*
X100978469Y-136809146D01*
X100980012Y-136734909D01*
X100980235Y-136696706D01*
X100980457Y-136476783D01*
X101026166Y-136460849D01*
X101058518Y-136450015D01*
X101076115Y-136444962D01*
X101076623Y-136444914D01*
X101078388Y-136458648D01*
X101080329Y-136496730D01*
X101082282Y-136554482D01*
X101084084Y-136627227D01*
X101085343Y-136695286D01*
X101089314Y-136945657D01*
X101176400Y-136945657D01*
X101180396Y-136717240D01*
X101184392Y-136488822D01*
X101226847Y-136466868D01*
X101258192Y-136451793D01*
X101276744Y-136444951D01*
X101277279Y-136444914D01*
X101279833Y-136458663D01*
G36*
X101644876Y-136456335D02*
G01*
X101686667Y-136475344D01*
X101719469Y-136498378D01*
X101743503Y-136524133D01*
X101760097Y-136557358D01*
X101770577Y-136602800D01*
X101776271Y-136665207D01*
X101778507Y-136749327D01*
X101778743Y-136804721D01*
X101778743Y-137020826D01*
X101741774Y-137037670D01*
X101712656Y-137049981D01*
X101698231Y-137054514D01*
X101695472Y-137041025D01*
X101693282Y-137004653D01*
X101691942Y-136951542D01*
X101691657Y-136909372D01*
X101690434Y-136848447D01*
X101687136Y-136800115D01*
X101682321Y-136770518D01*
X101678496Y-136764229D01*
X101652783Y-136770652D01*
X101612418Y-136787125D01*
X101565679Y-136809458D01*
X101520845Y-136833457D01*
X101486193Y-136854930D01*
X101470002Y-136869685D01*
X101469938Y-136869845D01*
X101471330Y-136897152D01*
X101483818Y-136923219D01*
X101505743Y-136944392D01*
X101537743Y-136951474D01*
X101565092Y-136950649D01*
X101603826Y-136950042D01*
X101624158Y-136959116D01*
X101636369Y-136983092D01*
X101637909Y-136987613D01*
X101643203Y-137021806D01*
X101629047Y-137042568D01*
X101592148Y-137052462D01*
X101552289Y-137054292D01*
X101480562Y-137040727D01*
X101443432Y-137021355D01*
X101397576Y-136975845D01*
X101373256Y-136919983D01*
X101371073Y-136860957D01*
X101391629Y-136805953D01*
X101422549Y-136771486D01*
X101453420Y-136752189D01*
X101501942Y-136727759D01*
X101558485Y-136702985D01*
X101567910Y-136699199D01*
X101630019Y-136671791D01*
X101665822Y-136647634D01*
X101677337Y-136623619D01*
X101666580Y-136596635D01*
X101648114Y-136575543D01*
X101604469Y-136549572D01*
X101556446Y-136547624D01*
X101512406Y-136567637D01*
X101480709Y-136607551D01*
X101476549Y-136617848D01*
X101452327Y-136655724D01*
X101416965Y-136683842D01*
X101372343Y-136706917D01*
X101372343Y-136641485D01*
X101374969Y-136601506D01*
X101386230Y-136569997D01*
X101411199Y-136536378D01*
X101435169Y-136510484D01*
X101472441Y-136473817D01*
X101501401Y-136454121D01*
X101532505Y-136446220D01*
X101567713Y-136444914D01*
X101644876Y-136456335D01*
G37*
X101644876Y-136456335D02*
X101686667Y-136475344D01*
X101719469Y-136498378D01*
X101743503Y-136524133D01*
X101760097Y-136557358D01*
X101770577Y-136602800D01*
X101776271Y-136665207D01*
X101778507Y-136749327D01*
X101778743Y-136804721D01*
X101778743Y-137020826D01*
X101741774Y-137037670D01*
X101712656Y-137049981D01*
X101698231Y-137054514D01*
X101695472Y-137041025D01*
X101693282Y-137004653D01*
X101691942Y-136951542D01*
X101691657Y-136909372D01*
X101690434Y-136848447D01*
X101687136Y-136800115D01*
X101682321Y-136770518D01*
X101678496Y-136764229D01*
X101652783Y-136770652D01*
X101612418Y-136787125D01*
X101565679Y-136809458D01*
X101520845Y-136833457D01*
X101486193Y-136854930D01*
X101470002Y-136869685D01*
X101469938Y-136869845D01*
X101471330Y-136897152D01*
X101483818Y-136923219D01*
X101505743Y-136944392D01*
X101537743Y-136951474D01*
X101565092Y-136950649D01*
X101603826Y-136950042D01*
X101624158Y-136959116D01*
X101636369Y-136983092D01*
X101637909Y-136987613D01*
X101643203Y-137021806D01*
X101629047Y-137042568D01*
X101592148Y-137052462D01*
X101552289Y-137054292D01*
X101480562Y-137040727D01*
X101443432Y-137021355D01*
X101397576Y-136975845D01*
X101373256Y-136919983D01*
X101371073Y-136860957D01*
X101391629Y-136805953D01*
X101422549Y-136771486D01*
X101453420Y-136752189D01*
X101501942Y-136727759D01*
X101558485Y-136702985D01*
X101567910Y-136699199D01*
X101630019Y-136671791D01*
X101665822Y-136647634D01*
X101677337Y-136623619D01*
X101666580Y-136596635D01*
X101648114Y-136575543D01*
X101604469Y-136549572D01*
X101556446Y-136547624D01*
X101512406Y-136567637D01*
X101480709Y-136607551D01*
X101476549Y-136617848D01*
X101452327Y-136655724D01*
X101416965Y-136683842D01*
X101372343Y-136706917D01*
X101372343Y-136641485D01*
X101374969Y-136601506D01*
X101386230Y-136569997D01*
X101411199Y-136536378D01*
X101435169Y-136510484D01*
X101472441Y-136473817D01*
X101501401Y-136454121D01*
X101532505Y-136446220D01*
X101567713Y-136444914D01*
X101644876Y-136456335D01*
G36*
X102152600Y-136458752D02*
G01*
X102169948Y-136466334D01*
X102211356Y-136499128D01*
X102246765Y-136546547D01*
X102268664Y-136597151D01*
X102272229Y-136622098D01*
X102260279Y-136656927D01*
X102234067Y-136675357D01*
X102205964Y-136686516D01*
X102193095Y-136688572D01*
X102186829Y-136673649D01*
X102174456Y-136641175D01*
X102169028Y-136626502D01*
X102138590Y-136575744D01*
X102094520Y-136550427D01*
X102038010Y-136551206D01*
X102033825Y-136552203D01*
X102003655Y-136566507D01*
X101981476Y-136594393D01*
X101966327Y-136639287D01*
X101957250Y-136704615D01*
X101953286Y-136793804D01*
X101952914Y-136841261D01*
X101952730Y-136916071D01*
X101951522Y-136967069D01*
X101948309Y-136999471D01*
X101942109Y-137018495D01*
X101931940Y-137029356D01*
X101916819Y-137037272D01*
X101915946Y-137037670D01*
X101886828Y-137049981D01*
X101872403Y-137054514D01*
X101870186Y-137040809D01*
X101868289Y-137002925D01*
X101866847Y-136945715D01*
X101865998Y-136874027D01*
X101865829Y-136821565D01*
X101866692Y-136720047D01*
X101870070Y-136643032D01*
X101877142Y-136586023D01*
X101889088Y-136544526D01*
X101907090Y-136514043D01*
X101932327Y-136490080D01*
X101957247Y-136473355D01*
X102017171Y-136451097D01*
X102086911Y-136446076D01*
X102152600Y-136458752D01*
G37*
X102152600Y-136458752D02*
X102169948Y-136466334D01*
X102211356Y-136499128D01*
X102246765Y-136546547D01*
X102268664Y-136597151D01*
X102272229Y-136622098D01*
X102260279Y-136656927D01*
X102234067Y-136675357D01*
X102205964Y-136686516D01*
X102193095Y-136688572D01*
X102186829Y-136673649D01*
X102174456Y-136641175D01*
X102169028Y-136626502D01*
X102138590Y-136575744D01*
X102094520Y-136550427D01*
X102038010Y-136551206D01*
X102033825Y-136552203D01*
X102003655Y-136566507D01*
X101981476Y-136594393D01*
X101966327Y-136639287D01*
X101957250Y-136704615D01*
X101953286Y-136793804D01*
X101952914Y-136841261D01*
X101952730Y-136916071D01*
X101951522Y-136967069D01*
X101948309Y-136999471D01*
X101942109Y-137018495D01*
X101931940Y-137029356D01*
X101916819Y-137037272D01*
X101915946Y-137037670D01*
X101886828Y-137049981D01*
X101872403Y-137054514D01*
X101870186Y-137040809D01*
X101868289Y-137002925D01*
X101866847Y-136945715D01*
X101865998Y-136874027D01*
X101865829Y-136821565D01*
X101866692Y-136720047D01*
X101870070Y-136643032D01*
X101877142Y-136586023D01*
X101889088Y-136544526D01*
X101907090Y-136514043D01*
X101932327Y-136490080D01*
X101957247Y-136473355D01*
X102017171Y-136451097D01*
X102086911Y-136446076D01*
X102152600Y-136458752D01*
G36*
X102653595Y-136466966D02*
G01*
X102711021Y-136504497D01*
X102738719Y-136538096D01*
X102760662Y-136599064D01*
X102762405Y-136647308D01*
X102758457Y-136711816D01*
X102609686Y-136776934D01*
X102537349Y-136810202D01*
X102490084Y-136836964D01*
X102465507Y-136860144D01*
X102461237Y-136882667D01*
X102474889Y-136907455D01*
X102489943Y-136923886D01*
X102533746Y-136950235D01*
X102581389Y-136952081D01*
X102625145Y-136931546D01*
X102657289Y-136890752D01*
X102663038Y-136876347D01*
X102690576Y-136831356D01*
X102722258Y-136812182D01*
X102765714Y-136795779D01*
X102765714Y-136857966D01*
X102761872Y-136900283D01*
X102746823Y-136935969D01*
X102715280Y-136976943D01*
X102710592Y-136982267D01*
X102675506Y-137018720D01*
X102645347Y-137038283D01*
X102607615Y-137047283D01*
X102576335Y-137050230D01*
X102520385Y-137050965D01*
X102480555Y-137041660D01*
X102455708Y-137027846D01*
X102416656Y-136997467D01*
X102389625Y-136964613D01*
X102372517Y-136923294D01*
X102363238Y-136867521D01*
X102359693Y-136791305D01*
X102359410Y-136752622D01*
X102360372Y-136706247D01*
X102448007Y-136706247D01*
X102449023Y-136731126D01*
X102451556Y-136735200D01*
X102468274Y-136729665D01*
X102504249Y-136715017D01*
X102552331Y-136694190D01*
X102562386Y-136689714D01*
X102623152Y-136658814D01*
X102656632Y-136631657D01*
X102663990Y-136606220D01*
X102646391Y-136580481D01*
X102631856Y-136569109D01*
X102579410Y-136546364D01*
X102530322Y-136550122D01*
X102489227Y-136577884D01*
X102460758Y-136627152D01*
X102451631Y-136666257D01*
X102448007Y-136706247D01*
X102360372Y-136706247D01*
X102361285Y-136662249D01*
X102368196Y-136595384D01*
X102381884Y-136546695D01*
X102404096Y-136510849D01*
X102436574Y-136482513D01*
X102450733Y-136473355D01*
X102515053Y-136449507D01*
X102585473Y-136448006D01*
X102653595Y-136466966D01*
G37*
X102653595Y-136466966D02*
X102711021Y-136504497D01*
X102738719Y-136538096D01*
X102760662Y-136599064D01*
X102762405Y-136647308D01*
X102758457Y-136711816D01*
X102609686Y-136776934D01*
X102537349Y-136810202D01*
X102490084Y-136836964D01*
X102465507Y-136860144D01*
X102461237Y-136882667D01*
X102474889Y-136907455D01*
X102489943Y-136923886D01*
X102533746Y-136950235D01*
X102581389Y-136952081D01*
X102625145Y-136931546D01*
X102657289Y-136890752D01*
X102663038Y-136876347D01*
X102690576Y-136831356D01*
X102722258Y-136812182D01*
X102765714Y-136795779D01*
X102765714Y-136857966D01*
X102761872Y-136900283D01*
X102746823Y-136935969D01*
X102715280Y-136976943D01*
X102710592Y-136982267D01*
X102675506Y-137018720D01*
X102645347Y-137038283D01*
X102607615Y-137047283D01*
X102576335Y-137050230D01*
X102520385Y-137050965D01*
X102480555Y-137041660D01*
X102455708Y-137027846D01*
X102416656Y-136997467D01*
X102389625Y-136964613D01*
X102372517Y-136923294D01*
X102363238Y-136867521D01*
X102359693Y-136791305D01*
X102359410Y-136752622D01*
X102360372Y-136706247D01*
X102448007Y-136706247D01*
X102449023Y-136731126D01*
X102451556Y-136735200D01*
X102468274Y-136729665D01*
X102504249Y-136715017D01*
X102552331Y-136694190D01*
X102562386Y-136689714D01*
X102623152Y-136658814D01*
X102656632Y-136631657D01*
X102663990Y-136606220D01*
X102646391Y-136580481D01*
X102631856Y-136569109D01*
X102579410Y-136546364D01*
X102530322Y-136550122D01*
X102489227Y-136577884D01*
X102460758Y-136627152D01*
X102451631Y-136666257D01*
X102448007Y-136706247D01*
X102360372Y-136706247D01*
X102361285Y-136662249D01*
X102368196Y-136595384D01*
X102381884Y-136546695D01*
X102404096Y-136510849D01*
X102436574Y-136482513D01*
X102450733Y-136473355D01*
X102515053Y-136449507D01*
X102585473Y-136448006D01*
X102653595Y-136466966D01*
G36*
X99603910Y-131742348D02*
G01*
X99682454Y-131742778D01*
X99739298Y-131743942D01*
X99778105Y-131746207D01*
X99802538Y-131749940D01*
X99816262Y-131755506D01*
X99822940Y-131763273D01*
X99826236Y-131773605D01*
X99826556Y-131774943D01*
X99831562Y-131799079D01*
X99840829Y-131846701D01*
X99853392Y-131912741D01*
X99868287Y-131992128D01*
X99884551Y-132079796D01*
X99885119Y-132082875D01*
X99901410Y-132168789D01*
X99916652Y-132244696D01*
X99929861Y-132306045D01*
X99940054Y-132348282D01*
X99946248Y-132366855D01*
X99946543Y-132367184D01*
X99964788Y-132376253D01*
X100002405Y-132391367D01*
X100051271Y-132409262D01*
X100051543Y-132409358D01*
X100113093Y-132432493D01*
X100185657Y-132461965D01*
X100254057Y-132491597D01*
X100257294Y-132493062D01*
X100368702Y-132543626D01*
X100615399Y-132375160D01*
X100691077Y-132323803D01*
X100759631Y-132277889D01*
X100817088Y-132240030D01*
X100859476Y-132212837D01*
X100882825Y-132198921D01*
X100885042Y-132197889D01*
X100902010Y-132202484D01*
X100933701Y-132224655D01*
X100981352Y-132265447D01*
X101046198Y-132325905D01*
X101112397Y-132390227D01*
X101176214Y-132453612D01*
X101233329Y-132511451D01*
X101280305Y-132560175D01*
X101313703Y-132596210D01*
X101330085Y-132615984D01*
X101330694Y-132617002D01*
X101332505Y-132630572D01*
X101325683Y-132652733D01*
X101308540Y-132686478D01*
X101279393Y-132734800D01*
X101236555Y-132800692D01*
X101179448Y-132885517D01*
X101128766Y-132960177D01*
X101083461Y-133027140D01*
X101046150Y-133082516D01*
X101019452Y-133122420D01*
X101005985Y-133142962D01*
X101005137Y-133144356D01*
X101006781Y-133164038D01*
X101019245Y-133202293D01*
X101040048Y-133251889D01*
X101047462Y-133267728D01*
X101079814Y-133338290D01*
X101114328Y-133418353D01*
X101142365Y-133487629D01*
X101162568Y-133539045D01*
X101178615Y-133578119D01*
X101187888Y-133598541D01*
X101189041Y-133600114D01*
X101206096Y-133602721D01*
X101246298Y-133609863D01*
X101304302Y-133620523D01*
X101374763Y-133633685D01*
X101452335Y-133648333D01*
X101531672Y-133663449D01*
X101607431Y-133678018D01*
X101674264Y-133691022D01*
X101726828Y-133701445D01*
X101759776Y-133708270D01*
X101767857Y-133710199D01*
X101776205Y-133714962D01*
X101782506Y-133725718D01*
X101787045Y-133746098D01*
X101790104Y-133779734D01*
X101791967Y-133830255D01*
X101792918Y-133901292D01*
X101793240Y-133996476D01*
X101793257Y-134035492D01*
X101793257Y-134352799D01*
X101717057Y-134367839D01*
X101674663Y-134375995D01*
X101611400Y-134387899D01*
X101534962Y-134402116D01*
X101453043Y-134417210D01*
X101430400Y-134421355D01*
X101354806Y-134436053D01*
X101288953Y-134450505D01*
X101238366Y-134463375D01*
X101208574Y-134473322D01*
X101203612Y-134476287D01*
X101191426Y-134497283D01*
X101173953Y-134537967D01*
X101154577Y-134590322D01*
X101150734Y-134601600D01*
X101125339Y-134671523D01*
X101093817Y-134750418D01*
X101062969Y-134821266D01*
X101062817Y-134821595D01*
X101011447Y-134932733D01*
X101180399Y-135181253D01*
X101349352Y-135429772D01*
X101132429Y-135647058D01*
X101066819Y-135711726D01*
X101006979Y-135768733D01*
X100956267Y-135815033D01*
X100918046Y-135847584D01*
X100895675Y-135863343D01*
X100892466Y-135864343D01*
X100873626Y-135856469D01*
X100835180Y-135834578D01*
X100781330Y-135801267D01*
X100716276Y-135759131D01*
X100645940Y-135711943D01*
X100574555Y-135663810D01*
X100510908Y-135621928D01*
X100459041Y-135588871D01*
X100422995Y-135567218D01*
X100406867Y-135559543D01*
X100387189Y-135566037D01*
X100349875Y-135583150D01*
X100302621Y-135607326D01*
X100297612Y-135610013D01*
X100233977Y-135641927D01*
X100190341Y-135657579D01*
X100163202Y-135657745D01*
X100149057Y-135643204D01*
X100148975Y-135643000D01*
X100141905Y-135625779D01*
X100125042Y-135584899D01*
X100099695Y-135523525D01*
X100067171Y-135444819D01*
X100028778Y-135351947D01*
X99985822Y-135248072D01*
X99944222Y-135147502D01*
X99898504Y-135036516D01*
X99856526Y-134933703D01*
X99819548Y-134842215D01*
X99788827Y-134765201D01*
X99765622Y-134705815D01*
X99751190Y-134667209D01*
X99746743Y-134652800D01*
X99757896Y-134636272D01*
X99787069Y-134609930D01*
X99825971Y-134580887D01*
X99936757Y-134489039D01*
X100023351Y-134383759D01*
X100084716Y-134267266D01*
X100119815Y-134141776D01*
X100127608Y-134009507D01*
X100121943Y-133948457D01*
X100091078Y-133821795D01*
X100037920Y-133709941D01*
X99965767Y-133614001D01*
X99877917Y-133535076D01*
X99777665Y-133474270D01*
X99668310Y-133432687D01*
X99553147Y-133411428D01*
X99435475Y-133411599D01*
X99318590Y-133434301D01*
X99205789Y-133480638D01*
X99100369Y-133551713D01*
X99056368Y-133591911D01*
X98971979Y-133695129D01*
X98913222Y-133807925D01*
X98879704Y-133927010D01*
X98871035Y-134049095D01*
X98886823Y-134170893D01*
X98926678Y-134289116D01*
X98990207Y-134400475D01*
X99077021Y-134501684D01*
X99174029Y-134580887D01*
X99214437Y-134611162D01*
X99242982Y-134637219D01*
X99253257Y-134652825D01*
X99247877Y-134669843D01*
X99232575Y-134710500D01*
X99208612Y-134771642D01*
X99177244Y-134850119D01*
X99139732Y-134942780D01*
X99097333Y-135046472D01*
X99055663Y-135147526D01*
X99009690Y-135258607D01*
X98967107Y-135361541D01*
X98929221Y-135453165D01*
X98897340Y-135530316D01*
X98872771Y-135589831D01*
X98856820Y-135628544D01*
X98850910Y-135643000D01*
X98836948Y-135657685D01*
X98809940Y-135657642D01*
X98766413Y-135642099D01*
X98702890Y-135610284D01*
X98702388Y-135610013D01*
X98654560Y-135585323D01*
X98615897Y-135567338D01*
X98594095Y-135559614D01*
X98593133Y-135559543D01*
X98576721Y-135567378D01*
X98540487Y-135589165D01*
X98488474Y-135622328D01*
X98424725Y-135664291D01*
X98354060Y-135711943D01*
X98282116Y-135760191D01*
X98217274Y-135802151D01*
X98163735Y-135835227D01*
X98125697Y-135856821D01*
X98107533Y-135864343D01*
X98090808Y-135854457D01*
X98057180Y-135826826D01*
X98010010Y-135784495D01*
X97952658Y-135730505D01*
X97888484Y-135667899D01*
X97867497Y-135646983D01*
X97650499Y-135429623D01*
X97815668Y-135187220D01*
X97865864Y-135112781D01*
X97909919Y-135045972D01*
X97945362Y-134990665D01*
X97969719Y-134950729D01*
X97980522Y-134930036D01*
X97980838Y-134928563D01*
X97975143Y-134909058D01*
X97959826Y-134869822D01*
X97937537Y-134817430D01*
X97921893Y-134782355D01*
X97892641Y-134715201D01*
X97865094Y-134647358D01*
X97843737Y-134590034D01*
X97837935Y-134572572D01*
X97821452Y-134525938D01*
X97805340Y-134489905D01*
X97796490Y-134476287D01*
X97776960Y-134467952D01*
X97734334Y-134456137D01*
X97674145Y-134442181D01*
X97601922Y-134427422D01*
X97569600Y-134421355D01*
X97487522Y-134406273D01*
X97408795Y-134391669D01*
X97341109Y-134378980D01*
X97292160Y-134369642D01*
X97282943Y-134367839D01*
X97206743Y-134352799D01*
X97206743Y-134035492D01*
X97206914Y-133931154D01*
X97207616Y-133852213D01*
X97209134Y-133795038D01*
X97211749Y-133755999D01*
X97215746Y-133731465D01*
X97221409Y-133717805D01*
X97229020Y-133711389D01*
X97232143Y-133710199D01*
X97250978Y-133705980D01*
X97292588Y-133697562D01*
X97351630Y-133685961D01*
X97422757Y-133672195D01*
X97500625Y-133657280D01*
X97579887Y-133642232D01*
X97655198Y-133628069D01*
X97721213Y-133615806D01*
X97772587Y-133606461D01*
X97803975Y-133601050D01*
X97810959Y-133600114D01*
X97817285Y-133587596D01*
X97831290Y-133554246D01*
X97850355Y-133506377D01*
X97857634Y-133487629D01*
X97886996Y-133415195D01*
X97921571Y-133335170D01*
X97952537Y-133267728D01*
X97975323Y-133216159D01*
X97990482Y-133173785D01*
X97995542Y-133147834D01*
X97994736Y-133144356D01*
X97984041Y-133127936D01*
X97959620Y-133091417D01*
X97924095Y-133038687D01*
X97880087Y-132973635D01*
X97830217Y-132900151D01*
X97820356Y-132885645D01*
X97762492Y-132799704D01*
X97719956Y-132734261D01*
X97691054Y-132686304D01*
X97674090Y-132652820D01*
X97667367Y-132630795D01*
X97669190Y-132617217D01*
X97669236Y-132617131D01*
X97683586Y-132599297D01*
X97715323Y-132564817D01*
X97761010Y-132517268D01*
X97817204Y-132460222D01*
X97880468Y-132397255D01*
X97887602Y-132390227D01*
X97967330Y-132313020D01*
X98028857Y-132256330D01*
X98073421Y-132219110D01*
X98102257Y-132200315D01*
X98114958Y-132197889D01*
X98133494Y-132208471D01*
X98171961Y-132232916D01*
X98226386Y-132268612D01*
X98292798Y-132312947D01*
X98367225Y-132363311D01*
X98384601Y-132375160D01*
X98631297Y-132543626D01*
X98742706Y-132493062D01*
X98810457Y-132463595D01*
X98883183Y-132433959D01*
X98945703Y-132410330D01*
X98948457Y-132409358D01*
X98997360Y-132391457D01*
X99035057Y-132376320D01*
X99053425Y-132367210D01*
X99053456Y-132367184D01*
X99059285Y-132350717D01*
X99069192Y-132310219D01*
X99082195Y-132250242D01*
X99097309Y-132175340D01*
X99113552Y-132090064D01*
X99114881Y-132082875D01*
X99131175Y-131995014D01*
X99146133Y-131915260D01*
X99158791Y-131848681D01*
X99168186Y-131800347D01*
X99173354Y-131775325D01*
X99173444Y-131774943D01*
X99176589Y-131764299D01*
X99182704Y-131756262D01*
X99195453Y-131750467D01*
X99218500Y-131746547D01*
X99255509Y-131744135D01*
X99310144Y-131742865D01*
X99386067Y-131742371D01*
X99486944Y-131742286D01*
X99500000Y-131742286D01*
X99603910Y-131742348D01*
G37*
X99603910Y-131742348D02*
X99682454Y-131742778D01*
X99739298Y-131743942D01*
X99778105Y-131746207D01*
X99802538Y-131749940D01*
X99816262Y-131755506D01*
X99822940Y-131763273D01*
X99826236Y-131773605D01*
X99826556Y-131774943D01*
X99831562Y-131799079D01*
X99840829Y-131846701D01*
X99853392Y-131912741D01*
X99868287Y-131992128D01*
X99884551Y-132079796D01*
X99885119Y-132082875D01*
X99901410Y-132168789D01*
X99916652Y-132244696D01*
X99929861Y-132306045D01*
X99940054Y-132348282D01*
X99946248Y-132366855D01*
X99946543Y-132367184D01*
X99964788Y-132376253D01*
X100002405Y-132391367D01*
X100051271Y-132409262D01*
X100051543Y-132409358D01*
X100113093Y-132432493D01*
X100185657Y-132461965D01*
X100254057Y-132491597D01*
X100257294Y-132493062D01*
X100368702Y-132543626D01*
X100615399Y-132375160D01*
X100691077Y-132323803D01*
X100759631Y-132277889D01*
X100817088Y-132240030D01*
X100859476Y-132212837D01*
X100882825Y-132198921D01*
X100885042Y-132197889D01*
X100902010Y-132202484D01*
X100933701Y-132224655D01*
X100981352Y-132265447D01*
X101046198Y-132325905D01*
X101112397Y-132390227D01*
X101176214Y-132453612D01*
X101233329Y-132511451D01*
X101280305Y-132560175D01*
X101313703Y-132596210D01*
X101330085Y-132615984D01*
X101330694Y-132617002D01*
X101332505Y-132630572D01*
X101325683Y-132652733D01*
X101308540Y-132686478D01*
X101279393Y-132734800D01*
X101236555Y-132800692D01*
X101179448Y-132885517D01*
X101128766Y-132960177D01*
X101083461Y-133027140D01*
X101046150Y-133082516D01*
X101019452Y-133122420D01*
X101005985Y-133142962D01*
X101005137Y-133144356D01*
X101006781Y-133164038D01*
X101019245Y-133202293D01*
X101040048Y-133251889D01*
X101047462Y-133267728D01*
X101079814Y-133338290D01*
X101114328Y-133418353D01*
X101142365Y-133487629D01*
X101162568Y-133539045D01*
X101178615Y-133578119D01*
X101187888Y-133598541D01*
X101189041Y-133600114D01*
X101206096Y-133602721D01*
X101246298Y-133609863D01*
X101304302Y-133620523D01*
X101374763Y-133633685D01*
X101452335Y-133648333D01*
X101531672Y-133663449D01*
X101607431Y-133678018D01*
X101674264Y-133691022D01*
X101726828Y-133701445D01*
X101759776Y-133708270D01*
X101767857Y-133710199D01*
X101776205Y-133714962D01*
X101782506Y-133725718D01*
X101787045Y-133746098D01*
X101790104Y-133779734D01*
X101791967Y-133830255D01*
X101792918Y-133901292D01*
X101793240Y-133996476D01*
X101793257Y-134035492D01*
X101793257Y-134352799D01*
X101717057Y-134367839D01*
X101674663Y-134375995D01*
X101611400Y-134387899D01*
X101534962Y-134402116D01*
X101453043Y-134417210D01*
X101430400Y-134421355D01*
X101354806Y-134436053D01*
X101288953Y-134450505D01*
X101238366Y-134463375D01*
X101208574Y-134473322D01*
X101203612Y-134476287D01*
X101191426Y-134497283D01*
X101173953Y-134537967D01*
X101154577Y-134590322D01*
X101150734Y-134601600D01*
X101125339Y-134671523D01*
X101093817Y-134750418D01*
X101062969Y-134821266D01*
X101062817Y-134821595D01*
X101011447Y-134932733D01*
X101180399Y-135181253D01*
X101349352Y-135429772D01*
X101132429Y-135647058D01*
X101066819Y-135711726D01*
X101006979Y-135768733D01*
X100956267Y-135815033D01*
X100918046Y-135847584D01*
X100895675Y-135863343D01*
X100892466Y-135864343D01*
X100873626Y-135856469D01*
X100835180Y-135834578D01*
X100781330Y-135801267D01*
X100716276Y-135759131D01*
X100645940Y-135711943D01*
X100574555Y-135663810D01*
X100510908Y-135621928D01*
X100459041Y-135588871D01*
X100422995Y-135567218D01*
X100406867Y-135559543D01*
X100387189Y-135566037D01*
X100349875Y-135583150D01*
X100302621Y-135607326D01*
X100297612Y-135610013D01*
X100233977Y-135641927D01*
X100190341Y-135657579D01*
X100163202Y-135657745D01*
X100149057Y-135643204D01*
X100148975Y-135643000D01*
X100141905Y-135625779D01*
X100125042Y-135584899D01*
X100099695Y-135523525D01*
X100067171Y-135444819D01*
X100028778Y-135351947D01*
X99985822Y-135248072D01*
X99944222Y-135147502D01*
X99898504Y-135036516D01*
X99856526Y-134933703D01*
X99819548Y-134842215D01*
X99788827Y-134765201D01*
X99765622Y-134705815D01*
X99751190Y-134667209D01*
X99746743Y-134652800D01*
X99757896Y-134636272D01*
X99787069Y-134609930D01*
X99825971Y-134580887D01*
X99936757Y-134489039D01*
X100023351Y-134383759D01*
X100084716Y-134267266D01*
X100119815Y-134141776D01*
X100127608Y-134009507D01*
X100121943Y-133948457D01*
X100091078Y-133821795D01*
X100037920Y-133709941D01*
X99965767Y-133614001D01*
X99877917Y-133535076D01*
X99777665Y-133474270D01*
X99668310Y-133432687D01*
X99553147Y-133411428D01*
X99435475Y-133411599D01*
X99318590Y-133434301D01*
X99205789Y-133480638D01*
X99100369Y-133551713D01*
X99056368Y-133591911D01*
X98971979Y-133695129D01*
X98913222Y-133807925D01*
X98879704Y-133927010D01*
X98871035Y-134049095D01*
X98886823Y-134170893D01*
X98926678Y-134289116D01*
X98990207Y-134400475D01*
X99077021Y-134501684D01*
X99174029Y-134580887D01*
X99214437Y-134611162D01*
X99242982Y-134637219D01*
X99253257Y-134652825D01*
X99247877Y-134669843D01*
X99232575Y-134710500D01*
X99208612Y-134771642D01*
X99177244Y-134850119D01*
X99139732Y-134942780D01*
X99097333Y-135046472D01*
X99055663Y-135147526D01*
X99009690Y-135258607D01*
X98967107Y-135361541D01*
X98929221Y-135453165D01*
X98897340Y-135530316D01*
X98872771Y-135589831D01*
X98856820Y-135628544D01*
X98850910Y-135643000D01*
X98836948Y-135657685D01*
X98809940Y-135657642D01*
X98766413Y-135642099D01*
X98702890Y-135610284D01*
X98702388Y-135610013D01*
X98654560Y-135585323D01*
X98615897Y-135567338D01*
X98594095Y-135559614D01*
X98593133Y-135559543D01*
X98576721Y-135567378D01*
X98540487Y-135589165D01*
X98488474Y-135622328D01*
X98424725Y-135664291D01*
X98354060Y-135711943D01*
X98282116Y-135760191D01*
X98217274Y-135802151D01*
X98163735Y-135835227D01*
X98125697Y-135856821D01*
X98107533Y-135864343D01*
X98090808Y-135854457D01*
X98057180Y-135826826D01*
X98010010Y-135784495D01*
X97952658Y-135730505D01*
X97888484Y-135667899D01*
X97867497Y-135646983D01*
X97650499Y-135429623D01*
X97815668Y-135187220D01*
X97865864Y-135112781D01*
X97909919Y-135045972D01*
X97945362Y-134990665D01*
X97969719Y-134950729D01*
X97980522Y-134930036D01*
X97980838Y-134928563D01*
X97975143Y-134909058D01*
X97959826Y-134869822D01*
X97937537Y-134817430D01*
X97921893Y-134782355D01*
X97892641Y-134715201D01*
X97865094Y-134647358D01*
X97843737Y-134590034D01*
X97837935Y-134572572D01*
X97821452Y-134525938D01*
X97805340Y-134489905D01*
X97796490Y-134476287D01*
X97776960Y-134467952D01*
X97734334Y-134456137D01*
X97674145Y-134442181D01*
X97601922Y-134427422D01*
X97569600Y-134421355D01*
X97487522Y-134406273D01*
X97408795Y-134391669D01*
X97341109Y-134378980D01*
X97292160Y-134369642D01*
X97282943Y-134367839D01*
X97206743Y-134352799D01*
X97206743Y-134035492D01*
X97206914Y-133931154D01*
X97207616Y-133852213D01*
X97209134Y-133795038D01*
X97211749Y-133755999D01*
X97215746Y-133731465D01*
X97221409Y-133717805D01*
X97229020Y-133711389D01*
X97232143Y-133710199D01*
X97250978Y-133705980D01*
X97292588Y-133697562D01*
X97351630Y-133685961D01*
X97422757Y-133672195D01*
X97500625Y-133657280D01*
X97579887Y-133642232D01*
X97655198Y-133628069D01*
X97721213Y-133615806D01*
X97772587Y-133606461D01*
X97803975Y-133601050D01*
X97810959Y-133600114D01*
X97817285Y-133587596D01*
X97831290Y-133554246D01*
X97850355Y-133506377D01*
X97857634Y-133487629D01*
X97886996Y-133415195D01*
X97921571Y-133335170D01*
X97952537Y-133267728D01*
X97975323Y-133216159D01*
X97990482Y-133173785D01*
X97995542Y-133147834D01*
X97994736Y-133144356D01*
X97984041Y-133127936D01*
X97959620Y-133091417D01*
X97924095Y-133038687D01*
X97880087Y-132973635D01*
X97830217Y-132900151D01*
X97820356Y-132885645D01*
X97762492Y-132799704D01*
X97719956Y-132734261D01*
X97691054Y-132686304D01*
X97674090Y-132652820D01*
X97667367Y-132630795D01*
X97669190Y-132617217D01*
X97669236Y-132617131D01*
X97683586Y-132599297D01*
X97715323Y-132564817D01*
X97761010Y-132517268D01*
X97817204Y-132460222D01*
X97880468Y-132397255D01*
X97887602Y-132390227D01*
X97967330Y-132313020D01*
X98028857Y-132256330D01*
X98073421Y-132219110D01*
X98102257Y-132200315D01*
X98114958Y-132197889D01*
X98133494Y-132208471D01*
X98171961Y-132232916D01*
X98226386Y-132268612D01*
X98292798Y-132312947D01*
X98367225Y-132363311D01*
X98384601Y-132375160D01*
X98631297Y-132543626D01*
X98742706Y-132493062D01*
X98810457Y-132463595D01*
X98883183Y-132433959D01*
X98945703Y-132410330D01*
X98948457Y-132409358D01*
X98997360Y-132391457D01*
X99035057Y-132376320D01*
X99053425Y-132367210D01*
X99053456Y-132367184D01*
X99059285Y-132350717D01*
X99069192Y-132310219D01*
X99082195Y-132250242D01*
X99097309Y-132175340D01*
X99113552Y-132090064D01*
X99114881Y-132082875D01*
X99131175Y-131995014D01*
X99146133Y-131915260D01*
X99158791Y-131848681D01*
X99168186Y-131800347D01*
X99173354Y-131775325D01*
X99173444Y-131774943D01*
X99176589Y-131764299D01*
X99182704Y-131756262D01*
X99195453Y-131750467D01*
X99218500Y-131746547D01*
X99255509Y-131744135D01*
X99310144Y-131742865D01*
X99386067Y-131742371D01*
X99486944Y-131742286D01*
X99500000Y-131742286D01*
X99603910Y-131742348D01*
D10*
%TO.C,R7*%
X55080000Y-110370000D02*
X55080000Y-110040000D01*
X48540000Y-110370000D02*
X55080000Y-110370000D01*
X48540000Y-110040000D02*
X48540000Y-110370000D01*
X55080000Y-107630000D02*
X55080000Y-107960000D01*
X48540000Y-107630000D02*
X55080000Y-107630000D01*
X48540000Y-107960000D02*
X48540000Y-107630000D01*
%TO.C,C12*%
X55270000Y-96795000D02*
X55270000Y-97420000D01*
X55270000Y-94580000D02*
X55270000Y-95205000D01*
X51230000Y-96795000D02*
X51230000Y-97420000D01*
X51230000Y-94580000D02*
X51230000Y-95205000D01*
X51230000Y-97420000D02*
X55270000Y-97420000D01*
X51230000Y-94580000D02*
X55270000Y-94580000D01*
%TO.C,U2*%
X59040000Y-106330000D02*
X60690000Y-106330000D01*
X59040000Y-96050000D02*
X59040000Y-106330000D01*
X64340000Y-96050000D02*
X59040000Y-96050000D01*
X64340000Y-106330000D02*
X64340000Y-96050000D01*
X62690000Y-106330000D02*
X64340000Y-106330000D01*
X60690000Y-106330000D02*
G75*
G02*
X62690000Y-106330000I1000000J0D01*
G01*
%TO.C,C11*%
X51230000Y-89580000D02*
X55270000Y-89580000D01*
X51230000Y-92420000D02*
X55270000Y-92420000D01*
X51230000Y-89580000D02*
X51230000Y-90205000D01*
X51230000Y-91795000D02*
X51230000Y-92420000D01*
X55270000Y-89580000D02*
X55270000Y-90205000D01*
X55270000Y-91795000D02*
X55270000Y-92420000D01*
%TO.C,PTC1*%
X102420000Y-117880000D02*
X102420000Y-114040000D01*
X100580000Y-117880000D02*
X100580000Y-114040000D01*
%TO.C,BT1*%
X46170000Y-118870000D02*
X48830000Y-118870000D01*
X46170000Y-116270000D02*
X46170000Y-118870000D01*
X48830000Y-116270000D02*
X48830000Y-118870000D01*
X46170000Y-116270000D02*
X48830000Y-116270000D01*
X46170000Y-115000000D02*
X46170000Y-113670000D01*
X46170000Y-113670000D02*
X47500000Y-113670000D01*
%TO.C,C1*%
X51705000Y-118270000D02*
X51080000Y-118270000D01*
X53920000Y-118270000D02*
X53295000Y-118270000D01*
X51705000Y-114230000D02*
X51080000Y-114230000D01*
X53920000Y-114230000D02*
X53295000Y-114230000D01*
X51080000Y-114230000D02*
X51080000Y-118270000D01*
X53920000Y-114230000D02*
X53920000Y-118270000D01*
%TO.C,C2*%
X53295000Y-119730000D02*
X53920000Y-119730000D01*
X51080000Y-119730000D02*
X51705000Y-119730000D01*
X53295000Y-123770000D02*
X53920000Y-123770000D01*
X51080000Y-123770000D02*
X51705000Y-123770000D01*
X53920000Y-123770000D02*
X53920000Y-119730000D01*
X51080000Y-123770000D02*
X51080000Y-119730000D01*
%TO.C,C3*%
X94230000Y-113080000D02*
X98270000Y-113080000D01*
X94230000Y-115920000D02*
X98270000Y-115920000D01*
X94230000Y-113080000D02*
X94230000Y-113705000D01*
X94230000Y-115295000D02*
X94230000Y-115920000D01*
X98270000Y-113080000D02*
X98270000Y-113705000D01*
X98270000Y-115295000D02*
X98270000Y-115920000D01*
%TO.C,C4*%
X51080000Y-128770000D02*
X51080000Y-124730000D01*
X53920000Y-128770000D02*
X53920000Y-124730000D01*
X51080000Y-128770000D02*
X51705000Y-128770000D01*
X53295000Y-128770000D02*
X53920000Y-128770000D01*
X51080000Y-124730000D02*
X51705000Y-124730000D01*
X53295000Y-124730000D02*
X53920000Y-124730000D01*
%TO.C,C7*%
X59795000Y-114230000D02*
X60420000Y-114230000D01*
X57580000Y-114230000D02*
X58205000Y-114230000D01*
X59795000Y-118270000D02*
X60420000Y-118270000D01*
X57580000Y-118270000D02*
X58205000Y-118270000D01*
X60420000Y-118270000D02*
X60420000Y-114230000D01*
X57580000Y-118270000D02*
X57580000Y-114230000D01*
%TO.C,C8*%
X60420000Y-119730000D02*
X60420000Y-123770000D01*
X57580000Y-119730000D02*
X57580000Y-123770000D01*
X60420000Y-119730000D02*
X59795000Y-119730000D01*
X58205000Y-119730000D02*
X57580000Y-119730000D01*
X60420000Y-123770000D02*
X59795000Y-123770000D01*
X58205000Y-123770000D02*
X57580000Y-123770000D01*
%TO.C,C9*%
X98270000Y-120295000D02*
X98270000Y-120920000D01*
X98270000Y-118080000D02*
X98270000Y-118705000D01*
X94230000Y-120295000D02*
X94230000Y-120920000D01*
X94230000Y-118080000D02*
X94230000Y-118705000D01*
X94230000Y-120920000D02*
X98270000Y-120920000D01*
X94230000Y-118080000D02*
X98270000Y-118080000D01*
%TO.C,C10*%
X93080000Y-128770000D02*
X93080000Y-124730000D01*
X95920000Y-128770000D02*
X95920000Y-124730000D01*
X93080000Y-128770000D02*
X93705000Y-128770000D01*
X95295000Y-128770000D02*
X95920000Y-128770000D01*
X93080000Y-124730000D02*
X93705000Y-124730000D01*
X95295000Y-124730000D02*
X95920000Y-124730000D01*
%TO.C,D1*%
X69570000Y-112880000D02*
X69570000Y-115120000D01*
X69570000Y-115120000D02*
X73810000Y-115120000D01*
X73810000Y-115120000D02*
X73810000Y-112880000D01*
X73810000Y-112880000D02*
X69570000Y-112880000D01*
X68920000Y-114000000D02*
X69570000Y-114000000D01*
X74460000Y-114000000D02*
X73810000Y-114000000D01*
X70290000Y-112880000D02*
X70290000Y-115120000D01*
X70410000Y-112880000D02*
X70410000Y-115120000D01*
X70170000Y-112880000D02*
X70170000Y-115120000D01*
%TO.C,L1*%
X66755000Y-119205000D02*
X66755000Y-123445000D01*
X66755000Y-123445000D02*
X76495000Y-123445000D01*
X76495000Y-123445000D02*
X76495000Y-119205000D01*
X76495000Y-119205000D02*
X66755000Y-119205000D01*
X66515000Y-121325000D02*
X66755000Y-121325000D01*
X76735000Y-121325000D02*
X76495000Y-121325000D01*
%TO.C,R1*%
X90080000Y-120870000D02*
X90080000Y-120540000D01*
X83540000Y-120870000D02*
X90080000Y-120870000D01*
X83540000Y-120540000D02*
X83540000Y-120870000D01*
X90080000Y-118130000D02*
X90080000Y-118460000D01*
X83540000Y-118130000D02*
X90080000Y-118130000D01*
X83540000Y-118460000D02*
X83540000Y-118130000D01*
%TO.C,R2*%
X83420000Y-113460000D02*
X83420000Y-113130000D01*
X83420000Y-113130000D02*
X89960000Y-113130000D01*
X89960000Y-113130000D02*
X89960000Y-113460000D01*
X83420000Y-115540000D02*
X83420000Y-115870000D01*
X83420000Y-115870000D02*
X89960000Y-115870000D01*
X89960000Y-115870000D02*
X89960000Y-115540000D01*
%TO.C,R5*%
X85040000Y-124040000D02*
X85370000Y-124040000D01*
X85370000Y-124040000D02*
X85370000Y-130580000D01*
X85370000Y-130580000D02*
X85040000Y-130580000D01*
X82960000Y-124040000D02*
X82630000Y-124040000D01*
X82630000Y-124040000D02*
X82630000Y-130580000D01*
X82630000Y-130580000D02*
X82960000Y-130580000D01*
%TO.C,R6*%
X89870000Y-124040000D02*
X89540000Y-124040000D01*
X89870000Y-130580000D02*
X89870000Y-124040000D01*
X89540000Y-130580000D02*
X89870000Y-130580000D01*
X87130000Y-124040000D02*
X87460000Y-124040000D01*
X87130000Y-130580000D02*
X87130000Y-124040000D01*
X87460000Y-130580000D02*
X87130000Y-130580000D01*
%TO.C,SW1*%
X46440000Y-121440000D02*
X46440000Y-125560000D01*
X46500000Y-121440000D02*
X46440000Y-121440000D01*
X48560000Y-125560000D02*
X46440000Y-125560000D01*
X46500000Y-121440000D02*
X46500000Y-123500000D01*
X46500000Y-123500000D02*
X48560000Y-123500000D01*
X48560000Y-123500000D02*
X48560000Y-125560000D01*
X47500000Y-121440000D02*
X48560000Y-121440000D01*
X48560000Y-121440000D02*
X48560000Y-122500000D01*
%TO.C,U1*%
X72627500Y-126153000D02*
X73102500Y-126153000D01*
X73102500Y-126153000D02*
X73102500Y-126628000D01*
X72627500Y-129603000D02*
X73102500Y-129603000D01*
X73102500Y-129603000D02*
X73102500Y-129128000D01*
X70127500Y-129603000D02*
X69652500Y-129603000D01*
X69652500Y-129603000D02*
X69652500Y-129128000D01*
X70127500Y-126153000D02*
X69502500Y-126153000D01*
%TO.C,RV1*%
X65410000Y-92330000D02*
X65410000Y-89670000D01*
X60270000Y-92330000D02*
X65410000Y-92330000D01*
X60270000Y-89670000D02*
X65410000Y-89670000D01*
X60270000Y-92330000D02*
X60270000Y-89670000D01*
X59000000Y-92330000D02*
X57670000Y-92330000D01*
X57670000Y-92330000D02*
X57670000Y-91000000D01*
%TO.C,D2*%
X102580000Y-128450000D02*
X102810000Y-128450000D01*
X100190000Y-128450000D02*
X100420000Y-128450000D01*
X102580000Y-128570000D02*
X102810000Y-128570000D01*
X100190000Y-128570000D02*
X100420000Y-128570000D01*
X100190000Y-123770000D02*
X102810000Y-123770000D01*
X100190000Y-128690000D02*
X102810000Y-128690000D01*
X102810000Y-128690000D02*
X102810000Y-123770000D01*
X100190000Y-128690000D02*
X100190000Y-123770000D01*
%TO.C,R8*%
X83320000Y-135500000D02*
X84270000Y-135500000D01*
X89060000Y-135500000D02*
X88110000Y-135500000D01*
X84270000Y-136420000D02*
X88110000Y-136420000D01*
X84270000Y-134580000D02*
X84270000Y-136420000D01*
X88110000Y-134580000D02*
X84270000Y-134580000D01*
X88110000Y-136420000D02*
X88110000Y-134580000D01*
%TO.C,R3*%
X90370000Y-97540000D02*
X90040000Y-97540000D01*
X90370000Y-104080000D02*
X90370000Y-97540000D01*
X90040000Y-104080000D02*
X90370000Y-104080000D01*
X87630000Y-97540000D02*
X87960000Y-97540000D01*
X87630000Y-104080000D02*
X87630000Y-97540000D01*
X87960000Y-104080000D02*
X87630000Y-104080000D01*
%TO.C,TR1*%
X74533334Y-91380000D02*
X69300001Y-91380000D01*
X74533334Y-91740000D02*
X74533334Y-91380000D01*
X79766666Y-91740000D02*
X74533334Y-91740000D01*
X79766666Y-91380000D02*
X79766666Y-91740000D01*
X85000000Y-91380000D02*
X79766666Y-91380000D01*
X84999999Y-109620000D02*
X85000000Y-91380000D01*
X69300000Y-109620000D02*
X84999999Y-109620000D01*
X69300001Y-91380000D02*
X69300000Y-109620000D01*
%TO.C,R7*%
D11*
X51643333Y-107082380D02*
X51310000Y-106606190D01*
X51071904Y-107082380D02*
X51071904Y-106082380D01*
X51452857Y-106082380D01*
X51548095Y-106130000D01*
X51595714Y-106177619D01*
X51643333Y-106272857D01*
X51643333Y-106415714D01*
X51595714Y-106510952D01*
X51548095Y-106558571D01*
X51452857Y-106606190D01*
X51071904Y-106606190D01*
X51976666Y-106082380D02*
X52643333Y-106082380D01*
X52214761Y-107082380D01*
%TO.C,C12*%
X52357142Y-98857142D02*
X52309523Y-98904761D01*
X52166666Y-98952380D01*
X52071428Y-98952380D01*
X51928571Y-98904761D01*
X51833333Y-98809523D01*
X51785714Y-98714285D01*
X51738095Y-98523809D01*
X51738095Y-98380952D01*
X51785714Y-98190476D01*
X51833333Y-98095238D01*
X51928571Y-98000000D01*
X52071428Y-97952380D01*
X52166666Y-97952380D01*
X52309523Y-98000000D01*
X52357142Y-98047619D01*
X53309523Y-98952380D02*
X52738095Y-98952380D01*
X53023809Y-98952380D02*
X53023809Y-97952380D01*
X52928571Y-98095238D01*
X52833333Y-98190476D01*
X52738095Y-98238095D01*
X53690476Y-98047619D02*
X53738095Y-98000000D01*
X53833333Y-97952380D01*
X54071428Y-97952380D01*
X54166666Y-98000000D01*
X54214285Y-98047619D01*
X54261904Y-98142857D01*
X54261904Y-98238095D01*
X54214285Y-98380952D01*
X53642857Y-98952380D01*
X54261904Y-98952380D01*
%TO.C,U2*%
X60928095Y-106782380D02*
X60928095Y-107591904D01*
X60975714Y-107687142D01*
X61023333Y-107734761D01*
X61118571Y-107782380D01*
X61309047Y-107782380D01*
X61404285Y-107734761D01*
X61451904Y-107687142D01*
X61499523Y-107591904D01*
X61499523Y-106782380D01*
X61928095Y-106877619D02*
X61975714Y-106830000D01*
X62070952Y-106782380D01*
X62309047Y-106782380D01*
X62404285Y-106830000D01*
X62451904Y-106877619D01*
X62499523Y-106972857D01*
X62499523Y-107068095D01*
X62451904Y-107210952D01*
X61880476Y-107782380D01*
X62499523Y-107782380D01*
%TO.C,C11*%
X52607142Y-88807142D02*
X52559523Y-88854761D01*
X52416666Y-88902380D01*
X52321428Y-88902380D01*
X52178571Y-88854761D01*
X52083333Y-88759523D01*
X52035714Y-88664285D01*
X51988095Y-88473809D01*
X51988095Y-88330952D01*
X52035714Y-88140476D01*
X52083333Y-88045238D01*
X52178571Y-87950000D01*
X52321428Y-87902380D01*
X52416666Y-87902380D01*
X52559523Y-87950000D01*
X52607142Y-87997619D01*
X53559523Y-88902380D02*
X52988095Y-88902380D01*
X53273809Y-88902380D02*
X53273809Y-87902380D01*
X53178571Y-88045238D01*
X53083333Y-88140476D01*
X52988095Y-88188095D01*
X54511904Y-88902380D02*
X53940476Y-88902380D01*
X54226190Y-88902380D02*
X54226190Y-87902380D01*
X54130952Y-88045238D01*
X54035714Y-88140476D01*
X53940476Y-88188095D01*
%TO.C,PTC1*%
X100032380Y-117579047D02*
X99032380Y-117579047D01*
X99032380Y-117198095D01*
X99080000Y-117102857D01*
X99127619Y-117055238D01*
X99222857Y-117007619D01*
X99365714Y-117007619D01*
X99460952Y-117055238D01*
X99508571Y-117102857D01*
X99556190Y-117198095D01*
X99556190Y-117579047D01*
X99032380Y-116721904D02*
X99032380Y-116150476D01*
X100032380Y-116436190D02*
X99032380Y-116436190D01*
X99937142Y-115245714D02*
X99984761Y-115293333D01*
X100032380Y-115436190D01*
X100032380Y-115531428D01*
X99984761Y-115674285D01*
X99889523Y-115769523D01*
X99794285Y-115817142D01*
X99603809Y-115864761D01*
X99460952Y-115864761D01*
X99270476Y-115817142D01*
X99175238Y-115769523D01*
X99080000Y-115674285D01*
X99032380Y-115531428D01*
X99032380Y-115436190D01*
X99080000Y-115293333D01*
X99127619Y-115245714D01*
X100032380Y-114293333D02*
X100032380Y-114864761D01*
X100032380Y-114579047D02*
X99032380Y-114579047D01*
X99175238Y-114674285D01*
X99270476Y-114769523D01*
X99318095Y-114864761D01*
%TO.C,BT1*%
X46714285Y-112598571D02*
X46857142Y-112646190D01*
X46904761Y-112693809D01*
X46952380Y-112789047D01*
X46952380Y-112931904D01*
X46904761Y-113027142D01*
X46857142Y-113074761D01*
X46761904Y-113122380D01*
X46380952Y-113122380D01*
X46380952Y-112122380D01*
X46714285Y-112122380D01*
X46809523Y-112170000D01*
X46857142Y-112217619D01*
X46904761Y-112312857D01*
X46904761Y-112408095D01*
X46857142Y-112503333D01*
X46809523Y-112550952D01*
X46714285Y-112598571D01*
X46380952Y-112598571D01*
X47238095Y-112122380D02*
X47809523Y-112122380D01*
X47523809Y-113122380D02*
X47523809Y-112122380D01*
X48666666Y-113122380D02*
X48095238Y-113122380D01*
X48380952Y-113122380D02*
X48380952Y-112122380D01*
X48285714Y-112265238D01*
X48190476Y-112360476D01*
X48095238Y-112408095D01*
%TO.C,J2*%
X101214285Y-101947619D02*
X101261904Y-101900000D01*
X101357142Y-101852380D01*
X101595238Y-101852380D01*
X101690476Y-101900000D01*
X101738095Y-101947619D01*
X101785714Y-102042857D01*
X101785714Y-102138095D01*
X101738095Y-102280952D01*
X101166666Y-102852380D01*
X101785714Y-102852380D01*
%TO.C,J3*%
X101166666Y-93852380D02*
X101785714Y-93852380D01*
X101452380Y-94233333D01*
X101595238Y-94233333D01*
X101690476Y-94280952D01*
X101738095Y-94328571D01*
X101785714Y-94423809D01*
X101785714Y-94661904D01*
X101738095Y-94757142D01*
X101690476Y-94804761D01*
X101595238Y-94852380D01*
X101309523Y-94852380D01*
X101214285Y-94804761D01*
X101166666Y-94757142D01*
%TO.C,J4*%
X101785714Y-110352380D02*
X101214285Y-110352380D01*
X101500000Y-110352380D02*
X101500000Y-109352380D01*
X101404761Y-109495238D01*
X101309523Y-109590476D01*
X101214285Y-109638095D01*
%TO.C,C1*%
X55407142Y-116416666D02*
X55454761Y-116464285D01*
X55502380Y-116607142D01*
X55502380Y-116702380D01*
X55454761Y-116845238D01*
X55359523Y-116940476D01*
X55264285Y-116988095D01*
X55073809Y-117035714D01*
X54930952Y-117035714D01*
X54740476Y-116988095D01*
X54645238Y-116940476D01*
X54550000Y-116845238D01*
X54502380Y-116702380D01*
X54502380Y-116607142D01*
X54550000Y-116464285D01*
X54597619Y-116416666D01*
X55502380Y-115464285D02*
X55502380Y-116035714D01*
X55502380Y-115750000D02*
X54502380Y-115750000D01*
X54645238Y-115845238D01*
X54740476Y-115940476D01*
X54788095Y-116035714D01*
%TO.C,C2*%
X50307142Y-121916666D02*
X50354761Y-121964285D01*
X50402380Y-122107142D01*
X50402380Y-122202380D01*
X50354761Y-122345238D01*
X50259523Y-122440476D01*
X50164285Y-122488095D01*
X49973809Y-122535714D01*
X49830952Y-122535714D01*
X49640476Y-122488095D01*
X49545238Y-122440476D01*
X49450000Y-122345238D01*
X49402380Y-122202380D01*
X49402380Y-122107142D01*
X49450000Y-121964285D01*
X49497619Y-121916666D01*
X49497619Y-121535714D02*
X49450000Y-121488095D01*
X49402380Y-121392857D01*
X49402380Y-121154761D01*
X49450000Y-121059523D01*
X49497619Y-121011904D01*
X49592857Y-120964285D01*
X49688095Y-120964285D01*
X49830952Y-121011904D01*
X50402380Y-121583333D01*
X50402380Y-120964285D01*
%TO.C,C3*%
X96083333Y-112307142D02*
X96035714Y-112354761D01*
X95892857Y-112402380D01*
X95797619Y-112402380D01*
X95654761Y-112354761D01*
X95559523Y-112259523D01*
X95511904Y-112164285D01*
X95464285Y-111973809D01*
X95464285Y-111830952D01*
X95511904Y-111640476D01*
X95559523Y-111545238D01*
X95654761Y-111450000D01*
X95797619Y-111402380D01*
X95892857Y-111402380D01*
X96035714Y-111450000D01*
X96083333Y-111497619D01*
X96416666Y-111402380D02*
X97035714Y-111402380D01*
X96702380Y-111783333D01*
X96845238Y-111783333D01*
X96940476Y-111830952D01*
X96988095Y-111878571D01*
X97035714Y-111973809D01*
X97035714Y-112211904D01*
X96988095Y-112307142D01*
X96940476Y-112354761D01*
X96845238Y-112402380D01*
X96559523Y-112402380D01*
X96464285Y-112354761D01*
X96416666Y-112307142D01*
%TO.C,C4*%
X50307142Y-126916666D02*
X50354761Y-126964285D01*
X50402380Y-127107142D01*
X50402380Y-127202380D01*
X50354761Y-127345238D01*
X50259523Y-127440476D01*
X50164285Y-127488095D01*
X49973809Y-127535714D01*
X49830952Y-127535714D01*
X49640476Y-127488095D01*
X49545238Y-127440476D01*
X49450000Y-127345238D01*
X49402380Y-127202380D01*
X49402380Y-127107142D01*
X49450000Y-126964285D01*
X49497619Y-126916666D01*
X49735714Y-126059523D02*
X50402380Y-126059523D01*
X49354761Y-126297619D02*
X50069047Y-126535714D01*
X50069047Y-125916666D01*
%TO.C,C7*%
X62357142Y-116416666D02*
X62404761Y-116464285D01*
X62452380Y-116607142D01*
X62452380Y-116702380D01*
X62404761Y-116845238D01*
X62309523Y-116940476D01*
X62214285Y-116988095D01*
X62023809Y-117035714D01*
X61880952Y-117035714D01*
X61690476Y-116988095D01*
X61595238Y-116940476D01*
X61500000Y-116845238D01*
X61452380Y-116702380D01*
X61452380Y-116607142D01*
X61500000Y-116464285D01*
X61547619Y-116416666D01*
X61452380Y-116083333D02*
X61452380Y-115416666D01*
X62452380Y-115845238D01*
%TO.C,C8*%
X61907142Y-121916666D02*
X61954761Y-121964285D01*
X62002380Y-122107142D01*
X62002380Y-122202380D01*
X61954761Y-122345238D01*
X61859523Y-122440476D01*
X61764285Y-122488095D01*
X61573809Y-122535714D01*
X61430952Y-122535714D01*
X61240476Y-122488095D01*
X61145238Y-122440476D01*
X61050000Y-122345238D01*
X61002380Y-122202380D01*
X61002380Y-122107142D01*
X61050000Y-121964285D01*
X61097619Y-121916666D01*
X61430952Y-121345238D02*
X61383333Y-121440476D01*
X61335714Y-121488095D01*
X61240476Y-121535714D01*
X61192857Y-121535714D01*
X61097619Y-121488095D01*
X61050000Y-121440476D01*
X61002380Y-121345238D01*
X61002380Y-121154761D01*
X61050000Y-121059523D01*
X61097619Y-121011904D01*
X61192857Y-120964285D01*
X61240476Y-120964285D01*
X61335714Y-121011904D01*
X61383333Y-121059523D01*
X61430952Y-121154761D01*
X61430952Y-121345238D01*
X61478571Y-121440476D01*
X61526190Y-121488095D01*
X61621428Y-121535714D01*
X61811904Y-121535714D01*
X61907142Y-121488095D01*
X61954761Y-121440476D01*
X62002380Y-121345238D01*
X62002380Y-121154761D01*
X61954761Y-121059523D01*
X61907142Y-121011904D01*
X61811904Y-120964285D01*
X61621428Y-120964285D01*
X61526190Y-121011904D01*
X61478571Y-121059523D01*
X61430952Y-121154761D01*
%TO.C,C9*%
X96083333Y-117307142D02*
X96035714Y-117354761D01*
X95892857Y-117402380D01*
X95797619Y-117402380D01*
X95654761Y-117354761D01*
X95559523Y-117259523D01*
X95511904Y-117164285D01*
X95464285Y-116973809D01*
X95464285Y-116830952D01*
X95511904Y-116640476D01*
X95559523Y-116545238D01*
X95654761Y-116450000D01*
X95797619Y-116402380D01*
X95892857Y-116402380D01*
X96035714Y-116450000D01*
X96083333Y-116497619D01*
X96559523Y-117402380D02*
X96750000Y-117402380D01*
X96845238Y-117354761D01*
X96892857Y-117307142D01*
X96988095Y-117164285D01*
X97035714Y-116973809D01*
X97035714Y-116592857D01*
X96988095Y-116497619D01*
X96940476Y-116450000D01*
X96845238Y-116402380D01*
X96654761Y-116402380D01*
X96559523Y-116450000D01*
X96511904Y-116497619D01*
X96464285Y-116592857D01*
X96464285Y-116830952D01*
X96511904Y-116926190D01*
X96559523Y-116973809D01*
X96654761Y-117021428D01*
X96845238Y-117021428D01*
X96940476Y-116973809D01*
X96988095Y-116926190D01*
X97035714Y-116830952D01*
%TO.C,C10*%
X92307142Y-127392857D02*
X92354761Y-127440476D01*
X92402380Y-127583333D01*
X92402380Y-127678571D01*
X92354761Y-127821428D01*
X92259523Y-127916666D01*
X92164285Y-127964285D01*
X91973809Y-128011904D01*
X91830952Y-128011904D01*
X91640476Y-127964285D01*
X91545238Y-127916666D01*
X91450000Y-127821428D01*
X91402380Y-127678571D01*
X91402380Y-127583333D01*
X91450000Y-127440476D01*
X91497619Y-127392857D01*
X92402380Y-126440476D02*
X92402380Y-127011904D01*
X92402380Y-126726190D02*
X91402380Y-126726190D01*
X91545238Y-126821428D01*
X91640476Y-126916666D01*
X91688095Y-127011904D01*
X91402380Y-125821428D02*
X91402380Y-125726190D01*
X91450000Y-125630952D01*
X91497619Y-125583333D01*
X91592857Y-125535714D01*
X91783333Y-125488095D01*
X92021428Y-125488095D01*
X92211904Y-125535714D01*
X92307142Y-125583333D01*
X92354761Y-125630952D01*
X92402380Y-125726190D01*
X92402380Y-125821428D01*
X92354761Y-125916666D01*
X92307142Y-125964285D01*
X92211904Y-126011904D01*
X92021428Y-126059523D01*
X91783333Y-126059523D01*
X91592857Y-126011904D01*
X91497619Y-125964285D01*
X91450000Y-125916666D01*
X91402380Y-125821428D01*
%TO.C,D1*%
X70951904Y-112332380D02*
X70951904Y-111332380D01*
X71190000Y-111332380D01*
X71332857Y-111380000D01*
X71428095Y-111475238D01*
X71475714Y-111570476D01*
X71523333Y-111760952D01*
X71523333Y-111903809D01*
X71475714Y-112094285D01*
X71428095Y-112189523D01*
X71332857Y-112284761D01*
X71190000Y-112332380D01*
X70951904Y-112332380D01*
X72475714Y-112332380D02*
X71904285Y-112332380D01*
X72190000Y-112332380D02*
X72190000Y-111332380D01*
X72094761Y-111475238D01*
X71999523Y-111570476D01*
X71904285Y-111618095D01*
X67618095Y-112652380D02*
X67618095Y-111652380D01*
X68189523Y-112652380D02*
X67760952Y-112080952D01*
X68189523Y-111652380D02*
X67618095Y-112223809D01*
%TO.C,L1*%
X71458333Y-118657380D02*
X70982142Y-118657380D01*
X70982142Y-117657380D01*
X72315476Y-118657380D02*
X71744047Y-118657380D01*
X72029761Y-118657380D02*
X72029761Y-117657380D01*
X71934523Y-117800238D01*
X71839285Y-117895476D01*
X71744047Y-117943095D01*
%TO.C,R1*%
X86643333Y-119952380D02*
X86310000Y-119476190D01*
X86071904Y-119952380D02*
X86071904Y-118952380D01*
X86452857Y-118952380D01*
X86548095Y-119000000D01*
X86595714Y-119047619D01*
X86643333Y-119142857D01*
X86643333Y-119285714D01*
X86595714Y-119380952D01*
X86548095Y-119428571D01*
X86452857Y-119476190D01*
X86071904Y-119476190D01*
X87595714Y-119952380D02*
X87024285Y-119952380D01*
X87310000Y-119952380D02*
X87310000Y-118952380D01*
X87214761Y-119095238D01*
X87119523Y-119190476D01*
X87024285Y-119238095D01*
%TO.C,R2*%
X86833333Y-114952380D02*
X86500000Y-114476190D01*
X86261904Y-114952380D02*
X86261904Y-113952380D01*
X86642857Y-113952380D01*
X86738095Y-114000000D01*
X86785714Y-114047619D01*
X86833333Y-114142857D01*
X86833333Y-114285714D01*
X86785714Y-114380952D01*
X86738095Y-114428571D01*
X86642857Y-114476190D01*
X86261904Y-114476190D01*
X87214285Y-114047619D02*
X87261904Y-114000000D01*
X87357142Y-113952380D01*
X87595238Y-113952380D01*
X87690476Y-114000000D01*
X87738095Y-114047619D01*
X87785714Y-114142857D01*
X87785714Y-114238095D01*
X87738095Y-114380952D01*
X87166666Y-114952380D01*
X87785714Y-114952380D01*
%TO.C,R5*%
X84452380Y-127476666D02*
X83976190Y-127810000D01*
X84452380Y-128048095D02*
X83452380Y-128048095D01*
X83452380Y-127667142D01*
X83500000Y-127571904D01*
X83547619Y-127524285D01*
X83642857Y-127476666D01*
X83785714Y-127476666D01*
X83880952Y-127524285D01*
X83928571Y-127571904D01*
X83976190Y-127667142D01*
X83976190Y-128048095D01*
X83452380Y-126571904D02*
X83452380Y-127048095D01*
X83928571Y-127095714D01*
X83880952Y-127048095D01*
X83833333Y-126952857D01*
X83833333Y-126714761D01*
X83880952Y-126619523D01*
X83928571Y-126571904D01*
X84023809Y-126524285D01*
X84261904Y-126524285D01*
X84357142Y-126571904D01*
X84404761Y-126619523D01*
X84452380Y-126714761D01*
X84452380Y-126952857D01*
X84404761Y-127048095D01*
X84357142Y-127095714D01*
%TO.C,R6*%
X88952380Y-127286666D02*
X88476190Y-127620000D01*
X88952380Y-127858095D02*
X87952380Y-127858095D01*
X87952380Y-127477142D01*
X88000000Y-127381904D01*
X88047619Y-127334285D01*
X88142857Y-127286666D01*
X88285714Y-127286666D01*
X88380952Y-127334285D01*
X88428571Y-127381904D01*
X88476190Y-127477142D01*
X88476190Y-127858095D01*
X87952380Y-126429523D02*
X87952380Y-126620000D01*
X88000000Y-126715238D01*
X88047619Y-126762857D01*
X88190476Y-126858095D01*
X88380952Y-126905714D01*
X88761904Y-126905714D01*
X88857142Y-126858095D01*
X88904761Y-126810476D01*
X88952380Y-126715238D01*
X88952380Y-126524761D01*
X88904761Y-126429523D01*
X88857142Y-126381904D01*
X88761904Y-126334285D01*
X88523809Y-126334285D01*
X88428571Y-126381904D01*
X88380952Y-126429523D01*
X88333333Y-126524761D01*
X88333333Y-126715238D01*
X88380952Y-126810476D01*
X88428571Y-126858095D01*
X88523809Y-126905714D01*
%TO.C,SW1*%
X49964761Y-124833333D02*
X50012380Y-124690476D01*
X50012380Y-124452380D01*
X49964761Y-124357142D01*
X49917142Y-124309523D01*
X49821904Y-124261904D01*
X49726666Y-124261904D01*
X49631428Y-124309523D01*
X49583809Y-124357142D01*
X49536190Y-124452380D01*
X49488571Y-124642857D01*
X49440952Y-124738095D01*
X49393333Y-124785714D01*
X49298095Y-124833333D01*
X49202857Y-124833333D01*
X49107619Y-124785714D01*
X49060000Y-124738095D01*
X49012380Y-124642857D01*
X49012380Y-124404761D01*
X49060000Y-124261904D01*
X49012380Y-123928571D02*
X50012380Y-123690476D01*
X49298095Y-123500000D01*
X50012380Y-123309523D01*
X49012380Y-123071428D01*
X50012380Y-122166666D02*
X50012380Y-122738095D01*
X50012380Y-122452380D02*
X49012380Y-122452380D01*
X49155238Y-122547619D01*
X49250476Y-122642857D01*
X49298095Y-122738095D01*
%TO.C,U1*%
X70615595Y-124230380D02*
X70615595Y-125039904D01*
X70663214Y-125135142D01*
X70710833Y-125182761D01*
X70806071Y-125230380D01*
X70996547Y-125230380D01*
X71091785Y-125182761D01*
X71139404Y-125135142D01*
X71187023Y-125039904D01*
X71187023Y-124230380D01*
X72187023Y-125230380D02*
X71615595Y-125230380D01*
X71901309Y-125230380D02*
X71901309Y-124230380D01*
X71806071Y-124373238D01*
X71710833Y-124468476D01*
X71615595Y-124516095D01*
%TO.C,J1*%
X44452380Y-96833333D02*
X45166666Y-96833333D01*
X45309523Y-96880952D01*
X45404761Y-96976190D01*
X45452380Y-97119047D01*
X45452380Y-97214285D01*
X45452380Y-95833333D02*
X45452380Y-96404761D01*
X45452380Y-96119047D02*
X44452380Y-96119047D01*
X44595238Y-96214285D01*
X44690476Y-96309523D01*
X44738095Y-96404761D01*
%TO.C,J5*%
X44452380Y-102358333D02*
X45166666Y-102358333D01*
X45309523Y-102405952D01*
X45404761Y-102501190D01*
X45452380Y-102644047D01*
X45452380Y-102739285D01*
X44452380Y-101405952D02*
X44452380Y-101882142D01*
X44928571Y-101929761D01*
X44880952Y-101882142D01*
X44833333Y-101786904D01*
X44833333Y-101548809D01*
X44880952Y-101453571D01*
X44928571Y-101405952D01*
X45023809Y-101358333D01*
X45261904Y-101358333D01*
X45357142Y-101405952D01*
X45404761Y-101453571D01*
X45452380Y-101548809D01*
X45452380Y-101786904D01*
X45404761Y-101882142D01*
X45357142Y-101929761D01*
%TO.C,RV1*%
X57122380Y-91595238D02*
X56646190Y-91928571D01*
X57122380Y-92166666D02*
X56122380Y-92166666D01*
X56122380Y-91785714D01*
X56170000Y-91690476D01*
X56217619Y-91642857D01*
X56312857Y-91595238D01*
X56455714Y-91595238D01*
X56550952Y-91642857D01*
X56598571Y-91690476D01*
X56646190Y-91785714D01*
X56646190Y-92166666D01*
X56122380Y-91309523D02*
X57122380Y-90976190D01*
X56122380Y-90642857D01*
X57122380Y-89785714D02*
X57122380Y-90357142D01*
X57122380Y-90071428D02*
X56122380Y-90071428D01*
X56265238Y-90166666D01*
X56360476Y-90261904D01*
X56408095Y-90357142D01*
%TO.C,D2*%
X99642380Y-126968095D02*
X98642380Y-126968095D01*
X98642380Y-126730000D01*
X98690000Y-126587142D01*
X98785238Y-126491904D01*
X98880476Y-126444285D01*
X99070952Y-126396666D01*
X99213809Y-126396666D01*
X99404285Y-126444285D01*
X99499523Y-126491904D01*
X99594761Y-126587142D01*
X99642380Y-126730000D01*
X99642380Y-126968095D01*
X98737619Y-126015714D02*
X98690000Y-125968095D01*
X98642380Y-125872857D01*
X98642380Y-125634761D01*
X98690000Y-125539523D01*
X98737619Y-125491904D01*
X98832857Y-125444285D01*
X98928095Y-125444285D01*
X99070952Y-125491904D01*
X99642380Y-126063333D01*
X99642380Y-125444285D01*
%TO.C,R8*%
X86023333Y-137872380D02*
X85690000Y-137396190D01*
X85451904Y-137872380D02*
X85451904Y-136872380D01*
X85832857Y-136872380D01*
X85928095Y-136920000D01*
X85975714Y-136967619D01*
X86023333Y-137062857D01*
X86023333Y-137205714D01*
X85975714Y-137300952D01*
X85928095Y-137348571D01*
X85832857Y-137396190D01*
X85451904Y-137396190D01*
X86594761Y-137300952D02*
X86499523Y-137253333D01*
X86451904Y-137205714D01*
X86404285Y-137110476D01*
X86404285Y-137062857D01*
X86451904Y-136967619D01*
X86499523Y-136920000D01*
X86594761Y-136872380D01*
X86785238Y-136872380D01*
X86880476Y-136920000D01*
X86928095Y-136967619D01*
X86975714Y-137062857D01*
X86975714Y-137110476D01*
X86928095Y-137205714D01*
X86880476Y-137253333D01*
X86785238Y-137300952D01*
X86594761Y-137300952D01*
X86499523Y-137348571D01*
X86451904Y-137396190D01*
X86404285Y-137491428D01*
X86404285Y-137681904D01*
X86451904Y-137777142D01*
X86499523Y-137824761D01*
X86594761Y-137872380D01*
X86785238Y-137872380D01*
X86880476Y-137824761D01*
X86928095Y-137777142D01*
X86975714Y-137681904D01*
X86975714Y-137491428D01*
X86928095Y-137396190D01*
X86880476Y-137348571D01*
X86785238Y-137300952D01*
%TO.C,R3*%
X87082380Y-100976666D02*
X86606190Y-101310000D01*
X87082380Y-101548095D02*
X86082380Y-101548095D01*
X86082380Y-101167142D01*
X86130000Y-101071904D01*
X86177619Y-101024285D01*
X86272857Y-100976666D01*
X86415714Y-100976666D01*
X86510952Y-101024285D01*
X86558571Y-101071904D01*
X86606190Y-101167142D01*
X86606190Y-101548095D01*
X86082380Y-100643333D02*
X86082380Y-100024285D01*
X86463333Y-100357619D01*
X86463333Y-100214761D01*
X86510952Y-100119523D01*
X86558571Y-100071904D01*
X86653809Y-100024285D01*
X86891904Y-100024285D01*
X86987142Y-100071904D01*
X87034761Y-100119523D01*
X87082380Y-100214761D01*
X87082380Y-100500476D01*
X87034761Y-100595714D01*
X86987142Y-100643333D01*
%TO.C,TR1*%
X75888095Y-89832380D02*
X76459523Y-89832380D01*
X76173809Y-90832380D02*
X76173809Y-89832380D01*
X77364285Y-90832380D02*
X77030952Y-90356190D01*
X76792857Y-90832380D02*
X76792857Y-89832380D01*
X77173809Y-89832380D01*
X77269047Y-89880000D01*
X77316666Y-89927619D01*
X77364285Y-90022857D01*
X77364285Y-90165714D01*
X77316666Y-90260952D01*
X77269047Y-90308571D01*
X77173809Y-90356190D01*
X76792857Y-90356190D01*
X78316666Y-90832380D02*
X77745238Y-90832380D01*
X78030952Y-90832380D02*
X78030952Y-89832380D01*
X77935714Y-89975238D01*
X77840476Y-90070476D01*
X77745238Y-90118095D01*
%TD*%
M02*
