%FSLAX45Y45*%
G04 Gerber Fmt 4.5, Leading zero omitted, Abs format (unit mm)*
G04 Created by KiCad (PCBNEW 5.1.10-88a1d61d58~88~ubuntu20.04.1) date 2021-06-21 05:40:55*
%MOMM*%
%LPD*%
G01*
G04 APERTURE LIST*
%TA.AperFunction,Profile*%
%ADD10C,0.050000*%
%TD*%
%ADD11C,0.200000*%
%ADD12C,0.300000*%
G04 APERTURE END LIST*
D10*
X4100000Y-8500000D02*
X11100000Y-8500000D01*
X4100000Y-13950000D02*
X4100000Y-8500000D01*
X11100000Y-13950000D02*
X4100000Y-13950000D01*
X11100000Y-8500000D02*
X11100000Y-13950000D01*
D11*
X7090562Y-12740612D02*
X7109437Y-12759487D01*
X7109437Y-12740612D02*
X7090562Y-12759487D01*
X7090562Y-12816112D02*
X7109437Y-12834987D01*
X7109437Y-12816112D02*
X7090562Y-12834987D01*
X7166062Y-12740612D02*
X7184937Y-12759487D01*
X7184937Y-12740612D02*
X7166062Y-12759487D01*
X7166062Y-12816112D02*
X7184937Y-12834987D01*
X7184937Y-12816112D02*
X7166062Y-12834987D01*
X4790000Y-12250000D02*
G75*
G03*
X4790000Y-12250000I-40000J0D01*
G01*
X4790000Y-12450000D02*
G75*
G03*
X4790000Y-12450000I-40000J0D01*
G01*
X5290000Y-11500000D02*
G75*
G03*
X5290000Y-11500000I-40000J0D01*
G01*
X5290000Y-11750000D02*
G75*
G03*
X5290000Y-11750000I-40000J0D01*
G01*
X5290000Y-12050000D02*
G75*
G03*
X5290000Y-12050000I-40000J0D01*
G01*
X5290000Y-12300000D02*
G75*
G03*
X5290000Y-12300000I-40000J0D01*
G01*
X5290000Y-12550000D02*
G75*
G03*
X5290000Y-12550000I-40000J0D01*
G01*
X5290000Y-12800000D02*
G75*
G03*
X5290000Y-12800000I-40000J0D01*
G01*
X5940000Y-11500000D02*
G75*
G03*
X5940000Y-11500000I-40000J0D01*
G01*
X5940000Y-11750000D02*
G75*
G03*
X5940000Y-11750000I-40000J0D01*
G01*
X5940000Y-12050000D02*
G75*
G03*
X5940000Y-12050000I-40000J0D01*
G01*
X5940000Y-12300000D02*
G75*
G03*
X5940000Y-12300000I-40000J0D01*
G01*
X6828000Y-11400000D02*
G75*
G03*
X6828000Y-11400000I-40000J0D01*
G01*
X7140000Y-10600000D02*
G75*
G03*
X7140000Y-10600000I-40000J0D01*
G01*
X7190000Y-9100000D02*
G75*
G03*
X7190000Y-9100000I-40000J0D01*
G01*
X7390000Y-10600000D02*
G75*
G03*
X7390000Y-10600000I-40000J0D01*
G01*
X7440000Y-9100000D02*
G75*
G03*
X7440000Y-9100000I-40000J0D01*
G01*
X7590000Y-11400000D02*
G75*
G03*
X7590000Y-11400000I-40000J0D01*
G01*
X8040000Y-9100000D02*
G75*
G03*
X8040000Y-9100000I-40000J0D01*
G01*
X8040000Y-9862000D02*
G75*
G03*
X8040000Y-9862000I-40000J0D01*
G01*
X8040000Y-10200000D02*
G75*
G03*
X8040000Y-10200000I-40000J0D01*
G01*
X8040000Y-10962000D02*
G75*
G03*
X8040000Y-10962000I-40000J0D01*
G01*
X8328000Y-11450000D02*
G75*
G03*
X8328000Y-11450000I-40000J0D01*
G01*
X8340000Y-11950000D02*
G75*
G03*
X8340000Y-11950000I-40000J0D01*
G01*
X8440000Y-12350000D02*
G75*
G03*
X8440000Y-12350000I-40000J0D01*
G01*
X8440000Y-13112000D02*
G75*
G03*
X8440000Y-13112000I-40000J0D01*
G01*
X8890000Y-12350000D02*
G75*
G03*
X8890000Y-12350000I-40000J0D01*
G01*
X8890000Y-13112000D02*
G75*
G03*
X8890000Y-13112000I-40000J0D01*
G01*
X9090000Y-11450000D02*
G75*
G03*
X9090000Y-11450000I-40000J0D01*
G01*
X9102000Y-11950000D02*
G75*
G03*
X9102000Y-11950000I-40000J0D01*
G01*
X9490000Y-12550000D02*
G75*
G03*
X9490000Y-12550000I-40000J0D01*
G01*
X9490000Y-12800000D02*
G75*
G03*
X9490000Y-12800000I-40000J0D01*
G01*
X9540000Y-11450000D02*
G75*
G03*
X9540000Y-11450000I-40000J0D01*
G01*
X9540000Y-11950000D02*
G75*
G03*
X9540000Y-11950000I-40000J0D01*
G01*
X9790000Y-11450000D02*
G75*
G03*
X9790000Y-11450000I-40000J0D01*
G01*
X9790000Y-11950000D02*
G75*
G03*
X9790000Y-11950000I-40000J0D01*
G01*
X10150000Y-12351000D02*
X10150000Y-12441000D01*
X10105000Y-12396000D02*
X10195000Y-12396000D01*
X10150000Y-12605000D02*
X10150000Y-12695000D01*
X10105000Y-12650000D02*
X10195000Y-12650000D01*
X4785356Y-11535356D02*
X4785356Y-11464644D01*
X4714644Y-11464644D01*
X4714644Y-11535356D01*
X4785356Y-11535356D01*
X4785356Y-11789356D02*
X4785356Y-11718644D01*
X4714644Y-11718644D01*
X4714644Y-11789356D01*
X4785356Y-11789356D01*
X6562856Y-12167856D02*
X6562856Y-12097144D01*
X6492144Y-12097144D01*
X6492144Y-12167856D01*
X6562856Y-12167856D01*
X7832856Y-12167856D02*
X7832856Y-12097144D01*
X7762144Y-12097144D01*
X7762144Y-12167856D01*
X7832856Y-12167856D01*
X5430000Y-9145000D02*
X5487000Y-9088000D01*
X5430000Y-9031000D01*
X5373000Y-9088000D01*
X5430000Y-9145000D01*
X5430000Y-9907000D02*
X5487000Y-9850000D01*
X5430000Y-9793000D01*
X5373000Y-9850000D01*
X5430000Y-9907000D01*
X5430000Y-10669000D02*
X5487000Y-10612000D01*
X5430000Y-10555000D01*
X5373000Y-10612000D01*
X5430000Y-10669000D01*
X6700000Y-9145000D02*
X6757000Y-9088000D01*
X6700000Y-9031000D01*
X6643000Y-9088000D01*
X6700000Y-9145000D01*
X6700000Y-9907000D02*
X6757000Y-9850000D01*
X6700000Y-9793000D01*
X6643000Y-9850000D01*
X6700000Y-9907000D01*
X6700000Y-10669000D02*
X6757000Y-10612000D01*
X6700000Y-10555000D01*
X6643000Y-10612000D01*
X6700000Y-10669000D01*
X4440000Y-8790000D02*
X4660000Y-9010000D01*
X4660000Y-8790000D02*
X4440000Y-9010000D01*
X4660000Y-8900000D02*
G75*
G03*
X4660000Y-8900000I-110000J0D01*
G01*
X4440000Y-13440000D02*
X4660000Y-13660000D01*
X4660000Y-13440000D02*
X4440000Y-13660000D01*
X4660000Y-13550000D02*
G75*
G03*
X4660000Y-13550000I-110000J0D01*
G01*
X4672500Y-9557500D02*
X4892500Y-9777500D01*
X4892500Y-9557500D02*
X4672500Y-9777500D01*
X4892500Y-9667500D02*
G75*
G03*
X4892500Y-9667500I-110000J0D01*
G01*
X4672500Y-10092500D02*
X4892500Y-10312500D01*
X4892500Y-10092500D02*
X4672500Y-10312500D01*
X4892500Y-10202500D02*
G75*
G03*
X4892500Y-10202500I-110000J0D01*
G01*
X10040000Y-9040000D02*
X10260000Y-9260000D01*
X10260000Y-9040000D02*
X10040000Y-9260000D01*
X10260000Y-9150000D02*
G75*
G03*
X10260000Y-9150000I-110000J0D01*
G01*
X10040000Y-9840000D02*
X10260000Y-10060000D01*
X10260000Y-9840000D02*
X10040000Y-10060000D01*
X10260000Y-9950000D02*
G75*
G03*
X10260000Y-9950000I-110000J0D01*
G01*
X10040000Y-10590000D02*
X10260000Y-10810000D01*
X10260000Y-10590000D02*
X10040000Y-10810000D01*
X10260000Y-10700000D02*
G75*
G03*
X10260000Y-10700000I-110000J0D01*
G01*
X10590000Y-8790000D02*
X10810000Y-9010000D01*
X10810000Y-8790000D02*
X10590000Y-9010000D01*
X10810000Y-8900000D02*
G75*
G03*
X10810000Y-8900000I-110000J0D01*
G01*
X10590000Y-13440000D02*
X10810000Y-13660000D01*
X10810000Y-13440000D02*
X10590000Y-13660000D01*
X10810000Y-13550000D02*
G75*
G03*
X10810000Y-13550000I-110000J0D01*
G01*
D12*
X4383928Y-14418214D02*
X4383928Y-14118214D01*
X4455357Y-14118214D01*
X4498214Y-14132500D01*
X4526786Y-14161071D01*
X4541071Y-14189643D01*
X4555357Y-14246786D01*
X4555357Y-14289643D01*
X4541071Y-14346786D01*
X4526786Y-14375357D01*
X4498214Y-14403929D01*
X4455357Y-14418214D01*
X4383928Y-14418214D01*
X4683928Y-14418214D02*
X4683928Y-14218214D01*
X4683928Y-14275357D02*
X4698214Y-14246786D01*
X4712500Y-14232500D01*
X4741071Y-14218214D01*
X4769643Y-14218214D01*
X4869643Y-14418214D02*
X4869643Y-14218214D01*
X4869643Y-14118214D02*
X4855357Y-14132500D01*
X4869643Y-14146786D01*
X4883928Y-14132500D01*
X4869643Y-14118214D01*
X4869643Y-14146786D01*
X5055357Y-14418214D02*
X5026786Y-14403929D01*
X5012500Y-14375357D01*
X5012500Y-14118214D01*
X5212500Y-14418214D02*
X5183928Y-14403929D01*
X5169643Y-14375357D01*
X5169643Y-14118214D01*
X5555357Y-14418214D02*
X5555357Y-14118214D01*
X5655357Y-14332500D01*
X5755357Y-14118214D01*
X5755357Y-14418214D01*
X6026786Y-14418214D02*
X6026786Y-14261071D01*
X6012500Y-14232500D01*
X5983928Y-14218214D01*
X5926786Y-14218214D01*
X5898214Y-14232500D01*
X6026786Y-14403929D02*
X5998214Y-14418214D01*
X5926786Y-14418214D01*
X5898214Y-14403929D01*
X5883928Y-14375357D01*
X5883928Y-14346786D01*
X5898214Y-14318214D01*
X5926786Y-14303929D01*
X5998214Y-14303929D01*
X6026786Y-14289643D01*
X6169643Y-14218214D02*
X6169643Y-14518214D01*
X6169643Y-14232500D02*
X6198214Y-14218214D01*
X6255357Y-14218214D01*
X6283928Y-14232500D01*
X6298214Y-14246786D01*
X6312500Y-14275357D01*
X6312500Y-14361071D01*
X6298214Y-14389643D01*
X6283928Y-14403929D01*
X6255357Y-14418214D01*
X6198214Y-14418214D01*
X6169643Y-14403929D01*
X6441071Y-14389643D02*
X6455357Y-14403929D01*
X6441071Y-14418214D01*
X6426786Y-14403929D01*
X6441071Y-14389643D01*
X6441071Y-14418214D01*
X6441071Y-14232500D02*
X6455357Y-14246786D01*
X6441071Y-14261071D01*
X6426786Y-14246786D01*
X6441071Y-14232500D01*
X6441071Y-14261071D01*
X4078625Y-14903063D02*
X4097500Y-14921938D01*
X4097500Y-14903063D02*
X4078625Y-14921938D01*
X4441071Y-14748214D02*
X4469643Y-14748214D01*
X4498214Y-14762500D01*
X4512500Y-14776786D01*
X4526786Y-14805357D01*
X4541071Y-14862500D01*
X4541071Y-14933929D01*
X4526786Y-14991071D01*
X4512500Y-15019643D01*
X4498214Y-15033929D01*
X4469643Y-15048214D01*
X4441071Y-15048214D01*
X4412500Y-15033929D01*
X4398214Y-15019643D01*
X4383928Y-14991071D01*
X4369643Y-14933929D01*
X4369643Y-14862500D01*
X4383928Y-14805357D01*
X4398214Y-14776786D01*
X4412500Y-14762500D01*
X4441071Y-14748214D01*
X4669643Y-15019643D02*
X4683928Y-15033929D01*
X4669643Y-15048214D01*
X4655357Y-15033929D01*
X4669643Y-15019643D01*
X4669643Y-15048214D01*
X4969643Y-15048214D02*
X4798214Y-15048214D01*
X4883928Y-15048214D02*
X4883928Y-14748214D01*
X4855357Y-14791071D01*
X4826786Y-14819643D01*
X4798214Y-14833929D01*
X5141071Y-14876786D02*
X5112500Y-14862500D01*
X5098214Y-14848214D01*
X5083928Y-14819643D01*
X5083928Y-14805357D01*
X5098214Y-14776786D01*
X5112500Y-14762500D01*
X5141071Y-14748214D01*
X5198214Y-14748214D01*
X5226786Y-14762500D01*
X5241071Y-14776786D01*
X5255357Y-14805357D01*
X5255357Y-14819643D01*
X5241071Y-14848214D01*
X5226786Y-14862500D01*
X5198214Y-14876786D01*
X5141071Y-14876786D01*
X5112500Y-14891071D01*
X5098214Y-14905357D01*
X5083928Y-14933929D01*
X5083928Y-14991071D01*
X5098214Y-15019643D01*
X5112500Y-15033929D01*
X5141071Y-15048214D01*
X5198214Y-15048214D01*
X5226786Y-15033929D01*
X5241071Y-15019643D01*
X5255357Y-14991071D01*
X5255357Y-14933929D01*
X5241071Y-14905357D01*
X5226786Y-14891071D01*
X5198214Y-14876786D01*
X5398214Y-15048214D02*
X5455357Y-15048214D01*
X5483928Y-15033929D01*
X5498214Y-15019643D01*
X5526786Y-14976786D01*
X5541071Y-14919643D01*
X5541071Y-14805357D01*
X5526786Y-14776786D01*
X5512500Y-14762500D01*
X5483928Y-14748214D01*
X5426786Y-14748214D01*
X5398214Y-14762500D01*
X5383928Y-14776786D01*
X5369643Y-14805357D01*
X5369643Y-14876786D01*
X5383928Y-14905357D01*
X5398214Y-14919643D01*
X5426786Y-14933929D01*
X5483928Y-14933929D01*
X5512500Y-14919643D01*
X5526786Y-14905357D01*
X5541071Y-14876786D01*
X5669643Y-15048214D02*
X5669643Y-14848214D01*
X5669643Y-14876786D02*
X5683928Y-14862500D01*
X5712500Y-14848214D01*
X5755357Y-14848214D01*
X5783928Y-14862500D01*
X5798214Y-14891071D01*
X5798214Y-15048214D01*
X5798214Y-14891071D02*
X5812500Y-14862500D01*
X5841071Y-14848214D01*
X5883928Y-14848214D01*
X5912500Y-14862500D01*
X5926786Y-14891071D01*
X5926786Y-15048214D01*
X6069643Y-15048214D02*
X6069643Y-14848214D01*
X6069643Y-14876786D02*
X6083928Y-14862500D01*
X6112500Y-14848214D01*
X6155357Y-14848214D01*
X6183928Y-14862500D01*
X6198214Y-14891071D01*
X6198214Y-15048214D01*
X6198214Y-14891071D02*
X6212500Y-14862500D01*
X6241071Y-14848214D01*
X6283928Y-14848214D01*
X6312500Y-14862500D01*
X6326786Y-14891071D01*
X6326786Y-15048214D01*
X6912500Y-14733929D02*
X6655357Y-15119643D01*
X7298214Y-14748214D02*
X7326786Y-14748214D01*
X7355357Y-14762500D01*
X7369643Y-14776786D01*
X7383928Y-14805357D01*
X7398214Y-14862500D01*
X7398214Y-14933929D01*
X7383928Y-14991071D01*
X7369643Y-15019643D01*
X7355357Y-15033929D01*
X7326786Y-15048214D01*
X7298214Y-15048214D01*
X7269643Y-15033929D01*
X7255357Y-15019643D01*
X7241071Y-14991071D01*
X7226786Y-14933929D01*
X7226786Y-14862500D01*
X7241071Y-14805357D01*
X7255357Y-14776786D01*
X7269643Y-14762500D01*
X7298214Y-14748214D01*
X7526786Y-15019643D02*
X7541071Y-15033929D01*
X7526786Y-15048214D01*
X7512500Y-15033929D01*
X7526786Y-15019643D01*
X7526786Y-15048214D01*
X7726786Y-14748214D02*
X7755357Y-14748214D01*
X7783928Y-14762500D01*
X7798214Y-14776786D01*
X7812500Y-14805357D01*
X7826786Y-14862500D01*
X7826786Y-14933929D01*
X7812500Y-14991071D01*
X7798214Y-15019643D01*
X7783928Y-15033929D01*
X7755357Y-15048214D01*
X7726786Y-15048214D01*
X7698214Y-15033929D01*
X7683928Y-15019643D01*
X7669643Y-14991071D01*
X7655357Y-14933929D01*
X7655357Y-14862500D01*
X7669643Y-14805357D01*
X7683928Y-14776786D01*
X7698214Y-14762500D01*
X7726786Y-14748214D01*
X8012500Y-14748214D02*
X8041071Y-14748214D01*
X8069643Y-14762500D01*
X8083928Y-14776786D01*
X8098214Y-14805357D01*
X8112500Y-14862500D01*
X8112500Y-14933929D01*
X8098214Y-14991071D01*
X8083928Y-15019643D01*
X8069643Y-15033929D01*
X8041071Y-15048214D01*
X8012500Y-15048214D01*
X7983928Y-15033929D01*
X7969643Y-15019643D01*
X7955357Y-14991071D01*
X7941071Y-14933929D01*
X7941071Y-14862500D01*
X7955357Y-14805357D01*
X7969643Y-14776786D01*
X7983928Y-14762500D01*
X8012500Y-14748214D01*
X8212500Y-14748214D02*
X8412500Y-14748214D01*
X8283928Y-15048214D01*
X8655357Y-14848214D02*
X8655357Y-15048214D01*
X8583928Y-14733929D02*
X8512500Y-14948214D01*
X8698214Y-14948214D01*
X8798214Y-14748214D02*
X8798214Y-14805357D01*
X8912500Y-14748214D02*
X8912500Y-14805357D01*
X9355357Y-15162500D02*
X9341071Y-15148214D01*
X9312500Y-15105357D01*
X9298214Y-15076786D01*
X9283928Y-15033929D01*
X9269643Y-14962500D01*
X9269643Y-14905357D01*
X9283928Y-14833929D01*
X9298214Y-14791071D01*
X9312500Y-14762500D01*
X9341071Y-14719643D01*
X9355357Y-14705357D01*
X9598214Y-14848214D02*
X9598214Y-15048214D01*
X9526786Y-14733929D02*
X9455357Y-14948214D01*
X9641071Y-14948214D01*
X9983928Y-15048214D02*
X9983928Y-14748214D01*
X10112500Y-15048214D02*
X10112500Y-14891071D01*
X10098214Y-14862500D01*
X10069643Y-14848214D01*
X10026786Y-14848214D01*
X9998214Y-14862500D01*
X9983928Y-14876786D01*
X10298214Y-15048214D02*
X10269643Y-15033929D01*
X10255357Y-15019643D01*
X10241071Y-14991071D01*
X10241071Y-14905357D01*
X10255357Y-14876786D01*
X10269643Y-14862500D01*
X10298214Y-14848214D01*
X10341071Y-14848214D01*
X10369643Y-14862500D01*
X10383928Y-14876786D01*
X10398214Y-14905357D01*
X10398214Y-14991071D01*
X10383928Y-15019643D01*
X10369643Y-15033929D01*
X10341071Y-15048214D01*
X10298214Y-15048214D01*
X10569643Y-15048214D02*
X10541071Y-15033929D01*
X10526786Y-15005357D01*
X10526786Y-14748214D01*
X10798214Y-15033929D02*
X10769643Y-15048214D01*
X10712500Y-15048214D01*
X10683928Y-15033929D01*
X10669643Y-15005357D01*
X10669643Y-14891071D01*
X10683928Y-14862500D01*
X10712500Y-14848214D01*
X10769643Y-14848214D01*
X10798214Y-14862500D01*
X10812500Y-14891071D01*
X10812500Y-14919643D01*
X10669643Y-14948214D01*
X10926786Y-15033929D02*
X10955357Y-15048214D01*
X11012500Y-15048214D01*
X11041071Y-15033929D01*
X11055357Y-15005357D01*
X11055357Y-14991071D01*
X11041071Y-14962500D01*
X11012500Y-14948214D01*
X10969643Y-14948214D01*
X10941071Y-14933929D01*
X10926786Y-14905357D01*
X10926786Y-14891071D01*
X10941071Y-14862500D01*
X10969643Y-14848214D01*
X11012500Y-14848214D01*
X11041071Y-14862500D01*
X11155357Y-15162500D02*
X11169643Y-15148214D01*
X11198214Y-15105357D01*
X11212500Y-15076786D01*
X11226786Y-15033929D01*
X11241071Y-14962500D01*
X11241071Y-14905357D01*
X11226786Y-14833929D01*
X11212500Y-14791071D01*
X11198214Y-14762500D01*
X11169643Y-14719643D01*
X11155357Y-14705357D01*
X4097500Y-15308500D02*
G75*
G03*
X4097500Y-15308500I-40000J0D01*
G01*
X4441071Y-15144214D02*
X4469643Y-15144214D01*
X4498214Y-15158500D01*
X4512500Y-15172786D01*
X4526786Y-15201357D01*
X4541071Y-15258500D01*
X4541071Y-15329929D01*
X4526786Y-15387071D01*
X4512500Y-15415643D01*
X4498214Y-15429929D01*
X4469643Y-15444214D01*
X4441071Y-15444214D01*
X4412500Y-15429929D01*
X4398214Y-15415643D01*
X4383928Y-15387071D01*
X4369643Y-15329929D01*
X4369643Y-15258500D01*
X4383928Y-15201357D01*
X4398214Y-15172786D01*
X4412500Y-15158500D01*
X4441071Y-15144214D01*
X4669643Y-15415643D02*
X4683928Y-15429929D01*
X4669643Y-15444214D01*
X4655357Y-15429929D01*
X4669643Y-15415643D01*
X4669643Y-15444214D01*
X4855357Y-15272786D02*
X4826786Y-15258500D01*
X4812500Y-15244214D01*
X4798214Y-15215643D01*
X4798214Y-15201357D01*
X4812500Y-15172786D01*
X4826786Y-15158500D01*
X4855357Y-15144214D01*
X4912500Y-15144214D01*
X4941071Y-15158500D01*
X4955357Y-15172786D01*
X4969643Y-15201357D01*
X4969643Y-15215643D01*
X4955357Y-15244214D01*
X4941071Y-15258500D01*
X4912500Y-15272786D01*
X4855357Y-15272786D01*
X4826786Y-15287071D01*
X4812500Y-15301357D01*
X4798214Y-15329929D01*
X4798214Y-15387071D01*
X4812500Y-15415643D01*
X4826786Y-15429929D01*
X4855357Y-15444214D01*
X4912500Y-15444214D01*
X4941071Y-15429929D01*
X4955357Y-15415643D01*
X4969643Y-15387071D01*
X4969643Y-15329929D01*
X4955357Y-15301357D01*
X4941071Y-15287071D01*
X4912500Y-15272786D01*
X5155357Y-15144214D02*
X5183928Y-15144214D01*
X5212500Y-15158500D01*
X5226786Y-15172786D01*
X5241071Y-15201357D01*
X5255357Y-15258500D01*
X5255357Y-15329929D01*
X5241071Y-15387071D01*
X5226786Y-15415643D01*
X5212500Y-15429929D01*
X5183928Y-15444214D01*
X5155357Y-15444214D01*
X5126786Y-15429929D01*
X5112500Y-15415643D01*
X5098214Y-15387071D01*
X5083928Y-15329929D01*
X5083928Y-15258500D01*
X5098214Y-15201357D01*
X5112500Y-15172786D01*
X5126786Y-15158500D01*
X5155357Y-15144214D01*
X5441071Y-15144214D02*
X5469643Y-15144214D01*
X5498214Y-15158500D01*
X5512500Y-15172786D01*
X5526786Y-15201357D01*
X5541071Y-15258500D01*
X5541071Y-15329929D01*
X5526786Y-15387071D01*
X5512500Y-15415643D01*
X5498214Y-15429929D01*
X5469643Y-15444214D01*
X5441071Y-15444214D01*
X5412500Y-15429929D01*
X5398214Y-15415643D01*
X5383928Y-15387071D01*
X5369643Y-15329929D01*
X5369643Y-15258500D01*
X5383928Y-15201357D01*
X5398214Y-15172786D01*
X5412500Y-15158500D01*
X5441071Y-15144214D01*
X5669643Y-15444214D02*
X5669643Y-15244214D01*
X5669643Y-15272786D02*
X5683928Y-15258500D01*
X5712500Y-15244214D01*
X5755357Y-15244214D01*
X5783928Y-15258500D01*
X5798214Y-15287071D01*
X5798214Y-15444214D01*
X5798214Y-15287071D02*
X5812500Y-15258500D01*
X5841071Y-15244214D01*
X5883928Y-15244214D01*
X5912500Y-15258500D01*
X5926786Y-15287071D01*
X5926786Y-15444214D01*
X6069643Y-15444214D02*
X6069643Y-15244214D01*
X6069643Y-15272786D02*
X6083928Y-15258500D01*
X6112500Y-15244214D01*
X6155357Y-15244214D01*
X6183928Y-15258500D01*
X6198214Y-15287071D01*
X6198214Y-15444214D01*
X6198214Y-15287071D02*
X6212500Y-15258500D01*
X6241071Y-15244214D01*
X6283928Y-15244214D01*
X6312500Y-15258500D01*
X6326786Y-15287071D01*
X6326786Y-15444214D01*
X6912500Y-15129929D02*
X6655357Y-15515643D01*
X7298214Y-15144214D02*
X7326786Y-15144214D01*
X7355357Y-15158500D01*
X7369643Y-15172786D01*
X7383928Y-15201357D01*
X7398214Y-15258500D01*
X7398214Y-15329929D01*
X7383928Y-15387071D01*
X7369643Y-15415643D01*
X7355357Y-15429929D01*
X7326786Y-15444214D01*
X7298214Y-15444214D01*
X7269643Y-15429929D01*
X7255357Y-15415643D01*
X7241071Y-15387071D01*
X7226786Y-15329929D01*
X7226786Y-15258500D01*
X7241071Y-15201357D01*
X7255357Y-15172786D01*
X7269643Y-15158500D01*
X7298214Y-15144214D01*
X7526786Y-15415643D02*
X7541071Y-15429929D01*
X7526786Y-15444214D01*
X7512500Y-15429929D01*
X7526786Y-15415643D01*
X7526786Y-15444214D01*
X7726786Y-15144214D02*
X7755357Y-15144214D01*
X7783928Y-15158500D01*
X7798214Y-15172786D01*
X7812500Y-15201357D01*
X7826786Y-15258500D01*
X7826786Y-15329929D01*
X7812500Y-15387071D01*
X7798214Y-15415643D01*
X7783928Y-15429929D01*
X7755357Y-15444214D01*
X7726786Y-15444214D01*
X7698214Y-15429929D01*
X7683928Y-15415643D01*
X7669643Y-15387071D01*
X7655357Y-15329929D01*
X7655357Y-15258500D01*
X7669643Y-15201357D01*
X7683928Y-15172786D01*
X7698214Y-15158500D01*
X7726786Y-15144214D01*
X7926786Y-15144214D02*
X8112500Y-15144214D01*
X8012500Y-15258500D01*
X8055357Y-15258500D01*
X8083928Y-15272786D01*
X8098214Y-15287071D01*
X8112500Y-15315643D01*
X8112500Y-15387071D01*
X8098214Y-15415643D01*
X8083928Y-15429929D01*
X8055357Y-15444214D01*
X7969643Y-15444214D01*
X7941071Y-15429929D01*
X7926786Y-15415643D01*
X8398214Y-15444214D02*
X8226786Y-15444214D01*
X8312500Y-15444214D02*
X8312500Y-15144214D01*
X8283928Y-15187071D01*
X8255357Y-15215643D01*
X8226786Y-15229929D01*
X8669643Y-15144214D02*
X8526786Y-15144214D01*
X8512500Y-15287071D01*
X8526786Y-15272786D01*
X8555357Y-15258500D01*
X8626786Y-15258500D01*
X8655357Y-15272786D01*
X8669643Y-15287071D01*
X8683928Y-15315643D01*
X8683928Y-15387071D01*
X8669643Y-15415643D01*
X8655357Y-15429929D01*
X8626786Y-15444214D01*
X8555357Y-15444214D01*
X8526786Y-15429929D01*
X8512500Y-15415643D01*
X8798214Y-15144214D02*
X8798214Y-15201357D01*
X8912500Y-15144214D02*
X8912500Y-15201357D01*
X9355357Y-15558500D02*
X9341071Y-15544214D01*
X9312500Y-15501357D01*
X9298214Y-15472786D01*
X9283928Y-15429929D01*
X9269643Y-15358500D01*
X9269643Y-15301357D01*
X9283928Y-15229929D01*
X9298214Y-15187071D01*
X9312500Y-15158500D01*
X9341071Y-15115643D01*
X9355357Y-15101357D01*
X9441071Y-15144214D02*
X9626786Y-15144214D01*
X9526786Y-15258500D01*
X9569643Y-15258500D01*
X9598214Y-15272786D01*
X9612500Y-15287071D01*
X9626786Y-15315643D01*
X9626786Y-15387071D01*
X9612500Y-15415643D01*
X9598214Y-15429929D01*
X9569643Y-15444214D01*
X9483928Y-15444214D01*
X9455357Y-15429929D01*
X9441071Y-15415643D01*
X9883928Y-15144214D02*
X9826786Y-15144214D01*
X9798214Y-15158500D01*
X9783928Y-15172786D01*
X9755357Y-15215643D01*
X9741071Y-15272786D01*
X9741071Y-15387071D01*
X9755357Y-15415643D01*
X9769643Y-15429929D01*
X9798214Y-15444214D01*
X9855357Y-15444214D01*
X9883928Y-15429929D01*
X9898214Y-15415643D01*
X9912500Y-15387071D01*
X9912500Y-15315643D01*
X9898214Y-15287071D01*
X9883928Y-15272786D01*
X9855357Y-15258500D01*
X9798214Y-15258500D01*
X9769643Y-15272786D01*
X9755357Y-15287071D01*
X9741071Y-15315643D01*
X10269643Y-15444214D02*
X10269643Y-15144214D01*
X10398214Y-15444214D02*
X10398214Y-15287071D01*
X10383928Y-15258500D01*
X10355357Y-15244214D01*
X10312500Y-15244214D01*
X10283928Y-15258500D01*
X10269643Y-15272786D01*
X10583928Y-15444214D02*
X10555357Y-15429929D01*
X10541071Y-15415643D01*
X10526786Y-15387071D01*
X10526786Y-15301357D01*
X10541071Y-15272786D01*
X10555357Y-15258500D01*
X10583928Y-15244214D01*
X10626786Y-15244214D01*
X10655357Y-15258500D01*
X10669643Y-15272786D01*
X10683928Y-15301357D01*
X10683928Y-15387071D01*
X10669643Y-15415643D01*
X10655357Y-15429929D01*
X10626786Y-15444214D01*
X10583928Y-15444214D01*
X10855357Y-15444214D02*
X10826786Y-15429929D01*
X10812500Y-15401357D01*
X10812500Y-15144214D01*
X11083928Y-15429929D02*
X11055357Y-15444214D01*
X10998214Y-15444214D01*
X10969643Y-15429929D01*
X10955357Y-15401357D01*
X10955357Y-15287071D01*
X10969643Y-15258500D01*
X10998214Y-15244214D01*
X11055357Y-15244214D01*
X11083928Y-15258500D01*
X11098214Y-15287071D01*
X11098214Y-15315643D01*
X10955357Y-15344214D01*
X11212500Y-15429929D02*
X11241071Y-15444214D01*
X11298214Y-15444214D01*
X11326786Y-15429929D01*
X11341071Y-15401357D01*
X11341071Y-15387071D01*
X11326786Y-15358500D01*
X11298214Y-15344214D01*
X11255357Y-15344214D01*
X11226786Y-15329929D01*
X11212500Y-15301357D01*
X11212500Y-15287071D01*
X11226786Y-15258500D01*
X11255357Y-15244214D01*
X11298214Y-15244214D01*
X11326786Y-15258500D01*
X11441071Y-15558500D02*
X11455357Y-15544214D01*
X11483928Y-15501357D01*
X11498214Y-15472786D01*
X11512500Y-15429929D01*
X11526786Y-15358500D01*
X11526786Y-15301357D01*
X11512500Y-15229929D01*
X11498214Y-15187071D01*
X11483928Y-15158500D01*
X11455357Y-15115643D01*
X11441071Y-15101357D01*
X4052500Y-15659500D02*
X4052500Y-15749500D01*
X4007500Y-15704500D02*
X4097500Y-15704500D01*
X4441071Y-15540214D02*
X4469643Y-15540214D01*
X4498214Y-15554500D01*
X4512500Y-15568786D01*
X4526786Y-15597357D01*
X4541071Y-15654500D01*
X4541071Y-15725929D01*
X4526786Y-15783071D01*
X4512500Y-15811643D01*
X4498214Y-15825929D01*
X4469643Y-15840214D01*
X4441071Y-15840214D01*
X4412500Y-15825929D01*
X4398214Y-15811643D01*
X4383928Y-15783071D01*
X4369643Y-15725929D01*
X4369643Y-15654500D01*
X4383928Y-15597357D01*
X4398214Y-15568786D01*
X4412500Y-15554500D01*
X4441071Y-15540214D01*
X4669643Y-15811643D02*
X4683928Y-15825929D01*
X4669643Y-15840214D01*
X4655357Y-15825929D01*
X4669643Y-15811643D01*
X4669643Y-15840214D01*
X4826786Y-15840214D02*
X4883928Y-15840214D01*
X4912500Y-15825929D01*
X4926786Y-15811643D01*
X4955357Y-15768786D01*
X4969643Y-15711643D01*
X4969643Y-15597357D01*
X4955357Y-15568786D01*
X4941071Y-15554500D01*
X4912500Y-15540214D01*
X4855357Y-15540214D01*
X4826786Y-15554500D01*
X4812500Y-15568786D01*
X4798214Y-15597357D01*
X4798214Y-15668786D01*
X4812500Y-15697357D01*
X4826786Y-15711643D01*
X4855357Y-15725929D01*
X4912500Y-15725929D01*
X4941071Y-15711643D01*
X4955357Y-15697357D01*
X4969643Y-15668786D01*
X5155357Y-15540214D02*
X5183928Y-15540214D01*
X5212500Y-15554500D01*
X5226786Y-15568786D01*
X5241071Y-15597357D01*
X5255357Y-15654500D01*
X5255357Y-15725929D01*
X5241071Y-15783071D01*
X5226786Y-15811643D01*
X5212500Y-15825929D01*
X5183928Y-15840214D01*
X5155357Y-15840214D01*
X5126786Y-15825929D01*
X5112500Y-15811643D01*
X5098214Y-15783071D01*
X5083928Y-15725929D01*
X5083928Y-15654500D01*
X5098214Y-15597357D01*
X5112500Y-15568786D01*
X5126786Y-15554500D01*
X5155357Y-15540214D01*
X5441071Y-15540214D02*
X5469643Y-15540214D01*
X5498214Y-15554500D01*
X5512500Y-15568786D01*
X5526786Y-15597357D01*
X5541071Y-15654500D01*
X5541071Y-15725929D01*
X5526786Y-15783071D01*
X5512500Y-15811643D01*
X5498214Y-15825929D01*
X5469643Y-15840214D01*
X5441071Y-15840214D01*
X5412500Y-15825929D01*
X5398214Y-15811643D01*
X5383928Y-15783071D01*
X5369643Y-15725929D01*
X5369643Y-15654500D01*
X5383928Y-15597357D01*
X5398214Y-15568786D01*
X5412500Y-15554500D01*
X5441071Y-15540214D01*
X5669643Y-15840214D02*
X5669643Y-15640214D01*
X5669643Y-15668786D02*
X5683928Y-15654500D01*
X5712500Y-15640214D01*
X5755357Y-15640214D01*
X5783928Y-15654500D01*
X5798214Y-15683071D01*
X5798214Y-15840214D01*
X5798214Y-15683071D02*
X5812500Y-15654500D01*
X5841071Y-15640214D01*
X5883928Y-15640214D01*
X5912500Y-15654500D01*
X5926786Y-15683071D01*
X5926786Y-15840214D01*
X6069643Y-15840214D02*
X6069643Y-15640214D01*
X6069643Y-15668786D02*
X6083928Y-15654500D01*
X6112500Y-15640214D01*
X6155357Y-15640214D01*
X6183928Y-15654500D01*
X6198214Y-15683071D01*
X6198214Y-15840214D01*
X6198214Y-15683071D02*
X6212500Y-15654500D01*
X6241071Y-15640214D01*
X6283928Y-15640214D01*
X6312500Y-15654500D01*
X6326786Y-15683071D01*
X6326786Y-15840214D01*
X6912500Y-15525929D02*
X6655357Y-15911643D01*
X7298214Y-15540214D02*
X7326786Y-15540214D01*
X7355357Y-15554500D01*
X7369643Y-15568786D01*
X7383928Y-15597357D01*
X7398214Y-15654500D01*
X7398214Y-15725929D01*
X7383928Y-15783071D01*
X7369643Y-15811643D01*
X7355357Y-15825929D01*
X7326786Y-15840214D01*
X7298214Y-15840214D01*
X7269643Y-15825929D01*
X7255357Y-15811643D01*
X7241071Y-15783071D01*
X7226786Y-15725929D01*
X7226786Y-15654500D01*
X7241071Y-15597357D01*
X7255357Y-15568786D01*
X7269643Y-15554500D01*
X7298214Y-15540214D01*
X7526786Y-15811643D02*
X7541071Y-15825929D01*
X7526786Y-15840214D01*
X7512500Y-15825929D01*
X7526786Y-15811643D01*
X7526786Y-15840214D01*
X7726786Y-15540214D02*
X7755357Y-15540214D01*
X7783928Y-15554500D01*
X7798214Y-15568786D01*
X7812500Y-15597357D01*
X7826786Y-15654500D01*
X7826786Y-15725929D01*
X7812500Y-15783071D01*
X7798214Y-15811643D01*
X7783928Y-15825929D01*
X7755357Y-15840214D01*
X7726786Y-15840214D01*
X7698214Y-15825929D01*
X7683928Y-15811643D01*
X7669643Y-15783071D01*
X7655357Y-15725929D01*
X7655357Y-15654500D01*
X7669643Y-15597357D01*
X7683928Y-15568786D01*
X7698214Y-15554500D01*
X7726786Y-15540214D01*
X7926786Y-15540214D02*
X8112500Y-15540214D01*
X8012500Y-15654500D01*
X8055357Y-15654500D01*
X8083928Y-15668786D01*
X8098214Y-15683071D01*
X8112500Y-15711643D01*
X8112500Y-15783071D01*
X8098214Y-15811643D01*
X8083928Y-15825929D01*
X8055357Y-15840214D01*
X7969643Y-15840214D01*
X7941071Y-15825929D01*
X7926786Y-15811643D01*
X8383928Y-15540214D02*
X8241071Y-15540214D01*
X8226786Y-15683071D01*
X8241071Y-15668786D01*
X8269643Y-15654500D01*
X8341071Y-15654500D01*
X8369643Y-15668786D01*
X8383928Y-15683071D01*
X8398214Y-15711643D01*
X8398214Y-15783071D01*
X8383928Y-15811643D01*
X8369643Y-15825929D01*
X8341071Y-15840214D01*
X8269643Y-15840214D01*
X8241071Y-15825929D01*
X8226786Y-15811643D01*
X8655357Y-15640214D02*
X8655357Y-15840214D01*
X8583928Y-15525929D02*
X8512500Y-15740214D01*
X8698214Y-15740214D01*
X8798214Y-15540214D02*
X8798214Y-15597357D01*
X8912500Y-15540214D02*
X8912500Y-15597357D01*
X9355357Y-15954500D02*
X9341071Y-15940214D01*
X9312500Y-15897357D01*
X9298214Y-15868786D01*
X9283928Y-15825929D01*
X9269643Y-15754500D01*
X9269643Y-15697357D01*
X9283928Y-15625929D01*
X9298214Y-15583071D01*
X9312500Y-15554500D01*
X9341071Y-15511643D01*
X9355357Y-15497357D01*
X9455357Y-15568786D02*
X9469643Y-15554500D01*
X9498214Y-15540214D01*
X9569643Y-15540214D01*
X9598214Y-15554500D01*
X9612500Y-15568786D01*
X9626786Y-15597357D01*
X9626786Y-15625929D01*
X9612500Y-15668786D01*
X9441071Y-15840214D01*
X9626786Y-15840214D01*
X9983928Y-15840214D02*
X9983928Y-15540214D01*
X10112500Y-15840214D02*
X10112500Y-15683071D01*
X10098214Y-15654500D01*
X10069643Y-15640214D01*
X10026786Y-15640214D01*
X9998214Y-15654500D01*
X9983928Y-15668786D01*
X10298214Y-15840214D02*
X10269643Y-15825929D01*
X10255357Y-15811643D01*
X10241071Y-15783071D01*
X10241071Y-15697357D01*
X10255357Y-15668786D01*
X10269643Y-15654500D01*
X10298214Y-15640214D01*
X10341071Y-15640214D01*
X10369643Y-15654500D01*
X10383928Y-15668786D01*
X10398214Y-15697357D01*
X10398214Y-15783071D01*
X10383928Y-15811643D01*
X10369643Y-15825929D01*
X10341071Y-15840214D01*
X10298214Y-15840214D01*
X10569643Y-15840214D02*
X10541071Y-15825929D01*
X10526786Y-15797357D01*
X10526786Y-15540214D01*
X10798214Y-15825929D02*
X10769643Y-15840214D01*
X10712500Y-15840214D01*
X10683928Y-15825929D01*
X10669643Y-15797357D01*
X10669643Y-15683071D01*
X10683928Y-15654500D01*
X10712500Y-15640214D01*
X10769643Y-15640214D01*
X10798214Y-15654500D01*
X10812500Y-15683071D01*
X10812500Y-15711643D01*
X10669643Y-15740214D01*
X10926786Y-15825929D02*
X10955357Y-15840214D01*
X11012500Y-15840214D01*
X11041071Y-15825929D01*
X11055357Y-15797357D01*
X11055357Y-15783071D01*
X11041071Y-15754500D01*
X11012500Y-15740214D01*
X10969643Y-15740214D01*
X10941071Y-15725929D01*
X10926786Y-15697357D01*
X10926786Y-15683071D01*
X10941071Y-15654500D01*
X10969643Y-15640214D01*
X11012500Y-15640214D01*
X11041071Y-15654500D01*
X11155357Y-15954500D02*
X11169643Y-15940214D01*
X11198214Y-15897357D01*
X11212500Y-15868786D01*
X11226786Y-15825929D01*
X11241071Y-15754500D01*
X11241071Y-15697357D01*
X11226786Y-15625929D01*
X11212500Y-15583071D01*
X11198214Y-15554500D01*
X11169643Y-15511643D01*
X11155357Y-15497357D01*
X4082856Y-16135856D02*
X4082856Y-16065144D01*
X4012144Y-16065144D01*
X4012144Y-16135856D01*
X4082856Y-16135856D01*
X4541071Y-16236214D02*
X4369643Y-16236214D01*
X4455357Y-16236214D02*
X4455357Y-15936214D01*
X4426786Y-15979071D01*
X4398214Y-16007643D01*
X4369643Y-16021929D01*
X4669643Y-16207643D02*
X4683928Y-16221929D01*
X4669643Y-16236214D01*
X4655357Y-16221929D01*
X4669643Y-16207643D01*
X4669643Y-16236214D01*
X4869643Y-15936214D02*
X4898214Y-15936214D01*
X4926786Y-15950500D01*
X4941071Y-15964786D01*
X4955357Y-15993357D01*
X4969643Y-16050500D01*
X4969643Y-16121929D01*
X4955357Y-16179071D01*
X4941071Y-16207643D01*
X4926786Y-16221929D01*
X4898214Y-16236214D01*
X4869643Y-16236214D01*
X4841071Y-16221929D01*
X4826786Y-16207643D01*
X4812500Y-16179071D01*
X4798214Y-16121929D01*
X4798214Y-16050500D01*
X4812500Y-15993357D01*
X4826786Y-15964786D01*
X4841071Y-15950500D01*
X4869643Y-15936214D01*
X5155357Y-15936214D02*
X5183928Y-15936214D01*
X5212500Y-15950500D01*
X5226786Y-15964786D01*
X5241071Y-15993357D01*
X5255357Y-16050500D01*
X5255357Y-16121929D01*
X5241071Y-16179071D01*
X5226786Y-16207643D01*
X5212500Y-16221929D01*
X5183928Y-16236214D01*
X5155357Y-16236214D01*
X5126786Y-16221929D01*
X5112500Y-16207643D01*
X5098214Y-16179071D01*
X5083928Y-16121929D01*
X5083928Y-16050500D01*
X5098214Y-15993357D01*
X5112500Y-15964786D01*
X5126786Y-15950500D01*
X5155357Y-15936214D01*
X5441071Y-15936214D02*
X5469643Y-15936214D01*
X5498214Y-15950500D01*
X5512500Y-15964786D01*
X5526786Y-15993357D01*
X5541071Y-16050500D01*
X5541071Y-16121929D01*
X5526786Y-16179071D01*
X5512500Y-16207643D01*
X5498214Y-16221929D01*
X5469643Y-16236214D01*
X5441071Y-16236214D01*
X5412500Y-16221929D01*
X5398214Y-16207643D01*
X5383928Y-16179071D01*
X5369643Y-16121929D01*
X5369643Y-16050500D01*
X5383928Y-15993357D01*
X5398214Y-15964786D01*
X5412500Y-15950500D01*
X5441071Y-15936214D01*
X5669643Y-16236214D02*
X5669643Y-16036214D01*
X5669643Y-16064786D02*
X5683928Y-16050500D01*
X5712500Y-16036214D01*
X5755357Y-16036214D01*
X5783928Y-16050500D01*
X5798214Y-16079071D01*
X5798214Y-16236214D01*
X5798214Y-16079071D02*
X5812500Y-16050500D01*
X5841071Y-16036214D01*
X5883928Y-16036214D01*
X5912500Y-16050500D01*
X5926786Y-16079071D01*
X5926786Y-16236214D01*
X6069643Y-16236214D02*
X6069643Y-16036214D01*
X6069643Y-16064786D02*
X6083928Y-16050500D01*
X6112500Y-16036214D01*
X6155357Y-16036214D01*
X6183928Y-16050500D01*
X6198214Y-16079071D01*
X6198214Y-16236214D01*
X6198214Y-16079071D02*
X6212500Y-16050500D01*
X6241071Y-16036214D01*
X6283928Y-16036214D01*
X6312500Y-16050500D01*
X6326786Y-16079071D01*
X6326786Y-16236214D01*
X6912500Y-15921929D02*
X6655357Y-16307643D01*
X7298214Y-15936214D02*
X7326786Y-15936214D01*
X7355357Y-15950500D01*
X7369643Y-15964786D01*
X7383928Y-15993357D01*
X7398214Y-16050500D01*
X7398214Y-16121929D01*
X7383928Y-16179071D01*
X7369643Y-16207643D01*
X7355357Y-16221929D01*
X7326786Y-16236214D01*
X7298214Y-16236214D01*
X7269643Y-16221929D01*
X7255357Y-16207643D01*
X7241071Y-16179071D01*
X7226786Y-16121929D01*
X7226786Y-16050500D01*
X7241071Y-15993357D01*
X7255357Y-15964786D01*
X7269643Y-15950500D01*
X7298214Y-15936214D01*
X7526786Y-16207643D02*
X7541071Y-16221929D01*
X7526786Y-16236214D01*
X7512500Y-16221929D01*
X7526786Y-16207643D01*
X7526786Y-16236214D01*
X7726786Y-15936214D02*
X7755357Y-15936214D01*
X7783928Y-15950500D01*
X7798214Y-15964786D01*
X7812500Y-15993357D01*
X7826786Y-16050500D01*
X7826786Y-16121929D01*
X7812500Y-16179071D01*
X7798214Y-16207643D01*
X7783928Y-16221929D01*
X7755357Y-16236214D01*
X7726786Y-16236214D01*
X7698214Y-16221929D01*
X7683928Y-16207643D01*
X7669643Y-16179071D01*
X7655357Y-16121929D01*
X7655357Y-16050500D01*
X7669643Y-15993357D01*
X7683928Y-15964786D01*
X7698214Y-15950500D01*
X7726786Y-15936214D01*
X7926786Y-15936214D02*
X8112500Y-15936214D01*
X8012500Y-16050500D01*
X8055357Y-16050500D01*
X8083928Y-16064786D01*
X8098214Y-16079071D01*
X8112500Y-16107643D01*
X8112500Y-16179071D01*
X8098214Y-16207643D01*
X8083928Y-16221929D01*
X8055357Y-16236214D01*
X7969643Y-16236214D01*
X7941071Y-16221929D01*
X7926786Y-16207643D01*
X8255357Y-16236214D02*
X8312500Y-16236214D01*
X8341071Y-16221929D01*
X8355357Y-16207643D01*
X8383928Y-16164786D01*
X8398214Y-16107643D01*
X8398214Y-15993357D01*
X8383928Y-15964786D01*
X8369643Y-15950500D01*
X8341071Y-15936214D01*
X8283928Y-15936214D01*
X8255357Y-15950500D01*
X8241071Y-15964786D01*
X8226786Y-15993357D01*
X8226786Y-16064786D01*
X8241071Y-16093357D01*
X8255357Y-16107643D01*
X8283928Y-16121929D01*
X8341071Y-16121929D01*
X8369643Y-16107643D01*
X8383928Y-16093357D01*
X8398214Y-16064786D01*
X8655357Y-16036214D02*
X8655357Y-16236214D01*
X8583928Y-15921929D02*
X8512500Y-16136214D01*
X8698214Y-16136214D01*
X8798214Y-15936214D02*
X8798214Y-15993357D01*
X8912500Y-15936214D02*
X8912500Y-15993357D01*
X9355357Y-16350500D02*
X9341071Y-16336214D01*
X9312500Y-16293357D01*
X9298214Y-16264786D01*
X9283928Y-16221929D01*
X9269643Y-16150500D01*
X9269643Y-16093357D01*
X9283928Y-16021929D01*
X9298214Y-15979071D01*
X9312500Y-15950500D01*
X9341071Y-15907643D01*
X9355357Y-15893357D01*
X9598214Y-16036214D02*
X9598214Y-16236214D01*
X9526786Y-15921929D02*
X9455357Y-16136214D01*
X9641071Y-16136214D01*
X9983928Y-16236214D02*
X9983928Y-15936214D01*
X10112500Y-16236214D02*
X10112500Y-16079071D01*
X10098214Y-16050500D01*
X10069643Y-16036214D01*
X10026786Y-16036214D01*
X9998214Y-16050500D01*
X9983928Y-16064786D01*
X10298214Y-16236214D02*
X10269643Y-16221929D01*
X10255357Y-16207643D01*
X10241071Y-16179071D01*
X10241071Y-16093357D01*
X10255357Y-16064786D01*
X10269643Y-16050500D01*
X10298214Y-16036214D01*
X10341071Y-16036214D01*
X10369643Y-16050500D01*
X10383928Y-16064786D01*
X10398214Y-16093357D01*
X10398214Y-16179071D01*
X10383928Y-16207643D01*
X10369643Y-16221929D01*
X10341071Y-16236214D01*
X10298214Y-16236214D01*
X10569643Y-16236214D02*
X10541071Y-16221929D01*
X10526786Y-16193357D01*
X10526786Y-15936214D01*
X10798214Y-16221929D02*
X10769643Y-16236214D01*
X10712500Y-16236214D01*
X10683928Y-16221929D01*
X10669643Y-16193357D01*
X10669643Y-16079071D01*
X10683928Y-16050500D01*
X10712500Y-16036214D01*
X10769643Y-16036214D01*
X10798214Y-16050500D01*
X10812500Y-16079071D01*
X10812500Y-16107643D01*
X10669643Y-16136214D01*
X10926786Y-16221929D02*
X10955357Y-16236214D01*
X11012500Y-16236214D01*
X11041071Y-16221929D01*
X11055357Y-16193357D01*
X11055357Y-16179071D01*
X11041071Y-16150500D01*
X11012500Y-16136214D01*
X10969643Y-16136214D01*
X10941071Y-16121929D01*
X10926786Y-16093357D01*
X10926786Y-16079071D01*
X10941071Y-16050500D01*
X10969643Y-16036214D01*
X11012500Y-16036214D01*
X11041071Y-16050500D01*
X11155357Y-16350500D02*
X11169643Y-16336214D01*
X11198214Y-16293357D01*
X11212500Y-16264786D01*
X11226786Y-16221929D01*
X11241071Y-16150500D01*
X11241071Y-16093357D01*
X11226786Y-16021929D01*
X11212500Y-15979071D01*
X11198214Y-15950500D01*
X11169643Y-15907643D01*
X11155357Y-15893357D01*
X4040500Y-16553500D02*
X4097500Y-16496500D01*
X4040500Y-16439500D01*
X3983500Y-16496500D01*
X4040500Y-16553500D01*
X4541071Y-16632214D02*
X4369643Y-16632214D01*
X4455357Y-16632214D02*
X4455357Y-16332214D01*
X4426786Y-16375071D01*
X4398214Y-16403643D01*
X4369643Y-16417929D01*
X4669643Y-16603643D02*
X4683928Y-16617929D01*
X4669643Y-16632214D01*
X4655357Y-16617929D01*
X4669643Y-16603643D01*
X4669643Y-16632214D01*
X4969643Y-16632214D02*
X4798214Y-16632214D01*
X4883928Y-16632214D02*
X4883928Y-16332214D01*
X4855357Y-16375071D01*
X4826786Y-16403643D01*
X4798214Y-16417929D01*
X5226786Y-16432214D02*
X5226786Y-16632214D01*
X5155357Y-16317929D02*
X5083928Y-16532214D01*
X5269643Y-16532214D01*
X5441071Y-16332214D02*
X5469643Y-16332214D01*
X5498214Y-16346500D01*
X5512500Y-16360786D01*
X5526786Y-16389357D01*
X5541071Y-16446500D01*
X5541071Y-16517929D01*
X5526786Y-16575071D01*
X5512500Y-16603643D01*
X5498214Y-16617929D01*
X5469643Y-16632214D01*
X5441071Y-16632214D01*
X5412500Y-16617929D01*
X5398214Y-16603643D01*
X5383928Y-16575071D01*
X5369643Y-16517929D01*
X5369643Y-16446500D01*
X5383928Y-16389357D01*
X5398214Y-16360786D01*
X5412500Y-16346500D01*
X5441071Y-16332214D01*
X5669643Y-16632214D02*
X5669643Y-16432214D01*
X5669643Y-16460786D02*
X5683928Y-16446500D01*
X5712500Y-16432214D01*
X5755357Y-16432214D01*
X5783928Y-16446500D01*
X5798214Y-16475071D01*
X5798214Y-16632214D01*
X5798214Y-16475071D02*
X5812500Y-16446500D01*
X5841071Y-16432214D01*
X5883928Y-16432214D01*
X5912500Y-16446500D01*
X5926786Y-16475071D01*
X5926786Y-16632214D01*
X6069643Y-16632214D02*
X6069643Y-16432214D01*
X6069643Y-16460786D02*
X6083928Y-16446500D01*
X6112500Y-16432214D01*
X6155357Y-16432214D01*
X6183928Y-16446500D01*
X6198214Y-16475071D01*
X6198214Y-16632214D01*
X6198214Y-16475071D02*
X6212500Y-16446500D01*
X6241071Y-16432214D01*
X6283928Y-16432214D01*
X6312500Y-16446500D01*
X6326786Y-16475071D01*
X6326786Y-16632214D01*
X6912500Y-16317929D02*
X6655357Y-16703643D01*
X7298214Y-16332214D02*
X7326786Y-16332214D01*
X7355357Y-16346500D01*
X7369643Y-16360786D01*
X7383928Y-16389357D01*
X7398214Y-16446500D01*
X7398214Y-16517929D01*
X7383928Y-16575071D01*
X7369643Y-16603643D01*
X7355357Y-16617929D01*
X7326786Y-16632214D01*
X7298214Y-16632214D01*
X7269643Y-16617929D01*
X7255357Y-16603643D01*
X7241071Y-16575071D01*
X7226786Y-16517929D01*
X7226786Y-16446500D01*
X7241071Y-16389357D01*
X7255357Y-16360786D01*
X7269643Y-16346500D01*
X7298214Y-16332214D01*
X7526786Y-16603643D02*
X7541071Y-16617929D01*
X7526786Y-16632214D01*
X7512500Y-16617929D01*
X7526786Y-16603643D01*
X7526786Y-16632214D01*
X7726786Y-16332214D02*
X7755357Y-16332214D01*
X7783928Y-16346500D01*
X7798214Y-16360786D01*
X7812500Y-16389357D01*
X7826786Y-16446500D01*
X7826786Y-16517929D01*
X7812500Y-16575071D01*
X7798214Y-16603643D01*
X7783928Y-16617929D01*
X7755357Y-16632214D01*
X7726786Y-16632214D01*
X7698214Y-16617929D01*
X7683928Y-16603643D01*
X7669643Y-16575071D01*
X7655357Y-16517929D01*
X7655357Y-16446500D01*
X7669643Y-16389357D01*
X7683928Y-16360786D01*
X7698214Y-16346500D01*
X7726786Y-16332214D01*
X8083928Y-16432214D02*
X8083928Y-16632214D01*
X8012500Y-16317929D02*
X7941071Y-16532214D01*
X8126786Y-16532214D01*
X8369643Y-16432214D02*
X8369643Y-16632214D01*
X8298214Y-16317929D02*
X8226786Y-16532214D01*
X8412500Y-16532214D01*
X8541071Y-16632214D02*
X8598214Y-16632214D01*
X8626786Y-16617929D01*
X8641071Y-16603643D01*
X8669643Y-16560786D01*
X8683928Y-16503643D01*
X8683928Y-16389357D01*
X8669643Y-16360786D01*
X8655357Y-16346500D01*
X8626786Y-16332214D01*
X8569643Y-16332214D01*
X8541071Y-16346500D01*
X8526786Y-16360786D01*
X8512500Y-16389357D01*
X8512500Y-16460786D01*
X8526786Y-16489357D01*
X8541071Y-16503643D01*
X8569643Y-16517929D01*
X8626786Y-16517929D01*
X8655357Y-16503643D01*
X8669643Y-16489357D01*
X8683928Y-16460786D01*
X8798214Y-16332214D02*
X8798214Y-16389357D01*
X8912500Y-16332214D02*
X8912500Y-16389357D01*
X9355357Y-16746500D02*
X9341071Y-16732214D01*
X9312500Y-16689357D01*
X9298214Y-16660786D01*
X9283928Y-16617929D01*
X9269643Y-16546500D01*
X9269643Y-16489357D01*
X9283928Y-16417929D01*
X9298214Y-16375071D01*
X9312500Y-16346500D01*
X9341071Y-16303643D01*
X9355357Y-16289357D01*
X9598214Y-16332214D02*
X9541071Y-16332214D01*
X9512500Y-16346500D01*
X9498214Y-16360786D01*
X9469643Y-16403643D01*
X9455357Y-16460786D01*
X9455357Y-16575071D01*
X9469643Y-16603643D01*
X9483928Y-16617929D01*
X9512500Y-16632214D01*
X9569643Y-16632214D01*
X9598214Y-16617929D01*
X9612500Y-16603643D01*
X9626786Y-16575071D01*
X9626786Y-16503643D01*
X9612500Y-16475071D01*
X9598214Y-16460786D01*
X9569643Y-16446500D01*
X9512500Y-16446500D01*
X9483928Y-16460786D01*
X9469643Y-16475071D01*
X9455357Y-16503643D01*
X9983928Y-16632214D02*
X9983928Y-16332214D01*
X10112500Y-16632214D02*
X10112500Y-16475071D01*
X10098214Y-16446500D01*
X10069643Y-16432214D01*
X10026786Y-16432214D01*
X9998214Y-16446500D01*
X9983928Y-16460786D01*
X10298214Y-16632214D02*
X10269643Y-16617929D01*
X10255357Y-16603643D01*
X10241071Y-16575071D01*
X10241071Y-16489357D01*
X10255357Y-16460786D01*
X10269643Y-16446500D01*
X10298214Y-16432214D01*
X10341071Y-16432214D01*
X10369643Y-16446500D01*
X10383928Y-16460786D01*
X10398214Y-16489357D01*
X10398214Y-16575071D01*
X10383928Y-16603643D01*
X10369643Y-16617929D01*
X10341071Y-16632214D01*
X10298214Y-16632214D01*
X10569643Y-16632214D02*
X10541071Y-16617929D01*
X10526786Y-16589357D01*
X10526786Y-16332214D01*
X10798214Y-16617929D02*
X10769643Y-16632214D01*
X10712500Y-16632214D01*
X10683928Y-16617929D01*
X10669643Y-16589357D01*
X10669643Y-16475071D01*
X10683928Y-16446500D01*
X10712500Y-16432214D01*
X10769643Y-16432214D01*
X10798214Y-16446500D01*
X10812500Y-16475071D01*
X10812500Y-16503643D01*
X10669643Y-16532214D01*
X10926786Y-16617929D02*
X10955357Y-16632214D01*
X11012500Y-16632214D01*
X11041071Y-16617929D01*
X11055357Y-16589357D01*
X11055357Y-16575071D01*
X11041071Y-16546500D01*
X11012500Y-16532214D01*
X10969643Y-16532214D01*
X10941071Y-16517929D01*
X10926786Y-16489357D01*
X10926786Y-16475071D01*
X10941071Y-16446500D01*
X10969643Y-16432214D01*
X11012500Y-16432214D01*
X11041071Y-16446500D01*
X11155357Y-16746500D02*
X11169643Y-16732214D01*
X11198214Y-16689357D01*
X11212500Y-16660786D01*
X11226786Y-16617929D01*
X11241071Y-16546500D01*
X11241071Y-16489357D01*
X11226786Y-16417929D01*
X11212500Y-16375071D01*
X11198214Y-16346500D01*
X11169643Y-16303643D01*
X11155357Y-16289357D01*
X3877500Y-16782500D02*
X4097500Y-17002500D01*
X4097500Y-16782500D02*
X3877500Y-17002500D01*
X4097500Y-16892500D02*
G75*
G03*
X4097500Y-16892500I-110000J0D01*
G01*
X4369643Y-16756786D02*
X4383928Y-16742500D01*
X4412500Y-16728214D01*
X4483928Y-16728214D01*
X4512500Y-16742500D01*
X4526786Y-16756786D01*
X4541071Y-16785357D01*
X4541071Y-16813929D01*
X4526786Y-16856786D01*
X4355357Y-17028214D01*
X4541071Y-17028214D01*
X4669643Y-16999643D02*
X4683928Y-17013929D01*
X4669643Y-17028214D01*
X4655357Y-17013929D01*
X4669643Y-16999643D01*
X4669643Y-17028214D01*
X4798214Y-16756786D02*
X4812500Y-16742500D01*
X4841071Y-16728214D01*
X4912500Y-16728214D01*
X4941071Y-16742500D01*
X4955357Y-16756786D01*
X4969643Y-16785357D01*
X4969643Y-16813929D01*
X4955357Y-16856786D01*
X4783928Y-17028214D01*
X4969643Y-17028214D01*
X5155357Y-16728214D02*
X5183928Y-16728214D01*
X5212500Y-16742500D01*
X5226786Y-16756786D01*
X5241071Y-16785357D01*
X5255357Y-16842500D01*
X5255357Y-16913929D01*
X5241071Y-16971072D01*
X5226786Y-16999643D01*
X5212500Y-17013929D01*
X5183928Y-17028214D01*
X5155357Y-17028214D01*
X5126786Y-17013929D01*
X5112500Y-16999643D01*
X5098214Y-16971072D01*
X5083928Y-16913929D01*
X5083928Y-16842500D01*
X5098214Y-16785357D01*
X5112500Y-16756786D01*
X5126786Y-16742500D01*
X5155357Y-16728214D01*
X5441071Y-16728214D02*
X5469643Y-16728214D01*
X5498214Y-16742500D01*
X5512500Y-16756786D01*
X5526786Y-16785357D01*
X5541071Y-16842500D01*
X5541071Y-16913929D01*
X5526786Y-16971072D01*
X5512500Y-16999643D01*
X5498214Y-17013929D01*
X5469643Y-17028214D01*
X5441071Y-17028214D01*
X5412500Y-17013929D01*
X5398214Y-16999643D01*
X5383928Y-16971072D01*
X5369643Y-16913929D01*
X5369643Y-16842500D01*
X5383928Y-16785357D01*
X5398214Y-16756786D01*
X5412500Y-16742500D01*
X5441071Y-16728214D01*
X5669643Y-17028214D02*
X5669643Y-16828214D01*
X5669643Y-16856786D02*
X5683928Y-16842500D01*
X5712500Y-16828214D01*
X5755357Y-16828214D01*
X5783928Y-16842500D01*
X5798214Y-16871072D01*
X5798214Y-17028214D01*
X5798214Y-16871072D02*
X5812500Y-16842500D01*
X5841071Y-16828214D01*
X5883928Y-16828214D01*
X5912500Y-16842500D01*
X5926786Y-16871072D01*
X5926786Y-17028214D01*
X6069643Y-17028214D02*
X6069643Y-16828214D01*
X6069643Y-16856786D02*
X6083928Y-16842500D01*
X6112500Y-16828214D01*
X6155357Y-16828214D01*
X6183928Y-16842500D01*
X6198214Y-16871072D01*
X6198214Y-17028214D01*
X6198214Y-16871072D02*
X6212500Y-16842500D01*
X6241071Y-16828214D01*
X6283928Y-16828214D01*
X6312500Y-16842500D01*
X6326786Y-16871072D01*
X6326786Y-17028214D01*
X6912500Y-16713929D02*
X6655357Y-17099643D01*
X7298214Y-16728214D02*
X7326786Y-16728214D01*
X7355357Y-16742500D01*
X7369643Y-16756786D01*
X7383928Y-16785357D01*
X7398214Y-16842500D01*
X7398214Y-16913929D01*
X7383928Y-16971072D01*
X7369643Y-16999643D01*
X7355357Y-17013929D01*
X7326786Y-17028214D01*
X7298214Y-17028214D01*
X7269643Y-17013929D01*
X7255357Y-16999643D01*
X7241071Y-16971072D01*
X7226786Y-16913929D01*
X7226786Y-16842500D01*
X7241071Y-16785357D01*
X7255357Y-16756786D01*
X7269643Y-16742500D01*
X7298214Y-16728214D01*
X7526786Y-16999643D02*
X7541071Y-17013929D01*
X7526786Y-17028214D01*
X7512500Y-17013929D01*
X7526786Y-16999643D01*
X7526786Y-17028214D01*
X7726786Y-16728214D02*
X7755357Y-16728214D01*
X7783928Y-16742500D01*
X7798214Y-16756786D01*
X7812500Y-16785357D01*
X7826786Y-16842500D01*
X7826786Y-16913929D01*
X7812500Y-16971072D01*
X7798214Y-16999643D01*
X7783928Y-17013929D01*
X7755357Y-17028214D01*
X7726786Y-17028214D01*
X7698214Y-17013929D01*
X7683928Y-16999643D01*
X7669643Y-16971072D01*
X7655357Y-16913929D01*
X7655357Y-16842500D01*
X7669643Y-16785357D01*
X7683928Y-16756786D01*
X7698214Y-16742500D01*
X7726786Y-16728214D01*
X7998214Y-16856786D02*
X7969643Y-16842500D01*
X7955357Y-16828214D01*
X7941071Y-16799643D01*
X7941071Y-16785357D01*
X7955357Y-16756786D01*
X7969643Y-16742500D01*
X7998214Y-16728214D01*
X8055357Y-16728214D01*
X8083928Y-16742500D01*
X8098214Y-16756786D01*
X8112500Y-16785357D01*
X8112500Y-16799643D01*
X8098214Y-16828214D01*
X8083928Y-16842500D01*
X8055357Y-16856786D01*
X7998214Y-16856786D01*
X7969643Y-16871072D01*
X7955357Y-16885357D01*
X7941071Y-16913929D01*
X7941071Y-16971072D01*
X7955357Y-16999643D01*
X7969643Y-17013929D01*
X7998214Y-17028214D01*
X8055357Y-17028214D01*
X8083928Y-17013929D01*
X8098214Y-16999643D01*
X8112500Y-16971072D01*
X8112500Y-16913929D01*
X8098214Y-16885357D01*
X8083928Y-16871072D01*
X8055357Y-16856786D01*
X8369643Y-16728214D02*
X8312500Y-16728214D01*
X8283928Y-16742500D01*
X8269643Y-16756786D01*
X8241071Y-16799643D01*
X8226786Y-16856786D01*
X8226786Y-16971072D01*
X8241071Y-16999643D01*
X8255357Y-17013929D01*
X8283928Y-17028214D01*
X8341071Y-17028214D01*
X8369643Y-17013929D01*
X8383928Y-16999643D01*
X8398214Y-16971072D01*
X8398214Y-16899643D01*
X8383928Y-16871072D01*
X8369643Y-16856786D01*
X8341071Y-16842500D01*
X8283928Y-16842500D01*
X8255357Y-16856786D01*
X8241071Y-16871072D01*
X8226786Y-16899643D01*
X8655357Y-16728214D02*
X8598214Y-16728214D01*
X8569643Y-16742500D01*
X8555357Y-16756786D01*
X8526786Y-16799643D01*
X8512500Y-16856786D01*
X8512500Y-16971072D01*
X8526786Y-16999643D01*
X8541071Y-17013929D01*
X8569643Y-17028214D01*
X8626786Y-17028214D01*
X8655357Y-17013929D01*
X8669643Y-16999643D01*
X8683928Y-16971072D01*
X8683928Y-16899643D01*
X8669643Y-16871072D01*
X8655357Y-16856786D01*
X8626786Y-16842500D01*
X8569643Y-16842500D01*
X8541071Y-16856786D01*
X8526786Y-16871072D01*
X8512500Y-16899643D01*
X8798214Y-16728214D02*
X8798214Y-16785357D01*
X8912500Y-16728214D02*
X8912500Y-16785357D01*
X9355357Y-17142500D02*
X9341071Y-17128214D01*
X9312500Y-17085357D01*
X9298214Y-17056786D01*
X9283928Y-17013929D01*
X9269643Y-16942500D01*
X9269643Y-16885357D01*
X9283928Y-16813929D01*
X9298214Y-16771071D01*
X9312500Y-16742500D01*
X9341071Y-16699643D01*
X9355357Y-16685357D01*
X9483928Y-17028214D02*
X9541071Y-17028214D01*
X9569643Y-17013929D01*
X9583928Y-16999643D01*
X9612500Y-16956786D01*
X9626786Y-16899643D01*
X9626786Y-16785357D01*
X9612500Y-16756786D01*
X9598214Y-16742500D01*
X9569643Y-16728214D01*
X9512500Y-16728214D01*
X9483928Y-16742500D01*
X9469643Y-16756786D01*
X9455357Y-16785357D01*
X9455357Y-16856786D01*
X9469643Y-16885357D01*
X9483928Y-16899643D01*
X9512500Y-16913929D01*
X9569643Y-16913929D01*
X9598214Y-16899643D01*
X9612500Y-16885357D01*
X9626786Y-16856786D01*
X9983928Y-17028214D02*
X9983928Y-16728214D01*
X10112500Y-17028214D02*
X10112500Y-16871072D01*
X10098214Y-16842500D01*
X10069643Y-16828214D01*
X10026786Y-16828214D01*
X9998214Y-16842500D01*
X9983928Y-16856786D01*
X10298214Y-17028214D02*
X10269643Y-17013929D01*
X10255357Y-16999643D01*
X10241071Y-16971072D01*
X10241071Y-16885357D01*
X10255357Y-16856786D01*
X10269643Y-16842500D01*
X10298214Y-16828214D01*
X10341071Y-16828214D01*
X10369643Y-16842500D01*
X10383928Y-16856786D01*
X10398214Y-16885357D01*
X10398214Y-16971072D01*
X10383928Y-16999643D01*
X10369643Y-17013929D01*
X10341071Y-17028214D01*
X10298214Y-17028214D01*
X10569643Y-17028214D02*
X10541071Y-17013929D01*
X10526786Y-16985357D01*
X10526786Y-16728214D01*
X10798214Y-17013929D02*
X10769643Y-17028214D01*
X10712500Y-17028214D01*
X10683928Y-17013929D01*
X10669643Y-16985357D01*
X10669643Y-16871072D01*
X10683928Y-16842500D01*
X10712500Y-16828214D01*
X10769643Y-16828214D01*
X10798214Y-16842500D01*
X10812500Y-16871072D01*
X10812500Y-16899643D01*
X10669643Y-16928214D01*
X10926786Y-17013929D02*
X10955357Y-17028214D01*
X11012500Y-17028214D01*
X11041071Y-17013929D01*
X11055357Y-16985357D01*
X11055357Y-16971072D01*
X11041071Y-16942500D01*
X11012500Y-16928214D01*
X10969643Y-16928214D01*
X10941071Y-16913929D01*
X10926786Y-16885357D01*
X10926786Y-16871072D01*
X10941071Y-16842500D01*
X10969643Y-16828214D01*
X11012500Y-16828214D01*
X11041071Y-16842500D01*
X11155357Y-17142500D02*
X11169643Y-17128214D01*
X11198214Y-17085357D01*
X11212500Y-17056786D01*
X11226786Y-17013929D01*
X11241071Y-16942500D01*
X11241071Y-16885357D01*
X11226786Y-16813929D01*
X11212500Y-16771071D01*
X11198214Y-16742500D01*
X11169643Y-16699643D01*
X11155357Y-16685357D01*
M02*
