%TF.GenerationSoftware,KiCad,Pcbnew,5.1.10*%
%TF.CreationDate,2021-06-21T22:36:55+02:00*%
%TF.ProjectId,supply,73757070-6c79-42e6-9b69-6361645f7063,rev?*%
%TF.SameCoordinates,Original*%
%TF.FileFunction,Copper,L1,Top*%
%TF.FilePolarity,Positive*%
%FSLAX46Y46*%
G04 Gerber Fmt 4.6, Leading zero omitted, Abs format (unit mm)*
G04 Created by KiCad (PCBNEW 5.1.10) date 2021-06-21 22:36:55*
%MOMM*%
%LPD*%
G01*
G04 APERTURE LIST*
%TA.AperFunction,ComponentPad*%
%ADD10O,1.700000X1.700000*%
%TD*%
%TA.AperFunction,ComponentPad*%
%ADD11R,1.700000X1.700000*%
%TD*%
%TA.AperFunction,ComponentPad*%
%ADD12C,3.800000*%
%TD*%
%TA.AperFunction,ComponentPad*%
%ADD13C,1.600000*%
%TD*%
%TA.AperFunction,ComponentPad*%
%ADD14O,1.600000X1.600000*%
%TD*%
%TA.AperFunction,ComponentPad*%
%ADD15C,2.000000*%
%TD*%
%TA.AperFunction,ComponentPad*%
%ADD16R,2.000000X2.000000*%
%TD*%
%TA.AperFunction,ComponentPad*%
%ADD17R,1.600000X1.600000*%
%TD*%
%TA.AperFunction,ComponentPad*%
%ADD18R,1.800000X1.800000*%
%TD*%
%TA.AperFunction,ComponentPad*%
%ADD19C,1.800000*%
%TD*%
%TA.AperFunction,ComponentPad*%
%ADD20O,2.000000X2.000000*%
%TD*%
%TA.AperFunction,ComponentPad*%
%ADD21R,1.350000X1.350000*%
%TD*%
%TA.AperFunction,ComponentPad*%
%ADD22O,1.350000X1.350000*%
%TD*%
%TA.AperFunction,SMDPad,CuDef*%
%ADD23O,0.600000X0.300000*%
%TD*%
%TA.AperFunction,SMDPad,CuDef*%
%ADD24O,0.300000X0.600000*%
%TD*%
%TA.AperFunction,SMDPad,CuDef*%
%ADD25R,0.755000X0.755000*%
%TD*%
%TA.AperFunction,ComponentPad*%
%ADD26C,0.377500*%
%TD*%
%TA.AperFunction,ViaPad*%
%ADD27C,0.800000*%
%TD*%
%TA.AperFunction,Conductor*%
%ADD28C,0.250000*%
%TD*%
%TA.AperFunction,NonConductor*%
%ADD29C,0.254000*%
%TD*%
%TA.AperFunction,NonConductor*%
%ADD30C,0.100000*%
%TD*%
G04 APERTURE END LIST*
D10*
%TO.P,BT1,2*%
%TO.N,GND*%
X47500000Y-117540000D03*
D11*
%TO.P,BT1,1*%
%TO.N,Net-(BT1-Pad1)*%
X47500000Y-115000000D03*
%TD*%
D12*
%TO.P,J2,1*%
%TO.N,Net-(C6-Pad1)*%
X101500000Y-99500000D03*
%TD*%
%TO.P,J3,1*%
%TO.N,Net-(C5-Pad1)*%
X101500000Y-91500000D03*
%TD*%
%TO.P,J4,1*%
%TO.N,GND*%
X101500000Y-107000000D03*
%TD*%
D13*
%TO.P,R3,1*%
%TO.N,Net-(C10-Pad2)*%
X95000000Y-102000000D03*
D14*
%TO.P,R3,2*%
%TO.N,Net-(C6-Pad1)*%
X95000000Y-109620000D03*
%TD*%
%TO.P,R4,2*%
%TO.N,Net-(C10-Pad2)*%
X95000000Y-98620000D03*
D13*
%TO.P,R4,1*%
%TO.N,Net-(C5-Pad1)*%
X95000000Y-91000000D03*
%TD*%
D15*
%TO.P,TR1,6*%
%TO.N,Net-(C5-Pad2)*%
X84000000Y-93380000D03*
D16*
%TO.P,TR1,1*%
%TO.N,Net-(TR1-Pad1)*%
X71300000Y-93380000D03*
D15*
%TO.P,TR1,5*%
%TO.N,Net-(TR1-Pad5)*%
X84000000Y-101000000D03*
%TO.P,TR1,2*%
%TO.N,Net-(TR1-Pad2)*%
X71300000Y-101000000D03*
%TO.P,TR1,4*%
%TO.N,Net-(C6-Pad2)*%
X84000000Y-108620000D03*
%TO.P,TR1,3*%
%TO.N,GND*%
X71300000Y-108620000D03*
%TD*%
D12*
%TO.P,J6,1*%
%TO.N,Net-(J6-Pad1)*%
X45500000Y-135500000D03*
%TD*%
%TO.P,J7,1*%
%TO.N,Net-(J7-Pad1)*%
X107000000Y-135500000D03*
%TD*%
%TO.P,J8,1*%
%TO.N,Net-(J8-Pad1)*%
X45500000Y-89000000D03*
%TD*%
%TO.P,J9,1*%
%TO.N,Net-(J9-Pad1)*%
X107000000Y-89000000D03*
%TD*%
D13*
%TO.P,C1,2*%
%TO.N,GND*%
X52500000Y-117500000D03*
%TO.P,C1,1*%
%TO.N,Net-(BT1-Pad1)*%
X52500000Y-115000000D03*
%TD*%
%TO.P,C2,2*%
%TO.N,GND*%
X52500000Y-120500000D03*
%TO.P,C2,1*%
%TO.N,VCC*%
X52500000Y-123000000D03*
%TD*%
%TO.P,C3,1*%
%TO.N,Net-(C3-Pad1)*%
X95000000Y-114500000D03*
%TO.P,C3,2*%
%TO.N,GND*%
X97500000Y-114500000D03*
%TD*%
%TO.P,C4,1*%
%TO.N,Net-(C4-Pad1)*%
X52500000Y-128000000D03*
%TO.P,C4,2*%
%TO.N,GND*%
X52500000Y-125500000D03*
%TD*%
%TO.P,C5,1*%
%TO.N,Net-(C5-Pad1)*%
X89000000Y-91500000D03*
%TO.P,C5,2*%
%TO.N,Net-(C5-Pad2)*%
X89000000Y-94000000D03*
%TD*%
%TO.P,C6,2*%
%TO.N,Net-(C6-Pad2)*%
X89000000Y-110000000D03*
%TO.P,C6,1*%
%TO.N,Net-(C6-Pad1)*%
X89000000Y-107500000D03*
%TD*%
%TO.P,C7,2*%
%TO.N,GND*%
X59000000Y-115000000D03*
%TO.P,C7,1*%
%TO.N,Net-(C7-Pad1)*%
X59000000Y-117500000D03*
%TD*%
%TO.P,C8,1*%
%TO.N,Net-(C7-Pad1)*%
X59000000Y-120500000D03*
%TO.P,C8,2*%
%TO.N,Net-(C8-Pad2)*%
X59000000Y-123000000D03*
%TD*%
%TO.P,C9,2*%
%TO.N,Net-(C10-Pad2)*%
X97500000Y-119500000D03*
%TO.P,C9,1*%
%TO.N,GND*%
X95000000Y-119500000D03*
%TD*%
%TO.P,C10,1*%
%TO.N,GND*%
X94500000Y-128000000D03*
%TO.P,C10,2*%
%TO.N,Net-(C10-Pad2)*%
X94500000Y-125500000D03*
%TD*%
D17*
%TO.P,D1,1*%
%TO.N,Net-(C10-Pad2)*%
X67880000Y-114000000D03*
D14*
%TO.P,D1,2*%
%TO.N,Net-(D1-Pad2)*%
X75500000Y-114000000D03*
%TD*%
D18*
%TO.P,D2,1*%
%TO.N,GND*%
X101500000Y-126500000D03*
D19*
%TO.P,D2,2*%
%TO.N,Net-(C10-Pad2)*%
X101500000Y-123960000D03*
%TD*%
D15*
%TO.P,L1,1*%
%TO.N,VCC*%
X65275000Y-121325000D03*
D20*
%TO.P,L1,2*%
%TO.N,Net-(D1-Pad2)*%
X77975000Y-121325000D03*
%TD*%
D14*
%TO.P,R1,2*%
%TO.N,GND*%
X90620000Y-119500000D03*
D13*
%TO.P,R1,1*%
%TO.N,Net-(R1-Pad1)*%
X83000000Y-119500000D03*
%TD*%
%TO.P,R2,1*%
%TO.N,Net-(C8-Pad2)*%
X82880000Y-114500000D03*
D14*
%TO.P,R2,2*%
%TO.N,GND*%
X90500000Y-114500000D03*
%TD*%
D13*
%TO.P,R5,1*%
%TO.N,Net-(C10-Pad2)*%
X84000000Y-123500000D03*
D14*
%TO.P,R5,2*%
%TO.N,Net-(R5-Pad2)*%
X84000000Y-131120000D03*
%TD*%
%TO.P,R6,2*%
%TO.N,GND*%
X88500000Y-123500000D03*
D13*
%TO.P,R6,1*%
%TO.N,Net-(R5-Pad2)*%
X88500000Y-131120000D03*
%TD*%
D21*
%TO.P,SW1,1*%
%TO.N,Net-(BT1-Pad1)*%
X47500000Y-122500000D03*
D22*
%TO.P,SW1,2*%
%TO.N,VCC*%
X47500000Y-124500000D03*
%TD*%
D23*
%TO.P,U1,1*%
%TO.N,GND*%
X70102500Y-127128000D03*
%TO.P,U1,2*%
%TO.N,Net-(C3-Pad1)*%
X70102500Y-127628000D03*
%TO.P,U1,3*%
%TO.N,VCC*%
X70102500Y-128128000D03*
%TO.P,U1,4*%
%TO.N,Net-(U1-Pad4)*%
X70102500Y-128628000D03*
D24*
%TO.P,U1,5*%
%TO.N,Net-(R1-Pad1)*%
X70627500Y-129153000D03*
%TO.P,U1,6*%
%TO.N,VCC*%
X71127500Y-129153000D03*
%TO.P,U1,7*%
%TO.N,GND*%
X71627500Y-129153000D03*
%TO.P,U1,8*%
%TO.N,Net-(C7-Pad1)*%
X72127500Y-129153000D03*
D23*
%TO.P,U1,9*%
%TO.N,Net-(R5-Pad2)*%
X72652500Y-128628000D03*
%TO.P,U1,10*%
%TO.N,Net-(C4-Pad1)*%
X72652500Y-128128000D03*
%TO.P,U1,11*%
%TO.N,GND*%
X72652500Y-127628000D03*
%TO.P,U1,12*%
%TO.N,Net-(D1-Pad2)*%
X72652500Y-127128000D03*
D24*
%TO.P,U1,13*%
X72127500Y-126603000D03*
%TO.P,U1,14*%
X71627500Y-126603000D03*
%TO.P,U1,15*%
%TO.N,Net-(U1-Pad15)*%
X71127500Y-126603000D03*
%TO.P,U1,16*%
%TO.N,GND*%
X70627500Y-126603000D03*
D25*
%TO.P,U1,17*%
X71000000Y-127500500D03*
X71000000Y-128255500D03*
X71755000Y-127500500D03*
X71755000Y-128255500D03*
D26*
X71000000Y-127500500D03*
X71000000Y-128255500D03*
X71755000Y-127500500D03*
X71755000Y-128255500D03*
%TD*%
D12*
%TO.P,J1,1*%
%TO.N,GND*%
X47825000Y-96675000D03*
%TD*%
%TO.P,J5,1*%
%TO.N,Net-(J5-Pad1)*%
X47825000Y-102025000D03*
%TD*%
D13*
%TO.P,C11,1*%
%TO.N,Net-(C11-Pad1)*%
X52000000Y-90000000D03*
%TO.P,C11,2*%
%TO.N,GND*%
X52000000Y-92500000D03*
%TD*%
%TO.P,R7,1*%
%TO.N,Net-(R7-Pad1)*%
X54000000Y-105120000D03*
D14*
%TO.P,R7,2*%
%TO.N,Net-(C11-Pad1)*%
X54000000Y-97500000D03*
%TD*%
D11*
%TO.P,RV1,1*%
%TO.N,Net-(R7-Pad1)*%
X59000000Y-91000000D03*
D10*
%TO.P,RV1,2*%
%TO.N,Net-(J5-Pad1)*%
X61540000Y-91000000D03*
%TO.P,RV1,3*%
%TO.N,Net-(RV1-Pad3)*%
X64080000Y-91000000D03*
%TD*%
D17*
%TO.P,U2,1*%
%TO.N,Net-(U2-Pad1)*%
X58380000Y-97500000D03*
D14*
%TO.P,U2,5*%
%TO.N,Net-(U2-Pad5)*%
X66000000Y-105120000D03*
%TO.P,U2,2*%
%TO.N,Net-(R7-Pad1)*%
X58380000Y-100040000D03*
%TO.P,U2,6*%
%TO.N,Net-(J5-Pad1)*%
X66000000Y-102580000D03*
%TO.P,U2,3*%
%TO.N,Net-(TR1-Pad1)*%
X58380000Y-102580000D03*
%TO.P,U2,7*%
%TO.N,VCC*%
X66000000Y-100040000D03*
%TO.P,U2,4*%
%TO.N,GND*%
X58380000Y-105120000D03*
%TO.P,U2,8*%
%TO.N,Net-(U2-Pad8)*%
X66000000Y-97500000D03*
%TD*%
D27*
%TO.N,Net-(C4-Pad1)*%
X75000000Y-127500000D03*
%TD*%
D28*
%TO.N,GND*%
X72652500Y-127628000D02*
X72027200Y-127628000D01*
X71755000Y-127500500D02*
X71882400Y-127627900D01*
X71882400Y-127627900D02*
X72027200Y-127627900D01*
X72027200Y-127627900D02*
X72027200Y-127628000D01*
X70415200Y-127128000D02*
X70627500Y-126915700D01*
X70627500Y-126915700D02*
X70627500Y-126603000D01*
X70415200Y-127128000D02*
X70727800Y-127128000D01*
X70102500Y-127128000D02*
X70415200Y-127128000D01*
X71000000Y-127500500D02*
X70727800Y-127228300D01*
X70727800Y-127228300D02*
X70727800Y-127128000D01*
X71755000Y-128255500D02*
X71652100Y-128255500D01*
X71652100Y-128255500D02*
X71627500Y-128280100D01*
X71627500Y-128280100D02*
X71627500Y-129153000D01*
%TO.N,Net-(BT1-Pad1)*%
X52500000Y-115000000D02*
X47500000Y-115000000D01*
%TO.N,VCC*%
X71127500Y-129778300D02*
X59278300Y-129778300D01*
X59278300Y-129778300D02*
X52500000Y-123000000D01*
X71127500Y-129153000D02*
X71127500Y-129778300D01*
X69589800Y-128128000D02*
X65275000Y-123813200D01*
X65275000Y-123813200D02*
X65275000Y-121325000D01*
X47500000Y-124500000D02*
X48500300Y-124500000D01*
X52500000Y-123000000D02*
X50000300Y-123000000D01*
X50000300Y-123000000D02*
X48500300Y-124500000D01*
X70102500Y-128128000D02*
X69589800Y-128128000D01*
%TO.N,Net-(C3-Pad1)*%
X70102500Y-127628000D02*
X69763200Y-127628000D01*
X69763200Y-127628000D02*
X69456000Y-127320800D01*
X69456000Y-127320800D02*
X69456000Y-126938900D01*
X69456000Y-126938900D02*
X76444500Y-119950400D01*
X76444500Y-119950400D02*
X79974400Y-119950400D01*
X79974400Y-119950400D02*
X80651500Y-120627500D01*
X80651500Y-120627500D02*
X85964100Y-120627500D01*
X85964100Y-120627500D02*
X92091600Y-114500000D01*
X92091600Y-114500000D02*
X95000000Y-114500000D01*
%TO.N,Net-(C4-Pad1)*%
X74872000Y-127628000D02*
X75000000Y-127500000D01*
X74872000Y-128128000D02*
X74872000Y-127628000D01*
X72652500Y-128128000D02*
X74872000Y-128128000D01*
%TO.N,Net-(C7-Pad1)*%
X72127500Y-129153000D02*
X72127500Y-129778300D01*
X72127500Y-129778300D02*
X71642600Y-130263200D01*
X71642600Y-130263200D02*
X56563400Y-130263200D01*
X56563400Y-130263200D02*
X53174800Y-126874600D01*
X53174800Y-126874600D02*
X48430700Y-126874600D01*
X48430700Y-126874600D02*
X46499600Y-124943500D01*
X46499600Y-124943500D02*
X46499600Y-121607200D01*
X46499600Y-121607200D02*
X46607200Y-121499600D01*
X46607200Y-121499600D02*
X50034700Y-121499600D01*
X50034700Y-121499600D02*
X50222500Y-121687400D01*
X50222500Y-121687400D02*
X57812600Y-121687400D01*
X57812600Y-121687400D02*
X59000000Y-120500000D01*
%TO.N,Net-(C8-Pad2)*%
X82880000Y-114500000D02*
X81936000Y-115444000D01*
X81936000Y-115444000D02*
X66556000Y-115444000D01*
X66556000Y-115444000D02*
X59000000Y-123000000D01*
%TO.N,Net-(C10-Pad2)*%
X94500000Y-125500000D02*
X86000000Y-125500000D01*
X86000000Y-125500000D02*
X84000000Y-123500000D01*
X96374999Y-118374999D02*
X97500000Y-119500000D01*
X96374999Y-112660001D02*
X96374999Y-118374999D01*
X93874999Y-110160001D02*
X96374999Y-112660001D01*
X93874999Y-103125001D02*
X93874999Y-110160001D01*
X95000000Y-102000000D02*
X93874999Y-103125001D01*
%TO.N,Net-(D1-Pad2)*%
X72127500Y-126603000D02*
X72127500Y-125977700D01*
X77975000Y-121325000D02*
X76649700Y-121325000D01*
X76649700Y-121325000D02*
X76649700Y-121455500D01*
X76649700Y-121455500D02*
X72127500Y-125977700D01*
X72127500Y-126603000D02*
X72652500Y-127128000D01*
X71627500Y-126603000D02*
X72127500Y-126603000D01*
%TO.N,Net-(R1-Pad1)*%
X83000000Y-119500000D02*
X65220600Y-119500000D01*
X65220600Y-119500000D02*
X63916700Y-120803900D01*
X63916700Y-120803900D02*
X63916700Y-123270000D01*
X63916700Y-123270000D02*
X69799700Y-129153000D01*
X69799700Y-129153000D02*
X70627500Y-129153000D01*
%TO.N,Net-(R5-Pad2)*%
X84000000Y-131120000D02*
X82874700Y-131120000D01*
X72652500Y-128628000D02*
X80382700Y-128628000D01*
X80382700Y-128628000D02*
X82874700Y-131120000D01*
%TO.N,Net-(C11-Pad1)*%
X52000000Y-90834998D02*
X52000000Y-90000000D01*
X54000000Y-92834998D02*
X52000000Y-90834998D01*
X54000000Y-97500000D02*
X54000000Y-92834998D01*
%TO.N,Net-(R7-Pad1)*%
X59505001Y-91505001D02*
X59000000Y-91000000D01*
X59505001Y-98914999D02*
X59505001Y-91505001D01*
X58380000Y-100040000D02*
X59505001Y-98914999D01*
%TO.N,Net-(TR1-Pad1)*%
X67580000Y-93380000D02*
X71300000Y-93380000D01*
X58380000Y-102580000D02*
X67580000Y-93380000D01*
%TD*%
D29*
X110340001Y-138840000D02*
X41660000Y-138840000D01*
X41660000Y-135250324D01*
X42965000Y-135250324D01*
X42965000Y-135749676D01*
X43062418Y-136239432D01*
X43253512Y-136700773D01*
X43530937Y-137115968D01*
X43884032Y-137469063D01*
X44299227Y-137746488D01*
X44760568Y-137937582D01*
X45250324Y-138035000D01*
X45749676Y-138035000D01*
X46239432Y-137937582D01*
X46700773Y-137746488D01*
X47115968Y-137469063D01*
X47469063Y-137115968D01*
X47746488Y-136700773D01*
X47937582Y-136239432D01*
X48035000Y-135749676D01*
X48035000Y-135250324D01*
X104465000Y-135250324D01*
X104465000Y-135749676D01*
X104562418Y-136239432D01*
X104753512Y-136700773D01*
X105030937Y-137115968D01*
X105384032Y-137469063D01*
X105799227Y-137746488D01*
X106260568Y-137937582D01*
X106750324Y-138035000D01*
X107249676Y-138035000D01*
X107739432Y-137937582D01*
X108200773Y-137746488D01*
X108615968Y-137469063D01*
X108969063Y-137115968D01*
X109246488Y-136700773D01*
X109437582Y-136239432D01*
X109535000Y-135749676D01*
X109535000Y-135250324D01*
X109437582Y-134760568D01*
X109246488Y-134299227D01*
X108969063Y-133884032D01*
X108615968Y-133530937D01*
X108200773Y-133253512D01*
X107739432Y-133062418D01*
X107249676Y-132965000D01*
X106750324Y-132965000D01*
X106260568Y-133062418D01*
X105799227Y-133253512D01*
X105384032Y-133530937D01*
X105030937Y-133884032D01*
X104753512Y-134299227D01*
X104562418Y-134760568D01*
X104465000Y-135250324D01*
X48035000Y-135250324D01*
X47937582Y-134760568D01*
X47746488Y-134299227D01*
X47469063Y-133884032D01*
X47115968Y-133530937D01*
X46700773Y-133253512D01*
X46239432Y-133062418D01*
X45749676Y-132965000D01*
X45250324Y-132965000D01*
X44760568Y-133062418D01*
X44299227Y-133253512D01*
X43884032Y-133530937D01*
X43530937Y-133884032D01*
X43253512Y-134299227D01*
X43062418Y-134760568D01*
X42965000Y-135250324D01*
X41660000Y-135250324D01*
X41660000Y-121607200D01*
X45735924Y-121607200D01*
X45739601Y-121644532D01*
X45739600Y-124906177D01*
X45735924Y-124943500D01*
X45739600Y-124980822D01*
X45739600Y-124980832D01*
X45750597Y-125092485D01*
X45784893Y-125205546D01*
X45794054Y-125235746D01*
X45864626Y-125367776D01*
X45904471Y-125416326D01*
X45959599Y-125483501D01*
X45988603Y-125507304D01*
X47866900Y-127385602D01*
X47890699Y-127414601D01*
X48006424Y-127509574D01*
X48138453Y-127580146D01*
X48281714Y-127623603D01*
X48393367Y-127634600D01*
X48393377Y-127634600D01*
X48430700Y-127638276D01*
X48468023Y-127634600D01*
X51109570Y-127634600D01*
X51065000Y-127858665D01*
X51065000Y-128141335D01*
X51120147Y-128418574D01*
X51228320Y-128679727D01*
X51385363Y-128914759D01*
X51585241Y-129114637D01*
X51820273Y-129271680D01*
X52081426Y-129379853D01*
X52358665Y-129435000D01*
X52641335Y-129435000D01*
X52918574Y-129379853D01*
X53179727Y-129271680D01*
X53414759Y-129114637D01*
X53614637Y-128914759D01*
X53771680Y-128679727D01*
X53810765Y-128585367D01*
X55999601Y-130774203D01*
X56023399Y-130803201D01*
X56052397Y-130826999D01*
X56139123Y-130898174D01*
X56271153Y-130968746D01*
X56414414Y-131012203D01*
X56526067Y-131023200D01*
X56526076Y-131023200D01*
X56563399Y-131026876D01*
X56600722Y-131023200D01*
X71605278Y-131023200D01*
X71642600Y-131026876D01*
X71679922Y-131023200D01*
X71679933Y-131023200D01*
X71791586Y-131012203D01*
X71934847Y-130968746D01*
X72066876Y-130898174D01*
X72182601Y-130803201D01*
X72206404Y-130774197D01*
X72638497Y-130342104D01*
X72667501Y-130318301D01*
X72727531Y-130245154D01*
X72762474Y-130202577D01*
X72833046Y-130070547D01*
X72833046Y-130070546D01*
X72876503Y-129927286D01*
X72887500Y-129815633D01*
X72887500Y-129815624D01*
X72891176Y-129778301D01*
X72887500Y-129740978D01*
X72887500Y-129501855D01*
X72901141Y-129456886D01*
X72906094Y-129406595D01*
X72956387Y-129401641D01*
X73001355Y-129388000D01*
X80067899Y-129388000D01*
X82310901Y-131631003D01*
X82334699Y-131660001D01*
X82450424Y-131754974D01*
X82582453Y-131825546D01*
X82725714Y-131869003D01*
X82778053Y-131874158D01*
X82885363Y-132034759D01*
X83085241Y-132234637D01*
X83320273Y-132391680D01*
X83581426Y-132499853D01*
X83858665Y-132555000D01*
X84141335Y-132555000D01*
X84418574Y-132499853D01*
X84679727Y-132391680D01*
X84914759Y-132234637D01*
X85114637Y-132034759D01*
X85271680Y-131799727D01*
X85379853Y-131538574D01*
X85435000Y-131261335D01*
X85435000Y-130978665D01*
X87065000Y-130978665D01*
X87065000Y-131261335D01*
X87120147Y-131538574D01*
X87228320Y-131799727D01*
X87385363Y-132034759D01*
X87585241Y-132234637D01*
X87820273Y-132391680D01*
X88081426Y-132499853D01*
X88358665Y-132555000D01*
X88641335Y-132555000D01*
X88918574Y-132499853D01*
X89179727Y-132391680D01*
X89414759Y-132234637D01*
X89614637Y-132034759D01*
X89771680Y-131799727D01*
X89879853Y-131538574D01*
X89935000Y-131261335D01*
X89935000Y-130978665D01*
X89879853Y-130701426D01*
X89771680Y-130440273D01*
X89614637Y-130205241D01*
X89414759Y-130005363D01*
X89179727Y-129848320D01*
X88918574Y-129740147D01*
X88641335Y-129685000D01*
X88358665Y-129685000D01*
X88081426Y-129740147D01*
X87820273Y-129848320D01*
X87585241Y-130005363D01*
X87385363Y-130205241D01*
X87228320Y-130440273D01*
X87120147Y-130701426D01*
X87065000Y-130978665D01*
X85435000Y-130978665D01*
X85379853Y-130701426D01*
X85271680Y-130440273D01*
X85114637Y-130205241D01*
X84914759Y-130005363D01*
X84679727Y-129848320D01*
X84418574Y-129740147D01*
X84141335Y-129685000D01*
X83858665Y-129685000D01*
X83581426Y-129740147D01*
X83320273Y-129848320D01*
X83085241Y-130005363D01*
X82960053Y-130130551D01*
X80946504Y-128117003D01*
X80922701Y-128087999D01*
X80806976Y-127993026D01*
X80674947Y-127922454D01*
X80531686Y-127878997D01*
X80420033Y-127868000D01*
X80420022Y-127868000D01*
X80382700Y-127864324D01*
X80345378Y-127868000D01*
X75967845Y-127868000D01*
X75995226Y-127801898D01*
X76035000Y-127601939D01*
X76035000Y-127398061D01*
X75995226Y-127198102D01*
X75917205Y-127009744D01*
X75803937Y-126840226D01*
X75659774Y-126696063D01*
X75490256Y-126582795D01*
X75301898Y-126504774D01*
X75101939Y-126465000D01*
X74898061Y-126465000D01*
X74698102Y-126504774D01*
X74509744Y-126582795D01*
X74340226Y-126696063D01*
X74196063Y-126840226D01*
X74082795Y-127009744D01*
X74004774Y-127198102D01*
X73970979Y-127368000D01*
X73550019Y-127368000D01*
X73576141Y-127281887D01*
X73591298Y-127128000D01*
X73576141Y-126974113D01*
X73531254Y-126826140D01*
X73458362Y-126689767D01*
X73360264Y-126570236D01*
X73240733Y-126472138D01*
X73104360Y-126399246D01*
X72956387Y-126354359D01*
X72953363Y-126354061D01*
X72901439Y-126302137D01*
X72901141Y-126299113D01*
X72896427Y-126283574D01*
X75821336Y-123358665D01*
X82565000Y-123358665D01*
X82565000Y-123641335D01*
X82620147Y-123918574D01*
X82728320Y-124179727D01*
X82885363Y-124414759D01*
X83085241Y-124614637D01*
X83320273Y-124771680D01*
X83581426Y-124879853D01*
X83858665Y-124935000D01*
X84141335Y-124935000D01*
X84323886Y-124898688D01*
X85436201Y-126011003D01*
X85459999Y-126040001D01*
X85488997Y-126063799D01*
X85575723Y-126134974D01*
X85678476Y-126189897D01*
X85707753Y-126205546D01*
X85851014Y-126249003D01*
X85962667Y-126260000D01*
X85962676Y-126260000D01*
X85999999Y-126263676D01*
X86037322Y-126260000D01*
X93281957Y-126260000D01*
X93385363Y-126414759D01*
X93585241Y-126614637D01*
X93787827Y-126750000D01*
X93585241Y-126885363D01*
X93385363Y-127085241D01*
X93228320Y-127320273D01*
X93120147Y-127581426D01*
X93065000Y-127858665D01*
X93065000Y-128141335D01*
X93120147Y-128418574D01*
X93228320Y-128679727D01*
X93385363Y-128914759D01*
X93585241Y-129114637D01*
X93820273Y-129271680D01*
X94081426Y-129379853D01*
X94358665Y-129435000D01*
X94641335Y-129435000D01*
X94918574Y-129379853D01*
X95179727Y-129271680D01*
X95414759Y-129114637D01*
X95614637Y-128914759D01*
X95771680Y-128679727D01*
X95879853Y-128418574D01*
X95935000Y-128141335D01*
X95935000Y-127858665D01*
X95879853Y-127581426D01*
X95771680Y-127320273D01*
X95614637Y-127085241D01*
X95414759Y-126885363D01*
X95212173Y-126750000D01*
X95414759Y-126614637D01*
X95614637Y-126414759D01*
X95771680Y-126179727D01*
X95879853Y-125918574D01*
X95935000Y-125641335D01*
X95935000Y-125600000D01*
X99961928Y-125600000D01*
X99961928Y-127400000D01*
X99974188Y-127524482D01*
X100010498Y-127644180D01*
X100069463Y-127754494D01*
X100148815Y-127851185D01*
X100245506Y-127930537D01*
X100355820Y-127989502D01*
X100475518Y-128025812D01*
X100600000Y-128038072D01*
X102400000Y-128038072D01*
X102524482Y-128025812D01*
X102644180Y-127989502D01*
X102754494Y-127930537D01*
X102851185Y-127851185D01*
X102930537Y-127754494D01*
X102989502Y-127644180D01*
X103025812Y-127524482D01*
X103038072Y-127400000D01*
X103038072Y-125600000D01*
X103025812Y-125475518D01*
X102989502Y-125355820D01*
X102930537Y-125245506D01*
X102851185Y-125148815D01*
X102754494Y-125069463D01*
X102644180Y-125010498D01*
X102625873Y-125004944D01*
X102692312Y-124938505D01*
X102860299Y-124687095D01*
X102976011Y-124407743D01*
X103035000Y-124111184D01*
X103035000Y-123808816D01*
X102976011Y-123512257D01*
X102860299Y-123232905D01*
X102692312Y-122981495D01*
X102478505Y-122767688D01*
X102227095Y-122599701D01*
X101947743Y-122483989D01*
X101651184Y-122425000D01*
X101348816Y-122425000D01*
X101052257Y-122483989D01*
X100772905Y-122599701D01*
X100521495Y-122767688D01*
X100307688Y-122981495D01*
X100139701Y-123232905D01*
X100023989Y-123512257D01*
X99965000Y-123808816D01*
X99965000Y-124111184D01*
X100023989Y-124407743D01*
X100139701Y-124687095D01*
X100307688Y-124938505D01*
X100374127Y-125004944D01*
X100355820Y-125010498D01*
X100245506Y-125069463D01*
X100148815Y-125148815D01*
X100069463Y-125245506D01*
X100010498Y-125355820D01*
X99974188Y-125475518D01*
X99961928Y-125600000D01*
X95935000Y-125600000D01*
X95935000Y-125358665D01*
X95879853Y-125081426D01*
X95771680Y-124820273D01*
X95614637Y-124585241D01*
X95414759Y-124385363D01*
X95179727Y-124228320D01*
X94918574Y-124120147D01*
X94641335Y-124065000D01*
X94358665Y-124065000D01*
X94081426Y-124120147D01*
X93820273Y-124228320D01*
X93585241Y-124385363D01*
X93385363Y-124585241D01*
X93281957Y-124740000D01*
X89227140Y-124740000D01*
X89414759Y-124614637D01*
X89614637Y-124414759D01*
X89771680Y-124179727D01*
X89879853Y-123918574D01*
X89935000Y-123641335D01*
X89935000Y-123358665D01*
X89879853Y-123081426D01*
X89771680Y-122820273D01*
X89614637Y-122585241D01*
X89414759Y-122385363D01*
X89179727Y-122228320D01*
X88918574Y-122120147D01*
X88641335Y-122065000D01*
X88358665Y-122065000D01*
X88081426Y-122120147D01*
X87820273Y-122228320D01*
X87585241Y-122385363D01*
X87385363Y-122585241D01*
X87228320Y-122820273D01*
X87120147Y-123081426D01*
X87065000Y-123358665D01*
X87065000Y-123641335D01*
X87120147Y-123918574D01*
X87228320Y-124179727D01*
X87385363Y-124414759D01*
X87585241Y-124614637D01*
X87772860Y-124740000D01*
X86314802Y-124740000D01*
X85398688Y-123823886D01*
X85435000Y-123641335D01*
X85435000Y-123358665D01*
X85379853Y-123081426D01*
X85271680Y-122820273D01*
X85114637Y-122585241D01*
X84914759Y-122385363D01*
X84679727Y-122228320D01*
X84418574Y-122120147D01*
X84141335Y-122065000D01*
X83858665Y-122065000D01*
X83581426Y-122120147D01*
X83320273Y-122228320D01*
X83085241Y-122385363D01*
X82885363Y-122585241D01*
X82728320Y-122820273D01*
X82620147Y-123081426D01*
X82565000Y-123358665D01*
X75821336Y-123358665D01*
X76758881Y-122421120D01*
X76932748Y-122594987D01*
X77200537Y-122773918D01*
X77498088Y-122897168D01*
X77813967Y-122960000D01*
X78136033Y-122960000D01*
X78451912Y-122897168D01*
X78749463Y-122773918D01*
X79017252Y-122594987D01*
X79244987Y-122367252D01*
X79423918Y-122099463D01*
X79547168Y-121801912D01*
X79610000Y-121486033D01*
X79610000Y-121163967D01*
X79547168Y-120848088D01*
X79490136Y-120710400D01*
X79659599Y-120710400D01*
X80087701Y-121138502D01*
X80111499Y-121167501D01*
X80140497Y-121191299D01*
X80227223Y-121262474D01*
X80344200Y-121325000D01*
X80359253Y-121333046D01*
X80502514Y-121376503D01*
X80614167Y-121387500D01*
X80614177Y-121387500D01*
X80651499Y-121391176D01*
X80688822Y-121387500D01*
X85926778Y-121387500D01*
X85964100Y-121391176D01*
X86001422Y-121387500D01*
X86001433Y-121387500D01*
X86113086Y-121376503D01*
X86256347Y-121333046D01*
X86388376Y-121262474D01*
X86504101Y-121167501D01*
X86527904Y-121138497D01*
X88307736Y-119358665D01*
X89185000Y-119358665D01*
X89185000Y-119641335D01*
X89240147Y-119918574D01*
X89348320Y-120179727D01*
X89505363Y-120414759D01*
X89705241Y-120614637D01*
X89940273Y-120771680D01*
X90201426Y-120879853D01*
X90478665Y-120935000D01*
X90761335Y-120935000D01*
X91038574Y-120879853D01*
X91299727Y-120771680D01*
X91534759Y-120614637D01*
X91734637Y-120414759D01*
X91891680Y-120179727D01*
X91999853Y-119918574D01*
X92055000Y-119641335D01*
X92055000Y-119358665D01*
X91999853Y-119081426D01*
X91891680Y-118820273D01*
X91734637Y-118585241D01*
X91534759Y-118385363D01*
X91299727Y-118228320D01*
X91038574Y-118120147D01*
X90761335Y-118065000D01*
X90478665Y-118065000D01*
X90201426Y-118120147D01*
X89940273Y-118228320D01*
X89705241Y-118385363D01*
X89505363Y-118585241D01*
X89348320Y-118820273D01*
X89240147Y-119081426D01*
X89185000Y-119358665D01*
X88307736Y-119358665D01*
X92406402Y-115260000D01*
X93781957Y-115260000D01*
X93885363Y-115414759D01*
X94085241Y-115614637D01*
X94320273Y-115771680D01*
X94581426Y-115879853D01*
X94858665Y-115935000D01*
X95141335Y-115935000D01*
X95418574Y-115879853D01*
X95615000Y-115798491D01*
X95615000Y-118201509D01*
X95418574Y-118120147D01*
X95141335Y-118065000D01*
X94858665Y-118065000D01*
X94581426Y-118120147D01*
X94320273Y-118228320D01*
X94085241Y-118385363D01*
X93885363Y-118585241D01*
X93728320Y-118820273D01*
X93620147Y-119081426D01*
X93565000Y-119358665D01*
X93565000Y-119641335D01*
X93620147Y-119918574D01*
X93728320Y-120179727D01*
X93885363Y-120414759D01*
X94085241Y-120614637D01*
X94320273Y-120771680D01*
X94581426Y-120879853D01*
X94858665Y-120935000D01*
X95141335Y-120935000D01*
X95418574Y-120879853D01*
X95679727Y-120771680D01*
X95914759Y-120614637D01*
X96114637Y-120414759D01*
X96250000Y-120212173D01*
X96385363Y-120414759D01*
X96585241Y-120614637D01*
X96820273Y-120771680D01*
X97081426Y-120879853D01*
X97358665Y-120935000D01*
X97641335Y-120935000D01*
X97918574Y-120879853D01*
X98179727Y-120771680D01*
X98414759Y-120614637D01*
X98614637Y-120414759D01*
X98771680Y-120179727D01*
X98879853Y-119918574D01*
X98935000Y-119641335D01*
X98935000Y-119358665D01*
X98879853Y-119081426D01*
X98771680Y-118820273D01*
X98614637Y-118585241D01*
X98414759Y-118385363D01*
X98179727Y-118228320D01*
X97918574Y-118120147D01*
X97641335Y-118065000D01*
X97358665Y-118065000D01*
X97176113Y-118101312D01*
X97134999Y-118060198D01*
X97134999Y-115890509D01*
X97358665Y-115935000D01*
X97641335Y-115935000D01*
X97918574Y-115879853D01*
X98179727Y-115771680D01*
X98414759Y-115614637D01*
X98614637Y-115414759D01*
X98771680Y-115179727D01*
X98879853Y-114918574D01*
X98935000Y-114641335D01*
X98935000Y-114358665D01*
X98879853Y-114081426D01*
X98771680Y-113820273D01*
X98614637Y-113585241D01*
X98414759Y-113385363D01*
X98179727Y-113228320D01*
X97918574Y-113120147D01*
X97641335Y-113065000D01*
X97358665Y-113065000D01*
X97134999Y-113109491D01*
X97134999Y-112697324D01*
X97138675Y-112660001D01*
X97134999Y-112622678D01*
X97134999Y-112622668D01*
X97124002Y-112511015D01*
X97080545Y-112367754D01*
X97009974Y-112235726D01*
X97009973Y-112235724D01*
X96938798Y-112148998D01*
X96915000Y-112120000D01*
X96886003Y-112096203D01*
X95680778Y-110890978D01*
X95914759Y-110734637D01*
X96114637Y-110534759D01*
X96271680Y-110299727D01*
X96379853Y-110038574D01*
X96435000Y-109761335D01*
X96435000Y-109478665D01*
X96379853Y-109201426D01*
X96271680Y-108940273D01*
X96114637Y-108705241D01*
X95914759Y-108505363D01*
X95679727Y-108348320D01*
X95418574Y-108240147D01*
X95141335Y-108185000D01*
X94858665Y-108185000D01*
X94634999Y-108229491D01*
X94634999Y-106750324D01*
X98965000Y-106750324D01*
X98965000Y-107249676D01*
X99062418Y-107739432D01*
X99253512Y-108200773D01*
X99530937Y-108615968D01*
X99884032Y-108969063D01*
X100299227Y-109246488D01*
X100760568Y-109437582D01*
X101250324Y-109535000D01*
X101749676Y-109535000D01*
X102239432Y-109437582D01*
X102700773Y-109246488D01*
X103115968Y-108969063D01*
X103469063Y-108615968D01*
X103746488Y-108200773D01*
X103937582Y-107739432D01*
X104035000Y-107249676D01*
X104035000Y-106750324D01*
X103937582Y-106260568D01*
X103746488Y-105799227D01*
X103469063Y-105384032D01*
X103115968Y-105030937D01*
X102700773Y-104753512D01*
X102239432Y-104562418D01*
X101749676Y-104465000D01*
X101250324Y-104465000D01*
X100760568Y-104562418D01*
X100299227Y-104753512D01*
X99884032Y-105030937D01*
X99530937Y-105384032D01*
X99253512Y-105799227D01*
X99062418Y-106260568D01*
X98965000Y-106750324D01*
X94634999Y-106750324D01*
X94634999Y-103439802D01*
X94676113Y-103398688D01*
X94858665Y-103435000D01*
X95141335Y-103435000D01*
X95418574Y-103379853D01*
X95679727Y-103271680D01*
X95914759Y-103114637D01*
X96114637Y-102914759D01*
X96271680Y-102679727D01*
X96379853Y-102418574D01*
X96435000Y-102141335D01*
X96435000Y-101858665D01*
X96379853Y-101581426D01*
X96271680Y-101320273D01*
X96114637Y-101085241D01*
X95914759Y-100885363D01*
X95679727Y-100728320D01*
X95418574Y-100620147D01*
X95141335Y-100565000D01*
X94858665Y-100565000D01*
X94581426Y-100620147D01*
X94320273Y-100728320D01*
X94085241Y-100885363D01*
X93885363Y-101085241D01*
X93728320Y-101320273D01*
X93620147Y-101581426D01*
X93565000Y-101858665D01*
X93565000Y-102141335D01*
X93601312Y-102323887D01*
X93364001Y-102561197D01*
X93334998Y-102585000D01*
X93279870Y-102652175D01*
X93240025Y-102700725D01*
X93229009Y-102721335D01*
X93169453Y-102832755D01*
X93125996Y-102976016D01*
X93114999Y-103087669D01*
X93114999Y-103087679D01*
X93111323Y-103125001D01*
X93114999Y-103162324D01*
X93115000Y-110122669D01*
X93111323Y-110160001D01*
X93125997Y-110308986D01*
X93169453Y-110452247D01*
X93240025Y-110584277D01*
X93311200Y-110671003D01*
X93334999Y-110700002D01*
X93363997Y-110723800D01*
X95614999Y-112974803D01*
X95614999Y-113201509D01*
X95418574Y-113120147D01*
X95141335Y-113065000D01*
X94858665Y-113065000D01*
X94581426Y-113120147D01*
X94320273Y-113228320D01*
X94085241Y-113385363D01*
X93885363Y-113585241D01*
X93781957Y-113740000D01*
X92128933Y-113740000D01*
X92091600Y-113736323D01*
X92054267Y-113740000D01*
X91942614Y-113750997D01*
X91799353Y-113794454D01*
X91766251Y-113812148D01*
X91614637Y-113585241D01*
X91414759Y-113385363D01*
X91179727Y-113228320D01*
X90918574Y-113120147D01*
X90641335Y-113065000D01*
X90358665Y-113065000D01*
X90081426Y-113120147D01*
X89820273Y-113228320D01*
X89585241Y-113385363D01*
X89385363Y-113585241D01*
X89228320Y-113820273D01*
X89120147Y-114081426D01*
X89065000Y-114358665D01*
X89065000Y-114641335D01*
X89120147Y-114918574D01*
X89228320Y-115179727D01*
X89385363Y-115414759D01*
X89585241Y-115614637D01*
X89775221Y-115741577D01*
X85649299Y-119867500D01*
X84390012Y-119867500D01*
X84435000Y-119641335D01*
X84435000Y-119358665D01*
X84379853Y-119081426D01*
X84271680Y-118820273D01*
X84114637Y-118585241D01*
X83914759Y-118385363D01*
X83679727Y-118228320D01*
X83418574Y-118120147D01*
X83141335Y-118065000D01*
X82858665Y-118065000D01*
X82581426Y-118120147D01*
X82320273Y-118228320D01*
X82085241Y-118385363D01*
X81885363Y-118585241D01*
X81781957Y-118740000D01*
X65257922Y-118740000D01*
X65220599Y-118736324D01*
X65183276Y-118740000D01*
X65183267Y-118740000D01*
X65071614Y-118750997D01*
X64928353Y-118794454D01*
X64796323Y-118865026D01*
X64735430Y-118915000D01*
X64680599Y-118959999D01*
X64656801Y-118988997D01*
X63405703Y-120240096D01*
X63376699Y-120263899D01*
X63321571Y-120331074D01*
X63281726Y-120379624D01*
X63228868Y-120478514D01*
X63211154Y-120511654D01*
X63167697Y-120654915D01*
X63156700Y-120766568D01*
X63156700Y-120766578D01*
X63153024Y-120803900D01*
X63156700Y-120841223D01*
X63156701Y-123232668D01*
X63153024Y-123270000D01*
X63156701Y-123307333D01*
X63167658Y-123418574D01*
X63167698Y-123418985D01*
X63211154Y-123562246D01*
X63281726Y-123694276D01*
X63335665Y-123760000D01*
X63376700Y-123810001D01*
X63405698Y-123833799D01*
X68590197Y-129018300D01*
X59593102Y-129018300D01*
X53898688Y-123323887D01*
X53935000Y-123141335D01*
X53935000Y-122858665D01*
X53879853Y-122581426D01*
X53824338Y-122447400D01*
X57675662Y-122447400D01*
X57620147Y-122581426D01*
X57565000Y-122858665D01*
X57565000Y-123141335D01*
X57620147Y-123418574D01*
X57728320Y-123679727D01*
X57885363Y-123914759D01*
X58085241Y-124114637D01*
X58320273Y-124271680D01*
X58581426Y-124379853D01*
X58858665Y-124435000D01*
X59141335Y-124435000D01*
X59418574Y-124379853D01*
X59679727Y-124271680D01*
X59914759Y-124114637D01*
X60114637Y-123914759D01*
X60271680Y-123679727D01*
X60379853Y-123418574D01*
X60435000Y-123141335D01*
X60435000Y-122858665D01*
X60398688Y-122676113D01*
X66870802Y-116204000D01*
X81898678Y-116204000D01*
X81936000Y-116207676D01*
X81973322Y-116204000D01*
X81973333Y-116204000D01*
X82084986Y-116193003D01*
X82228247Y-116149546D01*
X82360276Y-116078974D01*
X82476001Y-115984001D01*
X82499804Y-115954998D01*
X82556113Y-115898688D01*
X82738665Y-115935000D01*
X83021335Y-115935000D01*
X83298574Y-115879853D01*
X83559727Y-115771680D01*
X83794759Y-115614637D01*
X83994637Y-115414759D01*
X84151680Y-115179727D01*
X84259853Y-114918574D01*
X84315000Y-114641335D01*
X84315000Y-114358665D01*
X84259853Y-114081426D01*
X84151680Y-113820273D01*
X83994637Y-113585241D01*
X83794759Y-113385363D01*
X83559727Y-113228320D01*
X83298574Y-113120147D01*
X83021335Y-113065000D01*
X82738665Y-113065000D01*
X82461426Y-113120147D01*
X82200273Y-113228320D01*
X81965241Y-113385363D01*
X81765363Y-113585241D01*
X81608320Y-113820273D01*
X81500147Y-114081426D01*
X81445000Y-114358665D01*
X81445000Y-114641335D01*
X81453487Y-114684000D01*
X76768825Y-114684000D01*
X76771680Y-114679727D01*
X76879853Y-114418574D01*
X76935000Y-114141335D01*
X76935000Y-113858665D01*
X76879853Y-113581426D01*
X76771680Y-113320273D01*
X76614637Y-113085241D01*
X76414759Y-112885363D01*
X76179727Y-112728320D01*
X75918574Y-112620147D01*
X75641335Y-112565000D01*
X75358665Y-112565000D01*
X75081426Y-112620147D01*
X74820273Y-112728320D01*
X74585241Y-112885363D01*
X74385363Y-113085241D01*
X74228320Y-113320273D01*
X74120147Y-113581426D01*
X74065000Y-113858665D01*
X74065000Y-114141335D01*
X74120147Y-114418574D01*
X74228320Y-114679727D01*
X74231175Y-114684000D01*
X69318072Y-114684000D01*
X69318072Y-113200000D01*
X69305812Y-113075518D01*
X69269502Y-112955820D01*
X69210537Y-112845506D01*
X69131185Y-112748815D01*
X69034494Y-112669463D01*
X68924180Y-112610498D01*
X68804482Y-112574188D01*
X68680000Y-112561928D01*
X67080000Y-112561928D01*
X66955518Y-112574188D01*
X66835820Y-112610498D01*
X66725506Y-112669463D01*
X66628815Y-112748815D01*
X66549463Y-112845506D01*
X66490498Y-112955820D01*
X66454188Y-113075518D01*
X66441928Y-113200000D01*
X66441928Y-114691558D01*
X66407014Y-114694997D01*
X66263753Y-114738454D01*
X66131724Y-114809026D01*
X66015999Y-114903999D01*
X65992201Y-114932997D01*
X60435000Y-120490199D01*
X60435000Y-120358665D01*
X60379853Y-120081426D01*
X60271680Y-119820273D01*
X60114637Y-119585241D01*
X59914759Y-119385363D01*
X59679727Y-119228320D01*
X59418574Y-119120147D01*
X59141335Y-119065000D01*
X58858665Y-119065000D01*
X58581426Y-119120147D01*
X58320273Y-119228320D01*
X58085241Y-119385363D01*
X57885363Y-119585241D01*
X57728320Y-119820273D01*
X57620147Y-120081426D01*
X57565000Y-120358665D01*
X57565000Y-120641335D01*
X57601312Y-120823886D01*
X57497799Y-120927400D01*
X53876197Y-120927400D01*
X53879853Y-120918574D01*
X53935000Y-120641335D01*
X53935000Y-120358665D01*
X53879853Y-120081426D01*
X53771680Y-119820273D01*
X53614637Y-119585241D01*
X53414759Y-119385363D01*
X53179727Y-119228320D01*
X52918574Y-119120147D01*
X52641335Y-119065000D01*
X52358665Y-119065000D01*
X52081426Y-119120147D01*
X51820273Y-119228320D01*
X51585241Y-119385363D01*
X51385363Y-119585241D01*
X51228320Y-119820273D01*
X51120147Y-120081426D01*
X51065000Y-120358665D01*
X51065000Y-120641335D01*
X51120147Y-120918574D01*
X51123803Y-120927400D01*
X50535466Y-120927400D01*
X50458976Y-120864626D01*
X50326947Y-120794054D01*
X50183686Y-120750597D01*
X50072033Y-120739600D01*
X50072022Y-120739600D01*
X50034700Y-120735924D01*
X49997378Y-120739600D01*
X46644522Y-120739600D01*
X46607199Y-120735924D01*
X46569877Y-120739600D01*
X46569867Y-120739600D01*
X46458214Y-120750597D01*
X46314953Y-120794054D01*
X46182924Y-120864626D01*
X46067199Y-120959599D01*
X46043399Y-120988599D01*
X45988596Y-121043402D01*
X45959600Y-121067199D01*
X45935802Y-121096197D01*
X45935801Y-121096198D01*
X45864626Y-121182924D01*
X45794054Y-121314954D01*
X45775384Y-121376503D01*
X45751422Y-121455500D01*
X45750598Y-121458215D01*
X45735924Y-121607200D01*
X41660000Y-121607200D01*
X41660000Y-114150000D01*
X46011928Y-114150000D01*
X46011928Y-115850000D01*
X46024188Y-115974482D01*
X46060498Y-116094180D01*
X46119463Y-116204494D01*
X46198815Y-116301185D01*
X46295506Y-116380537D01*
X46405820Y-116439502D01*
X46478380Y-116461513D01*
X46346525Y-116593368D01*
X46184010Y-116836589D01*
X46072068Y-117106842D01*
X46015000Y-117393740D01*
X46015000Y-117686260D01*
X46072068Y-117973158D01*
X46184010Y-118243411D01*
X46346525Y-118486632D01*
X46553368Y-118693475D01*
X46796589Y-118855990D01*
X47066842Y-118967932D01*
X47353740Y-119025000D01*
X47646260Y-119025000D01*
X47933158Y-118967932D01*
X48203411Y-118855990D01*
X48446632Y-118693475D01*
X48653475Y-118486632D01*
X48815990Y-118243411D01*
X48927932Y-117973158D01*
X48985000Y-117686260D01*
X48985000Y-117393740D01*
X48927932Y-117106842D01*
X48815990Y-116836589D01*
X48653475Y-116593368D01*
X48521620Y-116461513D01*
X48594180Y-116439502D01*
X48704494Y-116380537D01*
X48801185Y-116301185D01*
X48880537Y-116204494D01*
X48939502Y-116094180D01*
X48975812Y-115974482D01*
X48988072Y-115850000D01*
X48988072Y-115760000D01*
X51281957Y-115760000D01*
X51385363Y-115914759D01*
X51585241Y-116114637D01*
X51787827Y-116250000D01*
X51585241Y-116385363D01*
X51385363Y-116585241D01*
X51228320Y-116820273D01*
X51120147Y-117081426D01*
X51065000Y-117358665D01*
X51065000Y-117641335D01*
X51120147Y-117918574D01*
X51228320Y-118179727D01*
X51385363Y-118414759D01*
X51585241Y-118614637D01*
X51820273Y-118771680D01*
X52081426Y-118879853D01*
X52358665Y-118935000D01*
X52641335Y-118935000D01*
X52918574Y-118879853D01*
X53179727Y-118771680D01*
X53414759Y-118614637D01*
X53614637Y-118414759D01*
X53771680Y-118179727D01*
X53879853Y-117918574D01*
X53935000Y-117641335D01*
X53935000Y-117358665D01*
X53879853Y-117081426D01*
X53771680Y-116820273D01*
X53614637Y-116585241D01*
X53414759Y-116385363D01*
X53212173Y-116250000D01*
X53414759Y-116114637D01*
X53614637Y-115914759D01*
X53771680Y-115679727D01*
X53879853Y-115418574D01*
X53935000Y-115141335D01*
X53935000Y-114858665D01*
X57565000Y-114858665D01*
X57565000Y-115141335D01*
X57620147Y-115418574D01*
X57728320Y-115679727D01*
X57885363Y-115914759D01*
X58085241Y-116114637D01*
X58287827Y-116250000D01*
X58085241Y-116385363D01*
X57885363Y-116585241D01*
X57728320Y-116820273D01*
X57620147Y-117081426D01*
X57565000Y-117358665D01*
X57565000Y-117641335D01*
X57620147Y-117918574D01*
X57728320Y-118179727D01*
X57885363Y-118414759D01*
X58085241Y-118614637D01*
X58320273Y-118771680D01*
X58581426Y-118879853D01*
X58858665Y-118935000D01*
X59141335Y-118935000D01*
X59418574Y-118879853D01*
X59679727Y-118771680D01*
X59914759Y-118614637D01*
X60114637Y-118414759D01*
X60271680Y-118179727D01*
X60379853Y-117918574D01*
X60435000Y-117641335D01*
X60435000Y-117358665D01*
X60379853Y-117081426D01*
X60271680Y-116820273D01*
X60114637Y-116585241D01*
X59914759Y-116385363D01*
X59712173Y-116250000D01*
X59914759Y-116114637D01*
X60114637Y-115914759D01*
X60271680Y-115679727D01*
X60379853Y-115418574D01*
X60435000Y-115141335D01*
X60435000Y-114858665D01*
X60379853Y-114581426D01*
X60271680Y-114320273D01*
X60114637Y-114085241D01*
X59914759Y-113885363D01*
X59679727Y-113728320D01*
X59418574Y-113620147D01*
X59141335Y-113565000D01*
X58858665Y-113565000D01*
X58581426Y-113620147D01*
X58320273Y-113728320D01*
X58085241Y-113885363D01*
X57885363Y-114085241D01*
X57728320Y-114320273D01*
X57620147Y-114581426D01*
X57565000Y-114858665D01*
X53935000Y-114858665D01*
X53879853Y-114581426D01*
X53771680Y-114320273D01*
X53614637Y-114085241D01*
X53414759Y-113885363D01*
X53179727Y-113728320D01*
X52918574Y-113620147D01*
X52641335Y-113565000D01*
X52358665Y-113565000D01*
X52081426Y-113620147D01*
X51820273Y-113728320D01*
X51585241Y-113885363D01*
X51385363Y-114085241D01*
X51281957Y-114240000D01*
X48988072Y-114240000D01*
X48988072Y-114150000D01*
X48975812Y-114025518D01*
X48939502Y-113905820D01*
X48880537Y-113795506D01*
X48801185Y-113698815D01*
X48704494Y-113619463D01*
X48594180Y-113560498D01*
X48474482Y-113524188D01*
X48350000Y-113511928D01*
X46650000Y-113511928D01*
X46525518Y-113524188D01*
X46405820Y-113560498D01*
X46295506Y-113619463D01*
X46198815Y-113698815D01*
X46119463Y-113795506D01*
X46060498Y-113905820D01*
X46024188Y-114025518D01*
X46011928Y-114150000D01*
X41660000Y-114150000D01*
X41660000Y-108458967D01*
X69665000Y-108458967D01*
X69665000Y-108781033D01*
X69727832Y-109096912D01*
X69851082Y-109394463D01*
X70030013Y-109662252D01*
X70257748Y-109889987D01*
X70525537Y-110068918D01*
X70823088Y-110192168D01*
X71138967Y-110255000D01*
X71461033Y-110255000D01*
X71776912Y-110192168D01*
X72074463Y-110068918D01*
X72342252Y-109889987D01*
X72569987Y-109662252D01*
X72748918Y-109394463D01*
X72872168Y-109096912D01*
X72935000Y-108781033D01*
X72935000Y-108458967D01*
X82365000Y-108458967D01*
X82365000Y-108781033D01*
X82427832Y-109096912D01*
X82551082Y-109394463D01*
X82730013Y-109662252D01*
X82957748Y-109889987D01*
X83225537Y-110068918D01*
X83523088Y-110192168D01*
X83838967Y-110255000D01*
X84161033Y-110255000D01*
X84476912Y-110192168D01*
X84774463Y-110068918D01*
X85042252Y-109889987D01*
X85269987Y-109662252D01*
X85448918Y-109394463D01*
X85572168Y-109096912D01*
X85635000Y-108781033D01*
X85635000Y-108458967D01*
X85572168Y-108143088D01*
X85448918Y-107845537D01*
X85269987Y-107577748D01*
X85050904Y-107358665D01*
X87565000Y-107358665D01*
X87565000Y-107641335D01*
X87620147Y-107918574D01*
X87728320Y-108179727D01*
X87885363Y-108414759D01*
X88085241Y-108614637D01*
X88287827Y-108750000D01*
X88085241Y-108885363D01*
X87885363Y-109085241D01*
X87728320Y-109320273D01*
X87620147Y-109581426D01*
X87565000Y-109858665D01*
X87565000Y-110141335D01*
X87620147Y-110418574D01*
X87728320Y-110679727D01*
X87885363Y-110914759D01*
X88085241Y-111114637D01*
X88320273Y-111271680D01*
X88581426Y-111379853D01*
X88858665Y-111435000D01*
X89141335Y-111435000D01*
X89418574Y-111379853D01*
X89679727Y-111271680D01*
X89914759Y-111114637D01*
X90114637Y-110914759D01*
X90271680Y-110679727D01*
X90379853Y-110418574D01*
X90435000Y-110141335D01*
X90435000Y-109858665D01*
X90379853Y-109581426D01*
X90271680Y-109320273D01*
X90114637Y-109085241D01*
X89914759Y-108885363D01*
X89712173Y-108750000D01*
X89914759Y-108614637D01*
X90114637Y-108414759D01*
X90271680Y-108179727D01*
X90379853Y-107918574D01*
X90435000Y-107641335D01*
X90435000Y-107358665D01*
X90379853Y-107081426D01*
X90271680Y-106820273D01*
X90114637Y-106585241D01*
X89914759Y-106385363D01*
X89679727Y-106228320D01*
X89418574Y-106120147D01*
X89141335Y-106065000D01*
X88858665Y-106065000D01*
X88581426Y-106120147D01*
X88320273Y-106228320D01*
X88085241Y-106385363D01*
X87885363Y-106585241D01*
X87728320Y-106820273D01*
X87620147Y-107081426D01*
X87565000Y-107358665D01*
X85050904Y-107358665D01*
X85042252Y-107350013D01*
X84774463Y-107171082D01*
X84476912Y-107047832D01*
X84161033Y-106985000D01*
X83838967Y-106985000D01*
X83523088Y-107047832D01*
X83225537Y-107171082D01*
X82957748Y-107350013D01*
X82730013Y-107577748D01*
X82551082Y-107845537D01*
X82427832Y-108143088D01*
X82365000Y-108458967D01*
X72935000Y-108458967D01*
X72872168Y-108143088D01*
X72748918Y-107845537D01*
X72569987Y-107577748D01*
X72342252Y-107350013D01*
X72074463Y-107171082D01*
X71776912Y-107047832D01*
X71461033Y-106985000D01*
X71138967Y-106985000D01*
X70823088Y-107047832D01*
X70525537Y-107171082D01*
X70257748Y-107350013D01*
X70030013Y-107577748D01*
X69851082Y-107845537D01*
X69727832Y-108143088D01*
X69665000Y-108458967D01*
X41660000Y-108458967D01*
X41660000Y-104978665D01*
X52565000Y-104978665D01*
X52565000Y-105261335D01*
X52620147Y-105538574D01*
X52728320Y-105799727D01*
X52885363Y-106034759D01*
X53085241Y-106234637D01*
X53320273Y-106391680D01*
X53581426Y-106499853D01*
X53858665Y-106555000D01*
X54141335Y-106555000D01*
X54418574Y-106499853D01*
X54679727Y-106391680D01*
X54914759Y-106234637D01*
X55114637Y-106034759D01*
X55271680Y-105799727D01*
X55379853Y-105538574D01*
X55435000Y-105261335D01*
X55435000Y-104978665D01*
X55379853Y-104701426D01*
X55271680Y-104440273D01*
X55114637Y-104205241D01*
X54914759Y-104005363D01*
X54679727Y-103848320D01*
X54418574Y-103740147D01*
X54141335Y-103685000D01*
X53858665Y-103685000D01*
X53581426Y-103740147D01*
X53320273Y-103848320D01*
X53085241Y-104005363D01*
X52885363Y-104205241D01*
X52728320Y-104440273D01*
X52620147Y-104701426D01*
X52565000Y-104978665D01*
X41660000Y-104978665D01*
X41660000Y-101775324D01*
X45290000Y-101775324D01*
X45290000Y-102274676D01*
X45387418Y-102764432D01*
X45578512Y-103225773D01*
X45855937Y-103640968D01*
X46209032Y-103994063D01*
X46624227Y-104271488D01*
X47085568Y-104462582D01*
X47575324Y-104560000D01*
X48074676Y-104560000D01*
X48564432Y-104462582D01*
X49025773Y-104271488D01*
X49440968Y-103994063D01*
X49794063Y-103640968D01*
X50071488Y-103225773D01*
X50262582Y-102764432D01*
X50360000Y-102274676D01*
X50360000Y-101775324D01*
X50262582Y-101285568D01*
X50071488Y-100824227D01*
X49794063Y-100409032D01*
X49440968Y-100055937D01*
X49025773Y-99778512D01*
X48564432Y-99587418D01*
X48074676Y-99490000D01*
X47575324Y-99490000D01*
X47085568Y-99587418D01*
X46624227Y-99778512D01*
X46209032Y-100055937D01*
X45855937Y-100409032D01*
X45578512Y-100824227D01*
X45387418Y-101285568D01*
X45290000Y-101775324D01*
X41660000Y-101775324D01*
X41660000Y-96425324D01*
X45290000Y-96425324D01*
X45290000Y-96924676D01*
X45387418Y-97414432D01*
X45578512Y-97875773D01*
X45855937Y-98290968D01*
X46209032Y-98644063D01*
X46624227Y-98921488D01*
X47085568Y-99112582D01*
X47575324Y-99210000D01*
X48074676Y-99210000D01*
X48564432Y-99112582D01*
X49025773Y-98921488D01*
X49440968Y-98644063D01*
X49794063Y-98290968D01*
X50071488Y-97875773D01*
X50262582Y-97414432D01*
X50360000Y-96924676D01*
X50360000Y-96425324D01*
X50262582Y-95935568D01*
X50071488Y-95474227D01*
X49794063Y-95059032D01*
X49440968Y-94705937D01*
X49025773Y-94428512D01*
X48564432Y-94237418D01*
X48074676Y-94140000D01*
X47575324Y-94140000D01*
X47085568Y-94237418D01*
X46624227Y-94428512D01*
X46209032Y-94705937D01*
X45855937Y-95059032D01*
X45578512Y-95474227D01*
X45387418Y-95935568D01*
X45290000Y-96425324D01*
X41660000Y-96425324D01*
X41660000Y-88750324D01*
X42965000Y-88750324D01*
X42965000Y-89249676D01*
X43062418Y-89739432D01*
X43253512Y-90200773D01*
X43530937Y-90615968D01*
X43884032Y-90969063D01*
X44299227Y-91246488D01*
X44760568Y-91437582D01*
X45250324Y-91535000D01*
X45749676Y-91535000D01*
X46239432Y-91437582D01*
X46700773Y-91246488D01*
X47115968Y-90969063D01*
X47469063Y-90615968D01*
X47746488Y-90200773D01*
X47888193Y-89858665D01*
X50565000Y-89858665D01*
X50565000Y-90141335D01*
X50620147Y-90418574D01*
X50728320Y-90679727D01*
X50885363Y-90914759D01*
X51085241Y-91114637D01*
X51287827Y-91250000D01*
X51085241Y-91385363D01*
X50885363Y-91585241D01*
X50728320Y-91820273D01*
X50620147Y-92081426D01*
X50565000Y-92358665D01*
X50565000Y-92641335D01*
X50620147Y-92918574D01*
X50728320Y-93179727D01*
X50885363Y-93414759D01*
X51085241Y-93614637D01*
X51320273Y-93771680D01*
X51581426Y-93879853D01*
X51858665Y-93935000D01*
X52141335Y-93935000D01*
X52418574Y-93879853D01*
X52679727Y-93771680D01*
X52914759Y-93614637D01*
X53114637Y-93414759D01*
X53240001Y-93227138D01*
X53240000Y-96281956D01*
X53085241Y-96385363D01*
X52885363Y-96585241D01*
X52728320Y-96820273D01*
X52620147Y-97081426D01*
X52565000Y-97358665D01*
X52565000Y-97641335D01*
X52620147Y-97918574D01*
X52728320Y-98179727D01*
X52885363Y-98414759D01*
X53085241Y-98614637D01*
X53320273Y-98771680D01*
X53581426Y-98879853D01*
X53858665Y-98935000D01*
X54141335Y-98935000D01*
X54418574Y-98879853D01*
X54679727Y-98771680D01*
X54914759Y-98614637D01*
X55114637Y-98414759D01*
X55271680Y-98179727D01*
X55379853Y-97918574D01*
X55435000Y-97641335D01*
X55435000Y-97358665D01*
X55379853Y-97081426D01*
X55271680Y-96820273D01*
X55191317Y-96700000D01*
X56941928Y-96700000D01*
X56941928Y-98300000D01*
X56954188Y-98424482D01*
X56990498Y-98544180D01*
X57049463Y-98654494D01*
X57128815Y-98751185D01*
X57225506Y-98830537D01*
X57335820Y-98889502D01*
X57455518Y-98925812D01*
X57463961Y-98926643D01*
X57265363Y-99125241D01*
X57108320Y-99360273D01*
X57000147Y-99621426D01*
X56945000Y-99898665D01*
X56945000Y-100181335D01*
X57000147Y-100458574D01*
X57108320Y-100719727D01*
X57265363Y-100954759D01*
X57465241Y-101154637D01*
X57697759Y-101310000D01*
X57465241Y-101465363D01*
X57265363Y-101665241D01*
X57108320Y-101900273D01*
X57000147Y-102161426D01*
X56945000Y-102438665D01*
X56945000Y-102721335D01*
X57000147Y-102998574D01*
X57108320Y-103259727D01*
X57265363Y-103494759D01*
X57465241Y-103694637D01*
X57697759Y-103850000D01*
X57465241Y-104005363D01*
X57265363Y-104205241D01*
X57108320Y-104440273D01*
X57000147Y-104701426D01*
X56945000Y-104978665D01*
X56945000Y-105261335D01*
X57000147Y-105538574D01*
X57108320Y-105799727D01*
X57265363Y-106034759D01*
X57465241Y-106234637D01*
X57700273Y-106391680D01*
X57961426Y-106499853D01*
X58238665Y-106555000D01*
X58521335Y-106555000D01*
X58798574Y-106499853D01*
X59059727Y-106391680D01*
X59294759Y-106234637D01*
X59494637Y-106034759D01*
X59651680Y-105799727D01*
X59759853Y-105538574D01*
X59815000Y-105261335D01*
X59815000Y-104978665D01*
X59759853Y-104701426D01*
X59651680Y-104440273D01*
X59494637Y-104205241D01*
X59294759Y-104005363D01*
X59062241Y-103850000D01*
X59294759Y-103694637D01*
X59494637Y-103494759D01*
X59651680Y-103259727D01*
X59759853Y-102998574D01*
X59815000Y-102721335D01*
X59815000Y-102438665D01*
X59778688Y-102256113D01*
X64565000Y-97469802D01*
X64565000Y-97641335D01*
X64620147Y-97918574D01*
X64728320Y-98179727D01*
X64885363Y-98414759D01*
X65085241Y-98614637D01*
X65317759Y-98770000D01*
X65085241Y-98925363D01*
X64885363Y-99125241D01*
X64728320Y-99360273D01*
X64620147Y-99621426D01*
X64565000Y-99898665D01*
X64565000Y-100181335D01*
X64620147Y-100458574D01*
X64728320Y-100719727D01*
X64885363Y-100954759D01*
X65085241Y-101154637D01*
X65317759Y-101310000D01*
X65085241Y-101465363D01*
X64885363Y-101665241D01*
X64728320Y-101900273D01*
X64620147Y-102161426D01*
X64565000Y-102438665D01*
X64565000Y-102721335D01*
X64620147Y-102998574D01*
X64728320Y-103259727D01*
X64885363Y-103494759D01*
X65085241Y-103694637D01*
X65317759Y-103850000D01*
X65085241Y-104005363D01*
X64885363Y-104205241D01*
X64728320Y-104440273D01*
X64620147Y-104701426D01*
X64565000Y-104978665D01*
X64565000Y-105261335D01*
X64620147Y-105538574D01*
X64728320Y-105799727D01*
X64885363Y-106034759D01*
X65085241Y-106234637D01*
X65320273Y-106391680D01*
X65581426Y-106499853D01*
X65858665Y-106555000D01*
X66141335Y-106555000D01*
X66418574Y-106499853D01*
X66679727Y-106391680D01*
X66914759Y-106234637D01*
X67114637Y-106034759D01*
X67271680Y-105799727D01*
X67379853Y-105538574D01*
X67435000Y-105261335D01*
X67435000Y-104978665D01*
X67379853Y-104701426D01*
X67271680Y-104440273D01*
X67114637Y-104205241D01*
X66914759Y-104005363D01*
X66682241Y-103850000D01*
X66914759Y-103694637D01*
X67114637Y-103494759D01*
X67271680Y-103259727D01*
X67379853Y-102998574D01*
X67435000Y-102721335D01*
X67435000Y-102438665D01*
X67379853Y-102161426D01*
X67271680Y-101900273D01*
X67114637Y-101665241D01*
X66914759Y-101465363D01*
X66682241Y-101310000D01*
X66914759Y-101154637D01*
X67114637Y-100954759D01*
X67192006Y-100838967D01*
X69665000Y-100838967D01*
X69665000Y-101161033D01*
X69727832Y-101476912D01*
X69851082Y-101774463D01*
X70030013Y-102042252D01*
X70257748Y-102269987D01*
X70525537Y-102448918D01*
X70823088Y-102572168D01*
X71138967Y-102635000D01*
X71461033Y-102635000D01*
X71776912Y-102572168D01*
X72074463Y-102448918D01*
X72342252Y-102269987D01*
X72569987Y-102042252D01*
X72748918Y-101774463D01*
X72872168Y-101476912D01*
X72935000Y-101161033D01*
X72935000Y-100838967D01*
X82365000Y-100838967D01*
X82365000Y-101161033D01*
X82427832Y-101476912D01*
X82551082Y-101774463D01*
X82730013Y-102042252D01*
X82957748Y-102269987D01*
X83225537Y-102448918D01*
X83523088Y-102572168D01*
X83838967Y-102635000D01*
X84161033Y-102635000D01*
X84476912Y-102572168D01*
X84774463Y-102448918D01*
X85042252Y-102269987D01*
X85269987Y-102042252D01*
X85448918Y-101774463D01*
X85572168Y-101476912D01*
X85635000Y-101161033D01*
X85635000Y-100838967D01*
X85572168Y-100523088D01*
X85448918Y-100225537D01*
X85269987Y-99957748D01*
X85042252Y-99730013D01*
X84774463Y-99551082D01*
X84476912Y-99427832D01*
X84161033Y-99365000D01*
X83838967Y-99365000D01*
X83523088Y-99427832D01*
X83225537Y-99551082D01*
X82957748Y-99730013D01*
X82730013Y-99957748D01*
X82551082Y-100225537D01*
X82427832Y-100523088D01*
X82365000Y-100838967D01*
X72935000Y-100838967D01*
X72872168Y-100523088D01*
X72748918Y-100225537D01*
X72569987Y-99957748D01*
X72342252Y-99730013D01*
X72074463Y-99551082D01*
X71776912Y-99427832D01*
X71461033Y-99365000D01*
X71138967Y-99365000D01*
X70823088Y-99427832D01*
X70525537Y-99551082D01*
X70257748Y-99730013D01*
X70030013Y-99957748D01*
X69851082Y-100225537D01*
X69727832Y-100523088D01*
X69665000Y-100838967D01*
X67192006Y-100838967D01*
X67271680Y-100719727D01*
X67379853Y-100458574D01*
X67435000Y-100181335D01*
X67435000Y-99898665D01*
X67379853Y-99621426D01*
X67271680Y-99360273D01*
X67114637Y-99125241D01*
X66914759Y-98925363D01*
X66682241Y-98770000D01*
X66914759Y-98614637D01*
X67050731Y-98478665D01*
X93565000Y-98478665D01*
X93565000Y-98761335D01*
X93620147Y-99038574D01*
X93728320Y-99299727D01*
X93885363Y-99534759D01*
X94085241Y-99734637D01*
X94320273Y-99891680D01*
X94581426Y-99999853D01*
X94858665Y-100055000D01*
X95141335Y-100055000D01*
X95418574Y-99999853D01*
X95679727Y-99891680D01*
X95914759Y-99734637D01*
X96114637Y-99534759D01*
X96271680Y-99299727D01*
X96292143Y-99250324D01*
X98965000Y-99250324D01*
X98965000Y-99749676D01*
X99062418Y-100239432D01*
X99253512Y-100700773D01*
X99530937Y-101115968D01*
X99884032Y-101469063D01*
X100299227Y-101746488D01*
X100760568Y-101937582D01*
X101250324Y-102035000D01*
X101749676Y-102035000D01*
X102239432Y-101937582D01*
X102700773Y-101746488D01*
X103115968Y-101469063D01*
X103469063Y-101115968D01*
X103746488Y-100700773D01*
X103937582Y-100239432D01*
X104035000Y-99749676D01*
X104035000Y-99250324D01*
X103937582Y-98760568D01*
X103746488Y-98299227D01*
X103469063Y-97884032D01*
X103115968Y-97530937D01*
X102700773Y-97253512D01*
X102239432Y-97062418D01*
X101749676Y-96965000D01*
X101250324Y-96965000D01*
X100760568Y-97062418D01*
X100299227Y-97253512D01*
X99884032Y-97530937D01*
X99530937Y-97884032D01*
X99253512Y-98299227D01*
X99062418Y-98760568D01*
X98965000Y-99250324D01*
X96292143Y-99250324D01*
X96379853Y-99038574D01*
X96435000Y-98761335D01*
X96435000Y-98478665D01*
X96379853Y-98201426D01*
X96271680Y-97940273D01*
X96114637Y-97705241D01*
X95914759Y-97505363D01*
X95679727Y-97348320D01*
X95418574Y-97240147D01*
X95141335Y-97185000D01*
X94858665Y-97185000D01*
X94581426Y-97240147D01*
X94320273Y-97348320D01*
X94085241Y-97505363D01*
X93885363Y-97705241D01*
X93728320Y-97940273D01*
X93620147Y-98201426D01*
X93565000Y-98478665D01*
X67050731Y-98478665D01*
X67114637Y-98414759D01*
X67271680Y-98179727D01*
X67379853Y-97918574D01*
X67435000Y-97641335D01*
X67435000Y-97358665D01*
X67379853Y-97081426D01*
X67271680Y-96820273D01*
X67114637Y-96585241D01*
X66914759Y-96385363D01*
X66679727Y-96228320D01*
X66418574Y-96120147D01*
X66141335Y-96065000D01*
X65969802Y-96065000D01*
X67894802Y-94140000D01*
X69661928Y-94140000D01*
X69661928Y-94380000D01*
X69674188Y-94504482D01*
X69710498Y-94624180D01*
X69769463Y-94734494D01*
X69848815Y-94831185D01*
X69945506Y-94910537D01*
X70055820Y-94969502D01*
X70175518Y-95005812D01*
X70300000Y-95018072D01*
X72300000Y-95018072D01*
X72424482Y-95005812D01*
X72544180Y-94969502D01*
X72654494Y-94910537D01*
X72751185Y-94831185D01*
X72830537Y-94734494D01*
X72889502Y-94624180D01*
X72925812Y-94504482D01*
X72938072Y-94380000D01*
X72938072Y-93218967D01*
X82365000Y-93218967D01*
X82365000Y-93541033D01*
X82427832Y-93856912D01*
X82551082Y-94154463D01*
X82730013Y-94422252D01*
X82957748Y-94649987D01*
X83225537Y-94828918D01*
X83523088Y-94952168D01*
X83838967Y-95015000D01*
X84161033Y-95015000D01*
X84476912Y-94952168D01*
X84774463Y-94828918D01*
X85042252Y-94649987D01*
X85269987Y-94422252D01*
X85448918Y-94154463D01*
X85572168Y-93856912D01*
X85635000Y-93541033D01*
X85635000Y-93218967D01*
X85572168Y-92903088D01*
X85448918Y-92605537D01*
X85269987Y-92337748D01*
X85042252Y-92110013D01*
X84774463Y-91931082D01*
X84476912Y-91807832D01*
X84161033Y-91745000D01*
X83838967Y-91745000D01*
X83523088Y-91807832D01*
X83225537Y-91931082D01*
X82957748Y-92110013D01*
X82730013Y-92337748D01*
X82551082Y-92605537D01*
X82427832Y-92903088D01*
X82365000Y-93218967D01*
X72938072Y-93218967D01*
X72938072Y-92380000D01*
X72925812Y-92255518D01*
X72889502Y-92135820D01*
X72830537Y-92025506D01*
X72751185Y-91928815D01*
X72654494Y-91849463D01*
X72544180Y-91790498D01*
X72424482Y-91754188D01*
X72300000Y-91741928D01*
X70300000Y-91741928D01*
X70175518Y-91754188D01*
X70055820Y-91790498D01*
X69945506Y-91849463D01*
X69848815Y-91928815D01*
X69769463Y-92025506D01*
X69710498Y-92135820D01*
X69674188Y-92255518D01*
X69661928Y-92380000D01*
X69661928Y-92620000D01*
X67617325Y-92620000D01*
X67580000Y-92616324D01*
X67542675Y-92620000D01*
X67542667Y-92620000D01*
X67431014Y-92630997D01*
X67287753Y-92674454D01*
X67155724Y-92745026D01*
X67039999Y-92839999D01*
X67016201Y-92868997D01*
X59815000Y-100070199D01*
X59815000Y-99898665D01*
X59778688Y-99716114D01*
X60016005Y-99478797D01*
X60045002Y-99455000D01*
X60139975Y-99339275D01*
X60210547Y-99207246D01*
X60254004Y-99063985D01*
X60265001Y-98952332D01*
X60265001Y-98952324D01*
X60268677Y-98914999D01*
X60265001Y-98877674D01*
X60265001Y-92330880D01*
X60301185Y-92301185D01*
X60380537Y-92204494D01*
X60439502Y-92094180D01*
X60461513Y-92021620D01*
X60593368Y-92153475D01*
X60836589Y-92315990D01*
X61106842Y-92427932D01*
X61393740Y-92485000D01*
X61686260Y-92485000D01*
X61973158Y-92427932D01*
X62243411Y-92315990D01*
X62486632Y-92153475D01*
X62693475Y-91946632D01*
X62810000Y-91772240D01*
X62926525Y-91946632D01*
X63133368Y-92153475D01*
X63376589Y-92315990D01*
X63646842Y-92427932D01*
X63933740Y-92485000D01*
X64226260Y-92485000D01*
X64513158Y-92427932D01*
X64783411Y-92315990D01*
X65026632Y-92153475D01*
X65233475Y-91946632D01*
X65395990Y-91703411D01*
X65507932Y-91433158D01*
X65522749Y-91358665D01*
X87565000Y-91358665D01*
X87565000Y-91641335D01*
X87620147Y-91918574D01*
X87728320Y-92179727D01*
X87885363Y-92414759D01*
X88085241Y-92614637D01*
X88287827Y-92750000D01*
X88085241Y-92885363D01*
X87885363Y-93085241D01*
X87728320Y-93320273D01*
X87620147Y-93581426D01*
X87565000Y-93858665D01*
X87565000Y-94141335D01*
X87620147Y-94418574D01*
X87728320Y-94679727D01*
X87885363Y-94914759D01*
X88085241Y-95114637D01*
X88320273Y-95271680D01*
X88581426Y-95379853D01*
X88858665Y-95435000D01*
X89141335Y-95435000D01*
X89418574Y-95379853D01*
X89679727Y-95271680D01*
X89914759Y-95114637D01*
X90114637Y-94914759D01*
X90271680Y-94679727D01*
X90379853Y-94418574D01*
X90435000Y-94141335D01*
X90435000Y-93858665D01*
X90379853Y-93581426D01*
X90271680Y-93320273D01*
X90114637Y-93085241D01*
X89914759Y-92885363D01*
X89712173Y-92750000D01*
X89914759Y-92614637D01*
X90114637Y-92414759D01*
X90271680Y-92179727D01*
X90379853Y-91918574D01*
X90435000Y-91641335D01*
X90435000Y-91358665D01*
X90379853Y-91081426D01*
X90287583Y-90858665D01*
X93565000Y-90858665D01*
X93565000Y-91141335D01*
X93620147Y-91418574D01*
X93728320Y-91679727D01*
X93885363Y-91914759D01*
X94085241Y-92114637D01*
X94320273Y-92271680D01*
X94581426Y-92379853D01*
X94858665Y-92435000D01*
X95141335Y-92435000D01*
X95418574Y-92379853D01*
X95679727Y-92271680D01*
X95914759Y-92114637D01*
X96114637Y-91914759D01*
X96271680Y-91679727D01*
X96379853Y-91418574D01*
X96413320Y-91250324D01*
X98965000Y-91250324D01*
X98965000Y-91749676D01*
X99062418Y-92239432D01*
X99253512Y-92700773D01*
X99530937Y-93115968D01*
X99884032Y-93469063D01*
X100299227Y-93746488D01*
X100760568Y-93937582D01*
X101250324Y-94035000D01*
X101749676Y-94035000D01*
X102239432Y-93937582D01*
X102700773Y-93746488D01*
X103115968Y-93469063D01*
X103469063Y-93115968D01*
X103746488Y-92700773D01*
X103937582Y-92239432D01*
X104035000Y-91749676D01*
X104035000Y-91250324D01*
X103937582Y-90760568D01*
X103746488Y-90299227D01*
X103469063Y-89884032D01*
X103115968Y-89530937D01*
X102700773Y-89253512D01*
X102239432Y-89062418D01*
X101749676Y-88965000D01*
X101250324Y-88965000D01*
X100760568Y-89062418D01*
X100299227Y-89253512D01*
X99884032Y-89530937D01*
X99530937Y-89884032D01*
X99253512Y-90299227D01*
X99062418Y-90760568D01*
X98965000Y-91250324D01*
X96413320Y-91250324D01*
X96435000Y-91141335D01*
X96435000Y-90858665D01*
X96379853Y-90581426D01*
X96271680Y-90320273D01*
X96114637Y-90085241D01*
X95914759Y-89885363D01*
X95679727Y-89728320D01*
X95418574Y-89620147D01*
X95141335Y-89565000D01*
X94858665Y-89565000D01*
X94581426Y-89620147D01*
X94320273Y-89728320D01*
X94085241Y-89885363D01*
X93885363Y-90085241D01*
X93728320Y-90320273D01*
X93620147Y-90581426D01*
X93565000Y-90858665D01*
X90287583Y-90858665D01*
X90271680Y-90820273D01*
X90114637Y-90585241D01*
X89914759Y-90385363D01*
X89679727Y-90228320D01*
X89418574Y-90120147D01*
X89141335Y-90065000D01*
X88858665Y-90065000D01*
X88581426Y-90120147D01*
X88320273Y-90228320D01*
X88085241Y-90385363D01*
X87885363Y-90585241D01*
X87728320Y-90820273D01*
X87620147Y-91081426D01*
X87565000Y-91358665D01*
X65522749Y-91358665D01*
X65565000Y-91146260D01*
X65565000Y-90853740D01*
X65507932Y-90566842D01*
X65395990Y-90296589D01*
X65233475Y-90053368D01*
X65026632Y-89846525D01*
X64783411Y-89684010D01*
X64513158Y-89572068D01*
X64226260Y-89515000D01*
X63933740Y-89515000D01*
X63646842Y-89572068D01*
X63376589Y-89684010D01*
X63133368Y-89846525D01*
X62926525Y-90053368D01*
X62810000Y-90227760D01*
X62693475Y-90053368D01*
X62486632Y-89846525D01*
X62243411Y-89684010D01*
X61973158Y-89572068D01*
X61686260Y-89515000D01*
X61393740Y-89515000D01*
X61106842Y-89572068D01*
X60836589Y-89684010D01*
X60593368Y-89846525D01*
X60461513Y-89978380D01*
X60439502Y-89905820D01*
X60380537Y-89795506D01*
X60301185Y-89698815D01*
X60204494Y-89619463D01*
X60094180Y-89560498D01*
X59974482Y-89524188D01*
X59850000Y-89511928D01*
X58150000Y-89511928D01*
X58025518Y-89524188D01*
X57905820Y-89560498D01*
X57795506Y-89619463D01*
X57698815Y-89698815D01*
X57619463Y-89795506D01*
X57560498Y-89905820D01*
X57524188Y-90025518D01*
X57511928Y-90150000D01*
X57511928Y-91850000D01*
X57524188Y-91974482D01*
X57560498Y-92094180D01*
X57619463Y-92204494D01*
X57698815Y-92301185D01*
X57795506Y-92380537D01*
X57905820Y-92439502D01*
X58025518Y-92475812D01*
X58150000Y-92488072D01*
X58745002Y-92488072D01*
X58745001Y-96061928D01*
X57580000Y-96061928D01*
X57455518Y-96074188D01*
X57335820Y-96110498D01*
X57225506Y-96169463D01*
X57128815Y-96248815D01*
X57049463Y-96345506D01*
X56990498Y-96455820D01*
X56954188Y-96575518D01*
X56941928Y-96700000D01*
X55191317Y-96700000D01*
X55114637Y-96585241D01*
X54914759Y-96385363D01*
X54760000Y-96281957D01*
X54760000Y-92872320D01*
X54763676Y-92834997D01*
X54760000Y-92797674D01*
X54760000Y-92797665D01*
X54749003Y-92686012D01*
X54705546Y-92542751D01*
X54669766Y-92475812D01*
X54634974Y-92410721D01*
X54563799Y-92323995D01*
X54540001Y-92294997D01*
X54511003Y-92271199D01*
X53130629Y-90890826D01*
X53271680Y-90679727D01*
X53379853Y-90418574D01*
X53435000Y-90141335D01*
X53435000Y-89858665D01*
X53379853Y-89581426D01*
X53271680Y-89320273D01*
X53114637Y-89085241D01*
X52914759Y-88885363D01*
X52712659Y-88750324D01*
X104465000Y-88750324D01*
X104465000Y-89249676D01*
X104562418Y-89739432D01*
X104753512Y-90200773D01*
X105030937Y-90615968D01*
X105384032Y-90969063D01*
X105799227Y-91246488D01*
X106260568Y-91437582D01*
X106750324Y-91535000D01*
X107249676Y-91535000D01*
X107739432Y-91437582D01*
X108200773Y-91246488D01*
X108615968Y-90969063D01*
X108969063Y-90615968D01*
X109246488Y-90200773D01*
X109437582Y-89739432D01*
X109535000Y-89249676D01*
X109535000Y-88750324D01*
X109437582Y-88260568D01*
X109246488Y-87799227D01*
X108969063Y-87384032D01*
X108615968Y-87030937D01*
X108200773Y-86753512D01*
X107739432Y-86562418D01*
X107249676Y-86465000D01*
X106750324Y-86465000D01*
X106260568Y-86562418D01*
X105799227Y-86753512D01*
X105384032Y-87030937D01*
X105030937Y-87384032D01*
X104753512Y-87799227D01*
X104562418Y-88260568D01*
X104465000Y-88750324D01*
X52712659Y-88750324D01*
X52679727Y-88728320D01*
X52418574Y-88620147D01*
X52141335Y-88565000D01*
X51858665Y-88565000D01*
X51581426Y-88620147D01*
X51320273Y-88728320D01*
X51085241Y-88885363D01*
X50885363Y-89085241D01*
X50728320Y-89320273D01*
X50620147Y-89581426D01*
X50565000Y-89858665D01*
X47888193Y-89858665D01*
X47937582Y-89739432D01*
X48035000Y-89249676D01*
X48035000Y-88750324D01*
X47937582Y-88260568D01*
X47746488Y-87799227D01*
X47469063Y-87384032D01*
X47115968Y-87030937D01*
X46700773Y-86753512D01*
X46239432Y-86562418D01*
X45749676Y-86465000D01*
X45250324Y-86465000D01*
X44760568Y-86562418D01*
X44299227Y-86753512D01*
X43884032Y-87030937D01*
X43530937Y-87384032D01*
X43253512Y-87799227D01*
X43062418Y-88260568D01*
X42965000Y-88750324D01*
X41660000Y-88750324D01*
X41660000Y-85660000D01*
X110340000Y-85660000D01*
X110340001Y-138840000D01*
%TA.AperFunction,NonConductor*%
D30*
G36*
X110340001Y-138840000D02*
G01*
X41660000Y-138840000D01*
X41660000Y-135250324D01*
X42965000Y-135250324D01*
X42965000Y-135749676D01*
X43062418Y-136239432D01*
X43253512Y-136700773D01*
X43530937Y-137115968D01*
X43884032Y-137469063D01*
X44299227Y-137746488D01*
X44760568Y-137937582D01*
X45250324Y-138035000D01*
X45749676Y-138035000D01*
X46239432Y-137937582D01*
X46700773Y-137746488D01*
X47115968Y-137469063D01*
X47469063Y-137115968D01*
X47746488Y-136700773D01*
X47937582Y-136239432D01*
X48035000Y-135749676D01*
X48035000Y-135250324D01*
X104465000Y-135250324D01*
X104465000Y-135749676D01*
X104562418Y-136239432D01*
X104753512Y-136700773D01*
X105030937Y-137115968D01*
X105384032Y-137469063D01*
X105799227Y-137746488D01*
X106260568Y-137937582D01*
X106750324Y-138035000D01*
X107249676Y-138035000D01*
X107739432Y-137937582D01*
X108200773Y-137746488D01*
X108615968Y-137469063D01*
X108969063Y-137115968D01*
X109246488Y-136700773D01*
X109437582Y-136239432D01*
X109535000Y-135749676D01*
X109535000Y-135250324D01*
X109437582Y-134760568D01*
X109246488Y-134299227D01*
X108969063Y-133884032D01*
X108615968Y-133530937D01*
X108200773Y-133253512D01*
X107739432Y-133062418D01*
X107249676Y-132965000D01*
X106750324Y-132965000D01*
X106260568Y-133062418D01*
X105799227Y-133253512D01*
X105384032Y-133530937D01*
X105030937Y-133884032D01*
X104753512Y-134299227D01*
X104562418Y-134760568D01*
X104465000Y-135250324D01*
X48035000Y-135250324D01*
X47937582Y-134760568D01*
X47746488Y-134299227D01*
X47469063Y-133884032D01*
X47115968Y-133530937D01*
X46700773Y-133253512D01*
X46239432Y-133062418D01*
X45749676Y-132965000D01*
X45250324Y-132965000D01*
X44760568Y-133062418D01*
X44299227Y-133253512D01*
X43884032Y-133530937D01*
X43530937Y-133884032D01*
X43253512Y-134299227D01*
X43062418Y-134760568D01*
X42965000Y-135250324D01*
X41660000Y-135250324D01*
X41660000Y-121607200D01*
X45735924Y-121607200D01*
X45739601Y-121644532D01*
X45739600Y-124906177D01*
X45735924Y-124943500D01*
X45739600Y-124980822D01*
X45739600Y-124980832D01*
X45750597Y-125092485D01*
X45784893Y-125205546D01*
X45794054Y-125235746D01*
X45864626Y-125367776D01*
X45904471Y-125416326D01*
X45959599Y-125483501D01*
X45988603Y-125507304D01*
X47866900Y-127385602D01*
X47890699Y-127414601D01*
X48006424Y-127509574D01*
X48138453Y-127580146D01*
X48281714Y-127623603D01*
X48393367Y-127634600D01*
X48393377Y-127634600D01*
X48430700Y-127638276D01*
X48468023Y-127634600D01*
X51109570Y-127634600D01*
X51065000Y-127858665D01*
X51065000Y-128141335D01*
X51120147Y-128418574D01*
X51228320Y-128679727D01*
X51385363Y-128914759D01*
X51585241Y-129114637D01*
X51820273Y-129271680D01*
X52081426Y-129379853D01*
X52358665Y-129435000D01*
X52641335Y-129435000D01*
X52918574Y-129379853D01*
X53179727Y-129271680D01*
X53414759Y-129114637D01*
X53614637Y-128914759D01*
X53771680Y-128679727D01*
X53810765Y-128585367D01*
X55999601Y-130774203D01*
X56023399Y-130803201D01*
X56052397Y-130826999D01*
X56139123Y-130898174D01*
X56271153Y-130968746D01*
X56414414Y-131012203D01*
X56526067Y-131023200D01*
X56526076Y-131023200D01*
X56563399Y-131026876D01*
X56600722Y-131023200D01*
X71605278Y-131023200D01*
X71642600Y-131026876D01*
X71679922Y-131023200D01*
X71679933Y-131023200D01*
X71791586Y-131012203D01*
X71934847Y-130968746D01*
X72066876Y-130898174D01*
X72182601Y-130803201D01*
X72206404Y-130774197D01*
X72638497Y-130342104D01*
X72667501Y-130318301D01*
X72727531Y-130245154D01*
X72762474Y-130202577D01*
X72833046Y-130070547D01*
X72833046Y-130070546D01*
X72876503Y-129927286D01*
X72887500Y-129815633D01*
X72887500Y-129815624D01*
X72891176Y-129778301D01*
X72887500Y-129740978D01*
X72887500Y-129501855D01*
X72901141Y-129456886D01*
X72906094Y-129406595D01*
X72956387Y-129401641D01*
X73001355Y-129388000D01*
X80067899Y-129388000D01*
X82310901Y-131631003D01*
X82334699Y-131660001D01*
X82450424Y-131754974D01*
X82582453Y-131825546D01*
X82725714Y-131869003D01*
X82778053Y-131874158D01*
X82885363Y-132034759D01*
X83085241Y-132234637D01*
X83320273Y-132391680D01*
X83581426Y-132499853D01*
X83858665Y-132555000D01*
X84141335Y-132555000D01*
X84418574Y-132499853D01*
X84679727Y-132391680D01*
X84914759Y-132234637D01*
X85114637Y-132034759D01*
X85271680Y-131799727D01*
X85379853Y-131538574D01*
X85435000Y-131261335D01*
X85435000Y-130978665D01*
X87065000Y-130978665D01*
X87065000Y-131261335D01*
X87120147Y-131538574D01*
X87228320Y-131799727D01*
X87385363Y-132034759D01*
X87585241Y-132234637D01*
X87820273Y-132391680D01*
X88081426Y-132499853D01*
X88358665Y-132555000D01*
X88641335Y-132555000D01*
X88918574Y-132499853D01*
X89179727Y-132391680D01*
X89414759Y-132234637D01*
X89614637Y-132034759D01*
X89771680Y-131799727D01*
X89879853Y-131538574D01*
X89935000Y-131261335D01*
X89935000Y-130978665D01*
X89879853Y-130701426D01*
X89771680Y-130440273D01*
X89614637Y-130205241D01*
X89414759Y-130005363D01*
X89179727Y-129848320D01*
X88918574Y-129740147D01*
X88641335Y-129685000D01*
X88358665Y-129685000D01*
X88081426Y-129740147D01*
X87820273Y-129848320D01*
X87585241Y-130005363D01*
X87385363Y-130205241D01*
X87228320Y-130440273D01*
X87120147Y-130701426D01*
X87065000Y-130978665D01*
X85435000Y-130978665D01*
X85379853Y-130701426D01*
X85271680Y-130440273D01*
X85114637Y-130205241D01*
X84914759Y-130005363D01*
X84679727Y-129848320D01*
X84418574Y-129740147D01*
X84141335Y-129685000D01*
X83858665Y-129685000D01*
X83581426Y-129740147D01*
X83320273Y-129848320D01*
X83085241Y-130005363D01*
X82960053Y-130130551D01*
X80946504Y-128117003D01*
X80922701Y-128087999D01*
X80806976Y-127993026D01*
X80674947Y-127922454D01*
X80531686Y-127878997D01*
X80420033Y-127868000D01*
X80420022Y-127868000D01*
X80382700Y-127864324D01*
X80345378Y-127868000D01*
X75967845Y-127868000D01*
X75995226Y-127801898D01*
X76035000Y-127601939D01*
X76035000Y-127398061D01*
X75995226Y-127198102D01*
X75917205Y-127009744D01*
X75803937Y-126840226D01*
X75659774Y-126696063D01*
X75490256Y-126582795D01*
X75301898Y-126504774D01*
X75101939Y-126465000D01*
X74898061Y-126465000D01*
X74698102Y-126504774D01*
X74509744Y-126582795D01*
X74340226Y-126696063D01*
X74196063Y-126840226D01*
X74082795Y-127009744D01*
X74004774Y-127198102D01*
X73970979Y-127368000D01*
X73550019Y-127368000D01*
X73576141Y-127281887D01*
X73591298Y-127128000D01*
X73576141Y-126974113D01*
X73531254Y-126826140D01*
X73458362Y-126689767D01*
X73360264Y-126570236D01*
X73240733Y-126472138D01*
X73104360Y-126399246D01*
X72956387Y-126354359D01*
X72953363Y-126354061D01*
X72901439Y-126302137D01*
X72901141Y-126299113D01*
X72896427Y-126283574D01*
X75821336Y-123358665D01*
X82565000Y-123358665D01*
X82565000Y-123641335D01*
X82620147Y-123918574D01*
X82728320Y-124179727D01*
X82885363Y-124414759D01*
X83085241Y-124614637D01*
X83320273Y-124771680D01*
X83581426Y-124879853D01*
X83858665Y-124935000D01*
X84141335Y-124935000D01*
X84323886Y-124898688D01*
X85436201Y-126011003D01*
X85459999Y-126040001D01*
X85488997Y-126063799D01*
X85575723Y-126134974D01*
X85678476Y-126189897D01*
X85707753Y-126205546D01*
X85851014Y-126249003D01*
X85962667Y-126260000D01*
X85962676Y-126260000D01*
X85999999Y-126263676D01*
X86037322Y-126260000D01*
X93281957Y-126260000D01*
X93385363Y-126414759D01*
X93585241Y-126614637D01*
X93787827Y-126750000D01*
X93585241Y-126885363D01*
X93385363Y-127085241D01*
X93228320Y-127320273D01*
X93120147Y-127581426D01*
X93065000Y-127858665D01*
X93065000Y-128141335D01*
X93120147Y-128418574D01*
X93228320Y-128679727D01*
X93385363Y-128914759D01*
X93585241Y-129114637D01*
X93820273Y-129271680D01*
X94081426Y-129379853D01*
X94358665Y-129435000D01*
X94641335Y-129435000D01*
X94918574Y-129379853D01*
X95179727Y-129271680D01*
X95414759Y-129114637D01*
X95614637Y-128914759D01*
X95771680Y-128679727D01*
X95879853Y-128418574D01*
X95935000Y-128141335D01*
X95935000Y-127858665D01*
X95879853Y-127581426D01*
X95771680Y-127320273D01*
X95614637Y-127085241D01*
X95414759Y-126885363D01*
X95212173Y-126750000D01*
X95414759Y-126614637D01*
X95614637Y-126414759D01*
X95771680Y-126179727D01*
X95879853Y-125918574D01*
X95935000Y-125641335D01*
X95935000Y-125600000D01*
X99961928Y-125600000D01*
X99961928Y-127400000D01*
X99974188Y-127524482D01*
X100010498Y-127644180D01*
X100069463Y-127754494D01*
X100148815Y-127851185D01*
X100245506Y-127930537D01*
X100355820Y-127989502D01*
X100475518Y-128025812D01*
X100600000Y-128038072D01*
X102400000Y-128038072D01*
X102524482Y-128025812D01*
X102644180Y-127989502D01*
X102754494Y-127930537D01*
X102851185Y-127851185D01*
X102930537Y-127754494D01*
X102989502Y-127644180D01*
X103025812Y-127524482D01*
X103038072Y-127400000D01*
X103038072Y-125600000D01*
X103025812Y-125475518D01*
X102989502Y-125355820D01*
X102930537Y-125245506D01*
X102851185Y-125148815D01*
X102754494Y-125069463D01*
X102644180Y-125010498D01*
X102625873Y-125004944D01*
X102692312Y-124938505D01*
X102860299Y-124687095D01*
X102976011Y-124407743D01*
X103035000Y-124111184D01*
X103035000Y-123808816D01*
X102976011Y-123512257D01*
X102860299Y-123232905D01*
X102692312Y-122981495D01*
X102478505Y-122767688D01*
X102227095Y-122599701D01*
X101947743Y-122483989D01*
X101651184Y-122425000D01*
X101348816Y-122425000D01*
X101052257Y-122483989D01*
X100772905Y-122599701D01*
X100521495Y-122767688D01*
X100307688Y-122981495D01*
X100139701Y-123232905D01*
X100023989Y-123512257D01*
X99965000Y-123808816D01*
X99965000Y-124111184D01*
X100023989Y-124407743D01*
X100139701Y-124687095D01*
X100307688Y-124938505D01*
X100374127Y-125004944D01*
X100355820Y-125010498D01*
X100245506Y-125069463D01*
X100148815Y-125148815D01*
X100069463Y-125245506D01*
X100010498Y-125355820D01*
X99974188Y-125475518D01*
X99961928Y-125600000D01*
X95935000Y-125600000D01*
X95935000Y-125358665D01*
X95879853Y-125081426D01*
X95771680Y-124820273D01*
X95614637Y-124585241D01*
X95414759Y-124385363D01*
X95179727Y-124228320D01*
X94918574Y-124120147D01*
X94641335Y-124065000D01*
X94358665Y-124065000D01*
X94081426Y-124120147D01*
X93820273Y-124228320D01*
X93585241Y-124385363D01*
X93385363Y-124585241D01*
X93281957Y-124740000D01*
X89227140Y-124740000D01*
X89414759Y-124614637D01*
X89614637Y-124414759D01*
X89771680Y-124179727D01*
X89879853Y-123918574D01*
X89935000Y-123641335D01*
X89935000Y-123358665D01*
X89879853Y-123081426D01*
X89771680Y-122820273D01*
X89614637Y-122585241D01*
X89414759Y-122385363D01*
X89179727Y-122228320D01*
X88918574Y-122120147D01*
X88641335Y-122065000D01*
X88358665Y-122065000D01*
X88081426Y-122120147D01*
X87820273Y-122228320D01*
X87585241Y-122385363D01*
X87385363Y-122585241D01*
X87228320Y-122820273D01*
X87120147Y-123081426D01*
X87065000Y-123358665D01*
X87065000Y-123641335D01*
X87120147Y-123918574D01*
X87228320Y-124179727D01*
X87385363Y-124414759D01*
X87585241Y-124614637D01*
X87772860Y-124740000D01*
X86314802Y-124740000D01*
X85398688Y-123823886D01*
X85435000Y-123641335D01*
X85435000Y-123358665D01*
X85379853Y-123081426D01*
X85271680Y-122820273D01*
X85114637Y-122585241D01*
X84914759Y-122385363D01*
X84679727Y-122228320D01*
X84418574Y-122120147D01*
X84141335Y-122065000D01*
X83858665Y-122065000D01*
X83581426Y-122120147D01*
X83320273Y-122228320D01*
X83085241Y-122385363D01*
X82885363Y-122585241D01*
X82728320Y-122820273D01*
X82620147Y-123081426D01*
X82565000Y-123358665D01*
X75821336Y-123358665D01*
X76758881Y-122421120D01*
X76932748Y-122594987D01*
X77200537Y-122773918D01*
X77498088Y-122897168D01*
X77813967Y-122960000D01*
X78136033Y-122960000D01*
X78451912Y-122897168D01*
X78749463Y-122773918D01*
X79017252Y-122594987D01*
X79244987Y-122367252D01*
X79423918Y-122099463D01*
X79547168Y-121801912D01*
X79610000Y-121486033D01*
X79610000Y-121163967D01*
X79547168Y-120848088D01*
X79490136Y-120710400D01*
X79659599Y-120710400D01*
X80087701Y-121138502D01*
X80111499Y-121167501D01*
X80140497Y-121191299D01*
X80227223Y-121262474D01*
X80344200Y-121325000D01*
X80359253Y-121333046D01*
X80502514Y-121376503D01*
X80614167Y-121387500D01*
X80614177Y-121387500D01*
X80651499Y-121391176D01*
X80688822Y-121387500D01*
X85926778Y-121387500D01*
X85964100Y-121391176D01*
X86001422Y-121387500D01*
X86001433Y-121387500D01*
X86113086Y-121376503D01*
X86256347Y-121333046D01*
X86388376Y-121262474D01*
X86504101Y-121167501D01*
X86527904Y-121138497D01*
X88307736Y-119358665D01*
X89185000Y-119358665D01*
X89185000Y-119641335D01*
X89240147Y-119918574D01*
X89348320Y-120179727D01*
X89505363Y-120414759D01*
X89705241Y-120614637D01*
X89940273Y-120771680D01*
X90201426Y-120879853D01*
X90478665Y-120935000D01*
X90761335Y-120935000D01*
X91038574Y-120879853D01*
X91299727Y-120771680D01*
X91534759Y-120614637D01*
X91734637Y-120414759D01*
X91891680Y-120179727D01*
X91999853Y-119918574D01*
X92055000Y-119641335D01*
X92055000Y-119358665D01*
X91999853Y-119081426D01*
X91891680Y-118820273D01*
X91734637Y-118585241D01*
X91534759Y-118385363D01*
X91299727Y-118228320D01*
X91038574Y-118120147D01*
X90761335Y-118065000D01*
X90478665Y-118065000D01*
X90201426Y-118120147D01*
X89940273Y-118228320D01*
X89705241Y-118385363D01*
X89505363Y-118585241D01*
X89348320Y-118820273D01*
X89240147Y-119081426D01*
X89185000Y-119358665D01*
X88307736Y-119358665D01*
X92406402Y-115260000D01*
X93781957Y-115260000D01*
X93885363Y-115414759D01*
X94085241Y-115614637D01*
X94320273Y-115771680D01*
X94581426Y-115879853D01*
X94858665Y-115935000D01*
X95141335Y-115935000D01*
X95418574Y-115879853D01*
X95615000Y-115798491D01*
X95615000Y-118201509D01*
X95418574Y-118120147D01*
X95141335Y-118065000D01*
X94858665Y-118065000D01*
X94581426Y-118120147D01*
X94320273Y-118228320D01*
X94085241Y-118385363D01*
X93885363Y-118585241D01*
X93728320Y-118820273D01*
X93620147Y-119081426D01*
X93565000Y-119358665D01*
X93565000Y-119641335D01*
X93620147Y-119918574D01*
X93728320Y-120179727D01*
X93885363Y-120414759D01*
X94085241Y-120614637D01*
X94320273Y-120771680D01*
X94581426Y-120879853D01*
X94858665Y-120935000D01*
X95141335Y-120935000D01*
X95418574Y-120879853D01*
X95679727Y-120771680D01*
X95914759Y-120614637D01*
X96114637Y-120414759D01*
X96250000Y-120212173D01*
X96385363Y-120414759D01*
X96585241Y-120614637D01*
X96820273Y-120771680D01*
X97081426Y-120879853D01*
X97358665Y-120935000D01*
X97641335Y-120935000D01*
X97918574Y-120879853D01*
X98179727Y-120771680D01*
X98414759Y-120614637D01*
X98614637Y-120414759D01*
X98771680Y-120179727D01*
X98879853Y-119918574D01*
X98935000Y-119641335D01*
X98935000Y-119358665D01*
X98879853Y-119081426D01*
X98771680Y-118820273D01*
X98614637Y-118585241D01*
X98414759Y-118385363D01*
X98179727Y-118228320D01*
X97918574Y-118120147D01*
X97641335Y-118065000D01*
X97358665Y-118065000D01*
X97176113Y-118101312D01*
X97134999Y-118060198D01*
X97134999Y-115890509D01*
X97358665Y-115935000D01*
X97641335Y-115935000D01*
X97918574Y-115879853D01*
X98179727Y-115771680D01*
X98414759Y-115614637D01*
X98614637Y-115414759D01*
X98771680Y-115179727D01*
X98879853Y-114918574D01*
X98935000Y-114641335D01*
X98935000Y-114358665D01*
X98879853Y-114081426D01*
X98771680Y-113820273D01*
X98614637Y-113585241D01*
X98414759Y-113385363D01*
X98179727Y-113228320D01*
X97918574Y-113120147D01*
X97641335Y-113065000D01*
X97358665Y-113065000D01*
X97134999Y-113109491D01*
X97134999Y-112697324D01*
X97138675Y-112660001D01*
X97134999Y-112622678D01*
X97134999Y-112622668D01*
X97124002Y-112511015D01*
X97080545Y-112367754D01*
X97009974Y-112235726D01*
X97009973Y-112235724D01*
X96938798Y-112148998D01*
X96915000Y-112120000D01*
X96886003Y-112096203D01*
X95680778Y-110890978D01*
X95914759Y-110734637D01*
X96114637Y-110534759D01*
X96271680Y-110299727D01*
X96379853Y-110038574D01*
X96435000Y-109761335D01*
X96435000Y-109478665D01*
X96379853Y-109201426D01*
X96271680Y-108940273D01*
X96114637Y-108705241D01*
X95914759Y-108505363D01*
X95679727Y-108348320D01*
X95418574Y-108240147D01*
X95141335Y-108185000D01*
X94858665Y-108185000D01*
X94634999Y-108229491D01*
X94634999Y-106750324D01*
X98965000Y-106750324D01*
X98965000Y-107249676D01*
X99062418Y-107739432D01*
X99253512Y-108200773D01*
X99530937Y-108615968D01*
X99884032Y-108969063D01*
X100299227Y-109246488D01*
X100760568Y-109437582D01*
X101250324Y-109535000D01*
X101749676Y-109535000D01*
X102239432Y-109437582D01*
X102700773Y-109246488D01*
X103115968Y-108969063D01*
X103469063Y-108615968D01*
X103746488Y-108200773D01*
X103937582Y-107739432D01*
X104035000Y-107249676D01*
X104035000Y-106750324D01*
X103937582Y-106260568D01*
X103746488Y-105799227D01*
X103469063Y-105384032D01*
X103115968Y-105030937D01*
X102700773Y-104753512D01*
X102239432Y-104562418D01*
X101749676Y-104465000D01*
X101250324Y-104465000D01*
X100760568Y-104562418D01*
X100299227Y-104753512D01*
X99884032Y-105030937D01*
X99530937Y-105384032D01*
X99253512Y-105799227D01*
X99062418Y-106260568D01*
X98965000Y-106750324D01*
X94634999Y-106750324D01*
X94634999Y-103439802D01*
X94676113Y-103398688D01*
X94858665Y-103435000D01*
X95141335Y-103435000D01*
X95418574Y-103379853D01*
X95679727Y-103271680D01*
X95914759Y-103114637D01*
X96114637Y-102914759D01*
X96271680Y-102679727D01*
X96379853Y-102418574D01*
X96435000Y-102141335D01*
X96435000Y-101858665D01*
X96379853Y-101581426D01*
X96271680Y-101320273D01*
X96114637Y-101085241D01*
X95914759Y-100885363D01*
X95679727Y-100728320D01*
X95418574Y-100620147D01*
X95141335Y-100565000D01*
X94858665Y-100565000D01*
X94581426Y-100620147D01*
X94320273Y-100728320D01*
X94085241Y-100885363D01*
X93885363Y-101085241D01*
X93728320Y-101320273D01*
X93620147Y-101581426D01*
X93565000Y-101858665D01*
X93565000Y-102141335D01*
X93601312Y-102323887D01*
X93364001Y-102561197D01*
X93334998Y-102585000D01*
X93279870Y-102652175D01*
X93240025Y-102700725D01*
X93229009Y-102721335D01*
X93169453Y-102832755D01*
X93125996Y-102976016D01*
X93114999Y-103087669D01*
X93114999Y-103087679D01*
X93111323Y-103125001D01*
X93114999Y-103162324D01*
X93115000Y-110122669D01*
X93111323Y-110160001D01*
X93125997Y-110308986D01*
X93169453Y-110452247D01*
X93240025Y-110584277D01*
X93311200Y-110671003D01*
X93334999Y-110700002D01*
X93363997Y-110723800D01*
X95614999Y-112974803D01*
X95614999Y-113201509D01*
X95418574Y-113120147D01*
X95141335Y-113065000D01*
X94858665Y-113065000D01*
X94581426Y-113120147D01*
X94320273Y-113228320D01*
X94085241Y-113385363D01*
X93885363Y-113585241D01*
X93781957Y-113740000D01*
X92128933Y-113740000D01*
X92091600Y-113736323D01*
X92054267Y-113740000D01*
X91942614Y-113750997D01*
X91799353Y-113794454D01*
X91766251Y-113812148D01*
X91614637Y-113585241D01*
X91414759Y-113385363D01*
X91179727Y-113228320D01*
X90918574Y-113120147D01*
X90641335Y-113065000D01*
X90358665Y-113065000D01*
X90081426Y-113120147D01*
X89820273Y-113228320D01*
X89585241Y-113385363D01*
X89385363Y-113585241D01*
X89228320Y-113820273D01*
X89120147Y-114081426D01*
X89065000Y-114358665D01*
X89065000Y-114641335D01*
X89120147Y-114918574D01*
X89228320Y-115179727D01*
X89385363Y-115414759D01*
X89585241Y-115614637D01*
X89775221Y-115741577D01*
X85649299Y-119867500D01*
X84390012Y-119867500D01*
X84435000Y-119641335D01*
X84435000Y-119358665D01*
X84379853Y-119081426D01*
X84271680Y-118820273D01*
X84114637Y-118585241D01*
X83914759Y-118385363D01*
X83679727Y-118228320D01*
X83418574Y-118120147D01*
X83141335Y-118065000D01*
X82858665Y-118065000D01*
X82581426Y-118120147D01*
X82320273Y-118228320D01*
X82085241Y-118385363D01*
X81885363Y-118585241D01*
X81781957Y-118740000D01*
X65257922Y-118740000D01*
X65220599Y-118736324D01*
X65183276Y-118740000D01*
X65183267Y-118740000D01*
X65071614Y-118750997D01*
X64928353Y-118794454D01*
X64796323Y-118865026D01*
X64735430Y-118915000D01*
X64680599Y-118959999D01*
X64656801Y-118988997D01*
X63405703Y-120240096D01*
X63376699Y-120263899D01*
X63321571Y-120331074D01*
X63281726Y-120379624D01*
X63228868Y-120478514D01*
X63211154Y-120511654D01*
X63167697Y-120654915D01*
X63156700Y-120766568D01*
X63156700Y-120766578D01*
X63153024Y-120803900D01*
X63156700Y-120841223D01*
X63156701Y-123232668D01*
X63153024Y-123270000D01*
X63156701Y-123307333D01*
X63167658Y-123418574D01*
X63167698Y-123418985D01*
X63211154Y-123562246D01*
X63281726Y-123694276D01*
X63335665Y-123760000D01*
X63376700Y-123810001D01*
X63405698Y-123833799D01*
X68590197Y-129018300D01*
X59593102Y-129018300D01*
X53898688Y-123323887D01*
X53935000Y-123141335D01*
X53935000Y-122858665D01*
X53879853Y-122581426D01*
X53824338Y-122447400D01*
X57675662Y-122447400D01*
X57620147Y-122581426D01*
X57565000Y-122858665D01*
X57565000Y-123141335D01*
X57620147Y-123418574D01*
X57728320Y-123679727D01*
X57885363Y-123914759D01*
X58085241Y-124114637D01*
X58320273Y-124271680D01*
X58581426Y-124379853D01*
X58858665Y-124435000D01*
X59141335Y-124435000D01*
X59418574Y-124379853D01*
X59679727Y-124271680D01*
X59914759Y-124114637D01*
X60114637Y-123914759D01*
X60271680Y-123679727D01*
X60379853Y-123418574D01*
X60435000Y-123141335D01*
X60435000Y-122858665D01*
X60398688Y-122676113D01*
X66870802Y-116204000D01*
X81898678Y-116204000D01*
X81936000Y-116207676D01*
X81973322Y-116204000D01*
X81973333Y-116204000D01*
X82084986Y-116193003D01*
X82228247Y-116149546D01*
X82360276Y-116078974D01*
X82476001Y-115984001D01*
X82499804Y-115954998D01*
X82556113Y-115898688D01*
X82738665Y-115935000D01*
X83021335Y-115935000D01*
X83298574Y-115879853D01*
X83559727Y-115771680D01*
X83794759Y-115614637D01*
X83994637Y-115414759D01*
X84151680Y-115179727D01*
X84259853Y-114918574D01*
X84315000Y-114641335D01*
X84315000Y-114358665D01*
X84259853Y-114081426D01*
X84151680Y-113820273D01*
X83994637Y-113585241D01*
X83794759Y-113385363D01*
X83559727Y-113228320D01*
X83298574Y-113120147D01*
X83021335Y-113065000D01*
X82738665Y-113065000D01*
X82461426Y-113120147D01*
X82200273Y-113228320D01*
X81965241Y-113385363D01*
X81765363Y-113585241D01*
X81608320Y-113820273D01*
X81500147Y-114081426D01*
X81445000Y-114358665D01*
X81445000Y-114641335D01*
X81453487Y-114684000D01*
X76768825Y-114684000D01*
X76771680Y-114679727D01*
X76879853Y-114418574D01*
X76935000Y-114141335D01*
X76935000Y-113858665D01*
X76879853Y-113581426D01*
X76771680Y-113320273D01*
X76614637Y-113085241D01*
X76414759Y-112885363D01*
X76179727Y-112728320D01*
X75918574Y-112620147D01*
X75641335Y-112565000D01*
X75358665Y-112565000D01*
X75081426Y-112620147D01*
X74820273Y-112728320D01*
X74585241Y-112885363D01*
X74385363Y-113085241D01*
X74228320Y-113320273D01*
X74120147Y-113581426D01*
X74065000Y-113858665D01*
X74065000Y-114141335D01*
X74120147Y-114418574D01*
X74228320Y-114679727D01*
X74231175Y-114684000D01*
X69318072Y-114684000D01*
X69318072Y-113200000D01*
X69305812Y-113075518D01*
X69269502Y-112955820D01*
X69210537Y-112845506D01*
X69131185Y-112748815D01*
X69034494Y-112669463D01*
X68924180Y-112610498D01*
X68804482Y-112574188D01*
X68680000Y-112561928D01*
X67080000Y-112561928D01*
X66955518Y-112574188D01*
X66835820Y-112610498D01*
X66725506Y-112669463D01*
X66628815Y-112748815D01*
X66549463Y-112845506D01*
X66490498Y-112955820D01*
X66454188Y-113075518D01*
X66441928Y-113200000D01*
X66441928Y-114691558D01*
X66407014Y-114694997D01*
X66263753Y-114738454D01*
X66131724Y-114809026D01*
X66015999Y-114903999D01*
X65992201Y-114932997D01*
X60435000Y-120490199D01*
X60435000Y-120358665D01*
X60379853Y-120081426D01*
X60271680Y-119820273D01*
X60114637Y-119585241D01*
X59914759Y-119385363D01*
X59679727Y-119228320D01*
X59418574Y-119120147D01*
X59141335Y-119065000D01*
X58858665Y-119065000D01*
X58581426Y-119120147D01*
X58320273Y-119228320D01*
X58085241Y-119385363D01*
X57885363Y-119585241D01*
X57728320Y-119820273D01*
X57620147Y-120081426D01*
X57565000Y-120358665D01*
X57565000Y-120641335D01*
X57601312Y-120823886D01*
X57497799Y-120927400D01*
X53876197Y-120927400D01*
X53879853Y-120918574D01*
X53935000Y-120641335D01*
X53935000Y-120358665D01*
X53879853Y-120081426D01*
X53771680Y-119820273D01*
X53614637Y-119585241D01*
X53414759Y-119385363D01*
X53179727Y-119228320D01*
X52918574Y-119120147D01*
X52641335Y-119065000D01*
X52358665Y-119065000D01*
X52081426Y-119120147D01*
X51820273Y-119228320D01*
X51585241Y-119385363D01*
X51385363Y-119585241D01*
X51228320Y-119820273D01*
X51120147Y-120081426D01*
X51065000Y-120358665D01*
X51065000Y-120641335D01*
X51120147Y-120918574D01*
X51123803Y-120927400D01*
X50535466Y-120927400D01*
X50458976Y-120864626D01*
X50326947Y-120794054D01*
X50183686Y-120750597D01*
X50072033Y-120739600D01*
X50072022Y-120739600D01*
X50034700Y-120735924D01*
X49997378Y-120739600D01*
X46644522Y-120739600D01*
X46607199Y-120735924D01*
X46569877Y-120739600D01*
X46569867Y-120739600D01*
X46458214Y-120750597D01*
X46314953Y-120794054D01*
X46182924Y-120864626D01*
X46067199Y-120959599D01*
X46043399Y-120988599D01*
X45988596Y-121043402D01*
X45959600Y-121067199D01*
X45935802Y-121096197D01*
X45935801Y-121096198D01*
X45864626Y-121182924D01*
X45794054Y-121314954D01*
X45775384Y-121376503D01*
X45751422Y-121455500D01*
X45750598Y-121458215D01*
X45735924Y-121607200D01*
X41660000Y-121607200D01*
X41660000Y-114150000D01*
X46011928Y-114150000D01*
X46011928Y-115850000D01*
X46024188Y-115974482D01*
X46060498Y-116094180D01*
X46119463Y-116204494D01*
X46198815Y-116301185D01*
X46295506Y-116380537D01*
X46405820Y-116439502D01*
X46478380Y-116461513D01*
X46346525Y-116593368D01*
X46184010Y-116836589D01*
X46072068Y-117106842D01*
X46015000Y-117393740D01*
X46015000Y-117686260D01*
X46072068Y-117973158D01*
X46184010Y-118243411D01*
X46346525Y-118486632D01*
X46553368Y-118693475D01*
X46796589Y-118855990D01*
X47066842Y-118967932D01*
X47353740Y-119025000D01*
X47646260Y-119025000D01*
X47933158Y-118967932D01*
X48203411Y-118855990D01*
X48446632Y-118693475D01*
X48653475Y-118486632D01*
X48815990Y-118243411D01*
X48927932Y-117973158D01*
X48985000Y-117686260D01*
X48985000Y-117393740D01*
X48927932Y-117106842D01*
X48815990Y-116836589D01*
X48653475Y-116593368D01*
X48521620Y-116461513D01*
X48594180Y-116439502D01*
X48704494Y-116380537D01*
X48801185Y-116301185D01*
X48880537Y-116204494D01*
X48939502Y-116094180D01*
X48975812Y-115974482D01*
X48988072Y-115850000D01*
X48988072Y-115760000D01*
X51281957Y-115760000D01*
X51385363Y-115914759D01*
X51585241Y-116114637D01*
X51787827Y-116250000D01*
X51585241Y-116385363D01*
X51385363Y-116585241D01*
X51228320Y-116820273D01*
X51120147Y-117081426D01*
X51065000Y-117358665D01*
X51065000Y-117641335D01*
X51120147Y-117918574D01*
X51228320Y-118179727D01*
X51385363Y-118414759D01*
X51585241Y-118614637D01*
X51820273Y-118771680D01*
X52081426Y-118879853D01*
X52358665Y-118935000D01*
X52641335Y-118935000D01*
X52918574Y-118879853D01*
X53179727Y-118771680D01*
X53414759Y-118614637D01*
X53614637Y-118414759D01*
X53771680Y-118179727D01*
X53879853Y-117918574D01*
X53935000Y-117641335D01*
X53935000Y-117358665D01*
X53879853Y-117081426D01*
X53771680Y-116820273D01*
X53614637Y-116585241D01*
X53414759Y-116385363D01*
X53212173Y-116250000D01*
X53414759Y-116114637D01*
X53614637Y-115914759D01*
X53771680Y-115679727D01*
X53879853Y-115418574D01*
X53935000Y-115141335D01*
X53935000Y-114858665D01*
X57565000Y-114858665D01*
X57565000Y-115141335D01*
X57620147Y-115418574D01*
X57728320Y-115679727D01*
X57885363Y-115914759D01*
X58085241Y-116114637D01*
X58287827Y-116250000D01*
X58085241Y-116385363D01*
X57885363Y-116585241D01*
X57728320Y-116820273D01*
X57620147Y-117081426D01*
X57565000Y-117358665D01*
X57565000Y-117641335D01*
X57620147Y-117918574D01*
X57728320Y-118179727D01*
X57885363Y-118414759D01*
X58085241Y-118614637D01*
X58320273Y-118771680D01*
X58581426Y-118879853D01*
X58858665Y-118935000D01*
X59141335Y-118935000D01*
X59418574Y-118879853D01*
X59679727Y-118771680D01*
X59914759Y-118614637D01*
X60114637Y-118414759D01*
X60271680Y-118179727D01*
X60379853Y-117918574D01*
X60435000Y-117641335D01*
X60435000Y-117358665D01*
X60379853Y-117081426D01*
X60271680Y-116820273D01*
X60114637Y-116585241D01*
X59914759Y-116385363D01*
X59712173Y-116250000D01*
X59914759Y-116114637D01*
X60114637Y-115914759D01*
X60271680Y-115679727D01*
X60379853Y-115418574D01*
X60435000Y-115141335D01*
X60435000Y-114858665D01*
X60379853Y-114581426D01*
X60271680Y-114320273D01*
X60114637Y-114085241D01*
X59914759Y-113885363D01*
X59679727Y-113728320D01*
X59418574Y-113620147D01*
X59141335Y-113565000D01*
X58858665Y-113565000D01*
X58581426Y-113620147D01*
X58320273Y-113728320D01*
X58085241Y-113885363D01*
X57885363Y-114085241D01*
X57728320Y-114320273D01*
X57620147Y-114581426D01*
X57565000Y-114858665D01*
X53935000Y-114858665D01*
X53879853Y-114581426D01*
X53771680Y-114320273D01*
X53614637Y-114085241D01*
X53414759Y-113885363D01*
X53179727Y-113728320D01*
X52918574Y-113620147D01*
X52641335Y-113565000D01*
X52358665Y-113565000D01*
X52081426Y-113620147D01*
X51820273Y-113728320D01*
X51585241Y-113885363D01*
X51385363Y-114085241D01*
X51281957Y-114240000D01*
X48988072Y-114240000D01*
X48988072Y-114150000D01*
X48975812Y-114025518D01*
X48939502Y-113905820D01*
X48880537Y-113795506D01*
X48801185Y-113698815D01*
X48704494Y-113619463D01*
X48594180Y-113560498D01*
X48474482Y-113524188D01*
X48350000Y-113511928D01*
X46650000Y-113511928D01*
X46525518Y-113524188D01*
X46405820Y-113560498D01*
X46295506Y-113619463D01*
X46198815Y-113698815D01*
X46119463Y-113795506D01*
X46060498Y-113905820D01*
X46024188Y-114025518D01*
X46011928Y-114150000D01*
X41660000Y-114150000D01*
X41660000Y-108458967D01*
X69665000Y-108458967D01*
X69665000Y-108781033D01*
X69727832Y-109096912D01*
X69851082Y-109394463D01*
X70030013Y-109662252D01*
X70257748Y-109889987D01*
X70525537Y-110068918D01*
X70823088Y-110192168D01*
X71138967Y-110255000D01*
X71461033Y-110255000D01*
X71776912Y-110192168D01*
X72074463Y-110068918D01*
X72342252Y-109889987D01*
X72569987Y-109662252D01*
X72748918Y-109394463D01*
X72872168Y-109096912D01*
X72935000Y-108781033D01*
X72935000Y-108458967D01*
X82365000Y-108458967D01*
X82365000Y-108781033D01*
X82427832Y-109096912D01*
X82551082Y-109394463D01*
X82730013Y-109662252D01*
X82957748Y-109889987D01*
X83225537Y-110068918D01*
X83523088Y-110192168D01*
X83838967Y-110255000D01*
X84161033Y-110255000D01*
X84476912Y-110192168D01*
X84774463Y-110068918D01*
X85042252Y-109889987D01*
X85269987Y-109662252D01*
X85448918Y-109394463D01*
X85572168Y-109096912D01*
X85635000Y-108781033D01*
X85635000Y-108458967D01*
X85572168Y-108143088D01*
X85448918Y-107845537D01*
X85269987Y-107577748D01*
X85050904Y-107358665D01*
X87565000Y-107358665D01*
X87565000Y-107641335D01*
X87620147Y-107918574D01*
X87728320Y-108179727D01*
X87885363Y-108414759D01*
X88085241Y-108614637D01*
X88287827Y-108750000D01*
X88085241Y-108885363D01*
X87885363Y-109085241D01*
X87728320Y-109320273D01*
X87620147Y-109581426D01*
X87565000Y-109858665D01*
X87565000Y-110141335D01*
X87620147Y-110418574D01*
X87728320Y-110679727D01*
X87885363Y-110914759D01*
X88085241Y-111114637D01*
X88320273Y-111271680D01*
X88581426Y-111379853D01*
X88858665Y-111435000D01*
X89141335Y-111435000D01*
X89418574Y-111379853D01*
X89679727Y-111271680D01*
X89914759Y-111114637D01*
X90114637Y-110914759D01*
X90271680Y-110679727D01*
X90379853Y-110418574D01*
X90435000Y-110141335D01*
X90435000Y-109858665D01*
X90379853Y-109581426D01*
X90271680Y-109320273D01*
X90114637Y-109085241D01*
X89914759Y-108885363D01*
X89712173Y-108750000D01*
X89914759Y-108614637D01*
X90114637Y-108414759D01*
X90271680Y-108179727D01*
X90379853Y-107918574D01*
X90435000Y-107641335D01*
X90435000Y-107358665D01*
X90379853Y-107081426D01*
X90271680Y-106820273D01*
X90114637Y-106585241D01*
X89914759Y-106385363D01*
X89679727Y-106228320D01*
X89418574Y-106120147D01*
X89141335Y-106065000D01*
X88858665Y-106065000D01*
X88581426Y-106120147D01*
X88320273Y-106228320D01*
X88085241Y-106385363D01*
X87885363Y-106585241D01*
X87728320Y-106820273D01*
X87620147Y-107081426D01*
X87565000Y-107358665D01*
X85050904Y-107358665D01*
X85042252Y-107350013D01*
X84774463Y-107171082D01*
X84476912Y-107047832D01*
X84161033Y-106985000D01*
X83838967Y-106985000D01*
X83523088Y-107047832D01*
X83225537Y-107171082D01*
X82957748Y-107350013D01*
X82730013Y-107577748D01*
X82551082Y-107845537D01*
X82427832Y-108143088D01*
X82365000Y-108458967D01*
X72935000Y-108458967D01*
X72872168Y-108143088D01*
X72748918Y-107845537D01*
X72569987Y-107577748D01*
X72342252Y-107350013D01*
X72074463Y-107171082D01*
X71776912Y-107047832D01*
X71461033Y-106985000D01*
X71138967Y-106985000D01*
X70823088Y-107047832D01*
X70525537Y-107171082D01*
X70257748Y-107350013D01*
X70030013Y-107577748D01*
X69851082Y-107845537D01*
X69727832Y-108143088D01*
X69665000Y-108458967D01*
X41660000Y-108458967D01*
X41660000Y-104978665D01*
X52565000Y-104978665D01*
X52565000Y-105261335D01*
X52620147Y-105538574D01*
X52728320Y-105799727D01*
X52885363Y-106034759D01*
X53085241Y-106234637D01*
X53320273Y-106391680D01*
X53581426Y-106499853D01*
X53858665Y-106555000D01*
X54141335Y-106555000D01*
X54418574Y-106499853D01*
X54679727Y-106391680D01*
X54914759Y-106234637D01*
X55114637Y-106034759D01*
X55271680Y-105799727D01*
X55379853Y-105538574D01*
X55435000Y-105261335D01*
X55435000Y-104978665D01*
X55379853Y-104701426D01*
X55271680Y-104440273D01*
X55114637Y-104205241D01*
X54914759Y-104005363D01*
X54679727Y-103848320D01*
X54418574Y-103740147D01*
X54141335Y-103685000D01*
X53858665Y-103685000D01*
X53581426Y-103740147D01*
X53320273Y-103848320D01*
X53085241Y-104005363D01*
X52885363Y-104205241D01*
X52728320Y-104440273D01*
X52620147Y-104701426D01*
X52565000Y-104978665D01*
X41660000Y-104978665D01*
X41660000Y-101775324D01*
X45290000Y-101775324D01*
X45290000Y-102274676D01*
X45387418Y-102764432D01*
X45578512Y-103225773D01*
X45855937Y-103640968D01*
X46209032Y-103994063D01*
X46624227Y-104271488D01*
X47085568Y-104462582D01*
X47575324Y-104560000D01*
X48074676Y-104560000D01*
X48564432Y-104462582D01*
X49025773Y-104271488D01*
X49440968Y-103994063D01*
X49794063Y-103640968D01*
X50071488Y-103225773D01*
X50262582Y-102764432D01*
X50360000Y-102274676D01*
X50360000Y-101775324D01*
X50262582Y-101285568D01*
X50071488Y-100824227D01*
X49794063Y-100409032D01*
X49440968Y-100055937D01*
X49025773Y-99778512D01*
X48564432Y-99587418D01*
X48074676Y-99490000D01*
X47575324Y-99490000D01*
X47085568Y-99587418D01*
X46624227Y-99778512D01*
X46209032Y-100055937D01*
X45855937Y-100409032D01*
X45578512Y-100824227D01*
X45387418Y-101285568D01*
X45290000Y-101775324D01*
X41660000Y-101775324D01*
X41660000Y-96425324D01*
X45290000Y-96425324D01*
X45290000Y-96924676D01*
X45387418Y-97414432D01*
X45578512Y-97875773D01*
X45855937Y-98290968D01*
X46209032Y-98644063D01*
X46624227Y-98921488D01*
X47085568Y-99112582D01*
X47575324Y-99210000D01*
X48074676Y-99210000D01*
X48564432Y-99112582D01*
X49025773Y-98921488D01*
X49440968Y-98644063D01*
X49794063Y-98290968D01*
X50071488Y-97875773D01*
X50262582Y-97414432D01*
X50360000Y-96924676D01*
X50360000Y-96425324D01*
X50262582Y-95935568D01*
X50071488Y-95474227D01*
X49794063Y-95059032D01*
X49440968Y-94705937D01*
X49025773Y-94428512D01*
X48564432Y-94237418D01*
X48074676Y-94140000D01*
X47575324Y-94140000D01*
X47085568Y-94237418D01*
X46624227Y-94428512D01*
X46209032Y-94705937D01*
X45855937Y-95059032D01*
X45578512Y-95474227D01*
X45387418Y-95935568D01*
X45290000Y-96425324D01*
X41660000Y-96425324D01*
X41660000Y-88750324D01*
X42965000Y-88750324D01*
X42965000Y-89249676D01*
X43062418Y-89739432D01*
X43253512Y-90200773D01*
X43530937Y-90615968D01*
X43884032Y-90969063D01*
X44299227Y-91246488D01*
X44760568Y-91437582D01*
X45250324Y-91535000D01*
X45749676Y-91535000D01*
X46239432Y-91437582D01*
X46700773Y-91246488D01*
X47115968Y-90969063D01*
X47469063Y-90615968D01*
X47746488Y-90200773D01*
X47888193Y-89858665D01*
X50565000Y-89858665D01*
X50565000Y-90141335D01*
X50620147Y-90418574D01*
X50728320Y-90679727D01*
X50885363Y-90914759D01*
X51085241Y-91114637D01*
X51287827Y-91250000D01*
X51085241Y-91385363D01*
X50885363Y-91585241D01*
X50728320Y-91820273D01*
X50620147Y-92081426D01*
X50565000Y-92358665D01*
X50565000Y-92641335D01*
X50620147Y-92918574D01*
X50728320Y-93179727D01*
X50885363Y-93414759D01*
X51085241Y-93614637D01*
X51320273Y-93771680D01*
X51581426Y-93879853D01*
X51858665Y-93935000D01*
X52141335Y-93935000D01*
X52418574Y-93879853D01*
X52679727Y-93771680D01*
X52914759Y-93614637D01*
X53114637Y-93414759D01*
X53240001Y-93227138D01*
X53240000Y-96281956D01*
X53085241Y-96385363D01*
X52885363Y-96585241D01*
X52728320Y-96820273D01*
X52620147Y-97081426D01*
X52565000Y-97358665D01*
X52565000Y-97641335D01*
X52620147Y-97918574D01*
X52728320Y-98179727D01*
X52885363Y-98414759D01*
X53085241Y-98614637D01*
X53320273Y-98771680D01*
X53581426Y-98879853D01*
X53858665Y-98935000D01*
X54141335Y-98935000D01*
X54418574Y-98879853D01*
X54679727Y-98771680D01*
X54914759Y-98614637D01*
X55114637Y-98414759D01*
X55271680Y-98179727D01*
X55379853Y-97918574D01*
X55435000Y-97641335D01*
X55435000Y-97358665D01*
X55379853Y-97081426D01*
X55271680Y-96820273D01*
X55191317Y-96700000D01*
X56941928Y-96700000D01*
X56941928Y-98300000D01*
X56954188Y-98424482D01*
X56990498Y-98544180D01*
X57049463Y-98654494D01*
X57128815Y-98751185D01*
X57225506Y-98830537D01*
X57335820Y-98889502D01*
X57455518Y-98925812D01*
X57463961Y-98926643D01*
X57265363Y-99125241D01*
X57108320Y-99360273D01*
X57000147Y-99621426D01*
X56945000Y-99898665D01*
X56945000Y-100181335D01*
X57000147Y-100458574D01*
X57108320Y-100719727D01*
X57265363Y-100954759D01*
X57465241Y-101154637D01*
X57697759Y-101310000D01*
X57465241Y-101465363D01*
X57265363Y-101665241D01*
X57108320Y-101900273D01*
X57000147Y-102161426D01*
X56945000Y-102438665D01*
X56945000Y-102721335D01*
X57000147Y-102998574D01*
X57108320Y-103259727D01*
X57265363Y-103494759D01*
X57465241Y-103694637D01*
X57697759Y-103850000D01*
X57465241Y-104005363D01*
X57265363Y-104205241D01*
X57108320Y-104440273D01*
X57000147Y-104701426D01*
X56945000Y-104978665D01*
X56945000Y-105261335D01*
X57000147Y-105538574D01*
X57108320Y-105799727D01*
X57265363Y-106034759D01*
X57465241Y-106234637D01*
X57700273Y-106391680D01*
X57961426Y-106499853D01*
X58238665Y-106555000D01*
X58521335Y-106555000D01*
X58798574Y-106499853D01*
X59059727Y-106391680D01*
X59294759Y-106234637D01*
X59494637Y-106034759D01*
X59651680Y-105799727D01*
X59759853Y-105538574D01*
X59815000Y-105261335D01*
X59815000Y-104978665D01*
X59759853Y-104701426D01*
X59651680Y-104440273D01*
X59494637Y-104205241D01*
X59294759Y-104005363D01*
X59062241Y-103850000D01*
X59294759Y-103694637D01*
X59494637Y-103494759D01*
X59651680Y-103259727D01*
X59759853Y-102998574D01*
X59815000Y-102721335D01*
X59815000Y-102438665D01*
X59778688Y-102256113D01*
X64565000Y-97469802D01*
X64565000Y-97641335D01*
X64620147Y-97918574D01*
X64728320Y-98179727D01*
X64885363Y-98414759D01*
X65085241Y-98614637D01*
X65317759Y-98770000D01*
X65085241Y-98925363D01*
X64885363Y-99125241D01*
X64728320Y-99360273D01*
X64620147Y-99621426D01*
X64565000Y-99898665D01*
X64565000Y-100181335D01*
X64620147Y-100458574D01*
X64728320Y-100719727D01*
X64885363Y-100954759D01*
X65085241Y-101154637D01*
X65317759Y-101310000D01*
X65085241Y-101465363D01*
X64885363Y-101665241D01*
X64728320Y-101900273D01*
X64620147Y-102161426D01*
X64565000Y-102438665D01*
X64565000Y-102721335D01*
X64620147Y-102998574D01*
X64728320Y-103259727D01*
X64885363Y-103494759D01*
X65085241Y-103694637D01*
X65317759Y-103850000D01*
X65085241Y-104005363D01*
X64885363Y-104205241D01*
X64728320Y-104440273D01*
X64620147Y-104701426D01*
X64565000Y-104978665D01*
X64565000Y-105261335D01*
X64620147Y-105538574D01*
X64728320Y-105799727D01*
X64885363Y-106034759D01*
X65085241Y-106234637D01*
X65320273Y-106391680D01*
X65581426Y-106499853D01*
X65858665Y-106555000D01*
X66141335Y-106555000D01*
X66418574Y-106499853D01*
X66679727Y-106391680D01*
X66914759Y-106234637D01*
X67114637Y-106034759D01*
X67271680Y-105799727D01*
X67379853Y-105538574D01*
X67435000Y-105261335D01*
X67435000Y-104978665D01*
X67379853Y-104701426D01*
X67271680Y-104440273D01*
X67114637Y-104205241D01*
X66914759Y-104005363D01*
X66682241Y-103850000D01*
X66914759Y-103694637D01*
X67114637Y-103494759D01*
X67271680Y-103259727D01*
X67379853Y-102998574D01*
X67435000Y-102721335D01*
X67435000Y-102438665D01*
X67379853Y-102161426D01*
X67271680Y-101900273D01*
X67114637Y-101665241D01*
X66914759Y-101465363D01*
X66682241Y-101310000D01*
X66914759Y-101154637D01*
X67114637Y-100954759D01*
X67192006Y-100838967D01*
X69665000Y-100838967D01*
X69665000Y-101161033D01*
X69727832Y-101476912D01*
X69851082Y-101774463D01*
X70030013Y-102042252D01*
X70257748Y-102269987D01*
X70525537Y-102448918D01*
X70823088Y-102572168D01*
X71138967Y-102635000D01*
X71461033Y-102635000D01*
X71776912Y-102572168D01*
X72074463Y-102448918D01*
X72342252Y-102269987D01*
X72569987Y-102042252D01*
X72748918Y-101774463D01*
X72872168Y-101476912D01*
X72935000Y-101161033D01*
X72935000Y-100838967D01*
X82365000Y-100838967D01*
X82365000Y-101161033D01*
X82427832Y-101476912D01*
X82551082Y-101774463D01*
X82730013Y-102042252D01*
X82957748Y-102269987D01*
X83225537Y-102448918D01*
X83523088Y-102572168D01*
X83838967Y-102635000D01*
X84161033Y-102635000D01*
X84476912Y-102572168D01*
X84774463Y-102448918D01*
X85042252Y-102269987D01*
X85269987Y-102042252D01*
X85448918Y-101774463D01*
X85572168Y-101476912D01*
X85635000Y-101161033D01*
X85635000Y-100838967D01*
X85572168Y-100523088D01*
X85448918Y-100225537D01*
X85269987Y-99957748D01*
X85042252Y-99730013D01*
X84774463Y-99551082D01*
X84476912Y-99427832D01*
X84161033Y-99365000D01*
X83838967Y-99365000D01*
X83523088Y-99427832D01*
X83225537Y-99551082D01*
X82957748Y-99730013D01*
X82730013Y-99957748D01*
X82551082Y-100225537D01*
X82427832Y-100523088D01*
X82365000Y-100838967D01*
X72935000Y-100838967D01*
X72872168Y-100523088D01*
X72748918Y-100225537D01*
X72569987Y-99957748D01*
X72342252Y-99730013D01*
X72074463Y-99551082D01*
X71776912Y-99427832D01*
X71461033Y-99365000D01*
X71138967Y-99365000D01*
X70823088Y-99427832D01*
X70525537Y-99551082D01*
X70257748Y-99730013D01*
X70030013Y-99957748D01*
X69851082Y-100225537D01*
X69727832Y-100523088D01*
X69665000Y-100838967D01*
X67192006Y-100838967D01*
X67271680Y-100719727D01*
X67379853Y-100458574D01*
X67435000Y-100181335D01*
X67435000Y-99898665D01*
X67379853Y-99621426D01*
X67271680Y-99360273D01*
X67114637Y-99125241D01*
X66914759Y-98925363D01*
X66682241Y-98770000D01*
X66914759Y-98614637D01*
X67050731Y-98478665D01*
X93565000Y-98478665D01*
X93565000Y-98761335D01*
X93620147Y-99038574D01*
X93728320Y-99299727D01*
X93885363Y-99534759D01*
X94085241Y-99734637D01*
X94320273Y-99891680D01*
X94581426Y-99999853D01*
X94858665Y-100055000D01*
X95141335Y-100055000D01*
X95418574Y-99999853D01*
X95679727Y-99891680D01*
X95914759Y-99734637D01*
X96114637Y-99534759D01*
X96271680Y-99299727D01*
X96292143Y-99250324D01*
X98965000Y-99250324D01*
X98965000Y-99749676D01*
X99062418Y-100239432D01*
X99253512Y-100700773D01*
X99530937Y-101115968D01*
X99884032Y-101469063D01*
X100299227Y-101746488D01*
X100760568Y-101937582D01*
X101250324Y-102035000D01*
X101749676Y-102035000D01*
X102239432Y-101937582D01*
X102700773Y-101746488D01*
X103115968Y-101469063D01*
X103469063Y-101115968D01*
X103746488Y-100700773D01*
X103937582Y-100239432D01*
X104035000Y-99749676D01*
X104035000Y-99250324D01*
X103937582Y-98760568D01*
X103746488Y-98299227D01*
X103469063Y-97884032D01*
X103115968Y-97530937D01*
X102700773Y-97253512D01*
X102239432Y-97062418D01*
X101749676Y-96965000D01*
X101250324Y-96965000D01*
X100760568Y-97062418D01*
X100299227Y-97253512D01*
X99884032Y-97530937D01*
X99530937Y-97884032D01*
X99253512Y-98299227D01*
X99062418Y-98760568D01*
X98965000Y-99250324D01*
X96292143Y-99250324D01*
X96379853Y-99038574D01*
X96435000Y-98761335D01*
X96435000Y-98478665D01*
X96379853Y-98201426D01*
X96271680Y-97940273D01*
X96114637Y-97705241D01*
X95914759Y-97505363D01*
X95679727Y-97348320D01*
X95418574Y-97240147D01*
X95141335Y-97185000D01*
X94858665Y-97185000D01*
X94581426Y-97240147D01*
X94320273Y-97348320D01*
X94085241Y-97505363D01*
X93885363Y-97705241D01*
X93728320Y-97940273D01*
X93620147Y-98201426D01*
X93565000Y-98478665D01*
X67050731Y-98478665D01*
X67114637Y-98414759D01*
X67271680Y-98179727D01*
X67379853Y-97918574D01*
X67435000Y-97641335D01*
X67435000Y-97358665D01*
X67379853Y-97081426D01*
X67271680Y-96820273D01*
X67114637Y-96585241D01*
X66914759Y-96385363D01*
X66679727Y-96228320D01*
X66418574Y-96120147D01*
X66141335Y-96065000D01*
X65969802Y-96065000D01*
X67894802Y-94140000D01*
X69661928Y-94140000D01*
X69661928Y-94380000D01*
X69674188Y-94504482D01*
X69710498Y-94624180D01*
X69769463Y-94734494D01*
X69848815Y-94831185D01*
X69945506Y-94910537D01*
X70055820Y-94969502D01*
X70175518Y-95005812D01*
X70300000Y-95018072D01*
X72300000Y-95018072D01*
X72424482Y-95005812D01*
X72544180Y-94969502D01*
X72654494Y-94910537D01*
X72751185Y-94831185D01*
X72830537Y-94734494D01*
X72889502Y-94624180D01*
X72925812Y-94504482D01*
X72938072Y-94380000D01*
X72938072Y-93218967D01*
X82365000Y-93218967D01*
X82365000Y-93541033D01*
X82427832Y-93856912D01*
X82551082Y-94154463D01*
X82730013Y-94422252D01*
X82957748Y-94649987D01*
X83225537Y-94828918D01*
X83523088Y-94952168D01*
X83838967Y-95015000D01*
X84161033Y-95015000D01*
X84476912Y-94952168D01*
X84774463Y-94828918D01*
X85042252Y-94649987D01*
X85269987Y-94422252D01*
X85448918Y-94154463D01*
X85572168Y-93856912D01*
X85635000Y-93541033D01*
X85635000Y-93218967D01*
X85572168Y-92903088D01*
X85448918Y-92605537D01*
X85269987Y-92337748D01*
X85042252Y-92110013D01*
X84774463Y-91931082D01*
X84476912Y-91807832D01*
X84161033Y-91745000D01*
X83838967Y-91745000D01*
X83523088Y-91807832D01*
X83225537Y-91931082D01*
X82957748Y-92110013D01*
X82730013Y-92337748D01*
X82551082Y-92605537D01*
X82427832Y-92903088D01*
X82365000Y-93218967D01*
X72938072Y-93218967D01*
X72938072Y-92380000D01*
X72925812Y-92255518D01*
X72889502Y-92135820D01*
X72830537Y-92025506D01*
X72751185Y-91928815D01*
X72654494Y-91849463D01*
X72544180Y-91790498D01*
X72424482Y-91754188D01*
X72300000Y-91741928D01*
X70300000Y-91741928D01*
X70175518Y-91754188D01*
X70055820Y-91790498D01*
X69945506Y-91849463D01*
X69848815Y-91928815D01*
X69769463Y-92025506D01*
X69710498Y-92135820D01*
X69674188Y-92255518D01*
X69661928Y-92380000D01*
X69661928Y-92620000D01*
X67617325Y-92620000D01*
X67580000Y-92616324D01*
X67542675Y-92620000D01*
X67542667Y-92620000D01*
X67431014Y-92630997D01*
X67287753Y-92674454D01*
X67155724Y-92745026D01*
X67039999Y-92839999D01*
X67016201Y-92868997D01*
X59815000Y-100070199D01*
X59815000Y-99898665D01*
X59778688Y-99716114D01*
X60016005Y-99478797D01*
X60045002Y-99455000D01*
X60139975Y-99339275D01*
X60210547Y-99207246D01*
X60254004Y-99063985D01*
X60265001Y-98952332D01*
X60265001Y-98952324D01*
X60268677Y-98914999D01*
X60265001Y-98877674D01*
X60265001Y-92330880D01*
X60301185Y-92301185D01*
X60380537Y-92204494D01*
X60439502Y-92094180D01*
X60461513Y-92021620D01*
X60593368Y-92153475D01*
X60836589Y-92315990D01*
X61106842Y-92427932D01*
X61393740Y-92485000D01*
X61686260Y-92485000D01*
X61973158Y-92427932D01*
X62243411Y-92315990D01*
X62486632Y-92153475D01*
X62693475Y-91946632D01*
X62810000Y-91772240D01*
X62926525Y-91946632D01*
X63133368Y-92153475D01*
X63376589Y-92315990D01*
X63646842Y-92427932D01*
X63933740Y-92485000D01*
X64226260Y-92485000D01*
X64513158Y-92427932D01*
X64783411Y-92315990D01*
X65026632Y-92153475D01*
X65233475Y-91946632D01*
X65395990Y-91703411D01*
X65507932Y-91433158D01*
X65522749Y-91358665D01*
X87565000Y-91358665D01*
X87565000Y-91641335D01*
X87620147Y-91918574D01*
X87728320Y-92179727D01*
X87885363Y-92414759D01*
X88085241Y-92614637D01*
X88287827Y-92750000D01*
X88085241Y-92885363D01*
X87885363Y-93085241D01*
X87728320Y-93320273D01*
X87620147Y-93581426D01*
X87565000Y-93858665D01*
X87565000Y-94141335D01*
X87620147Y-94418574D01*
X87728320Y-94679727D01*
X87885363Y-94914759D01*
X88085241Y-95114637D01*
X88320273Y-95271680D01*
X88581426Y-95379853D01*
X88858665Y-95435000D01*
X89141335Y-95435000D01*
X89418574Y-95379853D01*
X89679727Y-95271680D01*
X89914759Y-95114637D01*
X90114637Y-94914759D01*
X90271680Y-94679727D01*
X90379853Y-94418574D01*
X90435000Y-94141335D01*
X90435000Y-93858665D01*
X90379853Y-93581426D01*
X90271680Y-93320273D01*
X90114637Y-93085241D01*
X89914759Y-92885363D01*
X89712173Y-92750000D01*
X89914759Y-92614637D01*
X90114637Y-92414759D01*
X90271680Y-92179727D01*
X90379853Y-91918574D01*
X90435000Y-91641335D01*
X90435000Y-91358665D01*
X90379853Y-91081426D01*
X90287583Y-90858665D01*
X93565000Y-90858665D01*
X93565000Y-91141335D01*
X93620147Y-91418574D01*
X93728320Y-91679727D01*
X93885363Y-91914759D01*
X94085241Y-92114637D01*
X94320273Y-92271680D01*
X94581426Y-92379853D01*
X94858665Y-92435000D01*
X95141335Y-92435000D01*
X95418574Y-92379853D01*
X95679727Y-92271680D01*
X95914759Y-92114637D01*
X96114637Y-91914759D01*
X96271680Y-91679727D01*
X96379853Y-91418574D01*
X96413320Y-91250324D01*
X98965000Y-91250324D01*
X98965000Y-91749676D01*
X99062418Y-92239432D01*
X99253512Y-92700773D01*
X99530937Y-93115968D01*
X99884032Y-93469063D01*
X100299227Y-93746488D01*
X100760568Y-93937582D01*
X101250324Y-94035000D01*
X101749676Y-94035000D01*
X102239432Y-93937582D01*
X102700773Y-93746488D01*
X103115968Y-93469063D01*
X103469063Y-93115968D01*
X103746488Y-92700773D01*
X103937582Y-92239432D01*
X104035000Y-91749676D01*
X104035000Y-91250324D01*
X103937582Y-90760568D01*
X103746488Y-90299227D01*
X103469063Y-89884032D01*
X103115968Y-89530937D01*
X102700773Y-89253512D01*
X102239432Y-89062418D01*
X101749676Y-88965000D01*
X101250324Y-88965000D01*
X100760568Y-89062418D01*
X100299227Y-89253512D01*
X99884032Y-89530937D01*
X99530937Y-89884032D01*
X99253512Y-90299227D01*
X99062418Y-90760568D01*
X98965000Y-91250324D01*
X96413320Y-91250324D01*
X96435000Y-91141335D01*
X96435000Y-90858665D01*
X96379853Y-90581426D01*
X96271680Y-90320273D01*
X96114637Y-90085241D01*
X95914759Y-89885363D01*
X95679727Y-89728320D01*
X95418574Y-89620147D01*
X95141335Y-89565000D01*
X94858665Y-89565000D01*
X94581426Y-89620147D01*
X94320273Y-89728320D01*
X94085241Y-89885363D01*
X93885363Y-90085241D01*
X93728320Y-90320273D01*
X93620147Y-90581426D01*
X93565000Y-90858665D01*
X90287583Y-90858665D01*
X90271680Y-90820273D01*
X90114637Y-90585241D01*
X89914759Y-90385363D01*
X89679727Y-90228320D01*
X89418574Y-90120147D01*
X89141335Y-90065000D01*
X88858665Y-90065000D01*
X88581426Y-90120147D01*
X88320273Y-90228320D01*
X88085241Y-90385363D01*
X87885363Y-90585241D01*
X87728320Y-90820273D01*
X87620147Y-91081426D01*
X87565000Y-91358665D01*
X65522749Y-91358665D01*
X65565000Y-91146260D01*
X65565000Y-90853740D01*
X65507932Y-90566842D01*
X65395990Y-90296589D01*
X65233475Y-90053368D01*
X65026632Y-89846525D01*
X64783411Y-89684010D01*
X64513158Y-89572068D01*
X64226260Y-89515000D01*
X63933740Y-89515000D01*
X63646842Y-89572068D01*
X63376589Y-89684010D01*
X63133368Y-89846525D01*
X62926525Y-90053368D01*
X62810000Y-90227760D01*
X62693475Y-90053368D01*
X62486632Y-89846525D01*
X62243411Y-89684010D01*
X61973158Y-89572068D01*
X61686260Y-89515000D01*
X61393740Y-89515000D01*
X61106842Y-89572068D01*
X60836589Y-89684010D01*
X60593368Y-89846525D01*
X60461513Y-89978380D01*
X60439502Y-89905820D01*
X60380537Y-89795506D01*
X60301185Y-89698815D01*
X60204494Y-89619463D01*
X60094180Y-89560498D01*
X59974482Y-89524188D01*
X59850000Y-89511928D01*
X58150000Y-89511928D01*
X58025518Y-89524188D01*
X57905820Y-89560498D01*
X57795506Y-89619463D01*
X57698815Y-89698815D01*
X57619463Y-89795506D01*
X57560498Y-89905820D01*
X57524188Y-90025518D01*
X57511928Y-90150000D01*
X57511928Y-91850000D01*
X57524188Y-91974482D01*
X57560498Y-92094180D01*
X57619463Y-92204494D01*
X57698815Y-92301185D01*
X57795506Y-92380537D01*
X57905820Y-92439502D01*
X58025518Y-92475812D01*
X58150000Y-92488072D01*
X58745002Y-92488072D01*
X58745001Y-96061928D01*
X57580000Y-96061928D01*
X57455518Y-96074188D01*
X57335820Y-96110498D01*
X57225506Y-96169463D01*
X57128815Y-96248815D01*
X57049463Y-96345506D01*
X56990498Y-96455820D01*
X56954188Y-96575518D01*
X56941928Y-96700000D01*
X55191317Y-96700000D01*
X55114637Y-96585241D01*
X54914759Y-96385363D01*
X54760000Y-96281957D01*
X54760000Y-92872320D01*
X54763676Y-92834997D01*
X54760000Y-92797674D01*
X54760000Y-92797665D01*
X54749003Y-92686012D01*
X54705546Y-92542751D01*
X54669766Y-92475812D01*
X54634974Y-92410721D01*
X54563799Y-92323995D01*
X54540001Y-92294997D01*
X54511003Y-92271199D01*
X53130629Y-90890826D01*
X53271680Y-90679727D01*
X53379853Y-90418574D01*
X53435000Y-90141335D01*
X53435000Y-89858665D01*
X53379853Y-89581426D01*
X53271680Y-89320273D01*
X53114637Y-89085241D01*
X52914759Y-88885363D01*
X52712659Y-88750324D01*
X104465000Y-88750324D01*
X104465000Y-89249676D01*
X104562418Y-89739432D01*
X104753512Y-90200773D01*
X105030937Y-90615968D01*
X105384032Y-90969063D01*
X105799227Y-91246488D01*
X106260568Y-91437582D01*
X106750324Y-91535000D01*
X107249676Y-91535000D01*
X107739432Y-91437582D01*
X108200773Y-91246488D01*
X108615968Y-90969063D01*
X108969063Y-90615968D01*
X109246488Y-90200773D01*
X109437582Y-89739432D01*
X109535000Y-89249676D01*
X109535000Y-88750324D01*
X109437582Y-88260568D01*
X109246488Y-87799227D01*
X108969063Y-87384032D01*
X108615968Y-87030937D01*
X108200773Y-86753512D01*
X107739432Y-86562418D01*
X107249676Y-86465000D01*
X106750324Y-86465000D01*
X106260568Y-86562418D01*
X105799227Y-86753512D01*
X105384032Y-87030937D01*
X105030937Y-87384032D01*
X104753512Y-87799227D01*
X104562418Y-88260568D01*
X104465000Y-88750324D01*
X52712659Y-88750324D01*
X52679727Y-88728320D01*
X52418574Y-88620147D01*
X52141335Y-88565000D01*
X51858665Y-88565000D01*
X51581426Y-88620147D01*
X51320273Y-88728320D01*
X51085241Y-88885363D01*
X50885363Y-89085241D01*
X50728320Y-89320273D01*
X50620147Y-89581426D01*
X50565000Y-89858665D01*
X47888193Y-89858665D01*
X47937582Y-89739432D01*
X48035000Y-89249676D01*
X48035000Y-88750324D01*
X47937582Y-88260568D01*
X47746488Y-87799227D01*
X47469063Y-87384032D01*
X47115968Y-87030937D01*
X46700773Y-86753512D01*
X46239432Y-86562418D01*
X45749676Y-86465000D01*
X45250324Y-86465000D01*
X44760568Y-86562418D01*
X44299227Y-86753512D01*
X43884032Y-87030937D01*
X43530937Y-87384032D01*
X43253512Y-87799227D01*
X43062418Y-88260568D01*
X42965000Y-88750324D01*
X41660000Y-88750324D01*
X41660000Y-85660000D01*
X110340000Y-85660000D01*
X110340001Y-138840000D01*
G37*
%TD.AperFunction*%
D29*
X57928398Y-129503200D02*
X56878202Y-129503200D01*
X53738604Y-126363603D01*
X53714801Y-126334599D01*
X53684703Y-126309898D01*
X53771680Y-126179727D01*
X53879853Y-125918574D01*
X53935000Y-125641335D01*
X53935000Y-125509801D01*
X57928398Y-129503200D01*
%TA.AperFunction,NonConductor*%
D30*
G36*
X57928398Y-129503200D02*
G01*
X56878202Y-129503200D01*
X53738604Y-126363603D01*
X53714801Y-126334599D01*
X53684703Y-126309898D01*
X53771680Y-126179727D01*
X53879853Y-125918574D01*
X53935000Y-125641335D01*
X53935000Y-125509801D01*
X57928398Y-129503200D01*
G37*
%TD.AperFunction*%
D29*
X68945002Y-126375097D02*
X68926710Y-126390109D01*
X66035000Y-123498399D01*
X66035000Y-122779909D01*
X66049463Y-122773918D01*
X66317252Y-122594987D01*
X66544987Y-122367252D01*
X66723918Y-122099463D01*
X66847168Y-121801912D01*
X66910000Y-121486033D01*
X66910000Y-121163967D01*
X66847168Y-120848088D01*
X66723918Y-120550537D01*
X66544987Y-120282748D01*
X66522239Y-120260000D01*
X75060097Y-120260000D01*
X68945002Y-126375097D01*
%TA.AperFunction,NonConductor*%
D30*
G36*
X68945002Y-126375097D02*
G01*
X68926710Y-126390109D01*
X66035000Y-123498399D01*
X66035000Y-122779909D01*
X66049463Y-122773918D01*
X66317252Y-122594987D01*
X66544987Y-122367252D01*
X66723918Y-122099463D01*
X66847168Y-121801912D01*
X66910000Y-121486033D01*
X66910000Y-121163967D01*
X66847168Y-120848088D01*
X66723918Y-120550537D01*
X66544987Y-120282748D01*
X66522239Y-120260000D01*
X75060097Y-120260000D01*
X68945002Y-126375097D01*
G37*
%TD.AperFunction*%
D29*
X51385363Y-123914759D02*
X51585241Y-124114637D01*
X51787827Y-124250000D01*
X51585241Y-124385363D01*
X51385363Y-124585241D01*
X51228320Y-124820273D01*
X51120147Y-125081426D01*
X51065000Y-125358665D01*
X51065000Y-125641335D01*
X51120147Y-125918574D01*
X51201344Y-126114600D01*
X48745502Y-126114600D01*
X48223199Y-125592298D01*
X48335077Y-125517544D01*
X48517544Y-125335077D01*
X48569827Y-125256829D01*
X48649286Y-125249003D01*
X48792547Y-125205546D01*
X48924576Y-125134974D01*
X49040301Y-125040001D01*
X49064104Y-125010997D01*
X50315102Y-123760000D01*
X51281957Y-123760000D01*
X51385363Y-123914759D01*
%TA.AperFunction,NonConductor*%
D30*
G36*
X51385363Y-123914759D02*
G01*
X51585241Y-124114637D01*
X51787827Y-124250000D01*
X51585241Y-124385363D01*
X51385363Y-124585241D01*
X51228320Y-124820273D01*
X51120147Y-125081426D01*
X51065000Y-125358665D01*
X51065000Y-125641335D01*
X51120147Y-125918574D01*
X51201344Y-126114600D01*
X48745502Y-126114600D01*
X48223199Y-125592298D01*
X48335077Y-125517544D01*
X48517544Y-125335077D01*
X48569827Y-125256829D01*
X48649286Y-125249003D01*
X48792547Y-125205546D01*
X48924576Y-125134974D01*
X49040301Y-125040001D01*
X49064104Y-125010997D01*
X50315102Y-123760000D01*
X51281957Y-123760000D01*
X51385363Y-123914759D01*
G37*
%TD.AperFunction*%
D29*
X49749050Y-122282018D02*
X49708053Y-122294454D01*
X49576024Y-122365026D01*
X49460299Y-122459999D01*
X49436501Y-122488997D01*
X48813072Y-123112426D01*
X48813072Y-122259600D01*
X49721734Y-122259600D01*
X49749050Y-122282018D01*
%TA.AperFunction,NonConductor*%
D30*
G36*
X49749050Y-122282018D02*
G01*
X49708053Y-122294454D01*
X49576024Y-122365026D01*
X49460299Y-122459999D01*
X49436501Y-122488997D01*
X48813072Y-123112426D01*
X48813072Y-122259600D01*
X49721734Y-122259600D01*
X49749050Y-122282018D01*
G37*
%TD.AperFunction*%
M02*
