M48
; DRILL file {KiCad 5.1.10} date Fri Jun 11 08:34:33 2021
; FORMAT={-:-/ absolute / inch / decimal}
; #@! TF.CreationDate,2021-06-11T08:34:33+02:00
; #@! TF.GenerationSoftware,Kicad,Pcbnew,5.1.10
; #@! TF.FileFunction,Plated,1,2,PTH
FMAT,2
INCH
T1C0.0157
T2C0.0315
T3C0.0394
T4C0.0433
T5C0.0449
T6C0.0866
%
G90
G05
T1
X2.6575Y-4.8622
T2
X2.5Y-4.8425
X2.5Y-4.9409
X2.6181Y-4.626
X2.7953Y-4.1732
X2.815Y-3.5827
X2.8937Y-4.1732
X2.9134Y-3.5827
X2.9181Y-4.626
X3.1299Y-4.626
X3.1496Y-3.5827
X3.1496Y-3.8827
X3.1496Y-4.0157
X3.1496Y-4.3157
X3.2283Y-4.626
X3.3661Y-4.626
X3.4646Y-4.626
X3.622Y-4.626
X3.7205Y-4.626
X3.9173Y-4.626
X3.9173Y-4.926
X3.9173Y-5.074
X3.9173Y-5.374
X4.1535Y-4.7244
X4.1535Y-4.8228
T3
X2.2244Y-4.8425
X2.2244Y-4.9425
T4
X3.0268Y-4.8819
X3.0268Y-5.1181
X3.0315Y-5.3346
X3.3268Y-4.8819
X3.3268Y-5.1181
X3.3315Y-5.3346
T5
X2.1378Y-3.578
X2.1378Y-3.878
X2.1378Y-4.178
X2.6378Y-3.578
X2.6378Y-3.878
X2.6378Y-4.178
T6
X1.7913Y-3.5039
X1.7913Y-5.315
X1.9026Y-3.7667
X1.9026Y-3.9774
X3.9961Y-3.6024
X3.9961Y-3.9173
X3.9961Y-4.2126
X4.1929Y-5.3346
X4.2126Y-3.5039
T0
M30
