%TF.GenerationSoftware,KiCad,Pcbnew,5.1.10*%
%TF.CreationDate,2021-06-23T11:20:34+02:00*%
%TF.ProjectId,supply,73757070-6c79-42e6-9b69-6361645f7063,rev?*%
%TF.SameCoordinates,Original*%
%TF.FileFunction,Legend,Top*%
%TF.FilePolarity,Positive*%
%FSLAX46Y46*%
G04 Gerber Fmt 4.6, Leading zero omitted, Abs format (unit mm)*
G04 Created by KiCad (PCBNEW 5.1.10) date 2021-06-23 11:20:34*
%MOMM*%
%LPD*%
G01*
G04 APERTURE LIST*
%ADD10C,0.120000*%
%ADD11C,0.150000*%
%ADD12C,0.010000*%
G04 APERTURE END LIST*
D10*
X70750000Y-126250000D02*
X72500000Y-126250000D01*
X73000000Y-129000000D02*
X73000000Y-126750000D01*
X69750000Y-127250000D02*
X69750000Y-129000000D01*
X70750000Y-126250000D02*
X69750000Y-127250000D01*
X69000000Y-127500000D02*
X68500000Y-127000000D01*
X68500000Y-127000000D02*
X69000000Y-127500000D01*
X69500000Y-127000000D02*
X68500000Y-127000000D01*
D11*
X105452380Y-108952380D02*
X104452380Y-108952380D01*
X104452380Y-108571428D01*
X104500000Y-108476190D01*
X104547619Y-108428571D01*
X104642857Y-108380952D01*
X104785714Y-108380952D01*
X104880952Y-108428571D01*
X104928571Y-108476190D01*
X104976190Y-108571428D01*
X104976190Y-108952380D01*
X105452380Y-107952380D02*
X104452380Y-107952380D01*
X104928571Y-107952380D02*
X104928571Y-107380952D01*
X105452380Y-107380952D02*
X104452380Y-107380952D01*
X105166666Y-106952380D02*
X105166666Y-106476190D01*
X105452380Y-107047619D02*
X104452380Y-106714285D01*
X105452380Y-106380952D01*
X105452380Y-106047619D02*
X104452380Y-106047619D01*
X105452380Y-105476190D01*
X104452380Y-105476190D01*
X104452380Y-105142857D02*
X104452380Y-104571428D01*
X105452380Y-104857142D02*
X104452380Y-104857142D01*
X104452380Y-104047619D02*
X104452380Y-103857142D01*
X104500000Y-103761904D01*
X104595238Y-103666666D01*
X104785714Y-103619047D01*
X105119047Y-103619047D01*
X105309523Y-103666666D01*
X105404761Y-103761904D01*
X105452380Y-103857142D01*
X105452380Y-104047619D01*
X105404761Y-104142857D01*
X105309523Y-104238095D01*
X105119047Y-104285714D01*
X104785714Y-104285714D01*
X104595238Y-104238095D01*
X104500000Y-104142857D01*
X104452380Y-104047619D01*
X105452380Y-103190476D02*
X104452380Y-103190476D01*
X105166666Y-102857142D01*
X104452380Y-102523809D01*
X105452380Y-102523809D01*
X105452380Y-101285714D02*
X104452380Y-101285714D01*
X104452380Y-100904761D01*
X104500000Y-100809523D01*
X104547619Y-100761904D01*
X104642857Y-100714285D01*
X104785714Y-100714285D01*
X104880952Y-100761904D01*
X104928571Y-100809523D01*
X104976190Y-100904761D01*
X104976190Y-101285714D01*
X104452380Y-100095238D02*
X104452380Y-99904761D01*
X104500000Y-99809523D01*
X104595238Y-99714285D01*
X104785714Y-99666666D01*
X105119047Y-99666666D01*
X105309523Y-99714285D01*
X105404761Y-99809523D01*
X105452380Y-99904761D01*
X105452380Y-100095238D01*
X105404761Y-100190476D01*
X105309523Y-100285714D01*
X105119047Y-100333333D01*
X104785714Y-100333333D01*
X104595238Y-100285714D01*
X104500000Y-100190476D01*
X104452380Y-100095238D01*
X104452380Y-99333333D02*
X105452380Y-99095238D01*
X104738095Y-98904761D01*
X105452380Y-98714285D01*
X104452380Y-98476190D01*
X104928571Y-98095238D02*
X104928571Y-97761904D01*
X105452380Y-97619047D02*
X105452380Y-98095238D01*
X104452380Y-98095238D01*
X104452380Y-97619047D01*
X105452380Y-96619047D02*
X104976190Y-96952380D01*
X105452380Y-97190476D02*
X104452380Y-97190476D01*
X104452380Y-96809523D01*
X104500000Y-96714285D01*
X104547619Y-96666666D01*
X104642857Y-96619047D01*
X104785714Y-96619047D01*
X104880952Y-96666666D01*
X104928571Y-96714285D01*
X104976190Y-96809523D01*
X104976190Y-97190476D01*
X104452380Y-95238095D02*
X104452380Y-95047619D01*
X104500000Y-94952380D01*
X104595238Y-94857142D01*
X104785714Y-94809523D01*
X105119047Y-94809523D01*
X105309523Y-94857142D01*
X105404761Y-94952380D01*
X105452380Y-95047619D01*
X105452380Y-95238095D01*
X105404761Y-95333333D01*
X105309523Y-95428571D01*
X105119047Y-95476190D01*
X104785714Y-95476190D01*
X104595238Y-95428571D01*
X104500000Y-95333333D01*
X104452380Y-95238095D01*
X104452380Y-94380952D02*
X105261904Y-94380952D01*
X105357142Y-94333333D01*
X105404761Y-94285714D01*
X105452380Y-94190476D01*
X105452380Y-94000000D01*
X105404761Y-93904761D01*
X105357142Y-93857142D01*
X105261904Y-93809523D01*
X104452380Y-93809523D01*
X104452380Y-93476190D02*
X104452380Y-92904761D01*
X105452380Y-93190476D02*
X104452380Y-93190476D01*
X43166666Y-103333333D02*
X43166666Y-102857142D01*
X43452380Y-103428571D02*
X42452380Y-103095238D01*
X43452380Y-102761904D01*
X42452380Y-102428571D02*
X43261904Y-102428571D01*
X43357142Y-102380952D01*
X43404761Y-102333333D01*
X43452380Y-102238095D01*
X43452380Y-102047619D01*
X43404761Y-101952380D01*
X43357142Y-101904761D01*
X43261904Y-101857142D01*
X42452380Y-101857142D01*
X43452380Y-101380952D02*
X42452380Y-101380952D01*
X42452380Y-101142857D01*
X42500000Y-101000000D01*
X42595238Y-100904761D01*
X42690476Y-100857142D01*
X42880952Y-100809523D01*
X43023809Y-100809523D01*
X43214285Y-100857142D01*
X43309523Y-100904761D01*
X43404761Y-101000000D01*
X43452380Y-101142857D01*
X43452380Y-101380952D01*
X43452380Y-100380952D02*
X42452380Y-100380952D01*
X42452380Y-99714285D02*
X42452380Y-99523809D01*
X42500000Y-99428571D01*
X42595238Y-99333333D01*
X42785714Y-99285714D01*
X43119047Y-99285714D01*
X43309523Y-99333333D01*
X43404761Y-99428571D01*
X43452380Y-99523809D01*
X43452380Y-99714285D01*
X43404761Y-99809523D01*
X43309523Y-99904761D01*
X43119047Y-99952380D01*
X42785714Y-99952380D01*
X42595238Y-99904761D01*
X42500000Y-99809523D01*
X42452380Y-99714285D01*
X42452380Y-97904761D02*
X42452380Y-97714285D01*
X42500000Y-97619047D01*
X42595238Y-97523809D01*
X42785714Y-97476190D01*
X43119047Y-97476190D01*
X43309523Y-97523809D01*
X43404761Y-97619047D01*
X43452380Y-97714285D01*
X43452380Y-97904761D01*
X43404761Y-98000000D01*
X43309523Y-98095238D01*
X43119047Y-98142857D01*
X42785714Y-98142857D01*
X42595238Y-98095238D01*
X42500000Y-98000000D01*
X42452380Y-97904761D01*
X42452380Y-97047619D02*
X43261904Y-97047619D01*
X43357142Y-97000000D01*
X43404761Y-96952380D01*
X43452380Y-96857142D01*
X43452380Y-96666666D01*
X43404761Y-96571428D01*
X43357142Y-96523809D01*
X43261904Y-96476190D01*
X42452380Y-96476190D01*
X42452380Y-96142857D02*
X42452380Y-95571428D01*
X43452380Y-95857142D02*
X42452380Y-95857142D01*
D12*
%TO.C,REF\u002A\u002A*%
G36*
X94268886Y-136584505D02*
G01*
X94343539Y-136621727D01*
X94409431Y-136690261D01*
X94427577Y-136715648D01*
X94447345Y-136748866D01*
X94460172Y-136784945D01*
X94467510Y-136833098D01*
X94470813Y-136902536D01*
X94471538Y-136994206D01*
X94468263Y-137119830D01*
X94456877Y-137214154D01*
X94435041Y-137284523D01*
X94400419Y-137338286D01*
X94350670Y-137382788D01*
X94347014Y-137385423D01*
X94297985Y-137412377D01*
X94238945Y-137425712D01*
X94163859Y-137429000D01*
X94041795Y-137429000D01*
X94041744Y-137547497D01*
X94040608Y-137613492D01*
X94033686Y-137652202D01*
X94015598Y-137675419D01*
X93980962Y-137694933D01*
X93972645Y-137698920D01*
X93933720Y-137717603D01*
X93903583Y-137729403D01*
X93881174Y-137730422D01*
X93865433Y-137716761D01*
X93855302Y-137684522D01*
X93849723Y-137629804D01*
X93847635Y-137548711D01*
X93847981Y-137437344D01*
X93849700Y-137291802D01*
X93850237Y-137248269D01*
X93852172Y-137098205D01*
X93853904Y-137000042D01*
X94041692Y-137000042D01*
X94042748Y-137083364D01*
X94047438Y-137137880D01*
X94058051Y-137173837D01*
X94076872Y-137201482D01*
X94089650Y-137214965D01*
X94141890Y-137254417D01*
X94188142Y-137257628D01*
X94235867Y-137225049D01*
X94237077Y-137223846D01*
X94256494Y-137198668D01*
X94268307Y-137164447D01*
X94274265Y-137111748D01*
X94276120Y-137031131D01*
X94276154Y-137013271D01*
X94271670Y-136902175D01*
X94257074Y-136825161D01*
X94230650Y-136778147D01*
X94190683Y-136757050D01*
X94167584Y-136754923D01*
X94112762Y-136764900D01*
X94075158Y-136797752D01*
X94052523Y-136857857D01*
X94042606Y-136949598D01*
X94041692Y-137000042D01*
X93853904Y-137000042D01*
X93854222Y-136982060D01*
X93856873Y-136894679D01*
X93860606Y-136830905D01*
X93865907Y-136785582D01*
X93873258Y-136753555D01*
X93883143Y-136729668D01*
X93896046Y-136708764D01*
X93901579Y-136700898D01*
X93974969Y-136626595D01*
X94067760Y-136584467D01*
X94175096Y-136572722D01*
X94268886Y-136584505D01*
G37*
X94268886Y-136584505D02*
X94343539Y-136621727D01*
X94409431Y-136690261D01*
X94427577Y-136715648D01*
X94447345Y-136748866D01*
X94460172Y-136784945D01*
X94467510Y-136833098D01*
X94470813Y-136902536D01*
X94471538Y-136994206D01*
X94468263Y-137119830D01*
X94456877Y-137214154D01*
X94435041Y-137284523D01*
X94400419Y-137338286D01*
X94350670Y-137382788D01*
X94347014Y-137385423D01*
X94297985Y-137412377D01*
X94238945Y-137425712D01*
X94163859Y-137429000D01*
X94041795Y-137429000D01*
X94041744Y-137547497D01*
X94040608Y-137613492D01*
X94033686Y-137652202D01*
X94015598Y-137675419D01*
X93980962Y-137694933D01*
X93972645Y-137698920D01*
X93933720Y-137717603D01*
X93903583Y-137729403D01*
X93881174Y-137730422D01*
X93865433Y-137716761D01*
X93855302Y-137684522D01*
X93849723Y-137629804D01*
X93847635Y-137548711D01*
X93847981Y-137437344D01*
X93849700Y-137291802D01*
X93850237Y-137248269D01*
X93852172Y-137098205D01*
X93853904Y-137000042D01*
X94041692Y-137000042D01*
X94042748Y-137083364D01*
X94047438Y-137137880D01*
X94058051Y-137173837D01*
X94076872Y-137201482D01*
X94089650Y-137214965D01*
X94141890Y-137254417D01*
X94188142Y-137257628D01*
X94235867Y-137225049D01*
X94237077Y-137223846D01*
X94256494Y-137198668D01*
X94268307Y-137164447D01*
X94274265Y-137111748D01*
X94276120Y-137031131D01*
X94276154Y-137013271D01*
X94271670Y-136902175D01*
X94257074Y-136825161D01*
X94230650Y-136778147D01*
X94190683Y-136757050D01*
X94167584Y-136754923D01*
X94112762Y-136764900D01*
X94075158Y-136797752D01*
X94052523Y-136857857D01*
X94042606Y-136949598D01*
X94041692Y-137000042D01*
X93853904Y-137000042D01*
X93854222Y-136982060D01*
X93856873Y-136894679D01*
X93860606Y-136830905D01*
X93865907Y-136785582D01*
X93873258Y-136753555D01*
X93883143Y-136729668D01*
X93896046Y-136708764D01*
X93901579Y-136700898D01*
X93974969Y-136626595D01*
X94067760Y-136584467D01*
X94175096Y-136572722D01*
X94268886Y-136584505D01*
G36*
X95771664Y-136595089D02*
G01*
X95834367Y-136631358D01*
X95877961Y-136667358D01*
X95909845Y-136705075D01*
X95931810Y-136751199D01*
X95945649Y-136812421D01*
X95953153Y-136895431D01*
X95956117Y-137006919D01*
X95956461Y-137087062D01*
X95956461Y-137382065D01*
X95790385Y-137456515D01*
X95780615Y-137133402D01*
X95776579Y-137012729D01*
X95772344Y-136925141D01*
X95767097Y-136864650D01*
X95760025Y-136825268D01*
X95750311Y-136801007D01*
X95737144Y-136785880D01*
X95732919Y-136782606D01*
X95668909Y-136757034D01*
X95604208Y-136767153D01*
X95565692Y-136794000D01*
X95550025Y-136813024D01*
X95539180Y-136837988D01*
X95532288Y-136875834D01*
X95528479Y-136933502D01*
X95526883Y-137017935D01*
X95526615Y-137105928D01*
X95526563Y-137216323D01*
X95524672Y-137294463D01*
X95518345Y-137347165D01*
X95504983Y-137381242D01*
X95481985Y-137403511D01*
X95446754Y-137420787D01*
X95399697Y-137438738D01*
X95348303Y-137458278D01*
X95354421Y-137111485D01*
X95356884Y-136986468D01*
X95359767Y-136894082D01*
X95363898Y-136827881D01*
X95370107Y-136781420D01*
X95379226Y-136748256D01*
X95392083Y-136721944D01*
X95407584Y-136698729D01*
X95482371Y-136624569D01*
X95573628Y-136581684D01*
X95672883Y-136571412D01*
X95771664Y-136595089D01*
G37*
X95771664Y-136595089D02*
X95834367Y-136631358D01*
X95877961Y-136667358D01*
X95909845Y-136705075D01*
X95931810Y-136751199D01*
X95945649Y-136812421D01*
X95953153Y-136895431D01*
X95956117Y-137006919D01*
X95956461Y-137087062D01*
X95956461Y-137382065D01*
X95790385Y-137456515D01*
X95780615Y-137133402D01*
X95776579Y-137012729D01*
X95772344Y-136925141D01*
X95767097Y-136864650D01*
X95760025Y-136825268D01*
X95750311Y-136801007D01*
X95737144Y-136785880D01*
X95732919Y-136782606D01*
X95668909Y-136757034D01*
X95604208Y-136767153D01*
X95565692Y-136794000D01*
X95550025Y-136813024D01*
X95539180Y-136837988D01*
X95532288Y-136875834D01*
X95528479Y-136933502D01*
X95526883Y-137017935D01*
X95526615Y-137105928D01*
X95526563Y-137216323D01*
X95524672Y-137294463D01*
X95518345Y-137347165D01*
X95504983Y-137381242D01*
X95481985Y-137403511D01*
X95446754Y-137420787D01*
X95399697Y-137438738D01*
X95348303Y-137458278D01*
X95354421Y-137111485D01*
X95356884Y-136986468D01*
X95359767Y-136894082D01*
X95363898Y-136827881D01*
X95370107Y-136781420D01*
X95379226Y-136748256D01*
X95392083Y-136721944D01*
X95407584Y-136698729D01*
X95482371Y-136624569D01*
X95573628Y-136581684D01*
X95672883Y-136571412D01*
X95771664Y-136595089D01*
G36*
X93516886Y-136587256D02*
G01*
X93608464Y-136635409D01*
X93676049Y-136712905D01*
X93700057Y-136762727D01*
X93718738Y-136837533D01*
X93728301Y-136932052D01*
X93729208Y-137035210D01*
X93721921Y-137135935D01*
X93706903Y-137223153D01*
X93684615Y-137285791D01*
X93677765Y-137296579D01*
X93596632Y-137377105D01*
X93500266Y-137425336D01*
X93395701Y-137439450D01*
X93289968Y-137417629D01*
X93260543Y-137404547D01*
X93203241Y-137364231D01*
X93152950Y-137310775D01*
X93148197Y-137303995D01*
X93128878Y-137271321D01*
X93116108Y-137236394D01*
X93108564Y-137190414D01*
X93104924Y-137124584D01*
X93103865Y-137030105D01*
X93103846Y-137008923D01*
X93103894Y-137002182D01*
X93299231Y-137002182D01*
X93300368Y-137091349D01*
X93304841Y-137150520D01*
X93314246Y-137188741D01*
X93330176Y-137215053D01*
X93338308Y-137223846D01*
X93385058Y-137257261D01*
X93430447Y-137255737D01*
X93476340Y-137226752D01*
X93503712Y-137195809D01*
X93519923Y-137150643D01*
X93529026Y-137079420D01*
X93529651Y-137071114D01*
X93531204Y-136942037D01*
X93514965Y-136846172D01*
X93481152Y-136784107D01*
X93429984Y-136756432D01*
X93411720Y-136754923D01*
X93363760Y-136762513D01*
X93330953Y-136788808D01*
X93310895Y-136839095D01*
X93301178Y-136918664D01*
X93299231Y-137002182D01*
X93103894Y-137002182D01*
X93104574Y-136908249D01*
X93107629Y-136837906D01*
X93114322Y-136789163D01*
X93125960Y-136753288D01*
X93143853Y-136721548D01*
X93147808Y-136715648D01*
X93214267Y-136636104D01*
X93286685Y-136589929D01*
X93374849Y-136571599D01*
X93404787Y-136570703D01*
X93516886Y-136587256D01*
G37*
X93516886Y-136587256D02*
X93608464Y-136635409D01*
X93676049Y-136712905D01*
X93700057Y-136762727D01*
X93718738Y-136837533D01*
X93728301Y-136932052D01*
X93729208Y-137035210D01*
X93721921Y-137135935D01*
X93706903Y-137223153D01*
X93684615Y-137285791D01*
X93677765Y-137296579D01*
X93596632Y-137377105D01*
X93500266Y-137425336D01*
X93395701Y-137439450D01*
X93289968Y-137417629D01*
X93260543Y-137404547D01*
X93203241Y-137364231D01*
X93152950Y-137310775D01*
X93148197Y-137303995D01*
X93128878Y-137271321D01*
X93116108Y-137236394D01*
X93108564Y-137190414D01*
X93104924Y-137124584D01*
X93103865Y-137030105D01*
X93103846Y-137008923D01*
X93103894Y-137002182D01*
X93299231Y-137002182D01*
X93300368Y-137091349D01*
X93304841Y-137150520D01*
X93314246Y-137188741D01*
X93330176Y-137215053D01*
X93338308Y-137223846D01*
X93385058Y-137257261D01*
X93430447Y-137255737D01*
X93476340Y-137226752D01*
X93503712Y-137195809D01*
X93519923Y-137150643D01*
X93529026Y-137079420D01*
X93529651Y-137071114D01*
X93531204Y-136942037D01*
X93514965Y-136846172D01*
X93481152Y-136784107D01*
X93429984Y-136756432D01*
X93411720Y-136754923D01*
X93363760Y-136762513D01*
X93330953Y-136788808D01*
X93310895Y-136839095D01*
X93301178Y-136918664D01*
X93299231Y-137002182D01*
X93103894Y-137002182D01*
X93104574Y-136908249D01*
X93107629Y-136837906D01*
X93114322Y-136789163D01*
X93125960Y-136753288D01*
X93143853Y-136721548D01*
X93147808Y-136715648D01*
X93214267Y-136636104D01*
X93286685Y-136589929D01*
X93374849Y-136571599D01*
X93404787Y-136570703D01*
X93516886Y-136587256D01*
G36*
X95034254Y-136599745D02*
G01*
X95111286Y-136651567D01*
X95170816Y-136726412D01*
X95206378Y-136821654D01*
X95213571Y-136891756D01*
X95212754Y-136921009D01*
X95205914Y-136943407D01*
X95187112Y-136963474D01*
X95150408Y-136985733D01*
X95089862Y-137014709D01*
X94999534Y-137054927D01*
X94999077Y-137055129D01*
X94915933Y-137093210D01*
X94847753Y-137127025D01*
X94801505Y-137152933D01*
X94784158Y-137167295D01*
X94784154Y-137167411D01*
X94799443Y-137198685D01*
X94835196Y-137233157D01*
X94876242Y-137257990D01*
X94897037Y-137262923D01*
X94953770Y-137245862D01*
X95002627Y-137203133D01*
X95026465Y-137156155D01*
X95049397Y-137121522D01*
X95094318Y-137082081D01*
X95147123Y-137048009D01*
X95193710Y-137029480D01*
X95203452Y-137028462D01*
X95214418Y-137045215D01*
X95215079Y-137088039D01*
X95207020Y-137145781D01*
X95191827Y-137207289D01*
X95171086Y-137261409D01*
X95170038Y-137263510D01*
X95107621Y-137350660D01*
X95026726Y-137409939D01*
X94934856Y-137439034D01*
X94839513Y-137435634D01*
X94748198Y-137397428D01*
X94744138Y-137394741D01*
X94672306Y-137329642D01*
X94625073Y-137244705D01*
X94598934Y-137133021D01*
X94595426Y-137101643D01*
X94589213Y-136953536D01*
X94596661Y-136884468D01*
X94784154Y-136884468D01*
X94786590Y-136927552D01*
X94799914Y-136940126D01*
X94833132Y-136930719D01*
X94885494Y-136908483D01*
X94944024Y-136880610D01*
X94945479Y-136879872D01*
X94995089Y-136853777D01*
X95015000Y-136836363D01*
X95010090Y-136818107D01*
X94989416Y-136794120D01*
X94936819Y-136759406D01*
X94880177Y-136756856D01*
X94829369Y-136782119D01*
X94794276Y-136830847D01*
X94784154Y-136884468D01*
X94596661Y-136884468D01*
X94601992Y-136835036D01*
X94634778Y-136741055D01*
X94680421Y-136675215D01*
X94762802Y-136608681D01*
X94853546Y-136575676D01*
X94946185Y-136573573D01*
X95034254Y-136599745D01*
G37*
X95034254Y-136599745D02*
X95111286Y-136651567D01*
X95170816Y-136726412D01*
X95206378Y-136821654D01*
X95213571Y-136891756D01*
X95212754Y-136921009D01*
X95205914Y-136943407D01*
X95187112Y-136963474D01*
X95150408Y-136985733D01*
X95089862Y-137014709D01*
X94999534Y-137054927D01*
X94999077Y-137055129D01*
X94915933Y-137093210D01*
X94847753Y-137127025D01*
X94801505Y-137152933D01*
X94784158Y-137167295D01*
X94784154Y-137167411D01*
X94799443Y-137198685D01*
X94835196Y-137233157D01*
X94876242Y-137257990D01*
X94897037Y-137262923D01*
X94953770Y-137245862D01*
X95002627Y-137203133D01*
X95026465Y-137156155D01*
X95049397Y-137121522D01*
X95094318Y-137082081D01*
X95147123Y-137048009D01*
X95193710Y-137029480D01*
X95203452Y-137028462D01*
X95214418Y-137045215D01*
X95215079Y-137088039D01*
X95207020Y-137145781D01*
X95191827Y-137207289D01*
X95171086Y-137261409D01*
X95170038Y-137263510D01*
X95107621Y-137350660D01*
X95026726Y-137409939D01*
X94934856Y-137439034D01*
X94839513Y-137435634D01*
X94748198Y-137397428D01*
X94744138Y-137394741D01*
X94672306Y-137329642D01*
X94625073Y-137244705D01*
X94598934Y-137133021D01*
X94595426Y-137101643D01*
X94589213Y-136953536D01*
X94596661Y-136884468D01*
X94784154Y-136884468D01*
X94786590Y-136927552D01*
X94799914Y-136940126D01*
X94833132Y-136930719D01*
X94885494Y-136908483D01*
X94944024Y-136880610D01*
X94945479Y-136879872D01*
X94995089Y-136853777D01*
X95015000Y-136836363D01*
X95010090Y-136818107D01*
X94989416Y-136794120D01*
X94936819Y-136759406D01*
X94880177Y-136756856D01*
X94829369Y-136782119D01*
X94794276Y-136830847D01*
X94784154Y-136884468D01*
X94596661Y-136884468D01*
X94601992Y-136835036D01*
X94634778Y-136741055D01*
X94680421Y-136675215D01*
X94762802Y-136608681D01*
X94853546Y-136575676D01*
X94946185Y-136573573D01*
X95034254Y-136599745D01*
G36*
X96659846Y-136492120D02*
G01*
X96665572Y-136571980D01*
X96672149Y-136619039D01*
X96681262Y-136639566D01*
X96694598Y-136639829D01*
X96698923Y-136637378D01*
X96756444Y-136619636D01*
X96831268Y-136620672D01*
X96907339Y-136638910D01*
X96954918Y-136662505D01*
X97003702Y-136700198D01*
X97039364Y-136742855D01*
X97063845Y-136797057D01*
X97079087Y-136869384D01*
X97087030Y-136966419D01*
X97089616Y-137094742D01*
X97089662Y-137119358D01*
X97089692Y-137395870D01*
X97028161Y-137417320D01*
X96984459Y-137431912D01*
X96960482Y-137438706D01*
X96959777Y-137438769D01*
X96957415Y-137420345D01*
X96955406Y-137369526D01*
X96953901Y-137292993D01*
X96953053Y-137197430D01*
X96952923Y-137139329D01*
X96952651Y-137024771D01*
X96951252Y-136942667D01*
X96947849Y-136886393D01*
X96941567Y-136849326D01*
X96931529Y-136824844D01*
X96916861Y-136806325D01*
X96907702Y-136797406D01*
X96844789Y-136761466D01*
X96776136Y-136758775D01*
X96713848Y-136789170D01*
X96702329Y-136800144D01*
X96685433Y-136820779D01*
X96673714Y-136845256D01*
X96666233Y-136880647D01*
X96662054Y-136934026D01*
X96660237Y-137012466D01*
X96659846Y-137120617D01*
X96659846Y-137395870D01*
X96598315Y-137417320D01*
X96554613Y-137431912D01*
X96530636Y-137438706D01*
X96529930Y-137438769D01*
X96528126Y-137420069D01*
X96526500Y-137367322D01*
X96525117Y-137285557D01*
X96524042Y-137179805D01*
X96523340Y-137055094D01*
X96523077Y-136916455D01*
X96523077Y-136381806D01*
X96650077Y-136328236D01*
X96659846Y-136492120D01*
G37*
X96659846Y-136492120D02*
X96665572Y-136571980D01*
X96672149Y-136619039D01*
X96681262Y-136639566D01*
X96694598Y-136639829D01*
X96698923Y-136637378D01*
X96756444Y-136619636D01*
X96831268Y-136620672D01*
X96907339Y-136638910D01*
X96954918Y-136662505D01*
X97003702Y-136700198D01*
X97039364Y-136742855D01*
X97063845Y-136797057D01*
X97079087Y-136869384D01*
X97087030Y-136966419D01*
X97089616Y-137094742D01*
X97089662Y-137119358D01*
X97089692Y-137395870D01*
X97028161Y-137417320D01*
X96984459Y-137431912D01*
X96960482Y-137438706D01*
X96959777Y-137438769D01*
X96957415Y-137420345D01*
X96955406Y-137369526D01*
X96953901Y-137292993D01*
X96953053Y-137197430D01*
X96952923Y-137139329D01*
X96952651Y-137024771D01*
X96951252Y-136942667D01*
X96947849Y-136886393D01*
X96941567Y-136849326D01*
X96931529Y-136824844D01*
X96916861Y-136806325D01*
X96907702Y-136797406D01*
X96844789Y-136761466D01*
X96776136Y-136758775D01*
X96713848Y-136789170D01*
X96702329Y-136800144D01*
X96685433Y-136820779D01*
X96673714Y-136845256D01*
X96666233Y-136880647D01*
X96662054Y-136934026D01*
X96660237Y-137012466D01*
X96659846Y-137120617D01*
X96659846Y-137395870D01*
X96598315Y-137417320D01*
X96554613Y-137431912D01*
X96530636Y-137438706D01*
X96529930Y-137438769D01*
X96528126Y-137420069D01*
X96526500Y-137367322D01*
X96525117Y-137285557D01*
X96524042Y-137179805D01*
X96523340Y-137055094D01*
X96523077Y-136916455D01*
X96523077Y-136381806D01*
X96650077Y-136328236D01*
X96659846Y-136492120D01*
G36*
X97553501Y-136626303D02*
G01*
X97630060Y-136654733D01*
X97630936Y-136655279D01*
X97678285Y-136690127D01*
X97713241Y-136730852D01*
X97737825Y-136783925D01*
X97754062Y-136855814D01*
X97763975Y-136952992D01*
X97769586Y-137081928D01*
X97770077Y-137100298D01*
X97777141Y-137377287D01*
X97717695Y-137408028D01*
X97674681Y-137428802D01*
X97648710Y-137438646D01*
X97647509Y-137438769D01*
X97643014Y-137420606D01*
X97639444Y-137371612D01*
X97637248Y-137300031D01*
X97636769Y-137242068D01*
X97636758Y-137148170D01*
X97632466Y-137089203D01*
X97617503Y-137061079D01*
X97585482Y-137059706D01*
X97530014Y-137080998D01*
X97446269Y-137120136D01*
X97384689Y-137152643D01*
X97353017Y-137180845D01*
X97343706Y-137211582D01*
X97343692Y-137213104D01*
X97359057Y-137266054D01*
X97404547Y-137294660D01*
X97474166Y-137298803D01*
X97524313Y-137298084D01*
X97550754Y-137312527D01*
X97567243Y-137347218D01*
X97576733Y-137391416D01*
X97563057Y-137416493D01*
X97557907Y-137420082D01*
X97509425Y-137434496D01*
X97441531Y-137436537D01*
X97371612Y-137426983D01*
X97322068Y-137409522D01*
X97253570Y-137351364D01*
X97214634Y-137270408D01*
X97206923Y-137207160D01*
X97212807Y-137150111D01*
X97234101Y-137103542D01*
X97276265Y-137062181D01*
X97344759Y-137020755D01*
X97445044Y-136973993D01*
X97451154Y-136971350D01*
X97541490Y-136929617D01*
X97597235Y-136895391D01*
X97621129Y-136864635D01*
X97615913Y-136833311D01*
X97584328Y-136797383D01*
X97574883Y-136789116D01*
X97511617Y-136757058D01*
X97446064Y-136758407D01*
X97388972Y-136789838D01*
X97351093Y-136848024D01*
X97347574Y-136859446D01*
X97313300Y-136914837D01*
X97269809Y-136941518D01*
X97206923Y-136967960D01*
X97206923Y-136899548D01*
X97226052Y-136800110D01*
X97282831Y-136708902D01*
X97312378Y-136678389D01*
X97379542Y-136639228D01*
X97464956Y-136621500D01*
X97553501Y-136626303D01*
G37*
X97553501Y-136626303D02*
X97630060Y-136654733D01*
X97630936Y-136655279D01*
X97678285Y-136690127D01*
X97713241Y-136730852D01*
X97737825Y-136783925D01*
X97754062Y-136855814D01*
X97763975Y-136952992D01*
X97769586Y-137081928D01*
X97770077Y-137100298D01*
X97777141Y-137377287D01*
X97717695Y-137408028D01*
X97674681Y-137428802D01*
X97648710Y-137438646D01*
X97647509Y-137438769D01*
X97643014Y-137420606D01*
X97639444Y-137371612D01*
X97637248Y-137300031D01*
X97636769Y-137242068D01*
X97636758Y-137148170D01*
X97632466Y-137089203D01*
X97617503Y-137061079D01*
X97585482Y-137059706D01*
X97530014Y-137080998D01*
X97446269Y-137120136D01*
X97384689Y-137152643D01*
X97353017Y-137180845D01*
X97343706Y-137211582D01*
X97343692Y-137213104D01*
X97359057Y-137266054D01*
X97404547Y-137294660D01*
X97474166Y-137298803D01*
X97524313Y-137298084D01*
X97550754Y-137312527D01*
X97567243Y-137347218D01*
X97576733Y-137391416D01*
X97563057Y-137416493D01*
X97557907Y-137420082D01*
X97509425Y-137434496D01*
X97441531Y-137436537D01*
X97371612Y-137426983D01*
X97322068Y-137409522D01*
X97253570Y-137351364D01*
X97214634Y-137270408D01*
X97206923Y-137207160D01*
X97212807Y-137150111D01*
X97234101Y-137103542D01*
X97276265Y-137062181D01*
X97344759Y-137020755D01*
X97445044Y-136973993D01*
X97451154Y-136971350D01*
X97541490Y-136929617D01*
X97597235Y-136895391D01*
X97621129Y-136864635D01*
X97615913Y-136833311D01*
X97584328Y-136797383D01*
X97574883Y-136789116D01*
X97511617Y-136757058D01*
X97446064Y-136758407D01*
X97388972Y-136789838D01*
X97351093Y-136848024D01*
X97347574Y-136859446D01*
X97313300Y-136914837D01*
X97269809Y-136941518D01*
X97206923Y-136967960D01*
X97206923Y-136899548D01*
X97226052Y-136800110D01*
X97282831Y-136708902D01*
X97312378Y-136678389D01*
X97379542Y-136639228D01*
X97464956Y-136621500D01*
X97553501Y-136626303D01*
G36*
X98213362Y-136624670D02*
G01*
X98302117Y-136657421D01*
X98374022Y-136715350D01*
X98402144Y-136756128D01*
X98432802Y-136830954D01*
X98432165Y-136885058D01*
X98399987Y-136921446D01*
X98388081Y-136927633D01*
X98336675Y-136946925D01*
X98310422Y-136941982D01*
X98301530Y-136909587D01*
X98301077Y-136891692D01*
X98284797Y-136825859D01*
X98242365Y-136779807D01*
X98183388Y-136757564D01*
X98117475Y-136763161D01*
X98063895Y-136792229D01*
X98045798Y-136808810D01*
X98032971Y-136828925D01*
X98024306Y-136859332D01*
X98018696Y-136906788D01*
X98015035Y-136978050D01*
X98012215Y-137079875D01*
X98011484Y-137112115D01*
X98008820Y-137222410D01*
X98005792Y-137300036D01*
X98001250Y-137351396D01*
X97994046Y-137382890D01*
X97983033Y-137400920D01*
X97967060Y-137411888D01*
X97956834Y-137416733D01*
X97913406Y-137433301D01*
X97887842Y-137438769D01*
X97879395Y-137420507D01*
X97874239Y-137365296D01*
X97872346Y-137272499D01*
X97873689Y-137141478D01*
X97874107Y-137121269D01*
X97877058Y-137001733D01*
X97880548Y-136914449D01*
X97885514Y-136852591D01*
X97892893Y-136809336D01*
X97903624Y-136777860D01*
X97918645Y-136751339D01*
X97926502Y-136739975D01*
X97971553Y-136689692D01*
X98021940Y-136650581D01*
X98028108Y-136647167D01*
X98118458Y-136620212D01*
X98213362Y-136624670D01*
G37*
X98213362Y-136624670D02*
X98302117Y-136657421D01*
X98374022Y-136715350D01*
X98402144Y-136756128D01*
X98432802Y-136830954D01*
X98432165Y-136885058D01*
X98399987Y-136921446D01*
X98388081Y-136927633D01*
X98336675Y-136946925D01*
X98310422Y-136941982D01*
X98301530Y-136909587D01*
X98301077Y-136891692D01*
X98284797Y-136825859D01*
X98242365Y-136779807D01*
X98183388Y-136757564D01*
X98117475Y-136763161D01*
X98063895Y-136792229D01*
X98045798Y-136808810D01*
X98032971Y-136828925D01*
X98024306Y-136859332D01*
X98018696Y-136906788D01*
X98015035Y-136978050D01*
X98012215Y-137079875D01*
X98011484Y-137112115D01*
X98008820Y-137222410D01*
X98005792Y-137300036D01*
X98001250Y-137351396D01*
X97994046Y-137382890D01*
X97983033Y-137400920D01*
X97967060Y-137411888D01*
X97956834Y-137416733D01*
X97913406Y-137433301D01*
X97887842Y-137438769D01*
X97879395Y-137420507D01*
X97874239Y-137365296D01*
X97872346Y-137272499D01*
X97873689Y-137141478D01*
X97874107Y-137121269D01*
X97877058Y-137001733D01*
X97880548Y-136914449D01*
X97885514Y-136852591D01*
X97892893Y-136809336D01*
X97903624Y-136777860D01*
X97918645Y-136751339D01*
X97926502Y-136739975D01*
X97971553Y-136689692D01*
X98021940Y-136650581D01*
X98028108Y-136647167D01*
X98118458Y-136620212D01*
X98213362Y-136624670D01*
G36*
X99102081Y-136780289D02*
G01*
X99101833Y-136926320D01*
X99100872Y-137038655D01*
X99098794Y-137122678D01*
X99095193Y-137183769D01*
X99089665Y-137227309D01*
X99081804Y-137258679D01*
X99071207Y-137283262D01*
X99063182Y-137297294D01*
X98996728Y-137373388D01*
X98912470Y-137421084D01*
X98819249Y-137438199D01*
X98725900Y-137422546D01*
X98670312Y-137394418D01*
X98611957Y-137345760D01*
X98572186Y-137286333D01*
X98548190Y-137208507D01*
X98537161Y-137104652D01*
X98535599Y-137028462D01*
X98535809Y-137022986D01*
X98672308Y-137022986D01*
X98673141Y-137110355D01*
X98676961Y-137168192D01*
X98685746Y-137206029D01*
X98701474Y-137233398D01*
X98720266Y-137254042D01*
X98783375Y-137293890D01*
X98851137Y-137297295D01*
X98915179Y-137264025D01*
X98920164Y-137259517D01*
X98941439Y-137236067D01*
X98954779Y-137208166D01*
X98962001Y-137166641D01*
X98964923Y-137102316D01*
X98965385Y-137031200D01*
X98964383Y-136941858D01*
X98960238Y-136882258D01*
X98951236Y-136843089D01*
X98935667Y-136815040D01*
X98922902Y-136800144D01*
X98863600Y-136762575D01*
X98795301Y-136758057D01*
X98730110Y-136786753D01*
X98717528Y-136797406D01*
X98696111Y-136821063D01*
X98682744Y-136849251D01*
X98675566Y-136891245D01*
X98672719Y-136956319D01*
X98672308Y-137022986D01*
X98535809Y-137022986D01*
X98540322Y-136905765D01*
X98556362Y-136813577D01*
X98586528Y-136744269D01*
X98633629Y-136690211D01*
X98670312Y-136662505D01*
X98736990Y-136632572D01*
X98814272Y-136618678D01*
X98886110Y-136622397D01*
X98926308Y-136637400D01*
X98942082Y-136641670D01*
X98952550Y-136625750D01*
X98959856Y-136583089D01*
X98965385Y-136518106D01*
X98971437Y-136445732D01*
X98979844Y-136402187D01*
X98995141Y-136377287D01*
X99021864Y-136360845D01*
X99038654Y-136353564D01*
X99102154Y-136326963D01*
X99102081Y-136780289D01*
G37*
X99102081Y-136780289D02*
X99101833Y-136926320D01*
X99100872Y-137038655D01*
X99098794Y-137122678D01*
X99095193Y-137183769D01*
X99089665Y-137227309D01*
X99081804Y-137258679D01*
X99071207Y-137283262D01*
X99063182Y-137297294D01*
X98996728Y-137373388D01*
X98912470Y-137421084D01*
X98819249Y-137438199D01*
X98725900Y-137422546D01*
X98670312Y-137394418D01*
X98611957Y-137345760D01*
X98572186Y-137286333D01*
X98548190Y-137208507D01*
X98537161Y-137104652D01*
X98535599Y-137028462D01*
X98535809Y-137022986D01*
X98672308Y-137022986D01*
X98673141Y-137110355D01*
X98676961Y-137168192D01*
X98685746Y-137206029D01*
X98701474Y-137233398D01*
X98720266Y-137254042D01*
X98783375Y-137293890D01*
X98851137Y-137297295D01*
X98915179Y-137264025D01*
X98920164Y-137259517D01*
X98941439Y-137236067D01*
X98954779Y-137208166D01*
X98962001Y-137166641D01*
X98964923Y-137102316D01*
X98965385Y-137031200D01*
X98964383Y-136941858D01*
X98960238Y-136882258D01*
X98951236Y-136843089D01*
X98935667Y-136815040D01*
X98922902Y-136800144D01*
X98863600Y-136762575D01*
X98795301Y-136758057D01*
X98730110Y-136786753D01*
X98717528Y-136797406D01*
X98696111Y-136821063D01*
X98682744Y-136849251D01*
X98675566Y-136891245D01*
X98672719Y-136956319D01*
X98672308Y-137022986D01*
X98535809Y-137022986D01*
X98540322Y-136905765D01*
X98556362Y-136813577D01*
X98586528Y-136744269D01*
X98633629Y-136690211D01*
X98670312Y-136662505D01*
X98736990Y-136632572D01*
X98814272Y-136618678D01*
X98886110Y-136622397D01*
X98926308Y-136637400D01*
X98942082Y-136641670D01*
X98952550Y-136625750D01*
X98959856Y-136583089D01*
X98965385Y-136518106D01*
X98971437Y-136445732D01*
X98979844Y-136402187D01*
X98995141Y-136377287D01*
X99021864Y-136360845D01*
X99038654Y-136353564D01*
X99102154Y-136326963D01*
X99102081Y-136780289D01*
G36*
X99895929Y-136636662D02*
G01*
X99898911Y-136688068D01*
X99901247Y-136766192D01*
X99902749Y-136864857D01*
X99903231Y-136968343D01*
X99903231Y-137318533D01*
X99841401Y-137380363D01*
X99798793Y-137418462D01*
X99761390Y-137433895D01*
X99710270Y-137432918D01*
X99689978Y-137430433D01*
X99626554Y-137423200D01*
X99574095Y-137419055D01*
X99561308Y-137418672D01*
X99518199Y-137421176D01*
X99456544Y-137427462D01*
X99432638Y-137430433D01*
X99373922Y-137435028D01*
X99334464Y-137425046D01*
X99295338Y-137394228D01*
X99281215Y-137380363D01*
X99219385Y-137318533D01*
X99219385Y-136663503D01*
X99269150Y-136640829D01*
X99312002Y-136624034D01*
X99337073Y-136618154D01*
X99343501Y-136636736D01*
X99349509Y-136688655D01*
X99354697Y-136768172D01*
X99358664Y-136869546D01*
X99360577Y-136955192D01*
X99365923Y-137292231D01*
X99412560Y-137298825D01*
X99454976Y-137294214D01*
X99475760Y-137279287D01*
X99481570Y-137251377D01*
X99486530Y-137191925D01*
X99490246Y-137108466D01*
X99492324Y-137008532D01*
X99492624Y-136957104D01*
X99492923Y-136661054D01*
X99554454Y-136639604D01*
X99598004Y-136625020D01*
X99621694Y-136618219D01*
X99622377Y-136618154D01*
X99624754Y-136636642D01*
X99627366Y-136687906D01*
X99629995Y-136765649D01*
X99632421Y-136863574D01*
X99634115Y-136955192D01*
X99639461Y-137292231D01*
X99756692Y-137292231D01*
X99762072Y-136984746D01*
X99767451Y-136677261D01*
X99824601Y-136647707D01*
X99866797Y-136627413D01*
X99891770Y-136618204D01*
X99892491Y-136618154D01*
X99895929Y-136636662D01*
G37*
X99895929Y-136636662D02*
X99898911Y-136688068D01*
X99901247Y-136766192D01*
X99902749Y-136864857D01*
X99903231Y-136968343D01*
X99903231Y-137318533D01*
X99841401Y-137380363D01*
X99798793Y-137418462D01*
X99761390Y-137433895D01*
X99710270Y-137432918D01*
X99689978Y-137430433D01*
X99626554Y-137423200D01*
X99574095Y-137419055D01*
X99561308Y-137418672D01*
X99518199Y-137421176D01*
X99456544Y-137427462D01*
X99432638Y-137430433D01*
X99373922Y-137435028D01*
X99334464Y-137425046D01*
X99295338Y-137394228D01*
X99281215Y-137380363D01*
X99219385Y-137318533D01*
X99219385Y-136663503D01*
X99269150Y-136640829D01*
X99312002Y-136624034D01*
X99337073Y-136618154D01*
X99343501Y-136636736D01*
X99349509Y-136688655D01*
X99354697Y-136768172D01*
X99358664Y-136869546D01*
X99360577Y-136955192D01*
X99365923Y-137292231D01*
X99412560Y-137298825D01*
X99454976Y-137294214D01*
X99475760Y-137279287D01*
X99481570Y-137251377D01*
X99486530Y-137191925D01*
X99490246Y-137108466D01*
X99492324Y-137008532D01*
X99492624Y-136957104D01*
X99492923Y-136661054D01*
X99554454Y-136639604D01*
X99598004Y-136625020D01*
X99621694Y-136618219D01*
X99622377Y-136618154D01*
X99624754Y-136636642D01*
X99627366Y-136687906D01*
X99629995Y-136765649D01*
X99632421Y-136863574D01*
X99634115Y-136955192D01*
X99639461Y-137292231D01*
X99756692Y-137292231D01*
X99762072Y-136984746D01*
X99767451Y-136677261D01*
X99824601Y-136647707D01*
X99866797Y-136627413D01*
X99891770Y-136618204D01*
X99892491Y-136618154D01*
X99895929Y-136636662D01*
G36*
X100387333Y-136633528D02*
G01*
X100443590Y-136659117D01*
X100487747Y-136690124D01*
X100520101Y-136724795D01*
X100542438Y-136769520D01*
X100556546Y-136830692D01*
X100564211Y-136914701D01*
X100567220Y-137027940D01*
X100567538Y-137102509D01*
X100567538Y-137393420D01*
X100517773Y-137416095D01*
X100478576Y-137432667D01*
X100459157Y-137438769D01*
X100455442Y-137420610D01*
X100452495Y-137371648D01*
X100450691Y-137300153D01*
X100450308Y-137243385D01*
X100448661Y-137161371D01*
X100444222Y-137096309D01*
X100437740Y-137056467D01*
X100432590Y-137048000D01*
X100397977Y-137056646D01*
X100343640Y-137078823D01*
X100280722Y-137108886D01*
X100220368Y-137141192D01*
X100173721Y-137170098D01*
X100151926Y-137189961D01*
X100151839Y-137190175D01*
X100153714Y-137226935D01*
X100170525Y-137262026D01*
X100200039Y-137290528D01*
X100243116Y-137300061D01*
X100279932Y-137298950D01*
X100332074Y-137298133D01*
X100359444Y-137310349D01*
X100375882Y-137342624D01*
X100377955Y-137348710D01*
X100385081Y-137394739D01*
X100366024Y-137422687D01*
X100316353Y-137436007D01*
X100262697Y-137438470D01*
X100166142Y-137420210D01*
X100116159Y-137394131D01*
X100054429Y-137332868D01*
X100021690Y-137257670D01*
X100018753Y-137178211D01*
X100046424Y-137104167D01*
X100088047Y-137057769D01*
X100129604Y-137031793D01*
X100194922Y-136998907D01*
X100271038Y-136965557D01*
X100283726Y-136960461D01*
X100367333Y-136923565D01*
X100415530Y-136891046D01*
X100431030Y-136858718D01*
X100416550Y-136822394D01*
X100391692Y-136794000D01*
X100332939Y-136759039D01*
X100268293Y-136756417D01*
X100209008Y-136783358D01*
X100166339Y-136837088D01*
X100160739Y-136850950D01*
X100128133Y-136901936D01*
X100080530Y-136939787D01*
X100020461Y-136970850D01*
X100020461Y-136882768D01*
X100023997Y-136828951D01*
X100039156Y-136786534D01*
X100072768Y-136741279D01*
X100105035Y-136706420D01*
X100155209Y-136657062D01*
X100194193Y-136630547D01*
X100236064Y-136619911D01*
X100283460Y-136618154D01*
X100387333Y-136633528D01*
G37*
X100387333Y-136633528D02*
X100443590Y-136659117D01*
X100487747Y-136690124D01*
X100520101Y-136724795D01*
X100542438Y-136769520D01*
X100556546Y-136830692D01*
X100564211Y-136914701D01*
X100567220Y-137027940D01*
X100567538Y-137102509D01*
X100567538Y-137393420D01*
X100517773Y-137416095D01*
X100478576Y-137432667D01*
X100459157Y-137438769D01*
X100455442Y-137420610D01*
X100452495Y-137371648D01*
X100450691Y-137300153D01*
X100450308Y-137243385D01*
X100448661Y-137161371D01*
X100444222Y-137096309D01*
X100437740Y-137056467D01*
X100432590Y-137048000D01*
X100397977Y-137056646D01*
X100343640Y-137078823D01*
X100280722Y-137108886D01*
X100220368Y-137141192D01*
X100173721Y-137170098D01*
X100151926Y-137189961D01*
X100151839Y-137190175D01*
X100153714Y-137226935D01*
X100170525Y-137262026D01*
X100200039Y-137290528D01*
X100243116Y-137300061D01*
X100279932Y-137298950D01*
X100332074Y-137298133D01*
X100359444Y-137310349D01*
X100375882Y-137342624D01*
X100377955Y-137348710D01*
X100385081Y-137394739D01*
X100366024Y-137422687D01*
X100316353Y-137436007D01*
X100262697Y-137438470D01*
X100166142Y-137420210D01*
X100116159Y-137394131D01*
X100054429Y-137332868D01*
X100021690Y-137257670D01*
X100018753Y-137178211D01*
X100046424Y-137104167D01*
X100088047Y-137057769D01*
X100129604Y-137031793D01*
X100194922Y-136998907D01*
X100271038Y-136965557D01*
X100283726Y-136960461D01*
X100367333Y-136923565D01*
X100415530Y-136891046D01*
X100431030Y-136858718D01*
X100416550Y-136822394D01*
X100391692Y-136794000D01*
X100332939Y-136759039D01*
X100268293Y-136756417D01*
X100209008Y-136783358D01*
X100166339Y-136837088D01*
X100160739Y-136850950D01*
X100128133Y-136901936D01*
X100080530Y-136939787D01*
X100020461Y-136970850D01*
X100020461Y-136882768D01*
X100023997Y-136828951D01*
X100039156Y-136786534D01*
X100072768Y-136741279D01*
X100105035Y-136706420D01*
X100155209Y-136657062D01*
X100194193Y-136630547D01*
X100236064Y-136619911D01*
X100283460Y-136618154D01*
X100387333Y-136633528D01*
G36*
X101070807Y-136636782D02*
G01*
X101094161Y-136646988D01*
X101149902Y-136691134D01*
X101197569Y-136754967D01*
X101227048Y-136823087D01*
X101231846Y-136856670D01*
X101215760Y-136903556D01*
X101180475Y-136928365D01*
X101142644Y-136943387D01*
X101125321Y-136946155D01*
X101116886Y-136926066D01*
X101100230Y-136882351D01*
X101092923Y-136862598D01*
X101051948Y-136794271D01*
X100992622Y-136760191D01*
X100916552Y-136761239D01*
X100910918Y-136762581D01*
X100870305Y-136781836D01*
X100840448Y-136819375D01*
X100820055Y-136879809D01*
X100807836Y-136967751D01*
X100802500Y-137087813D01*
X100802000Y-137151698D01*
X100801752Y-137252403D01*
X100800126Y-137321054D01*
X100795801Y-137364673D01*
X100787454Y-137390282D01*
X100773765Y-137404903D01*
X100753411Y-137415558D01*
X100752234Y-137416095D01*
X100713038Y-137432667D01*
X100693619Y-137438769D01*
X100690635Y-137420319D01*
X100688081Y-137369323D01*
X100686140Y-137292308D01*
X100684997Y-137195805D01*
X100684769Y-137125184D01*
X100685932Y-136988525D01*
X100690479Y-136884851D01*
X100699999Y-136808108D01*
X100716081Y-136752246D01*
X100740313Y-136711212D01*
X100774286Y-136678954D01*
X100807833Y-136656440D01*
X100888499Y-136626476D01*
X100982381Y-136619718D01*
X101070807Y-136636782D01*
G37*
X101070807Y-136636782D02*
X101094161Y-136646988D01*
X101149902Y-136691134D01*
X101197569Y-136754967D01*
X101227048Y-136823087D01*
X101231846Y-136856670D01*
X101215760Y-136903556D01*
X101180475Y-136928365D01*
X101142644Y-136943387D01*
X101125321Y-136946155D01*
X101116886Y-136926066D01*
X101100230Y-136882351D01*
X101092923Y-136862598D01*
X101051948Y-136794271D01*
X100992622Y-136760191D01*
X100916552Y-136761239D01*
X100910918Y-136762581D01*
X100870305Y-136781836D01*
X100840448Y-136819375D01*
X100820055Y-136879809D01*
X100807836Y-136967751D01*
X100802500Y-137087813D01*
X100802000Y-137151698D01*
X100801752Y-137252403D01*
X100800126Y-137321054D01*
X100795801Y-137364673D01*
X100787454Y-137390282D01*
X100773765Y-137404903D01*
X100753411Y-137415558D01*
X100752234Y-137416095D01*
X100713038Y-137432667D01*
X100693619Y-137438769D01*
X100690635Y-137420319D01*
X100688081Y-137369323D01*
X100686140Y-137292308D01*
X100684997Y-137195805D01*
X100684769Y-137125184D01*
X100685932Y-136988525D01*
X100690479Y-136884851D01*
X100699999Y-136808108D01*
X100716081Y-136752246D01*
X100740313Y-136711212D01*
X100774286Y-136678954D01*
X100807833Y-136656440D01*
X100888499Y-136626476D01*
X100982381Y-136619718D01*
X101070807Y-136636782D01*
G36*
X101745224Y-136647838D02*
G01*
X101822528Y-136698361D01*
X101859814Y-136743590D01*
X101889353Y-136825663D01*
X101891699Y-136890607D01*
X101886385Y-136977445D01*
X101686115Y-137065103D01*
X101588739Y-137109887D01*
X101525113Y-137145913D01*
X101492029Y-137177117D01*
X101486280Y-137207436D01*
X101504658Y-137240805D01*
X101524923Y-137262923D01*
X101583889Y-137298393D01*
X101648024Y-137300879D01*
X101706926Y-137273235D01*
X101750197Y-137218320D01*
X101757936Y-137198928D01*
X101795006Y-137138364D01*
X101837654Y-137112552D01*
X101896154Y-137090471D01*
X101896154Y-137174184D01*
X101890982Y-137231150D01*
X101870723Y-137279189D01*
X101828262Y-137334346D01*
X101821951Y-137341514D01*
X101774720Y-137390585D01*
X101734121Y-137416920D01*
X101683328Y-137429035D01*
X101641220Y-137433003D01*
X101565902Y-137433991D01*
X101512286Y-137421466D01*
X101478838Y-137402869D01*
X101426268Y-137361975D01*
X101389879Y-137317748D01*
X101366850Y-137262126D01*
X101354359Y-137187047D01*
X101349587Y-137084449D01*
X101349206Y-137032376D01*
X101350501Y-136969948D01*
X101468471Y-136969948D01*
X101469839Y-137003438D01*
X101473249Y-137008923D01*
X101495753Y-137001472D01*
X101544182Y-136981753D01*
X101608908Y-136953718D01*
X101622443Y-136947692D01*
X101704244Y-136906096D01*
X101749312Y-136869538D01*
X101759217Y-136835296D01*
X101735526Y-136800648D01*
X101715960Y-136785339D01*
X101645360Y-136754721D01*
X101579280Y-136759780D01*
X101523959Y-136797151D01*
X101485636Y-136863473D01*
X101473349Y-136916116D01*
X101468471Y-136969948D01*
X101350501Y-136969948D01*
X101351730Y-136910720D01*
X101361032Y-136820710D01*
X101379460Y-136755167D01*
X101409360Y-136706912D01*
X101453080Y-136668767D01*
X101472141Y-136656440D01*
X101558726Y-136624336D01*
X101653522Y-136622316D01*
X101745224Y-136647838D01*
G37*
X101745224Y-136647838D02*
X101822528Y-136698361D01*
X101859814Y-136743590D01*
X101889353Y-136825663D01*
X101891699Y-136890607D01*
X101886385Y-136977445D01*
X101686115Y-137065103D01*
X101588739Y-137109887D01*
X101525113Y-137145913D01*
X101492029Y-137177117D01*
X101486280Y-137207436D01*
X101504658Y-137240805D01*
X101524923Y-137262923D01*
X101583889Y-137298393D01*
X101648024Y-137300879D01*
X101706926Y-137273235D01*
X101750197Y-137218320D01*
X101757936Y-137198928D01*
X101795006Y-137138364D01*
X101837654Y-137112552D01*
X101896154Y-137090471D01*
X101896154Y-137174184D01*
X101890982Y-137231150D01*
X101870723Y-137279189D01*
X101828262Y-137334346D01*
X101821951Y-137341514D01*
X101774720Y-137390585D01*
X101734121Y-137416920D01*
X101683328Y-137429035D01*
X101641220Y-137433003D01*
X101565902Y-137433991D01*
X101512286Y-137421466D01*
X101478838Y-137402869D01*
X101426268Y-137361975D01*
X101389879Y-137317748D01*
X101366850Y-137262126D01*
X101354359Y-137187047D01*
X101349587Y-137084449D01*
X101349206Y-137032376D01*
X101350501Y-136969948D01*
X101468471Y-136969948D01*
X101469839Y-137003438D01*
X101473249Y-137008923D01*
X101495753Y-137001472D01*
X101544182Y-136981753D01*
X101608908Y-136953718D01*
X101622443Y-136947692D01*
X101704244Y-136906096D01*
X101749312Y-136869538D01*
X101759217Y-136835296D01*
X101735526Y-136800648D01*
X101715960Y-136785339D01*
X101645360Y-136754721D01*
X101579280Y-136759780D01*
X101523959Y-136797151D01*
X101485636Y-136863473D01*
X101473349Y-136916116D01*
X101468471Y-136969948D01*
X101350501Y-136969948D01*
X101351730Y-136910720D01*
X101361032Y-136820710D01*
X101379460Y-136755167D01*
X101409360Y-136706912D01*
X101453080Y-136668767D01*
X101472141Y-136656440D01*
X101558726Y-136624336D01*
X101653522Y-136622316D01*
X101745224Y-136647838D01*
G36*
X97639878Y-130287776D02*
G01*
X97745612Y-130288355D01*
X97822132Y-130289922D01*
X97874372Y-130292972D01*
X97907263Y-130297996D01*
X97925737Y-130305489D01*
X97934727Y-130315944D01*
X97939163Y-130329853D01*
X97939594Y-130331654D01*
X97946333Y-130364145D01*
X97958808Y-130428252D01*
X97975719Y-130517151D01*
X97995771Y-130624019D01*
X98017664Y-130742033D01*
X98018429Y-130746178D01*
X98040359Y-130861831D01*
X98060877Y-130964014D01*
X98078659Y-131046598D01*
X98092381Y-131103456D01*
X98100718Y-131128458D01*
X98101116Y-131128901D01*
X98125677Y-131141110D01*
X98176315Y-131161456D01*
X98242095Y-131185545D01*
X98242461Y-131185674D01*
X98325317Y-131216818D01*
X98423000Y-131256491D01*
X98515077Y-131296381D01*
X98519434Y-131298353D01*
X98669407Y-131366420D01*
X99001498Y-131139639D01*
X99103374Y-131070504D01*
X99195657Y-131008697D01*
X99273003Y-130957733D01*
X99330064Y-130921127D01*
X99361495Y-130902394D01*
X99364479Y-130901004D01*
X99387321Y-130907190D01*
X99429982Y-130937035D01*
X99494128Y-130991947D01*
X99581421Y-131073334D01*
X99670535Y-131159922D01*
X99756441Y-131245247D01*
X99833327Y-131323108D01*
X99896564Y-131388697D01*
X99941523Y-131437205D01*
X99963576Y-131463825D01*
X99964396Y-131465195D01*
X99966834Y-131483463D01*
X99957650Y-131513295D01*
X99934574Y-131558721D01*
X99895337Y-131623770D01*
X99837670Y-131712470D01*
X99760795Y-131826657D01*
X99692570Y-131927162D01*
X99631582Y-132017303D01*
X99581356Y-132091849D01*
X99545416Y-132145565D01*
X99527287Y-132173218D01*
X99526146Y-132175095D01*
X99528359Y-132201590D01*
X99545138Y-132253086D01*
X99573142Y-132319851D01*
X99583122Y-132341172D01*
X99626672Y-132436159D01*
X99673134Y-132543937D01*
X99710877Y-132637192D01*
X99738073Y-132706406D01*
X99759675Y-132759006D01*
X99772158Y-132786497D01*
X99773709Y-132788616D01*
X99796668Y-132792124D01*
X99850786Y-132801738D01*
X99928868Y-132816089D01*
X100023719Y-132833807D01*
X100128143Y-132853525D01*
X100234944Y-132873874D01*
X100336926Y-132893486D01*
X100426894Y-132910991D01*
X100497653Y-132925022D01*
X100542006Y-132934209D01*
X100552885Y-132936807D01*
X100564122Y-132943218D01*
X100572605Y-132957697D01*
X100578714Y-132985133D01*
X100582832Y-133030411D01*
X100585341Y-133098420D01*
X100586621Y-133194047D01*
X100587054Y-133322180D01*
X100587077Y-133374701D01*
X100587077Y-133801845D01*
X100484500Y-133822091D01*
X100427431Y-133833070D01*
X100342269Y-133849095D01*
X100239372Y-133868233D01*
X100129096Y-133888551D01*
X100098615Y-133894132D01*
X99996855Y-133913917D01*
X99908205Y-133933373D01*
X99840108Y-133950697D01*
X99800004Y-133964088D01*
X99793323Y-133968079D01*
X99776919Y-133996342D01*
X99753399Y-134051109D01*
X99727316Y-134121588D01*
X99722142Y-134136769D01*
X99687956Y-134230896D01*
X99645523Y-134337101D01*
X99603997Y-134432473D01*
X99603792Y-134432916D01*
X99534640Y-134582525D01*
X99989512Y-135251617D01*
X99697500Y-135544116D01*
X99609180Y-135631170D01*
X99528625Y-135707909D01*
X99460360Y-135770237D01*
X99408908Y-135814056D01*
X99378794Y-135835270D01*
X99374474Y-135836616D01*
X99349111Y-135826016D01*
X99297358Y-135796547D01*
X99224868Y-135751705D01*
X99137294Y-135694984D01*
X99042612Y-135631462D01*
X98946516Y-135566668D01*
X98860837Y-135510287D01*
X98791016Y-135465788D01*
X98742494Y-135436639D01*
X98720782Y-135426308D01*
X98694293Y-135435050D01*
X98644062Y-135458087D01*
X98580451Y-135490631D01*
X98573708Y-135494249D01*
X98488046Y-135537210D01*
X98429306Y-135558279D01*
X98392772Y-135558503D01*
X98373731Y-135538928D01*
X98373620Y-135538654D01*
X98364102Y-135515472D01*
X98341403Y-135460441D01*
X98307282Y-135377822D01*
X98263500Y-135271872D01*
X98211816Y-135146852D01*
X98153992Y-135007020D01*
X98097991Y-134871637D01*
X98036447Y-134722234D01*
X97979939Y-134583832D01*
X97930161Y-134460673D01*
X97888806Y-134357002D01*
X97857568Y-134277059D01*
X97838141Y-134225088D01*
X97832154Y-134205692D01*
X97847168Y-134183443D01*
X97886439Y-134147982D01*
X97938807Y-134108887D01*
X98087941Y-133985245D01*
X98204511Y-133843522D01*
X98287118Y-133686704D01*
X98334366Y-133517775D01*
X98344857Y-133339722D01*
X98337231Y-133257539D01*
X98295682Y-133087031D01*
X98224123Y-132936459D01*
X98126995Y-132807309D01*
X98008734Y-132701064D01*
X97873780Y-132619210D01*
X97726571Y-132563232D01*
X97571544Y-132534615D01*
X97413139Y-132534844D01*
X97255794Y-132565405D01*
X97103946Y-132627782D01*
X96962035Y-132723460D01*
X96902803Y-132777572D01*
X96789203Y-132916520D01*
X96710106Y-133068361D01*
X96664986Y-133228667D01*
X96653316Y-133393012D01*
X96674569Y-133556971D01*
X96728220Y-133716118D01*
X96813740Y-133866025D01*
X96930605Y-134002267D01*
X97061193Y-134108887D01*
X97115588Y-134149642D01*
X97154014Y-134184718D01*
X97167846Y-134205726D01*
X97160603Y-134228635D01*
X97140005Y-134283365D01*
X97107746Y-134365672D01*
X97065521Y-134471315D01*
X97015023Y-134596050D01*
X96957948Y-134735636D01*
X96901854Y-134871670D01*
X96839967Y-135021201D01*
X96782644Y-135159767D01*
X96731644Y-135283107D01*
X96688727Y-135386964D01*
X96655653Y-135467080D01*
X96634181Y-135519195D01*
X96626225Y-135538654D01*
X96607429Y-135558423D01*
X96571074Y-135558365D01*
X96512479Y-135537441D01*
X96426968Y-135494613D01*
X96426292Y-135494249D01*
X96361907Y-135461012D01*
X96309861Y-135436802D01*
X96280512Y-135426404D01*
X96279217Y-135426308D01*
X96257124Y-135436855D01*
X96208348Y-135466184D01*
X96138331Y-135510827D01*
X96052514Y-135567314D01*
X95957388Y-135631462D01*
X95860540Y-135696411D01*
X95773253Y-135752896D01*
X95701181Y-135797421D01*
X95649977Y-135826490D01*
X95625526Y-135836616D01*
X95603010Y-135823307D01*
X95557742Y-135786112D01*
X95494244Y-135729128D01*
X95417039Y-135656449D01*
X95330651Y-135572171D01*
X95302399Y-135544016D01*
X95010287Y-135251416D01*
X95232631Y-134925104D01*
X95300202Y-134824897D01*
X95359507Y-134734963D01*
X95407217Y-134660510D01*
X95440007Y-134606751D01*
X95454548Y-134578894D01*
X95454974Y-134576912D01*
X95447308Y-134550655D01*
X95426689Y-134497837D01*
X95396685Y-134427310D01*
X95375625Y-134380093D01*
X95336248Y-134289694D01*
X95299165Y-134198366D01*
X95270415Y-134121200D01*
X95262605Y-134097692D01*
X95240417Y-134034916D01*
X95218727Y-133986411D01*
X95206813Y-133968079D01*
X95180523Y-133956859D01*
X95123142Y-133940954D01*
X95042118Y-133922167D01*
X94944895Y-133902299D01*
X94901385Y-133894132D01*
X94790896Y-133873829D01*
X94684916Y-133854170D01*
X94593801Y-133837088D01*
X94527908Y-133824518D01*
X94515500Y-133822091D01*
X94412923Y-133801845D01*
X94412923Y-133374701D01*
X94413153Y-133234246D01*
X94414099Y-133127979D01*
X94416141Y-133051013D01*
X94419662Y-132998460D01*
X94425043Y-132965433D01*
X94432666Y-132947045D01*
X94442912Y-132938408D01*
X94447115Y-132936807D01*
X94472470Y-132931127D01*
X94528484Y-132919795D01*
X94607964Y-132904179D01*
X94703712Y-132885647D01*
X94808533Y-132865569D01*
X94915232Y-132845312D01*
X95016613Y-132826246D01*
X95105479Y-132809739D01*
X95174637Y-132797159D01*
X95216889Y-132789875D01*
X95226290Y-132788616D01*
X95234807Y-132771763D01*
X95253660Y-132726870D01*
X95279324Y-132662430D01*
X95289123Y-132637192D01*
X95328648Y-132539686D01*
X95375192Y-132431959D01*
X95416877Y-132341172D01*
X95447550Y-132271753D01*
X95467956Y-132214710D01*
X95474768Y-132179777D01*
X95473682Y-132175095D01*
X95459285Y-132152991D01*
X95426412Y-132103831D01*
X95378590Y-132032848D01*
X95319348Y-131945278D01*
X95252215Y-131846357D01*
X95238941Y-131826830D01*
X95161046Y-131711140D01*
X95103787Y-131623044D01*
X95064881Y-131558486D01*
X95042044Y-131513411D01*
X95032994Y-131483763D01*
X95035448Y-131465485D01*
X95035511Y-131465369D01*
X95054827Y-131441361D01*
X95097551Y-131394947D01*
X95159051Y-131330937D01*
X95234698Y-131254145D01*
X95319861Y-131169382D01*
X95329465Y-131159922D01*
X95436790Y-131055989D01*
X95519615Y-130979675D01*
X95579605Y-130929571D01*
X95618423Y-130904270D01*
X95635520Y-130901004D01*
X95660473Y-130915250D01*
X95712255Y-130948156D01*
X95785520Y-130996208D01*
X95874920Y-131055890D01*
X95975111Y-131123688D01*
X95998501Y-131139639D01*
X96330593Y-131366420D01*
X96480565Y-131298353D01*
X96571770Y-131258685D01*
X96669669Y-131218791D01*
X96753831Y-131186983D01*
X96757538Y-131185674D01*
X96823369Y-131161576D01*
X96874116Y-131141200D01*
X96898842Y-131128936D01*
X96898884Y-131128901D01*
X96906729Y-131106734D01*
X96920066Y-131052217D01*
X96937570Y-130971480D01*
X96957917Y-130870650D01*
X96979782Y-130755856D01*
X96981571Y-130746178D01*
X97003504Y-130627904D01*
X97023640Y-130520542D01*
X97040680Y-130430917D01*
X97053328Y-130365851D01*
X97060284Y-130332168D01*
X97060406Y-130331654D01*
X97064639Y-130317325D01*
X97072871Y-130306507D01*
X97090033Y-130298706D01*
X97121058Y-130293429D01*
X97170878Y-130290182D01*
X97244424Y-130288472D01*
X97346629Y-130287807D01*
X97482425Y-130287693D01*
X97500000Y-130287692D01*
X97639878Y-130287776D01*
G37*
X97639878Y-130287776D02*
X97745612Y-130288355D01*
X97822132Y-130289922D01*
X97874372Y-130292972D01*
X97907263Y-130297996D01*
X97925737Y-130305489D01*
X97934727Y-130315944D01*
X97939163Y-130329853D01*
X97939594Y-130331654D01*
X97946333Y-130364145D01*
X97958808Y-130428252D01*
X97975719Y-130517151D01*
X97995771Y-130624019D01*
X98017664Y-130742033D01*
X98018429Y-130746178D01*
X98040359Y-130861831D01*
X98060877Y-130964014D01*
X98078659Y-131046598D01*
X98092381Y-131103456D01*
X98100718Y-131128458D01*
X98101116Y-131128901D01*
X98125677Y-131141110D01*
X98176315Y-131161456D01*
X98242095Y-131185545D01*
X98242461Y-131185674D01*
X98325317Y-131216818D01*
X98423000Y-131256491D01*
X98515077Y-131296381D01*
X98519434Y-131298353D01*
X98669407Y-131366420D01*
X99001498Y-131139639D01*
X99103374Y-131070504D01*
X99195657Y-131008697D01*
X99273003Y-130957733D01*
X99330064Y-130921127D01*
X99361495Y-130902394D01*
X99364479Y-130901004D01*
X99387321Y-130907190D01*
X99429982Y-130937035D01*
X99494128Y-130991947D01*
X99581421Y-131073334D01*
X99670535Y-131159922D01*
X99756441Y-131245247D01*
X99833327Y-131323108D01*
X99896564Y-131388697D01*
X99941523Y-131437205D01*
X99963576Y-131463825D01*
X99964396Y-131465195D01*
X99966834Y-131483463D01*
X99957650Y-131513295D01*
X99934574Y-131558721D01*
X99895337Y-131623770D01*
X99837670Y-131712470D01*
X99760795Y-131826657D01*
X99692570Y-131927162D01*
X99631582Y-132017303D01*
X99581356Y-132091849D01*
X99545416Y-132145565D01*
X99527287Y-132173218D01*
X99526146Y-132175095D01*
X99528359Y-132201590D01*
X99545138Y-132253086D01*
X99573142Y-132319851D01*
X99583122Y-132341172D01*
X99626672Y-132436159D01*
X99673134Y-132543937D01*
X99710877Y-132637192D01*
X99738073Y-132706406D01*
X99759675Y-132759006D01*
X99772158Y-132786497D01*
X99773709Y-132788616D01*
X99796668Y-132792124D01*
X99850786Y-132801738D01*
X99928868Y-132816089D01*
X100023719Y-132833807D01*
X100128143Y-132853525D01*
X100234944Y-132873874D01*
X100336926Y-132893486D01*
X100426894Y-132910991D01*
X100497653Y-132925022D01*
X100542006Y-132934209D01*
X100552885Y-132936807D01*
X100564122Y-132943218D01*
X100572605Y-132957697D01*
X100578714Y-132985133D01*
X100582832Y-133030411D01*
X100585341Y-133098420D01*
X100586621Y-133194047D01*
X100587054Y-133322180D01*
X100587077Y-133374701D01*
X100587077Y-133801845D01*
X100484500Y-133822091D01*
X100427431Y-133833070D01*
X100342269Y-133849095D01*
X100239372Y-133868233D01*
X100129096Y-133888551D01*
X100098615Y-133894132D01*
X99996855Y-133913917D01*
X99908205Y-133933373D01*
X99840108Y-133950697D01*
X99800004Y-133964088D01*
X99793323Y-133968079D01*
X99776919Y-133996342D01*
X99753399Y-134051109D01*
X99727316Y-134121588D01*
X99722142Y-134136769D01*
X99687956Y-134230896D01*
X99645523Y-134337101D01*
X99603997Y-134432473D01*
X99603792Y-134432916D01*
X99534640Y-134582525D01*
X99989512Y-135251617D01*
X99697500Y-135544116D01*
X99609180Y-135631170D01*
X99528625Y-135707909D01*
X99460360Y-135770237D01*
X99408908Y-135814056D01*
X99378794Y-135835270D01*
X99374474Y-135836616D01*
X99349111Y-135826016D01*
X99297358Y-135796547D01*
X99224868Y-135751705D01*
X99137294Y-135694984D01*
X99042612Y-135631462D01*
X98946516Y-135566668D01*
X98860837Y-135510287D01*
X98791016Y-135465788D01*
X98742494Y-135436639D01*
X98720782Y-135426308D01*
X98694293Y-135435050D01*
X98644062Y-135458087D01*
X98580451Y-135490631D01*
X98573708Y-135494249D01*
X98488046Y-135537210D01*
X98429306Y-135558279D01*
X98392772Y-135558503D01*
X98373731Y-135538928D01*
X98373620Y-135538654D01*
X98364102Y-135515472D01*
X98341403Y-135460441D01*
X98307282Y-135377822D01*
X98263500Y-135271872D01*
X98211816Y-135146852D01*
X98153992Y-135007020D01*
X98097991Y-134871637D01*
X98036447Y-134722234D01*
X97979939Y-134583832D01*
X97930161Y-134460673D01*
X97888806Y-134357002D01*
X97857568Y-134277059D01*
X97838141Y-134225088D01*
X97832154Y-134205692D01*
X97847168Y-134183443D01*
X97886439Y-134147982D01*
X97938807Y-134108887D01*
X98087941Y-133985245D01*
X98204511Y-133843522D01*
X98287118Y-133686704D01*
X98334366Y-133517775D01*
X98344857Y-133339722D01*
X98337231Y-133257539D01*
X98295682Y-133087031D01*
X98224123Y-132936459D01*
X98126995Y-132807309D01*
X98008734Y-132701064D01*
X97873780Y-132619210D01*
X97726571Y-132563232D01*
X97571544Y-132534615D01*
X97413139Y-132534844D01*
X97255794Y-132565405D01*
X97103946Y-132627782D01*
X96962035Y-132723460D01*
X96902803Y-132777572D01*
X96789203Y-132916520D01*
X96710106Y-133068361D01*
X96664986Y-133228667D01*
X96653316Y-133393012D01*
X96674569Y-133556971D01*
X96728220Y-133716118D01*
X96813740Y-133866025D01*
X96930605Y-134002267D01*
X97061193Y-134108887D01*
X97115588Y-134149642D01*
X97154014Y-134184718D01*
X97167846Y-134205726D01*
X97160603Y-134228635D01*
X97140005Y-134283365D01*
X97107746Y-134365672D01*
X97065521Y-134471315D01*
X97015023Y-134596050D01*
X96957948Y-134735636D01*
X96901854Y-134871670D01*
X96839967Y-135021201D01*
X96782644Y-135159767D01*
X96731644Y-135283107D01*
X96688727Y-135386964D01*
X96655653Y-135467080D01*
X96634181Y-135519195D01*
X96626225Y-135538654D01*
X96607429Y-135558423D01*
X96571074Y-135558365D01*
X96512479Y-135537441D01*
X96426968Y-135494613D01*
X96426292Y-135494249D01*
X96361907Y-135461012D01*
X96309861Y-135436802D01*
X96280512Y-135426404D01*
X96279217Y-135426308D01*
X96257124Y-135436855D01*
X96208348Y-135466184D01*
X96138331Y-135510827D01*
X96052514Y-135567314D01*
X95957388Y-135631462D01*
X95860540Y-135696411D01*
X95773253Y-135752896D01*
X95701181Y-135797421D01*
X95649977Y-135826490D01*
X95625526Y-135836616D01*
X95603010Y-135823307D01*
X95557742Y-135786112D01*
X95494244Y-135729128D01*
X95417039Y-135656449D01*
X95330651Y-135572171D01*
X95302399Y-135544016D01*
X95010287Y-135251416D01*
X95232631Y-134925104D01*
X95300202Y-134824897D01*
X95359507Y-134734963D01*
X95407217Y-134660510D01*
X95440007Y-134606751D01*
X95454548Y-134578894D01*
X95454974Y-134576912D01*
X95447308Y-134550655D01*
X95426689Y-134497837D01*
X95396685Y-134427310D01*
X95375625Y-134380093D01*
X95336248Y-134289694D01*
X95299165Y-134198366D01*
X95270415Y-134121200D01*
X95262605Y-134097692D01*
X95240417Y-134034916D01*
X95218727Y-133986411D01*
X95206813Y-133968079D01*
X95180523Y-133956859D01*
X95123142Y-133940954D01*
X95042118Y-133922167D01*
X94944895Y-133902299D01*
X94901385Y-133894132D01*
X94790896Y-133873829D01*
X94684916Y-133854170D01*
X94593801Y-133837088D01*
X94527908Y-133824518D01*
X94515500Y-133822091D01*
X94412923Y-133801845D01*
X94412923Y-133374701D01*
X94413153Y-133234246D01*
X94414099Y-133127979D01*
X94416141Y-133051013D01*
X94419662Y-132998460D01*
X94425043Y-132965433D01*
X94432666Y-132947045D01*
X94442912Y-132938408D01*
X94447115Y-132936807D01*
X94472470Y-132931127D01*
X94528484Y-132919795D01*
X94607964Y-132904179D01*
X94703712Y-132885647D01*
X94808533Y-132865569D01*
X94915232Y-132845312D01*
X95016613Y-132826246D01*
X95105479Y-132809739D01*
X95174637Y-132797159D01*
X95216889Y-132789875D01*
X95226290Y-132788616D01*
X95234807Y-132771763D01*
X95253660Y-132726870D01*
X95279324Y-132662430D01*
X95289123Y-132637192D01*
X95328648Y-132539686D01*
X95375192Y-132431959D01*
X95416877Y-132341172D01*
X95447550Y-132271753D01*
X95467956Y-132214710D01*
X95474768Y-132179777D01*
X95473682Y-132175095D01*
X95459285Y-132152991D01*
X95426412Y-132103831D01*
X95378590Y-132032848D01*
X95319348Y-131945278D01*
X95252215Y-131846357D01*
X95238941Y-131826830D01*
X95161046Y-131711140D01*
X95103787Y-131623044D01*
X95064881Y-131558486D01*
X95042044Y-131513411D01*
X95032994Y-131483763D01*
X95035448Y-131465485D01*
X95035511Y-131465369D01*
X95054827Y-131441361D01*
X95097551Y-131394947D01*
X95159051Y-131330937D01*
X95234698Y-131254145D01*
X95319861Y-131169382D01*
X95329465Y-131159922D01*
X95436790Y-131055989D01*
X95519615Y-130979675D01*
X95579605Y-130929571D01*
X95618423Y-130904270D01*
X95635520Y-130901004D01*
X95660473Y-130915250D01*
X95712255Y-130948156D01*
X95785520Y-130996208D01*
X95874920Y-131055890D01*
X95975111Y-131123688D01*
X95998501Y-131139639D01*
X96330593Y-131366420D01*
X96480565Y-131298353D01*
X96571770Y-131258685D01*
X96669669Y-131218791D01*
X96753831Y-131186983D01*
X96757538Y-131185674D01*
X96823369Y-131161576D01*
X96874116Y-131141200D01*
X96898842Y-131128936D01*
X96898884Y-131128901D01*
X96906729Y-131106734D01*
X96920066Y-131052217D01*
X96937570Y-130971480D01*
X96957917Y-130870650D01*
X96979782Y-130755856D01*
X96981571Y-130746178D01*
X97003504Y-130627904D01*
X97023640Y-130520542D01*
X97040680Y-130430917D01*
X97053328Y-130365851D01*
X97060284Y-130332168D01*
X97060406Y-130331654D01*
X97064639Y-130317325D01*
X97072871Y-130306507D01*
X97090033Y-130298706D01*
X97121058Y-130293429D01*
X97170878Y-130290182D01*
X97244424Y-130288472D01*
X97346629Y-130287807D01*
X97482425Y-130287693D01*
X97500000Y-130287692D01*
X97639878Y-130287776D01*
D10*
%TO.C,R7*%
X55080000Y-110370000D02*
X55080000Y-110040000D01*
X48540000Y-110370000D02*
X55080000Y-110370000D01*
X48540000Y-110040000D02*
X48540000Y-110370000D01*
X55080000Y-107630000D02*
X55080000Y-107960000D01*
X48540000Y-107630000D02*
X55080000Y-107630000D01*
X48540000Y-107960000D02*
X48540000Y-107630000D01*
%TO.C,C12*%
X55270000Y-96795000D02*
X55270000Y-97420000D01*
X55270000Y-94580000D02*
X55270000Y-95205000D01*
X51230000Y-96795000D02*
X51230000Y-97420000D01*
X51230000Y-94580000D02*
X51230000Y-95205000D01*
X51230000Y-97420000D02*
X55270000Y-97420000D01*
X51230000Y-94580000D02*
X55270000Y-94580000D01*
%TO.C,U2*%
X59040000Y-106330000D02*
X60690000Y-106330000D01*
X59040000Y-96050000D02*
X59040000Y-106330000D01*
X64340000Y-96050000D02*
X59040000Y-96050000D01*
X64340000Y-106330000D02*
X64340000Y-96050000D01*
X62690000Y-106330000D02*
X64340000Y-106330000D01*
X60690000Y-106330000D02*
G75*
G02*
X62690000Y-106330000I1000000J0D01*
G01*
%TO.C,C11*%
X51230000Y-89580000D02*
X55270000Y-89580000D01*
X51230000Y-92420000D02*
X55270000Y-92420000D01*
X51230000Y-89580000D02*
X51230000Y-90205000D01*
X51230000Y-91795000D02*
X51230000Y-92420000D01*
X55270000Y-89580000D02*
X55270000Y-90205000D01*
X55270000Y-91795000D02*
X55270000Y-92420000D01*
%TO.C,PTC1*%
X102420000Y-117880000D02*
X102420000Y-114040000D01*
X100580000Y-117880000D02*
X100580000Y-114040000D01*
%TO.C,BT1*%
X46170000Y-118870000D02*
X48830000Y-118870000D01*
X46170000Y-116270000D02*
X46170000Y-118870000D01*
X48830000Y-116270000D02*
X48830000Y-118870000D01*
X46170000Y-116270000D02*
X48830000Y-116270000D01*
X46170000Y-115000000D02*
X46170000Y-113670000D01*
X46170000Y-113670000D02*
X47500000Y-113670000D01*
%TO.C,R3*%
X93630000Y-109080000D02*
X93960000Y-109080000D01*
X93630000Y-102540000D02*
X93630000Y-109080000D01*
X93960000Y-102540000D02*
X93630000Y-102540000D01*
X96370000Y-109080000D02*
X96040000Y-109080000D01*
X96370000Y-102540000D02*
X96370000Y-109080000D01*
X96040000Y-102540000D02*
X96370000Y-102540000D01*
%TO.C,R4*%
X96040000Y-91540000D02*
X96370000Y-91540000D01*
X96370000Y-91540000D02*
X96370000Y-98080000D01*
X96370000Y-98080000D02*
X96040000Y-98080000D01*
X93960000Y-91540000D02*
X93630000Y-91540000D01*
X93630000Y-91540000D02*
X93630000Y-98080000D01*
X93630000Y-98080000D02*
X93960000Y-98080000D01*
%TO.C,TR1*%
X69700000Y-109420000D02*
X69700000Y-92600000D01*
X85600000Y-109420000D02*
X69700000Y-109420000D01*
X85600000Y-92580000D02*
X85600000Y-109420000D01*
X69700000Y-92600000D02*
X85600000Y-92580000D01*
%TO.C,C1*%
X51705000Y-118270000D02*
X51080000Y-118270000D01*
X53920000Y-118270000D02*
X53295000Y-118270000D01*
X51705000Y-114230000D02*
X51080000Y-114230000D01*
X53920000Y-114230000D02*
X53295000Y-114230000D01*
X51080000Y-114230000D02*
X51080000Y-118270000D01*
X53920000Y-114230000D02*
X53920000Y-118270000D01*
%TO.C,C2*%
X53295000Y-119730000D02*
X53920000Y-119730000D01*
X51080000Y-119730000D02*
X51705000Y-119730000D01*
X53295000Y-123770000D02*
X53920000Y-123770000D01*
X51080000Y-123770000D02*
X51705000Y-123770000D01*
X53920000Y-123770000D02*
X53920000Y-119730000D01*
X51080000Y-123770000D02*
X51080000Y-119730000D01*
%TO.C,C3*%
X94230000Y-113080000D02*
X98270000Y-113080000D01*
X94230000Y-115920000D02*
X98270000Y-115920000D01*
X94230000Y-113080000D02*
X94230000Y-113705000D01*
X94230000Y-115295000D02*
X94230000Y-115920000D01*
X98270000Y-113080000D02*
X98270000Y-113705000D01*
X98270000Y-115295000D02*
X98270000Y-115920000D01*
%TO.C,C4*%
X51080000Y-128770000D02*
X51080000Y-124730000D01*
X53920000Y-128770000D02*
X53920000Y-124730000D01*
X51080000Y-128770000D02*
X51705000Y-128770000D01*
X53295000Y-128770000D02*
X53920000Y-128770000D01*
X51080000Y-124730000D02*
X51705000Y-124730000D01*
X53295000Y-124730000D02*
X53920000Y-124730000D01*
%TO.C,C5*%
X90420000Y-90730000D02*
X90420000Y-94770000D01*
X87580000Y-90730000D02*
X87580000Y-94770000D01*
X90420000Y-90730000D02*
X89795000Y-90730000D01*
X88205000Y-90730000D02*
X87580000Y-90730000D01*
X90420000Y-94770000D02*
X89795000Y-94770000D01*
X88205000Y-94770000D02*
X87580000Y-94770000D01*
%TO.C,C6*%
X88205000Y-110770000D02*
X87580000Y-110770000D01*
X90420000Y-110770000D02*
X89795000Y-110770000D01*
X88205000Y-106730000D02*
X87580000Y-106730000D01*
X90420000Y-106730000D02*
X89795000Y-106730000D01*
X87580000Y-106730000D02*
X87580000Y-110770000D01*
X90420000Y-106730000D02*
X90420000Y-110770000D01*
%TO.C,C7*%
X59795000Y-114230000D02*
X60420000Y-114230000D01*
X57580000Y-114230000D02*
X58205000Y-114230000D01*
X59795000Y-118270000D02*
X60420000Y-118270000D01*
X57580000Y-118270000D02*
X58205000Y-118270000D01*
X60420000Y-118270000D02*
X60420000Y-114230000D01*
X57580000Y-118270000D02*
X57580000Y-114230000D01*
%TO.C,C8*%
X60420000Y-119730000D02*
X60420000Y-123770000D01*
X57580000Y-119730000D02*
X57580000Y-123770000D01*
X60420000Y-119730000D02*
X59795000Y-119730000D01*
X58205000Y-119730000D02*
X57580000Y-119730000D01*
X60420000Y-123770000D02*
X59795000Y-123770000D01*
X58205000Y-123770000D02*
X57580000Y-123770000D01*
%TO.C,C9*%
X98270000Y-120295000D02*
X98270000Y-120920000D01*
X98270000Y-118080000D02*
X98270000Y-118705000D01*
X94230000Y-120295000D02*
X94230000Y-120920000D01*
X94230000Y-118080000D02*
X94230000Y-118705000D01*
X94230000Y-120920000D02*
X98270000Y-120920000D01*
X94230000Y-118080000D02*
X98270000Y-118080000D01*
%TO.C,C10*%
X93080000Y-128770000D02*
X93080000Y-124730000D01*
X95920000Y-128770000D02*
X95920000Y-124730000D01*
X93080000Y-128770000D02*
X93705000Y-128770000D01*
X95295000Y-128770000D02*
X95920000Y-128770000D01*
X93080000Y-124730000D02*
X93705000Y-124730000D01*
X95295000Y-124730000D02*
X95920000Y-124730000D01*
%TO.C,D1*%
X69570000Y-112880000D02*
X69570000Y-115120000D01*
X69570000Y-115120000D02*
X73810000Y-115120000D01*
X73810000Y-115120000D02*
X73810000Y-112880000D01*
X73810000Y-112880000D02*
X69570000Y-112880000D01*
X68920000Y-114000000D02*
X69570000Y-114000000D01*
X74460000Y-114000000D02*
X73810000Y-114000000D01*
X70290000Y-112880000D02*
X70290000Y-115120000D01*
X70410000Y-112880000D02*
X70410000Y-115120000D01*
X70170000Y-112880000D02*
X70170000Y-115120000D01*
%TO.C,L1*%
X66755000Y-119205000D02*
X66755000Y-123445000D01*
X66755000Y-123445000D02*
X76495000Y-123445000D01*
X76495000Y-123445000D02*
X76495000Y-119205000D01*
X76495000Y-119205000D02*
X66755000Y-119205000D01*
X66515000Y-121325000D02*
X66755000Y-121325000D01*
X76735000Y-121325000D02*
X76495000Y-121325000D01*
%TO.C,R1*%
X90080000Y-120870000D02*
X90080000Y-120540000D01*
X83540000Y-120870000D02*
X90080000Y-120870000D01*
X83540000Y-120540000D02*
X83540000Y-120870000D01*
X90080000Y-118130000D02*
X90080000Y-118460000D01*
X83540000Y-118130000D02*
X90080000Y-118130000D01*
X83540000Y-118460000D02*
X83540000Y-118130000D01*
%TO.C,R2*%
X83420000Y-113460000D02*
X83420000Y-113130000D01*
X83420000Y-113130000D02*
X89960000Y-113130000D01*
X89960000Y-113130000D02*
X89960000Y-113460000D01*
X83420000Y-115540000D02*
X83420000Y-115870000D01*
X83420000Y-115870000D02*
X89960000Y-115870000D01*
X89960000Y-115870000D02*
X89960000Y-115540000D01*
%TO.C,R5*%
X85040000Y-124040000D02*
X85370000Y-124040000D01*
X85370000Y-124040000D02*
X85370000Y-130580000D01*
X85370000Y-130580000D02*
X85040000Y-130580000D01*
X82960000Y-124040000D02*
X82630000Y-124040000D01*
X82630000Y-124040000D02*
X82630000Y-130580000D01*
X82630000Y-130580000D02*
X82960000Y-130580000D01*
%TO.C,R6*%
X89870000Y-124040000D02*
X89540000Y-124040000D01*
X89870000Y-130580000D02*
X89870000Y-124040000D01*
X89540000Y-130580000D02*
X89870000Y-130580000D01*
X87130000Y-124040000D02*
X87460000Y-124040000D01*
X87130000Y-130580000D02*
X87130000Y-124040000D01*
X87460000Y-130580000D02*
X87130000Y-130580000D01*
%TO.C,SW1*%
X46440000Y-121440000D02*
X46440000Y-125560000D01*
X46500000Y-121440000D02*
X46440000Y-121440000D01*
X48560000Y-125560000D02*
X46440000Y-125560000D01*
X46500000Y-121440000D02*
X46500000Y-123500000D01*
X46500000Y-123500000D02*
X48560000Y-123500000D01*
X48560000Y-123500000D02*
X48560000Y-125560000D01*
X47500000Y-121440000D02*
X48560000Y-121440000D01*
X48560000Y-121440000D02*
X48560000Y-122500000D01*
%TO.C,U1*%
X72627500Y-126153000D02*
X73102500Y-126153000D01*
X73102500Y-126153000D02*
X73102500Y-126628000D01*
X72627500Y-129603000D02*
X73102500Y-129603000D01*
X73102500Y-129603000D02*
X73102500Y-129128000D01*
X70127500Y-129603000D02*
X69652500Y-129603000D01*
X69652500Y-129603000D02*
X69652500Y-129128000D01*
X70127500Y-126153000D02*
X69502500Y-126153000D01*
%TO.C,RV1*%
X65410000Y-92330000D02*
X65410000Y-89670000D01*
X60270000Y-92330000D02*
X65410000Y-92330000D01*
X60270000Y-89670000D02*
X65410000Y-89670000D01*
X60270000Y-92330000D02*
X60270000Y-89670000D01*
X59000000Y-92330000D02*
X57670000Y-92330000D01*
X57670000Y-92330000D02*
X57670000Y-91000000D01*
%TO.C,D2*%
X102580000Y-128450000D02*
X102810000Y-128450000D01*
X100190000Y-128450000D02*
X100420000Y-128450000D01*
X102580000Y-128570000D02*
X102810000Y-128570000D01*
X100190000Y-128570000D02*
X100420000Y-128570000D01*
X100190000Y-123770000D02*
X102810000Y-123770000D01*
X100190000Y-128690000D02*
X102810000Y-128690000D01*
X102810000Y-128690000D02*
X102810000Y-123770000D01*
X100190000Y-128690000D02*
X100190000Y-123770000D01*
%TO.C,R8*%
X83320000Y-135500000D02*
X84270000Y-135500000D01*
X89060000Y-135500000D02*
X88110000Y-135500000D01*
X84270000Y-136420000D02*
X88110000Y-136420000D01*
X84270000Y-134580000D02*
X84270000Y-136420000D01*
X88110000Y-134580000D02*
X84270000Y-134580000D01*
X88110000Y-136420000D02*
X88110000Y-134580000D01*
%TO.C,R7*%
D11*
X51643333Y-107082380D02*
X51310000Y-106606190D01*
X51071904Y-107082380D02*
X51071904Y-106082380D01*
X51452857Y-106082380D01*
X51548095Y-106130000D01*
X51595714Y-106177619D01*
X51643333Y-106272857D01*
X51643333Y-106415714D01*
X51595714Y-106510952D01*
X51548095Y-106558571D01*
X51452857Y-106606190D01*
X51071904Y-106606190D01*
X51976666Y-106082380D02*
X52643333Y-106082380D01*
X52214761Y-107082380D01*
%TO.C,C12*%
X52357142Y-98857142D02*
X52309523Y-98904761D01*
X52166666Y-98952380D01*
X52071428Y-98952380D01*
X51928571Y-98904761D01*
X51833333Y-98809523D01*
X51785714Y-98714285D01*
X51738095Y-98523809D01*
X51738095Y-98380952D01*
X51785714Y-98190476D01*
X51833333Y-98095238D01*
X51928571Y-98000000D01*
X52071428Y-97952380D01*
X52166666Y-97952380D01*
X52309523Y-98000000D01*
X52357142Y-98047619D01*
X53309523Y-98952380D02*
X52738095Y-98952380D01*
X53023809Y-98952380D02*
X53023809Y-97952380D01*
X52928571Y-98095238D01*
X52833333Y-98190476D01*
X52738095Y-98238095D01*
X53690476Y-98047619D02*
X53738095Y-98000000D01*
X53833333Y-97952380D01*
X54071428Y-97952380D01*
X54166666Y-98000000D01*
X54214285Y-98047619D01*
X54261904Y-98142857D01*
X54261904Y-98238095D01*
X54214285Y-98380952D01*
X53642857Y-98952380D01*
X54261904Y-98952380D01*
%TO.C,U2*%
X60928095Y-106782380D02*
X60928095Y-107591904D01*
X60975714Y-107687142D01*
X61023333Y-107734761D01*
X61118571Y-107782380D01*
X61309047Y-107782380D01*
X61404285Y-107734761D01*
X61451904Y-107687142D01*
X61499523Y-107591904D01*
X61499523Y-106782380D01*
X61928095Y-106877619D02*
X61975714Y-106830000D01*
X62070952Y-106782380D01*
X62309047Y-106782380D01*
X62404285Y-106830000D01*
X62451904Y-106877619D01*
X62499523Y-106972857D01*
X62499523Y-107068095D01*
X62451904Y-107210952D01*
X61880476Y-107782380D01*
X62499523Y-107782380D01*
%TO.C,C11*%
X52607142Y-88807142D02*
X52559523Y-88854761D01*
X52416666Y-88902380D01*
X52321428Y-88902380D01*
X52178571Y-88854761D01*
X52083333Y-88759523D01*
X52035714Y-88664285D01*
X51988095Y-88473809D01*
X51988095Y-88330952D01*
X52035714Y-88140476D01*
X52083333Y-88045238D01*
X52178571Y-87950000D01*
X52321428Y-87902380D01*
X52416666Y-87902380D01*
X52559523Y-87950000D01*
X52607142Y-87997619D01*
X53559523Y-88902380D02*
X52988095Y-88902380D01*
X53273809Y-88902380D02*
X53273809Y-87902380D01*
X53178571Y-88045238D01*
X53083333Y-88140476D01*
X52988095Y-88188095D01*
X54511904Y-88902380D02*
X53940476Y-88902380D01*
X54226190Y-88902380D02*
X54226190Y-87902380D01*
X54130952Y-88045238D01*
X54035714Y-88140476D01*
X53940476Y-88188095D01*
%TO.C,PTC1*%
X100032380Y-117579047D02*
X99032380Y-117579047D01*
X99032380Y-117198095D01*
X99080000Y-117102857D01*
X99127619Y-117055238D01*
X99222857Y-117007619D01*
X99365714Y-117007619D01*
X99460952Y-117055238D01*
X99508571Y-117102857D01*
X99556190Y-117198095D01*
X99556190Y-117579047D01*
X99032380Y-116721904D02*
X99032380Y-116150476D01*
X100032380Y-116436190D02*
X99032380Y-116436190D01*
X99937142Y-115245714D02*
X99984761Y-115293333D01*
X100032380Y-115436190D01*
X100032380Y-115531428D01*
X99984761Y-115674285D01*
X99889523Y-115769523D01*
X99794285Y-115817142D01*
X99603809Y-115864761D01*
X99460952Y-115864761D01*
X99270476Y-115817142D01*
X99175238Y-115769523D01*
X99080000Y-115674285D01*
X99032380Y-115531428D01*
X99032380Y-115436190D01*
X99080000Y-115293333D01*
X99127619Y-115245714D01*
X100032380Y-114293333D02*
X100032380Y-114864761D01*
X100032380Y-114579047D02*
X99032380Y-114579047D01*
X99175238Y-114674285D01*
X99270476Y-114769523D01*
X99318095Y-114864761D01*
%TO.C,BT1*%
X46714285Y-112598571D02*
X46857142Y-112646190D01*
X46904761Y-112693809D01*
X46952380Y-112789047D01*
X46952380Y-112931904D01*
X46904761Y-113027142D01*
X46857142Y-113074761D01*
X46761904Y-113122380D01*
X46380952Y-113122380D01*
X46380952Y-112122380D01*
X46714285Y-112122380D01*
X46809523Y-112170000D01*
X46857142Y-112217619D01*
X46904761Y-112312857D01*
X46904761Y-112408095D01*
X46857142Y-112503333D01*
X46809523Y-112550952D01*
X46714285Y-112598571D01*
X46380952Y-112598571D01*
X47238095Y-112122380D02*
X47809523Y-112122380D01*
X47523809Y-113122380D02*
X47523809Y-112122380D01*
X48666666Y-113122380D02*
X48095238Y-113122380D01*
X48380952Y-113122380D02*
X48380952Y-112122380D01*
X48285714Y-112265238D01*
X48190476Y-112360476D01*
X48095238Y-112408095D01*
%TO.C,J2*%
X101214285Y-101947619D02*
X101261904Y-101900000D01*
X101357142Y-101852380D01*
X101595238Y-101852380D01*
X101690476Y-101900000D01*
X101738095Y-101947619D01*
X101785714Y-102042857D01*
X101785714Y-102138095D01*
X101738095Y-102280952D01*
X101166666Y-102852380D01*
X101785714Y-102852380D01*
%TO.C,J3*%
X101166666Y-93852380D02*
X101785714Y-93852380D01*
X101452380Y-94233333D01*
X101595238Y-94233333D01*
X101690476Y-94280952D01*
X101738095Y-94328571D01*
X101785714Y-94423809D01*
X101785714Y-94661904D01*
X101738095Y-94757142D01*
X101690476Y-94804761D01*
X101595238Y-94852380D01*
X101309523Y-94852380D01*
X101214285Y-94804761D01*
X101166666Y-94757142D01*
%TO.C,J4*%
X101785714Y-110352380D02*
X101214285Y-110352380D01*
X101500000Y-110352380D02*
X101500000Y-109352380D01*
X101404761Y-109495238D01*
X101309523Y-109590476D01*
X101214285Y-109638095D01*
%TO.C,R3*%
X95452380Y-105976666D02*
X94976190Y-106310000D01*
X95452380Y-106548095D02*
X94452380Y-106548095D01*
X94452380Y-106167142D01*
X94500000Y-106071904D01*
X94547619Y-106024285D01*
X94642857Y-105976666D01*
X94785714Y-105976666D01*
X94880952Y-106024285D01*
X94928571Y-106071904D01*
X94976190Y-106167142D01*
X94976190Y-106548095D01*
X94452380Y-105643333D02*
X94452380Y-105024285D01*
X94833333Y-105357619D01*
X94833333Y-105214761D01*
X94880952Y-105119523D01*
X94928571Y-105071904D01*
X95023809Y-105024285D01*
X95261904Y-105024285D01*
X95357142Y-105071904D01*
X95404761Y-105119523D01*
X95452380Y-105214761D01*
X95452380Y-105500476D01*
X95404761Y-105595714D01*
X95357142Y-105643333D01*
%TO.C,R4*%
X95452380Y-94976666D02*
X94976190Y-95310000D01*
X95452380Y-95548095D02*
X94452380Y-95548095D01*
X94452380Y-95167142D01*
X94500000Y-95071904D01*
X94547619Y-95024285D01*
X94642857Y-94976666D01*
X94785714Y-94976666D01*
X94880952Y-95024285D01*
X94928571Y-95071904D01*
X94976190Y-95167142D01*
X94976190Y-95548095D01*
X94785714Y-94119523D02*
X95452380Y-94119523D01*
X94404761Y-94357619D02*
X95119047Y-94595714D01*
X95119047Y-93976666D01*
%TO.C,TR1*%
X76388095Y-91032380D02*
X76959523Y-91032380D01*
X76673809Y-92032380D02*
X76673809Y-91032380D01*
X77864285Y-92032380D02*
X77530952Y-91556190D01*
X77292857Y-92032380D02*
X77292857Y-91032380D01*
X77673809Y-91032380D01*
X77769047Y-91080000D01*
X77816666Y-91127619D01*
X77864285Y-91222857D01*
X77864285Y-91365714D01*
X77816666Y-91460952D01*
X77769047Y-91508571D01*
X77673809Y-91556190D01*
X77292857Y-91556190D01*
X78816666Y-92032380D02*
X78245238Y-92032380D01*
X78530952Y-92032380D02*
X78530952Y-91032380D01*
X78435714Y-91175238D01*
X78340476Y-91270476D01*
X78245238Y-91318095D01*
%TO.C,C1*%
X55407142Y-116416666D02*
X55454761Y-116464285D01*
X55502380Y-116607142D01*
X55502380Y-116702380D01*
X55454761Y-116845238D01*
X55359523Y-116940476D01*
X55264285Y-116988095D01*
X55073809Y-117035714D01*
X54930952Y-117035714D01*
X54740476Y-116988095D01*
X54645238Y-116940476D01*
X54550000Y-116845238D01*
X54502380Y-116702380D01*
X54502380Y-116607142D01*
X54550000Y-116464285D01*
X54597619Y-116416666D01*
X55502380Y-115464285D02*
X55502380Y-116035714D01*
X55502380Y-115750000D02*
X54502380Y-115750000D01*
X54645238Y-115845238D01*
X54740476Y-115940476D01*
X54788095Y-116035714D01*
%TO.C,C2*%
X50307142Y-121916666D02*
X50354761Y-121964285D01*
X50402380Y-122107142D01*
X50402380Y-122202380D01*
X50354761Y-122345238D01*
X50259523Y-122440476D01*
X50164285Y-122488095D01*
X49973809Y-122535714D01*
X49830952Y-122535714D01*
X49640476Y-122488095D01*
X49545238Y-122440476D01*
X49450000Y-122345238D01*
X49402380Y-122202380D01*
X49402380Y-122107142D01*
X49450000Y-121964285D01*
X49497619Y-121916666D01*
X49497619Y-121535714D02*
X49450000Y-121488095D01*
X49402380Y-121392857D01*
X49402380Y-121154761D01*
X49450000Y-121059523D01*
X49497619Y-121011904D01*
X49592857Y-120964285D01*
X49688095Y-120964285D01*
X49830952Y-121011904D01*
X50402380Y-121583333D01*
X50402380Y-120964285D01*
%TO.C,C3*%
X96083333Y-112307142D02*
X96035714Y-112354761D01*
X95892857Y-112402380D01*
X95797619Y-112402380D01*
X95654761Y-112354761D01*
X95559523Y-112259523D01*
X95511904Y-112164285D01*
X95464285Y-111973809D01*
X95464285Y-111830952D01*
X95511904Y-111640476D01*
X95559523Y-111545238D01*
X95654761Y-111450000D01*
X95797619Y-111402380D01*
X95892857Y-111402380D01*
X96035714Y-111450000D01*
X96083333Y-111497619D01*
X96416666Y-111402380D02*
X97035714Y-111402380D01*
X96702380Y-111783333D01*
X96845238Y-111783333D01*
X96940476Y-111830952D01*
X96988095Y-111878571D01*
X97035714Y-111973809D01*
X97035714Y-112211904D01*
X96988095Y-112307142D01*
X96940476Y-112354761D01*
X96845238Y-112402380D01*
X96559523Y-112402380D01*
X96464285Y-112354761D01*
X96416666Y-112307142D01*
%TO.C,C4*%
X50307142Y-126916666D02*
X50354761Y-126964285D01*
X50402380Y-127107142D01*
X50402380Y-127202380D01*
X50354761Y-127345238D01*
X50259523Y-127440476D01*
X50164285Y-127488095D01*
X49973809Y-127535714D01*
X49830952Y-127535714D01*
X49640476Y-127488095D01*
X49545238Y-127440476D01*
X49450000Y-127345238D01*
X49402380Y-127202380D01*
X49402380Y-127107142D01*
X49450000Y-126964285D01*
X49497619Y-126916666D01*
X49735714Y-126059523D02*
X50402380Y-126059523D01*
X49354761Y-126297619D02*
X50069047Y-126535714D01*
X50069047Y-125916666D01*
%TO.C,C5*%
X91907142Y-92916666D02*
X91954761Y-92964285D01*
X92002380Y-93107142D01*
X92002380Y-93202380D01*
X91954761Y-93345238D01*
X91859523Y-93440476D01*
X91764285Y-93488095D01*
X91573809Y-93535714D01*
X91430952Y-93535714D01*
X91240476Y-93488095D01*
X91145238Y-93440476D01*
X91050000Y-93345238D01*
X91002380Y-93202380D01*
X91002380Y-93107142D01*
X91050000Y-92964285D01*
X91097619Y-92916666D01*
X91002380Y-92011904D02*
X91002380Y-92488095D01*
X91478571Y-92535714D01*
X91430952Y-92488095D01*
X91383333Y-92392857D01*
X91383333Y-92154761D01*
X91430952Y-92059523D01*
X91478571Y-92011904D01*
X91573809Y-91964285D01*
X91811904Y-91964285D01*
X91907142Y-92011904D01*
X91954761Y-92059523D01*
X92002380Y-92154761D01*
X92002380Y-92392857D01*
X91954761Y-92488095D01*
X91907142Y-92535714D01*
%TO.C,C6*%
X91907142Y-108916666D02*
X91954761Y-108964285D01*
X92002380Y-109107142D01*
X92002380Y-109202380D01*
X91954761Y-109345238D01*
X91859523Y-109440476D01*
X91764285Y-109488095D01*
X91573809Y-109535714D01*
X91430952Y-109535714D01*
X91240476Y-109488095D01*
X91145238Y-109440476D01*
X91050000Y-109345238D01*
X91002380Y-109202380D01*
X91002380Y-109107142D01*
X91050000Y-108964285D01*
X91097619Y-108916666D01*
X91002380Y-108059523D02*
X91002380Y-108250000D01*
X91050000Y-108345238D01*
X91097619Y-108392857D01*
X91240476Y-108488095D01*
X91430952Y-108535714D01*
X91811904Y-108535714D01*
X91907142Y-108488095D01*
X91954761Y-108440476D01*
X92002380Y-108345238D01*
X92002380Y-108154761D01*
X91954761Y-108059523D01*
X91907142Y-108011904D01*
X91811904Y-107964285D01*
X91573809Y-107964285D01*
X91478571Y-108011904D01*
X91430952Y-108059523D01*
X91383333Y-108154761D01*
X91383333Y-108345238D01*
X91430952Y-108440476D01*
X91478571Y-108488095D01*
X91573809Y-108535714D01*
%TO.C,C7*%
X62357142Y-116416666D02*
X62404761Y-116464285D01*
X62452380Y-116607142D01*
X62452380Y-116702380D01*
X62404761Y-116845238D01*
X62309523Y-116940476D01*
X62214285Y-116988095D01*
X62023809Y-117035714D01*
X61880952Y-117035714D01*
X61690476Y-116988095D01*
X61595238Y-116940476D01*
X61500000Y-116845238D01*
X61452380Y-116702380D01*
X61452380Y-116607142D01*
X61500000Y-116464285D01*
X61547619Y-116416666D01*
X61452380Y-116083333D02*
X61452380Y-115416666D01*
X62452380Y-115845238D01*
%TO.C,C8*%
X61907142Y-121916666D02*
X61954761Y-121964285D01*
X62002380Y-122107142D01*
X62002380Y-122202380D01*
X61954761Y-122345238D01*
X61859523Y-122440476D01*
X61764285Y-122488095D01*
X61573809Y-122535714D01*
X61430952Y-122535714D01*
X61240476Y-122488095D01*
X61145238Y-122440476D01*
X61050000Y-122345238D01*
X61002380Y-122202380D01*
X61002380Y-122107142D01*
X61050000Y-121964285D01*
X61097619Y-121916666D01*
X61430952Y-121345238D02*
X61383333Y-121440476D01*
X61335714Y-121488095D01*
X61240476Y-121535714D01*
X61192857Y-121535714D01*
X61097619Y-121488095D01*
X61050000Y-121440476D01*
X61002380Y-121345238D01*
X61002380Y-121154761D01*
X61050000Y-121059523D01*
X61097619Y-121011904D01*
X61192857Y-120964285D01*
X61240476Y-120964285D01*
X61335714Y-121011904D01*
X61383333Y-121059523D01*
X61430952Y-121154761D01*
X61430952Y-121345238D01*
X61478571Y-121440476D01*
X61526190Y-121488095D01*
X61621428Y-121535714D01*
X61811904Y-121535714D01*
X61907142Y-121488095D01*
X61954761Y-121440476D01*
X62002380Y-121345238D01*
X62002380Y-121154761D01*
X61954761Y-121059523D01*
X61907142Y-121011904D01*
X61811904Y-120964285D01*
X61621428Y-120964285D01*
X61526190Y-121011904D01*
X61478571Y-121059523D01*
X61430952Y-121154761D01*
%TO.C,C9*%
X96083333Y-117307142D02*
X96035714Y-117354761D01*
X95892857Y-117402380D01*
X95797619Y-117402380D01*
X95654761Y-117354761D01*
X95559523Y-117259523D01*
X95511904Y-117164285D01*
X95464285Y-116973809D01*
X95464285Y-116830952D01*
X95511904Y-116640476D01*
X95559523Y-116545238D01*
X95654761Y-116450000D01*
X95797619Y-116402380D01*
X95892857Y-116402380D01*
X96035714Y-116450000D01*
X96083333Y-116497619D01*
X96559523Y-117402380D02*
X96750000Y-117402380D01*
X96845238Y-117354761D01*
X96892857Y-117307142D01*
X96988095Y-117164285D01*
X97035714Y-116973809D01*
X97035714Y-116592857D01*
X96988095Y-116497619D01*
X96940476Y-116450000D01*
X96845238Y-116402380D01*
X96654761Y-116402380D01*
X96559523Y-116450000D01*
X96511904Y-116497619D01*
X96464285Y-116592857D01*
X96464285Y-116830952D01*
X96511904Y-116926190D01*
X96559523Y-116973809D01*
X96654761Y-117021428D01*
X96845238Y-117021428D01*
X96940476Y-116973809D01*
X96988095Y-116926190D01*
X97035714Y-116830952D01*
%TO.C,C10*%
X92307142Y-127392857D02*
X92354761Y-127440476D01*
X92402380Y-127583333D01*
X92402380Y-127678571D01*
X92354761Y-127821428D01*
X92259523Y-127916666D01*
X92164285Y-127964285D01*
X91973809Y-128011904D01*
X91830952Y-128011904D01*
X91640476Y-127964285D01*
X91545238Y-127916666D01*
X91450000Y-127821428D01*
X91402380Y-127678571D01*
X91402380Y-127583333D01*
X91450000Y-127440476D01*
X91497619Y-127392857D01*
X92402380Y-126440476D02*
X92402380Y-127011904D01*
X92402380Y-126726190D02*
X91402380Y-126726190D01*
X91545238Y-126821428D01*
X91640476Y-126916666D01*
X91688095Y-127011904D01*
X91402380Y-125821428D02*
X91402380Y-125726190D01*
X91450000Y-125630952D01*
X91497619Y-125583333D01*
X91592857Y-125535714D01*
X91783333Y-125488095D01*
X92021428Y-125488095D01*
X92211904Y-125535714D01*
X92307142Y-125583333D01*
X92354761Y-125630952D01*
X92402380Y-125726190D01*
X92402380Y-125821428D01*
X92354761Y-125916666D01*
X92307142Y-125964285D01*
X92211904Y-126011904D01*
X92021428Y-126059523D01*
X91783333Y-126059523D01*
X91592857Y-126011904D01*
X91497619Y-125964285D01*
X91450000Y-125916666D01*
X91402380Y-125821428D01*
%TO.C,D1*%
X70951904Y-112332380D02*
X70951904Y-111332380D01*
X71190000Y-111332380D01*
X71332857Y-111380000D01*
X71428095Y-111475238D01*
X71475714Y-111570476D01*
X71523333Y-111760952D01*
X71523333Y-111903809D01*
X71475714Y-112094285D01*
X71428095Y-112189523D01*
X71332857Y-112284761D01*
X71190000Y-112332380D01*
X70951904Y-112332380D01*
X72475714Y-112332380D02*
X71904285Y-112332380D01*
X72190000Y-112332380D02*
X72190000Y-111332380D01*
X72094761Y-111475238D01*
X71999523Y-111570476D01*
X71904285Y-111618095D01*
X67618095Y-112652380D02*
X67618095Y-111652380D01*
X68189523Y-112652380D02*
X67760952Y-112080952D01*
X68189523Y-111652380D02*
X67618095Y-112223809D01*
%TO.C,L1*%
X71458333Y-118657380D02*
X70982142Y-118657380D01*
X70982142Y-117657380D01*
X72315476Y-118657380D02*
X71744047Y-118657380D01*
X72029761Y-118657380D02*
X72029761Y-117657380D01*
X71934523Y-117800238D01*
X71839285Y-117895476D01*
X71744047Y-117943095D01*
%TO.C,R1*%
X86643333Y-119952380D02*
X86310000Y-119476190D01*
X86071904Y-119952380D02*
X86071904Y-118952380D01*
X86452857Y-118952380D01*
X86548095Y-119000000D01*
X86595714Y-119047619D01*
X86643333Y-119142857D01*
X86643333Y-119285714D01*
X86595714Y-119380952D01*
X86548095Y-119428571D01*
X86452857Y-119476190D01*
X86071904Y-119476190D01*
X87595714Y-119952380D02*
X87024285Y-119952380D01*
X87310000Y-119952380D02*
X87310000Y-118952380D01*
X87214761Y-119095238D01*
X87119523Y-119190476D01*
X87024285Y-119238095D01*
%TO.C,R2*%
X86833333Y-114952380D02*
X86500000Y-114476190D01*
X86261904Y-114952380D02*
X86261904Y-113952380D01*
X86642857Y-113952380D01*
X86738095Y-114000000D01*
X86785714Y-114047619D01*
X86833333Y-114142857D01*
X86833333Y-114285714D01*
X86785714Y-114380952D01*
X86738095Y-114428571D01*
X86642857Y-114476190D01*
X86261904Y-114476190D01*
X87214285Y-114047619D02*
X87261904Y-114000000D01*
X87357142Y-113952380D01*
X87595238Y-113952380D01*
X87690476Y-114000000D01*
X87738095Y-114047619D01*
X87785714Y-114142857D01*
X87785714Y-114238095D01*
X87738095Y-114380952D01*
X87166666Y-114952380D01*
X87785714Y-114952380D01*
%TO.C,R5*%
X84452380Y-127476666D02*
X83976190Y-127810000D01*
X84452380Y-128048095D02*
X83452380Y-128048095D01*
X83452380Y-127667142D01*
X83500000Y-127571904D01*
X83547619Y-127524285D01*
X83642857Y-127476666D01*
X83785714Y-127476666D01*
X83880952Y-127524285D01*
X83928571Y-127571904D01*
X83976190Y-127667142D01*
X83976190Y-128048095D01*
X83452380Y-126571904D02*
X83452380Y-127048095D01*
X83928571Y-127095714D01*
X83880952Y-127048095D01*
X83833333Y-126952857D01*
X83833333Y-126714761D01*
X83880952Y-126619523D01*
X83928571Y-126571904D01*
X84023809Y-126524285D01*
X84261904Y-126524285D01*
X84357142Y-126571904D01*
X84404761Y-126619523D01*
X84452380Y-126714761D01*
X84452380Y-126952857D01*
X84404761Y-127048095D01*
X84357142Y-127095714D01*
%TO.C,R6*%
X88952380Y-127286666D02*
X88476190Y-127620000D01*
X88952380Y-127858095D02*
X87952380Y-127858095D01*
X87952380Y-127477142D01*
X88000000Y-127381904D01*
X88047619Y-127334285D01*
X88142857Y-127286666D01*
X88285714Y-127286666D01*
X88380952Y-127334285D01*
X88428571Y-127381904D01*
X88476190Y-127477142D01*
X88476190Y-127858095D01*
X87952380Y-126429523D02*
X87952380Y-126620000D01*
X88000000Y-126715238D01*
X88047619Y-126762857D01*
X88190476Y-126858095D01*
X88380952Y-126905714D01*
X88761904Y-126905714D01*
X88857142Y-126858095D01*
X88904761Y-126810476D01*
X88952380Y-126715238D01*
X88952380Y-126524761D01*
X88904761Y-126429523D01*
X88857142Y-126381904D01*
X88761904Y-126334285D01*
X88523809Y-126334285D01*
X88428571Y-126381904D01*
X88380952Y-126429523D01*
X88333333Y-126524761D01*
X88333333Y-126715238D01*
X88380952Y-126810476D01*
X88428571Y-126858095D01*
X88523809Y-126905714D01*
%TO.C,SW1*%
X49964761Y-124833333D02*
X50012380Y-124690476D01*
X50012380Y-124452380D01*
X49964761Y-124357142D01*
X49917142Y-124309523D01*
X49821904Y-124261904D01*
X49726666Y-124261904D01*
X49631428Y-124309523D01*
X49583809Y-124357142D01*
X49536190Y-124452380D01*
X49488571Y-124642857D01*
X49440952Y-124738095D01*
X49393333Y-124785714D01*
X49298095Y-124833333D01*
X49202857Y-124833333D01*
X49107619Y-124785714D01*
X49060000Y-124738095D01*
X49012380Y-124642857D01*
X49012380Y-124404761D01*
X49060000Y-124261904D01*
X49012380Y-123928571D02*
X50012380Y-123690476D01*
X49298095Y-123500000D01*
X50012380Y-123309523D01*
X49012380Y-123071428D01*
X50012380Y-122166666D02*
X50012380Y-122738095D01*
X50012380Y-122452380D02*
X49012380Y-122452380D01*
X49155238Y-122547619D01*
X49250476Y-122642857D01*
X49298095Y-122738095D01*
%TO.C,U1*%
X70615595Y-124230380D02*
X70615595Y-125039904D01*
X70663214Y-125135142D01*
X70710833Y-125182761D01*
X70806071Y-125230380D01*
X70996547Y-125230380D01*
X71091785Y-125182761D01*
X71139404Y-125135142D01*
X71187023Y-125039904D01*
X71187023Y-124230380D01*
X72187023Y-125230380D02*
X71615595Y-125230380D01*
X71901309Y-125230380D02*
X71901309Y-124230380D01*
X71806071Y-124373238D01*
X71710833Y-124468476D01*
X71615595Y-124516095D01*
%TO.C,J1*%
X44452380Y-96833333D02*
X45166666Y-96833333D01*
X45309523Y-96880952D01*
X45404761Y-96976190D01*
X45452380Y-97119047D01*
X45452380Y-97214285D01*
X45452380Y-95833333D02*
X45452380Y-96404761D01*
X45452380Y-96119047D02*
X44452380Y-96119047D01*
X44595238Y-96214285D01*
X44690476Y-96309523D01*
X44738095Y-96404761D01*
%TO.C,J5*%
X44452380Y-102358333D02*
X45166666Y-102358333D01*
X45309523Y-102405952D01*
X45404761Y-102501190D01*
X45452380Y-102644047D01*
X45452380Y-102739285D01*
X44452380Y-101405952D02*
X44452380Y-101882142D01*
X44928571Y-101929761D01*
X44880952Y-101882142D01*
X44833333Y-101786904D01*
X44833333Y-101548809D01*
X44880952Y-101453571D01*
X44928571Y-101405952D01*
X45023809Y-101358333D01*
X45261904Y-101358333D01*
X45357142Y-101405952D01*
X45404761Y-101453571D01*
X45452380Y-101548809D01*
X45452380Y-101786904D01*
X45404761Y-101882142D01*
X45357142Y-101929761D01*
%TO.C,RV1*%
X57122380Y-91595238D02*
X56646190Y-91928571D01*
X57122380Y-92166666D02*
X56122380Y-92166666D01*
X56122380Y-91785714D01*
X56170000Y-91690476D01*
X56217619Y-91642857D01*
X56312857Y-91595238D01*
X56455714Y-91595238D01*
X56550952Y-91642857D01*
X56598571Y-91690476D01*
X56646190Y-91785714D01*
X56646190Y-92166666D01*
X56122380Y-91309523D02*
X57122380Y-90976190D01*
X56122380Y-90642857D01*
X57122380Y-89785714D02*
X57122380Y-90357142D01*
X57122380Y-90071428D02*
X56122380Y-90071428D01*
X56265238Y-90166666D01*
X56360476Y-90261904D01*
X56408095Y-90357142D01*
%TO.C,D2*%
X99642380Y-126968095D02*
X98642380Y-126968095D01*
X98642380Y-126730000D01*
X98690000Y-126587142D01*
X98785238Y-126491904D01*
X98880476Y-126444285D01*
X99070952Y-126396666D01*
X99213809Y-126396666D01*
X99404285Y-126444285D01*
X99499523Y-126491904D01*
X99594761Y-126587142D01*
X99642380Y-126730000D01*
X99642380Y-126968095D01*
X98737619Y-126015714D02*
X98690000Y-125968095D01*
X98642380Y-125872857D01*
X98642380Y-125634761D01*
X98690000Y-125539523D01*
X98737619Y-125491904D01*
X98832857Y-125444285D01*
X98928095Y-125444285D01*
X99070952Y-125491904D01*
X99642380Y-126063333D01*
X99642380Y-125444285D01*
%TO.C,R8*%
X86023333Y-137872380D02*
X85690000Y-137396190D01*
X85451904Y-137872380D02*
X85451904Y-136872380D01*
X85832857Y-136872380D01*
X85928095Y-136920000D01*
X85975714Y-136967619D01*
X86023333Y-137062857D01*
X86023333Y-137205714D01*
X85975714Y-137300952D01*
X85928095Y-137348571D01*
X85832857Y-137396190D01*
X85451904Y-137396190D01*
X86594761Y-137300952D02*
X86499523Y-137253333D01*
X86451904Y-137205714D01*
X86404285Y-137110476D01*
X86404285Y-137062857D01*
X86451904Y-136967619D01*
X86499523Y-136920000D01*
X86594761Y-136872380D01*
X86785238Y-136872380D01*
X86880476Y-136920000D01*
X86928095Y-136967619D01*
X86975714Y-137062857D01*
X86975714Y-137110476D01*
X86928095Y-137205714D01*
X86880476Y-137253333D01*
X86785238Y-137300952D01*
X86594761Y-137300952D01*
X86499523Y-137348571D01*
X86451904Y-137396190D01*
X86404285Y-137491428D01*
X86404285Y-137681904D01*
X86451904Y-137777142D01*
X86499523Y-137824761D01*
X86594761Y-137872380D01*
X86785238Y-137872380D01*
X86880476Y-137824761D01*
X86928095Y-137777142D01*
X86975714Y-137681904D01*
X86975714Y-137491428D01*
X86928095Y-137396190D01*
X86880476Y-137348571D01*
X86785238Y-137300952D01*
%TD*%
M02*
