%TF.GenerationSoftware,KiCad,Pcbnew,5.1.10*%
%TF.CreationDate,2021-06-23T13:28:15+02:00*%
%TF.ProjectId,supply,73757070-6c79-42e6-9b69-6361645f7063,rev?*%
%TF.SameCoordinates,Original*%
%TF.FileFunction,Copper,L2,Bot*%
%TF.FilePolarity,Positive*%
%FSLAX46Y46*%
G04 Gerber Fmt 4.6, Leading zero omitted, Abs format (unit mm)*
G04 Created by KiCad (PCBNEW 5.1.10) date 2021-06-23 13:28:15*
%MOMM*%
%LPD*%
G01*
G04 APERTURE LIST*
%TA.AperFunction,ComponentPad*%
%ADD10C,3.800000*%
%TD*%
%TA.AperFunction,ComponentPad*%
%ADD11C,1.600000*%
%TD*%
%TA.AperFunction,ComponentPad*%
%ADD12O,1.600000X1.600000*%
%TD*%
%TA.AperFunction,ComponentPad*%
%ADD13R,1.600000X1.600000*%
%TD*%
%TA.AperFunction,ComponentPad*%
%ADD14C,1.400000*%
%TD*%
%TA.AperFunction,ComponentPad*%
%ADD15O,1.400000X1.400000*%
%TD*%
%TA.AperFunction,ComponentPad*%
%ADD16O,1.700000X1.700000*%
%TD*%
%TA.AperFunction,ComponentPad*%
%ADD17R,1.700000X1.700000*%
%TD*%
%TA.AperFunction,ComponentPad*%
%ADD18C,2.000000*%
%TD*%
%TA.AperFunction,ComponentPad*%
%ADD19O,2.000000X2.000000*%
%TD*%
%TA.AperFunction,ComponentPad*%
%ADD20R,1.350000X1.350000*%
%TD*%
%TA.AperFunction,ComponentPad*%
%ADD21O,1.350000X1.350000*%
%TD*%
%TA.AperFunction,ComponentPad*%
%ADD22C,0.377500*%
%TD*%
%TA.AperFunction,ComponentPad*%
%ADD23R,1.800000X1.800000*%
%TD*%
%TA.AperFunction,ComponentPad*%
%ADD24C,1.800000*%
%TD*%
%TA.AperFunction,ComponentPad*%
%ADD25R,2.000000X2.000000*%
%TD*%
%TA.AperFunction,ViaPad*%
%ADD26C,0.800000*%
%TD*%
%TA.AperFunction,Conductor*%
%ADD27C,0.200000*%
%TD*%
%TA.AperFunction,Conductor*%
%ADD28C,0.254000*%
%TD*%
%TA.AperFunction,Conductor*%
%ADD29C,0.100000*%
%TD*%
G04 APERTURE END LIST*
D10*
%TO.P,J8,1*%
%TO.N,Earth*%
X45500000Y-89000000D03*
%TD*%
%TO.P,J9,1*%
%TO.N,Earth*%
X107000000Y-89000000D03*
%TD*%
%TO.P,J7,1*%
%TO.N,Earth*%
X107000000Y-135500000D03*
%TD*%
%TO.P,J6,1*%
%TO.N,Earth*%
X45500000Y-135500000D03*
%TD*%
D11*
%TO.P,R7,1*%
%TO.N,Net-(C12-Pad1)*%
X48000000Y-109000000D03*
D12*
%TO.P,R7,2*%
%TO.N,GND*%
X55620000Y-109000000D03*
%TD*%
D11*
%TO.P,C12,1*%
%TO.N,Net-(C12-Pad1)*%
X52000000Y-96000000D03*
%TO.P,C12,2*%
%TO.N,Net-(C11-Pad2)*%
X54500000Y-96000000D03*
%TD*%
D13*
%TO.P,U2,1*%
%TO.N,Net-(U2-Pad1)*%
X65500000Y-105000000D03*
D12*
%TO.P,U2,5*%
%TO.N,Net-(C11-Pad2)*%
X57880000Y-97380000D03*
%TO.P,U2,2*%
%TO.N,GND*%
X65500000Y-102460000D03*
%TO.P,U2,6*%
%TO.N,VCC*%
X57880000Y-99920000D03*
%TO.P,U2,3*%
%TO.N,Net-(RV1-Pad2)*%
X65500000Y-99920000D03*
%TO.P,U2,7*%
%TO.N,Net-(U2-Pad7)*%
X57880000Y-102460000D03*
%TO.P,U2,4*%
%TO.N,GND*%
X65500000Y-97380000D03*
%TO.P,U2,8*%
%TO.N,Net-(U2-Pad8)*%
X57880000Y-105000000D03*
%TD*%
D11*
%TO.P,C11,2*%
%TO.N,Net-(C11-Pad2)*%
X54500000Y-91000000D03*
%TO.P,C11,1*%
%TO.N,Net-(C11-Pad1)*%
X52000000Y-91000000D03*
%TD*%
D14*
%TO.P,PTC1,1*%
%TO.N,Net-(C10-Pad2)*%
X101500000Y-118500000D03*
D15*
%TO.P,PTC1,2*%
%TO.N,Net-(D2-Pad2)*%
X101500000Y-113420000D03*
%TD*%
D16*
%TO.P,BT1,2*%
%TO.N,GND*%
X47500000Y-117540000D03*
D17*
%TO.P,BT1,1*%
%TO.N,Net-(BT1-Pad1)*%
X47500000Y-115000000D03*
%TD*%
D10*
%TO.P,J2,1*%
%TO.N,/6*%
X101500000Y-99500000D03*
%TD*%
%TO.P,J3,1*%
%TO.N,/4*%
X101500000Y-91500000D03*
%TD*%
%TO.P,J4,1*%
%TO.N,GND*%
X101500000Y-107000000D03*
%TD*%
D11*
%TO.P,C1,2*%
%TO.N,GND*%
X52500000Y-117500000D03*
%TO.P,C1,1*%
%TO.N,Net-(BT1-Pad1)*%
X52500000Y-115000000D03*
%TD*%
%TO.P,C2,2*%
%TO.N,GND*%
X52500000Y-120500000D03*
%TO.P,C2,1*%
%TO.N,VCC*%
X52500000Y-123000000D03*
%TD*%
%TO.P,C3,1*%
%TO.N,Net-(C3-Pad1)*%
X95000000Y-114500000D03*
%TO.P,C3,2*%
%TO.N,GND*%
X97500000Y-114500000D03*
%TD*%
%TO.P,C4,1*%
%TO.N,Net-(C4-Pad1)*%
X52500000Y-128000000D03*
%TO.P,C4,2*%
%TO.N,GND*%
X52500000Y-125500000D03*
%TD*%
%TO.P,C7,2*%
%TO.N,GND*%
X59000000Y-115000000D03*
%TO.P,C7,1*%
%TO.N,Net-(C7-Pad1)*%
X59000000Y-117500000D03*
%TD*%
%TO.P,C8,1*%
%TO.N,Net-(C7-Pad1)*%
X59000000Y-120500000D03*
%TO.P,C8,2*%
%TO.N,Net-(C8-Pad2)*%
X59000000Y-123000000D03*
%TD*%
%TO.P,C9,2*%
%TO.N,Net-(C10-Pad2)*%
X97500000Y-119500000D03*
%TO.P,C9,1*%
%TO.N,GND*%
X95000000Y-119500000D03*
%TD*%
%TO.P,C10,1*%
%TO.N,GND*%
X94500000Y-128000000D03*
%TO.P,C10,2*%
%TO.N,Net-(C10-Pad2)*%
X94500000Y-125500000D03*
%TD*%
D13*
%TO.P,D1,1*%
%TO.N,Net-(C10-Pad2)*%
X67880000Y-114000000D03*
D12*
%TO.P,D1,2*%
%TO.N,Net-(D1-Pad2)*%
X75500000Y-114000000D03*
%TD*%
D18*
%TO.P,L1,1*%
%TO.N,VCC*%
X65275000Y-121325000D03*
D19*
%TO.P,L1,2*%
%TO.N,Net-(D1-Pad2)*%
X77975000Y-121325000D03*
%TD*%
D12*
%TO.P,R1,2*%
%TO.N,GND*%
X90620000Y-119500000D03*
D11*
%TO.P,R1,1*%
%TO.N,Net-(R1-Pad1)*%
X83000000Y-119500000D03*
%TD*%
%TO.P,R2,1*%
%TO.N,Net-(C8-Pad2)*%
X82880000Y-114500000D03*
D12*
%TO.P,R2,2*%
%TO.N,GND*%
X90500000Y-114500000D03*
%TD*%
D11*
%TO.P,R5,1*%
%TO.N,Net-(C10-Pad2)*%
X84000000Y-123500000D03*
D12*
%TO.P,R5,2*%
%TO.N,Net-(R5-Pad2)*%
X84000000Y-131120000D03*
%TD*%
%TO.P,R6,2*%
%TO.N,GND*%
X88500000Y-123500000D03*
D11*
%TO.P,R6,1*%
%TO.N,Net-(R5-Pad2)*%
X88500000Y-131120000D03*
%TD*%
D20*
%TO.P,SW1,1*%
%TO.N,Net-(BT1-Pad1)*%
X47500000Y-122500000D03*
D21*
%TO.P,SW1,2*%
%TO.N,VCC*%
X47500000Y-124500000D03*
%TD*%
D22*
%TO.P,U1,17*%
%TO.N,GND*%
X71000000Y-127500500D03*
X71000000Y-128255500D03*
X71755000Y-127500500D03*
X71755000Y-128255500D03*
%TD*%
D10*
%TO.P,J1,1*%
%TO.N,GND*%
X47825000Y-96675000D03*
%TD*%
%TO.P,J5,1*%
%TO.N,Net-(C11-Pad1)*%
X47825000Y-102025000D03*
%TD*%
D17*
%TO.P,RV1,1*%
%TO.N,/1*%
X59000000Y-91000000D03*
D16*
%TO.P,RV1,2*%
%TO.N,Net-(RV1-Pad2)*%
X61540000Y-91000000D03*
%TO.P,RV1,3*%
%TO.N,GND*%
X64080000Y-91000000D03*
%TD*%
D23*
%TO.P,D2,1*%
%TO.N,Net-(D2-Pad1)*%
X101500000Y-127500000D03*
D24*
%TO.P,D2,2*%
%TO.N,Net-(D2-Pad2)*%
X101500000Y-124960000D03*
%TD*%
D14*
%TO.P,R8,1*%
%TO.N,Net-(D2-Pad1)*%
X90000000Y-135500000D03*
D15*
%TO.P,R8,2*%
%TO.N,GND*%
X82380000Y-135500000D03*
%TD*%
D11*
%TO.P,R3,1*%
%TO.N,Net-(D2-Pad2)*%
X89000000Y-104620000D03*
D12*
%TO.P,R3,2*%
%TO.N,/5*%
X89000000Y-97000000D03*
%TD*%
D18*
%TO.P,TR1,6*%
%TO.N,/6*%
X83500000Y-92880000D03*
D25*
%TO.P,TR1,1*%
%TO.N,/1*%
X70800000Y-92880000D03*
D18*
%TO.P,TR1,5*%
%TO.N,/5*%
X83500000Y-100500000D03*
%TO.P,TR1,2*%
%TO.N,Net-(TR1-Pad2)*%
X70800000Y-100500000D03*
%TO.P,TR1,4*%
%TO.N,/4*%
X83500000Y-108120000D03*
%TO.P,TR1,3*%
%TO.N,GND*%
X70800000Y-108120000D03*
%TD*%
D26*
%TO.N,Earth*%
X55500000Y-118500000D03*
X68500000Y-124500000D03*
X77500000Y-130500000D03*
X86500000Y-129000000D03*
X56500000Y-128500000D03*
%TD*%
D27*
%TO.N,GND*%
X90620000Y-117575100D02*
X90620000Y-119500000D01*
X90500000Y-115530300D02*
X90620000Y-115650300D01*
X90620000Y-115650300D02*
X90620000Y-117575100D01*
X95000000Y-117575100D02*
X95000000Y-117000000D01*
X95000000Y-117000000D02*
X97500000Y-114500000D01*
X95000000Y-119500000D02*
X95000000Y-117575100D01*
X90620000Y-117575100D02*
X95000000Y-117575100D01*
X82380000Y-135307200D02*
X82380000Y-134569700D01*
X82380000Y-135500000D02*
X82380000Y-135307200D01*
X71755000Y-128255500D02*
X78806700Y-135307200D01*
X78806700Y-135307200D02*
X82380000Y-135307200D01*
X52500000Y-125500000D02*
X68999500Y-125500000D01*
X68999500Y-125500000D02*
X71000000Y-127500500D01*
X52500000Y-120500000D02*
X51466700Y-121533300D01*
X51466700Y-121533300D02*
X51466700Y-124466700D01*
X51466700Y-124466700D02*
X52500000Y-125500000D01*
X88500000Y-128000000D02*
X88500000Y-123500000D01*
X82380000Y-134569700D02*
X88500000Y-128449700D01*
X88500000Y-128449700D02*
X88500000Y-128000000D01*
X88500000Y-128000000D02*
X94500000Y-128000000D01*
X90620000Y-119500000D02*
X90620000Y-120530300D01*
X88500000Y-123500000D02*
X88500000Y-122469700D01*
X88500000Y-122469700D02*
X90439400Y-120530300D01*
X90439400Y-120530300D02*
X90620000Y-120530300D01*
X65500000Y-97380000D02*
X65500000Y-96349700D01*
X64080000Y-91000000D02*
X64080000Y-94929700D01*
X64080000Y-94929700D02*
X65500000Y-96349700D01*
X55620000Y-114380000D02*
X52500000Y-117500000D01*
X55620000Y-109515100D02*
X55620000Y-114380000D01*
X59000000Y-115000000D02*
X58380000Y-114380000D01*
X58380000Y-114380000D02*
X55620000Y-114380000D01*
X55620000Y-109000000D02*
X55620000Y-109515100D01*
X52500000Y-120500000D02*
X52500000Y-117500000D01*
X97500000Y-114500000D02*
X97500000Y-111000000D01*
X97500000Y-111000000D02*
X101500000Y-107000000D01*
X90500000Y-114500000D02*
X90500000Y-115530300D01*
X65500000Y-102460000D02*
X65500000Y-103490300D01*
X70800000Y-108120000D02*
X66170300Y-103490300D01*
X66170300Y-103490300D02*
X65500000Y-103490300D01*
%TO.N,Net-(BT1-Pad1)*%
X48580300Y-117025400D02*
X47635200Y-116080300D01*
X47635200Y-116080300D02*
X47500000Y-116080300D01*
X47500000Y-121594700D02*
X48580300Y-120514400D01*
X48580300Y-120514400D02*
X48580300Y-117025400D01*
X52500000Y-115000000D02*
X50605700Y-115000000D01*
X50605700Y-115000000D02*
X48580300Y-117025400D01*
X47500000Y-115000000D02*
X47500000Y-116080300D01*
X47500000Y-122500000D02*
X47500000Y-121594700D01*
%TO.N,Net-(C7-Pad1)*%
X59000000Y-120500000D02*
X59000000Y-117500000D01*
%TO.N,Net-(C10-Pad2)*%
X67880000Y-114000000D02*
X68910300Y-114000000D01*
X84000000Y-123500000D02*
X78281500Y-123500000D01*
X78281500Y-123500000D02*
X68910300Y-114128800D01*
X68910300Y-114128800D02*
X68910300Y-114000000D01*
%TO.N,Net-(D1-Pad2)*%
X77975000Y-121325000D02*
X77975000Y-120094700D01*
X77975000Y-120094700D02*
X75500000Y-117619700D01*
X75500000Y-117619700D02*
X75500000Y-114000000D01*
%TO.N,VCC*%
X57880000Y-99920000D02*
X57880000Y-100950300D01*
X60030400Y-121325000D02*
X59605400Y-121750000D01*
X59605400Y-121750000D02*
X53750000Y-121750000D01*
X53750000Y-121750000D02*
X52500000Y-123000000D01*
X57880000Y-100950300D02*
X60030400Y-103100700D01*
X60030400Y-103100700D02*
X60030400Y-121325000D01*
X60030400Y-121325000D02*
X65275000Y-121325000D01*
%TO.N,Net-(C11-Pad1)*%
X52000000Y-91000000D02*
X50482600Y-92517400D01*
X50482600Y-92517400D02*
X50482600Y-99367400D01*
X50482600Y-99367400D02*
X47825000Y-102025000D01*
%TO.N,Net-(D2-Pad2)*%
X101500000Y-113420000D02*
X101500000Y-114350300D01*
X101500000Y-124960000D02*
X102472600Y-123987400D01*
X102472600Y-123987400D02*
X102472600Y-115322900D01*
X102472600Y-115322900D02*
X101500000Y-114350300D01*
%TO.N,Net-(C11-Pad2)*%
X54500000Y-91000000D02*
X54500000Y-96000000D01*
%TO.N,Net-(C12-Pad1)*%
X52000000Y-96000000D02*
X52000000Y-105000000D01*
X52000000Y-105000000D02*
X48000000Y-109000000D01*
%TO.N,Net-(RV1-Pad2)*%
X65500000Y-99920000D02*
X65500000Y-98889700D01*
X61540000Y-91000000D02*
X61540000Y-94929700D01*
X61540000Y-94929700D02*
X65500000Y-98889700D01*
%TO.N,/4*%
X83500000Y-108120000D02*
X100120000Y-91500000D01*
X100120000Y-91500000D02*
X101500000Y-91500000D01*
%TD*%
D28*
%TO.N,Earth*%
X110648001Y-139148000D02*
X41352000Y-139148000D01*
X41352000Y-127889000D01*
X51373000Y-127889000D01*
X51373000Y-128111000D01*
X51416310Y-128328734D01*
X51501266Y-128533835D01*
X51624602Y-128718421D01*
X51781579Y-128875398D01*
X51966165Y-128998734D01*
X52171266Y-129083690D01*
X52389000Y-129127000D01*
X52611000Y-129127000D01*
X52828734Y-129083690D01*
X53033835Y-128998734D01*
X53218421Y-128875398D01*
X53375398Y-128718421D01*
X53498734Y-128533835D01*
X53583690Y-128328734D01*
X53627000Y-128111000D01*
X53627000Y-127889000D01*
X53583690Y-127671266D01*
X53498734Y-127466165D01*
X53375398Y-127281579D01*
X53218421Y-127124602D01*
X53033835Y-127001266D01*
X52828734Y-126916310D01*
X52611000Y-126873000D01*
X52389000Y-126873000D01*
X52171266Y-126916310D01*
X51966165Y-127001266D01*
X51781579Y-127124602D01*
X51624602Y-127281579D01*
X51501266Y-127466165D01*
X51416310Y-127671266D01*
X51373000Y-127889000D01*
X41352000Y-127889000D01*
X41352000Y-114150000D01*
X46321418Y-114150000D01*
X46321418Y-115850000D01*
X46327732Y-115914103D01*
X46346430Y-115975743D01*
X46376794Y-116032550D01*
X46417657Y-116082343D01*
X46467450Y-116123206D01*
X46524257Y-116153570D01*
X46585897Y-116172268D01*
X46650000Y-116178582D01*
X47083599Y-116178582D01*
X47103595Y-116244496D01*
X47143245Y-116318676D01*
X47196605Y-116383695D01*
X47212881Y-116397052D01*
X47156682Y-116408231D01*
X46942481Y-116496956D01*
X46749706Y-116625764D01*
X46585764Y-116789706D01*
X46456956Y-116982481D01*
X46368231Y-117196682D01*
X46323000Y-117424076D01*
X46323000Y-117655924D01*
X46368231Y-117883318D01*
X46456956Y-118097519D01*
X46585764Y-118290294D01*
X46749706Y-118454236D01*
X46942481Y-118583044D01*
X47156682Y-118671769D01*
X47384076Y-118717000D01*
X47615924Y-118717000D01*
X47843318Y-118671769D01*
X48057519Y-118583044D01*
X48153301Y-118519045D01*
X48153300Y-120337531D01*
X47212895Y-121277937D01*
X47196606Y-121291305D01*
X47183237Y-121307595D01*
X47183232Y-121307600D01*
X47143245Y-121356324D01*
X47103596Y-121430504D01*
X47083600Y-121496418D01*
X46825000Y-121496418D01*
X46760897Y-121502732D01*
X46699257Y-121521430D01*
X46642450Y-121551794D01*
X46592657Y-121592657D01*
X46551794Y-121642450D01*
X46521430Y-121699257D01*
X46502732Y-121760897D01*
X46496418Y-121825000D01*
X46496418Y-123175000D01*
X46502732Y-123239103D01*
X46521430Y-123300743D01*
X46551794Y-123357550D01*
X46592657Y-123407343D01*
X46642450Y-123448206D01*
X46699257Y-123478570D01*
X46760897Y-123497268D01*
X46825000Y-123503582D01*
X47373250Y-123503582D01*
X47207727Y-123536507D01*
X47025375Y-123612039D01*
X46861262Y-123721696D01*
X46721696Y-123861262D01*
X46612039Y-124025375D01*
X46536507Y-124207727D01*
X46498000Y-124401312D01*
X46498000Y-124598688D01*
X46536507Y-124792273D01*
X46612039Y-124974625D01*
X46721696Y-125138738D01*
X46861262Y-125278304D01*
X47025375Y-125387961D01*
X47207727Y-125463493D01*
X47401312Y-125502000D01*
X47598688Y-125502000D01*
X47792273Y-125463493D01*
X47974625Y-125387961D01*
X48138738Y-125278304D01*
X48278304Y-125138738D01*
X48387961Y-124974625D01*
X48463493Y-124792273D01*
X48502000Y-124598688D01*
X48502000Y-124401312D01*
X48463493Y-124207727D01*
X48387961Y-124025375D01*
X48278304Y-123861262D01*
X48138738Y-123721696D01*
X47974625Y-123612039D01*
X47792273Y-123536507D01*
X47626750Y-123503582D01*
X48175000Y-123503582D01*
X48239103Y-123497268D01*
X48300743Y-123478570D01*
X48357550Y-123448206D01*
X48407343Y-123407343D01*
X48448206Y-123357550D01*
X48478570Y-123300743D01*
X48497268Y-123239103D01*
X48503582Y-123175000D01*
X48503582Y-121825000D01*
X48497268Y-121760897D01*
X48478570Y-121699257D01*
X48448206Y-121642450D01*
X48407343Y-121592657D01*
X48357550Y-121551794D01*
X48322951Y-121533300D01*
X51037635Y-121533300D01*
X51039700Y-121554267D01*
X51039701Y-124445723D01*
X51037635Y-124466700D01*
X51039701Y-124487677D01*
X51039701Y-124487678D01*
X51045879Y-124550407D01*
X51061560Y-124602097D01*
X51070296Y-124630896D01*
X51109945Y-124705076D01*
X51149932Y-124753800D01*
X51149937Y-124753805D01*
X51163306Y-124770095D01*
X51179595Y-124783463D01*
X51460563Y-125064431D01*
X51416310Y-125171266D01*
X51373000Y-125389000D01*
X51373000Y-125611000D01*
X51416310Y-125828734D01*
X51501266Y-126033835D01*
X51624602Y-126218421D01*
X51781579Y-126375398D01*
X51966165Y-126498734D01*
X52171266Y-126583690D01*
X52389000Y-126627000D01*
X52611000Y-126627000D01*
X52828734Y-126583690D01*
X53033835Y-126498734D01*
X53218421Y-126375398D01*
X53375398Y-126218421D01*
X53498734Y-126033835D01*
X53542987Y-125927000D01*
X68822632Y-125927000D01*
X70493517Y-127597887D01*
X70504070Y-127650939D01*
X70542949Y-127744799D01*
X70599391Y-127829271D01*
X70648120Y-127878000D01*
X70599391Y-127926729D01*
X70542949Y-128011201D01*
X70504070Y-128105061D01*
X70484250Y-128204703D01*
X70484250Y-128306297D01*
X70504070Y-128405939D01*
X70542949Y-128499799D01*
X70599391Y-128584271D01*
X70671229Y-128656109D01*
X70755701Y-128712551D01*
X70849561Y-128751430D01*
X70949203Y-128771250D01*
X71050797Y-128771250D01*
X71150439Y-128751430D01*
X71244299Y-128712551D01*
X71328771Y-128656109D01*
X71377500Y-128607380D01*
X71426229Y-128656109D01*
X71510701Y-128712551D01*
X71604561Y-128751430D01*
X71657615Y-128761983D01*
X78489936Y-135594305D01*
X78503305Y-135610595D01*
X78519595Y-135623964D01*
X78519599Y-135623968D01*
X78568323Y-135663956D01*
X78625238Y-135694376D01*
X78642504Y-135703605D01*
X78722993Y-135728022D01*
X78785722Y-135734200D01*
X78785733Y-135734200D01*
X78806700Y-135736265D01*
X78827667Y-135734200D01*
X81379465Y-135734200D01*
X81392467Y-135799565D01*
X81469885Y-135986467D01*
X81582277Y-136154674D01*
X81725326Y-136297723D01*
X81893533Y-136410115D01*
X82080435Y-136487533D01*
X82278849Y-136527000D01*
X82481151Y-136527000D01*
X82679565Y-136487533D01*
X82866467Y-136410115D01*
X83034674Y-136297723D01*
X83177723Y-136154674D01*
X83290115Y-135986467D01*
X83367533Y-135799565D01*
X83407000Y-135601151D01*
X83407000Y-135398849D01*
X88973000Y-135398849D01*
X88973000Y-135601151D01*
X89012467Y-135799565D01*
X89089885Y-135986467D01*
X89202277Y-136154674D01*
X89345326Y-136297723D01*
X89513533Y-136410115D01*
X89700435Y-136487533D01*
X89898849Y-136527000D01*
X90101151Y-136527000D01*
X90299565Y-136487533D01*
X90486467Y-136410115D01*
X90654674Y-136297723D01*
X90797723Y-136154674D01*
X90910115Y-135986467D01*
X90987533Y-135799565D01*
X91027000Y-135601151D01*
X91027000Y-135398849D01*
X90987533Y-135200435D01*
X90910115Y-135013533D01*
X90797723Y-134845326D01*
X90654674Y-134702277D01*
X90486467Y-134589885D01*
X90299565Y-134512467D01*
X90101151Y-134473000D01*
X89898849Y-134473000D01*
X89700435Y-134512467D01*
X89513533Y-134589885D01*
X89345326Y-134702277D01*
X89202277Y-134845326D01*
X89089885Y-135013533D01*
X89012467Y-135200435D01*
X88973000Y-135398849D01*
X83407000Y-135398849D01*
X83367533Y-135200435D01*
X83290115Y-135013533D01*
X83177723Y-134845326D01*
X83034674Y-134702277D01*
X82924744Y-134628824D01*
X86544568Y-131009000D01*
X87373000Y-131009000D01*
X87373000Y-131231000D01*
X87416310Y-131448734D01*
X87501266Y-131653835D01*
X87624602Y-131838421D01*
X87781579Y-131995398D01*
X87966165Y-132118734D01*
X88171266Y-132203690D01*
X88389000Y-132247000D01*
X88611000Y-132247000D01*
X88828734Y-132203690D01*
X89033835Y-132118734D01*
X89218421Y-131995398D01*
X89375398Y-131838421D01*
X89498734Y-131653835D01*
X89583690Y-131448734D01*
X89627000Y-131231000D01*
X89627000Y-131009000D01*
X89583690Y-130791266D01*
X89498734Y-130586165D01*
X89375398Y-130401579D01*
X89218421Y-130244602D01*
X89033835Y-130121266D01*
X88828734Y-130036310D01*
X88611000Y-129993000D01*
X88389000Y-129993000D01*
X88171266Y-130036310D01*
X87966165Y-130121266D01*
X87781579Y-130244602D01*
X87624602Y-130401579D01*
X87501266Y-130586165D01*
X87416310Y-130791266D01*
X87373000Y-131009000D01*
X86544568Y-131009000D01*
X88787107Y-128766462D01*
X88803395Y-128753095D01*
X88816764Y-128736805D01*
X88816768Y-128736801D01*
X88856755Y-128688077D01*
X88896404Y-128613897D01*
X88896405Y-128613896D01*
X88920822Y-128533407D01*
X88927000Y-128470678D01*
X88927000Y-128470668D01*
X88929065Y-128449701D01*
X88927000Y-128428734D01*
X88927000Y-128427000D01*
X93457013Y-128427000D01*
X93501266Y-128533835D01*
X93624602Y-128718421D01*
X93781579Y-128875398D01*
X93966165Y-128998734D01*
X94171266Y-129083690D01*
X94389000Y-129127000D01*
X94611000Y-129127000D01*
X94828734Y-129083690D01*
X95033835Y-128998734D01*
X95218421Y-128875398D01*
X95375398Y-128718421D01*
X95498734Y-128533835D01*
X95583690Y-128328734D01*
X95627000Y-128111000D01*
X95627000Y-127889000D01*
X95583690Y-127671266D01*
X95498734Y-127466165D01*
X95375398Y-127281579D01*
X95218421Y-127124602D01*
X95033835Y-127001266D01*
X94828734Y-126916310D01*
X94611000Y-126873000D01*
X94389000Y-126873000D01*
X94171266Y-126916310D01*
X93966165Y-127001266D01*
X93781579Y-127124602D01*
X93624602Y-127281579D01*
X93501266Y-127466165D01*
X93457013Y-127573000D01*
X88927000Y-127573000D01*
X88927000Y-125389000D01*
X93373000Y-125389000D01*
X93373000Y-125611000D01*
X93416310Y-125828734D01*
X93501266Y-126033835D01*
X93624602Y-126218421D01*
X93781579Y-126375398D01*
X93966165Y-126498734D01*
X94171266Y-126583690D01*
X94389000Y-126627000D01*
X94611000Y-126627000D01*
X94746738Y-126600000D01*
X100271418Y-126600000D01*
X100271418Y-128400000D01*
X100277732Y-128464103D01*
X100296430Y-128525743D01*
X100326794Y-128582550D01*
X100367657Y-128632343D01*
X100417450Y-128673206D01*
X100474257Y-128703570D01*
X100535897Y-128722268D01*
X100600000Y-128728582D01*
X102400000Y-128728582D01*
X102464103Y-128722268D01*
X102525743Y-128703570D01*
X102582550Y-128673206D01*
X102632343Y-128632343D01*
X102673206Y-128582550D01*
X102703570Y-128525743D01*
X102722268Y-128464103D01*
X102728582Y-128400000D01*
X102728582Y-126600000D01*
X102722268Y-126535897D01*
X102703570Y-126474257D01*
X102673206Y-126417450D01*
X102632343Y-126367657D01*
X102582550Y-126326794D01*
X102525743Y-126296430D01*
X102464103Y-126277732D01*
X102400000Y-126271418D01*
X100600000Y-126271418D01*
X100535897Y-126277732D01*
X100474257Y-126296430D01*
X100417450Y-126326794D01*
X100367657Y-126367657D01*
X100326794Y-126417450D01*
X100296430Y-126474257D01*
X100277732Y-126535897D01*
X100271418Y-126600000D01*
X94746738Y-126600000D01*
X94828734Y-126583690D01*
X95033835Y-126498734D01*
X95218421Y-126375398D01*
X95375398Y-126218421D01*
X95498734Y-126033835D01*
X95583690Y-125828734D01*
X95627000Y-125611000D01*
X95627000Y-125389000D01*
X95583690Y-125171266D01*
X95498734Y-124966165D01*
X95413867Y-124839151D01*
X100273000Y-124839151D01*
X100273000Y-125080849D01*
X100320153Y-125317903D01*
X100412647Y-125541202D01*
X100546927Y-125742167D01*
X100717833Y-125913073D01*
X100918798Y-126047353D01*
X101142097Y-126139847D01*
X101379151Y-126187000D01*
X101620849Y-126187000D01*
X101857903Y-126139847D01*
X102081202Y-126047353D01*
X102282167Y-125913073D01*
X102453073Y-125742167D01*
X102587353Y-125541202D01*
X102679847Y-125317903D01*
X102727000Y-125080849D01*
X102727000Y-124839151D01*
X102679847Y-124602097D01*
X102615974Y-124447895D01*
X102759706Y-124304163D01*
X102775995Y-124290795D01*
X102789364Y-124274505D01*
X102789368Y-124274501D01*
X102829355Y-124225777D01*
X102869004Y-124151597D01*
X102869005Y-124151596D01*
X102893422Y-124071107D01*
X102899600Y-124008378D01*
X102899600Y-124008368D01*
X102901665Y-123987401D01*
X102899600Y-123966434D01*
X102899600Y-115343866D01*
X102901665Y-115322899D01*
X102899600Y-115301932D01*
X102899600Y-115301922D01*
X102893422Y-115239193D01*
X102869005Y-115158704D01*
X102842694Y-115109479D01*
X102829355Y-115084523D01*
X102789368Y-115035799D01*
X102789364Y-115035795D01*
X102775995Y-115019505D01*
X102759705Y-115006136D01*
X102044744Y-114291176D01*
X102154674Y-114217723D01*
X102297723Y-114074674D01*
X102410115Y-113906467D01*
X102487533Y-113719565D01*
X102527000Y-113521151D01*
X102527000Y-113318849D01*
X102487533Y-113120435D01*
X102410115Y-112933533D01*
X102297723Y-112765326D01*
X102154674Y-112622277D01*
X101986467Y-112509885D01*
X101799565Y-112432467D01*
X101601151Y-112393000D01*
X101398849Y-112393000D01*
X101200435Y-112432467D01*
X101013533Y-112509885D01*
X100845326Y-112622277D01*
X100702277Y-112765326D01*
X100589885Y-112933533D01*
X100512467Y-113120435D01*
X100473000Y-113318849D01*
X100473000Y-113521151D01*
X100512467Y-113719565D01*
X100589885Y-113906467D01*
X100702277Y-114074674D01*
X100845326Y-114217723D01*
X101013533Y-114330115D01*
X101071304Y-114354045D01*
X101073001Y-114371277D01*
X101073001Y-114371278D01*
X101079179Y-114434007D01*
X101092835Y-114479022D01*
X101103596Y-114514496D01*
X101143245Y-114588676D01*
X101183232Y-114637400D01*
X101183237Y-114637405D01*
X101196606Y-114653695D01*
X101212895Y-114667063D01*
X102045601Y-115499770D01*
X102045601Y-117629397D01*
X101986467Y-117589885D01*
X101799565Y-117512467D01*
X101601151Y-117473000D01*
X101398849Y-117473000D01*
X101200435Y-117512467D01*
X101013533Y-117589885D01*
X100845326Y-117702277D01*
X100702277Y-117845326D01*
X100589885Y-118013533D01*
X100512467Y-118200435D01*
X100473000Y-118398849D01*
X100473000Y-118601151D01*
X100512467Y-118799565D01*
X100589885Y-118986467D01*
X100702277Y-119154674D01*
X100845326Y-119297723D01*
X101013533Y-119410115D01*
X101200435Y-119487533D01*
X101398849Y-119527000D01*
X101601151Y-119527000D01*
X101799565Y-119487533D01*
X101986467Y-119410115D01*
X102045601Y-119370603D01*
X102045600Y-123810531D01*
X102012105Y-123844026D01*
X101857903Y-123780153D01*
X101620849Y-123733000D01*
X101379151Y-123733000D01*
X101142097Y-123780153D01*
X100918798Y-123872647D01*
X100717833Y-124006927D01*
X100546927Y-124177833D01*
X100412647Y-124378798D01*
X100320153Y-124602097D01*
X100273000Y-124839151D01*
X95413867Y-124839151D01*
X95375398Y-124781579D01*
X95218421Y-124624602D01*
X95033835Y-124501266D01*
X94828734Y-124416310D01*
X94611000Y-124373000D01*
X94389000Y-124373000D01*
X94171266Y-124416310D01*
X93966165Y-124501266D01*
X93781579Y-124624602D01*
X93624602Y-124781579D01*
X93501266Y-124966165D01*
X93416310Y-125171266D01*
X93373000Y-125389000D01*
X88927000Y-125389000D01*
X88927000Y-124542987D01*
X89033835Y-124498734D01*
X89218421Y-124375398D01*
X89375398Y-124218421D01*
X89498734Y-124033835D01*
X89583690Y-123828734D01*
X89627000Y-123611000D01*
X89627000Y-123389000D01*
X89583690Y-123171266D01*
X89498734Y-122966165D01*
X89375398Y-122781579D01*
X89218421Y-122624602D01*
X89056894Y-122516674D01*
X90614723Y-120958846D01*
X90620000Y-120959366D01*
X90703707Y-120951122D01*
X90784196Y-120926705D01*
X90858376Y-120887055D01*
X90923395Y-120833695D01*
X90976755Y-120768676D01*
X91016405Y-120694496D01*
X91040822Y-120614007D01*
X91047000Y-120551278D01*
X91047851Y-120542634D01*
X91153835Y-120498734D01*
X91338421Y-120375398D01*
X91495398Y-120218421D01*
X91618734Y-120033835D01*
X91703690Y-119828734D01*
X91747000Y-119611000D01*
X91747000Y-119389000D01*
X91703690Y-119171266D01*
X91618734Y-118966165D01*
X91495398Y-118781579D01*
X91338421Y-118624602D01*
X91153835Y-118501266D01*
X91047000Y-118457013D01*
X91047000Y-118002100D01*
X94573001Y-118002100D01*
X94573001Y-118457013D01*
X94466165Y-118501266D01*
X94281579Y-118624602D01*
X94124602Y-118781579D01*
X94001266Y-118966165D01*
X93916310Y-119171266D01*
X93873000Y-119389000D01*
X93873000Y-119611000D01*
X93916310Y-119828734D01*
X94001266Y-120033835D01*
X94124602Y-120218421D01*
X94281579Y-120375398D01*
X94466165Y-120498734D01*
X94671266Y-120583690D01*
X94889000Y-120627000D01*
X95111000Y-120627000D01*
X95328734Y-120583690D01*
X95533835Y-120498734D01*
X95718421Y-120375398D01*
X95875398Y-120218421D01*
X95998734Y-120033835D01*
X96083690Y-119828734D01*
X96127000Y-119611000D01*
X96127000Y-119389000D01*
X96373000Y-119389000D01*
X96373000Y-119611000D01*
X96416310Y-119828734D01*
X96501266Y-120033835D01*
X96624602Y-120218421D01*
X96781579Y-120375398D01*
X96966165Y-120498734D01*
X97171266Y-120583690D01*
X97389000Y-120627000D01*
X97611000Y-120627000D01*
X97828734Y-120583690D01*
X98033835Y-120498734D01*
X98218421Y-120375398D01*
X98375398Y-120218421D01*
X98498734Y-120033835D01*
X98583690Y-119828734D01*
X98627000Y-119611000D01*
X98627000Y-119389000D01*
X98583690Y-119171266D01*
X98498734Y-118966165D01*
X98375398Y-118781579D01*
X98218421Y-118624602D01*
X98033835Y-118501266D01*
X97828734Y-118416310D01*
X97611000Y-118373000D01*
X97389000Y-118373000D01*
X97171266Y-118416310D01*
X96966165Y-118501266D01*
X96781579Y-118624602D01*
X96624602Y-118781579D01*
X96501266Y-118966165D01*
X96416310Y-119171266D01*
X96373000Y-119389000D01*
X96127000Y-119389000D01*
X96083690Y-119171266D01*
X95998734Y-118966165D01*
X95875398Y-118781579D01*
X95718421Y-118624602D01*
X95533835Y-118501266D01*
X95427000Y-118457013D01*
X95427000Y-117596077D01*
X95429066Y-117575100D01*
X95427000Y-117554122D01*
X95427000Y-117176868D01*
X97064431Y-115539437D01*
X97171266Y-115583690D01*
X97389000Y-115627000D01*
X97611000Y-115627000D01*
X97828734Y-115583690D01*
X98033835Y-115498734D01*
X98218421Y-115375398D01*
X98375398Y-115218421D01*
X98498734Y-115033835D01*
X98583690Y-114828734D01*
X98627000Y-114611000D01*
X98627000Y-114389000D01*
X98583690Y-114171266D01*
X98498734Y-113966165D01*
X98375398Y-113781579D01*
X98218421Y-113624602D01*
X98033835Y-113501266D01*
X97927000Y-113457013D01*
X97927000Y-111176868D01*
X100256415Y-108847454D01*
X100445120Y-108973542D01*
X100850408Y-109141418D01*
X101280660Y-109227000D01*
X101719340Y-109227000D01*
X102149592Y-109141418D01*
X102554880Y-108973542D01*
X102919630Y-108729824D01*
X103229824Y-108419630D01*
X103473542Y-108054880D01*
X103641418Y-107649592D01*
X103727000Y-107219340D01*
X103727000Y-106780660D01*
X103641418Y-106350408D01*
X103473542Y-105945120D01*
X103229824Y-105580370D01*
X102919630Y-105270176D01*
X102554880Y-105026458D01*
X102149592Y-104858582D01*
X101719340Y-104773000D01*
X101280660Y-104773000D01*
X100850408Y-104858582D01*
X100445120Y-105026458D01*
X100080370Y-105270176D01*
X99770176Y-105580370D01*
X99526458Y-105945120D01*
X99358582Y-106350408D01*
X99273000Y-106780660D01*
X99273000Y-107219340D01*
X99358582Y-107649592D01*
X99526458Y-108054880D01*
X99652546Y-108243585D01*
X97212896Y-110683236D01*
X97196606Y-110696605D01*
X97183237Y-110712895D01*
X97183232Y-110712900D01*
X97143245Y-110761624D01*
X97103596Y-110835804D01*
X97079179Y-110916294D01*
X97070935Y-111000000D01*
X97073001Y-111020977D01*
X97073000Y-113457013D01*
X96966165Y-113501266D01*
X96781579Y-113624602D01*
X96624602Y-113781579D01*
X96501266Y-113966165D01*
X96416310Y-114171266D01*
X96373000Y-114389000D01*
X96373000Y-114611000D01*
X96416310Y-114828734D01*
X96460563Y-114935569D01*
X94712896Y-116683236D01*
X94696606Y-116696605D01*
X94683237Y-116712895D01*
X94683232Y-116712900D01*
X94643245Y-116761624D01*
X94603596Y-116835804D01*
X94579179Y-116916293D01*
X94576677Y-116941694D01*
X94570935Y-117000000D01*
X94573001Y-117020977D01*
X94573001Y-117148100D01*
X91047000Y-117148100D01*
X91047000Y-115671267D01*
X91049065Y-115650300D01*
X91047000Y-115629333D01*
X91047000Y-115629322D01*
X91040822Y-115566593D01*
X91021754Y-115503738D01*
X91033835Y-115498734D01*
X91218421Y-115375398D01*
X91375398Y-115218421D01*
X91498734Y-115033835D01*
X91583690Y-114828734D01*
X91627000Y-114611000D01*
X91627000Y-114389000D01*
X93873000Y-114389000D01*
X93873000Y-114611000D01*
X93916310Y-114828734D01*
X94001266Y-115033835D01*
X94124602Y-115218421D01*
X94281579Y-115375398D01*
X94466165Y-115498734D01*
X94671266Y-115583690D01*
X94889000Y-115627000D01*
X95111000Y-115627000D01*
X95328734Y-115583690D01*
X95533835Y-115498734D01*
X95718421Y-115375398D01*
X95875398Y-115218421D01*
X95998734Y-115033835D01*
X96083690Y-114828734D01*
X96127000Y-114611000D01*
X96127000Y-114389000D01*
X96083690Y-114171266D01*
X95998734Y-113966165D01*
X95875398Y-113781579D01*
X95718421Y-113624602D01*
X95533835Y-113501266D01*
X95328734Y-113416310D01*
X95111000Y-113373000D01*
X94889000Y-113373000D01*
X94671266Y-113416310D01*
X94466165Y-113501266D01*
X94281579Y-113624602D01*
X94124602Y-113781579D01*
X94001266Y-113966165D01*
X93916310Y-114171266D01*
X93873000Y-114389000D01*
X91627000Y-114389000D01*
X91583690Y-114171266D01*
X91498734Y-113966165D01*
X91375398Y-113781579D01*
X91218421Y-113624602D01*
X91033835Y-113501266D01*
X90828734Y-113416310D01*
X90611000Y-113373000D01*
X90389000Y-113373000D01*
X90171266Y-113416310D01*
X89966165Y-113501266D01*
X89781579Y-113624602D01*
X89624602Y-113781579D01*
X89501266Y-113966165D01*
X89416310Y-114171266D01*
X89373000Y-114389000D01*
X89373000Y-114611000D01*
X89416310Y-114828734D01*
X89501266Y-115033835D01*
X89624602Y-115218421D01*
X89781579Y-115375398D01*
X89966165Y-115498734D01*
X90072150Y-115542635D01*
X90073001Y-115551277D01*
X90073001Y-115551278D01*
X90079179Y-115614007D01*
X90091099Y-115653300D01*
X90103596Y-115694496D01*
X90143245Y-115768676D01*
X90183232Y-115817400D01*
X90183237Y-115817405D01*
X90193000Y-115829301D01*
X90193001Y-117554113D01*
X90190934Y-117575100D01*
X90193000Y-117596077D01*
X90193000Y-118457013D01*
X90086165Y-118501266D01*
X89901579Y-118624602D01*
X89744602Y-118781579D01*
X89621266Y-118966165D01*
X89536310Y-119171266D01*
X89493000Y-119389000D01*
X89493000Y-119611000D01*
X89536310Y-119828734D01*
X89621266Y-120033835D01*
X89744602Y-120218421D01*
X89901579Y-120375398D01*
X89954843Y-120410988D01*
X88212896Y-122152936D01*
X88196606Y-122166305D01*
X88183237Y-122182595D01*
X88183232Y-122182600D01*
X88143245Y-122231324D01*
X88103596Y-122305504D01*
X88079179Y-122385994D01*
X88072150Y-122457365D01*
X87966165Y-122501266D01*
X87781579Y-122624602D01*
X87624602Y-122781579D01*
X87501266Y-122966165D01*
X87416310Y-123171266D01*
X87373000Y-123389000D01*
X87373000Y-123611000D01*
X87416310Y-123828734D01*
X87501266Y-124033835D01*
X87624602Y-124218421D01*
X87781579Y-124375398D01*
X87966165Y-124498734D01*
X88073001Y-124542987D01*
X88073000Y-127979022D01*
X88070934Y-128000000D01*
X88073000Y-128020977D01*
X88073000Y-128272831D01*
X85127000Y-131218832D01*
X85127000Y-131009000D01*
X85083690Y-130791266D01*
X84998734Y-130586165D01*
X84875398Y-130401579D01*
X84718421Y-130244602D01*
X84533835Y-130121266D01*
X84328734Y-130036310D01*
X84111000Y-129993000D01*
X83889000Y-129993000D01*
X83671266Y-130036310D01*
X83466165Y-130121266D01*
X83281579Y-130244602D01*
X83124602Y-130401579D01*
X83001266Y-130586165D01*
X82916310Y-130791266D01*
X82873000Y-131009000D01*
X82873000Y-131231000D01*
X82916310Y-131448734D01*
X83001266Y-131653835D01*
X83124602Y-131838421D01*
X83281579Y-131995398D01*
X83466165Y-132118734D01*
X83671266Y-132203690D01*
X83889000Y-132247000D01*
X84098832Y-132247000D01*
X82092896Y-134252936D01*
X82076606Y-134266305D01*
X82063237Y-134282595D01*
X82063232Y-134282600D01*
X82023245Y-134331324D01*
X81983596Y-134405504D01*
X81959179Y-134485994D01*
X81951304Y-134565955D01*
X81893533Y-134589885D01*
X81725326Y-134702277D01*
X81582277Y-134845326D01*
X81558975Y-134880200D01*
X78983569Y-134880200D01*
X72261483Y-128158115D01*
X72250930Y-128105061D01*
X72212051Y-128011201D01*
X72155609Y-127926729D01*
X72106880Y-127878000D01*
X72155609Y-127829271D01*
X72212051Y-127744799D01*
X72250930Y-127650939D01*
X72270750Y-127551297D01*
X72270750Y-127449703D01*
X72250930Y-127350061D01*
X72212051Y-127256201D01*
X72155609Y-127171729D01*
X72083771Y-127099891D01*
X71999299Y-127043449D01*
X71905439Y-127004570D01*
X71805797Y-126984750D01*
X71704203Y-126984750D01*
X71604561Y-127004570D01*
X71510701Y-127043449D01*
X71426229Y-127099891D01*
X71377500Y-127148620D01*
X71328771Y-127099891D01*
X71244299Y-127043449D01*
X71150439Y-127004570D01*
X71097387Y-126994017D01*
X69316267Y-125212899D01*
X69302895Y-125196605D01*
X69237876Y-125143245D01*
X69163696Y-125103595D01*
X69083207Y-125079178D01*
X69020478Y-125073000D01*
X69020467Y-125073000D01*
X68999500Y-125070935D01*
X68978533Y-125073000D01*
X53542987Y-125073000D01*
X53498734Y-124966165D01*
X53375398Y-124781579D01*
X53218421Y-124624602D01*
X53033835Y-124501266D01*
X52828734Y-124416310D01*
X52611000Y-124373000D01*
X52389000Y-124373000D01*
X52171266Y-124416310D01*
X52064431Y-124460563D01*
X51893700Y-124289832D01*
X51893700Y-123950315D01*
X51966165Y-123998734D01*
X52171266Y-124083690D01*
X52389000Y-124127000D01*
X52611000Y-124127000D01*
X52828734Y-124083690D01*
X53033835Y-123998734D01*
X53218421Y-123875398D01*
X53375398Y-123718421D01*
X53498734Y-123533835D01*
X53583690Y-123328734D01*
X53627000Y-123111000D01*
X53627000Y-122889000D01*
X53583690Y-122671266D01*
X53539437Y-122564431D01*
X53926869Y-122177000D01*
X58229181Y-122177000D01*
X58124602Y-122281579D01*
X58001266Y-122466165D01*
X57916310Y-122671266D01*
X57873000Y-122889000D01*
X57873000Y-123111000D01*
X57916310Y-123328734D01*
X58001266Y-123533835D01*
X58124602Y-123718421D01*
X58281579Y-123875398D01*
X58466165Y-123998734D01*
X58671266Y-124083690D01*
X58889000Y-124127000D01*
X59111000Y-124127000D01*
X59328734Y-124083690D01*
X59533835Y-123998734D01*
X59718421Y-123875398D01*
X59875398Y-123718421D01*
X59998734Y-123533835D01*
X60083690Y-123328734D01*
X60127000Y-123111000D01*
X60127000Y-122889000D01*
X60083690Y-122671266D01*
X59998734Y-122466165D01*
X59875398Y-122281579D01*
X59747060Y-122153241D01*
X59769596Y-122146405D01*
X59843776Y-122106755D01*
X59908795Y-122053395D01*
X59922168Y-122037100D01*
X60207269Y-121752000D01*
X64015535Y-121752000D01*
X64099028Y-121953570D01*
X64244252Y-122170913D01*
X64429087Y-122355748D01*
X64646430Y-122500972D01*
X64887928Y-122601004D01*
X65144302Y-122652000D01*
X65405698Y-122652000D01*
X65662072Y-122601004D01*
X65903570Y-122500972D01*
X66120913Y-122355748D01*
X66305748Y-122170913D01*
X66450972Y-121953570D01*
X66551004Y-121712072D01*
X66602000Y-121455698D01*
X66602000Y-121194302D01*
X66551004Y-120937928D01*
X66450972Y-120696430D01*
X66305748Y-120479087D01*
X66120913Y-120294252D01*
X65903570Y-120149028D01*
X65662072Y-120048996D01*
X65405698Y-119998000D01*
X65144302Y-119998000D01*
X64887928Y-120048996D01*
X64646430Y-120149028D01*
X64429087Y-120294252D01*
X64244252Y-120479087D01*
X64099028Y-120696430D01*
X64015535Y-120898000D01*
X60457400Y-120898000D01*
X60457400Y-113200000D01*
X66751418Y-113200000D01*
X66751418Y-114800000D01*
X66757732Y-114864103D01*
X66776430Y-114925743D01*
X66806794Y-114982550D01*
X66847657Y-115032343D01*
X66897450Y-115073206D01*
X66954257Y-115103570D01*
X67015897Y-115122268D01*
X67080000Y-115128582D01*
X68680000Y-115128582D01*
X68744103Y-115122268D01*
X68805743Y-115103570D01*
X68862550Y-115073206D01*
X68912343Y-115032343D01*
X68953206Y-114982550D01*
X68983570Y-114925743D01*
X69002268Y-114864103D01*
X69005807Y-114828175D01*
X77964741Y-123787111D01*
X77978105Y-123803395D01*
X77994389Y-123816759D01*
X77994398Y-123816768D01*
X78043123Y-123856755D01*
X78072856Y-123872647D01*
X78117304Y-123896405D01*
X78197793Y-123920822D01*
X78260522Y-123927000D01*
X78260532Y-123927000D01*
X78281499Y-123929065D01*
X78302466Y-123927000D01*
X82957013Y-123927000D01*
X83001266Y-124033835D01*
X83124602Y-124218421D01*
X83281579Y-124375398D01*
X83466165Y-124498734D01*
X83671266Y-124583690D01*
X83889000Y-124627000D01*
X84111000Y-124627000D01*
X84328734Y-124583690D01*
X84533835Y-124498734D01*
X84718421Y-124375398D01*
X84875398Y-124218421D01*
X84998734Y-124033835D01*
X85083690Y-123828734D01*
X85127000Y-123611000D01*
X85127000Y-123389000D01*
X85083690Y-123171266D01*
X84998734Y-122966165D01*
X84875398Y-122781579D01*
X84718421Y-122624602D01*
X84533835Y-122501266D01*
X84328734Y-122416310D01*
X84111000Y-122373000D01*
X83889000Y-122373000D01*
X83671266Y-122416310D01*
X83466165Y-122501266D01*
X83281579Y-122624602D01*
X83124602Y-122781579D01*
X83001266Y-122966165D01*
X82957013Y-123073000D01*
X78458370Y-123073000D01*
X78037370Y-122652000D01*
X78105698Y-122652000D01*
X78362072Y-122601004D01*
X78603570Y-122500972D01*
X78820913Y-122355748D01*
X79005748Y-122170913D01*
X79150972Y-121953570D01*
X79251004Y-121712072D01*
X79302000Y-121455698D01*
X79302000Y-121194302D01*
X79251004Y-120937928D01*
X79150972Y-120696430D01*
X79005748Y-120479087D01*
X78820913Y-120294252D01*
X78603570Y-120149028D01*
X78401159Y-120065187D01*
X78395822Y-120010993D01*
X78371405Y-119930504D01*
X78371405Y-119930503D01*
X78331756Y-119856324D01*
X78291768Y-119807599D01*
X78291764Y-119807595D01*
X78278395Y-119791305D01*
X78262105Y-119777936D01*
X77873169Y-119389000D01*
X81873000Y-119389000D01*
X81873000Y-119611000D01*
X81916310Y-119828734D01*
X82001266Y-120033835D01*
X82124602Y-120218421D01*
X82281579Y-120375398D01*
X82466165Y-120498734D01*
X82671266Y-120583690D01*
X82889000Y-120627000D01*
X83111000Y-120627000D01*
X83328734Y-120583690D01*
X83533835Y-120498734D01*
X83718421Y-120375398D01*
X83875398Y-120218421D01*
X83998734Y-120033835D01*
X84083690Y-119828734D01*
X84127000Y-119611000D01*
X84127000Y-119389000D01*
X84083690Y-119171266D01*
X83998734Y-118966165D01*
X83875398Y-118781579D01*
X83718421Y-118624602D01*
X83533835Y-118501266D01*
X83328734Y-118416310D01*
X83111000Y-118373000D01*
X82889000Y-118373000D01*
X82671266Y-118416310D01*
X82466165Y-118501266D01*
X82281579Y-118624602D01*
X82124602Y-118781579D01*
X82001266Y-118966165D01*
X81916310Y-119171266D01*
X81873000Y-119389000D01*
X77873169Y-119389000D01*
X75927000Y-117442832D01*
X75927000Y-115042987D01*
X76033835Y-114998734D01*
X76218421Y-114875398D01*
X76375398Y-114718421D01*
X76498734Y-114533835D01*
X76558726Y-114389000D01*
X81753000Y-114389000D01*
X81753000Y-114611000D01*
X81796310Y-114828734D01*
X81881266Y-115033835D01*
X82004602Y-115218421D01*
X82161579Y-115375398D01*
X82346165Y-115498734D01*
X82551266Y-115583690D01*
X82769000Y-115627000D01*
X82991000Y-115627000D01*
X83208734Y-115583690D01*
X83413835Y-115498734D01*
X83598421Y-115375398D01*
X83755398Y-115218421D01*
X83878734Y-115033835D01*
X83963690Y-114828734D01*
X84007000Y-114611000D01*
X84007000Y-114389000D01*
X83963690Y-114171266D01*
X83878734Y-113966165D01*
X83755398Y-113781579D01*
X83598421Y-113624602D01*
X83413835Y-113501266D01*
X83208734Y-113416310D01*
X82991000Y-113373000D01*
X82769000Y-113373000D01*
X82551266Y-113416310D01*
X82346165Y-113501266D01*
X82161579Y-113624602D01*
X82004602Y-113781579D01*
X81881266Y-113966165D01*
X81796310Y-114171266D01*
X81753000Y-114389000D01*
X76558726Y-114389000D01*
X76583690Y-114328734D01*
X76627000Y-114111000D01*
X76627000Y-113889000D01*
X76583690Y-113671266D01*
X76498734Y-113466165D01*
X76375398Y-113281579D01*
X76218421Y-113124602D01*
X76033835Y-113001266D01*
X75828734Y-112916310D01*
X75611000Y-112873000D01*
X75389000Y-112873000D01*
X75171266Y-112916310D01*
X74966165Y-113001266D01*
X74781579Y-113124602D01*
X74624602Y-113281579D01*
X74501266Y-113466165D01*
X74416310Y-113671266D01*
X74373000Y-113889000D01*
X74373000Y-114111000D01*
X74416310Y-114328734D01*
X74501266Y-114533835D01*
X74624602Y-114718421D01*
X74781579Y-114875398D01*
X74966165Y-114998734D01*
X75073001Y-115042987D01*
X75073000Y-117598733D01*
X75070935Y-117619700D01*
X75073000Y-117640667D01*
X75073000Y-117640677D01*
X75079178Y-117703406D01*
X75103595Y-117783895D01*
X75103596Y-117783896D01*
X75143245Y-117858076D01*
X75160003Y-117878495D01*
X75196605Y-117923095D01*
X75212900Y-117936468D01*
X77402312Y-120125881D01*
X77346430Y-120149028D01*
X77129087Y-120294252D01*
X76944252Y-120479087D01*
X76799028Y-120696430D01*
X76698996Y-120937928D01*
X76648000Y-121194302D01*
X76648000Y-121262630D01*
X69334340Y-113948972D01*
X69331122Y-113916293D01*
X69306705Y-113835804D01*
X69267055Y-113761624D01*
X69213695Y-113696605D01*
X69148676Y-113643245D01*
X69074496Y-113603595D01*
X69008582Y-113583599D01*
X69008582Y-113200000D01*
X69002268Y-113135897D01*
X68983570Y-113074257D01*
X68953206Y-113017450D01*
X68912343Y-112967657D01*
X68862550Y-112926794D01*
X68805743Y-112896430D01*
X68744103Y-112877732D01*
X68680000Y-112871418D01*
X67080000Y-112871418D01*
X67015897Y-112877732D01*
X66954257Y-112896430D01*
X66897450Y-112926794D01*
X66847657Y-112967657D01*
X66806794Y-113017450D01*
X66776430Y-113074257D01*
X66757732Y-113135897D01*
X66751418Y-113200000D01*
X60457400Y-113200000D01*
X60457400Y-104200000D01*
X64371418Y-104200000D01*
X64371418Y-105800000D01*
X64377732Y-105864103D01*
X64396430Y-105925743D01*
X64426794Y-105982550D01*
X64467657Y-106032343D01*
X64517450Y-106073206D01*
X64574257Y-106103570D01*
X64635897Y-106122268D01*
X64700000Y-106128582D01*
X66300000Y-106128582D01*
X66364103Y-106122268D01*
X66425743Y-106103570D01*
X66482550Y-106073206D01*
X66532343Y-106032343D01*
X66573206Y-105982550D01*
X66603570Y-105925743D01*
X66622268Y-105864103D01*
X66628582Y-105800000D01*
X66628582Y-104552450D01*
X69607489Y-107531358D01*
X69523996Y-107732928D01*
X69473000Y-107989302D01*
X69473000Y-108250698D01*
X69523996Y-108507072D01*
X69624028Y-108748570D01*
X69769252Y-108965913D01*
X69954087Y-109150748D01*
X70171430Y-109295972D01*
X70412928Y-109396004D01*
X70669302Y-109447000D01*
X70930698Y-109447000D01*
X71187072Y-109396004D01*
X71428570Y-109295972D01*
X71645913Y-109150748D01*
X71830748Y-108965913D01*
X71975972Y-108748570D01*
X72076004Y-108507072D01*
X72127000Y-108250698D01*
X72127000Y-107989302D01*
X82173000Y-107989302D01*
X82173000Y-108250698D01*
X82223996Y-108507072D01*
X82324028Y-108748570D01*
X82469252Y-108965913D01*
X82654087Y-109150748D01*
X82871430Y-109295972D01*
X83112928Y-109396004D01*
X83369302Y-109447000D01*
X83630698Y-109447000D01*
X83887072Y-109396004D01*
X84128570Y-109295972D01*
X84345913Y-109150748D01*
X84530748Y-108965913D01*
X84675972Y-108748570D01*
X84776004Y-108507072D01*
X84827000Y-108250698D01*
X84827000Y-107989302D01*
X84776004Y-107732928D01*
X84692511Y-107531358D01*
X87912265Y-104311604D01*
X87873000Y-104509000D01*
X87873000Y-104731000D01*
X87916310Y-104948734D01*
X88001266Y-105153835D01*
X88124602Y-105338421D01*
X88281579Y-105495398D01*
X88466165Y-105618734D01*
X88671266Y-105703690D01*
X88889000Y-105747000D01*
X89111000Y-105747000D01*
X89328734Y-105703690D01*
X89533835Y-105618734D01*
X89718421Y-105495398D01*
X89875398Y-105338421D01*
X89998734Y-105153835D01*
X90083690Y-104948734D01*
X90127000Y-104731000D01*
X90127000Y-104509000D01*
X90083690Y-104291266D01*
X89998734Y-104086165D01*
X89875398Y-103901579D01*
X89718421Y-103744602D01*
X89533835Y-103621266D01*
X89328734Y-103536310D01*
X89111000Y-103493000D01*
X88889000Y-103493000D01*
X88691604Y-103532265D01*
X92943209Y-99280660D01*
X99273000Y-99280660D01*
X99273000Y-99719340D01*
X99358582Y-100149592D01*
X99526458Y-100554880D01*
X99770176Y-100919630D01*
X100080370Y-101229824D01*
X100445120Y-101473542D01*
X100850408Y-101641418D01*
X101280660Y-101727000D01*
X101719340Y-101727000D01*
X102149592Y-101641418D01*
X102554880Y-101473542D01*
X102919630Y-101229824D01*
X103229824Y-100919630D01*
X103473542Y-100554880D01*
X103641418Y-100149592D01*
X103727000Y-99719340D01*
X103727000Y-99280660D01*
X103641418Y-98850408D01*
X103473542Y-98445120D01*
X103229824Y-98080370D01*
X102919630Y-97770176D01*
X102554880Y-97526458D01*
X102149592Y-97358582D01*
X101719340Y-97273000D01*
X101280660Y-97273000D01*
X100850408Y-97358582D01*
X100445120Y-97526458D01*
X100080370Y-97770176D01*
X99770176Y-98080370D01*
X99526458Y-98445120D01*
X99358582Y-98850408D01*
X99273000Y-99280660D01*
X92943209Y-99280660D01*
X99583548Y-92640321D01*
X99770176Y-92919630D01*
X100080370Y-93229824D01*
X100445120Y-93473542D01*
X100850408Y-93641418D01*
X101280660Y-93727000D01*
X101719340Y-93727000D01*
X102149592Y-93641418D01*
X102554880Y-93473542D01*
X102919630Y-93229824D01*
X103229824Y-92919630D01*
X103473542Y-92554880D01*
X103641418Y-92149592D01*
X103727000Y-91719340D01*
X103727000Y-91280660D01*
X103641418Y-90850408D01*
X103473542Y-90445120D01*
X103229824Y-90080370D01*
X102919630Y-89770176D01*
X102554880Y-89526458D01*
X102149592Y-89358582D01*
X101719340Y-89273000D01*
X101280660Y-89273000D01*
X100850408Y-89358582D01*
X100445120Y-89526458D01*
X100080370Y-89770176D01*
X99770176Y-90080370D01*
X99526458Y-90445120D01*
X99358582Y-90850408D01*
X99273000Y-91280660D01*
X99273000Y-91719340D01*
X99276947Y-91739184D01*
X84088642Y-106927489D01*
X83887072Y-106843996D01*
X83630698Y-106793000D01*
X83369302Y-106793000D01*
X83112928Y-106843996D01*
X82871430Y-106944028D01*
X82654087Y-107089252D01*
X82469252Y-107274087D01*
X82324028Y-107491430D01*
X82223996Y-107732928D01*
X82173000Y-107989302D01*
X72127000Y-107989302D01*
X72076004Y-107732928D01*
X71975972Y-107491430D01*
X71830748Y-107274087D01*
X71645913Y-107089252D01*
X71428570Y-106944028D01*
X71187072Y-106843996D01*
X70930698Y-106793000D01*
X70669302Y-106793000D01*
X70412928Y-106843996D01*
X70211358Y-106927489D01*
X66487068Y-103203200D01*
X66473695Y-103186905D01*
X66408676Y-103133545D01*
X66406250Y-103132248D01*
X66498734Y-102993835D01*
X66583690Y-102788734D01*
X66627000Y-102571000D01*
X66627000Y-102349000D01*
X66583690Y-102131266D01*
X66498734Y-101926165D01*
X66375398Y-101741579D01*
X66218421Y-101584602D01*
X66033835Y-101461266D01*
X65828734Y-101376310D01*
X65611000Y-101333000D01*
X65389000Y-101333000D01*
X65171266Y-101376310D01*
X64966165Y-101461266D01*
X64781579Y-101584602D01*
X64624602Y-101741579D01*
X64501266Y-101926165D01*
X64416310Y-102131266D01*
X64373000Y-102349000D01*
X64373000Y-102571000D01*
X64416310Y-102788734D01*
X64501266Y-102993835D01*
X64624602Y-103178421D01*
X64781579Y-103335398D01*
X64966165Y-103458734D01*
X65072149Y-103502634D01*
X65079178Y-103574007D01*
X65103595Y-103654496D01*
X65143245Y-103728676D01*
X65196605Y-103793695D01*
X65261624Y-103847055D01*
X65307204Y-103871418D01*
X64700000Y-103871418D01*
X64635897Y-103877732D01*
X64574257Y-103896430D01*
X64517450Y-103926794D01*
X64467657Y-103967657D01*
X64426794Y-104017450D01*
X64396430Y-104074257D01*
X64377732Y-104135897D01*
X64371418Y-104200000D01*
X60457400Y-104200000D01*
X60457400Y-103121667D01*
X60459465Y-103100700D01*
X60457400Y-103079733D01*
X60457400Y-103079722D01*
X60451222Y-103016993D01*
X60426805Y-102936504D01*
X60387156Y-102862325D01*
X60387155Y-102862323D01*
X60347168Y-102813599D01*
X60347164Y-102813595D01*
X60333795Y-102797305D01*
X60317506Y-102783937D01*
X58436894Y-100903326D01*
X58598421Y-100795398D01*
X58755398Y-100638421D01*
X58878734Y-100453835D01*
X58963690Y-100248734D01*
X59007000Y-100031000D01*
X59007000Y-99809000D01*
X58963690Y-99591266D01*
X58878734Y-99386165D01*
X58755398Y-99201579D01*
X58598421Y-99044602D01*
X58413835Y-98921266D01*
X58208734Y-98836310D01*
X57991000Y-98793000D01*
X57769000Y-98793000D01*
X57551266Y-98836310D01*
X57346165Y-98921266D01*
X57161579Y-99044602D01*
X57004602Y-99201579D01*
X56881266Y-99386165D01*
X56796310Y-99591266D01*
X56753000Y-99809000D01*
X56753000Y-100031000D01*
X56796310Y-100248734D01*
X56881266Y-100453835D01*
X57004602Y-100638421D01*
X57161579Y-100795398D01*
X57346165Y-100918734D01*
X57452150Y-100962635D01*
X57459179Y-101034006D01*
X57483596Y-101114496D01*
X57523245Y-101188676D01*
X57563232Y-101237400D01*
X57563237Y-101237405D01*
X57576606Y-101253695D01*
X57592896Y-101267064D01*
X57677110Y-101351278D01*
X57551266Y-101376310D01*
X57346165Y-101461266D01*
X57161579Y-101584602D01*
X57004602Y-101741579D01*
X56881266Y-101926165D01*
X56796310Y-102131266D01*
X56753000Y-102349000D01*
X56753000Y-102571000D01*
X56796310Y-102788734D01*
X56881266Y-102993835D01*
X57004602Y-103178421D01*
X57161579Y-103335398D01*
X57346165Y-103458734D01*
X57551266Y-103543690D01*
X57769000Y-103587000D01*
X57991000Y-103587000D01*
X58208734Y-103543690D01*
X58413835Y-103458734D01*
X58598421Y-103335398D01*
X58755398Y-103178421D01*
X58878734Y-102993835D01*
X58963690Y-102788734D01*
X58988722Y-102662890D01*
X59603400Y-103277569D01*
X59603401Y-114047748D01*
X59533835Y-114001266D01*
X59328734Y-113916310D01*
X59111000Y-113873000D01*
X58889000Y-113873000D01*
X58671266Y-113916310D01*
X58523779Y-113977401D01*
X58463707Y-113959178D01*
X58400978Y-113953000D01*
X58400967Y-113953000D01*
X58380000Y-113950935D01*
X58359033Y-113953000D01*
X56047000Y-113953000D01*
X56047000Y-110042987D01*
X56153835Y-109998734D01*
X56338421Y-109875398D01*
X56495398Y-109718421D01*
X56618734Y-109533835D01*
X56703690Y-109328734D01*
X56747000Y-109111000D01*
X56747000Y-108889000D01*
X56703690Y-108671266D01*
X56618734Y-108466165D01*
X56495398Y-108281579D01*
X56338421Y-108124602D01*
X56153835Y-108001266D01*
X55948734Y-107916310D01*
X55731000Y-107873000D01*
X55509000Y-107873000D01*
X55291266Y-107916310D01*
X55086165Y-108001266D01*
X54901579Y-108124602D01*
X54744602Y-108281579D01*
X54621266Y-108466165D01*
X54536310Y-108671266D01*
X54493000Y-108889000D01*
X54493000Y-109111000D01*
X54536310Y-109328734D01*
X54621266Y-109533835D01*
X54744602Y-109718421D01*
X54901579Y-109875398D01*
X55086165Y-109998734D01*
X55193000Y-110042987D01*
X55193001Y-114203129D01*
X52935569Y-116460563D01*
X52828734Y-116416310D01*
X52611000Y-116373000D01*
X52389000Y-116373000D01*
X52171266Y-116416310D01*
X51966165Y-116501266D01*
X51781579Y-116624602D01*
X51624602Y-116781579D01*
X51501266Y-116966165D01*
X51416310Y-117171266D01*
X51373000Y-117389000D01*
X51373000Y-117611000D01*
X51416310Y-117828734D01*
X51501266Y-118033835D01*
X51624602Y-118218421D01*
X51781579Y-118375398D01*
X51966165Y-118498734D01*
X52073001Y-118542987D01*
X52073000Y-119457013D01*
X51966165Y-119501266D01*
X51781579Y-119624602D01*
X51624602Y-119781579D01*
X51501266Y-119966165D01*
X51416310Y-120171266D01*
X51373000Y-120389000D01*
X51373000Y-120611000D01*
X51416310Y-120828734D01*
X51460563Y-120935569D01*
X51179600Y-121216532D01*
X51163305Y-121229905D01*
X51149933Y-121246199D01*
X51149932Y-121246200D01*
X51109945Y-121294924D01*
X51091636Y-121329178D01*
X51070295Y-121369105D01*
X51045878Y-121449594D01*
X51039700Y-121512323D01*
X51039700Y-121512333D01*
X51037635Y-121533300D01*
X48322951Y-121533300D01*
X48300743Y-121521430D01*
X48239103Y-121502732D01*
X48199716Y-121498852D01*
X48867406Y-120831163D01*
X48883695Y-120817795D01*
X48897064Y-120801505D01*
X48897068Y-120801501D01*
X48937055Y-120752777D01*
X48958248Y-120713127D01*
X48976705Y-120678596D01*
X49001122Y-120598107D01*
X49007300Y-120535378D01*
X49007300Y-120535367D01*
X49009365Y-120514400D01*
X49007300Y-120493433D01*
X49007300Y-117202268D01*
X50782570Y-115427000D01*
X51457013Y-115427000D01*
X51501266Y-115533835D01*
X51624602Y-115718421D01*
X51781579Y-115875398D01*
X51966165Y-115998734D01*
X52171266Y-116083690D01*
X52389000Y-116127000D01*
X52611000Y-116127000D01*
X52828734Y-116083690D01*
X53033835Y-115998734D01*
X53218421Y-115875398D01*
X53375398Y-115718421D01*
X53498734Y-115533835D01*
X53583690Y-115328734D01*
X53627000Y-115111000D01*
X53627000Y-114889000D01*
X53583690Y-114671266D01*
X53498734Y-114466165D01*
X53375398Y-114281579D01*
X53218421Y-114124602D01*
X53033835Y-114001266D01*
X52828734Y-113916310D01*
X52611000Y-113873000D01*
X52389000Y-113873000D01*
X52171266Y-113916310D01*
X51966165Y-114001266D01*
X51781579Y-114124602D01*
X51624602Y-114281579D01*
X51501266Y-114466165D01*
X51457013Y-114573000D01*
X50626666Y-114573000D01*
X50605699Y-114570935D01*
X50584732Y-114573000D01*
X50584722Y-114573000D01*
X50521993Y-114579178D01*
X50441504Y-114603595D01*
X50413851Y-114618376D01*
X50367323Y-114643245D01*
X50318598Y-114683232D01*
X50318589Y-114683241D01*
X50302305Y-114696605D01*
X50288941Y-114712889D01*
X48580301Y-116421531D01*
X48337351Y-116178582D01*
X48350000Y-116178582D01*
X48414103Y-116172268D01*
X48475743Y-116153570D01*
X48532550Y-116123206D01*
X48582343Y-116082343D01*
X48623206Y-116032550D01*
X48653570Y-115975743D01*
X48672268Y-115914103D01*
X48678582Y-115850000D01*
X48678582Y-114150000D01*
X48672268Y-114085897D01*
X48653570Y-114024257D01*
X48623206Y-113967450D01*
X48582343Y-113917657D01*
X48532550Y-113876794D01*
X48475743Y-113846430D01*
X48414103Y-113827732D01*
X48350000Y-113821418D01*
X46650000Y-113821418D01*
X46585897Y-113827732D01*
X46524257Y-113846430D01*
X46467450Y-113876794D01*
X46417657Y-113917657D01*
X46376794Y-113967450D01*
X46346430Y-114024257D01*
X46327732Y-114085897D01*
X46321418Y-114150000D01*
X41352000Y-114150000D01*
X41352000Y-101805660D01*
X45598000Y-101805660D01*
X45598000Y-102244340D01*
X45683582Y-102674592D01*
X45851458Y-103079880D01*
X46095176Y-103444630D01*
X46405370Y-103754824D01*
X46770120Y-103998542D01*
X47175408Y-104166418D01*
X47605660Y-104252000D01*
X48044340Y-104252000D01*
X48474592Y-104166418D01*
X48879880Y-103998542D01*
X49244630Y-103754824D01*
X49554824Y-103444630D01*
X49798542Y-103079880D01*
X49966418Y-102674592D01*
X50052000Y-102244340D01*
X50052000Y-101805660D01*
X49966418Y-101375408D01*
X49798542Y-100970120D01*
X49672453Y-100781415D01*
X50769705Y-99684164D01*
X50785995Y-99670795D01*
X50799364Y-99654505D01*
X50799368Y-99654501D01*
X50839355Y-99605777D01*
X50879004Y-99531597D01*
X50879005Y-99531596D01*
X50903422Y-99451107D01*
X50909600Y-99388378D01*
X50909600Y-99388367D01*
X50911665Y-99367400D01*
X50909600Y-99346433D01*
X50909600Y-96295001D01*
X50916310Y-96328734D01*
X51001266Y-96533835D01*
X51124602Y-96718421D01*
X51281579Y-96875398D01*
X51466165Y-96998734D01*
X51573000Y-97042987D01*
X51573001Y-104823129D01*
X48435569Y-107960563D01*
X48328734Y-107916310D01*
X48111000Y-107873000D01*
X47889000Y-107873000D01*
X47671266Y-107916310D01*
X47466165Y-108001266D01*
X47281579Y-108124602D01*
X47124602Y-108281579D01*
X47001266Y-108466165D01*
X46916310Y-108671266D01*
X46873000Y-108889000D01*
X46873000Y-109111000D01*
X46916310Y-109328734D01*
X47001266Y-109533835D01*
X47124602Y-109718421D01*
X47281579Y-109875398D01*
X47466165Y-109998734D01*
X47671266Y-110083690D01*
X47889000Y-110127000D01*
X48111000Y-110127000D01*
X48328734Y-110083690D01*
X48533835Y-109998734D01*
X48718421Y-109875398D01*
X48875398Y-109718421D01*
X48998734Y-109533835D01*
X49083690Y-109328734D01*
X49127000Y-109111000D01*
X49127000Y-108889000D01*
X49083690Y-108671266D01*
X49039437Y-108564431D01*
X52287111Y-105316759D01*
X52303395Y-105303395D01*
X52316759Y-105287111D01*
X52316768Y-105287102D01*
X52356755Y-105238377D01*
X52396404Y-105164197D01*
X52396405Y-105164196D01*
X52420822Y-105083707D01*
X52427000Y-105020978D01*
X52427000Y-105020966D01*
X52429065Y-105000001D01*
X52427000Y-104979036D01*
X52427000Y-104889000D01*
X56753000Y-104889000D01*
X56753000Y-105111000D01*
X56796310Y-105328734D01*
X56881266Y-105533835D01*
X57004602Y-105718421D01*
X57161579Y-105875398D01*
X57346165Y-105998734D01*
X57551266Y-106083690D01*
X57769000Y-106127000D01*
X57991000Y-106127000D01*
X58208734Y-106083690D01*
X58413835Y-105998734D01*
X58598421Y-105875398D01*
X58755398Y-105718421D01*
X58878734Y-105533835D01*
X58963690Y-105328734D01*
X59007000Y-105111000D01*
X59007000Y-104889000D01*
X58963690Y-104671266D01*
X58878734Y-104466165D01*
X58755398Y-104281579D01*
X58598421Y-104124602D01*
X58413835Y-104001266D01*
X58208734Y-103916310D01*
X57991000Y-103873000D01*
X57769000Y-103873000D01*
X57551266Y-103916310D01*
X57346165Y-104001266D01*
X57161579Y-104124602D01*
X57004602Y-104281579D01*
X56881266Y-104466165D01*
X56796310Y-104671266D01*
X56753000Y-104889000D01*
X52427000Y-104889000D01*
X52427000Y-97269000D01*
X56753000Y-97269000D01*
X56753000Y-97491000D01*
X56796310Y-97708734D01*
X56881266Y-97913835D01*
X57004602Y-98098421D01*
X57161579Y-98255398D01*
X57346165Y-98378734D01*
X57551266Y-98463690D01*
X57769000Y-98507000D01*
X57991000Y-98507000D01*
X58208734Y-98463690D01*
X58413835Y-98378734D01*
X58598421Y-98255398D01*
X58755398Y-98098421D01*
X58878734Y-97913835D01*
X58963690Y-97708734D01*
X59007000Y-97491000D01*
X59007000Y-97269000D01*
X58963690Y-97051266D01*
X58878734Y-96846165D01*
X58755398Y-96661579D01*
X58598421Y-96504602D01*
X58413835Y-96381266D01*
X58208734Y-96296310D01*
X57991000Y-96253000D01*
X57769000Y-96253000D01*
X57551266Y-96296310D01*
X57346165Y-96381266D01*
X57161579Y-96504602D01*
X57004602Y-96661579D01*
X56881266Y-96846165D01*
X56796310Y-97051266D01*
X56753000Y-97269000D01*
X52427000Y-97269000D01*
X52427000Y-97042987D01*
X52533835Y-96998734D01*
X52718421Y-96875398D01*
X52875398Y-96718421D01*
X52998734Y-96533835D01*
X53083690Y-96328734D01*
X53127000Y-96111000D01*
X53127000Y-95889000D01*
X53083690Y-95671266D01*
X52998734Y-95466165D01*
X52875398Y-95281579D01*
X52718421Y-95124602D01*
X52533835Y-95001266D01*
X52328734Y-94916310D01*
X52111000Y-94873000D01*
X51889000Y-94873000D01*
X51671266Y-94916310D01*
X51466165Y-95001266D01*
X51281579Y-95124602D01*
X51124602Y-95281579D01*
X51001266Y-95466165D01*
X50916310Y-95671266D01*
X50909600Y-95704999D01*
X50909600Y-92694268D01*
X51564431Y-92039437D01*
X51671266Y-92083690D01*
X51889000Y-92127000D01*
X52111000Y-92127000D01*
X52328734Y-92083690D01*
X52533835Y-91998734D01*
X52718421Y-91875398D01*
X52875398Y-91718421D01*
X52998734Y-91533835D01*
X53083690Y-91328734D01*
X53127000Y-91111000D01*
X53127000Y-90889000D01*
X53373000Y-90889000D01*
X53373000Y-91111000D01*
X53416310Y-91328734D01*
X53501266Y-91533835D01*
X53624602Y-91718421D01*
X53781579Y-91875398D01*
X53966165Y-91998734D01*
X54073000Y-92042987D01*
X54073001Y-94957013D01*
X53966165Y-95001266D01*
X53781579Y-95124602D01*
X53624602Y-95281579D01*
X53501266Y-95466165D01*
X53416310Y-95671266D01*
X53373000Y-95889000D01*
X53373000Y-96111000D01*
X53416310Y-96328734D01*
X53501266Y-96533835D01*
X53624602Y-96718421D01*
X53781579Y-96875398D01*
X53966165Y-96998734D01*
X54171266Y-97083690D01*
X54389000Y-97127000D01*
X54611000Y-97127000D01*
X54828734Y-97083690D01*
X55033835Y-96998734D01*
X55218421Y-96875398D01*
X55375398Y-96718421D01*
X55498734Y-96533835D01*
X55583690Y-96328734D01*
X55627000Y-96111000D01*
X55627000Y-95889000D01*
X55583690Y-95671266D01*
X55498734Y-95466165D01*
X55375398Y-95281579D01*
X55218421Y-95124602D01*
X55033835Y-95001266D01*
X54927000Y-94957013D01*
X54927000Y-92042987D01*
X55033835Y-91998734D01*
X55218421Y-91875398D01*
X55375398Y-91718421D01*
X55498734Y-91533835D01*
X55583690Y-91328734D01*
X55627000Y-91111000D01*
X55627000Y-90889000D01*
X55583690Y-90671266D01*
X55498734Y-90466165D01*
X55375398Y-90281579D01*
X55243819Y-90150000D01*
X57821418Y-90150000D01*
X57821418Y-91850000D01*
X57827732Y-91914103D01*
X57846430Y-91975743D01*
X57876794Y-92032550D01*
X57917657Y-92082343D01*
X57967450Y-92123206D01*
X58024257Y-92153570D01*
X58085897Y-92172268D01*
X58150000Y-92178582D01*
X59850000Y-92178582D01*
X59914103Y-92172268D01*
X59975743Y-92153570D01*
X60032550Y-92123206D01*
X60082343Y-92082343D01*
X60123206Y-92032550D01*
X60153570Y-91975743D01*
X60172268Y-91914103D01*
X60178582Y-91850000D01*
X60178582Y-90884076D01*
X60363000Y-90884076D01*
X60363000Y-91115924D01*
X60408231Y-91343318D01*
X60496956Y-91557519D01*
X60625764Y-91750294D01*
X60789706Y-91914236D01*
X60982481Y-92043044D01*
X61113000Y-92097107D01*
X61113001Y-94908723D01*
X61110935Y-94929700D01*
X61119179Y-95013406D01*
X61143596Y-95093896D01*
X61183245Y-95168076D01*
X61223232Y-95216800D01*
X61223237Y-95216805D01*
X61236606Y-95233095D01*
X61252896Y-95246464D01*
X64943105Y-98936674D01*
X64781579Y-99044602D01*
X64624602Y-99201579D01*
X64501266Y-99386165D01*
X64416310Y-99591266D01*
X64373000Y-99809000D01*
X64373000Y-100031000D01*
X64416310Y-100248734D01*
X64501266Y-100453835D01*
X64624602Y-100638421D01*
X64781579Y-100795398D01*
X64966165Y-100918734D01*
X65171266Y-101003690D01*
X65389000Y-101047000D01*
X65611000Y-101047000D01*
X65828734Y-101003690D01*
X66033835Y-100918734D01*
X66218421Y-100795398D01*
X66375398Y-100638421D01*
X66498734Y-100453835D01*
X66533748Y-100369302D01*
X69473000Y-100369302D01*
X69473000Y-100630698D01*
X69523996Y-100887072D01*
X69624028Y-101128570D01*
X69769252Y-101345913D01*
X69954087Y-101530748D01*
X70171430Y-101675972D01*
X70412928Y-101776004D01*
X70669302Y-101827000D01*
X70930698Y-101827000D01*
X71187072Y-101776004D01*
X71428570Y-101675972D01*
X71645913Y-101530748D01*
X71830748Y-101345913D01*
X71975972Y-101128570D01*
X72076004Y-100887072D01*
X72127000Y-100630698D01*
X72127000Y-100369302D01*
X82173000Y-100369302D01*
X82173000Y-100630698D01*
X82223996Y-100887072D01*
X82324028Y-101128570D01*
X82469252Y-101345913D01*
X82654087Y-101530748D01*
X82871430Y-101675972D01*
X83112928Y-101776004D01*
X83369302Y-101827000D01*
X83630698Y-101827000D01*
X83887072Y-101776004D01*
X84128570Y-101675972D01*
X84345913Y-101530748D01*
X84530748Y-101345913D01*
X84675972Y-101128570D01*
X84776004Y-100887072D01*
X84827000Y-100630698D01*
X84827000Y-100369302D01*
X84776004Y-100112928D01*
X84675972Y-99871430D01*
X84530748Y-99654087D01*
X84345913Y-99469252D01*
X84128570Y-99324028D01*
X83887072Y-99223996D01*
X83630698Y-99173000D01*
X83369302Y-99173000D01*
X83112928Y-99223996D01*
X82871430Y-99324028D01*
X82654087Y-99469252D01*
X82469252Y-99654087D01*
X82324028Y-99871430D01*
X82223996Y-100112928D01*
X82173000Y-100369302D01*
X72127000Y-100369302D01*
X72076004Y-100112928D01*
X71975972Y-99871430D01*
X71830748Y-99654087D01*
X71645913Y-99469252D01*
X71428570Y-99324028D01*
X71187072Y-99223996D01*
X70930698Y-99173000D01*
X70669302Y-99173000D01*
X70412928Y-99223996D01*
X70171430Y-99324028D01*
X69954087Y-99469252D01*
X69769252Y-99654087D01*
X69624028Y-99871430D01*
X69523996Y-100112928D01*
X69473000Y-100369302D01*
X66533748Y-100369302D01*
X66583690Y-100248734D01*
X66627000Y-100031000D01*
X66627000Y-99809000D01*
X66583690Y-99591266D01*
X66498734Y-99386165D01*
X66375398Y-99201579D01*
X66218421Y-99044602D01*
X66033835Y-98921266D01*
X65927850Y-98877365D01*
X65927000Y-98868733D01*
X65927000Y-98868722D01*
X65920822Y-98805993D01*
X65896405Y-98725504D01*
X65887176Y-98708238D01*
X65856756Y-98651323D01*
X65816768Y-98602599D01*
X65816764Y-98602595D01*
X65803395Y-98586305D01*
X65787105Y-98572936D01*
X65702891Y-98488722D01*
X65828734Y-98463690D01*
X66033835Y-98378734D01*
X66218421Y-98255398D01*
X66375398Y-98098421D01*
X66498734Y-97913835D01*
X66583690Y-97708734D01*
X66627000Y-97491000D01*
X66627000Y-97269000D01*
X66583690Y-97051266D01*
X66516477Y-96889000D01*
X87873000Y-96889000D01*
X87873000Y-97111000D01*
X87916310Y-97328734D01*
X88001266Y-97533835D01*
X88124602Y-97718421D01*
X88281579Y-97875398D01*
X88466165Y-97998734D01*
X88671266Y-98083690D01*
X88889000Y-98127000D01*
X89111000Y-98127000D01*
X89328734Y-98083690D01*
X89533835Y-97998734D01*
X89718421Y-97875398D01*
X89875398Y-97718421D01*
X89998734Y-97533835D01*
X90083690Y-97328734D01*
X90127000Y-97111000D01*
X90127000Y-96889000D01*
X90083690Y-96671266D01*
X89998734Y-96466165D01*
X89875398Y-96281579D01*
X89718421Y-96124602D01*
X89533835Y-96001266D01*
X89328734Y-95916310D01*
X89111000Y-95873000D01*
X88889000Y-95873000D01*
X88671266Y-95916310D01*
X88466165Y-96001266D01*
X88281579Y-96124602D01*
X88124602Y-96281579D01*
X88001266Y-96466165D01*
X87916310Y-96671266D01*
X87873000Y-96889000D01*
X66516477Y-96889000D01*
X66498734Y-96846165D01*
X66375398Y-96661579D01*
X66218421Y-96504602D01*
X66033835Y-96381266D01*
X65927850Y-96337365D01*
X65927000Y-96328734D01*
X65927000Y-96328722D01*
X65920822Y-96265993D01*
X65896405Y-96185504D01*
X65877948Y-96150973D01*
X65856755Y-96111323D01*
X65816768Y-96062598D01*
X65816759Y-96062589D01*
X65803395Y-96046305D01*
X65787111Y-96032941D01*
X64507000Y-94752832D01*
X64507000Y-92097107D01*
X64637519Y-92043044D01*
X64830294Y-91914236D01*
X64864530Y-91880000D01*
X69471418Y-91880000D01*
X69471418Y-93880000D01*
X69477732Y-93944103D01*
X69496430Y-94005743D01*
X69526794Y-94062550D01*
X69567657Y-94112343D01*
X69617450Y-94153206D01*
X69674257Y-94183570D01*
X69735897Y-94202268D01*
X69800000Y-94208582D01*
X71800000Y-94208582D01*
X71864103Y-94202268D01*
X71925743Y-94183570D01*
X71982550Y-94153206D01*
X72032343Y-94112343D01*
X72073206Y-94062550D01*
X72103570Y-94005743D01*
X72122268Y-93944103D01*
X72128582Y-93880000D01*
X72128582Y-92749302D01*
X82173000Y-92749302D01*
X82173000Y-93010698D01*
X82223996Y-93267072D01*
X82324028Y-93508570D01*
X82469252Y-93725913D01*
X82654087Y-93910748D01*
X82871430Y-94055972D01*
X83112928Y-94156004D01*
X83369302Y-94207000D01*
X83630698Y-94207000D01*
X83887072Y-94156004D01*
X84128570Y-94055972D01*
X84345913Y-93910748D01*
X84530748Y-93725913D01*
X84675972Y-93508570D01*
X84776004Y-93267072D01*
X84827000Y-93010698D01*
X84827000Y-92749302D01*
X84776004Y-92492928D01*
X84675972Y-92251430D01*
X84530748Y-92034087D01*
X84345913Y-91849252D01*
X84128570Y-91704028D01*
X83887072Y-91603996D01*
X83630698Y-91553000D01*
X83369302Y-91553000D01*
X83112928Y-91603996D01*
X82871430Y-91704028D01*
X82654087Y-91849252D01*
X82469252Y-92034087D01*
X82324028Y-92251430D01*
X82223996Y-92492928D01*
X82173000Y-92749302D01*
X72128582Y-92749302D01*
X72128582Y-91880000D01*
X72122268Y-91815897D01*
X72103570Y-91754257D01*
X72073206Y-91697450D01*
X72032343Y-91647657D01*
X71982550Y-91606794D01*
X71925743Y-91576430D01*
X71864103Y-91557732D01*
X71800000Y-91551418D01*
X69800000Y-91551418D01*
X69735897Y-91557732D01*
X69674257Y-91576430D01*
X69617450Y-91606794D01*
X69567657Y-91647657D01*
X69526794Y-91697450D01*
X69496430Y-91754257D01*
X69477732Y-91815897D01*
X69471418Y-91880000D01*
X64864530Y-91880000D01*
X64994236Y-91750294D01*
X65123044Y-91557519D01*
X65211769Y-91343318D01*
X65257000Y-91115924D01*
X65257000Y-90884076D01*
X65211769Y-90656682D01*
X65123044Y-90442481D01*
X64994236Y-90249706D01*
X64830294Y-90085764D01*
X64637519Y-89956956D01*
X64423318Y-89868231D01*
X64195924Y-89823000D01*
X63964076Y-89823000D01*
X63736682Y-89868231D01*
X63522481Y-89956956D01*
X63329706Y-90085764D01*
X63165764Y-90249706D01*
X63036956Y-90442481D01*
X62948231Y-90656682D01*
X62903000Y-90884076D01*
X62903000Y-91115924D01*
X62948231Y-91343318D01*
X63036956Y-91557519D01*
X63165764Y-91750294D01*
X63329706Y-91914236D01*
X63522481Y-92043044D01*
X63653000Y-92097107D01*
X63653001Y-94908723D01*
X63650935Y-94929700D01*
X63659179Y-95013406D01*
X63683596Y-95093896D01*
X63723245Y-95168076D01*
X63763232Y-95216800D01*
X63763237Y-95216805D01*
X63776606Y-95233095D01*
X63792895Y-95246463D01*
X64943105Y-96396674D01*
X64781579Y-96504602D01*
X64624602Y-96661579D01*
X64501266Y-96846165D01*
X64416310Y-97051266D01*
X64391278Y-97177110D01*
X61967000Y-94752832D01*
X61967000Y-92097107D01*
X62097519Y-92043044D01*
X62290294Y-91914236D01*
X62454236Y-91750294D01*
X62583044Y-91557519D01*
X62671769Y-91343318D01*
X62717000Y-91115924D01*
X62717000Y-90884076D01*
X62671769Y-90656682D01*
X62583044Y-90442481D01*
X62454236Y-90249706D01*
X62290294Y-90085764D01*
X62097519Y-89956956D01*
X61883318Y-89868231D01*
X61655924Y-89823000D01*
X61424076Y-89823000D01*
X61196682Y-89868231D01*
X60982481Y-89956956D01*
X60789706Y-90085764D01*
X60625764Y-90249706D01*
X60496956Y-90442481D01*
X60408231Y-90656682D01*
X60363000Y-90884076D01*
X60178582Y-90884076D01*
X60178582Y-90150000D01*
X60172268Y-90085897D01*
X60153570Y-90024257D01*
X60123206Y-89967450D01*
X60082343Y-89917657D01*
X60032550Y-89876794D01*
X59975743Y-89846430D01*
X59914103Y-89827732D01*
X59850000Y-89821418D01*
X58150000Y-89821418D01*
X58085897Y-89827732D01*
X58024257Y-89846430D01*
X57967450Y-89876794D01*
X57917657Y-89917657D01*
X57876794Y-89967450D01*
X57846430Y-90024257D01*
X57827732Y-90085897D01*
X57821418Y-90150000D01*
X55243819Y-90150000D01*
X55218421Y-90124602D01*
X55033835Y-90001266D01*
X54828734Y-89916310D01*
X54611000Y-89873000D01*
X54389000Y-89873000D01*
X54171266Y-89916310D01*
X53966165Y-90001266D01*
X53781579Y-90124602D01*
X53624602Y-90281579D01*
X53501266Y-90466165D01*
X53416310Y-90671266D01*
X53373000Y-90889000D01*
X53127000Y-90889000D01*
X53083690Y-90671266D01*
X52998734Y-90466165D01*
X52875398Y-90281579D01*
X52718421Y-90124602D01*
X52533835Y-90001266D01*
X52328734Y-89916310D01*
X52111000Y-89873000D01*
X51889000Y-89873000D01*
X51671266Y-89916310D01*
X51466165Y-90001266D01*
X51281579Y-90124602D01*
X51124602Y-90281579D01*
X51001266Y-90466165D01*
X50916310Y-90671266D01*
X50873000Y-90889000D01*
X50873000Y-91111000D01*
X50916310Y-91328734D01*
X50960563Y-91435569D01*
X50195500Y-92200632D01*
X50179205Y-92214005D01*
X50165833Y-92230299D01*
X50165832Y-92230300D01*
X50125845Y-92279024D01*
X50104652Y-92318674D01*
X50086195Y-92353205D01*
X50061778Y-92433694D01*
X50055600Y-92496423D01*
X50055600Y-92496433D01*
X50053535Y-92517400D01*
X50055600Y-92538367D01*
X50055601Y-99190530D01*
X49068585Y-100177547D01*
X48879880Y-100051458D01*
X48474592Y-99883582D01*
X48044340Y-99798000D01*
X47605660Y-99798000D01*
X47175408Y-99883582D01*
X46770120Y-100051458D01*
X46405370Y-100295176D01*
X46095176Y-100605370D01*
X45851458Y-100970120D01*
X45683582Y-101375408D01*
X45598000Y-101805660D01*
X41352000Y-101805660D01*
X41352000Y-96455660D01*
X45598000Y-96455660D01*
X45598000Y-96894340D01*
X45683582Y-97324592D01*
X45851458Y-97729880D01*
X46095176Y-98094630D01*
X46405370Y-98404824D01*
X46770120Y-98648542D01*
X47175408Y-98816418D01*
X47605660Y-98902000D01*
X48044340Y-98902000D01*
X48474592Y-98816418D01*
X48879880Y-98648542D01*
X49244630Y-98404824D01*
X49554824Y-98094630D01*
X49798542Y-97729880D01*
X49966418Y-97324592D01*
X50052000Y-96894340D01*
X50052000Y-96455660D01*
X49966418Y-96025408D01*
X49798542Y-95620120D01*
X49554824Y-95255370D01*
X49244630Y-94945176D01*
X48879880Y-94701458D01*
X48474592Y-94533582D01*
X48044340Y-94448000D01*
X47605660Y-94448000D01*
X47175408Y-94533582D01*
X46770120Y-94701458D01*
X46405370Y-94945176D01*
X46095176Y-95255370D01*
X45851458Y-95620120D01*
X45683582Y-96025408D01*
X45598000Y-96455660D01*
X41352000Y-96455660D01*
X41352000Y-85352000D01*
X110648000Y-85352000D01*
X110648001Y-139148000D01*
%TA.AperFunction,Conductor*%
D29*
G36*
X110648001Y-139148000D02*
G01*
X41352000Y-139148000D01*
X41352000Y-127889000D01*
X51373000Y-127889000D01*
X51373000Y-128111000D01*
X51416310Y-128328734D01*
X51501266Y-128533835D01*
X51624602Y-128718421D01*
X51781579Y-128875398D01*
X51966165Y-128998734D01*
X52171266Y-129083690D01*
X52389000Y-129127000D01*
X52611000Y-129127000D01*
X52828734Y-129083690D01*
X53033835Y-128998734D01*
X53218421Y-128875398D01*
X53375398Y-128718421D01*
X53498734Y-128533835D01*
X53583690Y-128328734D01*
X53627000Y-128111000D01*
X53627000Y-127889000D01*
X53583690Y-127671266D01*
X53498734Y-127466165D01*
X53375398Y-127281579D01*
X53218421Y-127124602D01*
X53033835Y-127001266D01*
X52828734Y-126916310D01*
X52611000Y-126873000D01*
X52389000Y-126873000D01*
X52171266Y-126916310D01*
X51966165Y-127001266D01*
X51781579Y-127124602D01*
X51624602Y-127281579D01*
X51501266Y-127466165D01*
X51416310Y-127671266D01*
X51373000Y-127889000D01*
X41352000Y-127889000D01*
X41352000Y-114150000D01*
X46321418Y-114150000D01*
X46321418Y-115850000D01*
X46327732Y-115914103D01*
X46346430Y-115975743D01*
X46376794Y-116032550D01*
X46417657Y-116082343D01*
X46467450Y-116123206D01*
X46524257Y-116153570D01*
X46585897Y-116172268D01*
X46650000Y-116178582D01*
X47083599Y-116178582D01*
X47103595Y-116244496D01*
X47143245Y-116318676D01*
X47196605Y-116383695D01*
X47212881Y-116397052D01*
X47156682Y-116408231D01*
X46942481Y-116496956D01*
X46749706Y-116625764D01*
X46585764Y-116789706D01*
X46456956Y-116982481D01*
X46368231Y-117196682D01*
X46323000Y-117424076D01*
X46323000Y-117655924D01*
X46368231Y-117883318D01*
X46456956Y-118097519D01*
X46585764Y-118290294D01*
X46749706Y-118454236D01*
X46942481Y-118583044D01*
X47156682Y-118671769D01*
X47384076Y-118717000D01*
X47615924Y-118717000D01*
X47843318Y-118671769D01*
X48057519Y-118583044D01*
X48153301Y-118519045D01*
X48153300Y-120337531D01*
X47212895Y-121277937D01*
X47196606Y-121291305D01*
X47183237Y-121307595D01*
X47183232Y-121307600D01*
X47143245Y-121356324D01*
X47103596Y-121430504D01*
X47083600Y-121496418D01*
X46825000Y-121496418D01*
X46760897Y-121502732D01*
X46699257Y-121521430D01*
X46642450Y-121551794D01*
X46592657Y-121592657D01*
X46551794Y-121642450D01*
X46521430Y-121699257D01*
X46502732Y-121760897D01*
X46496418Y-121825000D01*
X46496418Y-123175000D01*
X46502732Y-123239103D01*
X46521430Y-123300743D01*
X46551794Y-123357550D01*
X46592657Y-123407343D01*
X46642450Y-123448206D01*
X46699257Y-123478570D01*
X46760897Y-123497268D01*
X46825000Y-123503582D01*
X47373250Y-123503582D01*
X47207727Y-123536507D01*
X47025375Y-123612039D01*
X46861262Y-123721696D01*
X46721696Y-123861262D01*
X46612039Y-124025375D01*
X46536507Y-124207727D01*
X46498000Y-124401312D01*
X46498000Y-124598688D01*
X46536507Y-124792273D01*
X46612039Y-124974625D01*
X46721696Y-125138738D01*
X46861262Y-125278304D01*
X47025375Y-125387961D01*
X47207727Y-125463493D01*
X47401312Y-125502000D01*
X47598688Y-125502000D01*
X47792273Y-125463493D01*
X47974625Y-125387961D01*
X48138738Y-125278304D01*
X48278304Y-125138738D01*
X48387961Y-124974625D01*
X48463493Y-124792273D01*
X48502000Y-124598688D01*
X48502000Y-124401312D01*
X48463493Y-124207727D01*
X48387961Y-124025375D01*
X48278304Y-123861262D01*
X48138738Y-123721696D01*
X47974625Y-123612039D01*
X47792273Y-123536507D01*
X47626750Y-123503582D01*
X48175000Y-123503582D01*
X48239103Y-123497268D01*
X48300743Y-123478570D01*
X48357550Y-123448206D01*
X48407343Y-123407343D01*
X48448206Y-123357550D01*
X48478570Y-123300743D01*
X48497268Y-123239103D01*
X48503582Y-123175000D01*
X48503582Y-121825000D01*
X48497268Y-121760897D01*
X48478570Y-121699257D01*
X48448206Y-121642450D01*
X48407343Y-121592657D01*
X48357550Y-121551794D01*
X48322951Y-121533300D01*
X51037635Y-121533300D01*
X51039700Y-121554267D01*
X51039701Y-124445723D01*
X51037635Y-124466700D01*
X51039701Y-124487677D01*
X51039701Y-124487678D01*
X51045879Y-124550407D01*
X51061560Y-124602097D01*
X51070296Y-124630896D01*
X51109945Y-124705076D01*
X51149932Y-124753800D01*
X51149937Y-124753805D01*
X51163306Y-124770095D01*
X51179595Y-124783463D01*
X51460563Y-125064431D01*
X51416310Y-125171266D01*
X51373000Y-125389000D01*
X51373000Y-125611000D01*
X51416310Y-125828734D01*
X51501266Y-126033835D01*
X51624602Y-126218421D01*
X51781579Y-126375398D01*
X51966165Y-126498734D01*
X52171266Y-126583690D01*
X52389000Y-126627000D01*
X52611000Y-126627000D01*
X52828734Y-126583690D01*
X53033835Y-126498734D01*
X53218421Y-126375398D01*
X53375398Y-126218421D01*
X53498734Y-126033835D01*
X53542987Y-125927000D01*
X68822632Y-125927000D01*
X70493517Y-127597887D01*
X70504070Y-127650939D01*
X70542949Y-127744799D01*
X70599391Y-127829271D01*
X70648120Y-127878000D01*
X70599391Y-127926729D01*
X70542949Y-128011201D01*
X70504070Y-128105061D01*
X70484250Y-128204703D01*
X70484250Y-128306297D01*
X70504070Y-128405939D01*
X70542949Y-128499799D01*
X70599391Y-128584271D01*
X70671229Y-128656109D01*
X70755701Y-128712551D01*
X70849561Y-128751430D01*
X70949203Y-128771250D01*
X71050797Y-128771250D01*
X71150439Y-128751430D01*
X71244299Y-128712551D01*
X71328771Y-128656109D01*
X71377500Y-128607380D01*
X71426229Y-128656109D01*
X71510701Y-128712551D01*
X71604561Y-128751430D01*
X71657615Y-128761983D01*
X78489936Y-135594305D01*
X78503305Y-135610595D01*
X78519595Y-135623964D01*
X78519599Y-135623968D01*
X78568323Y-135663956D01*
X78625238Y-135694376D01*
X78642504Y-135703605D01*
X78722993Y-135728022D01*
X78785722Y-135734200D01*
X78785733Y-135734200D01*
X78806700Y-135736265D01*
X78827667Y-135734200D01*
X81379465Y-135734200D01*
X81392467Y-135799565D01*
X81469885Y-135986467D01*
X81582277Y-136154674D01*
X81725326Y-136297723D01*
X81893533Y-136410115D01*
X82080435Y-136487533D01*
X82278849Y-136527000D01*
X82481151Y-136527000D01*
X82679565Y-136487533D01*
X82866467Y-136410115D01*
X83034674Y-136297723D01*
X83177723Y-136154674D01*
X83290115Y-135986467D01*
X83367533Y-135799565D01*
X83407000Y-135601151D01*
X83407000Y-135398849D01*
X88973000Y-135398849D01*
X88973000Y-135601151D01*
X89012467Y-135799565D01*
X89089885Y-135986467D01*
X89202277Y-136154674D01*
X89345326Y-136297723D01*
X89513533Y-136410115D01*
X89700435Y-136487533D01*
X89898849Y-136527000D01*
X90101151Y-136527000D01*
X90299565Y-136487533D01*
X90486467Y-136410115D01*
X90654674Y-136297723D01*
X90797723Y-136154674D01*
X90910115Y-135986467D01*
X90987533Y-135799565D01*
X91027000Y-135601151D01*
X91027000Y-135398849D01*
X90987533Y-135200435D01*
X90910115Y-135013533D01*
X90797723Y-134845326D01*
X90654674Y-134702277D01*
X90486467Y-134589885D01*
X90299565Y-134512467D01*
X90101151Y-134473000D01*
X89898849Y-134473000D01*
X89700435Y-134512467D01*
X89513533Y-134589885D01*
X89345326Y-134702277D01*
X89202277Y-134845326D01*
X89089885Y-135013533D01*
X89012467Y-135200435D01*
X88973000Y-135398849D01*
X83407000Y-135398849D01*
X83367533Y-135200435D01*
X83290115Y-135013533D01*
X83177723Y-134845326D01*
X83034674Y-134702277D01*
X82924744Y-134628824D01*
X86544568Y-131009000D01*
X87373000Y-131009000D01*
X87373000Y-131231000D01*
X87416310Y-131448734D01*
X87501266Y-131653835D01*
X87624602Y-131838421D01*
X87781579Y-131995398D01*
X87966165Y-132118734D01*
X88171266Y-132203690D01*
X88389000Y-132247000D01*
X88611000Y-132247000D01*
X88828734Y-132203690D01*
X89033835Y-132118734D01*
X89218421Y-131995398D01*
X89375398Y-131838421D01*
X89498734Y-131653835D01*
X89583690Y-131448734D01*
X89627000Y-131231000D01*
X89627000Y-131009000D01*
X89583690Y-130791266D01*
X89498734Y-130586165D01*
X89375398Y-130401579D01*
X89218421Y-130244602D01*
X89033835Y-130121266D01*
X88828734Y-130036310D01*
X88611000Y-129993000D01*
X88389000Y-129993000D01*
X88171266Y-130036310D01*
X87966165Y-130121266D01*
X87781579Y-130244602D01*
X87624602Y-130401579D01*
X87501266Y-130586165D01*
X87416310Y-130791266D01*
X87373000Y-131009000D01*
X86544568Y-131009000D01*
X88787107Y-128766462D01*
X88803395Y-128753095D01*
X88816764Y-128736805D01*
X88816768Y-128736801D01*
X88856755Y-128688077D01*
X88896404Y-128613897D01*
X88896405Y-128613896D01*
X88920822Y-128533407D01*
X88927000Y-128470678D01*
X88927000Y-128470668D01*
X88929065Y-128449701D01*
X88927000Y-128428734D01*
X88927000Y-128427000D01*
X93457013Y-128427000D01*
X93501266Y-128533835D01*
X93624602Y-128718421D01*
X93781579Y-128875398D01*
X93966165Y-128998734D01*
X94171266Y-129083690D01*
X94389000Y-129127000D01*
X94611000Y-129127000D01*
X94828734Y-129083690D01*
X95033835Y-128998734D01*
X95218421Y-128875398D01*
X95375398Y-128718421D01*
X95498734Y-128533835D01*
X95583690Y-128328734D01*
X95627000Y-128111000D01*
X95627000Y-127889000D01*
X95583690Y-127671266D01*
X95498734Y-127466165D01*
X95375398Y-127281579D01*
X95218421Y-127124602D01*
X95033835Y-127001266D01*
X94828734Y-126916310D01*
X94611000Y-126873000D01*
X94389000Y-126873000D01*
X94171266Y-126916310D01*
X93966165Y-127001266D01*
X93781579Y-127124602D01*
X93624602Y-127281579D01*
X93501266Y-127466165D01*
X93457013Y-127573000D01*
X88927000Y-127573000D01*
X88927000Y-125389000D01*
X93373000Y-125389000D01*
X93373000Y-125611000D01*
X93416310Y-125828734D01*
X93501266Y-126033835D01*
X93624602Y-126218421D01*
X93781579Y-126375398D01*
X93966165Y-126498734D01*
X94171266Y-126583690D01*
X94389000Y-126627000D01*
X94611000Y-126627000D01*
X94746738Y-126600000D01*
X100271418Y-126600000D01*
X100271418Y-128400000D01*
X100277732Y-128464103D01*
X100296430Y-128525743D01*
X100326794Y-128582550D01*
X100367657Y-128632343D01*
X100417450Y-128673206D01*
X100474257Y-128703570D01*
X100535897Y-128722268D01*
X100600000Y-128728582D01*
X102400000Y-128728582D01*
X102464103Y-128722268D01*
X102525743Y-128703570D01*
X102582550Y-128673206D01*
X102632343Y-128632343D01*
X102673206Y-128582550D01*
X102703570Y-128525743D01*
X102722268Y-128464103D01*
X102728582Y-128400000D01*
X102728582Y-126600000D01*
X102722268Y-126535897D01*
X102703570Y-126474257D01*
X102673206Y-126417450D01*
X102632343Y-126367657D01*
X102582550Y-126326794D01*
X102525743Y-126296430D01*
X102464103Y-126277732D01*
X102400000Y-126271418D01*
X100600000Y-126271418D01*
X100535897Y-126277732D01*
X100474257Y-126296430D01*
X100417450Y-126326794D01*
X100367657Y-126367657D01*
X100326794Y-126417450D01*
X100296430Y-126474257D01*
X100277732Y-126535897D01*
X100271418Y-126600000D01*
X94746738Y-126600000D01*
X94828734Y-126583690D01*
X95033835Y-126498734D01*
X95218421Y-126375398D01*
X95375398Y-126218421D01*
X95498734Y-126033835D01*
X95583690Y-125828734D01*
X95627000Y-125611000D01*
X95627000Y-125389000D01*
X95583690Y-125171266D01*
X95498734Y-124966165D01*
X95413867Y-124839151D01*
X100273000Y-124839151D01*
X100273000Y-125080849D01*
X100320153Y-125317903D01*
X100412647Y-125541202D01*
X100546927Y-125742167D01*
X100717833Y-125913073D01*
X100918798Y-126047353D01*
X101142097Y-126139847D01*
X101379151Y-126187000D01*
X101620849Y-126187000D01*
X101857903Y-126139847D01*
X102081202Y-126047353D01*
X102282167Y-125913073D01*
X102453073Y-125742167D01*
X102587353Y-125541202D01*
X102679847Y-125317903D01*
X102727000Y-125080849D01*
X102727000Y-124839151D01*
X102679847Y-124602097D01*
X102615974Y-124447895D01*
X102759706Y-124304163D01*
X102775995Y-124290795D01*
X102789364Y-124274505D01*
X102789368Y-124274501D01*
X102829355Y-124225777D01*
X102869004Y-124151597D01*
X102869005Y-124151596D01*
X102893422Y-124071107D01*
X102899600Y-124008378D01*
X102899600Y-124008368D01*
X102901665Y-123987401D01*
X102899600Y-123966434D01*
X102899600Y-115343866D01*
X102901665Y-115322899D01*
X102899600Y-115301932D01*
X102899600Y-115301922D01*
X102893422Y-115239193D01*
X102869005Y-115158704D01*
X102842694Y-115109479D01*
X102829355Y-115084523D01*
X102789368Y-115035799D01*
X102789364Y-115035795D01*
X102775995Y-115019505D01*
X102759705Y-115006136D01*
X102044744Y-114291176D01*
X102154674Y-114217723D01*
X102297723Y-114074674D01*
X102410115Y-113906467D01*
X102487533Y-113719565D01*
X102527000Y-113521151D01*
X102527000Y-113318849D01*
X102487533Y-113120435D01*
X102410115Y-112933533D01*
X102297723Y-112765326D01*
X102154674Y-112622277D01*
X101986467Y-112509885D01*
X101799565Y-112432467D01*
X101601151Y-112393000D01*
X101398849Y-112393000D01*
X101200435Y-112432467D01*
X101013533Y-112509885D01*
X100845326Y-112622277D01*
X100702277Y-112765326D01*
X100589885Y-112933533D01*
X100512467Y-113120435D01*
X100473000Y-113318849D01*
X100473000Y-113521151D01*
X100512467Y-113719565D01*
X100589885Y-113906467D01*
X100702277Y-114074674D01*
X100845326Y-114217723D01*
X101013533Y-114330115D01*
X101071304Y-114354045D01*
X101073001Y-114371277D01*
X101073001Y-114371278D01*
X101079179Y-114434007D01*
X101092835Y-114479022D01*
X101103596Y-114514496D01*
X101143245Y-114588676D01*
X101183232Y-114637400D01*
X101183237Y-114637405D01*
X101196606Y-114653695D01*
X101212895Y-114667063D01*
X102045601Y-115499770D01*
X102045601Y-117629397D01*
X101986467Y-117589885D01*
X101799565Y-117512467D01*
X101601151Y-117473000D01*
X101398849Y-117473000D01*
X101200435Y-117512467D01*
X101013533Y-117589885D01*
X100845326Y-117702277D01*
X100702277Y-117845326D01*
X100589885Y-118013533D01*
X100512467Y-118200435D01*
X100473000Y-118398849D01*
X100473000Y-118601151D01*
X100512467Y-118799565D01*
X100589885Y-118986467D01*
X100702277Y-119154674D01*
X100845326Y-119297723D01*
X101013533Y-119410115D01*
X101200435Y-119487533D01*
X101398849Y-119527000D01*
X101601151Y-119527000D01*
X101799565Y-119487533D01*
X101986467Y-119410115D01*
X102045601Y-119370603D01*
X102045600Y-123810531D01*
X102012105Y-123844026D01*
X101857903Y-123780153D01*
X101620849Y-123733000D01*
X101379151Y-123733000D01*
X101142097Y-123780153D01*
X100918798Y-123872647D01*
X100717833Y-124006927D01*
X100546927Y-124177833D01*
X100412647Y-124378798D01*
X100320153Y-124602097D01*
X100273000Y-124839151D01*
X95413867Y-124839151D01*
X95375398Y-124781579D01*
X95218421Y-124624602D01*
X95033835Y-124501266D01*
X94828734Y-124416310D01*
X94611000Y-124373000D01*
X94389000Y-124373000D01*
X94171266Y-124416310D01*
X93966165Y-124501266D01*
X93781579Y-124624602D01*
X93624602Y-124781579D01*
X93501266Y-124966165D01*
X93416310Y-125171266D01*
X93373000Y-125389000D01*
X88927000Y-125389000D01*
X88927000Y-124542987D01*
X89033835Y-124498734D01*
X89218421Y-124375398D01*
X89375398Y-124218421D01*
X89498734Y-124033835D01*
X89583690Y-123828734D01*
X89627000Y-123611000D01*
X89627000Y-123389000D01*
X89583690Y-123171266D01*
X89498734Y-122966165D01*
X89375398Y-122781579D01*
X89218421Y-122624602D01*
X89056894Y-122516674D01*
X90614723Y-120958846D01*
X90620000Y-120959366D01*
X90703707Y-120951122D01*
X90784196Y-120926705D01*
X90858376Y-120887055D01*
X90923395Y-120833695D01*
X90976755Y-120768676D01*
X91016405Y-120694496D01*
X91040822Y-120614007D01*
X91047000Y-120551278D01*
X91047851Y-120542634D01*
X91153835Y-120498734D01*
X91338421Y-120375398D01*
X91495398Y-120218421D01*
X91618734Y-120033835D01*
X91703690Y-119828734D01*
X91747000Y-119611000D01*
X91747000Y-119389000D01*
X91703690Y-119171266D01*
X91618734Y-118966165D01*
X91495398Y-118781579D01*
X91338421Y-118624602D01*
X91153835Y-118501266D01*
X91047000Y-118457013D01*
X91047000Y-118002100D01*
X94573001Y-118002100D01*
X94573001Y-118457013D01*
X94466165Y-118501266D01*
X94281579Y-118624602D01*
X94124602Y-118781579D01*
X94001266Y-118966165D01*
X93916310Y-119171266D01*
X93873000Y-119389000D01*
X93873000Y-119611000D01*
X93916310Y-119828734D01*
X94001266Y-120033835D01*
X94124602Y-120218421D01*
X94281579Y-120375398D01*
X94466165Y-120498734D01*
X94671266Y-120583690D01*
X94889000Y-120627000D01*
X95111000Y-120627000D01*
X95328734Y-120583690D01*
X95533835Y-120498734D01*
X95718421Y-120375398D01*
X95875398Y-120218421D01*
X95998734Y-120033835D01*
X96083690Y-119828734D01*
X96127000Y-119611000D01*
X96127000Y-119389000D01*
X96373000Y-119389000D01*
X96373000Y-119611000D01*
X96416310Y-119828734D01*
X96501266Y-120033835D01*
X96624602Y-120218421D01*
X96781579Y-120375398D01*
X96966165Y-120498734D01*
X97171266Y-120583690D01*
X97389000Y-120627000D01*
X97611000Y-120627000D01*
X97828734Y-120583690D01*
X98033835Y-120498734D01*
X98218421Y-120375398D01*
X98375398Y-120218421D01*
X98498734Y-120033835D01*
X98583690Y-119828734D01*
X98627000Y-119611000D01*
X98627000Y-119389000D01*
X98583690Y-119171266D01*
X98498734Y-118966165D01*
X98375398Y-118781579D01*
X98218421Y-118624602D01*
X98033835Y-118501266D01*
X97828734Y-118416310D01*
X97611000Y-118373000D01*
X97389000Y-118373000D01*
X97171266Y-118416310D01*
X96966165Y-118501266D01*
X96781579Y-118624602D01*
X96624602Y-118781579D01*
X96501266Y-118966165D01*
X96416310Y-119171266D01*
X96373000Y-119389000D01*
X96127000Y-119389000D01*
X96083690Y-119171266D01*
X95998734Y-118966165D01*
X95875398Y-118781579D01*
X95718421Y-118624602D01*
X95533835Y-118501266D01*
X95427000Y-118457013D01*
X95427000Y-117596077D01*
X95429066Y-117575100D01*
X95427000Y-117554122D01*
X95427000Y-117176868D01*
X97064431Y-115539437D01*
X97171266Y-115583690D01*
X97389000Y-115627000D01*
X97611000Y-115627000D01*
X97828734Y-115583690D01*
X98033835Y-115498734D01*
X98218421Y-115375398D01*
X98375398Y-115218421D01*
X98498734Y-115033835D01*
X98583690Y-114828734D01*
X98627000Y-114611000D01*
X98627000Y-114389000D01*
X98583690Y-114171266D01*
X98498734Y-113966165D01*
X98375398Y-113781579D01*
X98218421Y-113624602D01*
X98033835Y-113501266D01*
X97927000Y-113457013D01*
X97927000Y-111176868D01*
X100256415Y-108847454D01*
X100445120Y-108973542D01*
X100850408Y-109141418D01*
X101280660Y-109227000D01*
X101719340Y-109227000D01*
X102149592Y-109141418D01*
X102554880Y-108973542D01*
X102919630Y-108729824D01*
X103229824Y-108419630D01*
X103473542Y-108054880D01*
X103641418Y-107649592D01*
X103727000Y-107219340D01*
X103727000Y-106780660D01*
X103641418Y-106350408D01*
X103473542Y-105945120D01*
X103229824Y-105580370D01*
X102919630Y-105270176D01*
X102554880Y-105026458D01*
X102149592Y-104858582D01*
X101719340Y-104773000D01*
X101280660Y-104773000D01*
X100850408Y-104858582D01*
X100445120Y-105026458D01*
X100080370Y-105270176D01*
X99770176Y-105580370D01*
X99526458Y-105945120D01*
X99358582Y-106350408D01*
X99273000Y-106780660D01*
X99273000Y-107219340D01*
X99358582Y-107649592D01*
X99526458Y-108054880D01*
X99652546Y-108243585D01*
X97212896Y-110683236D01*
X97196606Y-110696605D01*
X97183237Y-110712895D01*
X97183232Y-110712900D01*
X97143245Y-110761624D01*
X97103596Y-110835804D01*
X97079179Y-110916294D01*
X97070935Y-111000000D01*
X97073001Y-111020977D01*
X97073000Y-113457013D01*
X96966165Y-113501266D01*
X96781579Y-113624602D01*
X96624602Y-113781579D01*
X96501266Y-113966165D01*
X96416310Y-114171266D01*
X96373000Y-114389000D01*
X96373000Y-114611000D01*
X96416310Y-114828734D01*
X96460563Y-114935569D01*
X94712896Y-116683236D01*
X94696606Y-116696605D01*
X94683237Y-116712895D01*
X94683232Y-116712900D01*
X94643245Y-116761624D01*
X94603596Y-116835804D01*
X94579179Y-116916293D01*
X94576677Y-116941694D01*
X94570935Y-117000000D01*
X94573001Y-117020977D01*
X94573001Y-117148100D01*
X91047000Y-117148100D01*
X91047000Y-115671267D01*
X91049065Y-115650300D01*
X91047000Y-115629333D01*
X91047000Y-115629322D01*
X91040822Y-115566593D01*
X91021754Y-115503738D01*
X91033835Y-115498734D01*
X91218421Y-115375398D01*
X91375398Y-115218421D01*
X91498734Y-115033835D01*
X91583690Y-114828734D01*
X91627000Y-114611000D01*
X91627000Y-114389000D01*
X93873000Y-114389000D01*
X93873000Y-114611000D01*
X93916310Y-114828734D01*
X94001266Y-115033835D01*
X94124602Y-115218421D01*
X94281579Y-115375398D01*
X94466165Y-115498734D01*
X94671266Y-115583690D01*
X94889000Y-115627000D01*
X95111000Y-115627000D01*
X95328734Y-115583690D01*
X95533835Y-115498734D01*
X95718421Y-115375398D01*
X95875398Y-115218421D01*
X95998734Y-115033835D01*
X96083690Y-114828734D01*
X96127000Y-114611000D01*
X96127000Y-114389000D01*
X96083690Y-114171266D01*
X95998734Y-113966165D01*
X95875398Y-113781579D01*
X95718421Y-113624602D01*
X95533835Y-113501266D01*
X95328734Y-113416310D01*
X95111000Y-113373000D01*
X94889000Y-113373000D01*
X94671266Y-113416310D01*
X94466165Y-113501266D01*
X94281579Y-113624602D01*
X94124602Y-113781579D01*
X94001266Y-113966165D01*
X93916310Y-114171266D01*
X93873000Y-114389000D01*
X91627000Y-114389000D01*
X91583690Y-114171266D01*
X91498734Y-113966165D01*
X91375398Y-113781579D01*
X91218421Y-113624602D01*
X91033835Y-113501266D01*
X90828734Y-113416310D01*
X90611000Y-113373000D01*
X90389000Y-113373000D01*
X90171266Y-113416310D01*
X89966165Y-113501266D01*
X89781579Y-113624602D01*
X89624602Y-113781579D01*
X89501266Y-113966165D01*
X89416310Y-114171266D01*
X89373000Y-114389000D01*
X89373000Y-114611000D01*
X89416310Y-114828734D01*
X89501266Y-115033835D01*
X89624602Y-115218421D01*
X89781579Y-115375398D01*
X89966165Y-115498734D01*
X90072150Y-115542635D01*
X90073001Y-115551277D01*
X90073001Y-115551278D01*
X90079179Y-115614007D01*
X90091099Y-115653300D01*
X90103596Y-115694496D01*
X90143245Y-115768676D01*
X90183232Y-115817400D01*
X90183237Y-115817405D01*
X90193000Y-115829301D01*
X90193001Y-117554113D01*
X90190934Y-117575100D01*
X90193000Y-117596077D01*
X90193000Y-118457013D01*
X90086165Y-118501266D01*
X89901579Y-118624602D01*
X89744602Y-118781579D01*
X89621266Y-118966165D01*
X89536310Y-119171266D01*
X89493000Y-119389000D01*
X89493000Y-119611000D01*
X89536310Y-119828734D01*
X89621266Y-120033835D01*
X89744602Y-120218421D01*
X89901579Y-120375398D01*
X89954843Y-120410988D01*
X88212896Y-122152936D01*
X88196606Y-122166305D01*
X88183237Y-122182595D01*
X88183232Y-122182600D01*
X88143245Y-122231324D01*
X88103596Y-122305504D01*
X88079179Y-122385994D01*
X88072150Y-122457365D01*
X87966165Y-122501266D01*
X87781579Y-122624602D01*
X87624602Y-122781579D01*
X87501266Y-122966165D01*
X87416310Y-123171266D01*
X87373000Y-123389000D01*
X87373000Y-123611000D01*
X87416310Y-123828734D01*
X87501266Y-124033835D01*
X87624602Y-124218421D01*
X87781579Y-124375398D01*
X87966165Y-124498734D01*
X88073001Y-124542987D01*
X88073000Y-127979022D01*
X88070934Y-128000000D01*
X88073000Y-128020977D01*
X88073000Y-128272831D01*
X85127000Y-131218832D01*
X85127000Y-131009000D01*
X85083690Y-130791266D01*
X84998734Y-130586165D01*
X84875398Y-130401579D01*
X84718421Y-130244602D01*
X84533835Y-130121266D01*
X84328734Y-130036310D01*
X84111000Y-129993000D01*
X83889000Y-129993000D01*
X83671266Y-130036310D01*
X83466165Y-130121266D01*
X83281579Y-130244602D01*
X83124602Y-130401579D01*
X83001266Y-130586165D01*
X82916310Y-130791266D01*
X82873000Y-131009000D01*
X82873000Y-131231000D01*
X82916310Y-131448734D01*
X83001266Y-131653835D01*
X83124602Y-131838421D01*
X83281579Y-131995398D01*
X83466165Y-132118734D01*
X83671266Y-132203690D01*
X83889000Y-132247000D01*
X84098832Y-132247000D01*
X82092896Y-134252936D01*
X82076606Y-134266305D01*
X82063237Y-134282595D01*
X82063232Y-134282600D01*
X82023245Y-134331324D01*
X81983596Y-134405504D01*
X81959179Y-134485994D01*
X81951304Y-134565955D01*
X81893533Y-134589885D01*
X81725326Y-134702277D01*
X81582277Y-134845326D01*
X81558975Y-134880200D01*
X78983569Y-134880200D01*
X72261483Y-128158115D01*
X72250930Y-128105061D01*
X72212051Y-128011201D01*
X72155609Y-127926729D01*
X72106880Y-127878000D01*
X72155609Y-127829271D01*
X72212051Y-127744799D01*
X72250930Y-127650939D01*
X72270750Y-127551297D01*
X72270750Y-127449703D01*
X72250930Y-127350061D01*
X72212051Y-127256201D01*
X72155609Y-127171729D01*
X72083771Y-127099891D01*
X71999299Y-127043449D01*
X71905439Y-127004570D01*
X71805797Y-126984750D01*
X71704203Y-126984750D01*
X71604561Y-127004570D01*
X71510701Y-127043449D01*
X71426229Y-127099891D01*
X71377500Y-127148620D01*
X71328771Y-127099891D01*
X71244299Y-127043449D01*
X71150439Y-127004570D01*
X71097387Y-126994017D01*
X69316267Y-125212899D01*
X69302895Y-125196605D01*
X69237876Y-125143245D01*
X69163696Y-125103595D01*
X69083207Y-125079178D01*
X69020478Y-125073000D01*
X69020467Y-125073000D01*
X68999500Y-125070935D01*
X68978533Y-125073000D01*
X53542987Y-125073000D01*
X53498734Y-124966165D01*
X53375398Y-124781579D01*
X53218421Y-124624602D01*
X53033835Y-124501266D01*
X52828734Y-124416310D01*
X52611000Y-124373000D01*
X52389000Y-124373000D01*
X52171266Y-124416310D01*
X52064431Y-124460563D01*
X51893700Y-124289832D01*
X51893700Y-123950315D01*
X51966165Y-123998734D01*
X52171266Y-124083690D01*
X52389000Y-124127000D01*
X52611000Y-124127000D01*
X52828734Y-124083690D01*
X53033835Y-123998734D01*
X53218421Y-123875398D01*
X53375398Y-123718421D01*
X53498734Y-123533835D01*
X53583690Y-123328734D01*
X53627000Y-123111000D01*
X53627000Y-122889000D01*
X53583690Y-122671266D01*
X53539437Y-122564431D01*
X53926869Y-122177000D01*
X58229181Y-122177000D01*
X58124602Y-122281579D01*
X58001266Y-122466165D01*
X57916310Y-122671266D01*
X57873000Y-122889000D01*
X57873000Y-123111000D01*
X57916310Y-123328734D01*
X58001266Y-123533835D01*
X58124602Y-123718421D01*
X58281579Y-123875398D01*
X58466165Y-123998734D01*
X58671266Y-124083690D01*
X58889000Y-124127000D01*
X59111000Y-124127000D01*
X59328734Y-124083690D01*
X59533835Y-123998734D01*
X59718421Y-123875398D01*
X59875398Y-123718421D01*
X59998734Y-123533835D01*
X60083690Y-123328734D01*
X60127000Y-123111000D01*
X60127000Y-122889000D01*
X60083690Y-122671266D01*
X59998734Y-122466165D01*
X59875398Y-122281579D01*
X59747060Y-122153241D01*
X59769596Y-122146405D01*
X59843776Y-122106755D01*
X59908795Y-122053395D01*
X59922168Y-122037100D01*
X60207269Y-121752000D01*
X64015535Y-121752000D01*
X64099028Y-121953570D01*
X64244252Y-122170913D01*
X64429087Y-122355748D01*
X64646430Y-122500972D01*
X64887928Y-122601004D01*
X65144302Y-122652000D01*
X65405698Y-122652000D01*
X65662072Y-122601004D01*
X65903570Y-122500972D01*
X66120913Y-122355748D01*
X66305748Y-122170913D01*
X66450972Y-121953570D01*
X66551004Y-121712072D01*
X66602000Y-121455698D01*
X66602000Y-121194302D01*
X66551004Y-120937928D01*
X66450972Y-120696430D01*
X66305748Y-120479087D01*
X66120913Y-120294252D01*
X65903570Y-120149028D01*
X65662072Y-120048996D01*
X65405698Y-119998000D01*
X65144302Y-119998000D01*
X64887928Y-120048996D01*
X64646430Y-120149028D01*
X64429087Y-120294252D01*
X64244252Y-120479087D01*
X64099028Y-120696430D01*
X64015535Y-120898000D01*
X60457400Y-120898000D01*
X60457400Y-113200000D01*
X66751418Y-113200000D01*
X66751418Y-114800000D01*
X66757732Y-114864103D01*
X66776430Y-114925743D01*
X66806794Y-114982550D01*
X66847657Y-115032343D01*
X66897450Y-115073206D01*
X66954257Y-115103570D01*
X67015897Y-115122268D01*
X67080000Y-115128582D01*
X68680000Y-115128582D01*
X68744103Y-115122268D01*
X68805743Y-115103570D01*
X68862550Y-115073206D01*
X68912343Y-115032343D01*
X68953206Y-114982550D01*
X68983570Y-114925743D01*
X69002268Y-114864103D01*
X69005807Y-114828175D01*
X77964741Y-123787111D01*
X77978105Y-123803395D01*
X77994389Y-123816759D01*
X77994398Y-123816768D01*
X78043123Y-123856755D01*
X78072856Y-123872647D01*
X78117304Y-123896405D01*
X78197793Y-123920822D01*
X78260522Y-123927000D01*
X78260532Y-123927000D01*
X78281499Y-123929065D01*
X78302466Y-123927000D01*
X82957013Y-123927000D01*
X83001266Y-124033835D01*
X83124602Y-124218421D01*
X83281579Y-124375398D01*
X83466165Y-124498734D01*
X83671266Y-124583690D01*
X83889000Y-124627000D01*
X84111000Y-124627000D01*
X84328734Y-124583690D01*
X84533835Y-124498734D01*
X84718421Y-124375398D01*
X84875398Y-124218421D01*
X84998734Y-124033835D01*
X85083690Y-123828734D01*
X85127000Y-123611000D01*
X85127000Y-123389000D01*
X85083690Y-123171266D01*
X84998734Y-122966165D01*
X84875398Y-122781579D01*
X84718421Y-122624602D01*
X84533835Y-122501266D01*
X84328734Y-122416310D01*
X84111000Y-122373000D01*
X83889000Y-122373000D01*
X83671266Y-122416310D01*
X83466165Y-122501266D01*
X83281579Y-122624602D01*
X83124602Y-122781579D01*
X83001266Y-122966165D01*
X82957013Y-123073000D01*
X78458370Y-123073000D01*
X78037370Y-122652000D01*
X78105698Y-122652000D01*
X78362072Y-122601004D01*
X78603570Y-122500972D01*
X78820913Y-122355748D01*
X79005748Y-122170913D01*
X79150972Y-121953570D01*
X79251004Y-121712072D01*
X79302000Y-121455698D01*
X79302000Y-121194302D01*
X79251004Y-120937928D01*
X79150972Y-120696430D01*
X79005748Y-120479087D01*
X78820913Y-120294252D01*
X78603570Y-120149028D01*
X78401159Y-120065187D01*
X78395822Y-120010993D01*
X78371405Y-119930504D01*
X78371405Y-119930503D01*
X78331756Y-119856324D01*
X78291768Y-119807599D01*
X78291764Y-119807595D01*
X78278395Y-119791305D01*
X78262105Y-119777936D01*
X77873169Y-119389000D01*
X81873000Y-119389000D01*
X81873000Y-119611000D01*
X81916310Y-119828734D01*
X82001266Y-120033835D01*
X82124602Y-120218421D01*
X82281579Y-120375398D01*
X82466165Y-120498734D01*
X82671266Y-120583690D01*
X82889000Y-120627000D01*
X83111000Y-120627000D01*
X83328734Y-120583690D01*
X83533835Y-120498734D01*
X83718421Y-120375398D01*
X83875398Y-120218421D01*
X83998734Y-120033835D01*
X84083690Y-119828734D01*
X84127000Y-119611000D01*
X84127000Y-119389000D01*
X84083690Y-119171266D01*
X83998734Y-118966165D01*
X83875398Y-118781579D01*
X83718421Y-118624602D01*
X83533835Y-118501266D01*
X83328734Y-118416310D01*
X83111000Y-118373000D01*
X82889000Y-118373000D01*
X82671266Y-118416310D01*
X82466165Y-118501266D01*
X82281579Y-118624602D01*
X82124602Y-118781579D01*
X82001266Y-118966165D01*
X81916310Y-119171266D01*
X81873000Y-119389000D01*
X77873169Y-119389000D01*
X75927000Y-117442832D01*
X75927000Y-115042987D01*
X76033835Y-114998734D01*
X76218421Y-114875398D01*
X76375398Y-114718421D01*
X76498734Y-114533835D01*
X76558726Y-114389000D01*
X81753000Y-114389000D01*
X81753000Y-114611000D01*
X81796310Y-114828734D01*
X81881266Y-115033835D01*
X82004602Y-115218421D01*
X82161579Y-115375398D01*
X82346165Y-115498734D01*
X82551266Y-115583690D01*
X82769000Y-115627000D01*
X82991000Y-115627000D01*
X83208734Y-115583690D01*
X83413835Y-115498734D01*
X83598421Y-115375398D01*
X83755398Y-115218421D01*
X83878734Y-115033835D01*
X83963690Y-114828734D01*
X84007000Y-114611000D01*
X84007000Y-114389000D01*
X83963690Y-114171266D01*
X83878734Y-113966165D01*
X83755398Y-113781579D01*
X83598421Y-113624602D01*
X83413835Y-113501266D01*
X83208734Y-113416310D01*
X82991000Y-113373000D01*
X82769000Y-113373000D01*
X82551266Y-113416310D01*
X82346165Y-113501266D01*
X82161579Y-113624602D01*
X82004602Y-113781579D01*
X81881266Y-113966165D01*
X81796310Y-114171266D01*
X81753000Y-114389000D01*
X76558726Y-114389000D01*
X76583690Y-114328734D01*
X76627000Y-114111000D01*
X76627000Y-113889000D01*
X76583690Y-113671266D01*
X76498734Y-113466165D01*
X76375398Y-113281579D01*
X76218421Y-113124602D01*
X76033835Y-113001266D01*
X75828734Y-112916310D01*
X75611000Y-112873000D01*
X75389000Y-112873000D01*
X75171266Y-112916310D01*
X74966165Y-113001266D01*
X74781579Y-113124602D01*
X74624602Y-113281579D01*
X74501266Y-113466165D01*
X74416310Y-113671266D01*
X74373000Y-113889000D01*
X74373000Y-114111000D01*
X74416310Y-114328734D01*
X74501266Y-114533835D01*
X74624602Y-114718421D01*
X74781579Y-114875398D01*
X74966165Y-114998734D01*
X75073001Y-115042987D01*
X75073000Y-117598733D01*
X75070935Y-117619700D01*
X75073000Y-117640667D01*
X75073000Y-117640677D01*
X75079178Y-117703406D01*
X75103595Y-117783895D01*
X75103596Y-117783896D01*
X75143245Y-117858076D01*
X75160003Y-117878495D01*
X75196605Y-117923095D01*
X75212900Y-117936468D01*
X77402312Y-120125881D01*
X77346430Y-120149028D01*
X77129087Y-120294252D01*
X76944252Y-120479087D01*
X76799028Y-120696430D01*
X76698996Y-120937928D01*
X76648000Y-121194302D01*
X76648000Y-121262630D01*
X69334340Y-113948972D01*
X69331122Y-113916293D01*
X69306705Y-113835804D01*
X69267055Y-113761624D01*
X69213695Y-113696605D01*
X69148676Y-113643245D01*
X69074496Y-113603595D01*
X69008582Y-113583599D01*
X69008582Y-113200000D01*
X69002268Y-113135897D01*
X68983570Y-113074257D01*
X68953206Y-113017450D01*
X68912343Y-112967657D01*
X68862550Y-112926794D01*
X68805743Y-112896430D01*
X68744103Y-112877732D01*
X68680000Y-112871418D01*
X67080000Y-112871418D01*
X67015897Y-112877732D01*
X66954257Y-112896430D01*
X66897450Y-112926794D01*
X66847657Y-112967657D01*
X66806794Y-113017450D01*
X66776430Y-113074257D01*
X66757732Y-113135897D01*
X66751418Y-113200000D01*
X60457400Y-113200000D01*
X60457400Y-104200000D01*
X64371418Y-104200000D01*
X64371418Y-105800000D01*
X64377732Y-105864103D01*
X64396430Y-105925743D01*
X64426794Y-105982550D01*
X64467657Y-106032343D01*
X64517450Y-106073206D01*
X64574257Y-106103570D01*
X64635897Y-106122268D01*
X64700000Y-106128582D01*
X66300000Y-106128582D01*
X66364103Y-106122268D01*
X66425743Y-106103570D01*
X66482550Y-106073206D01*
X66532343Y-106032343D01*
X66573206Y-105982550D01*
X66603570Y-105925743D01*
X66622268Y-105864103D01*
X66628582Y-105800000D01*
X66628582Y-104552450D01*
X69607489Y-107531358D01*
X69523996Y-107732928D01*
X69473000Y-107989302D01*
X69473000Y-108250698D01*
X69523996Y-108507072D01*
X69624028Y-108748570D01*
X69769252Y-108965913D01*
X69954087Y-109150748D01*
X70171430Y-109295972D01*
X70412928Y-109396004D01*
X70669302Y-109447000D01*
X70930698Y-109447000D01*
X71187072Y-109396004D01*
X71428570Y-109295972D01*
X71645913Y-109150748D01*
X71830748Y-108965913D01*
X71975972Y-108748570D01*
X72076004Y-108507072D01*
X72127000Y-108250698D01*
X72127000Y-107989302D01*
X82173000Y-107989302D01*
X82173000Y-108250698D01*
X82223996Y-108507072D01*
X82324028Y-108748570D01*
X82469252Y-108965913D01*
X82654087Y-109150748D01*
X82871430Y-109295972D01*
X83112928Y-109396004D01*
X83369302Y-109447000D01*
X83630698Y-109447000D01*
X83887072Y-109396004D01*
X84128570Y-109295972D01*
X84345913Y-109150748D01*
X84530748Y-108965913D01*
X84675972Y-108748570D01*
X84776004Y-108507072D01*
X84827000Y-108250698D01*
X84827000Y-107989302D01*
X84776004Y-107732928D01*
X84692511Y-107531358D01*
X87912265Y-104311604D01*
X87873000Y-104509000D01*
X87873000Y-104731000D01*
X87916310Y-104948734D01*
X88001266Y-105153835D01*
X88124602Y-105338421D01*
X88281579Y-105495398D01*
X88466165Y-105618734D01*
X88671266Y-105703690D01*
X88889000Y-105747000D01*
X89111000Y-105747000D01*
X89328734Y-105703690D01*
X89533835Y-105618734D01*
X89718421Y-105495398D01*
X89875398Y-105338421D01*
X89998734Y-105153835D01*
X90083690Y-104948734D01*
X90127000Y-104731000D01*
X90127000Y-104509000D01*
X90083690Y-104291266D01*
X89998734Y-104086165D01*
X89875398Y-103901579D01*
X89718421Y-103744602D01*
X89533835Y-103621266D01*
X89328734Y-103536310D01*
X89111000Y-103493000D01*
X88889000Y-103493000D01*
X88691604Y-103532265D01*
X92943209Y-99280660D01*
X99273000Y-99280660D01*
X99273000Y-99719340D01*
X99358582Y-100149592D01*
X99526458Y-100554880D01*
X99770176Y-100919630D01*
X100080370Y-101229824D01*
X100445120Y-101473542D01*
X100850408Y-101641418D01*
X101280660Y-101727000D01*
X101719340Y-101727000D01*
X102149592Y-101641418D01*
X102554880Y-101473542D01*
X102919630Y-101229824D01*
X103229824Y-100919630D01*
X103473542Y-100554880D01*
X103641418Y-100149592D01*
X103727000Y-99719340D01*
X103727000Y-99280660D01*
X103641418Y-98850408D01*
X103473542Y-98445120D01*
X103229824Y-98080370D01*
X102919630Y-97770176D01*
X102554880Y-97526458D01*
X102149592Y-97358582D01*
X101719340Y-97273000D01*
X101280660Y-97273000D01*
X100850408Y-97358582D01*
X100445120Y-97526458D01*
X100080370Y-97770176D01*
X99770176Y-98080370D01*
X99526458Y-98445120D01*
X99358582Y-98850408D01*
X99273000Y-99280660D01*
X92943209Y-99280660D01*
X99583548Y-92640321D01*
X99770176Y-92919630D01*
X100080370Y-93229824D01*
X100445120Y-93473542D01*
X100850408Y-93641418D01*
X101280660Y-93727000D01*
X101719340Y-93727000D01*
X102149592Y-93641418D01*
X102554880Y-93473542D01*
X102919630Y-93229824D01*
X103229824Y-92919630D01*
X103473542Y-92554880D01*
X103641418Y-92149592D01*
X103727000Y-91719340D01*
X103727000Y-91280660D01*
X103641418Y-90850408D01*
X103473542Y-90445120D01*
X103229824Y-90080370D01*
X102919630Y-89770176D01*
X102554880Y-89526458D01*
X102149592Y-89358582D01*
X101719340Y-89273000D01*
X101280660Y-89273000D01*
X100850408Y-89358582D01*
X100445120Y-89526458D01*
X100080370Y-89770176D01*
X99770176Y-90080370D01*
X99526458Y-90445120D01*
X99358582Y-90850408D01*
X99273000Y-91280660D01*
X99273000Y-91719340D01*
X99276947Y-91739184D01*
X84088642Y-106927489D01*
X83887072Y-106843996D01*
X83630698Y-106793000D01*
X83369302Y-106793000D01*
X83112928Y-106843996D01*
X82871430Y-106944028D01*
X82654087Y-107089252D01*
X82469252Y-107274087D01*
X82324028Y-107491430D01*
X82223996Y-107732928D01*
X82173000Y-107989302D01*
X72127000Y-107989302D01*
X72076004Y-107732928D01*
X71975972Y-107491430D01*
X71830748Y-107274087D01*
X71645913Y-107089252D01*
X71428570Y-106944028D01*
X71187072Y-106843996D01*
X70930698Y-106793000D01*
X70669302Y-106793000D01*
X70412928Y-106843996D01*
X70211358Y-106927489D01*
X66487068Y-103203200D01*
X66473695Y-103186905D01*
X66408676Y-103133545D01*
X66406250Y-103132248D01*
X66498734Y-102993835D01*
X66583690Y-102788734D01*
X66627000Y-102571000D01*
X66627000Y-102349000D01*
X66583690Y-102131266D01*
X66498734Y-101926165D01*
X66375398Y-101741579D01*
X66218421Y-101584602D01*
X66033835Y-101461266D01*
X65828734Y-101376310D01*
X65611000Y-101333000D01*
X65389000Y-101333000D01*
X65171266Y-101376310D01*
X64966165Y-101461266D01*
X64781579Y-101584602D01*
X64624602Y-101741579D01*
X64501266Y-101926165D01*
X64416310Y-102131266D01*
X64373000Y-102349000D01*
X64373000Y-102571000D01*
X64416310Y-102788734D01*
X64501266Y-102993835D01*
X64624602Y-103178421D01*
X64781579Y-103335398D01*
X64966165Y-103458734D01*
X65072149Y-103502634D01*
X65079178Y-103574007D01*
X65103595Y-103654496D01*
X65143245Y-103728676D01*
X65196605Y-103793695D01*
X65261624Y-103847055D01*
X65307204Y-103871418D01*
X64700000Y-103871418D01*
X64635897Y-103877732D01*
X64574257Y-103896430D01*
X64517450Y-103926794D01*
X64467657Y-103967657D01*
X64426794Y-104017450D01*
X64396430Y-104074257D01*
X64377732Y-104135897D01*
X64371418Y-104200000D01*
X60457400Y-104200000D01*
X60457400Y-103121667D01*
X60459465Y-103100700D01*
X60457400Y-103079733D01*
X60457400Y-103079722D01*
X60451222Y-103016993D01*
X60426805Y-102936504D01*
X60387156Y-102862325D01*
X60387155Y-102862323D01*
X60347168Y-102813599D01*
X60347164Y-102813595D01*
X60333795Y-102797305D01*
X60317506Y-102783937D01*
X58436894Y-100903326D01*
X58598421Y-100795398D01*
X58755398Y-100638421D01*
X58878734Y-100453835D01*
X58963690Y-100248734D01*
X59007000Y-100031000D01*
X59007000Y-99809000D01*
X58963690Y-99591266D01*
X58878734Y-99386165D01*
X58755398Y-99201579D01*
X58598421Y-99044602D01*
X58413835Y-98921266D01*
X58208734Y-98836310D01*
X57991000Y-98793000D01*
X57769000Y-98793000D01*
X57551266Y-98836310D01*
X57346165Y-98921266D01*
X57161579Y-99044602D01*
X57004602Y-99201579D01*
X56881266Y-99386165D01*
X56796310Y-99591266D01*
X56753000Y-99809000D01*
X56753000Y-100031000D01*
X56796310Y-100248734D01*
X56881266Y-100453835D01*
X57004602Y-100638421D01*
X57161579Y-100795398D01*
X57346165Y-100918734D01*
X57452150Y-100962635D01*
X57459179Y-101034006D01*
X57483596Y-101114496D01*
X57523245Y-101188676D01*
X57563232Y-101237400D01*
X57563237Y-101237405D01*
X57576606Y-101253695D01*
X57592896Y-101267064D01*
X57677110Y-101351278D01*
X57551266Y-101376310D01*
X57346165Y-101461266D01*
X57161579Y-101584602D01*
X57004602Y-101741579D01*
X56881266Y-101926165D01*
X56796310Y-102131266D01*
X56753000Y-102349000D01*
X56753000Y-102571000D01*
X56796310Y-102788734D01*
X56881266Y-102993835D01*
X57004602Y-103178421D01*
X57161579Y-103335398D01*
X57346165Y-103458734D01*
X57551266Y-103543690D01*
X57769000Y-103587000D01*
X57991000Y-103587000D01*
X58208734Y-103543690D01*
X58413835Y-103458734D01*
X58598421Y-103335398D01*
X58755398Y-103178421D01*
X58878734Y-102993835D01*
X58963690Y-102788734D01*
X58988722Y-102662890D01*
X59603400Y-103277569D01*
X59603401Y-114047748D01*
X59533835Y-114001266D01*
X59328734Y-113916310D01*
X59111000Y-113873000D01*
X58889000Y-113873000D01*
X58671266Y-113916310D01*
X58523779Y-113977401D01*
X58463707Y-113959178D01*
X58400978Y-113953000D01*
X58400967Y-113953000D01*
X58380000Y-113950935D01*
X58359033Y-113953000D01*
X56047000Y-113953000D01*
X56047000Y-110042987D01*
X56153835Y-109998734D01*
X56338421Y-109875398D01*
X56495398Y-109718421D01*
X56618734Y-109533835D01*
X56703690Y-109328734D01*
X56747000Y-109111000D01*
X56747000Y-108889000D01*
X56703690Y-108671266D01*
X56618734Y-108466165D01*
X56495398Y-108281579D01*
X56338421Y-108124602D01*
X56153835Y-108001266D01*
X55948734Y-107916310D01*
X55731000Y-107873000D01*
X55509000Y-107873000D01*
X55291266Y-107916310D01*
X55086165Y-108001266D01*
X54901579Y-108124602D01*
X54744602Y-108281579D01*
X54621266Y-108466165D01*
X54536310Y-108671266D01*
X54493000Y-108889000D01*
X54493000Y-109111000D01*
X54536310Y-109328734D01*
X54621266Y-109533835D01*
X54744602Y-109718421D01*
X54901579Y-109875398D01*
X55086165Y-109998734D01*
X55193000Y-110042987D01*
X55193001Y-114203129D01*
X52935569Y-116460563D01*
X52828734Y-116416310D01*
X52611000Y-116373000D01*
X52389000Y-116373000D01*
X52171266Y-116416310D01*
X51966165Y-116501266D01*
X51781579Y-116624602D01*
X51624602Y-116781579D01*
X51501266Y-116966165D01*
X51416310Y-117171266D01*
X51373000Y-117389000D01*
X51373000Y-117611000D01*
X51416310Y-117828734D01*
X51501266Y-118033835D01*
X51624602Y-118218421D01*
X51781579Y-118375398D01*
X51966165Y-118498734D01*
X52073001Y-118542987D01*
X52073000Y-119457013D01*
X51966165Y-119501266D01*
X51781579Y-119624602D01*
X51624602Y-119781579D01*
X51501266Y-119966165D01*
X51416310Y-120171266D01*
X51373000Y-120389000D01*
X51373000Y-120611000D01*
X51416310Y-120828734D01*
X51460563Y-120935569D01*
X51179600Y-121216532D01*
X51163305Y-121229905D01*
X51149933Y-121246199D01*
X51149932Y-121246200D01*
X51109945Y-121294924D01*
X51091636Y-121329178D01*
X51070295Y-121369105D01*
X51045878Y-121449594D01*
X51039700Y-121512323D01*
X51039700Y-121512333D01*
X51037635Y-121533300D01*
X48322951Y-121533300D01*
X48300743Y-121521430D01*
X48239103Y-121502732D01*
X48199716Y-121498852D01*
X48867406Y-120831163D01*
X48883695Y-120817795D01*
X48897064Y-120801505D01*
X48897068Y-120801501D01*
X48937055Y-120752777D01*
X48958248Y-120713127D01*
X48976705Y-120678596D01*
X49001122Y-120598107D01*
X49007300Y-120535378D01*
X49007300Y-120535367D01*
X49009365Y-120514400D01*
X49007300Y-120493433D01*
X49007300Y-117202268D01*
X50782570Y-115427000D01*
X51457013Y-115427000D01*
X51501266Y-115533835D01*
X51624602Y-115718421D01*
X51781579Y-115875398D01*
X51966165Y-115998734D01*
X52171266Y-116083690D01*
X52389000Y-116127000D01*
X52611000Y-116127000D01*
X52828734Y-116083690D01*
X53033835Y-115998734D01*
X53218421Y-115875398D01*
X53375398Y-115718421D01*
X53498734Y-115533835D01*
X53583690Y-115328734D01*
X53627000Y-115111000D01*
X53627000Y-114889000D01*
X53583690Y-114671266D01*
X53498734Y-114466165D01*
X53375398Y-114281579D01*
X53218421Y-114124602D01*
X53033835Y-114001266D01*
X52828734Y-113916310D01*
X52611000Y-113873000D01*
X52389000Y-113873000D01*
X52171266Y-113916310D01*
X51966165Y-114001266D01*
X51781579Y-114124602D01*
X51624602Y-114281579D01*
X51501266Y-114466165D01*
X51457013Y-114573000D01*
X50626666Y-114573000D01*
X50605699Y-114570935D01*
X50584732Y-114573000D01*
X50584722Y-114573000D01*
X50521993Y-114579178D01*
X50441504Y-114603595D01*
X50413851Y-114618376D01*
X50367323Y-114643245D01*
X50318598Y-114683232D01*
X50318589Y-114683241D01*
X50302305Y-114696605D01*
X50288941Y-114712889D01*
X48580301Y-116421531D01*
X48337351Y-116178582D01*
X48350000Y-116178582D01*
X48414103Y-116172268D01*
X48475743Y-116153570D01*
X48532550Y-116123206D01*
X48582343Y-116082343D01*
X48623206Y-116032550D01*
X48653570Y-115975743D01*
X48672268Y-115914103D01*
X48678582Y-115850000D01*
X48678582Y-114150000D01*
X48672268Y-114085897D01*
X48653570Y-114024257D01*
X48623206Y-113967450D01*
X48582343Y-113917657D01*
X48532550Y-113876794D01*
X48475743Y-113846430D01*
X48414103Y-113827732D01*
X48350000Y-113821418D01*
X46650000Y-113821418D01*
X46585897Y-113827732D01*
X46524257Y-113846430D01*
X46467450Y-113876794D01*
X46417657Y-113917657D01*
X46376794Y-113967450D01*
X46346430Y-114024257D01*
X46327732Y-114085897D01*
X46321418Y-114150000D01*
X41352000Y-114150000D01*
X41352000Y-101805660D01*
X45598000Y-101805660D01*
X45598000Y-102244340D01*
X45683582Y-102674592D01*
X45851458Y-103079880D01*
X46095176Y-103444630D01*
X46405370Y-103754824D01*
X46770120Y-103998542D01*
X47175408Y-104166418D01*
X47605660Y-104252000D01*
X48044340Y-104252000D01*
X48474592Y-104166418D01*
X48879880Y-103998542D01*
X49244630Y-103754824D01*
X49554824Y-103444630D01*
X49798542Y-103079880D01*
X49966418Y-102674592D01*
X50052000Y-102244340D01*
X50052000Y-101805660D01*
X49966418Y-101375408D01*
X49798542Y-100970120D01*
X49672453Y-100781415D01*
X50769705Y-99684164D01*
X50785995Y-99670795D01*
X50799364Y-99654505D01*
X50799368Y-99654501D01*
X50839355Y-99605777D01*
X50879004Y-99531597D01*
X50879005Y-99531596D01*
X50903422Y-99451107D01*
X50909600Y-99388378D01*
X50909600Y-99388367D01*
X50911665Y-99367400D01*
X50909600Y-99346433D01*
X50909600Y-96295001D01*
X50916310Y-96328734D01*
X51001266Y-96533835D01*
X51124602Y-96718421D01*
X51281579Y-96875398D01*
X51466165Y-96998734D01*
X51573000Y-97042987D01*
X51573001Y-104823129D01*
X48435569Y-107960563D01*
X48328734Y-107916310D01*
X48111000Y-107873000D01*
X47889000Y-107873000D01*
X47671266Y-107916310D01*
X47466165Y-108001266D01*
X47281579Y-108124602D01*
X47124602Y-108281579D01*
X47001266Y-108466165D01*
X46916310Y-108671266D01*
X46873000Y-108889000D01*
X46873000Y-109111000D01*
X46916310Y-109328734D01*
X47001266Y-109533835D01*
X47124602Y-109718421D01*
X47281579Y-109875398D01*
X47466165Y-109998734D01*
X47671266Y-110083690D01*
X47889000Y-110127000D01*
X48111000Y-110127000D01*
X48328734Y-110083690D01*
X48533835Y-109998734D01*
X48718421Y-109875398D01*
X48875398Y-109718421D01*
X48998734Y-109533835D01*
X49083690Y-109328734D01*
X49127000Y-109111000D01*
X49127000Y-108889000D01*
X49083690Y-108671266D01*
X49039437Y-108564431D01*
X52287111Y-105316759D01*
X52303395Y-105303395D01*
X52316759Y-105287111D01*
X52316768Y-105287102D01*
X52356755Y-105238377D01*
X52396404Y-105164197D01*
X52396405Y-105164196D01*
X52420822Y-105083707D01*
X52427000Y-105020978D01*
X52427000Y-105020966D01*
X52429065Y-105000001D01*
X52427000Y-104979036D01*
X52427000Y-104889000D01*
X56753000Y-104889000D01*
X56753000Y-105111000D01*
X56796310Y-105328734D01*
X56881266Y-105533835D01*
X57004602Y-105718421D01*
X57161579Y-105875398D01*
X57346165Y-105998734D01*
X57551266Y-106083690D01*
X57769000Y-106127000D01*
X57991000Y-106127000D01*
X58208734Y-106083690D01*
X58413835Y-105998734D01*
X58598421Y-105875398D01*
X58755398Y-105718421D01*
X58878734Y-105533835D01*
X58963690Y-105328734D01*
X59007000Y-105111000D01*
X59007000Y-104889000D01*
X58963690Y-104671266D01*
X58878734Y-104466165D01*
X58755398Y-104281579D01*
X58598421Y-104124602D01*
X58413835Y-104001266D01*
X58208734Y-103916310D01*
X57991000Y-103873000D01*
X57769000Y-103873000D01*
X57551266Y-103916310D01*
X57346165Y-104001266D01*
X57161579Y-104124602D01*
X57004602Y-104281579D01*
X56881266Y-104466165D01*
X56796310Y-104671266D01*
X56753000Y-104889000D01*
X52427000Y-104889000D01*
X52427000Y-97269000D01*
X56753000Y-97269000D01*
X56753000Y-97491000D01*
X56796310Y-97708734D01*
X56881266Y-97913835D01*
X57004602Y-98098421D01*
X57161579Y-98255398D01*
X57346165Y-98378734D01*
X57551266Y-98463690D01*
X57769000Y-98507000D01*
X57991000Y-98507000D01*
X58208734Y-98463690D01*
X58413835Y-98378734D01*
X58598421Y-98255398D01*
X58755398Y-98098421D01*
X58878734Y-97913835D01*
X58963690Y-97708734D01*
X59007000Y-97491000D01*
X59007000Y-97269000D01*
X58963690Y-97051266D01*
X58878734Y-96846165D01*
X58755398Y-96661579D01*
X58598421Y-96504602D01*
X58413835Y-96381266D01*
X58208734Y-96296310D01*
X57991000Y-96253000D01*
X57769000Y-96253000D01*
X57551266Y-96296310D01*
X57346165Y-96381266D01*
X57161579Y-96504602D01*
X57004602Y-96661579D01*
X56881266Y-96846165D01*
X56796310Y-97051266D01*
X56753000Y-97269000D01*
X52427000Y-97269000D01*
X52427000Y-97042987D01*
X52533835Y-96998734D01*
X52718421Y-96875398D01*
X52875398Y-96718421D01*
X52998734Y-96533835D01*
X53083690Y-96328734D01*
X53127000Y-96111000D01*
X53127000Y-95889000D01*
X53083690Y-95671266D01*
X52998734Y-95466165D01*
X52875398Y-95281579D01*
X52718421Y-95124602D01*
X52533835Y-95001266D01*
X52328734Y-94916310D01*
X52111000Y-94873000D01*
X51889000Y-94873000D01*
X51671266Y-94916310D01*
X51466165Y-95001266D01*
X51281579Y-95124602D01*
X51124602Y-95281579D01*
X51001266Y-95466165D01*
X50916310Y-95671266D01*
X50909600Y-95704999D01*
X50909600Y-92694268D01*
X51564431Y-92039437D01*
X51671266Y-92083690D01*
X51889000Y-92127000D01*
X52111000Y-92127000D01*
X52328734Y-92083690D01*
X52533835Y-91998734D01*
X52718421Y-91875398D01*
X52875398Y-91718421D01*
X52998734Y-91533835D01*
X53083690Y-91328734D01*
X53127000Y-91111000D01*
X53127000Y-90889000D01*
X53373000Y-90889000D01*
X53373000Y-91111000D01*
X53416310Y-91328734D01*
X53501266Y-91533835D01*
X53624602Y-91718421D01*
X53781579Y-91875398D01*
X53966165Y-91998734D01*
X54073000Y-92042987D01*
X54073001Y-94957013D01*
X53966165Y-95001266D01*
X53781579Y-95124602D01*
X53624602Y-95281579D01*
X53501266Y-95466165D01*
X53416310Y-95671266D01*
X53373000Y-95889000D01*
X53373000Y-96111000D01*
X53416310Y-96328734D01*
X53501266Y-96533835D01*
X53624602Y-96718421D01*
X53781579Y-96875398D01*
X53966165Y-96998734D01*
X54171266Y-97083690D01*
X54389000Y-97127000D01*
X54611000Y-97127000D01*
X54828734Y-97083690D01*
X55033835Y-96998734D01*
X55218421Y-96875398D01*
X55375398Y-96718421D01*
X55498734Y-96533835D01*
X55583690Y-96328734D01*
X55627000Y-96111000D01*
X55627000Y-95889000D01*
X55583690Y-95671266D01*
X55498734Y-95466165D01*
X55375398Y-95281579D01*
X55218421Y-95124602D01*
X55033835Y-95001266D01*
X54927000Y-94957013D01*
X54927000Y-92042987D01*
X55033835Y-91998734D01*
X55218421Y-91875398D01*
X55375398Y-91718421D01*
X55498734Y-91533835D01*
X55583690Y-91328734D01*
X55627000Y-91111000D01*
X55627000Y-90889000D01*
X55583690Y-90671266D01*
X55498734Y-90466165D01*
X55375398Y-90281579D01*
X55243819Y-90150000D01*
X57821418Y-90150000D01*
X57821418Y-91850000D01*
X57827732Y-91914103D01*
X57846430Y-91975743D01*
X57876794Y-92032550D01*
X57917657Y-92082343D01*
X57967450Y-92123206D01*
X58024257Y-92153570D01*
X58085897Y-92172268D01*
X58150000Y-92178582D01*
X59850000Y-92178582D01*
X59914103Y-92172268D01*
X59975743Y-92153570D01*
X60032550Y-92123206D01*
X60082343Y-92082343D01*
X60123206Y-92032550D01*
X60153570Y-91975743D01*
X60172268Y-91914103D01*
X60178582Y-91850000D01*
X60178582Y-90884076D01*
X60363000Y-90884076D01*
X60363000Y-91115924D01*
X60408231Y-91343318D01*
X60496956Y-91557519D01*
X60625764Y-91750294D01*
X60789706Y-91914236D01*
X60982481Y-92043044D01*
X61113000Y-92097107D01*
X61113001Y-94908723D01*
X61110935Y-94929700D01*
X61119179Y-95013406D01*
X61143596Y-95093896D01*
X61183245Y-95168076D01*
X61223232Y-95216800D01*
X61223237Y-95216805D01*
X61236606Y-95233095D01*
X61252896Y-95246464D01*
X64943105Y-98936674D01*
X64781579Y-99044602D01*
X64624602Y-99201579D01*
X64501266Y-99386165D01*
X64416310Y-99591266D01*
X64373000Y-99809000D01*
X64373000Y-100031000D01*
X64416310Y-100248734D01*
X64501266Y-100453835D01*
X64624602Y-100638421D01*
X64781579Y-100795398D01*
X64966165Y-100918734D01*
X65171266Y-101003690D01*
X65389000Y-101047000D01*
X65611000Y-101047000D01*
X65828734Y-101003690D01*
X66033835Y-100918734D01*
X66218421Y-100795398D01*
X66375398Y-100638421D01*
X66498734Y-100453835D01*
X66533748Y-100369302D01*
X69473000Y-100369302D01*
X69473000Y-100630698D01*
X69523996Y-100887072D01*
X69624028Y-101128570D01*
X69769252Y-101345913D01*
X69954087Y-101530748D01*
X70171430Y-101675972D01*
X70412928Y-101776004D01*
X70669302Y-101827000D01*
X70930698Y-101827000D01*
X71187072Y-101776004D01*
X71428570Y-101675972D01*
X71645913Y-101530748D01*
X71830748Y-101345913D01*
X71975972Y-101128570D01*
X72076004Y-100887072D01*
X72127000Y-100630698D01*
X72127000Y-100369302D01*
X82173000Y-100369302D01*
X82173000Y-100630698D01*
X82223996Y-100887072D01*
X82324028Y-101128570D01*
X82469252Y-101345913D01*
X82654087Y-101530748D01*
X82871430Y-101675972D01*
X83112928Y-101776004D01*
X83369302Y-101827000D01*
X83630698Y-101827000D01*
X83887072Y-101776004D01*
X84128570Y-101675972D01*
X84345913Y-101530748D01*
X84530748Y-101345913D01*
X84675972Y-101128570D01*
X84776004Y-100887072D01*
X84827000Y-100630698D01*
X84827000Y-100369302D01*
X84776004Y-100112928D01*
X84675972Y-99871430D01*
X84530748Y-99654087D01*
X84345913Y-99469252D01*
X84128570Y-99324028D01*
X83887072Y-99223996D01*
X83630698Y-99173000D01*
X83369302Y-99173000D01*
X83112928Y-99223996D01*
X82871430Y-99324028D01*
X82654087Y-99469252D01*
X82469252Y-99654087D01*
X82324028Y-99871430D01*
X82223996Y-100112928D01*
X82173000Y-100369302D01*
X72127000Y-100369302D01*
X72076004Y-100112928D01*
X71975972Y-99871430D01*
X71830748Y-99654087D01*
X71645913Y-99469252D01*
X71428570Y-99324028D01*
X71187072Y-99223996D01*
X70930698Y-99173000D01*
X70669302Y-99173000D01*
X70412928Y-99223996D01*
X70171430Y-99324028D01*
X69954087Y-99469252D01*
X69769252Y-99654087D01*
X69624028Y-99871430D01*
X69523996Y-100112928D01*
X69473000Y-100369302D01*
X66533748Y-100369302D01*
X66583690Y-100248734D01*
X66627000Y-100031000D01*
X66627000Y-99809000D01*
X66583690Y-99591266D01*
X66498734Y-99386165D01*
X66375398Y-99201579D01*
X66218421Y-99044602D01*
X66033835Y-98921266D01*
X65927850Y-98877365D01*
X65927000Y-98868733D01*
X65927000Y-98868722D01*
X65920822Y-98805993D01*
X65896405Y-98725504D01*
X65887176Y-98708238D01*
X65856756Y-98651323D01*
X65816768Y-98602599D01*
X65816764Y-98602595D01*
X65803395Y-98586305D01*
X65787105Y-98572936D01*
X65702891Y-98488722D01*
X65828734Y-98463690D01*
X66033835Y-98378734D01*
X66218421Y-98255398D01*
X66375398Y-98098421D01*
X66498734Y-97913835D01*
X66583690Y-97708734D01*
X66627000Y-97491000D01*
X66627000Y-97269000D01*
X66583690Y-97051266D01*
X66516477Y-96889000D01*
X87873000Y-96889000D01*
X87873000Y-97111000D01*
X87916310Y-97328734D01*
X88001266Y-97533835D01*
X88124602Y-97718421D01*
X88281579Y-97875398D01*
X88466165Y-97998734D01*
X88671266Y-98083690D01*
X88889000Y-98127000D01*
X89111000Y-98127000D01*
X89328734Y-98083690D01*
X89533835Y-97998734D01*
X89718421Y-97875398D01*
X89875398Y-97718421D01*
X89998734Y-97533835D01*
X90083690Y-97328734D01*
X90127000Y-97111000D01*
X90127000Y-96889000D01*
X90083690Y-96671266D01*
X89998734Y-96466165D01*
X89875398Y-96281579D01*
X89718421Y-96124602D01*
X89533835Y-96001266D01*
X89328734Y-95916310D01*
X89111000Y-95873000D01*
X88889000Y-95873000D01*
X88671266Y-95916310D01*
X88466165Y-96001266D01*
X88281579Y-96124602D01*
X88124602Y-96281579D01*
X88001266Y-96466165D01*
X87916310Y-96671266D01*
X87873000Y-96889000D01*
X66516477Y-96889000D01*
X66498734Y-96846165D01*
X66375398Y-96661579D01*
X66218421Y-96504602D01*
X66033835Y-96381266D01*
X65927850Y-96337365D01*
X65927000Y-96328734D01*
X65927000Y-96328722D01*
X65920822Y-96265993D01*
X65896405Y-96185504D01*
X65877948Y-96150973D01*
X65856755Y-96111323D01*
X65816768Y-96062598D01*
X65816759Y-96062589D01*
X65803395Y-96046305D01*
X65787111Y-96032941D01*
X64507000Y-94752832D01*
X64507000Y-92097107D01*
X64637519Y-92043044D01*
X64830294Y-91914236D01*
X64864530Y-91880000D01*
X69471418Y-91880000D01*
X69471418Y-93880000D01*
X69477732Y-93944103D01*
X69496430Y-94005743D01*
X69526794Y-94062550D01*
X69567657Y-94112343D01*
X69617450Y-94153206D01*
X69674257Y-94183570D01*
X69735897Y-94202268D01*
X69800000Y-94208582D01*
X71800000Y-94208582D01*
X71864103Y-94202268D01*
X71925743Y-94183570D01*
X71982550Y-94153206D01*
X72032343Y-94112343D01*
X72073206Y-94062550D01*
X72103570Y-94005743D01*
X72122268Y-93944103D01*
X72128582Y-93880000D01*
X72128582Y-92749302D01*
X82173000Y-92749302D01*
X82173000Y-93010698D01*
X82223996Y-93267072D01*
X82324028Y-93508570D01*
X82469252Y-93725913D01*
X82654087Y-93910748D01*
X82871430Y-94055972D01*
X83112928Y-94156004D01*
X83369302Y-94207000D01*
X83630698Y-94207000D01*
X83887072Y-94156004D01*
X84128570Y-94055972D01*
X84345913Y-93910748D01*
X84530748Y-93725913D01*
X84675972Y-93508570D01*
X84776004Y-93267072D01*
X84827000Y-93010698D01*
X84827000Y-92749302D01*
X84776004Y-92492928D01*
X84675972Y-92251430D01*
X84530748Y-92034087D01*
X84345913Y-91849252D01*
X84128570Y-91704028D01*
X83887072Y-91603996D01*
X83630698Y-91553000D01*
X83369302Y-91553000D01*
X83112928Y-91603996D01*
X82871430Y-91704028D01*
X82654087Y-91849252D01*
X82469252Y-92034087D01*
X82324028Y-92251430D01*
X82223996Y-92492928D01*
X82173000Y-92749302D01*
X72128582Y-92749302D01*
X72128582Y-91880000D01*
X72122268Y-91815897D01*
X72103570Y-91754257D01*
X72073206Y-91697450D01*
X72032343Y-91647657D01*
X71982550Y-91606794D01*
X71925743Y-91576430D01*
X71864103Y-91557732D01*
X71800000Y-91551418D01*
X69800000Y-91551418D01*
X69735897Y-91557732D01*
X69674257Y-91576430D01*
X69617450Y-91606794D01*
X69567657Y-91647657D01*
X69526794Y-91697450D01*
X69496430Y-91754257D01*
X69477732Y-91815897D01*
X69471418Y-91880000D01*
X64864530Y-91880000D01*
X64994236Y-91750294D01*
X65123044Y-91557519D01*
X65211769Y-91343318D01*
X65257000Y-91115924D01*
X65257000Y-90884076D01*
X65211769Y-90656682D01*
X65123044Y-90442481D01*
X64994236Y-90249706D01*
X64830294Y-90085764D01*
X64637519Y-89956956D01*
X64423318Y-89868231D01*
X64195924Y-89823000D01*
X63964076Y-89823000D01*
X63736682Y-89868231D01*
X63522481Y-89956956D01*
X63329706Y-90085764D01*
X63165764Y-90249706D01*
X63036956Y-90442481D01*
X62948231Y-90656682D01*
X62903000Y-90884076D01*
X62903000Y-91115924D01*
X62948231Y-91343318D01*
X63036956Y-91557519D01*
X63165764Y-91750294D01*
X63329706Y-91914236D01*
X63522481Y-92043044D01*
X63653000Y-92097107D01*
X63653001Y-94908723D01*
X63650935Y-94929700D01*
X63659179Y-95013406D01*
X63683596Y-95093896D01*
X63723245Y-95168076D01*
X63763232Y-95216800D01*
X63763237Y-95216805D01*
X63776606Y-95233095D01*
X63792895Y-95246463D01*
X64943105Y-96396674D01*
X64781579Y-96504602D01*
X64624602Y-96661579D01*
X64501266Y-96846165D01*
X64416310Y-97051266D01*
X64391278Y-97177110D01*
X61967000Y-94752832D01*
X61967000Y-92097107D01*
X62097519Y-92043044D01*
X62290294Y-91914236D01*
X62454236Y-91750294D01*
X62583044Y-91557519D01*
X62671769Y-91343318D01*
X62717000Y-91115924D01*
X62717000Y-90884076D01*
X62671769Y-90656682D01*
X62583044Y-90442481D01*
X62454236Y-90249706D01*
X62290294Y-90085764D01*
X62097519Y-89956956D01*
X61883318Y-89868231D01*
X61655924Y-89823000D01*
X61424076Y-89823000D01*
X61196682Y-89868231D01*
X60982481Y-89956956D01*
X60789706Y-90085764D01*
X60625764Y-90249706D01*
X60496956Y-90442481D01*
X60408231Y-90656682D01*
X60363000Y-90884076D01*
X60178582Y-90884076D01*
X60178582Y-90150000D01*
X60172268Y-90085897D01*
X60153570Y-90024257D01*
X60123206Y-89967450D01*
X60082343Y-89917657D01*
X60032550Y-89876794D01*
X59975743Y-89846430D01*
X59914103Y-89827732D01*
X59850000Y-89821418D01*
X58150000Y-89821418D01*
X58085897Y-89827732D01*
X58024257Y-89846430D01*
X57967450Y-89876794D01*
X57917657Y-89917657D01*
X57876794Y-89967450D01*
X57846430Y-90024257D01*
X57827732Y-90085897D01*
X57821418Y-90150000D01*
X55243819Y-90150000D01*
X55218421Y-90124602D01*
X55033835Y-90001266D01*
X54828734Y-89916310D01*
X54611000Y-89873000D01*
X54389000Y-89873000D01*
X54171266Y-89916310D01*
X53966165Y-90001266D01*
X53781579Y-90124602D01*
X53624602Y-90281579D01*
X53501266Y-90466165D01*
X53416310Y-90671266D01*
X53373000Y-90889000D01*
X53127000Y-90889000D01*
X53083690Y-90671266D01*
X52998734Y-90466165D01*
X52875398Y-90281579D01*
X52718421Y-90124602D01*
X52533835Y-90001266D01*
X52328734Y-89916310D01*
X52111000Y-89873000D01*
X51889000Y-89873000D01*
X51671266Y-89916310D01*
X51466165Y-90001266D01*
X51281579Y-90124602D01*
X51124602Y-90281579D01*
X51001266Y-90466165D01*
X50916310Y-90671266D01*
X50873000Y-90889000D01*
X50873000Y-91111000D01*
X50916310Y-91328734D01*
X50960563Y-91435569D01*
X50195500Y-92200632D01*
X50179205Y-92214005D01*
X50165833Y-92230299D01*
X50165832Y-92230300D01*
X50125845Y-92279024D01*
X50104652Y-92318674D01*
X50086195Y-92353205D01*
X50061778Y-92433694D01*
X50055600Y-92496423D01*
X50055600Y-92496433D01*
X50053535Y-92517400D01*
X50055600Y-92538367D01*
X50055601Y-99190530D01*
X49068585Y-100177547D01*
X48879880Y-100051458D01*
X48474592Y-99883582D01*
X48044340Y-99798000D01*
X47605660Y-99798000D01*
X47175408Y-99883582D01*
X46770120Y-100051458D01*
X46405370Y-100295176D01*
X46095176Y-100605370D01*
X45851458Y-100970120D01*
X45683582Y-101375408D01*
X45598000Y-101805660D01*
X41352000Y-101805660D01*
X41352000Y-96455660D01*
X45598000Y-96455660D01*
X45598000Y-96894340D01*
X45683582Y-97324592D01*
X45851458Y-97729880D01*
X46095176Y-98094630D01*
X46405370Y-98404824D01*
X46770120Y-98648542D01*
X47175408Y-98816418D01*
X47605660Y-98902000D01*
X48044340Y-98902000D01*
X48474592Y-98816418D01*
X48879880Y-98648542D01*
X49244630Y-98404824D01*
X49554824Y-98094630D01*
X49798542Y-97729880D01*
X49966418Y-97324592D01*
X50052000Y-96894340D01*
X50052000Y-96455660D01*
X49966418Y-96025408D01*
X49798542Y-95620120D01*
X49554824Y-95255370D01*
X49244630Y-94945176D01*
X48879880Y-94701458D01*
X48474592Y-94533582D01*
X48044340Y-94448000D01*
X47605660Y-94448000D01*
X47175408Y-94533582D01*
X46770120Y-94701458D01*
X46405370Y-94945176D01*
X46095176Y-95255370D01*
X45851458Y-95620120D01*
X45683582Y-96025408D01*
X45598000Y-96455660D01*
X41352000Y-96455660D01*
X41352000Y-85352000D01*
X110648000Y-85352000D01*
X110648001Y-139148000D01*
G37*
%TD.AperFunction*%
D28*
X57873000Y-114889000D02*
X57873000Y-115111000D01*
X57916310Y-115328734D01*
X58001266Y-115533835D01*
X58124602Y-115718421D01*
X58281579Y-115875398D01*
X58466165Y-115998734D01*
X58671266Y-116083690D01*
X58889000Y-116127000D01*
X59111000Y-116127000D01*
X59328734Y-116083690D01*
X59533835Y-115998734D01*
X59603401Y-115952252D01*
X59603401Y-116547748D01*
X59533835Y-116501266D01*
X59328734Y-116416310D01*
X59111000Y-116373000D01*
X58889000Y-116373000D01*
X58671266Y-116416310D01*
X58466165Y-116501266D01*
X58281579Y-116624602D01*
X58124602Y-116781579D01*
X58001266Y-116966165D01*
X57916310Y-117171266D01*
X57873000Y-117389000D01*
X57873000Y-117611000D01*
X57916310Y-117828734D01*
X58001266Y-118033835D01*
X58124602Y-118218421D01*
X58281579Y-118375398D01*
X58466165Y-118498734D01*
X58573001Y-118542987D01*
X58573000Y-119457013D01*
X58466165Y-119501266D01*
X58281579Y-119624602D01*
X58124602Y-119781579D01*
X58001266Y-119966165D01*
X57916310Y-120171266D01*
X57873000Y-120389000D01*
X57873000Y-120611000D01*
X57916310Y-120828734D01*
X58001266Y-121033835D01*
X58124602Y-121218421D01*
X58229181Y-121323000D01*
X53770967Y-121323000D01*
X53750000Y-121320935D01*
X53729033Y-121323000D01*
X53729022Y-121323000D01*
X53666293Y-121329178D01*
X53585804Y-121353595D01*
X53556789Y-121369104D01*
X53511623Y-121393245D01*
X53462899Y-121433232D01*
X53462895Y-121433236D01*
X53446605Y-121446605D01*
X53433236Y-121462895D01*
X52935569Y-121960563D01*
X52828734Y-121916310D01*
X52611000Y-121873000D01*
X52389000Y-121873000D01*
X52171266Y-121916310D01*
X51966165Y-122001266D01*
X51893700Y-122049685D01*
X51893700Y-121710168D01*
X52064431Y-121539437D01*
X52171266Y-121583690D01*
X52389000Y-121627000D01*
X52611000Y-121627000D01*
X52828734Y-121583690D01*
X53033835Y-121498734D01*
X53218421Y-121375398D01*
X53375398Y-121218421D01*
X53498734Y-121033835D01*
X53583690Y-120828734D01*
X53627000Y-120611000D01*
X53627000Y-120389000D01*
X53583690Y-120171266D01*
X53498734Y-119966165D01*
X53375398Y-119781579D01*
X53218421Y-119624602D01*
X53033835Y-119501266D01*
X52927000Y-119457013D01*
X52927000Y-118542987D01*
X53033835Y-118498734D01*
X53218421Y-118375398D01*
X53375398Y-118218421D01*
X53498734Y-118033835D01*
X53583690Y-117828734D01*
X53627000Y-117611000D01*
X53627000Y-117389000D01*
X53583690Y-117171266D01*
X53539437Y-117064431D01*
X55796870Y-114807000D01*
X57889311Y-114807000D01*
X57873000Y-114889000D01*
%TA.AperFunction,Conductor*%
D29*
G36*
X57873000Y-114889000D02*
G01*
X57873000Y-115111000D01*
X57916310Y-115328734D01*
X58001266Y-115533835D01*
X58124602Y-115718421D01*
X58281579Y-115875398D01*
X58466165Y-115998734D01*
X58671266Y-116083690D01*
X58889000Y-116127000D01*
X59111000Y-116127000D01*
X59328734Y-116083690D01*
X59533835Y-115998734D01*
X59603401Y-115952252D01*
X59603401Y-116547748D01*
X59533835Y-116501266D01*
X59328734Y-116416310D01*
X59111000Y-116373000D01*
X58889000Y-116373000D01*
X58671266Y-116416310D01*
X58466165Y-116501266D01*
X58281579Y-116624602D01*
X58124602Y-116781579D01*
X58001266Y-116966165D01*
X57916310Y-117171266D01*
X57873000Y-117389000D01*
X57873000Y-117611000D01*
X57916310Y-117828734D01*
X58001266Y-118033835D01*
X58124602Y-118218421D01*
X58281579Y-118375398D01*
X58466165Y-118498734D01*
X58573001Y-118542987D01*
X58573000Y-119457013D01*
X58466165Y-119501266D01*
X58281579Y-119624602D01*
X58124602Y-119781579D01*
X58001266Y-119966165D01*
X57916310Y-120171266D01*
X57873000Y-120389000D01*
X57873000Y-120611000D01*
X57916310Y-120828734D01*
X58001266Y-121033835D01*
X58124602Y-121218421D01*
X58229181Y-121323000D01*
X53770967Y-121323000D01*
X53750000Y-121320935D01*
X53729033Y-121323000D01*
X53729022Y-121323000D01*
X53666293Y-121329178D01*
X53585804Y-121353595D01*
X53556789Y-121369104D01*
X53511623Y-121393245D01*
X53462899Y-121433232D01*
X53462895Y-121433236D01*
X53446605Y-121446605D01*
X53433236Y-121462895D01*
X52935569Y-121960563D01*
X52828734Y-121916310D01*
X52611000Y-121873000D01*
X52389000Y-121873000D01*
X52171266Y-121916310D01*
X51966165Y-122001266D01*
X51893700Y-122049685D01*
X51893700Y-121710168D01*
X52064431Y-121539437D01*
X52171266Y-121583690D01*
X52389000Y-121627000D01*
X52611000Y-121627000D01*
X52828734Y-121583690D01*
X53033835Y-121498734D01*
X53218421Y-121375398D01*
X53375398Y-121218421D01*
X53498734Y-121033835D01*
X53583690Y-120828734D01*
X53627000Y-120611000D01*
X53627000Y-120389000D01*
X53583690Y-120171266D01*
X53498734Y-119966165D01*
X53375398Y-119781579D01*
X53218421Y-119624602D01*
X53033835Y-119501266D01*
X52927000Y-119457013D01*
X52927000Y-118542987D01*
X53033835Y-118498734D01*
X53218421Y-118375398D01*
X53375398Y-118218421D01*
X53498734Y-118033835D01*
X53583690Y-117828734D01*
X53627000Y-117611000D01*
X53627000Y-117389000D01*
X53583690Y-117171266D01*
X53539437Y-117064431D01*
X55796870Y-114807000D01*
X57889311Y-114807000D01*
X57873000Y-114889000D01*
G37*
%TD.AperFunction*%
%TD*%
M02*
