M48
; DRILL file {KiCad 5.1.10-88a1d61d58~88~ubuntu20.04.1} date Mon Jun 21 05:40:56 2021
; FORMAT={-:-/ absolute / metric / decimal}
; #@! TF.CreationDate,2021-06-21T05:40:56+02:00
; #@! TF.GenerationSoftware,Kicad,Pcbnew,5.1.10-88a1d61d58~88~ubuntu20.04.1
; #@! TF.FileFunction,Plated,1,2,PTH
FMAT,2
METRIC
T1C0.189
T2C0.800
T3C0.900
T4C1.000
T5C1.140
T6C2.200
%
G90
G05
T1
X71.0Y-127.5
X71.0Y-128.255
X71.755Y-127.5
X71.755Y-128.255
T2
X47.5Y-122.5
X47.5Y-124.5
X52.5Y-115.0
X52.5Y-117.5
X52.5Y-120.5
X52.5Y-123.0
X52.5Y-125.5
X52.5Y-128.0
X59.0Y-115.0
X59.0Y-117.5
X59.0Y-120.5
X59.0Y-123.0
X67.88Y-114.0
X71.0Y-106.0
X71.5Y-91.0
X73.5Y-106.0
X74.0Y-91.0
X75.5Y-114.0
X80.0Y-91.0
X80.0Y-98.62
X80.0Y-102.0
X80.0Y-109.62
X82.88Y-114.5
X83.0Y-119.5
X84.0Y-123.5
X84.0Y-131.12
X88.5Y-123.5
X88.5Y-131.12
X90.5Y-114.5
X90.62Y-119.5
X94.5Y-125.5
X94.5Y-128.0
X95.0Y-114.5
X95.0Y-119.5
X97.5Y-114.5
X97.5Y-119.5
T3
X101.5Y-123.96
X101.5Y-126.5
T4
X47.5Y-115.0
X47.5Y-117.54
X65.275Y-121.325
X77.975Y-121.325
T5
X54.3Y-90.88
X54.3Y-98.5
X54.3Y-106.12
X67.0Y-90.88
X67.0Y-98.5
X67.0Y-106.12
T6
X45.5Y-89.0
X45.5Y-135.5
X47.825Y-96.675
X47.825Y-102.025
X101.5Y-91.5
X101.5Y-99.5
X101.5Y-107.0
X107.0Y-89.0
X107.0Y-135.5
T0
M30
