%TF.GenerationSoftware,KiCad,Pcbnew,5.1.10*%
%TF.CreationDate,2021-06-23T04:39:20+02:00*%
%TF.ProjectId,supply,73757070-6c79-42e6-9b69-6361645f7063,rev?*%
%TF.SameCoordinates,Original*%
%TF.FileFunction,Legend,Top*%
%TF.FilePolarity,Positive*%
%FSLAX46Y46*%
G04 Gerber Fmt 4.6, Leading zero omitted, Abs format (unit mm)*
G04 Created by KiCad (PCBNEW 5.1.10) date 2021-06-23 04:39:20*
%MOMM*%
%LPD*%
G01*
G04 APERTURE LIST*
%ADD10C,0.120000*%
%ADD11C,0.150000*%
G04 APERTURE END LIST*
D10*
X70750000Y-126250000D02*
X72500000Y-126250000D01*
X73000000Y-129000000D02*
X73000000Y-126750000D01*
X69750000Y-127250000D02*
X69750000Y-129000000D01*
X70750000Y-126250000D02*
X69750000Y-127250000D01*
X69000000Y-127500000D02*
X68500000Y-127000000D01*
X68500000Y-127000000D02*
X69000000Y-127500000D01*
X69500000Y-127000000D02*
X68500000Y-127000000D01*
D11*
X105452380Y-108952380D02*
X104452380Y-108952380D01*
X104452380Y-108571428D01*
X104500000Y-108476190D01*
X104547619Y-108428571D01*
X104642857Y-108380952D01*
X104785714Y-108380952D01*
X104880952Y-108428571D01*
X104928571Y-108476190D01*
X104976190Y-108571428D01*
X104976190Y-108952380D01*
X105452380Y-107952380D02*
X104452380Y-107952380D01*
X104928571Y-107952380D02*
X104928571Y-107380952D01*
X105452380Y-107380952D02*
X104452380Y-107380952D01*
X105166666Y-106952380D02*
X105166666Y-106476190D01*
X105452380Y-107047619D02*
X104452380Y-106714285D01*
X105452380Y-106380952D01*
X105452380Y-106047619D02*
X104452380Y-106047619D01*
X105452380Y-105476190D01*
X104452380Y-105476190D01*
X104452380Y-105142857D02*
X104452380Y-104571428D01*
X105452380Y-104857142D02*
X104452380Y-104857142D01*
X104452380Y-104047619D02*
X104452380Y-103857142D01*
X104500000Y-103761904D01*
X104595238Y-103666666D01*
X104785714Y-103619047D01*
X105119047Y-103619047D01*
X105309523Y-103666666D01*
X105404761Y-103761904D01*
X105452380Y-103857142D01*
X105452380Y-104047619D01*
X105404761Y-104142857D01*
X105309523Y-104238095D01*
X105119047Y-104285714D01*
X104785714Y-104285714D01*
X104595238Y-104238095D01*
X104500000Y-104142857D01*
X104452380Y-104047619D01*
X105452380Y-103190476D02*
X104452380Y-103190476D01*
X105166666Y-102857142D01*
X104452380Y-102523809D01*
X105452380Y-102523809D01*
X105452380Y-101285714D02*
X104452380Y-101285714D01*
X104452380Y-100904761D01*
X104500000Y-100809523D01*
X104547619Y-100761904D01*
X104642857Y-100714285D01*
X104785714Y-100714285D01*
X104880952Y-100761904D01*
X104928571Y-100809523D01*
X104976190Y-100904761D01*
X104976190Y-101285714D01*
X104452380Y-100095238D02*
X104452380Y-99904761D01*
X104500000Y-99809523D01*
X104595238Y-99714285D01*
X104785714Y-99666666D01*
X105119047Y-99666666D01*
X105309523Y-99714285D01*
X105404761Y-99809523D01*
X105452380Y-99904761D01*
X105452380Y-100095238D01*
X105404761Y-100190476D01*
X105309523Y-100285714D01*
X105119047Y-100333333D01*
X104785714Y-100333333D01*
X104595238Y-100285714D01*
X104500000Y-100190476D01*
X104452380Y-100095238D01*
X104452380Y-99333333D02*
X105452380Y-99095238D01*
X104738095Y-98904761D01*
X105452380Y-98714285D01*
X104452380Y-98476190D01*
X104928571Y-98095238D02*
X104928571Y-97761904D01*
X105452380Y-97619047D02*
X105452380Y-98095238D01*
X104452380Y-98095238D01*
X104452380Y-97619047D01*
X105452380Y-96619047D02*
X104976190Y-96952380D01*
X105452380Y-97190476D02*
X104452380Y-97190476D01*
X104452380Y-96809523D01*
X104500000Y-96714285D01*
X104547619Y-96666666D01*
X104642857Y-96619047D01*
X104785714Y-96619047D01*
X104880952Y-96666666D01*
X104928571Y-96714285D01*
X104976190Y-96809523D01*
X104976190Y-97190476D01*
X104452380Y-95238095D02*
X104452380Y-95047619D01*
X104500000Y-94952380D01*
X104595238Y-94857142D01*
X104785714Y-94809523D01*
X105119047Y-94809523D01*
X105309523Y-94857142D01*
X105404761Y-94952380D01*
X105452380Y-95047619D01*
X105452380Y-95238095D01*
X105404761Y-95333333D01*
X105309523Y-95428571D01*
X105119047Y-95476190D01*
X104785714Y-95476190D01*
X104595238Y-95428571D01*
X104500000Y-95333333D01*
X104452380Y-95238095D01*
X104452380Y-94380952D02*
X105261904Y-94380952D01*
X105357142Y-94333333D01*
X105404761Y-94285714D01*
X105452380Y-94190476D01*
X105452380Y-94000000D01*
X105404761Y-93904761D01*
X105357142Y-93857142D01*
X105261904Y-93809523D01*
X104452380Y-93809523D01*
X104452380Y-93476190D02*
X104452380Y-92904761D01*
X105452380Y-93190476D02*
X104452380Y-93190476D01*
X43166666Y-103333333D02*
X43166666Y-102857142D01*
X43452380Y-103428571D02*
X42452380Y-103095238D01*
X43452380Y-102761904D01*
X42452380Y-102428571D02*
X43261904Y-102428571D01*
X43357142Y-102380952D01*
X43404761Y-102333333D01*
X43452380Y-102238095D01*
X43452380Y-102047619D01*
X43404761Y-101952380D01*
X43357142Y-101904761D01*
X43261904Y-101857142D01*
X42452380Y-101857142D01*
X43452380Y-101380952D02*
X42452380Y-101380952D01*
X42452380Y-101142857D01*
X42500000Y-101000000D01*
X42595238Y-100904761D01*
X42690476Y-100857142D01*
X42880952Y-100809523D01*
X43023809Y-100809523D01*
X43214285Y-100857142D01*
X43309523Y-100904761D01*
X43404761Y-101000000D01*
X43452380Y-101142857D01*
X43452380Y-101380952D01*
X43452380Y-100380952D02*
X42452380Y-100380952D01*
X42452380Y-99714285D02*
X42452380Y-99523809D01*
X42500000Y-99428571D01*
X42595238Y-99333333D01*
X42785714Y-99285714D01*
X43119047Y-99285714D01*
X43309523Y-99333333D01*
X43404761Y-99428571D01*
X43452380Y-99523809D01*
X43452380Y-99714285D01*
X43404761Y-99809523D01*
X43309523Y-99904761D01*
X43119047Y-99952380D01*
X42785714Y-99952380D01*
X42595238Y-99904761D01*
X42500000Y-99809523D01*
X42452380Y-99714285D01*
X42452380Y-97904761D02*
X42452380Y-97714285D01*
X42500000Y-97619047D01*
X42595238Y-97523809D01*
X42785714Y-97476190D01*
X43119047Y-97476190D01*
X43309523Y-97523809D01*
X43404761Y-97619047D01*
X43452380Y-97714285D01*
X43452380Y-97904761D01*
X43404761Y-98000000D01*
X43309523Y-98095238D01*
X43119047Y-98142857D01*
X42785714Y-98142857D01*
X42595238Y-98095238D01*
X42500000Y-98000000D01*
X42452380Y-97904761D01*
X42452380Y-97047619D02*
X43261904Y-97047619D01*
X43357142Y-97000000D01*
X43404761Y-96952380D01*
X43452380Y-96857142D01*
X43452380Y-96666666D01*
X43404761Y-96571428D01*
X43357142Y-96523809D01*
X43261904Y-96476190D01*
X42452380Y-96476190D01*
X42452380Y-96142857D02*
X42452380Y-95571428D01*
X43452380Y-95857142D02*
X42452380Y-95857142D01*
D10*
%TO.C,PTC1*%
X100580000Y-117880000D02*
X100580000Y-114040000D01*
X102420000Y-117880000D02*
X102420000Y-114040000D01*
%TO.C,BT1*%
X46170000Y-113670000D02*
X47500000Y-113670000D01*
X46170000Y-115000000D02*
X46170000Y-113670000D01*
X46170000Y-116270000D02*
X48830000Y-116270000D01*
X48830000Y-116270000D02*
X48830000Y-118870000D01*
X46170000Y-116270000D02*
X46170000Y-118870000D01*
X46170000Y-118870000D02*
X48830000Y-118870000D01*
%TO.C,R3*%
X96040000Y-102540000D02*
X96370000Y-102540000D01*
X96370000Y-102540000D02*
X96370000Y-109080000D01*
X96370000Y-109080000D02*
X96040000Y-109080000D01*
X93960000Y-102540000D02*
X93630000Y-102540000D01*
X93630000Y-102540000D02*
X93630000Y-109080000D01*
X93630000Y-109080000D02*
X93960000Y-109080000D01*
%TO.C,R4*%
X93630000Y-98080000D02*
X93960000Y-98080000D01*
X93630000Y-91540000D02*
X93630000Y-98080000D01*
X93960000Y-91540000D02*
X93630000Y-91540000D01*
X96370000Y-98080000D02*
X96040000Y-98080000D01*
X96370000Y-91540000D02*
X96370000Y-98080000D01*
X96040000Y-91540000D02*
X96370000Y-91540000D01*
%TO.C,TR1*%
X69700000Y-92600000D02*
X85600000Y-92580000D01*
X85600000Y-92580000D02*
X85600000Y-109420000D01*
X85600000Y-109420000D02*
X69700000Y-109420000D01*
X69700000Y-109420000D02*
X69700000Y-92600000D01*
%TO.C,C1*%
X53920000Y-114230000D02*
X53920000Y-118270000D01*
X51080000Y-114230000D02*
X51080000Y-118270000D01*
X53920000Y-114230000D02*
X53295000Y-114230000D01*
X51705000Y-114230000D02*
X51080000Y-114230000D01*
X53920000Y-118270000D02*
X53295000Y-118270000D01*
X51705000Y-118270000D02*
X51080000Y-118270000D01*
%TO.C,C2*%
X51080000Y-123770000D02*
X51080000Y-119730000D01*
X53920000Y-123770000D02*
X53920000Y-119730000D01*
X51080000Y-123770000D02*
X51705000Y-123770000D01*
X53295000Y-123770000D02*
X53920000Y-123770000D01*
X51080000Y-119730000D02*
X51705000Y-119730000D01*
X53295000Y-119730000D02*
X53920000Y-119730000D01*
%TO.C,C3*%
X98270000Y-115295000D02*
X98270000Y-115920000D01*
X98270000Y-113080000D02*
X98270000Y-113705000D01*
X94230000Y-115295000D02*
X94230000Y-115920000D01*
X94230000Y-113080000D02*
X94230000Y-113705000D01*
X94230000Y-115920000D02*
X98270000Y-115920000D01*
X94230000Y-113080000D02*
X98270000Y-113080000D01*
%TO.C,C4*%
X53295000Y-124730000D02*
X53920000Y-124730000D01*
X51080000Y-124730000D02*
X51705000Y-124730000D01*
X53295000Y-128770000D02*
X53920000Y-128770000D01*
X51080000Y-128770000D02*
X51705000Y-128770000D01*
X53920000Y-128770000D02*
X53920000Y-124730000D01*
X51080000Y-128770000D02*
X51080000Y-124730000D01*
%TO.C,C5*%
X88205000Y-94770000D02*
X87580000Y-94770000D01*
X90420000Y-94770000D02*
X89795000Y-94770000D01*
X88205000Y-90730000D02*
X87580000Y-90730000D01*
X90420000Y-90730000D02*
X89795000Y-90730000D01*
X87580000Y-90730000D02*
X87580000Y-94770000D01*
X90420000Y-90730000D02*
X90420000Y-94770000D01*
%TO.C,C6*%
X90420000Y-106730000D02*
X90420000Y-110770000D01*
X87580000Y-106730000D02*
X87580000Y-110770000D01*
X90420000Y-106730000D02*
X89795000Y-106730000D01*
X88205000Y-106730000D02*
X87580000Y-106730000D01*
X90420000Y-110770000D02*
X89795000Y-110770000D01*
X88205000Y-110770000D02*
X87580000Y-110770000D01*
%TO.C,C7*%
X57580000Y-118270000D02*
X57580000Y-114230000D01*
X60420000Y-118270000D02*
X60420000Y-114230000D01*
X57580000Y-118270000D02*
X58205000Y-118270000D01*
X59795000Y-118270000D02*
X60420000Y-118270000D01*
X57580000Y-114230000D02*
X58205000Y-114230000D01*
X59795000Y-114230000D02*
X60420000Y-114230000D01*
%TO.C,C8*%
X58205000Y-123770000D02*
X57580000Y-123770000D01*
X60420000Y-123770000D02*
X59795000Y-123770000D01*
X58205000Y-119730000D02*
X57580000Y-119730000D01*
X60420000Y-119730000D02*
X59795000Y-119730000D01*
X57580000Y-119730000D02*
X57580000Y-123770000D01*
X60420000Y-119730000D02*
X60420000Y-123770000D01*
%TO.C,C9*%
X94230000Y-118080000D02*
X98270000Y-118080000D01*
X94230000Y-120920000D02*
X98270000Y-120920000D01*
X94230000Y-118080000D02*
X94230000Y-118705000D01*
X94230000Y-120295000D02*
X94230000Y-120920000D01*
X98270000Y-118080000D02*
X98270000Y-118705000D01*
X98270000Y-120295000D02*
X98270000Y-120920000D01*
%TO.C,C10*%
X95295000Y-124730000D02*
X95920000Y-124730000D01*
X93080000Y-124730000D02*
X93705000Y-124730000D01*
X95295000Y-128770000D02*
X95920000Y-128770000D01*
X93080000Y-128770000D02*
X93705000Y-128770000D01*
X95920000Y-128770000D02*
X95920000Y-124730000D01*
X93080000Y-128770000D02*
X93080000Y-124730000D01*
%TO.C,D1*%
X70170000Y-112880000D02*
X70170000Y-115120000D01*
X70410000Y-112880000D02*
X70410000Y-115120000D01*
X70290000Y-112880000D02*
X70290000Y-115120000D01*
X74460000Y-114000000D02*
X73810000Y-114000000D01*
X68920000Y-114000000D02*
X69570000Y-114000000D01*
X73810000Y-112880000D02*
X69570000Y-112880000D01*
X73810000Y-115120000D02*
X73810000Y-112880000D01*
X69570000Y-115120000D02*
X73810000Y-115120000D01*
X69570000Y-112880000D02*
X69570000Y-115120000D01*
%TO.C,L1*%
X76735000Y-121325000D02*
X76495000Y-121325000D01*
X66515000Y-121325000D02*
X66755000Y-121325000D01*
X76495000Y-119205000D02*
X66755000Y-119205000D01*
X76495000Y-123445000D02*
X76495000Y-119205000D01*
X66755000Y-123445000D02*
X76495000Y-123445000D01*
X66755000Y-119205000D02*
X66755000Y-123445000D01*
%TO.C,R1*%
X83540000Y-118460000D02*
X83540000Y-118130000D01*
X83540000Y-118130000D02*
X90080000Y-118130000D01*
X90080000Y-118130000D02*
X90080000Y-118460000D01*
X83540000Y-120540000D02*
X83540000Y-120870000D01*
X83540000Y-120870000D02*
X90080000Y-120870000D01*
X90080000Y-120870000D02*
X90080000Y-120540000D01*
%TO.C,R2*%
X89960000Y-115870000D02*
X89960000Y-115540000D01*
X83420000Y-115870000D02*
X89960000Y-115870000D01*
X83420000Y-115540000D02*
X83420000Y-115870000D01*
X89960000Y-113130000D02*
X89960000Y-113460000D01*
X83420000Y-113130000D02*
X89960000Y-113130000D01*
X83420000Y-113460000D02*
X83420000Y-113130000D01*
%TO.C,R5*%
X82630000Y-130580000D02*
X82960000Y-130580000D01*
X82630000Y-124040000D02*
X82630000Y-130580000D01*
X82960000Y-124040000D02*
X82630000Y-124040000D01*
X85370000Y-130580000D02*
X85040000Y-130580000D01*
X85370000Y-124040000D02*
X85370000Y-130580000D01*
X85040000Y-124040000D02*
X85370000Y-124040000D01*
%TO.C,R6*%
X87460000Y-130580000D02*
X87130000Y-130580000D01*
X87130000Y-130580000D02*
X87130000Y-124040000D01*
X87130000Y-124040000D02*
X87460000Y-124040000D01*
X89540000Y-130580000D02*
X89870000Y-130580000D01*
X89870000Y-130580000D02*
X89870000Y-124040000D01*
X89870000Y-124040000D02*
X89540000Y-124040000D01*
%TO.C,SW1*%
X48560000Y-121440000D02*
X48560000Y-122500000D01*
X47500000Y-121440000D02*
X48560000Y-121440000D01*
X48560000Y-123500000D02*
X48560000Y-125560000D01*
X46500000Y-123500000D02*
X48560000Y-123500000D01*
X46500000Y-121440000D02*
X46500000Y-123500000D01*
X48560000Y-125560000D02*
X46440000Y-125560000D01*
X46500000Y-121440000D02*
X46440000Y-121440000D01*
X46440000Y-121440000D02*
X46440000Y-125560000D01*
%TO.C,U1*%
X70127500Y-126153000D02*
X69502500Y-126153000D01*
X69652500Y-129603000D02*
X69652500Y-129128000D01*
X70127500Y-129603000D02*
X69652500Y-129603000D01*
X73102500Y-129603000D02*
X73102500Y-129128000D01*
X72627500Y-129603000D02*
X73102500Y-129603000D01*
X73102500Y-126153000D02*
X73102500Y-126628000D01*
X72627500Y-126153000D02*
X73102500Y-126153000D01*
%TO.C,C11*%
X51205000Y-93270000D02*
X50580000Y-93270000D01*
X53420000Y-93270000D02*
X52795000Y-93270000D01*
X51205000Y-89230000D02*
X50580000Y-89230000D01*
X53420000Y-89230000D02*
X52795000Y-89230000D01*
X50580000Y-89230000D02*
X50580000Y-93270000D01*
X53420000Y-89230000D02*
X53420000Y-93270000D01*
%TO.C,R7*%
X55370000Y-98040000D02*
X55040000Y-98040000D01*
X55370000Y-104580000D02*
X55370000Y-98040000D01*
X55040000Y-104580000D02*
X55370000Y-104580000D01*
X52630000Y-98040000D02*
X52960000Y-98040000D01*
X52630000Y-104580000D02*
X52630000Y-98040000D01*
X52960000Y-104580000D02*
X52630000Y-104580000D01*
%TO.C,RV1*%
X57670000Y-92330000D02*
X57670000Y-91000000D01*
X59000000Y-92330000D02*
X57670000Y-92330000D01*
X60270000Y-92330000D02*
X60270000Y-89670000D01*
X60270000Y-89670000D02*
X65410000Y-89670000D01*
X60270000Y-92330000D02*
X65410000Y-92330000D01*
X65410000Y-92330000D02*
X65410000Y-89670000D01*
%TO.C,U2*%
X67330000Y-96110000D02*
X57050000Y-96110000D01*
X67330000Y-106510000D02*
X67330000Y-96110000D01*
X57050000Y-106510000D02*
X67330000Y-106510000D01*
X57050000Y-96110000D02*
X57050000Y-106510000D01*
X64840000Y-96170000D02*
X63190000Y-96170000D01*
X64840000Y-106450000D02*
X64840000Y-96170000D01*
X59540000Y-106450000D02*
X64840000Y-106450000D01*
X59540000Y-96170000D02*
X59540000Y-106450000D01*
X61190000Y-96170000D02*
X59540000Y-96170000D01*
X63190000Y-96170000D02*
G75*
G02*
X61190000Y-96170000I-1000000J0D01*
G01*
%TO.C,D2*%
X100190000Y-128690000D02*
X100190000Y-123770000D01*
X102810000Y-128690000D02*
X102810000Y-123770000D01*
X100190000Y-128690000D02*
X102810000Y-128690000D01*
X100190000Y-123770000D02*
X102810000Y-123770000D01*
X100190000Y-128570000D02*
X100420000Y-128570000D01*
X102580000Y-128570000D02*
X102810000Y-128570000D01*
X100190000Y-128450000D02*
X100420000Y-128450000D01*
X102580000Y-128450000D02*
X102810000Y-128450000D01*
%TO.C,R8*%
X88110000Y-136420000D02*
X88110000Y-134580000D01*
X88110000Y-134580000D02*
X84270000Y-134580000D01*
X84270000Y-134580000D02*
X84270000Y-136420000D01*
X84270000Y-136420000D02*
X88110000Y-136420000D01*
X89060000Y-135500000D02*
X88110000Y-135500000D01*
X83320000Y-135500000D02*
X84270000Y-135500000D01*
%TO.C,PTC1*%
D11*
X100032380Y-117579047D02*
X99032380Y-117579047D01*
X99032380Y-117198095D01*
X99080000Y-117102857D01*
X99127619Y-117055238D01*
X99222857Y-117007619D01*
X99365714Y-117007619D01*
X99460952Y-117055238D01*
X99508571Y-117102857D01*
X99556190Y-117198095D01*
X99556190Y-117579047D01*
X99032380Y-116721904D02*
X99032380Y-116150476D01*
X100032380Y-116436190D02*
X99032380Y-116436190D01*
X99937142Y-115245714D02*
X99984761Y-115293333D01*
X100032380Y-115436190D01*
X100032380Y-115531428D01*
X99984761Y-115674285D01*
X99889523Y-115769523D01*
X99794285Y-115817142D01*
X99603809Y-115864761D01*
X99460952Y-115864761D01*
X99270476Y-115817142D01*
X99175238Y-115769523D01*
X99080000Y-115674285D01*
X99032380Y-115531428D01*
X99032380Y-115436190D01*
X99080000Y-115293333D01*
X99127619Y-115245714D01*
X100032380Y-114293333D02*
X100032380Y-114864761D01*
X100032380Y-114579047D02*
X99032380Y-114579047D01*
X99175238Y-114674285D01*
X99270476Y-114769523D01*
X99318095Y-114864761D01*
%TO.C,BT1*%
X46714285Y-112598571D02*
X46857142Y-112646190D01*
X46904761Y-112693809D01*
X46952380Y-112789047D01*
X46952380Y-112931904D01*
X46904761Y-113027142D01*
X46857142Y-113074761D01*
X46761904Y-113122380D01*
X46380952Y-113122380D01*
X46380952Y-112122380D01*
X46714285Y-112122380D01*
X46809523Y-112170000D01*
X46857142Y-112217619D01*
X46904761Y-112312857D01*
X46904761Y-112408095D01*
X46857142Y-112503333D01*
X46809523Y-112550952D01*
X46714285Y-112598571D01*
X46380952Y-112598571D01*
X47238095Y-112122380D02*
X47809523Y-112122380D01*
X47523809Y-113122380D02*
X47523809Y-112122380D01*
X48666666Y-113122380D02*
X48095238Y-113122380D01*
X48380952Y-113122380D02*
X48380952Y-112122380D01*
X48285714Y-112265238D01*
X48190476Y-112360476D01*
X48095238Y-112408095D01*
%TO.C,J2*%
X101214285Y-101947619D02*
X101261904Y-101900000D01*
X101357142Y-101852380D01*
X101595238Y-101852380D01*
X101690476Y-101900000D01*
X101738095Y-101947619D01*
X101785714Y-102042857D01*
X101785714Y-102138095D01*
X101738095Y-102280952D01*
X101166666Y-102852380D01*
X101785714Y-102852380D01*
%TO.C,J3*%
X101166666Y-93852380D02*
X101785714Y-93852380D01*
X101452380Y-94233333D01*
X101595238Y-94233333D01*
X101690476Y-94280952D01*
X101738095Y-94328571D01*
X101785714Y-94423809D01*
X101785714Y-94661904D01*
X101738095Y-94757142D01*
X101690476Y-94804761D01*
X101595238Y-94852380D01*
X101309523Y-94852380D01*
X101214285Y-94804761D01*
X101166666Y-94757142D01*
%TO.C,J4*%
X101785714Y-110352380D02*
X101214285Y-110352380D01*
X101500000Y-110352380D02*
X101500000Y-109352380D01*
X101404761Y-109495238D01*
X101309523Y-109590476D01*
X101214285Y-109638095D01*
%TO.C,R3*%
X95452380Y-105976666D02*
X94976190Y-106310000D01*
X95452380Y-106548095D02*
X94452380Y-106548095D01*
X94452380Y-106167142D01*
X94500000Y-106071904D01*
X94547619Y-106024285D01*
X94642857Y-105976666D01*
X94785714Y-105976666D01*
X94880952Y-106024285D01*
X94928571Y-106071904D01*
X94976190Y-106167142D01*
X94976190Y-106548095D01*
X94452380Y-105643333D02*
X94452380Y-105024285D01*
X94833333Y-105357619D01*
X94833333Y-105214761D01*
X94880952Y-105119523D01*
X94928571Y-105071904D01*
X95023809Y-105024285D01*
X95261904Y-105024285D01*
X95357142Y-105071904D01*
X95404761Y-105119523D01*
X95452380Y-105214761D01*
X95452380Y-105500476D01*
X95404761Y-105595714D01*
X95357142Y-105643333D01*
%TO.C,R4*%
X95452380Y-94976666D02*
X94976190Y-95310000D01*
X95452380Y-95548095D02*
X94452380Y-95548095D01*
X94452380Y-95167142D01*
X94500000Y-95071904D01*
X94547619Y-95024285D01*
X94642857Y-94976666D01*
X94785714Y-94976666D01*
X94880952Y-95024285D01*
X94928571Y-95071904D01*
X94976190Y-95167142D01*
X94976190Y-95548095D01*
X94785714Y-94119523D02*
X95452380Y-94119523D01*
X94404761Y-94357619D02*
X95119047Y-94595714D01*
X95119047Y-93976666D01*
%TO.C,TR1*%
X76388095Y-91032380D02*
X76959523Y-91032380D01*
X76673809Y-92032380D02*
X76673809Y-91032380D01*
X77864285Y-92032380D02*
X77530952Y-91556190D01*
X77292857Y-92032380D02*
X77292857Y-91032380D01*
X77673809Y-91032380D01*
X77769047Y-91080000D01*
X77816666Y-91127619D01*
X77864285Y-91222857D01*
X77864285Y-91365714D01*
X77816666Y-91460952D01*
X77769047Y-91508571D01*
X77673809Y-91556190D01*
X77292857Y-91556190D01*
X78816666Y-92032380D02*
X78245238Y-92032380D01*
X78530952Y-92032380D02*
X78530952Y-91032380D01*
X78435714Y-91175238D01*
X78340476Y-91270476D01*
X78245238Y-91318095D01*
%TO.C,C1*%
X55407142Y-116416666D02*
X55454761Y-116464285D01*
X55502380Y-116607142D01*
X55502380Y-116702380D01*
X55454761Y-116845238D01*
X55359523Y-116940476D01*
X55264285Y-116988095D01*
X55073809Y-117035714D01*
X54930952Y-117035714D01*
X54740476Y-116988095D01*
X54645238Y-116940476D01*
X54550000Y-116845238D01*
X54502380Y-116702380D01*
X54502380Y-116607142D01*
X54550000Y-116464285D01*
X54597619Y-116416666D01*
X55502380Y-115464285D02*
X55502380Y-116035714D01*
X55502380Y-115750000D02*
X54502380Y-115750000D01*
X54645238Y-115845238D01*
X54740476Y-115940476D01*
X54788095Y-116035714D01*
%TO.C,C2*%
X50307142Y-121916666D02*
X50354761Y-121964285D01*
X50402380Y-122107142D01*
X50402380Y-122202380D01*
X50354761Y-122345238D01*
X50259523Y-122440476D01*
X50164285Y-122488095D01*
X49973809Y-122535714D01*
X49830952Y-122535714D01*
X49640476Y-122488095D01*
X49545238Y-122440476D01*
X49450000Y-122345238D01*
X49402380Y-122202380D01*
X49402380Y-122107142D01*
X49450000Y-121964285D01*
X49497619Y-121916666D01*
X49497619Y-121535714D02*
X49450000Y-121488095D01*
X49402380Y-121392857D01*
X49402380Y-121154761D01*
X49450000Y-121059523D01*
X49497619Y-121011904D01*
X49592857Y-120964285D01*
X49688095Y-120964285D01*
X49830952Y-121011904D01*
X50402380Y-121583333D01*
X50402380Y-120964285D01*
%TO.C,C3*%
X96083333Y-112307142D02*
X96035714Y-112354761D01*
X95892857Y-112402380D01*
X95797619Y-112402380D01*
X95654761Y-112354761D01*
X95559523Y-112259523D01*
X95511904Y-112164285D01*
X95464285Y-111973809D01*
X95464285Y-111830952D01*
X95511904Y-111640476D01*
X95559523Y-111545238D01*
X95654761Y-111450000D01*
X95797619Y-111402380D01*
X95892857Y-111402380D01*
X96035714Y-111450000D01*
X96083333Y-111497619D01*
X96416666Y-111402380D02*
X97035714Y-111402380D01*
X96702380Y-111783333D01*
X96845238Y-111783333D01*
X96940476Y-111830952D01*
X96988095Y-111878571D01*
X97035714Y-111973809D01*
X97035714Y-112211904D01*
X96988095Y-112307142D01*
X96940476Y-112354761D01*
X96845238Y-112402380D01*
X96559523Y-112402380D01*
X96464285Y-112354761D01*
X96416666Y-112307142D01*
%TO.C,C4*%
X50307142Y-126916666D02*
X50354761Y-126964285D01*
X50402380Y-127107142D01*
X50402380Y-127202380D01*
X50354761Y-127345238D01*
X50259523Y-127440476D01*
X50164285Y-127488095D01*
X49973809Y-127535714D01*
X49830952Y-127535714D01*
X49640476Y-127488095D01*
X49545238Y-127440476D01*
X49450000Y-127345238D01*
X49402380Y-127202380D01*
X49402380Y-127107142D01*
X49450000Y-126964285D01*
X49497619Y-126916666D01*
X49735714Y-126059523D02*
X50402380Y-126059523D01*
X49354761Y-126297619D02*
X50069047Y-126535714D01*
X50069047Y-125916666D01*
%TO.C,C5*%
X91907142Y-92916666D02*
X91954761Y-92964285D01*
X92002380Y-93107142D01*
X92002380Y-93202380D01*
X91954761Y-93345238D01*
X91859523Y-93440476D01*
X91764285Y-93488095D01*
X91573809Y-93535714D01*
X91430952Y-93535714D01*
X91240476Y-93488095D01*
X91145238Y-93440476D01*
X91050000Y-93345238D01*
X91002380Y-93202380D01*
X91002380Y-93107142D01*
X91050000Y-92964285D01*
X91097619Y-92916666D01*
X91002380Y-92011904D02*
X91002380Y-92488095D01*
X91478571Y-92535714D01*
X91430952Y-92488095D01*
X91383333Y-92392857D01*
X91383333Y-92154761D01*
X91430952Y-92059523D01*
X91478571Y-92011904D01*
X91573809Y-91964285D01*
X91811904Y-91964285D01*
X91907142Y-92011904D01*
X91954761Y-92059523D01*
X92002380Y-92154761D01*
X92002380Y-92392857D01*
X91954761Y-92488095D01*
X91907142Y-92535714D01*
%TO.C,C6*%
X91907142Y-108916666D02*
X91954761Y-108964285D01*
X92002380Y-109107142D01*
X92002380Y-109202380D01*
X91954761Y-109345238D01*
X91859523Y-109440476D01*
X91764285Y-109488095D01*
X91573809Y-109535714D01*
X91430952Y-109535714D01*
X91240476Y-109488095D01*
X91145238Y-109440476D01*
X91050000Y-109345238D01*
X91002380Y-109202380D01*
X91002380Y-109107142D01*
X91050000Y-108964285D01*
X91097619Y-108916666D01*
X91002380Y-108059523D02*
X91002380Y-108250000D01*
X91050000Y-108345238D01*
X91097619Y-108392857D01*
X91240476Y-108488095D01*
X91430952Y-108535714D01*
X91811904Y-108535714D01*
X91907142Y-108488095D01*
X91954761Y-108440476D01*
X92002380Y-108345238D01*
X92002380Y-108154761D01*
X91954761Y-108059523D01*
X91907142Y-108011904D01*
X91811904Y-107964285D01*
X91573809Y-107964285D01*
X91478571Y-108011904D01*
X91430952Y-108059523D01*
X91383333Y-108154761D01*
X91383333Y-108345238D01*
X91430952Y-108440476D01*
X91478571Y-108488095D01*
X91573809Y-108535714D01*
%TO.C,C7*%
X62357142Y-116416666D02*
X62404761Y-116464285D01*
X62452380Y-116607142D01*
X62452380Y-116702380D01*
X62404761Y-116845238D01*
X62309523Y-116940476D01*
X62214285Y-116988095D01*
X62023809Y-117035714D01*
X61880952Y-117035714D01*
X61690476Y-116988095D01*
X61595238Y-116940476D01*
X61500000Y-116845238D01*
X61452380Y-116702380D01*
X61452380Y-116607142D01*
X61500000Y-116464285D01*
X61547619Y-116416666D01*
X61452380Y-116083333D02*
X61452380Y-115416666D01*
X62452380Y-115845238D01*
%TO.C,C8*%
X61907142Y-121916666D02*
X61954761Y-121964285D01*
X62002380Y-122107142D01*
X62002380Y-122202380D01*
X61954761Y-122345238D01*
X61859523Y-122440476D01*
X61764285Y-122488095D01*
X61573809Y-122535714D01*
X61430952Y-122535714D01*
X61240476Y-122488095D01*
X61145238Y-122440476D01*
X61050000Y-122345238D01*
X61002380Y-122202380D01*
X61002380Y-122107142D01*
X61050000Y-121964285D01*
X61097619Y-121916666D01*
X61430952Y-121345238D02*
X61383333Y-121440476D01*
X61335714Y-121488095D01*
X61240476Y-121535714D01*
X61192857Y-121535714D01*
X61097619Y-121488095D01*
X61050000Y-121440476D01*
X61002380Y-121345238D01*
X61002380Y-121154761D01*
X61050000Y-121059523D01*
X61097619Y-121011904D01*
X61192857Y-120964285D01*
X61240476Y-120964285D01*
X61335714Y-121011904D01*
X61383333Y-121059523D01*
X61430952Y-121154761D01*
X61430952Y-121345238D01*
X61478571Y-121440476D01*
X61526190Y-121488095D01*
X61621428Y-121535714D01*
X61811904Y-121535714D01*
X61907142Y-121488095D01*
X61954761Y-121440476D01*
X62002380Y-121345238D01*
X62002380Y-121154761D01*
X61954761Y-121059523D01*
X61907142Y-121011904D01*
X61811904Y-120964285D01*
X61621428Y-120964285D01*
X61526190Y-121011904D01*
X61478571Y-121059523D01*
X61430952Y-121154761D01*
%TO.C,C9*%
X96083333Y-117307142D02*
X96035714Y-117354761D01*
X95892857Y-117402380D01*
X95797619Y-117402380D01*
X95654761Y-117354761D01*
X95559523Y-117259523D01*
X95511904Y-117164285D01*
X95464285Y-116973809D01*
X95464285Y-116830952D01*
X95511904Y-116640476D01*
X95559523Y-116545238D01*
X95654761Y-116450000D01*
X95797619Y-116402380D01*
X95892857Y-116402380D01*
X96035714Y-116450000D01*
X96083333Y-116497619D01*
X96559523Y-117402380D02*
X96750000Y-117402380D01*
X96845238Y-117354761D01*
X96892857Y-117307142D01*
X96988095Y-117164285D01*
X97035714Y-116973809D01*
X97035714Y-116592857D01*
X96988095Y-116497619D01*
X96940476Y-116450000D01*
X96845238Y-116402380D01*
X96654761Y-116402380D01*
X96559523Y-116450000D01*
X96511904Y-116497619D01*
X96464285Y-116592857D01*
X96464285Y-116830952D01*
X96511904Y-116926190D01*
X96559523Y-116973809D01*
X96654761Y-117021428D01*
X96845238Y-117021428D01*
X96940476Y-116973809D01*
X96988095Y-116926190D01*
X97035714Y-116830952D01*
%TO.C,C10*%
X92307142Y-127392857D02*
X92354761Y-127440476D01*
X92402380Y-127583333D01*
X92402380Y-127678571D01*
X92354761Y-127821428D01*
X92259523Y-127916666D01*
X92164285Y-127964285D01*
X91973809Y-128011904D01*
X91830952Y-128011904D01*
X91640476Y-127964285D01*
X91545238Y-127916666D01*
X91450000Y-127821428D01*
X91402380Y-127678571D01*
X91402380Y-127583333D01*
X91450000Y-127440476D01*
X91497619Y-127392857D01*
X92402380Y-126440476D02*
X92402380Y-127011904D01*
X92402380Y-126726190D02*
X91402380Y-126726190D01*
X91545238Y-126821428D01*
X91640476Y-126916666D01*
X91688095Y-127011904D01*
X91402380Y-125821428D02*
X91402380Y-125726190D01*
X91450000Y-125630952D01*
X91497619Y-125583333D01*
X91592857Y-125535714D01*
X91783333Y-125488095D01*
X92021428Y-125488095D01*
X92211904Y-125535714D01*
X92307142Y-125583333D01*
X92354761Y-125630952D01*
X92402380Y-125726190D01*
X92402380Y-125821428D01*
X92354761Y-125916666D01*
X92307142Y-125964285D01*
X92211904Y-126011904D01*
X92021428Y-126059523D01*
X91783333Y-126059523D01*
X91592857Y-126011904D01*
X91497619Y-125964285D01*
X91450000Y-125916666D01*
X91402380Y-125821428D01*
%TO.C,D1*%
X70951904Y-112332380D02*
X70951904Y-111332380D01*
X71190000Y-111332380D01*
X71332857Y-111380000D01*
X71428095Y-111475238D01*
X71475714Y-111570476D01*
X71523333Y-111760952D01*
X71523333Y-111903809D01*
X71475714Y-112094285D01*
X71428095Y-112189523D01*
X71332857Y-112284761D01*
X71190000Y-112332380D01*
X70951904Y-112332380D01*
X72475714Y-112332380D02*
X71904285Y-112332380D01*
X72190000Y-112332380D02*
X72190000Y-111332380D01*
X72094761Y-111475238D01*
X71999523Y-111570476D01*
X71904285Y-111618095D01*
X67618095Y-112652380D02*
X67618095Y-111652380D01*
X68189523Y-112652380D02*
X67760952Y-112080952D01*
X68189523Y-111652380D02*
X67618095Y-112223809D01*
%TO.C,L1*%
X71458333Y-118657380D02*
X70982142Y-118657380D01*
X70982142Y-117657380D01*
X72315476Y-118657380D02*
X71744047Y-118657380D01*
X72029761Y-118657380D02*
X72029761Y-117657380D01*
X71934523Y-117800238D01*
X71839285Y-117895476D01*
X71744047Y-117943095D01*
%TO.C,R1*%
X86643333Y-119952380D02*
X86310000Y-119476190D01*
X86071904Y-119952380D02*
X86071904Y-118952380D01*
X86452857Y-118952380D01*
X86548095Y-119000000D01*
X86595714Y-119047619D01*
X86643333Y-119142857D01*
X86643333Y-119285714D01*
X86595714Y-119380952D01*
X86548095Y-119428571D01*
X86452857Y-119476190D01*
X86071904Y-119476190D01*
X87595714Y-119952380D02*
X87024285Y-119952380D01*
X87310000Y-119952380D02*
X87310000Y-118952380D01*
X87214761Y-119095238D01*
X87119523Y-119190476D01*
X87024285Y-119238095D01*
%TO.C,R2*%
X86833333Y-114952380D02*
X86500000Y-114476190D01*
X86261904Y-114952380D02*
X86261904Y-113952380D01*
X86642857Y-113952380D01*
X86738095Y-114000000D01*
X86785714Y-114047619D01*
X86833333Y-114142857D01*
X86833333Y-114285714D01*
X86785714Y-114380952D01*
X86738095Y-114428571D01*
X86642857Y-114476190D01*
X86261904Y-114476190D01*
X87214285Y-114047619D02*
X87261904Y-114000000D01*
X87357142Y-113952380D01*
X87595238Y-113952380D01*
X87690476Y-114000000D01*
X87738095Y-114047619D01*
X87785714Y-114142857D01*
X87785714Y-114238095D01*
X87738095Y-114380952D01*
X87166666Y-114952380D01*
X87785714Y-114952380D01*
%TO.C,R5*%
X84452380Y-127476666D02*
X83976190Y-127810000D01*
X84452380Y-128048095D02*
X83452380Y-128048095D01*
X83452380Y-127667142D01*
X83500000Y-127571904D01*
X83547619Y-127524285D01*
X83642857Y-127476666D01*
X83785714Y-127476666D01*
X83880952Y-127524285D01*
X83928571Y-127571904D01*
X83976190Y-127667142D01*
X83976190Y-128048095D01*
X83452380Y-126571904D02*
X83452380Y-127048095D01*
X83928571Y-127095714D01*
X83880952Y-127048095D01*
X83833333Y-126952857D01*
X83833333Y-126714761D01*
X83880952Y-126619523D01*
X83928571Y-126571904D01*
X84023809Y-126524285D01*
X84261904Y-126524285D01*
X84357142Y-126571904D01*
X84404761Y-126619523D01*
X84452380Y-126714761D01*
X84452380Y-126952857D01*
X84404761Y-127048095D01*
X84357142Y-127095714D01*
%TO.C,R6*%
X88952380Y-127286666D02*
X88476190Y-127620000D01*
X88952380Y-127858095D02*
X87952380Y-127858095D01*
X87952380Y-127477142D01*
X88000000Y-127381904D01*
X88047619Y-127334285D01*
X88142857Y-127286666D01*
X88285714Y-127286666D01*
X88380952Y-127334285D01*
X88428571Y-127381904D01*
X88476190Y-127477142D01*
X88476190Y-127858095D01*
X87952380Y-126429523D02*
X87952380Y-126620000D01*
X88000000Y-126715238D01*
X88047619Y-126762857D01*
X88190476Y-126858095D01*
X88380952Y-126905714D01*
X88761904Y-126905714D01*
X88857142Y-126858095D01*
X88904761Y-126810476D01*
X88952380Y-126715238D01*
X88952380Y-126524761D01*
X88904761Y-126429523D01*
X88857142Y-126381904D01*
X88761904Y-126334285D01*
X88523809Y-126334285D01*
X88428571Y-126381904D01*
X88380952Y-126429523D01*
X88333333Y-126524761D01*
X88333333Y-126715238D01*
X88380952Y-126810476D01*
X88428571Y-126858095D01*
X88523809Y-126905714D01*
%TO.C,SW1*%
X49964761Y-124833333D02*
X50012380Y-124690476D01*
X50012380Y-124452380D01*
X49964761Y-124357142D01*
X49917142Y-124309523D01*
X49821904Y-124261904D01*
X49726666Y-124261904D01*
X49631428Y-124309523D01*
X49583809Y-124357142D01*
X49536190Y-124452380D01*
X49488571Y-124642857D01*
X49440952Y-124738095D01*
X49393333Y-124785714D01*
X49298095Y-124833333D01*
X49202857Y-124833333D01*
X49107619Y-124785714D01*
X49060000Y-124738095D01*
X49012380Y-124642857D01*
X49012380Y-124404761D01*
X49060000Y-124261904D01*
X49012380Y-123928571D02*
X50012380Y-123690476D01*
X49298095Y-123500000D01*
X50012380Y-123309523D01*
X49012380Y-123071428D01*
X50012380Y-122166666D02*
X50012380Y-122738095D01*
X50012380Y-122452380D02*
X49012380Y-122452380D01*
X49155238Y-122547619D01*
X49250476Y-122642857D01*
X49298095Y-122738095D01*
%TO.C,U1*%
X70615595Y-124230380D02*
X70615595Y-125039904D01*
X70663214Y-125135142D01*
X70710833Y-125182761D01*
X70806071Y-125230380D01*
X70996547Y-125230380D01*
X71091785Y-125182761D01*
X71139404Y-125135142D01*
X71187023Y-125039904D01*
X71187023Y-124230380D01*
X72187023Y-125230380D02*
X71615595Y-125230380D01*
X71901309Y-125230380D02*
X71901309Y-124230380D01*
X71806071Y-124373238D01*
X71710833Y-124468476D01*
X71615595Y-124516095D01*
%TO.C,J1*%
X50177380Y-97008333D02*
X50891666Y-97008333D01*
X51034523Y-97055952D01*
X51129761Y-97151190D01*
X51177380Y-97294047D01*
X51177380Y-97389285D01*
X51177380Y-96008333D02*
X51177380Y-96579761D01*
X51177380Y-96294047D02*
X50177380Y-96294047D01*
X50320238Y-96389285D01*
X50415476Y-96484523D01*
X50463095Y-96579761D01*
%TO.C,J5*%
X50177380Y-102358333D02*
X50891666Y-102358333D01*
X51034523Y-102405952D01*
X51129761Y-102501190D01*
X51177380Y-102644047D01*
X51177380Y-102739285D01*
X50177380Y-101405952D02*
X50177380Y-101882142D01*
X50653571Y-101929761D01*
X50605952Y-101882142D01*
X50558333Y-101786904D01*
X50558333Y-101548809D01*
X50605952Y-101453571D01*
X50653571Y-101405952D01*
X50748809Y-101358333D01*
X50986904Y-101358333D01*
X51082142Y-101405952D01*
X51129761Y-101453571D01*
X51177380Y-101548809D01*
X51177380Y-101786904D01*
X51129761Y-101882142D01*
X51082142Y-101929761D01*
%TO.C,C11*%
X54907142Y-91892857D02*
X54954761Y-91940476D01*
X55002380Y-92083333D01*
X55002380Y-92178571D01*
X54954761Y-92321428D01*
X54859523Y-92416666D01*
X54764285Y-92464285D01*
X54573809Y-92511904D01*
X54430952Y-92511904D01*
X54240476Y-92464285D01*
X54145238Y-92416666D01*
X54050000Y-92321428D01*
X54002380Y-92178571D01*
X54002380Y-92083333D01*
X54050000Y-91940476D01*
X54097619Y-91892857D01*
X55002380Y-90940476D02*
X55002380Y-91511904D01*
X55002380Y-91226190D02*
X54002380Y-91226190D01*
X54145238Y-91321428D01*
X54240476Y-91416666D01*
X54288095Y-91511904D01*
X55002380Y-89988095D02*
X55002380Y-90559523D01*
X55002380Y-90273809D02*
X54002380Y-90273809D01*
X54145238Y-90369047D01*
X54240476Y-90464285D01*
X54288095Y-90559523D01*
%TO.C,R7*%
X54452380Y-101166666D02*
X53976190Y-101500000D01*
X54452380Y-101738095D02*
X53452380Y-101738095D01*
X53452380Y-101357142D01*
X53500000Y-101261904D01*
X53547619Y-101214285D01*
X53642857Y-101166666D01*
X53785714Y-101166666D01*
X53880952Y-101214285D01*
X53928571Y-101261904D01*
X53976190Y-101357142D01*
X53976190Y-101738095D01*
X53452380Y-100833333D02*
X53452380Y-100166666D01*
X54452380Y-100595238D01*
%TO.C,RV1*%
X57122380Y-91595238D02*
X56646190Y-91928571D01*
X57122380Y-92166666D02*
X56122380Y-92166666D01*
X56122380Y-91785714D01*
X56170000Y-91690476D01*
X56217619Y-91642857D01*
X56312857Y-91595238D01*
X56455714Y-91595238D01*
X56550952Y-91642857D01*
X56598571Y-91690476D01*
X56646190Y-91785714D01*
X56646190Y-92166666D01*
X56122380Y-91309523D02*
X57122380Y-90976190D01*
X56122380Y-90642857D01*
X57122380Y-89785714D02*
X57122380Y-90357142D01*
X57122380Y-90071428D02*
X56122380Y-90071428D01*
X56265238Y-90166666D01*
X56360476Y-90261904D01*
X56408095Y-90357142D01*
%TO.C,U2*%
X61428095Y-94622380D02*
X61428095Y-95431904D01*
X61475714Y-95527142D01*
X61523333Y-95574761D01*
X61618571Y-95622380D01*
X61809047Y-95622380D01*
X61904285Y-95574761D01*
X61951904Y-95527142D01*
X61999523Y-95431904D01*
X61999523Y-94622380D01*
X62428095Y-94717619D02*
X62475714Y-94670000D01*
X62570952Y-94622380D01*
X62809047Y-94622380D01*
X62904285Y-94670000D01*
X62951904Y-94717619D01*
X62999523Y-94812857D01*
X62999523Y-94908095D01*
X62951904Y-95050952D01*
X62380476Y-95622380D01*
X62999523Y-95622380D01*
%TO.C,D2*%
X99642380Y-126968095D02*
X98642380Y-126968095D01*
X98642380Y-126730000D01*
X98690000Y-126587142D01*
X98785238Y-126491904D01*
X98880476Y-126444285D01*
X99070952Y-126396666D01*
X99213809Y-126396666D01*
X99404285Y-126444285D01*
X99499523Y-126491904D01*
X99594761Y-126587142D01*
X99642380Y-126730000D01*
X99642380Y-126968095D01*
X98737619Y-126015714D02*
X98690000Y-125968095D01*
X98642380Y-125872857D01*
X98642380Y-125634761D01*
X98690000Y-125539523D01*
X98737619Y-125491904D01*
X98832857Y-125444285D01*
X98928095Y-125444285D01*
X99070952Y-125491904D01*
X99642380Y-126063333D01*
X99642380Y-125444285D01*
%TO.C,R8*%
X86023333Y-137872380D02*
X85690000Y-137396190D01*
X85451904Y-137872380D02*
X85451904Y-136872380D01*
X85832857Y-136872380D01*
X85928095Y-136920000D01*
X85975714Y-136967619D01*
X86023333Y-137062857D01*
X86023333Y-137205714D01*
X85975714Y-137300952D01*
X85928095Y-137348571D01*
X85832857Y-137396190D01*
X85451904Y-137396190D01*
X86594761Y-137300952D02*
X86499523Y-137253333D01*
X86451904Y-137205714D01*
X86404285Y-137110476D01*
X86404285Y-137062857D01*
X86451904Y-136967619D01*
X86499523Y-136920000D01*
X86594761Y-136872380D01*
X86785238Y-136872380D01*
X86880476Y-136920000D01*
X86928095Y-136967619D01*
X86975714Y-137062857D01*
X86975714Y-137110476D01*
X86928095Y-137205714D01*
X86880476Y-137253333D01*
X86785238Y-137300952D01*
X86594761Y-137300952D01*
X86499523Y-137348571D01*
X86451904Y-137396190D01*
X86404285Y-137491428D01*
X86404285Y-137681904D01*
X86451904Y-137777142D01*
X86499523Y-137824761D01*
X86594761Y-137872380D01*
X86785238Y-137872380D01*
X86880476Y-137824761D01*
X86928095Y-137777142D01*
X86975714Y-137681904D01*
X86975714Y-137491428D01*
X86928095Y-137396190D01*
X86880476Y-137348571D01*
X86785238Y-137300952D01*
%TD*%
M02*
