%TF.GenerationSoftware,KiCad,Pcbnew,5.1.10*%
%TF.CreationDate,2021-06-21T22:36:55+02:00*%
%TF.ProjectId,supply,73757070-6c79-42e6-9b69-6361645f7063,rev?*%
%TF.SameCoordinates,Original*%
%TF.FileFunction,Soldermask,Top*%
%TF.FilePolarity,Negative*%
%FSLAX46Y46*%
G04 Gerber Fmt 4.6, Leading zero omitted, Abs format (unit mm)*
G04 Created by KiCad (PCBNEW 5.1.10) date 2021-06-21 22:36:55*
%MOMM*%
%LPD*%
G01*
G04 APERTURE LIST*
%ADD10O,1.700000X1.700000*%
%ADD11R,1.700000X1.700000*%
%ADD12C,3.800000*%
%ADD13C,1.600000*%
%ADD14O,1.600000X1.600000*%
%ADD15C,2.000000*%
%ADD16R,2.000000X2.000000*%
%ADD17R,1.600000X1.600000*%
%ADD18R,1.800000X1.800000*%
%ADD19C,1.800000*%
%ADD20O,2.000000X2.000000*%
%ADD21R,1.350000X1.350000*%
%ADD22O,1.350000X1.350000*%
%ADD23O,0.600000X0.300000*%
%ADD24O,0.300000X0.600000*%
%ADD25R,0.755000X0.755000*%
%ADD26C,0.377500*%
G04 APERTURE END LIST*
D10*
%TO.C,BT1*%
X47500000Y-117540000D03*
D11*
X47500000Y-115000000D03*
%TD*%
D12*
%TO.C,J2*%
X101500000Y-99500000D03*
%TD*%
%TO.C,J3*%
X101500000Y-91500000D03*
%TD*%
%TO.C,J4*%
X101500000Y-107000000D03*
%TD*%
D13*
%TO.C,R3*%
X95000000Y-102000000D03*
D14*
X95000000Y-109620000D03*
%TD*%
%TO.C,R4*%
X95000000Y-98620000D03*
D13*
X95000000Y-91000000D03*
%TD*%
D15*
%TO.C,TR1*%
X84000000Y-93380000D03*
D16*
X71300000Y-93380000D03*
D15*
X84000000Y-101000000D03*
X71300000Y-101000000D03*
X84000000Y-108620000D03*
X71300000Y-108620000D03*
%TD*%
D12*
%TO.C,J6*%
X45500000Y-135500000D03*
%TD*%
%TO.C,J7*%
X107000000Y-135500000D03*
%TD*%
%TO.C,J8*%
X45500000Y-89000000D03*
%TD*%
%TO.C,J9*%
X107000000Y-89000000D03*
%TD*%
D13*
%TO.C,C1*%
X52500000Y-117500000D03*
X52500000Y-115000000D03*
%TD*%
%TO.C,C2*%
X52500000Y-120500000D03*
X52500000Y-123000000D03*
%TD*%
%TO.C,C3*%
X95000000Y-114500000D03*
X97500000Y-114500000D03*
%TD*%
%TO.C,C4*%
X52500000Y-128000000D03*
X52500000Y-125500000D03*
%TD*%
%TO.C,C5*%
X89000000Y-91500000D03*
X89000000Y-94000000D03*
%TD*%
%TO.C,C6*%
X89000000Y-110000000D03*
X89000000Y-107500000D03*
%TD*%
%TO.C,C7*%
X59000000Y-115000000D03*
X59000000Y-117500000D03*
%TD*%
%TO.C,C8*%
X59000000Y-120500000D03*
X59000000Y-123000000D03*
%TD*%
%TO.C,C9*%
X97500000Y-119500000D03*
X95000000Y-119500000D03*
%TD*%
%TO.C,C10*%
X94500000Y-128000000D03*
X94500000Y-125500000D03*
%TD*%
D17*
%TO.C,D1*%
X67880000Y-114000000D03*
D14*
X75500000Y-114000000D03*
%TD*%
D18*
%TO.C,D2*%
X101500000Y-126500000D03*
D19*
X101500000Y-123960000D03*
%TD*%
D15*
%TO.C,L1*%
X65275000Y-121325000D03*
D20*
X77975000Y-121325000D03*
%TD*%
D14*
%TO.C,R1*%
X90620000Y-119500000D03*
D13*
X83000000Y-119500000D03*
%TD*%
%TO.C,R2*%
X82880000Y-114500000D03*
D14*
X90500000Y-114500000D03*
%TD*%
D13*
%TO.C,R5*%
X84000000Y-123500000D03*
D14*
X84000000Y-131120000D03*
%TD*%
%TO.C,R6*%
X88500000Y-123500000D03*
D13*
X88500000Y-131120000D03*
%TD*%
D21*
%TO.C,SW1*%
X47500000Y-122500000D03*
D22*
X47500000Y-124500000D03*
%TD*%
D23*
%TO.C,U1*%
X70102500Y-127128000D03*
X70102500Y-127628000D03*
X70102500Y-128128000D03*
X70102500Y-128628000D03*
D24*
X70627500Y-129153000D03*
X71127500Y-129153000D03*
X71627500Y-129153000D03*
X72127500Y-129153000D03*
D23*
X72652500Y-128628000D03*
X72652500Y-128128000D03*
X72652500Y-127628000D03*
X72652500Y-127128000D03*
D24*
X72127500Y-126603000D03*
X71627500Y-126603000D03*
X71127500Y-126603000D03*
X70627500Y-126603000D03*
D25*
X71000000Y-127500500D03*
X71000000Y-128255500D03*
X71755000Y-127500500D03*
X71755000Y-128255500D03*
D26*
X71000000Y-127500500D03*
X71000000Y-128255500D03*
X71755000Y-127500500D03*
X71755000Y-128255500D03*
%TD*%
D12*
%TO.C,J1*%
X47825000Y-96675000D03*
%TD*%
%TO.C,J5*%
X47825000Y-102025000D03*
%TD*%
D13*
%TO.C,C11*%
X52000000Y-90000000D03*
X52000000Y-92500000D03*
%TD*%
%TO.C,R7*%
X54000000Y-105120000D03*
D14*
X54000000Y-97500000D03*
%TD*%
D11*
%TO.C,RV1*%
X59000000Y-91000000D03*
D10*
X61540000Y-91000000D03*
X64080000Y-91000000D03*
%TD*%
D17*
%TO.C,U2*%
X58380000Y-97500000D03*
D14*
X66000000Y-105120000D03*
X58380000Y-100040000D03*
X66000000Y-102580000D03*
X58380000Y-102580000D03*
X66000000Y-100040000D03*
X58380000Y-105120000D03*
X66000000Y-97500000D03*
%TD*%
M02*
