%TF.GenerationSoftware,KiCad,Pcbnew,5.1.10-88a1d61d58~88~ubuntu20.04.1*%
%TF.CreationDate,2021-06-21T06:27:57+02:00*%
%TF.ProjectId,supply,73757070-6c79-42e6-9b69-6361645f7063,rev?*%
%TF.SameCoordinates,Original*%
%TF.FileFunction,Copper,L2,Bot*%
%TF.FilePolarity,Positive*%
%FSLAX46Y46*%
G04 Gerber Fmt 4.6, Leading zero omitted, Abs format (unit mm)*
G04 Created by KiCad (PCBNEW 5.1.10-88a1d61d58~88~ubuntu20.04.1) date 2021-06-21 06:27:57*
%MOMM*%
%LPD*%
G01*
G04 APERTURE LIST*
%TA.AperFunction,ComponentPad*%
%ADD10O,1.700000X1.700000*%
%TD*%
%TA.AperFunction,ComponentPad*%
%ADD11R,1.700000X1.700000*%
%TD*%
%TA.AperFunction,ComponentPad*%
%ADD12C,3.800000*%
%TD*%
%TA.AperFunction,ComponentPad*%
%ADD13C,1.600000*%
%TD*%
%TA.AperFunction,ComponentPad*%
%ADD14O,1.600000X1.600000*%
%TD*%
%TA.AperFunction,ComponentPad*%
%ADD15C,2.000000*%
%TD*%
%TA.AperFunction,ComponentPad*%
%ADD16R,2.000000X2.000000*%
%TD*%
%TA.AperFunction,ComponentPad*%
%ADD17R,1.600000X1.600000*%
%TD*%
%TA.AperFunction,ComponentPad*%
%ADD18R,1.800000X1.800000*%
%TD*%
%TA.AperFunction,ComponentPad*%
%ADD19C,1.800000*%
%TD*%
%TA.AperFunction,ComponentPad*%
%ADD20O,2.000000X2.000000*%
%TD*%
%TA.AperFunction,ComponentPad*%
%ADD21R,1.350000X1.350000*%
%TD*%
%TA.AperFunction,ComponentPad*%
%ADD22O,1.350000X1.350000*%
%TD*%
%TA.AperFunction,ComponentPad*%
%ADD23C,0.377500*%
%TD*%
%TA.AperFunction,Conductor*%
%ADD24C,0.250000*%
%TD*%
%TA.AperFunction,Conductor*%
%ADD25C,0.254000*%
%TD*%
%TA.AperFunction,Conductor*%
%ADD26C,0.100000*%
%TD*%
G04 APERTURE END LIST*
D10*
%TO.P,BT1,2*%
%TO.N,GND*%
X47500000Y-117540000D03*
D11*
%TO.P,BT1,1*%
%TO.N,Net-(BT1-Pad1)*%
X47500000Y-115000000D03*
%TD*%
D12*
%TO.P,J2,1*%
%TO.N,Net-(C6-Pad1)*%
X101500000Y-99500000D03*
%TD*%
%TO.P,J3,1*%
%TO.N,Net-(C5-Pad1)*%
X101500000Y-91500000D03*
%TD*%
%TO.P,J4,1*%
%TO.N,GND*%
X101500000Y-107000000D03*
%TD*%
D13*
%TO.P,R3,1*%
%TO.N,Net-(C10-Pad2)*%
X80000000Y-102000000D03*
D14*
%TO.P,R3,2*%
%TO.N,Net-(C6-Pad1)*%
X80000000Y-109620000D03*
%TD*%
%TO.P,R4,2*%
%TO.N,Net-(C10-Pad2)*%
X80000000Y-98620000D03*
D13*
%TO.P,R4,1*%
%TO.N,Net-(C5-Pad1)*%
X80000000Y-91000000D03*
%TD*%
D15*
%TO.P,TR1,6*%
%TO.N,Net-(C5-Pad2)*%
X67000000Y-90880000D03*
D16*
%TO.P,TR1,1*%
%TO.N,Net-(J1-Pad1)*%
X54300000Y-90880000D03*
D15*
%TO.P,TR1,5*%
%TO.N,Net-(TR1-Pad5)*%
X67000000Y-98500000D03*
%TO.P,TR1,2*%
%TO.N,Net-(TR1-Pad2)*%
X54300000Y-98500000D03*
%TO.P,TR1,4*%
%TO.N,Net-(C6-Pad2)*%
X67000000Y-106120000D03*
%TO.P,TR1,3*%
%TO.N,GND*%
X54300000Y-106120000D03*
%TD*%
D12*
%TO.P,J6,1*%
%TO.N,Net-(J6-Pad1)*%
X45500000Y-135500000D03*
%TD*%
%TO.P,J7,1*%
%TO.N,Net-(J7-Pad1)*%
X107000000Y-135500000D03*
%TD*%
%TO.P,J8,1*%
%TO.N,Net-(J8-Pad1)*%
X45500000Y-89000000D03*
%TD*%
%TO.P,J9,1*%
%TO.N,Net-(J9-Pad1)*%
X107000000Y-89000000D03*
%TD*%
D13*
%TO.P,C1,2*%
%TO.N,GND*%
X52500000Y-117500000D03*
%TO.P,C1,1*%
%TO.N,Net-(BT1-Pad1)*%
X52500000Y-115000000D03*
%TD*%
%TO.P,C2,2*%
%TO.N,GND*%
X52500000Y-120500000D03*
%TO.P,C2,1*%
%TO.N,Net-(C2-Pad1)*%
X52500000Y-123000000D03*
%TD*%
%TO.P,C3,1*%
%TO.N,Net-(C3-Pad1)*%
X95000000Y-114500000D03*
%TO.P,C3,2*%
%TO.N,GND*%
X97500000Y-114500000D03*
%TD*%
%TO.P,C4,1*%
%TO.N,Net-(C4-Pad1)*%
X52500000Y-128000000D03*
%TO.P,C4,2*%
%TO.N,GND*%
X52500000Y-125500000D03*
%TD*%
%TO.P,C5,1*%
%TO.N,Net-(C5-Pad1)*%
X74000000Y-91000000D03*
%TO.P,C5,2*%
%TO.N,Net-(C5-Pad2)*%
X71500000Y-91000000D03*
%TD*%
%TO.P,C6,2*%
%TO.N,Net-(C6-Pad2)*%
X71000000Y-106000000D03*
%TO.P,C6,1*%
%TO.N,Net-(C6-Pad1)*%
X73500000Y-106000000D03*
%TD*%
%TO.P,C7,2*%
%TO.N,GND*%
X59000000Y-115000000D03*
%TO.P,C7,1*%
%TO.N,Net-(C7-Pad1)*%
X59000000Y-117500000D03*
%TD*%
%TO.P,C8,1*%
%TO.N,Net-(C7-Pad1)*%
X59000000Y-120500000D03*
%TO.P,C8,2*%
%TO.N,Net-(C8-Pad2)*%
X59000000Y-123000000D03*
%TD*%
%TO.P,C9,2*%
%TO.N,Net-(C10-Pad2)*%
X97500000Y-119500000D03*
%TO.P,C9,1*%
%TO.N,GND*%
X95000000Y-119500000D03*
%TD*%
%TO.P,C10,1*%
%TO.N,GND*%
X94500000Y-128000000D03*
%TO.P,C10,2*%
%TO.N,Net-(C10-Pad2)*%
X94500000Y-125500000D03*
%TD*%
D17*
%TO.P,D1,1*%
%TO.N,Net-(C10-Pad2)*%
X67880000Y-114000000D03*
D14*
%TO.P,D1,2*%
%TO.N,Net-(D1-Pad2)*%
X75500000Y-114000000D03*
%TD*%
D18*
%TO.P,D2,1*%
%TO.N,GND*%
X101500000Y-126500000D03*
D19*
%TO.P,D2,2*%
%TO.N,Net-(C10-Pad2)*%
X101500000Y-123960000D03*
%TD*%
D15*
%TO.P,L1,1*%
%TO.N,Net-(C2-Pad1)*%
X65275000Y-121325000D03*
D20*
%TO.P,L1,2*%
%TO.N,Net-(D1-Pad2)*%
X77975000Y-121325000D03*
%TD*%
D14*
%TO.P,R1,2*%
%TO.N,GND*%
X90620000Y-119500000D03*
D13*
%TO.P,R1,1*%
%TO.N,Net-(R1-Pad1)*%
X83000000Y-119500000D03*
%TD*%
%TO.P,R2,1*%
%TO.N,Net-(C8-Pad2)*%
X82880000Y-114500000D03*
D14*
%TO.P,R2,2*%
%TO.N,GND*%
X90500000Y-114500000D03*
%TD*%
D13*
%TO.P,R5,1*%
%TO.N,Net-(C10-Pad2)*%
X84000000Y-123500000D03*
D14*
%TO.P,R5,2*%
%TO.N,Net-(R5-Pad2)*%
X84000000Y-131120000D03*
%TD*%
%TO.P,R6,2*%
%TO.N,GND*%
X88500000Y-123500000D03*
D13*
%TO.P,R6,1*%
%TO.N,Net-(R5-Pad2)*%
X88500000Y-131120000D03*
%TD*%
D21*
%TO.P,SW1,1*%
%TO.N,Net-(BT1-Pad1)*%
X47500000Y-122500000D03*
D22*
%TO.P,SW1,2*%
%TO.N,Net-(C2-Pad1)*%
X47500000Y-124500000D03*
%TD*%
D23*
%TO.P,U1,17*%
%TO.N,GND*%
X71000000Y-127500500D03*
X71000000Y-128255500D03*
X71755000Y-127500500D03*
X71755000Y-128255500D03*
%TD*%
D12*
%TO.P,J1,1*%
%TO.N,Net-(J1-Pad1)*%
X47825000Y-96675000D03*
%TD*%
%TO.P,J5,1*%
%TO.N,GND*%
X47825000Y-102025000D03*
%TD*%
D24*
%TO.N,Net-(BT1-Pad1)*%
X47500000Y-115000000D02*
X47500000Y-116175300D01*
X47500000Y-122500000D02*
X47500000Y-121499700D01*
X47500000Y-121499700D02*
X46324700Y-120324400D01*
X46324700Y-120324400D02*
X46324700Y-116983200D01*
X46324700Y-116983200D02*
X47132600Y-116175300D01*
X47132600Y-116175300D02*
X47500000Y-116175300D01*
%TO.N,Net-(C2-Pad1)*%
X52500000Y-123000000D02*
X53750000Y-121750000D01*
X53750000Y-121750000D02*
X64850000Y-121750000D01*
X64850000Y-121750000D02*
X65275000Y-121325000D01*
%TO.N,Net-(J1-Pad1)*%
X54300000Y-90880000D02*
X52974700Y-90880000D01*
X52974700Y-90880000D02*
X52974700Y-91525300D01*
X52974700Y-91525300D02*
X47825000Y-96675000D01*
%TO.N,Net-(C7-Pad1)*%
X59000000Y-120500000D02*
X59000000Y-117500000D01*
%TO.N,Net-(C10-Pad2)*%
X84000000Y-123500000D02*
X77603200Y-117103200D01*
X77603200Y-117103200D02*
X77603200Y-114497100D01*
X77603200Y-114497100D02*
X73055700Y-109949600D01*
X97500000Y-123299900D02*
X100839900Y-123299900D01*
X100839900Y-123299900D02*
X101500000Y-123960000D01*
X94500000Y-125500000D02*
X96700100Y-123299900D01*
X96700100Y-123299900D02*
X97500000Y-123299900D01*
X97500000Y-123299900D02*
X97500000Y-119500000D01*
X73055700Y-109949600D02*
X80000000Y-103005300D01*
X80000000Y-103005300D02*
X80000000Y-102000000D01*
X69005300Y-114000000D02*
X73055700Y-109949600D01*
X80000000Y-98620000D02*
X80000000Y-102000000D01*
X67880000Y-114000000D02*
X69005300Y-114000000D01*
%TO.N,Net-(D1-Pad2)*%
X77975000Y-121325000D02*
X77975000Y-119999700D01*
X77975000Y-119999700D02*
X75500000Y-117524700D01*
X75500000Y-117524700D02*
X75500000Y-114000000D01*
%TO.N,Net-(R5-Pad2)*%
X84000000Y-131120000D02*
X88500000Y-131120000D01*
%TD*%
D25*
%TO.N,GND*%
X110340001Y-138840000D02*
X41660000Y-138840000D01*
X41660000Y-135250324D01*
X42965000Y-135250324D01*
X42965000Y-135749676D01*
X43062418Y-136239432D01*
X43253512Y-136700773D01*
X43530937Y-137115968D01*
X43884032Y-137469063D01*
X44299227Y-137746488D01*
X44760568Y-137937582D01*
X45250324Y-138035000D01*
X45749676Y-138035000D01*
X46239432Y-137937582D01*
X46700773Y-137746488D01*
X47115968Y-137469063D01*
X47469063Y-137115968D01*
X47746488Y-136700773D01*
X47937582Y-136239432D01*
X48035000Y-135749676D01*
X48035000Y-135250324D01*
X104465000Y-135250324D01*
X104465000Y-135749676D01*
X104562418Y-136239432D01*
X104753512Y-136700773D01*
X105030937Y-137115968D01*
X105384032Y-137469063D01*
X105799227Y-137746488D01*
X106260568Y-137937582D01*
X106750324Y-138035000D01*
X107249676Y-138035000D01*
X107739432Y-137937582D01*
X108200773Y-137746488D01*
X108615968Y-137469063D01*
X108969063Y-137115968D01*
X109246488Y-136700773D01*
X109437582Y-136239432D01*
X109535000Y-135749676D01*
X109535000Y-135250324D01*
X109437582Y-134760568D01*
X109246488Y-134299227D01*
X108969063Y-133884032D01*
X108615968Y-133530937D01*
X108200773Y-133253512D01*
X107739432Y-133062418D01*
X107249676Y-132965000D01*
X106750324Y-132965000D01*
X106260568Y-133062418D01*
X105799227Y-133253512D01*
X105384032Y-133530937D01*
X105030937Y-133884032D01*
X104753512Y-134299227D01*
X104562418Y-134760568D01*
X104465000Y-135250324D01*
X48035000Y-135250324D01*
X47937582Y-134760568D01*
X47746488Y-134299227D01*
X47469063Y-133884032D01*
X47115968Y-133530937D01*
X46700773Y-133253512D01*
X46239432Y-133062418D01*
X45749676Y-132965000D01*
X45250324Y-132965000D01*
X44760568Y-133062418D01*
X44299227Y-133253512D01*
X43884032Y-133530937D01*
X43530937Y-133884032D01*
X43253512Y-134299227D01*
X43062418Y-134760568D01*
X42965000Y-135250324D01*
X41660000Y-135250324D01*
X41660000Y-130978665D01*
X82565000Y-130978665D01*
X82565000Y-131261335D01*
X82620147Y-131538574D01*
X82728320Y-131799727D01*
X82885363Y-132034759D01*
X83085241Y-132234637D01*
X83320273Y-132391680D01*
X83581426Y-132499853D01*
X83858665Y-132555000D01*
X84141335Y-132555000D01*
X84418574Y-132499853D01*
X84679727Y-132391680D01*
X84914759Y-132234637D01*
X85114637Y-132034759D01*
X85218043Y-131880000D01*
X87281957Y-131880000D01*
X87385363Y-132034759D01*
X87585241Y-132234637D01*
X87820273Y-132391680D01*
X88081426Y-132499853D01*
X88358665Y-132555000D01*
X88641335Y-132555000D01*
X88918574Y-132499853D01*
X89179727Y-132391680D01*
X89414759Y-132234637D01*
X89614637Y-132034759D01*
X89771680Y-131799727D01*
X89879853Y-131538574D01*
X89935000Y-131261335D01*
X89935000Y-130978665D01*
X89879853Y-130701426D01*
X89771680Y-130440273D01*
X89614637Y-130205241D01*
X89414759Y-130005363D01*
X89179727Y-129848320D01*
X88918574Y-129740147D01*
X88641335Y-129685000D01*
X88358665Y-129685000D01*
X88081426Y-129740147D01*
X87820273Y-129848320D01*
X87585241Y-130005363D01*
X87385363Y-130205241D01*
X87281957Y-130360000D01*
X85218043Y-130360000D01*
X85114637Y-130205241D01*
X84914759Y-130005363D01*
X84679727Y-129848320D01*
X84418574Y-129740147D01*
X84141335Y-129685000D01*
X83858665Y-129685000D01*
X83581426Y-129740147D01*
X83320273Y-129848320D01*
X83085241Y-130005363D01*
X82885363Y-130205241D01*
X82728320Y-130440273D01*
X82620147Y-130701426D01*
X82565000Y-130978665D01*
X41660000Y-130978665D01*
X41660000Y-127858665D01*
X51065000Y-127858665D01*
X51065000Y-128141335D01*
X51120147Y-128418574D01*
X51228320Y-128679727D01*
X51385363Y-128914759D01*
X51585241Y-129114637D01*
X51820273Y-129271680D01*
X52081426Y-129379853D01*
X52358665Y-129435000D01*
X52641335Y-129435000D01*
X52918574Y-129379853D01*
X53179727Y-129271680D01*
X53414759Y-129114637D01*
X53614637Y-128914759D01*
X53771680Y-128679727D01*
X53879853Y-128418574D01*
X53935000Y-128141335D01*
X53935000Y-127858665D01*
X53879853Y-127581426D01*
X53771680Y-127320273D01*
X53614637Y-127085241D01*
X53414759Y-126885363D01*
X53179727Y-126728320D01*
X52918574Y-126620147D01*
X52641335Y-126565000D01*
X52358665Y-126565000D01*
X52081426Y-126620147D01*
X51820273Y-126728320D01*
X51585241Y-126885363D01*
X51385363Y-127085241D01*
X51228320Y-127320273D01*
X51120147Y-127581426D01*
X51065000Y-127858665D01*
X41660000Y-127858665D01*
X41660000Y-116983200D01*
X45561024Y-116983200D01*
X45564701Y-117020532D01*
X45564700Y-120287077D01*
X45561024Y-120324400D01*
X45564700Y-120361722D01*
X45564700Y-120361732D01*
X45575697Y-120473385D01*
X45618545Y-120614637D01*
X45619154Y-120616646D01*
X45689726Y-120748676D01*
X45719536Y-120784999D01*
X45784699Y-120864401D01*
X45813703Y-120888204D01*
X46340233Y-121414735D01*
X46294463Y-121470506D01*
X46235498Y-121580820D01*
X46199188Y-121700518D01*
X46186928Y-121825000D01*
X46186928Y-123175000D01*
X46199188Y-123299482D01*
X46235498Y-123419180D01*
X46294463Y-123529494D01*
X46373815Y-123626185D01*
X46460697Y-123697487D01*
X46339093Y-123879482D01*
X46240342Y-124117887D01*
X46190000Y-124370976D01*
X46190000Y-124629024D01*
X46240342Y-124882113D01*
X46339093Y-125120518D01*
X46482456Y-125335077D01*
X46664923Y-125517544D01*
X46879482Y-125660907D01*
X47117887Y-125759658D01*
X47370976Y-125810000D01*
X47629024Y-125810000D01*
X47882113Y-125759658D01*
X48120518Y-125660907D01*
X48335077Y-125517544D01*
X48493956Y-125358665D01*
X93065000Y-125358665D01*
X93065000Y-125641335D01*
X93120147Y-125918574D01*
X93228320Y-126179727D01*
X93385363Y-126414759D01*
X93585241Y-126614637D01*
X93820273Y-126771680D01*
X94081426Y-126879853D01*
X94358665Y-126935000D01*
X94641335Y-126935000D01*
X94918574Y-126879853D01*
X95179727Y-126771680D01*
X95414759Y-126614637D01*
X95614637Y-126414759D01*
X95771680Y-126179727D01*
X95879853Y-125918574D01*
X95935000Y-125641335D01*
X95935000Y-125358665D01*
X95898688Y-125176114D01*
X97014902Y-124059900D01*
X97462667Y-124059900D01*
X97500000Y-124063577D01*
X97537333Y-124059900D01*
X99965000Y-124059900D01*
X99965000Y-124111184D01*
X100023989Y-124407743D01*
X100139701Y-124687095D01*
X100307688Y-124938505D01*
X100521495Y-125152312D01*
X100772905Y-125320299D01*
X101052257Y-125436011D01*
X101348816Y-125495000D01*
X101651184Y-125495000D01*
X101947743Y-125436011D01*
X102227095Y-125320299D01*
X102478505Y-125152312D01*
X102692312Y-124938505D01*
X102860299Y-124687095D01*
X102976011Y-124407743D01*
X103035000Y-124111184D01*
X103035000Y-123808816D01*
X102976011Y-123512257D01*
X102860299Y-123232905D01*
X102692312Y-122981495D01*
X102478505Y-122767688D01*
X102227095Y-122599701D01*
X101947743Y-122483989D01*
X101651184Y-122425000D01*
X101348816Y-122425000D01*
X101052257Y-122483989D01*
X100909584Y-122543086D01*
X100877233Y-122539900D01*
X100877222Y-122539900D01*
X100839900Y-122536224D01*
X100802578Y-122539900D01*
X98260000Y-122539900D01*
X98260000Y-120718043D01*
X98414759Y-120614637D01*
X98614637Y-120414759D01*
X98771680Y-120179727D01*
X98879853Y-119918574D01*
X98935000Y-119641335D01*
X98935000Y-119358665D01*
X98879853Y-119081426D01*
X98771680Y-118820273D01*
X98614637Y-118585241D01*
X98414759Y-118385363D01*
X98179727Y-118228320D01*
X97918574Y-118120147D01*
X97641335Y-118065000D01*
X97358665Y-118065000D01*
X97081426Y-118120147D01*
X96820273Y-118228320D01*
X96585241Y-118385363D01*
X96385363Y-118585241D01*
X96228320Y-118820273D01*
X96120147Y-119081426D01*
X96065000Y-119358665D01*
X96065000Y-119641335D01*
X96120147Y-119918574D01*
X96228320Y-120179727D01*
X96385363Y-120414759D01*
X96585241Y-120614637D01*
X96740001Y-120718044D01*
X96740000Y-122539900D01*
X96737422Y-122539900D01*
X96700099Y-122536224D01*
X96662776Y-122539900D01*
X96662767Y-122539900D01*
X96551114Y-122550897D01*
X96407853Y-122594354D01*
X96275824Y-122664926D01*
X96160099Y-122759899D01*
X96136301Y-122788897D01*
X94823886Y-124101312D01*
X94641335Y-124065000D01*
X94358665Y-124065000D01*
X94081426Y-124120147D01*
X93820273Y-124228320D01*
X93585241Y-124385363D01*
X93385363Y-124585241D01*
X93228320Y-124820273D01*
X93120147Y-125081426D01*
X93065000Y-125358665D01*
X48493956Y-125358665D01*
X48517544Y-125335077D01*
X48660907Y-125120518D01*
X48759658Y-124882113D01*
X48810000Y-124629024D01*
X48810000Y-124370976D01*
X48759658Y-124117887D01*
X48660907Y-123879482D01*
X48539303Y-123697487D01*
X48626185Y-123626185D01*
X48705537Y-123529494D01*
X48764502Y-123419180D01*
X48800812Y-123299482D01*
X48813072Y-123175000D01*
X48813072Y-122858665D01*
X51065000Y-122858665D01*
X51065000Y-123141335D01*
X51120147Y-123418574D01*
X51228320Y-123679727D01*
X51385363Y-123914759D01*
X51585241Y-124114637D01*
X51820273Y-124271680D01*
X52081426Y-124379853D01*
X52358665Y-124435000D01*
X52641335Y-124435000D01*
X52918574Y-124379853D01*
X53179727Y-124271680D01*
X53414759Y-124114637D01*
X53614637Y-123914759D01*
X53771680Y-123679727D01*
X53879853Y-123418574D01*
X53935000Y-123141335D01*
X53935000Y-122858665D01*
X53898688Y-122676114D01*
X54064802Y-122510000D01*
X57649733Y-122510000D01*
X57620147Y-122581426D01*
X57565000Y-122858665D01*
X57565000Y-123141335D01*
X57620147Y-123418574D01*
X57728320Y-123679727D01*
X57885363Y-123914759D01*
X58085241Y-124114637D01*
X58320273Y-124271680D01*
X58581426Y-124379853D01*
X58858665Y-124435000D01*
X59141335Y-124435000D01*
X59418574Y-124379853D01*
X59679727Y-124271680D01*
X59914759Y-124114637D01*
X60114637Y-123914759D01*
X60271680Y-123679727D01*
X60379853Y-123418574D01*
X60435000Y-123141335D01*
X60435000Y-122858665D01*
X60379853Y-122581426D01*
X60350267Y-122510000D01*
X64147761Y-122510000D01*
X64232748Y-122594987D01*
X64500537Y-122773918D01*
X64798088Y-122897168D01*
X65113967Y-122960000D01*
X65436033Y-122960000D01*
X65751912Y-122897168D01*
X66049463Y-122773918D01*
X66317252Y-122594987D01*
X66544987Y-122367252D01*
X66723918Y-122099463D01*
X66847168Y-121801912D01*
X66910000Y-121486033D01*
X66910000Y-121163967D01*
X66847168Y-120848088D01*
X66723918Y-120550537D01*
X66544987Y-120282748D01*
X66317252Y-120055013D01*
X66049463Y-119876082D01*
X65751912Y-119752832D01*
X65436033Y-119690000D01*
X65113967Y-119690000D01*
X64798088Y-119752832D01*
X64500537Y-119876082D01*
X64232748Y-120055013D01*
X64005013Y-120282748D01*
X63826082Y-120550537D01*
X63702832Y-120848088D01*
X63674604Y-120990000D01*
X60350267Y-120990000D01*
X60379853Y-120918574D01*
X60435000Y-120641335D01*
X60435000Y-120358665D01*
X60379853Y-120081426D01*
X60271680Y-119820273D01*
X60114637Y-119585241D01*
X59914759Y-119385363D01*
X59760000Y-119281957D01*
X59760000Y-118718043D01*
X59914759Y-118614637D01*
X60114637Y-118414759D01*
X60271680Y-118179727D01*
X60379853Y-117918574D01*
X60435000Y-117641335D01*
X60435000Y-117358665D01*
X60379853Y-117081426D01*
X60271680Y-116820273D01*
X60114637Y-116585241D01*
X59914759Y-116385363D01*
X59679727Y-116228320D01*
X59418574Y-116120147D01*
X59141335Y-116065000D01*
X58858665Y-116065000D01*
X58581426Y-116120147D01*
X58320273Y-116228320D01*
X58085241Y-116385363D01*
X57885363Y-116585241D01*
X57728320Y-116820273D01*
X57620147Y-117081426D01*
X57565000Y-117358665D01*
X57565000Y-117641335D01*
X57620147Y-117918574D01*
X57728320Y-118179727D01*
X57885363Y-118414759D01*
X58085241Y-118614637D01*
X58240001Y-118718044D01*
X58240000Y-119281956D01*
X58085241Y-119385363D01*
X57885363Y-119585241D01*
X57728320Y-119820273D01*
X57620147Y-120081426D01*
X57565000Y-120358665D01*
X57565000Y-120641335D01*
X57620147Y-120918574D01*
X57649733Y-120990000D01*
X53787323Y-120990000D01*
X53750000Y-120986324D01*
X53712677Y-120990000D01*
X53712667Y-120990000D01*
X53601014Y-121000997D01*
X53472433Y-121040001D01*
X53457753Y-121044454D01*
X53325723Y-121115026D01*
X53301417Y-121134974D01*
X53209999Y-121209999D01*
X53186201Y-121238997D01*
X52823886Y-121601312D01*
X52641335Y-121565000D01*
X52358665Y-121565000D01*
X52081426Y-121620147D01*
X51820273Y-121728320D01*
X51585241Y-121885363D01*
X51385363Y-122085241D01*
X51228320Y-122320273D01*
X51120147Y-122581426D01*
X51065000Y-122858665D01*
X48813072Y-122858665D01*
X48813072Y-121825000D01*
X48800812Y-121700518D01*
X48764502Y-121580820D01*
X48705537Y-121470506D01*
X48626185Y-121373815D01*
X48529494Y-121294463D01*
X48419180Y-121235498D01*
X48299482Y-121199188D01*
X48195663Y-121188963D01*
X48134974Y-121075424D01*
X48040001Y-120959699D01*
X48011003Y-120935901D01*
X47084700Y-120009599D01*
X47084700Y-117298001D01*
X47447402Y-116935300D01*
X47462667Y-116935300D01*
X47500000Y-116938977D01*
X47648986Y-116924303D01*
X47792247Y-116880846D01*
X47924276Y-116810274D01*
X48040001Y-116715301D01*
X48134974Y-116599576D01*
X48194575Y-116488072D01*
X48350000Y-116488072D01*
X48474482Y-116475812D01*
X48594180Y-116439502D01*
X48704494Y-116380537D01*
X48801185Y-116301185D01*
X48880537Y-116204494D01*
X48939502Y-116094180D01*
X48975812Y-115974482D01*
X48988072Y-115850000D01*
X48988072Y-114858665D01*
X51065000Y-114858665D01*
X51065000Y-115141335D01*
X51120147Y-115418574D01*
X51228320Y-115679727D01*
X51385363Y-115914759D01*
X51585241Y-116114637D01*
X51820273Y-116271680D01*
X52081426Y-116379853D01*
X52358665Y-116435000D01*
X52641335Y-116435000D01*
X52918574Y-116379853D01*
X53179727Y-116271680D01*
X53414759Y-116114637D01*
X53614637Y-115914759D01*
X53771680Y-115679727D01*
X53879853Y-115418574D01*
X53935000Y-115141335D01*
X53935000Y-114858665D01*
X53879853Y-114581426D01*
X53771680Y-114320273D01*
X53614637Y-114085241D01*
X53414759Y-113885363D01*
X53179727Y-113728320D01*
X52918574Y-113620147D01*
X52641335Y-113565000D01*
X52358665Y-113565000D01*
X52081426Y-113620147D01*
X51820273Y-113728320D01*
X51585241Y-113885363D01*
X51385363Y-114085241D01*
X51228320Y-114320273D01*
X51120147Y-114581426D01*
X51065000Y-114858665D01*
X48988072Y-114858665D01*
X48988072Y-114150000D01*
X48975812Y-114025518D01*
X48939502Y-113905820D01*
X48880537Y-113795506D01*
X48801185Y-113698815D01*
X48704494Y-113619463D01*
X48594180Y-113560498D01*
X48474482Y-113524188D01*
X48350000Y-113511928D01*
X46650000Y-113511928D01*
X46525518Y-113524188D01*
X46405820Y-113560498D01*
X46295506Y-113619463D01*
X46198815Y-113698815D01*
X46119463Y-113795506D01*
X46060498Y-113905820D01*
X46024188Y-114025518D01*
X46011928Y-114150000D01*
X46011928Y-115850000D01*
X46024188Y-115974482D01*
X46060498Y-116094180D01*
X46087814Y-116145284D01*
X45813698Y-116419401D01*
X45784700Y-116443199D01*
X45760902Y-116472197D01*
X45760901Y-116472198D01*
X45689726Y-116558924D01*
X45619154Y-116690954D01*
X45593448Y-116775698D01*
X45575698Y-116834214D01*
X45566825Y-116924303D01*
X45561024Y-116983200D01*
X41660000Y-116983200D01*
X41660000Y-113200000D01*
X66441928Y-113200000D01*
X66441928Y-114800000D01*
X66454188Y-114924482D01*
X66490498Y-115044180D01*
X66549463Y-115154494D01*
X66628815Y-115251185D01*
X66725506Y-115330537D01*
X66835820Y-115389502D01*
X66955518Y-115425812D01*
X67080000Y-115438072D01*
X68680000Y-115438072D01*
X68804482Y-115425812D01*
X68924180Y-115389502D01*
X69034494Y-115330537D01*
X69131185Y-115251185D01*
X69210537Y-115154494D01*
X69269502Y-115044180D01*
X69305812Y-114924482D01*
X69318072Y-114800000D01*
X69318072Y-114694575D01*
X69429576Y-114634974D01*
X69545301Y-114540001D01*
X69569104Y-114510997D01*
X73055700Y-111024401D01*
X74783913Y-112752615D01*
X74585241Y-112885363D01*
X74385363Y-113085241D01*
X74228320Y-113320273D01*
X74120147Y-113581426D01*
X74065000Y-113858665D01*
X74065000Y-114141335D01*
X74120147Y-114418574D01*
X74228320Y-114679727D01*
X74385363Y-114914759D01*
X74585241Y-115114637D01*
X74740001Y-115218044D01*
X74740000Y-117487377D01*
X74736324Y-117524700D01*
X74740000Y-117562022D01*
X74740000Y-117562032D01*
X74750997Y-117673685D01*
X74773199Y-117746876D01*
X74794454Y-117816946D01*
X74865026Y-117948976D01*
X74904871Y-117997526D01*
X74959999Y-118064701D01*
X74989003Y-118088504D01*
X76946394Y-120045895D01*
X76932748Y-120055013D01*
X76705013Y-120282748D01*
X76526082Y-120550537D01*
X76402832Y-120848088D01*
X76340000Y-121163967D01*
X76340000Y-121486033D01*
X76402832Y-121801912D01*
X76526082Y-122099463D01*
X76705013Y-122367252D01*
X76932748Y-122594987D01*
X77200537Y-122773918D01*
X77498088Y-122897168D01*
X77813967Y-122960000D01*
X78136033Y-122960000D01*
X78451912Y-122897168D01*
X78749463Y-122773918D01*
X79017252Y-122594987D01*
X79244987Y-122367252D01*
X79423918Y-122099463D01*
X79547168Y-121801912D01*
X79610000Y-121486033D01*
X79610000Y-121163967D01*
X79547168Y-120848088D01*
X79423918Y-120550537D01*
X79244987Y-120282748D01*
X79017252Y-120055013D01*
X78749463Y-119876082D01*
X78725525Y-119866167D01*
X78724003Y-119850714D01*
X78680546Y-119707453D01*
X78609974Y-119575424D01*
X78538799Y-119488697D01*
X78515001Y-119459699D01*
X78486003Y-119435901D01*
X76260000Y-117209899D01*
X76260000Y-115218043D01*
X76414759Y-115114637D01*
X76614637Y-114914759D01*
X76747385Y-114716087D01*
X76843201Y-114811903D01*
X76843200Y-117065877D01*
X76839524Y-117103200D01*
X76843200Y-117140522D01*
X76843200Y-117140532D01*
X76854197Y-117252185D01*
X76884176Y-117351014D01*
X76897654Y-117395446D01*
X76968226Y-117527476D01*
X76996586Y-117562032D01*
X77063199Y-117643201D01*
X77092203Y-117667004D01*
X82601312Y-123176114D01*
X82565000Y-123358665D01*
X82565000Y-123641335D01*
X82620147Y-123918574D01*
X82728320Y-124179727D01*
X82885363Y-124414759D01*
X83085241Y-124614637D01*
X83320273Y-124771680D01*
X83581426Y-124879853D01*
X83858665Y-124935000D01*
X84141335Y-124935000D01*
X84418574Y-124879853D01*
X84679727Y-124771680D01*
X84914759Y-124614637D01*
X85114637Y-124414759D01*
X85271680Y-124179727D01*
X85379853Y-123918574D01*
X85435000Y-123641335D01*
X85435000Y-123358665D01*
X85379853Y-123081426D01*
X85271680Y-122820273D01*
X85114637Y-122585241D01*
X84914759Y-122385363D01*
X84679727Y-122228320D01*
X84418574Y-122120147D01*
X84141335Y-122065000D01*
X83858665Y-122065000D01*
X83676114Y-122101312D01*
X82365014Y-120790212D01*
X82581426Y-120879853D01*
X82858665Y-120935000D01*
X83141335Y-120935000D01*
X83418574Y-120879853D01*
X83679727Y-120771680D01*
X83914759Y-120614637D01*
X84114637Y-120414759D01*
X84271680Y-120179727D01*
X84379853Y-119918574D01*
X84435000Y-119641335D01*
X84435000Y-119358665D01*
X84379853Y-119081426D01*
X84271680Y-118820273D01*
X84114637Y-118585241D01*
X83914759Y-118385363D01*
X83679727Y-118228320D01*
X83418574Y-118120147D01*
X83141335Y-118065000D01*
X82858665Y-118065000D01*
X82581426Y-118120147D01*
X82320273Y-118228320D01*
X82085241Y-118385363D01*
X81885363Y-118585241D01*
X81728320Y-118820273D01*
X81620147Y-119081426D01*
X81565000Y-119358665D01*
X81565000Y-119641335D01*
X81620147Y-119918574D01*
X81709788Y-120134986D01*
X78363200Y-116788399D01*
X78363200Y-114534422D01*
X78366876Y-114497099D01*
X78363200Y-114459776D01*
X78363200Y-114459767D01*
X78353243Y-114358665D01*
X81445000Y-114358665D01*
X81445000Y-114641335D01*
X81500147Y-114918574D01*
X81608320Y-115179727D01*
X81765363Y-115414759D01*
X81965241Y-115614637D01*
X82200273Y-115771680D01*
X82461426Y-115879853D01*
X82738665Y-115935000D01*
X83021335Y-115935000D01*
X83298574Y-115879853D01*
X83559727Y-115771680D01*
X83794759Y-115614637D01*
X83994637Y-115414759D01*
X84151680Y-115179727D01*
X84259853Y-114918574D01*
X84315000Y-114641335D01*
X84315000Y-114358665D01*
X93565000Y-114358665D01*
X93565000Y-114641335D01*
X93620147Y-114918574D01*
X93728320Y-115179727D01*
X93885363Y-115414759D01*
X94085241Y-115614637D01*
X94320273Y-115771680D01*
X94581426Y-115879853D01*
X94858665Y-115935000D01*
X95141335Y-115935000D01*
X95418574Y-115879853D01*
X95679727Y-115771680D01*
X95914759Y-115614637D01*
X96114637Y-115414759D01*
X96271680Y-115179727D01*
X96379853Y-114918574D01*
X96435000Y-114641335D01*
X96435000Y-114358665D01*
X96379853Y-114081426D01*
X96271680Y-113820273D01*
X96114637Y-113585241D01*
X95914759Y-113385363D01*
X95679727Y-113228320D01*
X95418574Y-113120147D01*
X95141335Y-113065000D01*
X94858665Y-113065000D01*
X94581426Y-113120147D01*
X94320273Y-113228320D01*
X94085241Y-113385363D01*
X93885363Y-113585241D01*
X93728320Y-113820273D01*
X93620147Y-114081426D01*
X93565000Y-114358665D01*
X84315000Y-114358665D01*
X84259853Y-114081426D01*
X84151680Y-113820273D01*
X83994637Y-113585241D01*
X83794759Y-113385363D01*
X83559727Y-113228320D01*
X83298574Y-113120147D01*
X83021335Y-113065000D01*
X82738665Y-113065000D01*
X82461426Y-113120147D01*
X82200273Y-113228320D01*
X81965241Y-113385363D01*
X81765363Y-113585241D01*
X81608320Y-113820273D01*
X81500147Y-114081426D01*
X81445000Y-114358665D01*
X78353243Y-114358665D01*
X78352203Y-114348114D01*
X78308746Y-114204853D01*
X78238174Y-114072824D01*
X78143201Y-113957099D01*
X78114203Y-113933301D01*
X74130501Y-109949600D01*
X74601436Y-109478665D01*
X78565000Y-109478665D01*
X78565000Y-109761335D01*
X78620147Y-110038574D01*
X78728320Y-110299727D01*
X78885363Y-110534759D01*
X79085241Y-110734637D01*
X79320273Y-110891680D01*
X79581426Y-110999853D01*
X79858665Y-111055000D01*
X80141335Y-111055000D01*
X80418574Y-110999853D01*
X80679727Y-110891680D01*
X80914759Y-110734637D01*
X81114637Y-110534759D01*
X81271680Y-110299727D01*
X81379853Y-110038574D01*
X81435000Y-109761335D01*
X81435000Y-109478665D01*
X81379853Y-109201426D01*
X81271680Y-108940273D01*
X81114637Y-108705241D01*
X80914759Y-108505363D01*
X80679727Y-108348320D01*
X80418574Y-108240147D01*
X80141335Y-108185000D01*
X79858665Y-108185000D01*
X79581426Y-108240147D01*
X79320273Y-108348320D01*
X79085241Y-108505363D01*
X78885363Y-108705241D01*
X78728320Y-108940273D01*
X78620147Y-109201426D01*
X78565000Y-109478665D01*
X74601436Y-109478665D01*
X80511004Y-103569098D01*
X80540001Y-103545301D01*
X80634974Y-103429576D01*
X80705546Y-103297547D01*
X80721951Y-103243467D01*
X80914759Y-103114637D01*
X81114637Y-102914759D01*
X81271680Y-102679727D01*
X81379853Y-102418574D01*
X81435000Y-102141335D01*
X81435000Y-101858665D01*
X81379853Y-101581426D01*
X81271680Y-101320273D01*
X81114637Y-101085241D01*
X80914759Y-100885363D01*
X80760000Y-100781957D01*
X80760000Y-99838043D01*
X80914759Y-99734637D01*
X81114637Y-99534759D01*
X81271680Y-99299727D01*
X81292143Y-99250324D01*
X98965000Y-99250324D01*
X98965000Y-99749676D01*
X99062418Y-100239432D01*
X99253512Y-100700773D01*
X99530937Y-101115968D01*
X99884032Y-101469063D01*
X100299227Y-101746488D01*
X100760568Y-101937582D01*
X101250324Y-102035000D01*
X101749676Y-102035000D01*
X102239432Y-101937582D01*
X102700773Y-101746488D01*
X103115968Y-101469063D01*
X103469063Y-101115968D01*
X103746488Y-100700773D01*
X103937582Y-100239432D01*
X104035000Y-99749676D01*
X104035000Y-99250324D01*
X103937582Y-98760568D01*
X103746488Y-98299227D01*
X103469063Y-97884032D01*
X103115968Y-97530937D01*
X102700773Y-97253512D01*
X102239432Y-97062418D01*
X101749676Y-96965000D01*
X101250324Y-96965000D01*
X100760568Y-97062418D01*
X100299227Y-97253512D01*
X99884032Y-97530937D01*
X99530937Y-97884032D01*
X99253512Y-98299227D01*
X99062418Y-98760568D01*
X98965000Y-99250324D01*
X81292143Y-99250324D01*
X81379853Y-99038574D01*
X81435000Y-98761335D01*
X81435000Y-98478665D01*
X81379853Y-98201426D01*
X81271680Y-97940273D01*
X81114637Y-97705241D01*
X80914759Y-97505363D01*
X80679727Y-97348320D01*
X80418574Y-97240147D01*
X80141335Y-97185000D01*
X79858665Y-97185000D01*
X79581426Y-97240147D01*
X79320273Y-97348320D01*
X79085241Y-97505363D01*
X78885363Y-97705241D01*
X78728320Y-97940273D01*
X78620147Y-98201426D01*
X78565000Y-98478665D01*
X78565000Y-98761335D01*
X78620147Y-99038574D01*
X78728320Y-99299727D01*
X78885363Y-99534759D01*
X79085241Y-99734637D01*
X79240000Y-99838044D01*
X79240001Y-100781956D01*
X79085241Y-100885363D01*
X78885363Y-101085241D01*
X78728320Y-101320273D01*
X78620147Y-101581426D01*
X78565000Y-101858665D01*
X78565000Y-102141335D01*
X78620147Y-102418574D01*
X78728320Y-102679727D01*
X78885363Y-102914759D01*
X78950551Y-102979947D01*
X72544703Y-109385796D01*
X72515699Y-109409599D01*
X72491901Y-109438597D01*
X69153948Y-112776551D01*
X69131185Y-112748815D01*
X69034494Y-112669463D01*
X68924180Y-112610498D01*
X68804482Y-112574188D01*
X68680000Y-112561928D01*
X67080000Y-112561928D01*
X66955518Y-112574188D01*
X66835820Y-112610498D01*
X66725506Y-112669463D01*
X66628815Y-112748815D01*
X66549463Y-112845506D01*
X66490498Y-112955820D01*
X66454188Y-113075518D01*
X66441928Y-113200000D01*
X41660000Y-113200000D01*
X41660000Y-105958967D01*
X65365000Y-105958967D01*
X65365000Y-106281033D01*
X65427832Y-106596912D01*
X65551082Y-106894463D01*
X65730013Y-107162252D01*
X65957748Y-107389987D01*
X66225537Y-107568918D01*
X66523088Y-107692168D01*
X66838967Y-107755000D01*
X67161033Y-107755000D01*
X67476912Y-107692168D01*
X67774463Y-107568918D01*
X68042252Y-107389987D01*
X68269987Y-107162252D01*
X68448918Y-106894463D01*
X68572168Y-106596912D01*
X68635000Y-106281033D01*
X68635000Y-105958967D01*
X68615049Y-105858665D01*
X69565000Y-105858665D01*
X69565000Y-106141335D01*
X69620147Y-106418574D01*
X69728320Y-106679727D01*
X69885363Y-106914759D01*
X70085241Y-107114637D01*
X70320273Y-107271680D01*
X70581426Y-107379853D01*
X70858665Y-107435000D01*
X71141335Y-107435000D01*
X71418574Y-107379853D01*
X71679727Y-107271680D01*
X71914759Y-107114637D01*
X72114637Y-106914759D01*
X72250000Y-106712173D01*
X72385363Y-106914759D01*
X72585241Y-107114637D01*
X72820273Y-107271680D01*
X73081426Y-107379853D01*
X73358665Y-107435000D01*
X73641335Y-107435000D01*
X73918574Y-107379853D01*
X74179727Y-107271680D01*
X74414759Y-107114637D01*
X74614637Y-106914759D01*
X74771680Y-106679727D01*
X74879853Y-106418574D01*
X74935000Y-106141335D01*
X74935000Y-105858665D01*
X74879853Y-105581426D01*
X74771680Y-105320273D01*
X74614637Y-105085241D01*
X74414759Y-104885363D01*
X74179727Y-104728320D01*
X73918574Y-104620147D01*
X73641335Y-104565000D01*
X73358665Y-104565000D01*
X73081426Y-104620147D01*
X72820273Y-104728320D01*
X72585241Y-104885363D01*
X72385363Y-105085241D01*
X72250000Y-105287827D01*
X72114637Y-105085241D01*
X71914759Y-104885363D01*
X71679727Y-104728320D01*
X71418574Y-104620147D01*
X71141335Y-104565000D01*
X70858665Y-104565000D01*
X70581426Y-104620147D01*
X70320273Y-104728320D01*
X70085241Y-104885363D01*
X69885363Y-105085241D01*
X69728320Y-105320273D01*
X69620147Y-105581426D01*
X69565000Y-105858665D01*
X68615049Y-105858665D01*
X68572168Y-105643088D01*
X68448918Y-105345537D01*
X68269987Y-105077748D01*
X68042252Y-104850013D01*
X67774463Y-104671082D01*
X67476912Y-104547832D01*
X67161033Y-104485000D01*
X66838967Y-104485000D01*
X66523088Y-104547832D01*
X66225537Y-104671082D01*
X65957748Y-104850013D01*
X65730013Y-105077748D01*
X65551082Y-105345537D01*
X65427832Y-105643088D01*
X65365000Y-105958967D01*
X41660000Y-105958967D01*
X41660000Y-96425324D01*
X45290000Y-96425324D01*
X45290000Y-96924676D01*
X45387418Y-97414432D01*
X45578512Y-97875773D01*
X45855937Y-98290968D01*
X46209032Y-98644063D01*
X46624227Y-98921488D01*
X47085568Y-99112582D01*
X47575324Y-99210000D01*
X48074676Y-99210000D01*
X48564432Y-99112582D01*
X49025773Y-98921488D01*
X49440968Y-98644063D01*
X49746064Y-98338967D01*
X52665000Y-98338967D01*
X52665000Y-98661033D01*
X52727832Y-98976912D01*
X52851082Y-99274463D01*
X53030013Y-99542252D01*
X53257748Y-99769987D01*
X53525537Y-99948918D01*
X53823088Y-100072168D01*
X54138967Y-100135000D01*
X54461033Y-100135000D01*
X54776912Y-100072168D01*
X55074463Y-99948918D01*
X55342252Y-99769987D01*
X55569987Y-99542252D01*
X55748918Y-99274463D01*
X55872168Y-98976912D01*
X55935000Y-98661033D01*
X55935000Y-98338967D01*
X65365000Y-98338967D01*
X65365000Y-98661033D01*
X65427832Y-98976912D01*
X65551082Y-99274463D01*
X65730013Y-99542252D01*
X65957748Y-99769987D01*
X66225537Y-99948918D01*
X66523088Y-100072168D01*
X66838967Y-100135000D01*
X67161033Y-100135000D01*
X67476912Y-100072168D01*
X67774463Y-99948918D01*
X68042252Y-99769987D01*
X68269987Y-99542252D01*
X68448918Y-99274463D01*
X68572168Y-98976912D01*
X68635000Y-98661033D01*
X68635000Y-98338967D01*
X68572168Y-98023088D01*
X68448918Y-97725537D01*
X68269987Y-97457748D01*
X68042252Y-97230013D01*
X67774463Y-97051082D01*
X67476912Y-96927832D01*
X67161033Y-96865000D01*
X66838967Y-96865000D01*
X66523088Y-96927832D01*
X66225537Y-97051082D01*
X65957748Y-97230013D01*
X65730013Y-97457748D01*
X65551082Y-97725537D01*
X65427832Y-98023088D01*
X65365000Y-98338967D01*
X55935000Y-98338967D01*
X55872168Y-98023088D01*
X55748918Y-97725537D01*
X55569987Y-97457748D01*
X55342252Y-97230013D01*
X55074463Y-97051082D01*
X54776912Y-96927832D01*
X54461033Y-96865000D01*
X54138967Y-96865000D01*
X53823088Y-96927832D01*
X53525537Y-97051082D01*
X53257748Y-97230013D01*
X53030013Y-97457748D01*
X52851082Y-97725537D01*
X52727832Y-98023088D01*
X52665000Y-98338967D01*
X49746064Y-98338967D01*
X49794063Y-98290968D01*
X50071488Y-97875773D01*
X50262582Y-97414432D01*
X50360000Y-96924676D01*
X50360000Y-96425324D01*
X50262582Y-95935568D01*
X50080007Y-95494794D01*
X53093784Y-92481018D01*
X53175518Y-92505812D01*
X53300000Y-92518072D01*
X55300000Y-92518072D01*
X55424482Y-92505812D01*
X55544180Y-92469502D01*
X55654494Y-92410537D01*
X55751185Y-92331185D01*
X55830537Y-92234494D01*
X55889502Y-92124180D01*
X55925812Y-92004482D01*
X55938072Y-91880000D01*
X55938072Y-90718967D01*
X65365000Y-90718967D01*
X65365000Y-91041033D01*
X65427832Y-91356912D01*
X65551082Y-91654463D01*
X65730013Y-91922252D01*
X65957748Y-92149987D01*
X66225537Y-92328918D01*
X66523088Y-92452168D01*
X66838967Y-92515000D01*
X67161033Y-92515000D01*
X67476912Y-92452168D01*
X67774463Y-92328918D01*
X68042252Y-92149987D01*
X68269987Y-91922252D01*
X68448918Y-91654463D01*
X68572168Y-91356912D01*
X68635000Y-91041033D01*
X68635000Y-90858665D01*
X70065000Y-90858665D01*
X70065000Y-91141335D01*
X70120147Y-91418574D01*
X70228320Y-91679727D01*
X70385363Y-91914759D01*
X70585241Y-92114637D01*
X70820273Y-92271680D01*
X71081426Y-92379853D01*
X71358665Y-92435000D01*
X71641335Y-92435000D01*
X71918574Y-92379853D01*
X72179727Y-92271680D01*
X72414759Y-92114637D01*
X72614637Y-91914759D01*
X72750000Y-91712173D01*
X72885363Y-91914759D01*
X73085241Y-92114637D01*
X73320273Y-92271680D01*
X73581426Y-92379853D01*
X73858665Y-92435000D01*
X74141335Y-92435000D01*
X74418574Y-92379853D01*
X74679727Y-92271680D01*
X74914759Y-92114637D01*
X75114637Y-91914759D01*
X75271680Y-91679727D01*
X75379853Y-91418574D01*
X75435000Y-91141335D01*
X75435000Y-90858665D01*
X78565000Y-90858665D01*
X78565000Y-91141335D01*
X78620147Y-91418574D01*
X78728320Y-91679727D01*
X78885363Y-91914759D01*
X79085241Y-92114637D01*
X79320273Y-92271680D01*
X79581426Y-92379853D01*
X79858665Y-92435000D01*
X80141335Y-92435000D01*
X80418574Y-92379853D01*
X80679727Y-92271680D01*
X80914759Y-92114637D01*
X81114637Y-91914759D01*
X81271680Y-91679727D01*
X81379853Y-91418574D01*
X81413320Y-91250324D01*
X98965000Y-91250324D01*
X98965000Y-91749676D01*
X99062418Y-92239432D01*
X99253512Y-92700773D01*
X99530937Y-93115968D01*
X99884032Y-93469063D01*
X100299227Y-93746488D01*
X100760568Y-93937582D01*
X101250324Y-94035000D01*
X101749676Y-94035000D01*
X102239432Y-93937582D01*
X102700773Y-93746488D01*
X103115968Y-93469063D01*
X103469063Y-93115968D01*
X103746488Y-92700773D01*
X103937582Y-92239432D01*
X104035000Y-91749676D01*
X104035000Y-91250324D01*
X103937582Y-90760568D01*
X103746488Y-90299227D01*
X103469063Y-89884032D01*
X103115968Y-89530937D01*
X102700773Y-89253512D01*
X102239432Y-89062418D01*
X101749676Y-88965000D01*
X101250324Y-88965000D01*
X100760568Y-89062418D01*
X100299227Y-89253512D01*
X99884032Y-89530937D01*
X99530937Y-89884032D01*
X99253512Y-90299227D01*
X99062418Y-90760568D01*
X98965000Y-91250324D01*
X81413320Y-91250324D01*
X81435000Y-91141335D01*
X81435000Y-90858665D01*
X81379853Y-90581426D01*
X81271680Y-90320273D01*
X81114637Y-90085241D01*
X80914759Y-89885363D01*
X80679727Y-89728320D01*
X80418574Y-89620147D01*
X80141335Y-89565000D01*
X79858665Y-89565000D01*
X79581426Y-89620147D01*
X79320273Y-89728320D01*
X79085241Y-89885363D01*
X78885363Y-90085241D01*
X78728320Y-90320273D01*
X78620147Y-90581426D01*
X78565000Y-90858665D01*
X75435000Y-90858665D01*
X75379853Y-90581426D01*
X75271680Y-90320273D01*
X75114637Y-90085241D01*
X74914759Y-89885363D01*
X74679727Y-89728320D01*
X74418574Y-89620147D01*
X74141335Y-89565000D01*
X73858665Y-89565000D01*
X73581426Y-89620147D01*
X73320273Y-89728320D01*
X73085241Y-89885363D01*
X72885363Y-90085241D01*
X72750000Y-90287827D01*
X72614637Y-90085241D01*
X72414759Y-89885363D01*
X72179727Y-89728320D01*
X71918574Y-89620147D01*
X71641335Y-89565000D01*
X71358665Y-89565000D01*
X71081426Y-89620147D01*
X70820273Y-89728320D01*
X70585241Y-89885363D01*
X70385363Y-90085241D01*
X70228320Y-90320273D01*
X70120147Y-90581426D01*
X70065000Y-90858665D01*
X68635000Y-90858665D01*
X68635000Y-90718967D01*
X68572168Y-90403088D01*
X68448918Y-90105537D01*
X68269987Y-89837748D01*
X68042252Y-89610013D01*
X67774463Y-89431082D01*
X67476912Y-89307832D01*
X67161033Y-89245000D01*
X66838967Y-89245000D01*
X66523088Y-89307832D01*
X66225537Y-89431082D01*
X65957748Y-89610013D01*
X65730013Y-89837748D01*
X65551082Y-90105537D01*
X65427832Y-90403088D01*
X65365000Y-90718967D01*
X55938072Y-90718967D01*
X55938072Y-89880000D01*
X55925812Y-89755518D01*
X55889502Y-89635820D01*
X55830537Y-89525506D01*
X55751185Y-89428815D01*
X55654494Y-89349463D01*
X55544180Y-89290498D01*
X55424482Y-89254188D01*
X55300000Y-89241928D01*
X53300000Y-89241928D01*
X53175518Y-89254188D01*
X53055820Y-89290498D01*
X52945506Y-89349463D01*
X52848815Y-89428815D01*
X52769463Y-89525506D01*
X52710498Y-89635820D01*
X52674188Y-89755518D01*
X52661928Y-89880000D01*
X52661928Y-90185425D01*
X52550424Y-90245026D01*
X52434699Y-90339999D01*
X52339726Y-90455724D01*
X52269154Y-90587753D01*
X52225697Y-90731014D01*
X52211023Y-90880000D01*
X52214700Y-90917333D01*
X52214700Y-91210498D01*
X49005206Y-94419993D01*
X48564432Y-94237418D01*
X48074676Y-94140000D01*
X47575324Y-94140000D01*
X47085568Y-94237418D01*
X46624227Y-94428512D01*
X46209032Y-94705937D01*
X45855937Y-95059032D01*
X45578512Y-95474227D01*
X45387418Y-95935568D01*
X45290000Y-96425324D01*
X41660000Y-96425324D01*
X41660000Y-88750324D01*
X42965000Y-88750324D01*
X42965000Y-89249676D01*
X43062418Y-89739432D01*
X43253512Y-90200773D01*
X43530937Y-90615968D01*
X43884032Y-90969063D01*
X44299227Y-91246488D01*
X44760568Y-91437582D01*
X45250324Y-91535000D01*
X45749676Y-91535000D01*
X46239432Y-91437582D01*
X46700773Y-91246488D01*
X47115968Y-90969063D01*
X47469063Y-90615968D01*
X47746488Y-90200773D01*
X47937582Y-89739432D01*
X48035000Y-89249676D01*
X48035000Y-88750324D01*
X104465000Y-88750324D01*
X104465000Y-89249676D01*
X104562418Y-89739432D01*
X104753512Y-90200773D01*
X105030937Y-90615968D01*
X105384032Y-90969063D01*
X105799227Y-91246488D01*
X106260568Y-91437582D01*
X106750324Y-91535000D01*
X107249676Y-91535000D01*
X107739432Y-91437582D01*
X108200773Y-91246488D01*
X108615968Y-90969063D01*
X108969063Y-90615968D01*
X109246488Y-90200773D01*
X109437582Y-89739432D01*
X109535000Y-89249676D01*
X109535000Y-88750324D01*
X109437582Y-88260568D01*
X109246488Y-87799227D01*
X108969063Y-87384032D01*
X108615968Y-87030937D01*
X108200773Y-86753512D01*
X107739432Y-86562418D01*
X107249676Y-86465000D01*
X106750324Y-86465000D01*
X106260568Y-86562418D01*
X105799227Y-86753512D01*
X105384032Y-87030937D01*
X105030937Y-87384032D01*
X104753512Y-87799227D01*
X104562418Y-88260568D01*
X104465000Y-88750324D01*
X48035000Y-88750324D01*
X47937582Y-88260568D01*
X47746488Y-87799227D01*
X47469063Y-87384032D01*
X47115968Y-87030937D01*
X46700773Y-86753512D01*
X46239432Y-86562418D01*
X45749676Y-86465000D01*
X45250324Y-86465000D01*
X44760568Y-86562418D01*
X44299227Y-86753512D01*
X43884032Y-87030937D01*
X43530937Y-87384032D01*
X43253512Y-87799227D01*
X43062418Y-88260568D01*
X42965000Y-88750324D01*
X41660000Y-88750324D01*
X41660000Y-85660000D01*
X110340000Y-85660000D01*
X110340001Y-138840000D01*
%TA.AperFunction,Conductor*%
D26*
G36*
X110340001Y-138840000D02*
G01*
X41660000Y-138840000D01*
X41660000Y-135250324D01*
X42965000Y-135250324D01*
X42965000Y-135749676D01*
X43062418Y-136239432D01*
X43253512Y-136700773D01*
X43530937Y-137115968D01*
X43884032Y-137469063D01*
X44299227Y-137746488D01*
X44760568Y-137937582D01*
X45250324Y-138035000D01*
X45749676Y-138035000D01*
X46239432Y-137937582D01*
X46700773Y-137746488D01*
X47115968Y-137469063D01*
X47469063Y-137115968D01*
X47746488Y-136700773D01*
X47937582Y-136239432D01*
X48035000Y-135749676D01*
X48035000Y-135250324D01*
X104465000Y-135250324D01*
X104465000Y-135749676D01*
X104562418Y-136239432D01*
X104753512Y-136700773D01*
X105030937Y-137115968D01*
X105384032Y-137469063D01*
X105799227Y-137746488D01*
X106260568Y-137937582D01*
X106750324Y-138035000D01*
X107249676Y-138035000D01*
X107739432Y-137937582D01*
X108200773Y-137746488D01*
X108615968Y-137469063D01*
X108969063Y-137115968D01*
X109246488Y-136700773D01*
X109437582Y-136239432D01*
X109535000Y-135749676D01*
X109535000Y-135250324D01*
X109437582Y-134760568D01*
X109246488Y-134299227D01*
X108969063Y-133884032D01*
X108615968Y-133530937D01*
X108200773Y-133253512D01*
X107739432Y-133062418D01*
X107249676Y-132965000D01*
X106750324Y-132965000D01*
X106260568Y-133062418D01*
X105799227Y-133253512D01*
X105384032Y-133530937D01*
X105030937Y-133884032D01*
X104753512Y-134299227D01*
X104562418Y-134760568D01*
X104465000Y-135250324D01*
X48035000Y-135250324D01*
X47937582Y-134760568D01*
X47746488Y-134299227D01*
X47469063Y-133884032D01*
X47115968Y-133530937D01*
X46700773Y-133253512D01*
X46239432Y-133062418D01*
X45749676Y-132965000D01*
X45250324Y-132965000D01*
X44760568Y-133062418D01*
X44299227Y-133253512D01*
X43884032Y-133530937D01*
X43530937Y-133884032D01*
X43253512Y-134299227D01*
X43062418Y-134760568D01*
X42965000Y-135250324D01*
X41660000Y-135250324D01*
X41660000Y-130978665D01*
X82565000Y-130978665D01*
X82565000Y-131261335D01*
X82620147Y-131538574D01*
X82728320Y-131799727D01*
X82885363Y-132034759D01*
X83085241Y-132234637D01*
X83320273Y-132391680D01*
X83581426Y-132499853D01*
X83858665Y-132555000D01*
X84141335Y-132555000D01*
X84418574Y-132499853D01*
X84679727Y-132391680D01*
X84914759Y-132234637D01*
X85114637Y-132034759D01*
X85218043Y-131880000D01*
X87281957Y-131880000D01*
X87385363Y-132034759D01*
X87585241Y-132234637D01*
X87820273Y-132391680D01*
X88081426Y-132499853D01*
X88358665Y-132555000D01*
X88641335Y-132555000D01*
X88918574Y-132499853D01*
X89179727Y-132391680D01*
X89414759Y-132234637D01*
X89614637Y-132034759D01*
X89771680Y-131799727D01*
X89879853Y-131538574D01*
X89935000Y-131261335D01*
X89935000Y-130978665D01*
X89879853Y-130701426D01*
X89771680Y-130440273D01*
X89614637Y-130205241D01*
X89414759Y-130005363D01*
X89179727Y-129848320D01*
X88918574Y-129740147D01*
X88641335Y-129685000D01*
X88358665Y-129685000D01*
X88081426Y-129740147D01*
X87820273Y-129848320D01*
X87585241Y-130005363D01*
X87385363Y-130205241D01*
X87281957Y-130360000D01*
X85218043Y-130360000D01*
X85114637Y-130205241D01*
X84914759Y-130005363D01*
X84679727Y-129848320D01*
X84418574Y-129740147D01*
X84141335Y-129685000D01*
X83858665Y-129685000D01*
X83581426Y-129740147D01*
X83320273Y-129848320D01*
X83085241Y-130005363D01*
X82885363Y-130205241D01*
X82728320Y-130440273D01*
X82620147Y-130701426D01*
X82565000Y-130978665D01*
X41660000Y-130978665D01*
X41660000Y-127858665D01*
X51065000Y-127858665D01*
X51065000Y-128141335D01*
X51120147Y-128418574D01*
X51228320Y-128679727D01*
X51385363Y-128914759D01*
X51585241Y-129114637D01*
X51820273Y-129271680D01*
X52081426Y-129379853D01*
X52358665Y-129435000D01*
X52641335Y-129435000D01*
X52918574Y-129379853D01*
X53179727Y-129271680D01*
X53414759Y-129114637D01*
X53614637Y-128914759D01*
X53771680Y-128679727D01*
X53879853Y-128418574D01*
X53935000Y-128141335D01*
X53935000Y-127858665D01*
X53879853Y-127581426D01*
X53771680Y-127320273D01*
X53614637Y-127085241D01*
X53414759Y-126885363D01*
X53179727Y-126728320D01*
X52918574Y-126620147D01*
X52641335Y-126565000D01*
X52358665Y-126565000D01*
X52081426Y-126620147D01*
X51820273Y-126728320D01*
X51585241Y-126885363D01*
X51385363Y-127085241D01*
X51228320Y-127320273D01*
X51120147Y-127581426D01*
X51065000Y-127858665D01*
X41660000Y-127858665D01*
X41660000Y-116983200D01*
X45561024Y-116983200D01*
X45564701Y-117020532D01*
X45564700Y-120287077D01*
X45561024Y-120324400D01*
X45564700Y-120361722D01*
X45564700Y-120361732D01*
X45575697Y-120473385D01*
X45618545Y-120614637D01*
X45619154Y-120616646D01*
X45689726Y-120748676D01*
X45719536Y-120784999D01*
X45784699Y-120864401D01*
X45813703Y-120888204D01*
X46340233Y-121414735D01*
X46294463Y-121470506D01*
X46235498Y-121580820D01*
X46199188Y-121700518D01*
X46186928Y-121825000D01*
X46186928Y-123175000D01*
X46199188Y-123299482D01*
X46235498Y-123419180D01*
X46294463Y-123529494D01*
X46373815Y-123626185D01*
X46460697Y-123697487D01*
X46339093Y-123879482D01*
X46240342Y-124117887D01*
X46190000Y-124370976D01*
X46190000Y-124629024D01*
X46240342Y-124882113D01*
X46339093Y-125120518D01*
X46482456Y-125335077D01*
X46664923Y-125517544D01*
X46879482Y-125660907D01*
X47117887Y-125759658D01*
X47370976Y-125810000D01*
X47629024Y-125810000D01*
X47882113Y-125759658D01*
X48120518Y-125660907D01*
X48335077Y-125517544D01*
X48493956Y-125358665D01*
X93065000Y-125358665D01*
X93065000Y-125641335D01*
X93120147Y-125918574D01*
X93228320Y-126179727D01*
X93385363Y-126414759D01*
X93585241Y-126614637D01*
X93820273Y-126771680D01*
X94081426Y-126879853D01*
X94358665Y-126935000D01*
X94641335Y-126935000D01*
X94918574Y-126879853D01*
X95179727Y-126771680D01*
X95414759Y-126614637D01*
X95614637Y-126414759D01*
X95771680Y-126179727D01*
X95879853Y-125918574D01*
X95935000Y-125641335D01*
X95935000Y-125358665D01*
X95898688Y-125176114D01*
X97014902Y-124059900D01*
X97462667Y-124059900D01*
X97500000Y-124063577D01*
X97537333Y-124059900D01*
X99965000Y-124059900D01*
X99965000Y-124111184D01*
X100023989Y-124407743D01*
X100139701Y-124687095D01*
X100307688Y-124938505D01*
X100521495Y-125152312D01*
X100772905Y-125320299D01*
X101052257Y-125436011D01*
X101348816Y-125495000D01*
X101651184Y-125495000D01*
X101947743Y-125436011D01*
X102227095Y-125320299D01*
X102478505Y-125152312D01*
X102692312Y-124938505D01*
X102860299Y-124687095D01*
X102976011Y-124407743D01*
X103035000Y-124111184D01*
X103035000Y-123808816D01*
X102976011Y-123512257D01*
X102860299Y-123232905D01*
X102692312Y-122981495D01*
X102478505Y-122767688D01*
X102227095Y-122599701D01*
X101947743Y-122483989D01*
X101651184Y-122425000D01*
X101348816Y-122425000D01*
X101052257Y-122483989D01*
X100909584Y-122543086D01*
X100877233Y-122539900D01*
X100877222Y-122539900D01*
X100839900Y-122536224D01*
X100802578Y-122539900D01*
X98260000Y-122539900D01*
X98260000Y-120718043D01*
X98414759Y-120614637D01*
X98614637Y-120414759D01*
X98771680Y-120179727D01*
X98879853Y-119918574D01*
X98935000Y-119641335D01*
X98935000Y-119358665D01*
X98879853Y-119081426D01*
X98771680Y-118820273D01*
X98614637Y-118585241D01*
X98414759Y-118385363D01*
X98179727Y-118228320D01*
X97918574Y-118120147D01*
X97641335Y-118065000D01*
X97358665Y-118065000D01*
X97081426Y-118120147D01*
X96820273Y-118228320D01*
X96585241Y-118385363D01*
X96385363Y-118585241D01*
X96228320Y-118820273D01*
X96120147Y-119081426D01*
X96065000Y-119358665D01*
X96065000Y-119641335D01*
X96120147Y-119918574D01*
X96228320Y-120179727D01*
X96385363Y-120414759D01*
X96585241Y-120614637D01*
X96740001Y-120718044D01*
X96740000Y-122539900D01*
X96737422Y-122539900D01*
X96700099Y-122536224D01*
X96662776Y-122539900D01*
X96662767Y-122539900D01*
X96551114Y-122550897D01*
X96407853Y-122594354D01*
X96275824Y-122664926D01*
X96160099Y-122759899D01*
X96136301Y-122788897D01*
X94823886Y-124101312D01*
X94641335Y-124065000D01*
X94358665Y-124065000D01*
X94081426Y-124120147D01*
X93820273Y-124228320D01*
X93585241Y-124385363D01*
X93385363Y-124585241D01*
X93228320Y-124820273D01*
X93120147Y-125081426D01*
X93065000Y-125358665D01*
X48493956Y-125358665D01*
X48517544Y-125335077D01*
X48660907Y-125120518D01*
X48759658Y-124882113D01*
X48810000Y-124629024D01*
X48810000Y-124370976D01*
X48759658Y-124117887D01*
X48660907Y-123879482D01*
X48539303Y-123697487D01*
X48626185Y-123626185D01*
X48705537Y-123529494D01*
X48764502Y-123419180D01*
X48800812Y-123299482D01*
X48813072Y-123175000D01*
X48813072Y-122858665D01*
X51065000Y-122858665D01*
X51065000Y-123141335D01*
X51120147Y-123418574D01*
X51228320Y-123679727D01*
X51385363Y-123914759D01*
X51585241Y-124114637D01*
X51820273Y-124271680D01*
X52081426Y-124379853D01*
X52358665Y-124435000D01*
X52641335Y-124435000D01*
X52918574Y-124379853D01*
X53179727Y-124271680D01*
X53414759Y-124114637D01*
X53614637Y-123914759D01*
X53771680Y-123679727D01*
X53879853Y-123418574D01*
X53935000Y-123141335D01*
X53935000Y-122858665D01*
X53898688Y-122676114D01*
X54064802Y-122510000D01*
X57649733Y-122510000D01*
X57620147Y-122581426D01*
X57565000Y-122858665D01*
X57565000Y-123141335D01*
X57620147Y-123418574D01*
X57728320Y-123679727D01*
X57885363Y-123914759D01*
X58085241Y-124114637D01*
X58320273Y-124271680D01*
X58581426Y-124379853D01*
X58858665Y-124435000D01*
X59141335Y-124435000D01*
X59418574Y-124379853D01*
X59679727Y-124271680D01*
X59914759Y-124114637D01*
X60114637Y-123914759D01*
X60271680Y-123679727D01*
X60379853Y-123418574D01*
X60435000Y-123141335D01*
X60435000Y-122858665D01*
X60379853Y-122581426D01*
X60350267Y-122510000D01*
X64147761Y-122510000D01*
X64232748Y-122594987D01*
X64500537Y-122773918D01*
X64798088Y-122897168D01*
X65113967Y-122960000D01*
X65436033Y-122960000D01*
X65751912Y-122897168D01*
X66049463Y-122773918D01*
X66317252Y-122594987D01*
X66544987Y-122367252D01*
X66723918Y-122099463D01*
X66847168Y-121801912D01*
X66910000Y-121486033D01*
X66910000Y-121163967D01*
X66847168Y-120848088D01*
X66723918Y-120550537D01*
X66544987Y-120282748D01*
X66317252Y-120055013D01*
X66049463Y-119876082D01*
X65751912Y-119752832D01*
X65436033Y-119690000D01*
X65113967Y-119690000D01*
X64798088Y-119752832D01*
X64500537Y-119876082D01*
X64232748Y-120055013D01*
X64005013Y-120282748D01*
X63826082Y-120550537D01*
X63702832Y-120848088D01*
X63674604Y-120990000D01*
X60350267Y-120990000D01*
X60379853Y-120918574D01*
X60435000Y-120641335D01*
X60435000Y-120358665D01*
X60379853Y-120081426D01*
X60271680Y-119820273D01*
X60114637Y-119585241D01*
X59914759Y-119385363D01*
X59760000Y-119281957D01*
X59760000Y-118718043D01*
X59914759Y-118614637D01*
X60114637Y-118414759D01*
X60271680Y-118179727D01*
X60379853Y-117918574D01*
X60435000Y-117641335D01*
X60435000Y-117358665D01*
X60379853Y-117081426D01*
X60271680Y-116820273D01*
X60114637Y-116585241D01*
X59914759Y-116385363D01*
X59679727Y-116228320D01*
X59418574Y-116120147D01*
X59141335Y-116065000D01*
X58858665Y-116065000D01*
X58581426Y-116120147D01*
X58320273Y-116228320D01*
X58085241Y-116385363D01*
X57885363Y-116585241D01*
X57728320Y-116820273D01*
X57620147Y-117081426D01*
X57565000Y-117358665D01*
X57565000Y-117641335D01*
X57620147Y-117918574D01*
X57728320Y-118179727D01*
X57885363Y-118414759D01*
X58085241Y-118614637D01*
X58240001Y-118718044D01*
X58240000Y-119281956D01*
X58085241Y-119385363D01*
X57885363Y-119585241D01*
X57728320Y-119820273D01*
X57620147Y-120081426D01*
X57565000Y-120358665D01*
X57565000Y-120641335D01*
X57620147Y-120918574D01*
X57649733Y-120990000D01*
X53787323Y-120990000D01*
X53750000Y-120986324D01*
X53712677Y-120990000D01*
X53712667Y-120990000D01*
X53601014Y-121000997D01*
X53472433Y-121040001D01*
X53457753Y-121044454D01*
X53325723Y-121115026D01*
X53301417Y-121134974D01*
X53209999Y-121209999D01*
X53186201Y-121238997D01*
X52823886Y-121601312D01*
X52641335Y-121565000D01*
X52358665Y-121565000D01*
X52081426Y-121620147D01*
X51820273Y-121728320D01*
X51585241Y-121885363D01*
X51385363Y-122085241D01*
X51228320Y-122320273D01*
X51120147Y-122581426D01*
X51065000Y-122858665D01*
X48813072Y-122858665D01*
X48813072Y-121825000D01*
X48800812Y-121700518D01*
X48764502Y-121580820D01*
X48705537Y-121470506D01*
X48626185Y-121373815D01*
X48529494Y-121294463D01*
X48419180Y-121235498D01*
X48299482Y-121199188D01*
X48195663Y-121188963D01*
X48134974Y-121075424D01*
X48040001Y-120959699D01*
X48011003Y-120935901D01*
X47084700Y-120009599D01*
X47084700Y-117298001D01*
X47447402Y-116935300D01*
X47462667Y-116935300D01*
X47500000Y-116938977D01*
X47648986Y-116924303D01*
X47792247Y-116880846D01*
X47924276Y-116810274D01*
X48040001Y-116715301D01*
X48134974Y-116599576D01*
X48194575Y-116488072D01*
X48350000Y-116488072D01*
X48474482Y-116475812D01*
X48594180Y-116439502D01*
X48704494Y-116380537D01*
X48801185Y-116301185D01*
X48880537Y-116204494D01*
X48939502Y-116094180D01*
X48975812Y-115974482D01*
X48988072Y-115850000D01*
X48988072Y-114858665D01*
X51065000Y-114858665D01*
X51065000Y-115141335D01*
X51120147Y-115418574D01*
X51228320Y-115679727D01*
X51385363Y-115914759D01*
X51585241Y-116114637D01*
X51820273Y-116271680D01*
X52081426Y-116379853D01*
X52358665Y-116435000D01*
X52641335Y-116435000D01*
X52918574Y-116379853D01*
X53179727Y-116271680D01*
X53414759Y-116114637D01*
X53614637Y-115914759D01*
X53771680Y-115679727D01*
X53879853Y-115418574D01*
X53935000Y-115141335D01*
X53935000Y-114858665D01*
X53879853Y-114581426D01*
X53771680Y-114320273D01*
X53614637Y-114085241D01*
X53414759Y-113885363D01*
X53179727Y-113728320D01*
X52918574Y-113620147D01*
X52641335Y-113565000D01*
X52358665Y-113565000D01*
X52081426Y-113620147D01*
X51820273Y-113728320D01*
X51585241Y-113885363D01*
X51385363Y-114085241D01*
X51228320Y-114320273D01*
X51120147Y-114581426D01*
X51065000Y-114858665D01*
X48988072Y-114858665D01*
X48988072Y-114150000D01*
X48975812Y-114025518D01*
X48939502Y-113905820D01*
X48880537Y-113795506D01*
X48801185Y-113698815D01*
X48704494Y-113619463D01*
X48594180Y-113560498D01*
X48474482Y-113524188D01*
X48350000Y-113511928D01*
X46650000Y-113511928D01*
X46525518Y-113524188D01*
X46405820Y-113560498D01*
X46295506Y-113619463D01*
X46198815Y-113698815D01*
X46119463Y-113795506D01*
X46060498Y-113905820D01*
X46024188Y-114025518D01*
X46011928Y-114150000D01*
X46011928Y-115850000D01*
X46024188Y-115974482D01*
X46060498Y-116094180D01*
X46087814Y-116145284D01*
X45813698Y-116419401D01*
X45784700Y-116443199D01*
X45760902Y-116472197D01*
X45760901Y-116472198D01*
X45689726Y-116558924D01*
X45619154Y-116690954D01*
X45593448Y-116775698D01*
X45575698Y-116834214D01*
X45566825Y-116924303D01*
X45561024Y-116983200D01*
X41660000Y-116983200D01*
X41660000Y-113200000D01*
X66441928Y-113200000D01*
X66441928Y-114800000D01*
X66454188Y-114924482D01*
X66490498Y-115044180D01*
X66549463Y-115154494D01*
X66628815Y-115251185D01*
X66725506Y-115330537D01*
X66835820Y-115389502D01*
X66955518Y-115425812D01*
X67080000Y-115438072D01*
X68680000Y-115438072D01*
X68804482Y-115425812D01*
X68924180Y-115389502D01*
X69034494Y-115330537D01*
X69131185Y-115251185D01*
X69210537Y-115154494D01*
X69269502Y-115044180D01*
X69305812Y-114924482D01*
X69318072Y-114800000D01*
X69318072Y-114694575D01*
X69429576Y-114634974D01*
X69545301Y-114540001D01*
X69569104Y-114510997D01*
X73055700Y-111024401D01*
X74783913Y-112752615D01*
X74585241Y-112885363D01*
X74385363Y-113085241D01*
X74228320Y-113320273D01*
X74120147Y-113581426D01*
X74065000Y-113858665D01*
X74065000Y-114141335D01*
X74120147Y-114418574D01*
X74228320Y-114679727D01*
X74385363Y-114914759D01*
X74585241Y-115114637D01*
X74740001Y-115218044D01*
X74740000Y-117487377D01*
X74736324Y-117524700D01*
X74740000Y-117562022D01*
X74740000Y-117562032D01*
X74750997Y-117673685D01*
X74773199Y-117746876D01*
X74794454Y-117816946D01*
X74865026Y-117948976D01*
X74904871Y-117997526D01*
X74959999Y-118064701D01*
X74989003Y-118088504D01*
X76946394Y-120045895D01*
X76932748Y-120055013D01*
X76705013Y-120282748D01*
X76526082Y-120550537D01*
X76402832Y-120848088D01*
X76340000Y-121163967D01*
X76340000Y-121486033D01*
X76402832Y-121801912D01*
X76526082Y-122099463D01*
X76705013Y-122367252D01*
X76932748Y-122594987D01*
X77200537Y-122773918D01*
X77498088Y-122897168D01*
X77813967Y-122960000D01*
X78136033Y-122960000D01*
X78451912Y-122897168D01*
X78749463Y-122773918D01*
X79017252Y-122594987D01*
X79244987Y-122367252D01*
X79423918Y-122099463D01*
X79547168Y-121801912D01*
X79610000Y-121486033D01*
X79610000Y-121163967D01*
X79547168Y-120848088D01*
X79423918Y-120550537D01*
X79244987Y-120282748D01*
X79017252Y-120055013D01*
X78749463Y-119876082D01*
X78725525Y-119866167D01*
X78724003Y-119850714D01*
X78680546Y-119707453D01*
X78609974Y-119575424D01*
X78538799Y-119488697D01*
X78515001Y-119459699D01*
X78486003Y-119435901D01*
X76260000Y-117209899D01*
X76260000Y-115218043D01*
X76414759Y-115114637D01*
X76614637Y-114914759D01*
X76747385Y-114716087D01*
X76843201Y-114811903D01*
X76843200Y-117065877D01*
X76839524Y-117103200D01*
X76843200Y-117140522D01*
X76843200Y-117140532D01*
X76854197Y-117252185D01*
X76884176Y-117351014D01*
X76897654Y-117395446D01*
X76968226Y-117527476D01*
X76996586Y-117562032D01*
X77063199Y-117643201D01*
X77092203Y-117667004D01*
X82601312Y-123176114D01*
X82565000Y-123358665D01*
X82565000Y-123641335D01*
X82620147Y-123918574D01*
X82728320Y-124179727D01*
X82885363Y-124414759D01*
X83085241Y-124614637D01*
X83320273Y-124771680D01*
X83581426Y-124879853D01*
X83858665Y-124935000D01*
X84141335Y-124935000D01*
X84418574Y-124879853D01*
X84679727Y-124771680D01*
X84914759Y-124614637D01*
X85114637Y-124414759D01*
X85271680Y-124179727D01*
X85379853Y-123918574D01*
X85435000Y-123641335D01*
X85435000Y-123358665D01*
X85379853Y-123081426D01*
X85271680Y-122820273D01*
X85114637Y-122585241D01*
X84914759Y-122385363D01*
X84679727Y-122228320D01*
X84418574Y-122120147D01*
X84141335Y-122065000D01*
X83858665Y-122065000D01*
X83676114Y-122101312D01*
X82365014Y-120790212D01*
X82581426Y-120879853D01*
X82858665Y-120935000D01*
X83141335Y-120935000D01*
X83418574Y-120879853D01*
X83679727Y-120771680D01*
X83914759Y-120614637D01*
X84114637Y-120414759D01*
X84271680Y-120179727D01*
X84379853Y-119918574D01*
X84435000Y-119641335D01*
X84435000Y-119358665D01*
X84379853Y-119081426D01*
X84271680Y-118820273D01*
X84114637Y-118585241D01*
X83914759Y-118385363D01*
X83679727Y-118228320D01*
X83418574Y-118120147D01*
X83141335Y-118065000D01*
X82858665Y-118065000D01*
X82581426Y-118120147D01*
X82320273Y-118228320D01*
X82085241Y-118385363D01*
X81885363Y-118585241D01*
X81728320Y-118820273D01*
X81620147Y-119081426D01*
X81565000Y-119358665D01*
X81565000Y-119641335D01*
X81620147Y-119918574D01*
X81709788Y-120134986D01*
X78363200Y-116788399D01*
X78363200Y-114534422D01*
X78366876Y-114497099D01*
X78363200Y-114459776D01*
X78363200Y-114459767D01*
X78353243Y-114358665D01*
X81445000Y-114358665D01*
X81445000Y-114641335D01*
X81500147Y-114918574D01*
X81608320Y-115179727D01*
X81765363Y-115414759D01*
X81965241Y-115614637D01*
X82200273Y-115771680D01*
X82461426Y-115879853D01*
X82738665Y-115935000D01*
X83021335Y-115935000D01*
X83298574Y-115879853D01*
X83559727Y-115771680D01*
X83794759Y-115614637D01*
X83994637Y-115414759D01*
X84151680Y-115179727D01*
X84259853Y-114918574D01*
X84315000Y-114641335D01*
X84315000Y-114358665D01*
X93565000Y-114358665D01*
X93565000Y-114641335D01*
X93620147Y-114918574D01*
X93728320Y-115179727D01*
X93885363Y-115414759D01*
X94085241Y-115614637D01*
X94320273Y-115771680D01*
X94581426Y-115879853D01*
X94858665Y-115935000D01*
X95141335Y-115935000D01*
X95418574Y-115879853D01*
X95679727Y-115771680D01*
X95914759Y-115614637D01*
X96114637Y-115414759D01*
X96271680Y-115179727D01*
X96379853Y-114918574D01*
X96435000Y-114641335D01*
X96435000Y-114358665D01*
X96379853Y-114081426D01*
X96271680Y-113820273D01*
X96114637Y-113585241D01*
X95914759Y-113385363D01*
X95679727Y-113228320D01*
X95418574Y-113120147D01*
X95141335Y-113065000D01*
X94858665Y-113065000D01*
X94581426Y-113120147D01*
X94320273Y-113228320D01*
X94085241Y-113385363D01*
X93885363Y-113585241D01*
X93728320Y-113820273D01*
X93620147Y-114081426D01*
X93565000Y-114358665D01*
X84315000Y-114358665D01*
X84259853Y-114081426D01*
X84151680Y-113820273D01*
X83994637Y-113585241D01*
X83794759Y-113385363D01*
X83559727Y-113228320D01*
X83298574Y-113120147D01*
X83021335Y-113065000D01*
X82738665Y-113065000D01*
X82461426Y-113120147D01*
X82200273Y-113228320D01*
X81965241Y-113385363D01*
X81765363Y-113585241D01*
X81608320Y-113820273D01*
X81500147Y-114081426D01*
X81445000Y-114358665D01*
X78353243Y-114358665D01*
X78352203Y-114348114D01*
X78308746Y-114204853D01*
X78238174Y-114072824D01*
X78143201Y-113957099D01*
X78114203Y-113933301D01*
X74130501Y-109949600D01*
X74601436Y-109478665D01*
X78565000Y-109478665D01*
X78565000Y-109761335D01*
X78620147Y-110038574D01*
X78728320Y-110299727D01*
X78885363Y-110534759D01*
X79085241Y-110734637D01*
X79320273Y-110891680D01*
X79581426Y-110999853D01*
X79858665Y-111055000D01*
X80141335Y-111055000D01*
X80418574Y-110999853D01*
X80679727Y-110891680D01*
X80914759Y-110734637D01*
X81114637Y-110534759D01*
X81271680Y-110299727D01*
X81379853Y-110038574D01*
X81435000Y-109761335D01*
X81435000Y-109478665D01*
X81379853Y-109201426D01*
X81271680Y-108940273D01*
X81114637Y-108705241D01*
X80914759Y-108505363D01*
X80679727Y-108348320D01*
X80418574Y-108240147D01*
X80141335Y-108185000D01*
X79858665Y-108185000D01*
X79581426Y-108240147D01*
X79320273Y-108348320D01*
X79085241Y-108505363D01*
X78885363Y-108705241D01*
X78728320Y-108940273D01*
X78620147Y-109201426D01*
X78565000Y-109478665D01*
X74601436Y-109478665D01*
X80511004Y-103569098D01*
X80540001Y-103545301D01*
X80634974Y-103429576D01*
X80705546Y-103297547D01*
X80721951Y-103243467D01*
X80914759Y-103114637D01*
X81114637Y-102914759D01*
X81271680Y-102679727D01*
X81379853Y-102418574D01*
X81435000Y-102141335D01*
X81435000Y-101858665D01*
X81379853Y-101581426D01*
X81271680Y-101320273D01*
X81114637Y-101085241D01*
X80914759Y-100885363D01*
X80760000Y-100781957D01*
X80760000Y-99838043D01*
X80914759Y-99734637D01*
X81114637Y-99534759D01*
X81271680Y-99299727D01*
X81292143Y-99250324D01*
X98965000Y-99250324D01*
X98965000Y-99749676D01*
X99062418Y-100239432D01*
X99253512Y-100700773D01*
X99530937Y-101115968D01*
X99884032Y-101469063D01*
X100299227Y-101746488D01*
X100760568Y-101937582D01*
X101250324Y-102035000D01*
X101749676Y-102035000D01*
X102239432Y-101937582D01*
X102700773Y-101746488D01*
X103115968Y-101469063D01*
X103469063Y-101115968D01*
X103746488Y-100700773D01*
X103937582Y-100239432D01*
X104035000Y-99749676D01*
X104035000Y-99250324D01*
X103937582Y-98760568D01*
X103746488Y-98299227D01*
X103469063Y-97884032D01*
X103115968Y-97530937D01*
X102700773Y-97253512D01*
X102239432Y-97062418D01*
X101749676Y-96965000D01*
X101250324Y-96965000D01*
X100760568Y-97062418D01*
X100299227Y-97253512D01*
X99884032Y-97530937D01*
X99530937Y-97884032D01*
X99253512Y-98299227D01*
X99062418Y-98760568D01*
X98965000Y-99250324D01*
X81292143Y-99250324D01*
X81379853Y-99038574D01*
X81435000Y-98761335D01*
X81435000Y-98478665D01*
X81379853Y-98201426D01*
X81271680Y-97940273D01*
X81114637Y-97705241D01*
X80914759Y-97505363D01*
X80679727Y-97348320D01*
X80418574Y-97240147D01*
X80141335Y-97185000D01*
X79858665Y-97185000D01*
X79581426Y-97240147D01*
X79320273Y-97348320D01*
X79085241Y-97505363D01*
X78885363Y-97705241D01*
X78728320Y-97940273D01*
X78620147Y-98201426D01*
X78565000Y-98478665D01*
X78565000Y-98761335D01*
X78620147Y-99038574D01*
X78728320Y-99299727D01*
X78885363Y-99534759D01*
X79085241Y-99734637D01*
X79240000Y-99838044D01*
X79240001Y-100781956D01*
X79085241Y-100885363D01*
X78885363Y-101085241D01*
X78728320Y-101320273D01*
X78620147Y-101581426D01*
X78565000Y-101858665D01*
X78565000Y-102141335D01*
X78620147Y-102418574D01*
X78728320Y-102679727D01*
X78885363Y-102914759D01*
X78950551Y-102979947D01*
X72544703Y-109385796D01*
X72515699Y-109409599D01*
X72491901Y-109438597D01*
X69153948Y-112776551D01*
X69131185Y-112748815D01*
X69034494Y-112669463D01*
X68924180Y-112610498D01*
X68804482Y-112574188D01*
X68680000Y-112561928D01*
X67080000Y-112561928D01*
X66955518Y-112574188D01*
X66835820Y-112610498D01*
X66725506Y-112669463D01*
X66628815Y-112748815D01*
X66549463Y-112845506D01*
X66490498Y-112955820D01*
X66454188Y-113075518D01*
X66441928Y-113200000D01*
X41660000Y-113200000D01*
X41660000Y-105958967D01*
X65365000Y-105958967D01*
X65365000Y-106281033D01*
X65427832Y-106596912D01*
X65551082Y-106894463D01*
X65730013Y-107162252D01*
X65957748Y-107389987D01*
X66225537Y-107568918D01*
X66523088Y-107692168D01*
X66838967Y-107755000D01*
X67161033Y-107755000D01*
X67476912Y-107692168D01*
X67774463Y-107568918D01*
X68042252Y-107389987D01*
X68269987Y-107162252D01*
X68448918Y-106894463D01*
X68572168Y-106596912D01*
X68635000Y-106281033D01*
X68635000Y-105958967D01*
X68615049Y-105858665D01*
X69565000Y-105858665D01*
X69565000Y-106141335D01*
X69620147Y-106418574D01*
X69728320Y-106679727D01*
X69885363Y-106914759D01*
X70085241Y-107114637D01*
X70320273Y-107271680D01*
X70581426Y-107379853D01*
X70858665Y-107435000D01*
X71141335Y-107435000D01*
X71418574Y-107379853D01*
X71679727Y-107271680D01*
X71914759Y-107114637D01*
X72114637Y-106914759D01*
X72250000Y-106712173D01*
X72385363Y-106914759D01*
X72585241Y-107114637D01*
X72820273Y-107271680D01*
X73081426Y-107379853D01*
X73358665Y-107435000D01*
X73641335Y-107435000D01*
X73918574Y-107379853D01*
X74179727Y-107271680D01*
X74414759Y-107114637D01*
X74614637Y-106914759D01*
X74771680Y-106679727D01*
X74879853Y-106418574D01*
X74935000Y-106141335D01*
X74935000Y-105858665D01*
X74879853Y-105581426D01*
X74771680Y-105320273D01*
X74614637Y-105085241D01*
X74414759Y-104885363D01*
X74179727Y-104728320D01*
X73918574Y-104620147D01*
X73641335Y-104565000D01*
X73358665Y-104565000D01*
X73081426Y-104620147D01*
X72820273Y-104728320D01*
X72585241Y-104885363D01*
X72385363Y-105085241D01*
X72250000Y-105287827D01*
X72114637Y-105085241D01*
X71914759Y-104885363D01*
X71679727Y-104728320D01*
X71418574Y-104620147D01*
X71141335Y-104565000D01*
X70858665Y-104565000D01*
X70581426Y-104620147D01*
X70320273Y-104728320D01*
X70085241Y-104885363D01*
X69885363Y-105085241D01*
X69728320Y-105320273D01*
X69620147Y-105581426D01*
X69565000Y-105858665D01*
X68615049Y-105858665D01*
X68572168Y-105643088D01*
X68448918Y-105345537D01*
X68269987Y-105077748D01*
X68042252Y-104850013D01*
X67774463Y-104671082D01*
X67476912Y-104547832D01*
X67161033Y-104485000D01*
X66838967Y-104485000D01*
X66523088Y-104547832D01*
X66225537Y-104671082D01*
X65957748Y-104850013D01*
X65730013Y-105077748D01*
X65551082Y-105345537D01*
X65427832Y-105643088D01*
X65365000Y-105958967D01*
X41660000Y-105958967D01*
X41660000Y-96425324D01*
X45290000Y-96425324D01*
X45290000Y-96924676D01*
X45387418Y-97414432D01*
X45578512Y-97875773D01*
X45855937Y-98290968D01*
X46209032Y-98644063D01*
X46624227Y-98921488D01*
X47085568Y-99112582D01*
X47575324Y-99210000D01*
X48074676Y-99210000D01*
X48564432Y-99112582D01*
X49025773Y-98921488D01*
X49440968Y-98644063D01*
X49746064Y-98338967D01*
X52665000Y-98338967D01*
X52665000Y-98661033D01*
X52727832Y-98976912D01*
X52851082Y-99274463D01*
X53030013Y-99542252D01*
X53257748Y-99769987D01*
X53525537Y-99948918D01*
X53823088Y-100072168D01*
X54138967Y-100135000D01*
X54461033Y-100135000D01*
X54776912Y-100072168D01*
X55074463Y-99948918D01*
X55342252Y-99769987D01*
X55569987Y-99542252D01*
X55748918Y-99274463D01*
X55872168Y-98976912D01*
X55935000Y-98661033D01*
X55935000Y-98338967D01*
X65365000Y-98338967D01*
X65365000Y-98661033D01*
X65427832Y-98976912D01*
X65551082Y-99274463D01*
X65730013Y-99542252D01*
X65957748Y-99769987D01*
X66225537Y-99948918D01*
X66523088Y-100072168D01*
X66838967Y-100135000D01*
X67161033Y-100135000D01*
X67476912Y-100072168D01*
X67774463Y-99948918D01*
X68042252Y-99769987D01*
X68269987Y-99542252D01*
X68448918Y-99274463D01*
X68572168Y-98976912D01*
X68635000Y-98661033D01*
X68635000Y-98338967D01*
X68572168Y-98023088D01*
X68448918Y-97725537D01*
X68269987Y-97457748D01*
X68042252Y-97230013D01*
X67774463Y-97051082D01*
X67476912Y-96927832D01*
X67161033Y-96865000D01*
X66838967Y-96865000D01*
X66523088Y-96927832D01*
X66225537Y-97051082D01*
X65957748Y-97230013D01*
X65730013Y-97457748D01*
X65551082Y-97725537D01*
X65427832Y-98023088D01*
X65365000Y-98338967D01*
X55935000Y-98338967D01*
X55872168Y-98023088D01*
X55748918Y-97725537D01*
X55569987Y-97457748D01*
X55342252Y-97230013D01*
X55074463Y-97051082D01*
X54776912Y-96927832D01*
X54461033Y-96865000D01*
X54138967Y-96865000D01*
X53823088Y-96927832D01*
X53525537Y-97051082D01*
X53257748Y-97230013D01*
X53030013Y-97457748D01*
X52851082Y-97725537D01*
X52727832Y-98023088D01*
X52665000Y-98338967D01*
X49746064Y-98338967D01*
X49794063Y-98290968D01*
X50071488Y-97875773D01*
X50262582Y-97414432D01*
X50360000Y-96924676D01*
X50360000Y-96425324D01*
X50262582Y-95935568D01*
X50080007Y-95494794D01*
X53093784Y-92481018D01*
X53175518Y-92505812D01*
X53300000Y-92518072D01*
X55300000Y-92518072D01*
X55424482Y-92505812D01*
X55544180Y-92469502D01*
X55654494Y-92410537D01*
X55751185Y-92331185D01*
X55830537Y-92234494D01*
X55889502Y-92124180D01*
X55925812Y-92004482D01*
X55938072Y-91880000D01*
X55938072Y-90718967D01*
X65365000Y-90718967D01*
X65365000Y-91041033D01*
X65427832Y-91356912D01*
X65551082Y-91654463D01*
X65730013Y-91922252D01*
X65957748Y-92149987D01*
X66225537Y-92328918D01*
X66523088Y-92452168D01*
X66838967Y-92515000D01*
X67161033Y-92515000D01*
X67476912Y-92452168D01*
X67774463Y-92328918D01*
X68042252Y-92149987D01*
X68269987Y-91922252D01*
X68448918Y-91654463D01*
X68572168Y-91356912D01*
X68635000Y-91041033D01*
X68635000Y-90858665D01*
X70065000Y-90858665D01*
X70065000Y-91141335D01*
X70120147Y-91418574D01*
X70228320Y-91679727D01*
X70385363Y-91914759D01*
X70585241Y-92114637D01*
X70820273Y-92271680D01*
X71081426Y-92379853D01*
X71358665Y-92435000D01*
X71641335Y-92435000D01*
X71918574Y-92379853D01*
X72179727Y-92271680D01*
X72414759Y-92114637D01*
X72614637Y-91914759D01*
X72750000Y-91712173D01*
X72885363Y-91914759D01*
X73085241Y-92114637D01*
X73320273Y-92271680D01*
X73581426Y-92379853D01*
X73858665Y-92435000D01*
X74141335Y-92435000D01*
X74418574Y-92379853D01*
X74679727Y-92271680D01*
X74914759Y-92114637D01*
X75114637Y-91914759D01*
X75271680Y-91679727D01*
X75379853Y-91418574D01*
X75435000Y-91141335D01*
X75435000Y-90858665D01*
X78565000Y-90858665D01*
X78565000Y-91141335D01*
X78620147Y-91418574D01*
X78728320Y-91679727D01*
X78885363Y-91914759D01*
X79085241Y-92114637D01*
X79320273Y-92271680D01*
X79581426Y-92379853D01*
X79858665Y-92435000D01*
X80141335Y-92435000D01*
X80418574Y-92379853D01*
X80679727Y-92271680D01*
X80914759Y-92114637D01*
X81114637Y-91914759D01*
X81271680Y-91679727D01*
X81379853Y-91418574D01*
X81413320Y-91250324D01*
X98965000Y-91250324D01*
X98965000Y-91749676D01*
X99062418Y-92239432D01*
X99253512Y-92700773D01*
X99530937Y-93115968D01*
X99884032Y-93469063D01*
X100299227Y-93746488D01*
X100760568Y-93937582D01*
X101250324Y-94035000D01*
X101749676Y-94035000D01*
X102239432Y-93937582D01*
X102700773Y-93746488D01*
X103115968Y-93469063D01*
X103469063Y-93115968D01*
X103746488Y-92700773D01*
X103937582Y-92239432D01*
X104035000Y-91749676D01*
X104035000Y-91250324D01*
X103937582Y-90760568D01*
X103746488Y-90299227D01*
X103469063Y-89884032D01*
X103115968Y-89530937D01*
X102700773Y-89253512D01*
X102239432Y-89062418D01*
X101749676Y-88965000D01*
X101250324Y-88965000D01*
X100760568Y-89062418D01*
X100299227Y-89253512D01*
X99884032Y-89530937D01*
X99530937Y-89884032D01*
X99253512Y-90299227D01*
X99062418Y-90760568D01*
X98965000Y-91250324D01*
X81413320Y-91250324D01*
X81435000Y-91141335D01*
X81435000Y-90858665D01*
X81379853Y-90581426D01*
X81271680Y-90320273D01*
X81114637Y-90085241D01*
X80914759Y-89885363D01*
X80679727Y-89728320D01*
X80418574Y-89620147D01*
X80141335Y-89565000D01*
X79858665Y-89565000D01*
X79581426Y-89620147D01*
X79320273Y-89728320D01*
X79085241Y-89885363D01*
X78885363Y-90085241D01*
X78728320Y-90320273D01*
X78620147Y-90581426D01*
X78565000Y-90858665D01*
X75435000Y-90858665D01*
X75379853Y-90581426D01*
X75271680Y-90320273D01*
X75114637Y-90085241D01*
X74914759Y-89885363D01*
X74679727Y-89728320D01*
X74418574Y-89620147D01*
X74141335Y-89565000D01*
X73858665Y-89565000D01*
X73581426Y-89620147D01*
X73320273Y-89728320D01*
X73085241Y-89885363D01*
X72885363Y-90085241D01*
X72750000Y-90287827D01*
X72614637Y-90085241D01*
X72414759Y-89885363D01*
X72179727Y-89728320D01*
X71918574Y-89620147D01*
X71641335Y-89565000D01*
X71358665Y-89565000D01*
X71081426Y-89620147D01*
X70820273Y-89728320D01*
X70585241Y-89885363D01*
X70385363Y-90085241D01*
X70228320Y-90320273D01*
X70120147Y-90581426D01*
X70065000Y-90858665D01*
X68635000Y-90858665D01*
X68635000Y-90718967D01*
X68572168Y-90403088D01*
X68448918Y-90105537D01*
X68269987Y-89837748D01*
X68042252Y-89610013D01*
X67774463Y-89431082D01*
X67476912Y-89307832D01*
X67161033Y-89245000D01*
X66838967Y-89245000D01*
X66523088Y-89307832D01*
X66225537Y-89431082D01*
X65957748Y-89610013D01*
X65730013Y-89837748D01*
X65551082Y-90105537D01*
X65427832Y-90403088D01*
X65365000Y-90718967D01*
X55938072Y-90718967D01*
X55938072Y-89880000D01*
X55925812Y-89755518D01*
X55889502Y-89635820D01*
X55830537Y-89525506D01*
X55751185Y-89428815D01*
X55654494Y-89349463D01*
X55544180Y-89290498D01*
X55424482Y-89254188D01*
X55300000Y-89241928D01*
X53300000Y-89241928D01*
X53175518Y-89254188D01*
X53055820Y-89290498D01*
X52945506Y-89349463D01*
X52848815Y-89428815D01*
X52769463Y-89525506D01*
X52710498Y-89635820D01*
X52674188Y-89755518D01*
X52661928Y-89880000D01*
X52661928Y-90185425D01*
X52550424Y-90245026D01*
X52434699Y-90339999D01*
X52339726Y-90455724D01*
X52269154Y-90587753D01*
X52225697Y-90731014D01*
X52211023Y-90880000D01*
X52214700Y-90917333D01*
X52214700Y-91210498D01*
X49005206Y-94419993D01*
X48564432Y-94237418D01*
X48074676Y-94140000D01*
X47575324Y-94140000D01*
X47085568Y-94237418D01*
X46624227Y-94428512D01*
X46209032Y-94705937D01*
X45855937Y-95059032D01*
X45578512Y-95474227D01*
X45387418Y-95935568D01*
X45290000Y-96425324D01*
X41660000Y-96425324D01*
X41660000Y-88750324D01*
X42965000Y-88750324D01*
X42965000Y-89249676D01*
X43062418Y-89739432D01*
X43253512Y-90200773D01*
X43530937Y-90615968D01*
X43884032Y-90969063D01*
X44299227Y-91246488D01*
X44760568Y-91437582D01*
X45250324Y-91535000D01*
X45749676Y-91535000D01*
X46239432Y-91437582D01*
X46700773Y-91246488D01*
X47115968Y-90969063D01*
X47469063Y-90615968D01*
X47746488Y-90200773D01*
X47937582Y-89739432D01*
X48035000Y-89249676D01*
X48035000Y-88750324D01*
X104465000Y-88750324D01*
X104465000Y-89249676D01*
X104562418Y-89739432D01*
X104753512Y-90200773D01*
X105030937Y-90615968D01*
X105384032Y-90969063D01*
X105799227Y-91246488D01*
X106260568Y-91437582D01*
X106750324Y-91535000D01*
X107249676Y-91535000D01*
X107739432Y-91437582D01*
X108200773Y-91246488D01*
X108615968Y-90969063D01*
X108969063Y-90615968D01*
X109246488Y-90200773D01*
X109437582Y-89739432D01*
X109535000Y-89249676D01*
X109535000Y-88750324D01*
X109437582Y-88260568D01*
X109246488Y-87799227D01*
X108969063Y-87384032D01*
X108615968Y-87030937D01*
X108200773Y-86753512D01*
X107739432Y-86562418D01*
X107249676Y-86465000D01*
X106750324Y-86465000D01*
X106260568Y-86562418D01*
X105799227Y-86753512D01*
X105384032Y-87030937D01*
X105030937Y-87384032D01*
X104753512Y-87799227D01*
X104562418Y-88260568D01*
X104465000Y-88750324D01*
X48035000Y-88750324D01*
X47937582Y-88260568D01*
X47746488Y-87799227D01*
X47469063Y-87384032D01*
X47115968Y-87030937D01*
X46700773Y-86753512D01*
X46239432Y-86562418D01*
X45749676Y-86465000D01*
X45250324Y-86465000D01*
X44760568Y-86562418D01*
X44299227Y-86753512D01*
X43884032Y-87030937D01*
X43530937Y-87384032D01*
X43253512Y-87799227D01*
X43062418Y-88260568D01*
X42965000Y-88750324D01*
X41660000Y-88750324D01*
X41660000Y-85660000D01*
X110340000Y-85660000D01*
X110340001Y-138840000D01*
G37*
%TD.AperFunction*%
%TD*%
M02*
