%TF.GenerationSoftware,KiCad,Pcbnew,5.1.10*%
%TF.CreationDate,2021-06-11T08:34:38+02:00*%
%TF.ProjectId,supply,73757070-6c79-42e6-9b69-6361645f7063,rev?*%
%TF.SameCoordinates,Original*%
%TF.FileFunction,Legend,Top*%
%TF.FilePolarity,Positive*%
%FSLAX46Y46*%
G04 Gerber Fmt 4.6, Leading zero omitted, Abs format (unit mm)*
G04 Created by KiCad (PCBNEW 5.1.10) date 2021-06-11 08:34:38*
%MOMM*%
%LPD*%
G01*
G04 APERTURE LIST*
%ADD10C,0.120000*%
%ADD11C,0.150000*%
G04 APERTURE END LIST*
D10*
%TO.C,BT1*%
X55170000Y-126870000D02*
X57830000Y-126870000D01*
X55170000Y-124270000D02*
X55170000Y-126870000D01*
X57830000Y-124270000D02*
X57830000Y-126870000D01*
X55170000Y-124270000D02*
X57830000Y-124270000D01*
X55170000Y-123000000D02*
X55170000Y-121670000D01*
X55170000Y-121670000D02*
X56500000Y-121670000D01*
%TO.C,C1*%
X62580000Y-123621000D02*
X62580000Y-124879000D01*
X64420000Y-123621000D02*
X64420000Y-124879000D01*
%TO.C,C2*%
X81379000Y-118420000D02*
X80121000Y-118420000D01*
X81379000Y-116580000D02*
X80121000Y-116580000D01*
%TO.C,C3*%
X87379000Y-118420000D02*
X86121000Y-118420000D01*
X87379000Y-116580000D02*
X86121000Y-116580000D01*
%TO.C,C4*%
X93879000Y-116580000D02*
X92621000Y-116580000D01*
X93879000Y-118420000D02*
X92621000Y-118420000D01*
%TO.C,C5*%
X73379000Y-90080000D02*
X72121000Y-90080000D01*
X73379000Y-91920000D02*
X72121000Y-91920000D01*
%TO.C,C6*%
X72879000Y-106920000D02*
X71621000Y-106920000D01*
X72879000Y-105080000D02*
X71621000Y-105080000D01*
%TO.C,C7*%
X104580000Y-120621000D02*
X104580000Y-121879000D01*
X106420000Y-120621000D02*
X106420000Y-121879000D01*
%TO.C,D1*%
X82630000Y-125470000D02*
X82630000Y-122530000D01*
X82390000Y-125470000D02*
X82390000Y-122530000D01*
X82510000Y-125470000D02*
X82510000Y-122530000D01*
X77970000Y-122530000D02*
X77970000Y-122660000D01*
X83410000Y-122530000D02*
X77970000Y-122530000D01*
X83410000Y-122660000D02*
X83410000Y-122530000D01*
X77970000Y-125470000D02*
X77970000Y-125340000D01*
X83410000Y-125470000D02*
X77970000Y-125470000D01*
X83410000Y-125340000D02*
X83410000Y-125470000D01*
%TO.C,D2*%
X83410000Y-131340000D02*
X83410000Y-131470000D01*
X83410000Y-131470000D02*
X77970000Y-131470000D01*
X77970000Y-131470000D02*
X77970000Y-131340000D01*
X83410000Y-128660000D02*
X83410000Y-128530000D01*
X83410000Y-128530000D02*
X77970000Y-128530000D01*
X77970000Y-128530000D02*
X77970000Y-128660000D01*
X82510000Y-131470000D02*
X82510000Y-128530000D01*
X82390000Y-131470000D02*
X82390000Y-128530000D01*
X82630000Y-131470000D02*
X82630000Y-128530000D01*
%TO.C,D3*%
X82750000Y-136970000D02*
X82750000Y-134030000D01*
X82510000Y-136970000D02*
X82510000Y-134030000D01*
X82630000Y-136970000D02*
X82630000Y-134030000D01*
X78090000Y-134030000D02*
X78090000Y-134160000D01*
X83530000Y-134030000D02*
X78090000Y-134030000D01*
X83530000Y-134160000D02*
X83530000Y-134030000D01*
X78090000Y-136970000D02*
X78090000Y-136840000D01*
X83530000Y-136970000D02*
X78090000Y-136970000D01*
X83530000Y-136840000D02*
X83530000Y-136970000D01*
%TO.C,L1*%
X73580000Y-118870000D02*
X73580000Y-118540000D01*
X67040000Y-118870000D02*
X73580000Y-118870000D01*
X67040000Y-118540000D02*
X67040000Y-118870000D01*
X73580000Y-116130000D02*
X73580000Y-116460000D01*
X67040000Y-116130000D02*
X73580000Y-116130000D01*
X67040000Y-116460000D02*
X67040000Y-116130000D01*
%TO.C,R1*%
X98130000Y-124580000D02*
X98460000Y-124580000D01*
X98130000Y-118040000D02*
X98130000Y-124580000D01*
X98460000Y-118040000D02*
X98130000Y-118040000D01*
X100870000Y-124580000D02*
X100540000Y-124580000D01*
X100870000Y-118040000D02*
X100870000Y-124580000D01*
X100540000Y-118040000D02*
X100870000Y-118040000D01*
%TO.C,R2*%
X100540000Y-129420000D02*
X100870000Y-129420000D01*
X100870000Y-129420000D02*
X100870000Y-135960000D01*
X100870000Y-135960000D02*
X100540000Y-135960000D01*
X98460000Y-129420000D02*
X98130000Y-129420000D01*
X98130000Y-129420000D02*
X98130000Y-135960000D01*
X98130000Y-135960000D02*
X98460000Y-135960000D01*
%TO.C,R3*%
X78630000Y-109080000D02*
X78960000Y-109080000D01*
X78630000Y-102540000D02*
X78630000Y-109080000D01*
X78960000Y-102540000D02*
X78630000Y-102540000D01*
X81370000Y-109080000D02*
X81040000Y-109080000D01*
X81370000Y-102540000D02*
X81370000Y-109080000D01*
X81040000Y-102540000D02*
X81370000Y-102540000D01*
%TO.C,R4*%
X81040000Y-91540000D02*
X81370000Y-91540000D01*
X81370000Y-91540000D02*
X81370000Y-98080000D01*
X81370000Y-98080000D02*
X81040000Y-98080000D01*
X78960000Y-91540000D02*
X78630000Y-91540000D01*
X78630000Y-91540000D02*
X78630000Y-98080000D01*
X78630000Y-98080000D02*
X78960000Y-98080000D01*
%TO.C,TR1*%
X52700000Y-106920000D02*
X52700000Y-90100000D01*
X68600000Y-106920000D02*
X52700000Y-106920000D01*
X68600000Y-90080000D02*
X68600000Y-106920000D01*
X52700000Y-90100000D02*
X68600000Y-90080000D01*
%TO.C,U1*%
X71500000Y-122890000D02*
X69050000Y-122890000D01*
X69700000Y-126110000D02*
X71500000Y-126110000D01*
%TO.C,BT1*%
D11*
X55714285Y-120598571D02*
X55857142Y-120646190D01*
X55904761Y-120693809D01*
X55952380Y-120789047D01*
X55952380Y-120931904D01*
X55904761Y-121027142D01*
X55857142Y-121074761D01*
X55761904Y-121122380D01*
X55380952Y-121122380D01*
X55380952Y-120122380D01*
X55714285Y-120122380D01*
X55809523Y-120170000D01*
X55857142Y-120217619D01*
X55904761Y-120312857D01*
X55904761Y-120408095D01*
X55857142Y-120503333D01*
X55809523Y-120550952D01*
X55714285Y-120598571D01*
X55380952Y-120598571D01*
X56238095Y-120122380D02*
X56809523Y-120122380D01*
X56523809Y-121122380D02*
X56523809Y-120122380D01*
X57666666Y-121122380D02*
X57095238Y-121122380D01*
X57380952Y-121122380D02*
X57380952Y-120122380D01*
X57285714Y-120265238D01*
X57190476Y-120360476D01*
X57095238Y-120408095D01*
%TO.C,C1*%
X65907142Y-124416666D02*
X65954761Y-124464285D01*
X66002380Y-124607142D01*
X66002380Y-124702380D01*
X65954761Y-124845238D01*
X65859523Y-124940476D01*
X65764285Y-124988095D01*
X65573809Y-125035714D01*
X65430952Y-125035714D01*
X65240476Y-124988095D01*
X65145238Y-124940476D01*
X65050000Y-124845238D01*
X65002380Y-124702380D01*
X65002380Y-124607142D01*
X65050000Y-124464285D01*
X65097619Y-124416666D01*
X66002380Y-123464285D02*
X66002380Y-124035714D01*
X66002380Y-123750000D02*
X65002380Y-123750000D01*
X65145238Y-123845238D01*
X65240476Y-123940476D01*
X65288095Y-124035714D01*
%TO.C,C2*%
X80583333Y-119907142D02*
X80535714Y-119954761D01*
X80392857Y-120002380D01*
X80297619Y-120002380D01*
X80154761Y-119954761D01*
X80059523Y-119859523D01*
X80011904Y-119764285D01*
X79964285Y-119573809D01*
X79964285Y-119430952D01*
X80011904Y-119240476D01*
X80059523Y-119145238D01*
X80154761Y-119050000D01*
X80297619Y-119002380D01*
X80392857Y-119002380D01*
X80535714Y-119050000D01*
X80583333Y-119097619D01*
X80964285Y-119097619D02*
X81011904Y-119050000D01*
X81107142Y-119002380D01*
X81345238Y-119002380D01*
X81440476Y-119050000D01*
X81488095Y-119097619D01*
X81535714Y-119192857D01*
X81535714Y-119288095D01*
X81488095Y-119430952D01*
X80916666Y-120002380D01*
X81535714Y-120002380D01*
%TO.C,C3*%
X86583333Y-119907142D02*
X86535714Y-119954761D01*
X86392857Y-120002380D01*
X86297619Y-120002380D01*
X86154761Y-119954761D01*
X86059523Y-119859523D01*
X86011904Y-119764285D01*
X85964285Y-119573809D01*
X85964285Y-119430952D01*
X86011904Y-119240476D01*
X86059523Y-119145238D01*
X86154761Y-119050000D01*
X86297619Y-119002380D01*
X86392857Y-119002380D01*
X86535714Y-119050000D01*
X86583333Y-119097619D01*
X86916666Y-119002380D02*
X87535714Y-119002380D01*
X87202380Y-119383333D01*
X87345238Y-119383333D01*
X87440476Y-119430952D01*
X87488095Y-119478571D01*
X87535714Y-119573809D01*
X87535714Y-119811904D01*
X87488095Y-119907142D01*
X87440476Y-119954761D01*
X87345238Y-120002380D01*
X87059523Y-120002380D01*
X86964285Y-119954761D01*
X86916666Y-119907142D01*
%TO.C,C4*%
X93083333Y-119907142D02*
X93035714Y-119954761D01*
X92892857Y-120002380D01*
X92797619Y-120002380D01*
X92654761Y-119954761D01*
X92559523Y-119859523D01*
X92511904Y-119764285D01*
X92464285Y-119573809D01*
X92464285Y-119430952D01*
X92511904Y-119240476D01*
X92559523Y-119145238D01*
X92654761Y-119050000D01*
X92797619Y-119002380D01*
X92892857Y-119002380D01*
X93035714Y-119050000D01*
X93083333Y-119097619D01*
X93940476Y-119335714D02*
X93940476Y-120002380D01*
X93702380Y-118954761D02*
X93464285Y-119669047D01*
X94083333Y-119669047D01*
%TO.C,C5*%
X72583333Y-93407142D02*
X72535714Y-93454761D01*
X72392857Y-93502380D01*
X72297619Y-93502380D01*
X72154761Y-93454761D01*
X72059523Y-93359523D01*
X72011904Y-93264285D01*
X71964285Y-93073809D01*
X71964285Y-92930952D01*
X72011904Y-92740476D01*
X72059523Y-92645238D01*
X72154761Y-92550000D01*
X72297619Y-92502380D01*
X72392857Y-92502380D01*
X72535714Y-92550000D01*
X72583333Y-92597619D01*
X73488095Y-92502380D02*
X73011904Y-92502380D01*
X72964285Y-92978571D01*
X73011904Y-92930952D01*
X73107142Y-92883333D01*
X73345238Y-92883333D01*
X73440476Y-92930952D01*
X73488095Y-92978571D01*
X73535714Y-93073809D01*
X73535714Y-93311904D01*
X73488095Y-93407142D01*
X73440476Y-93454761D01*
X73345238Y-93502380D01*
X73107142Y-93502380D01*
X73011904Y-93454761D01*
X72964285Y-93407142D01*
%TO.C,C6*%
X72083333Y-108407142D02*
X72035714Y-108454761D01*
X71892857Y-108502380D01*
X71797619Y-108502380D01*
X71654761Y-108454761D01*
X71559523Y-108359523D01*
X71511904Y-108264285D01*
X71464285Y-108073809D01*
X71464285Y-107930952D01*
X71511904Y-107740476D01*
X71559523Y-107645238D01*
X71654761Y-107550000D01*
X71797619Y-107502380D01*
X71892857Y-107502380D01*
X72035714Y-107550000D01*
X72083333Y-107597619D01*
X72940476Y-107502380D02*
X72750000Y-107502380D01*
X72654761Y-107550000D01*
X72607142Y-107597619D01*
X72511904Y-107740476D01*
X72464285Y-107930952D01*
X72464285Y-108311904D01*
X72511904Y-108407142D01*
X72559523Y-108454761D01*
X72654761Y-108502380D01*
X72845238Y-108502380D01*
X72940476Y-108454761D01*
X72988095Y-108407142D01*
X73035714Y-108311904D01*
X73035714Y-108073809D01*
X72988095Y-107978571D01*
X72940476Y-107930952D01*
X72845238Y-107883333D01*
X72654761Y-107883333D01*
X72559523Y-107930952D01*
X72511904Y-107978571D01*
X72464285Y-108073809D01*
%TO.C,C7*%
X107907142Y-121416666D02*
X107954761Y-121464285D01*
X108002380Y-121607142D01*
X108002380Y-121702380D01*
X107954761Y-121845238D01*
X107859523Y-121940476D01*
X107764285Y-121988095D01*
X107573809Y-122035714D01*
X107430952Y-122035714D01*
X107240476Y-121988095D01*
X107145238Y-121940476D01*
X107050000Y-121845238D01*
X107002380Y-121702380D01*
X107002380Y-121607142D01*
X107050000Y-121464285D01*
X107097619Y-121416666D01*
X107002380Y-121083333D02*
X107002380Y-120416666D01*
X108002380Y-120845238D01*
%TO.C,D1*%
X79951904Y-126922380D02*
X79951904Y-125922380D01*
X80190000Y-125922380D01*
X80332857Y-125970000D01*
X80428095Y-126065238D01*
X80475714Y-126160476D01*
X80523333Y-126350952D01*
X80523333Y-126493809D01*
X80475714Y-126684285D01*
X80428095Y-126779523D01*
X80332857Y-126874761D01*
X80190000Y-126922380D01*
X79951904Y-126922380D01*
X81475714Y-126922380D02*
X80904285Y-126922380D01*
X81190000Y-126922380D02*
X81190000Y-125922380D01*
X81094761Y-126065238D01*
X80999523Y-126160476D01*
X80904285Y-126208095D01*
X84238095Y-126552380D02*
X84238095Y-125552380D01*
X84809523Y-126552380D02*
X84380952Y-125980952D01*
X84809523Y-125552380D02*
X84238095Y-126123809D01*
%TO.C,D2*%
X79951904Y-132922380D02*
X79951904Y-131922380D01*
X80190000Y-131922380D01*
X80332857Y-131970000D01*
X80428095Y-132065238D01*
X80475714Y-132160476D01*
X80523333Y-132350952D01*
X80523333Y-132493809D01*
X80475714Y-132684285D01*
X80428095Y-132779523D01*
X80332857Y-132874761D01*
X80190000Y-132922380D01*
X79951904Y-132922380D01*
X80904285Y-132017619D02*
X80951904Y-131970000D01*
X81047142Y-131922380D01*
X81285238Y-131922380D01*
X81380476Y-131970000D01*
X81428095Y-132017619D01*
X81475714Y-132112857D01*
X81475714Y-132208095D01*
X81428095Y-132350952D01*
X80856666Y-132922380D01*
X81475714Y-132922380D01*
X84238095Y-132552380D02*
X84238095Y-131552380D01*
X84809523Y-132552380D02*
X84380952Y-131980952D01*
X84809523Y-131552380D02*
X84238095Y-132123809D01*
%TO.C,D3*%
X80071904Y-138422380D02*
X80071904Y-137422380D01*
X80310000Y-137422380D01*
X80452857Y-137470000D01*
X80548095Y-137565238D01*
X80595714Y-137660476D01*
X80643333Y-137850952D01*
X80643333Y-137993809D01*
X80595714Y-138184285D01*
X80548095Y-138279523D01*
X80452857Y-138374761D01*
X80310000Y-138422380D01*
X80071904Y-138422380D01*
X80976666Y-137422380D02*
X81595714Y-137422380D01*
X81262380Y-137803333D01*
X81405238Y-137803333D01*
X81500476Y-137850952D01*
X81548095Y-137898571D01*
X81595714Y-137993809D01*
X81595714Y-138231904D01*
X81548095Y-138327142D01*
X81500476Y-138374761D01*
X81405238Y-138422380D01*
X81119523Y-138422380D01*
X81024285Y-138374761D01*
X80976666Y-138327142D01*
X84358095Y-138052380D02*
X84358095Y-137052380D01*
X84929523Y-138052380D02*
X84500952Y-137480952D01*
X84929523Y-137052380D02*
X84358095Y-137623809D01*
%TO.C,L1*%
X70143333Y-115582380D02*
X69667142Y-115582380D01*
X69667142Y-114582380D01*
X71000476Y-115582380D02*
X70429047Y-115582380D01*
X70714761Y-115582380D02*
X70714761Y-114582380D01*
X70619523Y-114725238D01*
X70524285Y-114820476D01*
X70429047Y-114868095D01*
%TO.C,R1*%
X102322380Y-121476666D02*
X101846190Y-121810000D01*
X102322380Y-122048095D02*
X101322380Y-122048095D01*
X101322380Y-121667142D01*
X101370000Y-121571904D01*
X101417619Y-121524285D01*
X101512857Y-121476666D01*
X101655714Y-121476666D01*
X101750952Y-121524285D01*
X101798571Y-121571904D01*
X101846190Y-121667142D01*
X101846190Y-122048095D01*
X102322380Y-120524285D02*
X102322380Y-121095714D01*
X102322380Y-120810000D02*
X101322380Y-120810000D01*
X101465238Y-120905238D01*
X101560476Y-121000476D01*
X101608095Y-121095714D01*
%TO.C,R2*%
X102322380Y-132856666D02*
X101846190Y-133190000D01*
X102322380Y-133428095D02*
X101322380Y-133428095D01*
X101322380Y-133047142D01*
X101370000Y-132951904D01*
X101417619Y-132904285D01*
X101512857Y-132856666D01*
X101655714Y-132856666D01*
X101750952Y-132904285D01*
X101798571Y-132951904D01*
X101846190Y-133047142D01*
X101846190Y-133428095D01*
X101417619Y-132475714D02*
X101370000Y-132428095D01*
X101322380Y-132332857D01*
X101322380Y-132094761D01*
X101370000Y-131999523D01*
X101417619Y-131951904D01*
X101512857Y-131904285D01*
X101608095Y-131904285D01*
X101750952Y-131951904D01*
X102322380Y-132523333D01*
X102322380Y-131904285D01*
%TO.C,R3*%
X82822380Y-105976666D02*
X82346190Y-106310000D01*
X82822380Y-106548095D02*
X81822380Y-106548095D01*
X81822380Y-106167142D01*
X81870000Y-106071904D01*
X81917619Y-106024285D01*
X82012857Y-105976666D01*
X82155714Y-105976666D01*
X82250952Y-106024285D01*
X82298571Y-106071904D01*
X82346190Y-106167142D01*
X82346190Y-106548095D01*
X81822380Y-105643333D02*
X81822380Y-105024285D01*
X82203333Y-105357619D01*
X82203333Y-105214761D01*
X82250952Y-105119523D01*
X82298571Y-105071904D01*
X82393809Y-105024285D01*
X82631904Y-105024285D01*
X82727142Y-105071904D01*
X82774761Y-105119523D01*
X82822380Y-105214761D01*
X82822380Y-105500476D01*
X82774761Y-105595714D01*
X82727142Y-105643333D01*
%TO.C,R4*%
X82822380Y-94976666D02*
X82346190Y-95310000D01*
X82822380Y-95548095D02*
X81822380Y-95548095D01*
X81822380Y-95167142D01*
X81870000Y-95071904D01*
X81917619Y-95024285D01*
X82012857Y-94976666D01*
X82155714Y-94976666D01*
X82250952Y-95024285D01*
X82298571Y-95071904D01*
X82346190Y-95167142D01*
X82346190Y-95548095D01*
X82155714Y-94119523D02*
X82822380Y-94119523D01*
X81774761Y-94357619D02*
X82489047Y-94595714D01*
X82489047Y-93976666D01*
%TO.C,TR1*%
X59388095Y-88532380D02*
X59959523Y-88532380D01*
X59673809Y-89532380D02*
X59673809Y-88532380D01*
X60864285Y-89532380D02*
X60530952Y-89056190D01*
X60292857Y-89532380D02*
X60292857Y-88532380D01*
X60673809Y-88532380D01*
X60769047Y-88580000D01*
X60816666Y-88627619D01*
X60864285Y-88722857D01*
X60864285Y-88865714D01*
X60816666Y-88960952D01*
X60769047Y-89008571D01*
X60673809Y-89056190D01*
X60292857Y-89056190D01*
X61816666Y-89532380D02*
X61245238Y-89532380D01*
X61530952Y-89532380D02*
X61530952Y-88532380D01*
X61435714Y-88675238D01*
X61340476Y-88770476D01*
X61245238Y-88818095D01*
%TO.C,U1*%
X69838095Y-121052380D02*
X69838095Y-121861904D01*
X69885714Y-121957142D01*
X69933333Y-122004761D01*
X70028571Y-122052380D01*
X70219047Y-122052380D01*
X70314285Y-122004761D01*
X70361904Y-121957142D01*
X70409523Y-121861904D01*
X70409523Y-121052380D01*
X71409523Y-122052380D02*
X70838095Y-122052380D01*
X71123809Y-122052380D02*
X71123809Y-121052380D01*
X71028571Y-121195238D01*
X70933333Y-121290476D01*
X70838095Y-121338095D01*
%TO.C,J1*%
X50677379Y-96008334D02*
X51391665Y-96008334D01*
X51534522Y-96055953D01*
X51629760Y-96151191D01*
X51677379Y-96294048D01*
X51677379Y-96389286D01*
X51677379Y-95008334D02*
X51677379Y-95579762D01*
X51677379Y-95294048D02*
X50677379Y-95294048D01*
X50820237Y-95389286D01*
X50915475Y-95484524D01*
X50963094Y-95579762D01*
%TO.C,J5*%
X50677379Y-101358334D02*
X51391665Y-101358334D01*
X51534522Y-101405953D01*
X51629760Y-101501191D01*
X51677379Y-101644048D01*
X51677379Y-101739286D01*
X50677379Y-100405953D02*
X50677379Y-100882143D01*
X51153570Y-100929762D01*
X51105951Y-100882143D01*
X51058332Y-100786905D01*
X51058332Y-100548810D01*
X51105951Y-100453572D01*
X51153570Y-100405953D01*
X51248808Y-100358334D01*
X51486903Y-100358334D01*
X51582141Y-100405953D01*
X51629760Y-100453572D01*
X51677379Y-100548810D01*
X51677379Y-100786905D01*
X51629760Y-100882143D01*
X51582141Y-100929762D01*
%TD*%
M02*
