%TF.GenerationSoftware,KiCad,Pcbnew,5.1.10*%
%TF.CreationDate,2021-06-24T13:12:40+02:00*%
%TF.ProjectId,supply,73757070-6c79-42e6-9b69-6361645f7063,rev?*%
%TF.SameCoordinates,Original*%
%TF.FileFunction,Soldermask,Bot*%
%TF.FilePolarity,Negative*%
%FSLAX46Y46*%
G04 Gerber Fmt 4.6, Leading zero omitted, Abs format (unit mm)*
G04 Created by KiCad (PCBNEW 5.1.10) date 2021-06-24 13:12:40*
%MOMM*%
%LPD*%
G01*
G04 APERTURE LIST*
%ADD10C,3.800000*%
%ADD11C,1.600000*%
%ADD12O,1.600000X1.600000*%
%ADD13R,1.600000X1.600000*%
%ADD14C,1.400000*%
%ADD15O,1.400000X1.400000*%
%ADD16O,1.700000X1.700000*%
%ADD17R,1.700000X1.700000*%
%ADD18C,2.000000*%
%ADD19O,2.000000X2.000000*%
%ADD20R,1.350000X1.350000*%
%ADD21O,1.350000X1.350000*%
%ADD22C,0.377500*%
%ADD23R,1.800000X1.800000*%
%ADD24C,1.800000*%
%ADD25R,2.000000X2.000000*%
G04 APERTURE END LIST*
D10*
%TO.C,J8*%
X45500000Y-89000000D03*
%TD*%
%TO.C,J9*%
X107000000Y-89000000D03*
%TD*%
%TO.C,J7*%
X107000000Y-135500000D03*
%TD*%
%TO.C,J6*%
X45500000Y-135500000D03*
%TD*%
D11*
%TO.C,R7*%
X58880000Y-109000000D03*
D12*
X66500000Y-109000000D03*
%TD*%
D11*
%TO.C,C12*%
X51000000Y-91000000D03*
X53500000Y-91000000D03*
%TD*%
D13*
%TO.C,U2*%
X66620000Y-105000000D03*
D12*
X59000000Y-97380000D03*
X66620000Y-102460000D03*
X59000000Y-99920000D03*
X66620000Y-99920000D03*
X59000000Y-102460000D03*
X66620000Y-97380000D03*
X59000000Y-105000000D03*
%TD*%
D14*
%TO.C,PTC1*%
X102000000Y-114000000D03*
D15*
X102000000Y-119080000D03*
%TD*%
D16*
%TO.C,BT1*%
X47500000Y-117540000D03*
D17*
X47500000Y-115000000D03*
%TD*%
D10*
%TO.C,J2*%
X101500000Y-99500000D03*
%TD*%
%TO.C,J3*%
X101500000Y-91500000D03*
%TD*%
%TO.C,J4*%
X101500000Y-107000000D03*
%TD*%
D11*
%TO.C,C1*%
X52500000Y-117500000D03*
X52500000Y-115000000D03*
%TD*%
%TO.C,C2*%
X52500000Y-120500000D03*
X52500000Y-123000000D03*
%TD*%
%TO.C,C3*%
X95000000Y-114500000D03*
X97500000Y-114500000D03*
%TD*%
%TO.C,C4*%
X52500000Y-128000000D03*
X52500000Y-125500000D03*
%TD*%
%TO.C,C7*%
X59000000Y-115000000D03*
X59000000Y-117500000D03*
%TD*%
%TO.C,C8*%
X59000000Y-120500000D03*
X59000000Y-123000000D03*
%TD*%
%TO.C,C9*%
X97500000Y-119500000D03*
X95000000Y-119500000D03*
%TD*%
%TO.C,C10*%
X94500000Y-128000000D03*
X94500000Y-125500000D03*
%TD*%
D13*
%TO.C,D1*%
X67880000Y-114000000D03*
D12*
X75500000Y-114000000D03*
%TD*%
D18*
%TO.C,L1*%
X65275000Y-121325000D03*
D19*
X77975000Y-121325000D03*
%TD*%
D12*
%TO.C,R1*%
X90620000Y-119500000D03*
D11*
X83000000Y-119500000D03*
%TD*%
%TO.C,R2*%
X82880000Y-114500000D03*
D12*
X90500000Y-114500000D03*
%TD*%
D11*
%TO.C,R5*%
X84000000Y-123500000D03*
D12*
X84000000Y-131120000D03*
%TD*%
%TO.C,R6*%
X88500000Y-123500000D03*
D11*
X88500000Y-131120000D03*
%TD*%
D20*
%TO.C,SW1*%
X47500000Y-122500000D03*
D21*
X47500000Y-124500000D03*
%TD*%
D22*
%TO.C,U1*%
X71000000Y-127500500D03*
X71000000Y-128255500D03*
X71755000Y-127500500D03*
X71755000Y-128255500D03*
%TD*%
D10*
%TO.C,J1*%
X47825000Y-96675000D03*
%TD*%
%TO.C,J5*%
X47825000Y-102025000D03*
%TD*%
D17*
%TO.C,RV1*%
X59000000Y-91000000D03*
D16*
X61540000Y-91000000D03*
X64080000Y-91000000D03*
%TD*%
D23*
%TO.C,D2*%
X101500000Y-127500000D03*
D24*
X101500000Y-124960000D03*
%TD*%
D14*
%TO.C,R8*%
X90000000Y-135500000D03*
D15*
X82380000Y-135500000D03*
%TD*%
D11*
%TO.C,R3*%
X92000000Y-105000000D03*
D12*
X92000000Y-97380000D03*
%TD*%
D18*
%TO.C,TR1*%
X85500000Y-92880000D03*
D25*
X72800000Y-92880000D03*
D18*
X85500000Y-100500000D03*
X72800000Y-100500000D03*
X85500000Y-108120000D03*
X72800000Y-108120000D03*
%TD*%
D11*
%TO.C,C5*%
X54500000Y-132000000D03*
X52000000Y-132000000D03*
%TD*%
%TO.C,C6*%
X59000000Y-126000000D03*
X59000000Y-128500000D03*
%TD*%
D13*
%TO.C,C11*%
X52500000Y-102500000D03*
D11*
X55000000Y-102500000D03*
%TD*%
M02*
