%TF.GenerationSoftware,KiCad,Pcbnew,5.1.10*%
%TF.CreationDate,2021-06-23T13:28:15+02:00*%
%TF.ProjectId,supply,73757070-6c79-42e6-9b69-6361645f7063,rev?*%
%TF.SameCoordinates,Original*%
%TF.FileFunction,Copper,L1,Top*%
%TF.FilePolarity,Positive*%
%FSLAX46Y46*%
G04 Gerber Fmt 4.6, Leading zero omitted, Abs format (unit mm)*
G04 Created by KiCad (PCBNEW 5.1.10) date 2021-06-23 13:28:15*
%MOMM*%
%LPD*%
G01*
G04 APERTURE LIST*
%TA.AperFunction,ComponentPad*%
%ADD10C,3.800000*%
%TD*%
%TA.AperFunction,ComponentPad*%
%ADD11C,1.600000*%
%TD*%
%TA.AperFunction,ComponentPad*%
%ADD12O,1.600000X1.600000*%
%TD*%
%TA.AperFunction,ComponentPad*%
%ADD13R,1.600000X1.600000*%
%TD*%
%TA.AperFunction,ComponentPad*%
%ADD14C,1.400000*%
%TD*%
%TA.AperFunction,ComponentPad*%
%ADD15O,1.400000X1.400000*%
%TD*%
%TA.AperFunction,ComponentPad*%
%ADD16O,1.700000X1.700000*%
%TD*%
%TA.AperFunction,ComponentPad*%
%ADD17R,1.700000X1.700000*%
%TD*%
%TA.AperFunction,ComponentPad*%
%ADD18C,2.000000*%
%TD*%
%TA.AperFunction,ComponentPad*%
%ADD19O,2.000000X2.000000*%
%TD*%
%TA.AperFunction,ComponentPad*%
%ADD20R,1.350000X1.350000*%
%TD*%
%TA.AperFunction,ComponentPad*%
%ADD21O,1.350000X1.350000*%
%TD*%
%TA.AperFunction,SMDPad,CuDef*%
%ADD22O,0.600000X0.300000*%
%TD*%
%TA.AperFunction,SMDPad,CuDef*%
%ADD23O,0.300000X0.600000*%
%TD*%
%TA.AperFunction,SMDPad,CuDef*%
%ADD24R,0.755000X0.755000*%
%TD*%
%TA.AperFunction,ComponentPad*%
%ADD25C,0.377500*%
%TD*%
%TA.AperFunction,ComponentPad*%
%ADD26R,1.800000X1.800000*%
%TD*%
%TA.AperFunction,ComponentPad*%
%ADD27C,1.800000*%
%TD*%
%TA.AperFunction,ComponentPad*%
%ADD28R,2.000000X2.000000*%
%TD*%
%TA.AperFunction,ViaPad*%
%ADD29C,0.800000*%
%TD*%
%TA.AperFunction,Conductor*%
%ADD30C,0.200000*%
%TD*%
%TA.AperFunction,Conductor*%
%ADD31C,0.254000*%
%TD*%
%TA.AperFunction,Conductor*%
%ADD32C,0.100000*%
%TD*%
G04 APERTURE END LIST*
D10*
%TO.P,J8,1*%
%TO.N,Earth*%
X45500000Y-89000000D03*
%TD*%
%TO.P,J9,1*%
%TO.N,Earth*%
X107000000Y-89000000D03*
%TD*%
%TO.P,J7,1*%
%TO.N,Earth*%
X107000000Y-135500000D03*
%TD*%
%TO.P,J6,1*%
%TO.N,Earth*%
X45500000Y-135500000D03*
%TD*%
D11*
%TO.P,R7,1*%
%TO.N,Net-(C12-Pad1)*%
X48000000Y-109000000D03*
D12*
%TO.P,R7,2*%
%TO.N,GND*%
X55620000Y-109000000D03*
%TD*%
D11*
%TO.P,C12,1*%
%TO.N,Net-(C12-Pad1)*%
X52000000Y-96000000D03*
%TO.P,C12,2*%
%TO.N,Net-(C11-Pad2)*%
X54500000Y-96000000D03*
%TD*%
D13*
%TO.P,U2,1*%
%TO.N,Net-(U2-Pad1)*%
X65500000Y-105000000D03*
D12*
%TO.P,U2,5*%
%TO.N,Net-(C11-Pad2)*%
X57880000Y-97380000D03*
%TO.P,U2,2*%
%TO.N,GND*%
X65500000Y-102460000D03*
%TO.P,U2,6*%
%TO.N,VCC*%
X57880000Y-99920000D03*
%TO.P,U2,3*%
%TO.N,Net-(RV1-Pad2)*%
X65500000Y-99920000D03*
%TO.P,U2,7*%
%TO.N,Net-(U2-Pad7)*%
X57880000Y-102460000D03*
%TO.P,U2,4*%
%TO.N,GND*%
X65500000Y-97380000D03*
%TO.P,U2,8*%
%TO.N,Net-(U2-Pad8)*%
X57880000Y-105000000D03*
%TD*%
D11*
%TO.P,C11,2*%
%TO.N,Net-(C11-Pad2)*%
X54500000Y-91000000D03*
%TO.P,C11,1*%
%TO.N,Net-(C11-Pad1)*%
X52000000Y-91000000D03*
%TD*%
D14*
%TO.P,PTC1,1*%
%TO.N,Net-(C10-Pad2)*%
X101500000Y-118500000D03*
D15*
%TO.P,PTC1,2*%
%TO.N,Net-(D2-Pad2)*%
X101500000Y-113420000D03*
%TD*%
D16*
%TO.P,BT1,2*%
%TO.N,GND*%
X47500000Y-117540000D03*
D17*
%TO.P,BT1,1*%
%TO.N,Net-(BT1-Pad1)*%
X47500000Y-115000000D03*
%TD*%
D10*
%TO.P,J2,1*%
%TO.N,/6*%
X101500000Y-99500000D03*
%TD*%
%TO.P,J3,1*%
%TO.N,/4*%
X101500000Y-91500000D03*
%TD*%
%TO.P,J4,1*%
%TO.N,GND*%
X101500000Y-107000000D03*
%TD*%
D11*
%TO.P,C1,2*%
%TO.N,GND*%
X52500000Y-117500000D03*
%TO.P,C1,1*%
%TO.N,Net-(BT1-Pad1)*%
X52500000Y-115000000D03*
%TD*%
%TO.P,C2,2*%
%TO.N,GND*%
X52500000Y-120500000D03*
%TO.P,C2,1*%
%TO.N,VCC*%
X52500000Y-123000000D03*
%TD*%
%TO.P,C3,1*%
%TO.N,Net-(C3-Pad1)*%
X95000000Y-114500000D03*
%TO.P,C3,2*%
%TO.N,GND*%
X97500000Y-114500000D03*
%TD*%
%TO.P,C4,1*%
%TO.N,Net-(C4-Pad1)*%
X52500000Y-128000000D03*
%TO.P,C4,2*%
%TO.N,GND*%
X52500000Y-125500000D03*
%TD*%
%TO.P,C7,2*%
%TO.N,GND*%
X59000000Y-115000000D03*
%TO.P,C7,1*%
%TO.N,Net-(C7-Pad1)*%
X59000000Y-117500000D03*
%TD*%
%TO.P,C8,1*%
%TO.N,Net-(C7-Pad1)*%
X59000000Y-120500000D03*
%TO.P,C8,2*%
%TO.N,Net-(C8-Pad2)*%
X59000000Y-123000000D03*
%TD*%
%TO.P,C9,2*%
%TO.N,Net-(C10-Pad2)*%
X97500000Y-119500000D03*
%TO.P,C9,1*%
%TO.N,GND*%
X95000000Y-119500000D03*
%TD*%
%TO.P,C10,1*%
%TO.N,GND*%
X94500000Y-128000000D03*
%TO.P,C10,2*%
%TO.N,Net-(C10-Pad2)*%
X94500000Y-125500000D03*
%TD*%
D13*
%TO.P,D1,1*%
%TO.N,Net-(C10-Pad2)*%
X67880000Y-114000000D03*
D12*
%TO.P,D1,2*%
%TO.N,Net-(D1-Pad2)*%
X75500000Y-114000000D03*
%TD*%
D18*
%TO.P,L1,1*%
%TO.N,VCC*%
X65275000Y-121325000D03*
D19*
%TO.P,L1,2*%
%TO.N,Net-(D1-Pad2)*%
X77975000Y-121325000D03*
%TD*%
D12*
%TO.P,R1,2*%
%TO.N,GND*%
X90620000Y-119500000D03*
D11*
%TO.P,R1,1*%
%TO.N,Net-(R1-Pad1)*%
X83000000Y-119500000D03*
%TD*%
%TO.P,R2,1*%
%TO.N,Net-(C8-Pad2)*%
X82880000Y-114500000D03*
D12*
%TO.P,R2,2*%
%TO.N,GND*%
X90500000Y-114500000D03*
%TD*%
D11*
%TO.P,R5,1*%
%TO.N,Net-(C10-Pad2)*%
X84000000Y-123500000D03*
D12*
%TO.P,R5,2*%
%TO.N,Net-(R5-Pad2)*%
X84000000Y-131120000D03*
%TD*%
%TO.P,R6,2*%
%TO.N,GND*%
X88500000Y-123500000D03*
D11*
%TO.P,R6,1*%
%TO.N,Net-(R5-Pad2)*%
X88500000Y-131120000D03*
%TD*%
D20*
%TO.P,SW1,1*%
%TO.N,Net-(BT1-Pad1)*%
X47500000Y-122500000D03*
D21*
%TO.P,SW1,2*%
%TO.N,VCC*%
X47500000Y-124500000D03*
%TD*%
D22*
%TO.P,U1,1*%
%TO.N,GND*%
X70102500Y-127128000D03*
%TO.P,U1,2*%
%TO.N,Net-(C3-Pad1)*%
X70102500Y-127628000D03*
%TO.P,U1,3*%
%TO.N,VCC*%
X70102500Y-128128000D03*
%TO.P,U1,4*%
%TO.N,Net-(U1-Pad4)*%
X70102500Y-128628000D03*
D23*
%TO.P,U1,5*%
%TO.N,Net-(R1-Pad1)*%
X70627500Y-129153000D03*
%TO.P,U1,6*%
%TO.N,VCC*%
X71127500Y-129153000D03*
%TO.P,U1,7*%
%TO.N,GND*%
X71627500Y-129153000D03*
%TO.P,U1,8*%
%TO.N,Net-(C7-Pad1)*%
X72127500Y-129153000D03*
D22*
%TO.P,U1,9*%
%TO.N,Net-(R5-Pad2)*%
X72652500Y-128628000D03*
%TO.P,U1,10*%
%TO.N,Net-(C4-Pad1)*%
X72652500Y-128128000D03*
%TO.P,U1,11*%
%TO.N,GND*%
X72652500Y-127628000D03*
%TO.P,U1,12*%
%TO.N,Net-(D1-Pad2)*%
X72652500Y-127128000D03*
D23*
%TO.P,U1,13*%
X72127500Y-126603000D03*
%TO.P,U1,14*%
X71627500Y-126603000D03*
%TO.P,U1,15*%
%TO.N,Net-(U1-Pad15)*%
X71127500Y-126603000D03*
%TO.P,U1,16*%
%TO.N,GND*%
X70627500Y-126603000D03*
D24*
%TO.P,U1,17*%
X71000000Y-127500500D03*
X71000000Y-128255500D03*
X71755000Y-127500500D03*
X71755000Y-128255500D03*
D25*
X71000000Y-127500500D03*
X71000000Y-128255500D03*
X71755000Y-127500500D03*
X71755000Y-128255500D03*
%TD*%
D10*
%TO.P,J1,1*%
%TO.N,GND*%
X47825000Y-96675000D03*
%TD*%
%TO.P,J5,1*%
%TO.N,Net-(C11-Pad1)*%
X47825000Y-102025000D03*
%TD*%
D17*
%TO.P,RV1,1*%
%TO.N,/1*%
X59000000Y-91000000D03*
D16*
%TO.P,RV1,2*%
%TO.N,Net-(RV1-Pad2)*%
X61540000Y-91000000D03*
%TO.P,RV1,3*%
%TO.N,GND*%
X64080000Y-91000000D03*
%TD*%
D26*
%TO.P,D2,1*%
%TO.N,Net-(D2-Pad1)*%
X101500000Y-127500000D03*
D27*
%TO.P,D2,2*%
%TO.N,Net-(D2-Pad2)*%
X101500000Y-124960000D03*
%TD*%
D14*
%TO.P,R8,1*%
%TO.N,Net-(D2-Pad1)*%
X90000000Y-135500000D03*
D15*
%TO.P,R8,2*%
%TO.N,GND*%
X82380000Y-135500000D03*
%TD*%
D11*
%TO.P,R3,1*%
%TO.N,Net-(D2-Pad2)*%
X89000000Y-104620000D03*
D12*
%TO.P,R3,2*%
%TO.N,/5*%
X89000000Y-97000000D03*
%TD*%
D18*
%TO.P,TR1,6*%
%TO.N,/6*%
X83500000Y-92880000D03*
D28*
%TO.P,TR1,1*%
%TO.N,/1*%
X70800000Y-92880000D03*
D18*
%TO.P,TR1,5*%
%TO.N,/5*%
X83500000Y-100500000D03*
%TO.P,TR1,2*%
%TO.N,Net-(TR1-Pad2)*%
X70800000Y-100500000D03*
%TO.P,TR1,4*%
%TO.N,/4*%
X83500000Y-108120000D03*
%TO.P,TR1,3*%
%TO.N,GND*%
X70800000Y-108120000D03*
%TD*%
D29*
%TO.N,Earth*%
X55500000Y-118500000D03*
X68500000Y-124500000D03*
X77500000Y-130500000D03*
X86500000Y-129000000D03*
X56500000Y-128500000D03*
%TD*%
D30*
%TO.N,GND*%
X71755000Y-128255500D02*
X71755000Y-127755500D01*
X71755000Y-127755500D02*
X71882500Y-127628000D01*
X71755000Y-128255500D02*
X71627500Y-128255500D01*
X71882500Y-127628000D02*
X72652500Y-127628000D01*
X71755000Y-127500500D02*
X71882500Y-127628000D01*
X56135200Y-106030400D02*
X56135200Y-104985200D01*
X56135200Y-104985200D02*
X47825000Y-96675000D01*
X56135200Y-109000000D02*
X56135200Y-106030400D01*
X65500000Y-101944800D02*
X61414400Y-106030400D01*
X61414400Y-106030400D02*
X56135200Y-106030400D01*
X65500000Y-101944800D02*
X65500000Y-101429700D01*
X65500000Y-102460000D02*
X65500000Y-101944800D01*
X55620000Y-109000000D02*
X56135200Y-109000000D01*
X65500000Y-97380000D02*
X65500000Y-98410300D01*
X65500000Y-101429700D02*
X66537800Y-100391900D01*
X66537800Y-100391900D02*
X66537800Y-99448100D01*
X66537800Y-99448100D02*
X65500000Y-98410300D01*
X71627500Y-128255500D02*
X71000000Y-128255500D01*
X71627500Y-128255500D02*
X71627500Y-129153000D01*
X48580300Y-117540000D02*
X48620300Y-117500000D01*
X48620300Y-117500000D02*
X52500000Y-117500000D01*
X47500000Y-117540000D02*
X48580300Y-117540000D01*
X71000000Y-127500500D02*
X70994700Y-127500500D01*
X70994700Y-127500500D02*
X70627500Y-127133300D01*
X71755000Y-127500500D02*
X71000000Y-127500500D01*
X70627500Y-126603000D02*
X70627500Y-127133300D01*
X70627500Y-127133300D02*
X70107800Y-127133300D01*
X70107800Y-127133300D02*
X70102500Y-127128000D01*
%TO.N,Net-(C3-Pad1)*%
X70102500Y-127628000D02*
X69572200Y-127628000D01*
X69572200Y-127628000D02*
X69572200Y-126943000D01*
X69572200Y-126943000D02*
X76434200Y-120081000D01*
X76434200Y-120081000D02*
X81983700Y-120081000D01*
X81983700Y-120081000D02*
X82438200Y-120535500D01*
X82438200Y-120535500D02*
X87934900Y-120535500D01*
X87934900Y-120535500D02*
X93970400Y-114500000D01*
X93970400Y-114500000D02*
X95000000Y-114500000D01*
%TO.N,Net-(C4-Pad1)*%
X72652500Y-128128000D02*
X86965600Y-128128000D01*
X86965600Y-128128000D02*
X89538800Y-130701200D01*
X89538800Y-130701200D02*
X89538800Y-131598900D01*
X89538800Y-131598900D02*
X88976500Y-132161200D01*
X88976500Y-132161200D02*
X56661200Y-132161200D01*
X56661200Y-132161200D02*
X52500000Y-128000000D01*
%TO.N,Net-(C7-Pad1)*%
X72127500Y-129153000D02*
X72127500Y-129683300D01*
X72127500Y-129683300D02*
X71763700Y-130047100D01*
X71763700Y-130047100D02*
X56277300Y-130047100D01*
X56277300Y-130047100D02*
X53199800Y-126969600D01*
X53199800Y-126969600D02*
X48675800Y-126969600D01*
X48675800Y-126969600D02*
X46594600Y-124888400D01*
X46594600Y-124888400D02*
X46594600Y-124056900D01*
X46594600Y-124056900D02*
X47246100Y-123405400D01*
X47246100Y-123405400D02*
X48334000Y-123405400D01*
X48334000Y-123405400D02*
X49989400Y-121750000D01*
X49989400Y-121750000D02*
X57750000Y-121750000D01*
X57750000Y-121750000D02*
X59000000Y-120500000D01*
%TO.N,Net-(C8-Pad2)*%
X82880000Y-114500000D02*
X82115800Y-115264200D01*
X82115800Y-115264200D02*
X66735800Y-115264200D01*
X66735800Y-115264200D02*
X59000000Y-123000000D01*
%TO.N,Net-(C10-Pad2)*%
X93000000Y-124000000D02*
X94500000Y-125500000D01*
X84000000Y-123500000D02*
X85041900Y-122458100D01*
X85041900Y-122458100D02*
X91458100Y-122458100D01*
X91458100Y-122458100D02*
X93000000Y-124000000D01*
X93000000Y-124000000D02*
X97500000Y-119500000D01*
X97500000Y-119500000D02*
X100500000Y-119500000D01*
X100500000Y-119500000D02*
X101500000Y-118500000D01*
%TO.N,Net-(D1-Pad2)*%
X77975000Y-121325000D02*
X76744700Y-121325000D01*
X72032300Y-126072700D02*
X76744700Y-121360300D01*
X76744700Y-121360300D02*
X76744700Y-121325000D01*
X72127500Y-126337800D02*
X72032300Y-126242600D01*
X72032300Y-126242600D02*
X72032300Y-126072700D01*
X71627500Y-126072700D02*
X72032300Y-126072700D01*
X72127500Y-126603000D02*
X72127500Y-126337800D01*
X71627500Y-126603000D02*
X71627500Y-126072700D01*
X72127500Y-126603000D02*
X72652500Y-127128000D01*
%TO.N,Net-(R1-Pad1)*%
X70627500Y-129153000D02*
X69908800Y-129153000D01*
X69908800Y-129153000D02*
X63997100Y-123241300D01*
X63997100Y-123241300D02*
X63997100Y-120857600D01*
X63997100Y-120857600D02*
X65354700Y-119500000D01*
X65354700Y-119500000D02*
X83000000Y-119500000D01*
%TO.N,Net-(R5-Pad2)*%
X84000000Y-131120000D02*
X82969700Y-131120000D01*
X72652500Y-128628000D02*
X80477700Y-128628000D01*
X80477700Y-128628000D02*
X82969700Y-131120000D01*
X84000000Y-131120000D02*
X88500000Y-131120000D01*
%TO.N,VCC*%
X71127500Y-129153000D02*
X71127500Y-129683300D01*
X71127500Y-129683300D02*
X59183300Y-129683300D01*
X59183300Y-129683300D02*
X52500000Y-123000000D01*
X69572200Y-128128000D02*
X65275000Y-123830800D01*
X65275000Y-123830800D02*
X65275000Y-121325000D01*
X70102500Y-128128000D02*
X69572200Y-128128000D01*
X47500000Y-124500000D02*
X48405300Y-124500000D01*
X52500000Y-123000000D02*
X49905300Y-123000000D01*
X49905300Y-123000000D02*
X48405300Y-124500000D01*
%TO.N,Net-(D2-Pad1)*%
X101500000Y-127500000D02*
X100369700Y-127500000D01*
X90000000Y-135500000D02*
X92369700Y-135500000D01*
X92369700Y-135500000D02*
X100369700Y-127500000D01*
%TO.N,Net-(D2-Pad2)*%
X101500000Y-113420000D02*
X97800000Y-113420000D01*
X97800000Y-113420000D02*
X89000000Y-104620000D01*
%TO.N,Net-(C11-Pad2)*%
X57880000Y-97380000D02*
X56849700Y-97380000D01*
X54500000Y-96000000D02*
X55469700Y-96000000D01*
X55469700Y-96000000D02*
X56849700Y-97380000D01*
%TO.N,/6*%
X83500000Y-92880000D02*
X94880000Y-92880000D01*
X94880000Y-92880000D02*
X101500000Y-99500000D01*
%TO.N,/5*%
X89000000Y-97000000D02*
X87969700Y-97000000D01*
X83500000Y-100500000D02*
X84469700Y-100500000D01*
X84469700Y-100500000D02*
X87969700Y-97000000D01*
%TO.N,/1*%
X59000000Y-91000000D02*
X60080300Y-91000000D01*
X70800000Y-92880000D02*
X61825300Y-92880000D01*
X61825300Y-92880000D02*
X60080300Y-91135000D01*
X60080300Y-91135000D02*
X60080300Y-91000000D01*
%TD*%
D31*
%TO.N,Earth*%
X110648001Y-139148000D02*
X41352000Y-139148000D01*
X41352000Y-135398849D01*
X81353000Y-135398849D01*
X81353000Y-135601151D01*
X81392467Y-135799565D01*
X81469885Y-135986467D01*
X81582277Y-136154674D01*
X81725326Y-136297723D01*
X81893533Y-136410115D01*
X82080435Y-136487533D01*
X82278849Y-136527000D01*
X82481151Y-136527000D01*
X82679565Y-136487533D01*
X82866467Y-136410115D01*
X83034674Y-136297723D01*
X83177723Y-136154674D01*
X83290115Y-135986467D01*
X83367533Y-135799565D01*
X83407000Y-135601151D01*
X83407000Y-135398849D01*
X88973000Y-135398849D01*
X88973000Y-135601151D01*
X89012467Y-135799565D01*
X89089885Y-135986467D01*
X89202277Y-136154674D01*
X89345326Y-136297723D01*
X89513533Y-136410115D01*
X89700435Y-136487533D01*
X89898849Y-136527000D01*
X90101151Y-136527000D01*
X90299565Y-136487533D01*
X90486467Y-136410115D01*
X90654674Y-136297723D01*
X90797723Y-136154674D01*
X90910115Y-135986467D01*
X90934747Y-135927000D01*
X92348733Y-135927000D01*
X92369700Y-135929065D01*
X92390667Y-135927000D01*
X92390678Y-135927000D01*
X92453407Y-135920822D01*
X92533896Y-135896405D01*
X92608076Y-135856755D01*
X92673095Y-135803395D01*
X92686468Y-135787100D01*
X100271418Y-128202151D01*
X100271418Y-128400000D01*
X100277732Y-128464103D01*
X100296430Y-128525743D01*
X100326794Y-128582550D01*
X100367657Y-128632343D01*
X100417450Y-128673206D01*
X100474257Y-128703570D01*
X100535897Y-128722268D01*
X100600000Y-128728582D01*
X102400000Y-128728582D01*
X102464103Y-128722268D01*
X102525743Y-128703570D01*
X102582550Y-128673206D01*
X102632343Y-128632343D01*
X102673206Y-128582550D01*
X102703570Y-128525743D01*
X102722268Y-128464103D01*
X102728582Y-128400000D01*
X102728582Y-126600000D01*
X102722268Y-126535897D01*
X102703570Y-126474257D01*
X102673206Y-126417450D01*
X102632343Y-126367657D01*
X102582550Y-126326794D01*
X102525743Y-126296430D01*
X102464103Y-126277732D01*
X102400000Y-126271418D01*
X100600000Y-126271418D01*
X100535897Y-126277732D01*
X100474257Y-126296430D01*
X100417450Y-126326794D01*
X100367657Y-126367657D01*
X100326794Y-126417450D01*
X100296430Y-126474257D01*
X100277732Y-126535897D01*
X100271418Y-126600000D01*
X100271418Y-127083599D01*
X100205504Y-127103595D01*
X100170973Y-127122052D01*
X100131323Y-127143245D01*
X100082598Y-127183233D01*
X100082595Y-127183236D01*
X100066305Y-127196605D01*
X100052936Y-127212895D01*
X92192832Y-135073000D01*
X90934747Y-135073000D01*
X90910115Y-135013533D01*
X90797723Y-134845326D01*
X90654674Y-134702277D01*
X90486467Y-134589885D01*
X90299565Y-134512467D01*
X90101151Y-134473000D01*
X89898849Y-134473000D01*
X89700435Y-134512467D01*
X89513533Y-134589885D01*
X89345326Y-134702277D01*
X89202277Y-134845326D01*
X89089885Y-135013533D01*
X89012467Y-135200435D01*
X88973000Y-135398849D01*
X83407000Y-135398849D01*
X83367533Y-135200435D01*
X83290115Y-135013533D01*
X83177723Y-134845326D01*
X83034674Y-134702277D01*
X82866467Y-134589885D01*
X82679565Y-134512467D01*
X82481151Y-134473000D01*
X82278849Y-134473000D01*
X82080435Y-134512467D01*
X81893533Y-134589885D01*
X81725326Y-134702277D01*
X81582277Y-134845326D01*
X81469885Y-135013533D01*
X81392467Y-135200435D01*
X81353000Y-135398849D01*
X41352000Y-135398849D01*
X41352000Y-124056900D01*
X46165535Y-124056900D01*
X46167601Y-124077877D01*
X46167600Y-124867432D01*
X46165535Y-124888400D01*
X46167600Y-124909367D01*
X46167600Y-124909377D01*
X46173778Y-124972106D01*
X46198195Y-125052595D01*
X46198196Y-125052596D01*
X46237845Y-125126776D01*
X46274357Y-125171266D01*
X46291205Y-125191795D01*
X46307500Y-125205168D01*
X48359041Y-127256711D01*
X48372405Y-127272995D01*
X48388689Y-127286359D01*
X48388698Y-127286368D01*
X48437423Y-127326355D01*
X48456035Y-127336303D01*
X48511604Y-127366005D01*
X48592093Y-127390422D01*
X48654822Y-127396600D01*
X48654834Y-127396600D01*
X48675799Y-127398665D01*
X48696764Y-127396600D01*
X51547748Y-127396600D01*
X51501266Y-127466165D01*
X51416310Y-127671266D01*
X51373000Y-127889000D01*
X51373000Y-128111000D01*
X51416310Y-128328734D01*
X51501266Y-128533835D01*
X51624602Y-128718421D01*
X51781579Y-128875398D01*
X51966165Y-128998734D01*
X52171266Y-129083690D01*
X52389000Y-129127000D01*
X52611000Y-129127000D01*
X52828734Y-129083690D01*
X52935569Y-129039437D01*
X56344436Y-132448305D01*
X56357805Y-132464595D01*
X56374095Y-132477964D01*
X56374098Y-132477967D01*
X56422823Y-132517955D01*
X56462473Y-132539148D01*
X56497004Y-132557605D01*
X56577493Y-132582022D01*
X56640222Y-132588200D01*
X56640242Y-132588200D01*
X56661199Y-132590264D01*
X56682156Y-132588200D01*
X88955533Y-132588200D01*
X88976500Y-132590265D01*
X88997467Y-132588200D01*
X88997478Y-132588200D01*
X89060207Y-132582022D01*
X89140696Y-132557605D01*
X89214876Y-132517955D01*
X89279895Y-132464595D01*
X89293268Y-132448300D01*
X89825910Y-131915659D01*
X89842195Y-131902295D01*
X89855559Y-131886011D01*
X89855568Y-131886002D01*
X89895555Y-131837277D01*
X89916748Y-131797627D01*
X89935205Y-131763096D01*
X89959622Y-131682607D01*
X89965800Y-131619878D01*
X89965800Y-131619866D01*
X89967865Y-131598901D01*
X89965800Y-131577936D01*
X89965800Y-130722164D01*
X89967865Y-130701199D01*
X89965800Y-130680234D01*
X89965800Y-130680222D01*
X89959622Y-130617493D01*
X89935205Y-130537004D01*
X89902686Y-130476165D01*
X89895555Y-130462823D01*
X89855568Y-130414098D01*
X89855559Y-130414089D01*
X89842195Y-130397805D01*
X89825912Y-130384442D01*
X87330469Y-127889000D01*
X93373000Y-127889000D01*
X93373000Y-128111000D01*
X93416310Y-128328734D01*
X93501266Y-128533835D01*
X93624602Y-128718421D01*
X93781579Y-128875398D01*
X93966165Y-128998734D01*
X94171266Y-129083690D01*
X94389000Y-129127000D01*
X94611000Y-129127000D01*
X94828734Y-129083690D01*
X95033835Y-128998734D01*
X95218421Y-128875398D01*
X95375398Y-128718421D01*
X95498734Y-128533835D01*
X95583690Y-128328734D01*
X95627000Y-128111000D01*
X95627000Y-127889000D01*
X95583690Y-127671266D01*
X95498734Y-127466165D01*
X95375398Y-127281579D01*
X95218421Y-127124602D01*
X95033835Y-127001266D01*
X94828734Y-126916310D01*
X94611000Y-126873000D01*
X94389000Y-126873000D01*
X94171266Y-126916310D01*
X93966165Y-127001266D01*
X93781579Y-127124602D01*
X93624602Y-127281579D01*
X93501266Y-127466165D01*
X93416310Y-127671266D01*
X93373000Y-127889000D01*
X87330469Y-127889000D01*
X87282367Y-127840899D01*
X87268995Y-127824605D01*
X87203976Y-127771245D01*
X87129796Y-127731595D01*
X87049307Y-127707178D01*
X86986578Y-127701000D01*
X86986567Y-127701000D01*
X86965600Y-127698935D01*
X86944633Y-127701000D01*
X73274617Y-127701000D01*
X73281807Y-127628000D01*
X73272597Y-127534492D01*
X73245322Y-127444577D01*
X73209736Y-127378000D01*
X73245322Y-127311423D01*
X73272597Y-127221508D01*
X73281807Y-127128000D01*
X73272597Y-127034492D01*
X73245322Y-126944577D01*
X73201029Y-126861711D01*
X73141421Y-126789079D01*
X73068789Y-126729471D01*
X72985923Y-126685178D01*
X72896008Y-126657903D01*
X72825923Y-126651000D01*
X72779369Y-126651000D01*
X72604500Y-126476132D01*
X72604500Y-126429577D01*
X72597597Y-126359492D01*
X72570322Y-126269577D01*
X72530312Y-126194723D01*
X72526549Y-126182319D01*
X75319868Y-123389000D01*
X82873000Y-123389000D01*
X82873000Y-123611000D01*
X82916310Y-123828734D01*
X83001266Y-124033835D01*
X83124602Y-124218421D01*
X83281579Y-124375398D01*
X83466165Y-124498734D01*
X83671266Y-124583690D01*
X83889000Y-124627000D01*
X84111000Y-124627000D01*
X84328734Y-124583690D01*
X84533835Y-124498734D01*
X84718421Y-124375398D01*
X84875398Y-124218421D01*
X84998734Y-124033835D01*
X85083690Y-123828734D01*
X85127000Y-123611000D01*
X85127000Y-123389000D01*
X85083690Y-123171266D01*
X85039437Y-123064431D01*
X85218769Y-122885100D01*
X87555432Y-122885100D01*
X87501266Y-122966165D01*
X87416310Y-123171266D01*
X87373000Y-123389000D01*
X87373000Y-123611000D01*
X87416310Y-123828734D01*
X87501266Y-124033835D01*
X87624602Y-124218421D01*
X87781579Y-124375398D01*
X87966165Y-124498734D01*
X88171266Y-124583690D01*
X88389000Y-124627000D01*
X88611000Y-124627000D01*
X88828734Y-124583690D01*
X89033835Y-124498734D01*
X89218421Y-124375398D01*
X89375398Y-124218421D01*
X89498734Y-124033835D01*
X89583690Y-123828734D01*
X89627000Y-123611000D01*
X89627000Y-123389000D01*
X89583690Y-123171266D01*
X89498734Y-122966165D01*
X89444568Y-122885100D01*
X91281232Y-122885100D01*
X92683236Y-124287105D01*
X92696605Y-124303395D01*
X92712895Y-124316764D01*
X92712899Y-124316768D01*
X92712904Y-124316772D01*
X93460562Y-125064432D01*
X93416310Y-125171266D01*
X93373000Y-125389000D01*
X93373000Y-125611000D01*
X93416310Y-125828734D01*
X93501266Y-126033835D01*
X93624602Y-126218421D01*
X93781579Y-126375398D01*
X93966165Y-126498734D01*
X94171266Y-126583690D01*
X94389000Y-126627000D01*
X94611000Y-126627000D01*
X94828734Y-126583690D01*
X95033835Y-126498734D01*
X95218421Y-126375398D01*
X95375398Y-126218421D01*
X95498734Y-126033835D01*
X95583690Y-125828734D01*
X95627000Y-125611000D01*
X95627000Y-125389000D01*
X95583690Y-125171266D01*
X95498734Y-124966165D01*
X95413867Y-124839151D01*
X100273000Y-124839151D01*
X100273000Y-125080849D01*
X100320153Y-125317903D01*
X100412647Y-125541202D01*
X100546927Y-125742167D01*
X100717833Y-125913073D01*
X100918798Y-126047353D01*
X101142097Y-126139847D01*
X101379151Y-126187000D01*
X101620849Y-126187000D01*
X101857903Y-126139847D01*
X102081202Y-126047353D01*
X102282167Y-125913073D01*
X102453073Y-125742167D01*
X102587353Y-125541202D01*
X102679847Y-125317903D01*
X102727000Y-125080849D01*
X102727000Y-124839151D01*
X102679847Y-124602097D01*
X102587353Y-124378798D01*
X102453073Y-124177833D01*
X102282167Y-124006927D01*
X102081202Y-123872647D01*
X101857903Y-123780153D01*
X101620849Y-123733000D01*
X101379151Y-123733000D01*
X101142097Y-123780153D01*
X100918798Y-123872647D01*
X100717833Y-124006927D01*
X100546927Y-124177833D01*
X100412647Y-124378798D01*
X100320153Y-124602097D01*
X100273000Y-124839151D01*
X95413867Y-124839151D01*
X95375398Y-124781579D01*
X95218421Y-124624602D01*
X95033835Y-124501266D01*
X94828734Y-124416310D01*
X94611000Y-124373000D01*
X94389000Y-124373000D01*
X94171266Y-124416310D01*
X94064432Y-124460562D01*
X93603868Y-124000000D01*
X97064431Y-120539437D01*
X97171266Y-120583690D01*
X97389000Y-120627000D01*
X97611000Y-120627000D01*
X97828734Y-120583690D01*
X98033835Y-120498734D01*
X98218421Y-120375398D01*
X98375398Y-120218421D01*
X98498734Y-120033835D01*
X98542987Y-119927000D01*
X100479033Y-119927000D01*
X100500000Y-119929065D01*
X100520967Y-119927000D01*
X100520978Y-119927000D01*
X100583707Y-119920822D01*
X100664196Y-119896405D01*
X100738376Y-119856755D01*
X100803395Y-119803395D01*
X100816768Y-119787100D01*
X101140968Y-119462901D01*
X101200435Y-119487533D01*
X101398849Y-119527000D01*
X101601151Y-119527000D01*
X101799565Y-119487533D01*
X101986467Y-119410115D01*
X102154674Y-119297723D01*
X102297723Y-119154674D01*
X102410115Y-118986467D01*
X102487533Y-118799565D01*
X102527000Y-118601151D01*
X102527000Y-118398849D01*
X102487533Y-118200435D01*
X102410115Y-118013533D01*
X102297723Y-117845326D01*
X102154674Y-117702277D01*
X101986467Y-117589885D01*
X101799565Y-117512467D01*
X101601151Y-117473000D01*
X101398849Y-117473000D01*
X101200435Y-117512467D01*
X101013533Y-117589885D01*
X100845326Y-117702277D01*
X100702277Y-117845326D01*
X100589885Y-118013533D01*
X100512467Y-118200435D01*
X100473000Y-118398849D01*
X100473000Y-118601151D01*
X100512467Y-118799565D01*
X100537099Y-118859032D01*
X100323132Y-119073000D01*
X98542987Y-119073000D01*
X98498734Y-118966165D01*
X98375398Y-118781579D01*
X98218421Y-118624602D01*
X98033835Y-118501266D01*
X97828734Y-118416310D01*
X97611000Y-118373000D01*
X97389000Y-118373000D01*
X97171266Y-118416310D01*
X96966165Y-118501266D01*
X96781579Y-118624602D01*
X96624602Y-118781579D01*
X96501266Y-118966165D01*
X96416310Y-119171266D01*
X96373000Y-119389000D01*
X96373000Y-119611000D01*
X96416310Y-119828734D01*
X96460563Y-119935569D01*
X93000000Y-123396132D01*
X91774868Y-122171000D01*
X91761495Y-122154705D01*
X91696476Y-122101345D01*
X91622296Y-122061695D01*
X91541807Y-122037278D01*
X91479078Y-122031100D01*
X91479067Y-122031100D01*
X91458100Y-122029035D01*
X91437133Y-122031100D01*
X85062866Y-122031100D01*
X85041899Y-122029035D01*
X85020932Y-122031100D01*
X85020922Y-122031100D01*
X84958193Y-122037278D01*
X84877704Y-122061695D01*
X84843173Y-122080152D01*
X84803523Y-122101345D01*
X84754799Y-122141332D01*
X84754795Y-122141336D01*
X84738505Y-122154705D01*
X84725136Y-122170995D01*
X84435569Y-122460563D01*
X84328734Y-122416310D01*
X84111000Y-122373000D01*
X83889000Y-122373000D01*
X83671266Y-122416310D01*
X83466165Y-122501266D01*
X83281579Y-122624602D01*
X83124602Y-122781579D01*
X83001266Y-122966165D01*
X82916310Y-123171266D01*
X82873000Y-123389000D01*
X75319868Y-123389000D01*
X76786220Y-121922649D01*
X76799028Y-121953570D01*
X76944252Y-122170913D01*
X77129087Y-122355748D01*
X77346430Y-122500972D01*
X77587928Y-122601004D01*
X77844302Y-122652000D01*
X78105698Y-122652000D01*
X78362072Y-122601004D01*
X78603570Y-122500972D01*
X78820913Y-122355748D01*
X79005748Y-122170913D01*
X79150972Y-121953570D01*
X79251004Y-121712072D01*
X79302000Y-121455698D01*
X79302000Y-121194302D01*
X79251004Y-120937928D01*
X79150972Y-120696430D01*
X79025067Y-120508000D01*
X81806832Y-120508000D01*
X82121436Y-120822605D01*
X82134805Y-120838895D01*
X82151095Y-120852264D01*
X82151099Y-120852268D01*
X82199823Y-120892255D01*
X82222130Y-120904178D01*
X82274004Y-120931905D01*
X82354493Y-120956322D01*
X82417222Y-120962500D01*
X82417232Y-120962500D01*
X82438199Y-120964565D01*
X82459166Y-120962500D01*
X87913933Y-120962500D01*
X87934900Y-120964565D01*
X87955867Y-120962500D01*
X87955878Y-120962500D01*
X88018607Y-120956322D01*
X88099096Y-120931905D01*
X88173276Y-120892255D01*
X88238295Y-120838895D01*
X88251668Y-120822600D01*
X89493000Y-119581268D01*
X89493000Y-119611000D01*
X89536310Y-119828734D01*
X89621266Y-120033835D01*
X89744602Y-120218421D01*
X89901579Y-120375398D01*
X90086165Y-120498734D01*
X90291266Y-120583690D01*
X90509000Y-120627000D01*
X90731000Y-120627000D01*
X90948734Y-120583690D01*
X91153835Y-120498734D01*
X91338421Y-120375398D01*
X91495398Y-120218421D01*
X91618734Y-120033835D01*
X91703690Y-119828734D01*
X91747000Y-119611000D01*
X91747000Y-119389000D01*
X93873000Y-119389000D01*
X93873000Y-119611000D01*
X93916310Y-119828734D01*
X94001266Y-120033835D01*
X94124602Y-120218421D01*
X94281579Y-120375398D01*
X94466165Y-120498734D01*
X94671266Y-120583690D01*
X94889000Y-120627000D01*
X95111000Y-120627000D01*
X95328734Y-120583690D01*
X95533835Y-120498734D01*
X95718421Y-120375398D01*
X95875398Y-120218421D01*
X95998734Y-120033835D01*
X96083690Y-119828734D01*
X96127000Y-119611000D01*
X96127000Y-119389000D01*
X96083690Y-119171266D01*
X95998734Y-118966165D01*
X95875398Y-118781579D01*
X95718421Y-118624602D01*
X95533835Y-118501266D01*
X95328734Y-118416310D01*
X95111000Y-118373000D01*
X94889000Y-118373000D01*
X94671266Y-118416310D01*
X94466165Y-118501266D01*
X94281579Y-118624602D01*
X94124602Y-118781579D01*
X94001266Y-118966165D01*
X93916310Y-119171266D01*
X93873000Y-119389000D01*
X91747000Y-119389000D01*
X91703690Y-119171266D01*
X91618734Y-118966165D01*
X91495398Y-118781579D01*
X91338421Y-118624602D01*
X91153835Y-118501266D01*
X90948734Y-118416310D01*
X90731000Y-118373000D01*
X90701268Y-118373000D01*
X94016954Y-115057315D01*
X94124602Y-115218421D01*
X94281579Y-115375398D01*
X94466165Y-115498734D01*
X94671266Y-115583690D01*
X94889000Y-115627000D01*
X95111000Y-115627000D01*
X95328734Y-115583690D01*
X95533835Y-115498734D01*
X95718421Y-115375398D01*
X95875398Y-115218421D01*
X95998734Y-115033835D01*
X96083690Y-114828734D01*
X96127000Y-114611000D01*
X96127000Y-114389000D01*
X96083690Y-114171266D01*
X95998734Y-113966165D01*
X95875398Y-113781579D01*
X95718421Y-113624602D01*
X95533835Y-113501266D01*
X95328734Y-113416310D01*
X95111000Y-113373000D01*
X94889000Y-113373000D01*
X94671266Y-113416310D01*
X94466165Y-113501266D01*
X94281579Y-113624602D01*
X94124602Y-113781579D01*
X94001266Y-113966165D01*
X93957336Y-114072222D01*
X93949433Y-114073000D01*
X93949422Y-114073000D01*
X93886693Y-114079178D01*
X93806204Y-114103595D01*
X93771673Y-114122052D01*
X93732023Y-114143245D01*
X93683299Y-114183232D01*
X93683295Y-114183236D01*
X93667005Y-114196605D01*
X93653636Y-114212895D01*
X87758032Y-120108500D01*
X83948845Y-120108500D01*
X83998734Y-120033835D01*
X84083690Y-119828734D01*
X84127000Y-119611000D01*
X84127000Y-119389000D01*
X84083690Y-119171266D01*
X83998734Y-118966165D01*
X83875398Y-118781579D01*
X83718421Y-118624602D01*
X83533835Y-118501266D01*
X83328734Y-118416310D01*
X83111000Y-118373000D01*
X82889000Y-118373000D01*
X82671266Y-118416310D01*
X82466165Y-118501266D01*
X82281579Y-118624602D01*
X82124602Y-118781579D01*
X82001266Y-118966165D01*
X81957013Y-119073000D01*
X65375664Y-119073000D01*
X65354699Y-119070935D01*
X65333734Y-119073000D01*
X65333722Y-119073000D01*
X65270993Y-119079178D01*
X65190504Y-119103595D01*
X65155973Y-119122052D01*
X65116323Y-119143245D01*
X65067598Y-119183232D01*
X65067589Y-119183241D01*
X65051305Y-119196605D01*
X65037941Y-119212889D01*
X63709995Y-120540837D01*
X63693706Y-120554205D01*
X63680337Y-120570495D01*
X63680332Y-120570500D01*
X63640345Y-120619224D01*
X63600696Y-120693404D01*
X63576279Y-120773894D01*
X63568035Y-120857600D01*
X63570101Y-120878577D01*
X63570100Y-123220333D01*
X63568035Y-123241300D01*
X63570100Y-123262267D01*
X63570100Y-123262277D01*
X63576278Y-123325006D01*
X63600695Y-123405495D01*
X63616143Y-123434396D01*
X63640345Y-123479676D01*
X63680332Y-123528400D01*
X63693705Y-123544695D01*
X63710000Y-123558068D01*
X69408230Y-129256300D01*
X59360169Y-129256300D01*
X53539437Y-123435569D01*
X53583690Y-123328734D01*
X53627000Y-123111000D01*
X53627000Y-122889000D01*
X57873000Y-122889000D01*
X57873000Y-123111000D01*
X57916310Y-123328734D01*
X58001266Y-123533835D01*
X58124602Y-123718421D01*
X58281579Y-123875398D01*
X58466165Y-123998734D01*
X58671266Y-124083690D01*
X58889000Y-124127000D01*
X59111000Y-124127000D01*
X59328734Y-124083690D01*
X59533835Y-123998734D01*
X59718421Y-123875398D01*
X59875398Y-123718421D01*
X59998734Y-123533835D01*
X60083690Y-123328734D01*
X60127000Y-123111000D01*
X60127000Y-122889000D01*
X60083690Y-122671266D01*
X60039437Y-122564431D01*
X66912670Y-115691200D01*
X82094833Y-115691200D01*
X82115800Y-115693265D01*
X82136767Y-115691200D01*
X82136778Y-115691200D01*
X82199507Y-115685022D01*
X82279996Y-115660605D01*
X82354176Y-115620955D01*
X82419195Y-115567595D01*
X82432568Y-115551300D01*
X82444431Y-115539437D01*
X82551266Y-115583690D01*
X82769000Y-115627000D01*
X82991000Y-115627000D01*
X83208734Y-115583690D01*
X83413835Y-115498734D01*
X83598421Y-115375398D01*
X83755398Y-115218421D01*
X83878734Y-115033835D01*
X83963690Y-114828734D01*
X84007000Y-114611000D01*
X84007000Y-114389000D01*
X89373000Y-114389000D01*
X89373000Y-114611000D01*
X89416310Y-114828734D01*
X89501266Y-115033835D01*
X89624602Y-115218421D01*
X89781579Y-115375398D01*
X89966165Y-115498734D01*
X90171266Y-115583690D01*
X90389000Y-115627000D01*
X90611000Y-115627000D01*
X90828734Y-115583690D01*
X91033835Y-115498734D01*
X91218421Y-115375398D01*
X91375398Y-115218421D01*
X91498734Y-115033835D01*
X91583690Y-114828734D01*
X91627000Y-114611000D01*
X91627000Y-114389000D01*
X91583690Y-114171266D01*
X91498734Y-113966165D01*
X91375398Y-113781579D01*
X91218421Y-113624602D01*
X91033835Y-113501266D01*
X90828734Y-113416310D01*
X90611000Y-113373000D01*
X90389000Y-113373000D01*
X90171266Y-113416310D01*
X89966165Y-113501266D01*
X89781579Y-113624602D01*
X89624602Y-113781579D01*
X89501266Y-113966165D01*
X89416310Y-114171266D01*
X89373000Y-114389000D01*
X84007000Y-114389000D01*
X83963690Y-114171266D01*
X83878734Y-113966165D01*
X83755398Y-113781579D01*
X83598421Y-113624602D01*
X83413835Y-113501266D01*
X83208734Y-113416310D01*
X82991000Y-113373000D01*
X82769000Y-113373000D01*
X82551266Y-113416310D01*
X82346165Y-113501266D01*
X82161579Y-113624602D01*
X82004602Y-113781579D01*
X81881266Y-113966165D01*
X81796310Y-114171266D01*
X81753000Y-114389000D01*
X81753000Y-114611000D01*
X81796310Y-114828734D01*
X81799817Y-114837200D01*
X76256619Y-114837200D01*
X76375398Y-114718421D01*
X76498734Y-114533835D01*
X76583690Y-114328734D01*
X76627000Y-114111000D01*
X76627000Y-113889000D01*
X76583690Y-113671266D01*
X76498734Y-113466165D01*
X76375398Y-113281579D01*
X76218421Y-113124602D01*
X76033835Y-113001266D01*
X75828734Y-112916310D01*
X75611000Y-112873000D01*
X75389000Y-112873000D01*
X75171266Y-112916310D01*
X74966165Y-113001266D01*
X74781579Y-113124602D01*
X74624602Y-113281579D01*
X74501266Y-113466165D01*
X74416310Y-113671266D01*
X74373000Y-113889000D01*
X74373000Y-114111000D01*
X74416310Y-114328734D01*
X74501266Y-114533835D01*
X74624602Y-114718421D01*
X74743381Y-114837200D01*
X69004918Y-114837200D01*
X69008582Y-114800000D01*
X69008582Y-113200000D01*
X69002268Y-113135897D01*
X68983570Y-113074257D01*
X68953206Y-113017450D01*
X68912343Y-112967657D01*
X68862550Y-112926794D01*
X68805743Y-112896430D01*
X68744103Y-112877732D01*
X68680000Y-112871418D01*
X67080000Y-112871418D01*
X67015897Y-112877732D01*
X66954257Y-112896430D01*
X66897450Y-112926794D01*
X66847657Y-112967657D01*
X66806794Y-113017450D01*
X66776430Y-113074257D01*
X66757732Y-113135897D01*
X66751418Y-113200000D01*
X66751418Y-114800000D01*
X66755066Y-114837033D01*
X66735799Y-114835135D01*
X66714834Y-114837200D01*
X66714822Y-114837200D01*
X66652093Y-114843378D01*
X66571604Y-114867795D01*
X66557380Y-114875398D01*
X66497423Y-114907445D01*
X66448698Y-114947432D01*
X66448689Y-114947441D01*
X66432405Y-114960805D01*
X66419041Y-114977089D01*
X59435569Y-121960563D01*
X59328734Y-121916310D01*
X59111000Y-121873000D01*
X58889000Y-121873000D01*
X58671266Y-121916310D01*
X58466165Y-122001266D01*
X58281579Y-122124602D01*
X58124602Y-122281579D01*
X58001266Y-122466165D01*
X57916310Y-122671266D01*
X57873000Y-122889000D01*
X53627000Y-122889000D01*
X53583690Y-122671266D01*
X53498734Y-122466165D01*
X53375398Y-122281579D01*
X53270819Y-122177000D01*
X57729033Y-122177000D01*
X57750000Y-122179065D01*
X57770967Y-122177000D01*
X57770978Y-122177000D01*
X57833707Y-122170822D01*
X57914196Y-122146405D01*
X57988376Y-122106755D01*
X58053395Y-122053395D01*
X58066768Y-122037100D01*
X58564431Y-121539437D01*
X58671266Y-121583690D01*
X58889000Y-121627000D01*
X59111000Y-121627000D01*
X59328734Y-121583690D01*
X59533835Y-121498734D01*
X59718421Y-121375398D01*
X59875398Y-121218421D01*
X59998734Y-121033835D01*
X60083690Y-120828734D01*
X60127000Y-120611000D01*
X60127000Y-120389000D01*
X60083690Y-120171266D01*
X59998734Y-119966165D01*
X59875398Y-119781579D01*
X59718421Y-119624602D01*
X59533835Y-119501266D01*
X59328734Y-119416310D01*
X59111000Y-119373000D01*
X58889000Y-119373000D01*
X58671266Y-119416310D01*
X58466165Y-119501266D01*
X58281579Y-119624602D01*
X58124602Y-119781579D01*
X58001266Y-119966165D01*
X57916310Y-120171266D01*
X57873000Y-120389000D01*
X57873000Y-120611000D01*
X57916310Y-120828734D01*
X57960563Y-120935569D01*
X57573132Y-121323000D01*
X53270819Y-121323000D01*
X53375398Y-121218421D01*
X53498734Y-121033835D01*
X53583690Y-120828734D01*
X53627000Y-120611000D01*
X53627000Y-120389000D01*
X53583690Y-120171266D01*
X53498734Y-119966165D01*
X53375398Y-119781579D01*
X53218421Y-119624602D01*
X53033835Y-119501266D01*
X52828734Y-119416310D01*
X52611000Y-119373000D01*
X52389000Y-119373000D01*
X52171266Y-119416310D01*
X51966165Y-119501266D01*
X51781579Y-119624602D01*
X51624602Y-119781579D01*
X51501266Y-119966165D01*
X51416310Y-120171266D01*
X51373000Y-120389000D01*
X51373000Y-120611000D01*
X51416310Y-120828734D01*
X51501266Y-121033835D01*
X51624602Y-121218421D01*
X51729181Y-121323000D01*
X50010366Y-121323000D01*
X49989399Y-121320935D01*
X49968432Y-121323000D01*
X49968422Y-121323000D01*
X49905693Y-121329178D01*
X49825204Y-121353595D01*
X49812660Y-121360300D01*
X49751023Y-121393245D01*
X49702298Y-121433232D01*
X49702289Y-121433241D01*
X49686005Y-121446605D01*
X49672641Y-121462889D01*
X48503582Y-122631949D01*
X48503582Y-121825000D01*
X48497268Y-121760897D01*
X48478570Y-121699257D01*
X48448206Y-121642450D01*
X48407343Y-121592657D01*
X48357550Y-121551794D01*
X48300743Y-121521430D01*
X48239103Y-121502732D01*
X48175000Y-121496418D01*
X46825000Y-121496418D01*
X46760897Y-121502732D01*
X46699257Y-121521430D01*
X46642450Y-121551794D01*
X46592657Y-121592657D01*
X46551794Y-121642450D01*
X46521430Y-121699257D01*
X46502732Y-121760897D01*
X46496418Y-121825000D01*
X46496418Y-123175000D01*
X46502732Y-123239103D01*
X46521430Y-123300743D01*
X46551794Y-123357550D01*
X46592657Y-123407343D01*
X46618818Y-123428813D01*
X46307495Y-123740137D01*
X46291206Y-123753505D01*
X46277837Y-123769795D01*
X46277832Y-123769800D01*
X46237845Y-123818524D01*
X46207446Y-123875398D01*
X46198196Y-123892704D01*
X46189667Y-123920821D01*
X46173779Y-123973194D01*
X46165535Y-124056900D01*
X41352000Y-124056900D01*
X41352000Y-117424076D01*
X46323000Y-117424076D01*
X46323000Y-117655924D01*
X46368231Y-117883318D01*
X46456956Y-118097519D01*
X46585764Y-118290294D01*
X46749706Y-118454236D01*
X46942481Y-118583044D01*
X47156682Y-118671769D01*
X47384076Y-118717000D01*
X47615924Y-118717000D01*
X47843318Y-118671769D01*
X48057519Y-118583044D01*
X48250294Y-118454236D01*
X48414236Y-118290294D01*
X48543044Y-118097519D01*
X48596930Y-117967427D01*
X48601267Y-117967000D01*
X48601278Y-117967000D01*
X48664007Y-117960822D01*
X48744496Y-117936405D01*
X48762092Y-117927000D01*
X51457013Y-117927000D01*
X51501266Y-118033835D01*
X51624602Y-118218421D01*
X51781579Y-118375398D01*
X51966165Y-118498734D01*
X52171266Y-118583690D01*
X52389000Y-118627000D01*
X52611000Y-118627000D01*
X52828734Y-118583690D01*
X53033835Y-118498734D01*
X53218421Y-118375398D01*
X53375398Y-118218421D01*
X53498734Y-118033835D01*
X53583690Y-117828734D01*
X53627000Y-117611000D01*
X53627000Y-117389000D01*
X57873000Y-117389000D01*
X57873000Y-117611000D01*
X57916310Y-117828734D01*
X58001266Y-118033835D01*
X58124602Y-118218421D01*
X58281579Y-118375398D01*
X58466165Y-118498734D01*
X58671266Y-118583690D01*
X58889000Y-118627000D01*
X59111000Y-118627000D01*
X59328734Y-118583690D01*
X59533835Y-118498734D01*
X59718421Y-118375398D01*
X59875398Y-118218421D01*
X59998734Y-118033835D01*
X60083690Y-117828734D01*
X60127000Y-117611000D01*
X60127000Y-117389000D01*
X60083690Y-117171266D01*
X59998734Y-116966165D01*
X59875398Y-116781579D01*
X59718421Y-116624602D01*
X59533835Y-116501266D01*
X59328734Y-116416310D01*
X59111000Y-116373000D01*
X58889000Y-116373000D01*
X58671266Y-116416310D01*
X58466165Y-116501266D01*
X58281579Y-116624602D01*
X58124602Y-116781579D01*
X58001266Y-116966165D01*
X57916310Y-117171266D01*
X57873000Y-117389000D01*
X53627000Y-117389000D01*
X53583690Y-117171266D01*
X53498734Y-116966165D01*
X53375398Y-116781579D01*
X53218421Y-116624602D01*
X53033835Y-116501266D01*
X52828734Y-116416310D01*
X52611000Y-116373000D01*
X52389000Y-116373000D01*
X52171266Y-116416310D01*
X51966165Y-116501266D01*
X51781579Y-116624602D01*
X51624602Y-116781579D01*
X51501266Y-116966165D01*
X51457013Y-117073000D01*
X48641267Y-117073000D01*
X48620300Y-117070935D01*
X48599333Y-117073000D01*
X48599322Y-117073000D01*
X48581274Y-117074777D01*
X48543044Y-116982481D01*
X48414236Y-116789706D01*
X48250294Y-116625764D01*
X48057519Y-116496956D01*
X47843318Y-116408231D01*
X47615924Y-116363000D01*
X47384076Y-116363000D01*
X47156682Y-116408231D01*
X46942481Y-116496956D01*
X46749706Y-116625764D01*
X46585764Y-116789706D01*
X46456956Y-116982481D01*
X46368231Y-117196682D01*
X46323000Y-117424076D01*
X41352000Y-117424076D01*
X41352000Y-114150000D01*
X46321418Y-114150000D01*
X46321418Y-115850000D01*
X46327732Y-115914103D01*
X46346430Y-115975743D01*
X46376794Y-116032550D01*
X46417657Y-116082343D01*
X46467450Y-116123206D01*
X46524257Y-116153570D01*
X46585897Y-116172268D01*
X46650000Y-116178582D01*
X48350000Y-116178582D01*
X48414103Y-116172268D01*
X48475743Y-116153570D01*
X48532550Y-116123206D01*
X48582343Y-116082343D01*
X48623206Y-116032550D01*
X48653570Y-115975743D01*
X48672268Y-115914103D01*
X48678582Y-115850000D01*
X48678582Y-114889000D01*
X51373000Y-114889000D01*
X51373000Y-115111000D01*
X51416310Y-115328734D01*
X51501266Y-115533835D01*
X51624602Y-115718421D01*
X51781579Y-115875398D01*
X51966165Y-115998734D01*
X52171266Y-116083690D01*
X52389000Y-116127000D01*
X52611000Y-116127000D01*
X52828734Y-116083690D01*
X53033835Y-115998734D01*
X53218421Y-115875398D01*
X53375398Y-115718421D01*
X53498734Y-115533835D01*
X53583690Y-115328734D01*
X53627000Y-115111000D01*
X53627000Y-114889000D01*
X57873000Y-114889000D01*
X57873000Y-115111000D01*
X57916310Y-115328734D01*
X58001266Y-115533835D01*
X58124602Y-115718421D01*
X58281579Y-115875398D01*
X58466165Y-115998734D01*
X58671266Y-116083690D01*
X58889000Y-116127000D01*
X59111000Y-116127000D01*
X59328734Y-116083690D01*
X59533835Y-115998734D01*
X59718421Y-115875398D01*
X59875398Y-115718421D01*
X59998734Y-115533835D01*
X60083690Y-115328734D01*
X60127000Y-115111000D01*
X60127000Y-114889000D01*
X60083690Y-114671266D01*
X59998734Y-114466165D01*
X59875398Y-114281579D01*
X59718421Y-114124602D01*
X59533835Y-114001266D01*
X59328734Y-113916310D01*
X59111000Y-113873000D01*
X58889000Y-113873000D01*
X58671266Y-113916310D01*
X58466165Y-114001266D01*
X58281579Y-114124602D01*
X58124602Y-114281579D01*
X58001266Y-114466165D01*
X57916310Y-114671266D01*
X57873000Y-114889000D01*
X53627000Y-114889000D01*
X53583690Y-114671266D01*
X53498734Y-114466165D01*
X53375398Y-114281579D01*
X53218421Y-114124602D01*
X53033835Y-114001266D01*
X52828734Y-113916310D01*
X52611000Y-113873000D01*
X52389000Y-113873000D01*
X52171266Y-113916310D01*
X51966165Y-114001266D01*
X51781579Y-114124602D01*
X51624602Y-114281579D01*
X51501266Y-114466165D01*
X51416310Y-114671266D01*
X51373000Y-114889000D01*
X48678582Y-114889000D01*
X48678582Y-114150000D01*
X48672268Y-114085897D01*
X48653570Y-114024257D01*
X48623206Y-113967450D01*
X48582343Y-113917657D01*
X48532550Y-113876794D01*
X48475743Y-113846430D01*
X48414103Y-113827732D01*
X48350000Y-113821418D01*
X46650000Y-113821418D01*
X46585897Y-113827732D01*
X46524257Y-113846430D01*
X46467450Y-113876794D01*
X46417657Y-113917657D01*
X46376794Y-113967450D01*
X46346430Y-114024257D01*
X46327732Y-114085897D01*
X46321418Y-114150000D01*
X41352000Y-114150000D01*
X41352000Y-108889000D01*
X46873000Y-108889000D01*
X46873000Y-109111000D01*
X46916310Y-109328734D01*
X47001266Y-109533835D01*
X47124602Y-109718421D01*
X47281579Y-109875398D01*
X47466165Y-109998734D01*
X47671266Y-110083690D01*
X47889000Y-110127000D01*
X48111000Y-110127000D01*
X48328734Y-110083690D01*
X48533835Y-109998734D01*
X48718421Y-109875398D01*
X48875398Y-109718421D01*
X48998734Y-109533835D01*
X49083690Y-109328734D01*
X49127000Y-109111000D01*
X49127000Y-108889000D01*
X49083690Y-108671266D01*
X48998734Y-108466165D01*
X48875398Y-108281579D01*
X48718421Y-108124602D01*
X48533835Y-108001266D01*
X48328734Y-107916310D01*
X48111000Y-107873000D01*
X47889000Y-107873000D01*
X47671266Y-107916310D01*
X47466165Y-108001266D01*
X47281579Y-108124602D01*
X47124602Y-108281579D01*
X47001266Y-108466165D01*
X46916310Y-108671266D01*
X46873000Y-108889000D01*
X41352000Y-108889000D01*
X41352000Y-101805660D01*
X45598000Y-101805660D01*
X45598000Y-102244340D01*
X45683582Y-102674592D01*
X45851458Y-103079880D01*
X46095176Y-103444630D01*
X46405370Y-103754824D01*
X46770120Y-103998542D01*
X47175408Y-104166418D01*
X47605660Y-104252000D01*
X48044340Y-104252000D01*
X48474592Y-104166418D01*
X48879880Y-103998542D01*
X49244630Y-103754824D01*
X49554824Y-103444630D01*
X49798542Y-103079880D01*
X49966418Y-102674592D01*
X50052000Y-102244340D01*
X50052000Y-101805660D01*
X49966418Y-101375408D01*
X49798542Y-100970120D01*
X49554824Y-100605370D01*
X49244630Y-100295176D01*
X48879880Y-100051458D01*
X48474592Y-99883582D01*
X48044340Y-99798000D01*
X47605660Y-99798000D01*
X47175408Y-99883582D01*
X46770120Y-100051458D01*
X46405370Y-100295176D01*
X46095176Y-100605370D01*
X45851458Y-100970120D01*
X45683582Y-101375408D01*
X45598000Y-101805660D01*
X41352000Y-101805660D01*
X41352000Y-96455660D01*
X45598000Y-96455660D01*
X45598000Y-96894340D01*
X45683582Y-97324592D01*
X45851458Y-97729880D01*
X46095176Y-98094630D01*
X46405370Y-98404824D01*
X46770120Y-98648542D01*
X47175408Y-98816418D01*
X47605660Y-98902000D01*
X48044340Y-98902000D01*
X48474592Y-98816418D01*
X48879880Y-98648542D01*
X49068585Y-98522453D01*
X55708201Y-105162070D01*
X55708200Y-106009422D01*
X55706134Y-106030400D01*
X55708201Y-106051388D01*
X55708200Y-107873000D01*
X55509000Y-107873000D01*
X55291266Y-107916310D01*
X55086165Y-108001266D01*
X54901579Y-108124602D01*
X54744602Y-108281579D01*
X54621266Y-108466165D01*
X54536310Y-108671266D01*
X54493000Y-108889000D01*
X54493000Y-109111000D01*
X54536310Y-109328734D01*
X54621266Y-109533835D01*
X54744602Y-109718421D01*
X54901579Y-109875398D01*
X55086165Y-109998734D01*
X55291266Y-110083690D01*
X55509000Y-110127000D01*
X55731000Y-110127000D01*
X55948734Y-110083690D01*
X56153835Y-109998734D01*
X56338421Y-109875398D01*
X56495398Y-109718421D01*
X56618734Y-109533835D01*
X56703690Y-109328734D01*
X56747000Y-109111000D01*
X56747000Y-108889000D01*
X56703690Y-108671266D01*
X56618734Y-108466165D01*
X56562200Y-108381556D01*
X56562200Y-107989302D01*
X69473000Y-107989302D01*
X69473000Y-108250698D01*
X69523996Y-108507072D01*
X69624028Y-108748570D01*
X69769252Y-108965913D01*
X69954087Y-109150748D01*
X70171430Y-109295972D01*
X70412928Y-109396004D01*
X70669302Y-109447000D01*
X70930698Y-109447000D01*
X71187072Y-109396004D01*
X71428570Y-109295972D01*
X71645913Y-109150748D01*
X71830748Y-108965913D01*
X71975972Y-108748570D01*
X72076004Y-108507072D01*
X72127000Y-108250698D01*
X72127000Y-107989302D01*
X82173000Y-107989302D01*
X82173000Y-108250698D01*
X82223996Y-108507072D01*
X82324028Y-108748570D01*
X82469252Y-108965913D01*
X82654087Y-109150748D01*
X82871430Y-109295972D01*
X83112928Y-109396004D01*
X83369302Y-109447000D01*
X83630698Y-109447000D01*
X83887072Y-109396004D01*
X84128570Y-109295972D01*
X84345913Y-109150748D01*
X84530748Y-108965913D01*
X84675972Y-108748570D01*
X84776004Y-108507072D01*
X84827000Y-108250698D01*
X84827000Y-107989302D01*
X84776004Y-107732928D01*
X84675972Y-107491430D01*
X84530748Y-107274087D01*
X84345913Y-107089252D01*
X84128570Y-106944028D01*
X83887072Y-106843996D01*
X83630698Y-106793000D01*
X83369302Y-106793000D01*
X83112928Y-106843996D01*
X82871430Y-106944028D01*
X82654087Y-107089252D01*
X82469252Y-107274087D01*
X82324028Y-107491430D01*
X82223996Y-107732928D01*
X82173000Y-107989302D01*
X72127000Y-107989302D01*
X72076004Y-107732928D01*
X71975972Y-107491430D01*
X71830748Y-107274087D01*
X71645913Y-107089252D01*
X71428570Y-106944028D01*
X71187072Y-106843996D01*
X70930698Y-106793000D01*
X70669302Y-106793000D01*
X70412928Y-106843996D01*
X70171430Y-106944028D01*
X69954087Y-107089252D01*
X69769252Y-107274087D01*
X69624028Y-107491430D01*
X69523996Y-107732928D01*
X69473000Y-107989302D01*
X56562200Y-107989302D01*
X56562200Y-106457400D01*
X61393433Y-106457400D01*
X61414400Y-106459465D01*
X61435367Y-106457400D01*
X61435378Y-106457400D01*
X61498107Y-106451222D01*
X61578596Y-106426805D01*
X61652776Y-106387155D01*
X61717795Y-106333795D01*
X61731168Y-106317500D01*
X63848668Y-104200000D01*
X64371418Y-104200000D01*
X64371418Y-105800000D01*
X64377732Y-105864103D01*
X64396430Y-105925743D01*
X64426794Y-105982550D01*
X64467657Y-106032343D01*
X64517450Y-106073206D01*
X64574257Y-106103570D01*
X64635897Y-106122268D01*
X64700000Y-106128582D01*
X66300000Y-106128582D01*
X66364103Y-106122268D01*
X66425743Y-106103570D01*
X66482550Y-106073206D01*
X66532343Y-106032343D01*
X66573206Y-105982550D01*
X66603570Y-105925743D01*
X66622268Y-105864103D01*
X66628582Y-105800000D01*
X66628582Y-104509000D01*
X87873000Y-104509000D01*
X87873000Y-104731000D01*
X87916310Y-104948734D01*
X88001266Y-105153835D01*
X88124602Y-105338421D01*
X88281579Y-105495398D01*
X88466165Y-105618734D01*
X88671266Y-105703690D01*
X88889000Y-105747000D01*
X89111000Y-105747000D01*
X89328734Y-105703690D01*
X89435569Y-105659437D01*
X97188927Y-113412797D01*
X97171266Y-113416310D01*
X96966165Y-113501266D01*
X96781579Y-113624602D01*
X96624602Y-113781579D01*
X96501266Y-113966165D01*
X96416310Y-114171266D01*
X96373000Y-114389000D01*
X96373000Y-114611000D01*
X96416310Y-114828734D01*
X96501266Y-115033835D01*
X96624602Y-115218421D01*
X96781579Y-115375398D01*
X96966165Y-115498734D01*
X97171266Y-115583690D01*
X97389000Y-115627000D01*
X97611000Y-115627000D01*
X97828734Y-115583690D01*
X98033835Y-115498734D01*
X98218421Y-115375398D01*
X98375398Y-115218421D01*
X98498734Y-115033835D01*
X98583690Y-114828734D01*
X98627000Y-114611000D01*
X98627000Y-114389000D01*
X98583690Y-114171266D01*
X98498734Y-113966165D01*
X98419111Y-113847000D01*
X100565253Y-113847000D01*
X100589885Y-113906467D01*
X100702277Y-114074674D01*
X100845326Y-114217723D01*
X101013533Y-114330115D01*
X101200435Y-114407533D01*
X101398849Y-114447000D01*
X101601151Y-114447000D01*
X101799565Y-114407533D01*
X101986467Y-114330115D01*
X102154674Y-114217723D01*
X102297723Y-114074674D01*
X102410115Y-113906467D01*
X102487533Y-113719565D01*
X102527000Y-113521151D01*
X102527000Y-113318849D01*
X102487533Y-113120435D01*
X102410115Y-112933533D01*
X102297723Y-112765326D01*
X102154674Y-112622277D01*
X101986467Y-112509885D01*
X101799565Y-112432467D01*
X101601151Y-112393000D01*
X101398849Y-112393000D01*
X101200435Y-112432467D01*
X101013533Y-112509885D01*
X100845326Y-112622277D01*
X100702277Y-112765326D01*
X100589885Y-112933533D01*
X100565253Y-112993000D01*
X97976870Y-112993000D01*
X91764529Y-106780660D01*
X99273000Y-106780660D01*
X99273000Y-107219340D01*
X99358582Y-107649592D01*
X99526458Y-108054880D01*
X99770176Y-108419630D01*
X100080370Y-108729824D01*
X100445120Y-108973542D01*
X100850408Y-109141418D01*
X101280660Y-109227000D01*
X101719340Y-109227000D01*
X102149592Y-109141418D01*
X102554880Y-108973542D01*
X102919630Y-108729824D01*
X103229824Y-108419630D01*
X103473542Y-108054880D01*
X103641418Y-107649592D01*
X103727000Y-107219340D01*
X103727000Y-106780660D01*
X103641418Y-106350408D01*
X103473542Y-105945120D01*
X103229824Y-105580370D01*
X102919630Y-105270176D01*
X102554880Y-105026458D01*
X102149592Y-104858582D01*
X101719340Y-104773000D01*
X101280660Y-104773000D01*
X100850408Y-104858582D01*
X100445120Y-105026458D01*
X100080370Y-105270176D01*
X99770176Y-105580370D01*
X99526458Y-105945120D01*
X99358582Y-106350408D01*
X99273000Y-106780660D01*
X91764529Y-106780660D01*
X90039437Y-105055569D01*
X90083690Y-104948734D01*
X90127000Y-104731000D01*
X90127000Y-104509000D01*
X90083690Y-104291266D01*
X89998734Y-104086165D01*
X89875398Y-103901579D01*
X89718421Y-103744602D01*
X89533835Y-103621266D01*
X89328734Y-103536310D01*
X89111000Y-103493000D01*
X88889000Y-103493000D01*
X88671266Y-103536310D01*
X88466165Y-103621266D01*
X88281579Y-103744602D01*
X88124602Y-103901579D01*
X88001266Y-104086165D01*
X87916310Y-104291266D01*
X87873000Y-104509000D01*
X66628582Y-104509000D01*
X66628582Y-104200000D01*
X66622268Y-104135897D01*
X66603570Y-104074257D01*
X66573206Y-104017450D01*
X66532343Y-103967657D01*
X66482550Y-103926794D01*
X66425743Y-103896430D01*
X66364103Y-103877732D01*
X66300000Y-103871418D01*
X64700000Y-103871418D01*
X64635897Y-103877732D01*
X64574257Y-103896430D01*
X64517450Y-103926794D01*
X64467657Y-103967657D01*
X64426794Y-104017450D01*
X64396430Y-104074257D01*
X64377732Y-104135897D01*
X64371418Y-104200000D01*
X63848668Y-104200000D01*
X64747425Y-103301244D01*
X64781579Y-103335398D01*
X64966165Y-103458734D01*
X65171266Y-103543690D01*
X65389000Y-103587000D01*
X65611000Y-103587000D01*
X65828734Y-103543690D01*
X66033835Y-103458734D01*
X66218421Y-103335398D01*
X66375398Y-103178421D01*
X66498734Y-102993835D01*
X66583690Y-102788734D01*
X66627000Y-102571000D01*
X66627000Y-102349000D01*
X66583690Y-102131266D01*
X66498734Y-101926165D01*
X66375398Y-101741579D01*
X66218421Y-101584602D01*
X66056894Y-101476674D01*
X66824906Y-100708663D01*
X66841195Y-100695295D01*
X66854564Y-100679005D01*
X66854568Y-100679001D01*
X66894555Y-100630277D01*
X66934204Y-100556097D01*
X66934205Y-100556096D01*
X66958622Y-100475607D01*
X66964800Y-100412878D01*
X66964800Y-100412867D01*
X66966865Y-100391900D01*
X66964800Y-100370933D01*
X66964800Y-100369302D01*
X69473000Y-100369302D01*
X69473000Y-100630698D01*
X69523996Y-100887072D01*
X69624028Y-101128570D01*
X69769252Y-101345913D01*
X69954087Y-101530748D01*
X70171430Y-101675972D01*
X70412928Y-101776004D01*
X70669302Y-101827000D01*
X70930698Y-101827000D01*
X71187072Y-101776004D01*
X71428570Y-101675972D01*
X71645913Y-101530748D01*
X71830748Y-101345913D01*
X71975972Y-101128570D01*
X72076004Y-100887072D01*
X72127000Y-100630698D01*
X72127000Y-100369302D01*
X82173000Y-100369302D01*
X82173000Y-100630698D01*
X82223996Y-100887072D01*
X82324028Y-101128570D01*
X82469252Y-101345913D01*
X82654087Y-101530748D01*
X82871430Y-101675972D01*
X83112928Y-101776004D01*
X83369302Y-101827000D01*
X83630698Y-101827000D01*
X83887072Y-101776004D01*
X84128570Y-101675972D01*
X84345913Y-101530748D01*
X84530748Y-101345913D01*
X84675972Y-101128570D01*
X84776004Y-100887072D01*
X84798229Y-100775339D01*
X88016674Y-97556895D01*
X88124602Y-97718421D01*
X88281579Y-97875398D01*
X88466165Y-97998734D01*
X88671266Y-98083690D01*
X88889000Y-98127000D01*
X89111000Y-98127000D01*
X89328734Y-98083690D01*
X89533835Y-97998734D01*
X89718421Y-97875398D01*
X89875398Y-97718421D01*
X89998734Y-97533835D01*
X90083690Y-97328734D01*
X90127000Y-97111000D01*
X90127000Y-96889000D01*
X90083690Y-96671266D01*
X89998734Y-96466165D01*
X89875398Y-96281579D01*
X89718421Y-96124602D01*
X89533835Y-96001266D01*
X89328734Y-95916310D01*
X89111000Y-95873000D01*
X88889000Y-95873000D01*
X88671266Y-95916310D01*
X88466165Y-96001266D01*
X88281579Y-96124602D01*
X88124602Y-96281579D01*
X88001266Y-96466165D01*
X87957365Y-96572151D01*
X87948742Y-96573000D01*
X87948722Y-96573000D01*
X87885993Y-96579178D01*
X87805504Y-96603595D01*
X87770973Y-96622052D01*
X87731323Y-96643245D01*
X87682598Y-96683233D01*
X87682595Y-96683236D01*
X87666305Y-96696605D01*
X87652936Y-96712895D01*
X84603245Y-99762587D01*
X84530748Y-99654087D01*
X84345913Y-99469252D01*
X84128570Y-99324028D01*
X83887072Y-99223996D01*
X83630698Y-99173000D01*
X83369302Y-99173000D01*
X83112928Y-99223996D01*
X82871430Y-99324028D01*
X82654087Y-99469252D01*
X82469252Y-99654087D01*
X82324028Y-99871430D01*
X82223996Y-100112928D01*
X82173000Y-100369302D01*
X72127000Y-100369302D01*
X72076004Y-100112928D01*
X71975972Y-99871430D01*
X71830748Y-99654087D01*
X71645913Y-99469252D01*
X71428570Y-99324028D01*
X71187072Y-99223996D01*
X70930698Y-99173000D01*
X70669302Y-99173000D01*
X70412928Y-99223996D01*
X70171430Y-99324028D01*
X69954087Y-99469252D01*
X69769252Y-99654087D01*
X69624028Y-99871430D01*
X69523996Y-100112928D01*
X69473000Y-100369302D01*
X66964800Y-100369302D01*
X66964800Y-99469067D01*
X66966865Y-99448100D01*
X66964800Y-99427133D01*
X66964800Y-99427122D01*
X66958622Y-99364393D01*
X66934205Y-99283904D01*
X66902184Y-99223996D01*
X66894555Y-99209723D01*
X66854568Y-99160999D01*
X66854564Y-99160995D01*
X66841195Y-99144705D01*
X66824905Y-99131336D01*
X66056894Y-98363326D01*
X66218421Y-98255398D01*
X66375398Y-98098421D01*
X66498734Y-97913835D01*
X66583690Y-97708734D01*
X66627000Y-97491000D01*
X66627000Y-97269000D01*
X66583690Y-97051266D01*
X66498734Y-96846165D01*
X66375398Y-96661579D01*
X66218421Y-96504602D01*
X66033835Y-96381266D01*
X65828734Y-96296310D01*
X65611000Y-96253000D01*
X65389000Y-96253000D01*
X65171266Y-96296310D01*
X64966165Y-96381266D01*
X64781579Y-96504602D01*
X64624602Y-96661579D01*
X64501266Y-96846165D01*
X64416310Y-97051266D01*
X64373000Y-97269000D01*
X64373000Y-97491000D01*
X64416310Y-97708734D01*
X64501266Y-97913835D01*
X64624602Y-98098421D01*
X64781579Y-98255398D01*
X64966165Y-98378734D01*
X65072150Y-98422635D01*
X65079179Y-98494006D01*
X65103596Y-98574496D01*
X65143245Y-98648676D01*
X65183232Y-98697400D01*
X65183237Y-98697405D01*
X65196606Y-98713695D01*
X65212895Y-98727063D01*
X65297110Y-98811278D01*
X65171266Y-98836310D01*
X64966165Y-98921266D01*
X64781579Y-99044602D01*
X64624602Y-99201579D01*
X64501266Y-99386165D01*
X64416310Y-99591266D01*
X64373000Y-99809000D01*
X64373000Y-100031000D01*
X64416310Y-100248734D01*
X64501266Y-100453835D01*
X64624602Y-100638421D01*
X64781579Y-100795398D01*
X64966165Y-100918734D01*
X65171266Y-101003690D01*
X65297110Y-101028722D01*
X65212895Y-101112937D01*
X65196606Y-101126305D01*
X65183237Y-101142595D01*
X65183232Y-101142600D01*
X65143245Y-101191324D01*
X65122667Y-101229824D01*
X65103596Y-101265504D01*
X65079204Y-101345913D01*
X65079179Y-101345994D01*
X65072150Y-101417365D01*
X64966165Y-101461266D01*
X64781579Y-101584602D01*
X64624602Y-101741579D01*
X64501266Y-101926165D01*
X64416310Y-102131266D01*
X64373000Y-102349000D01*
X64373000Y-102467931D01*
X61237532Y-105603400D01*
X58832252Y-105603400D01*
X58878734Y-105533835D01*
X58963690Y-105328734D01*
X59007000Y-105111000D01*
X59007000Y-104889000D01*
X58963690Y-104671266D01*
X58878734Y-104466165D01*
X58755398Y-104281579D01*
X58598421Y-104124602D01*
X58413835Y-104001266D01*
X58208734Y-103916310D01*
X57991000Y-103873000D01*
X57769000Y-103873000D01*
X57551266Y-103916310D01*
X57346165Y-104001266D01*
X57161579Y-104124602D01*
X57004602Y-104281579D01*
X56881266Y-104466165D01*
X56796310Y-104671266D01*
X56753000Y-104889000D01*
X56753000Y-105111000D01*
X56796310Y-105328734D01*
X56881266Y-105533835D01*
X56927748Y-105603400D01*
X56562200Y-105603400D01*
X56562200Y-105006167D01*
X56564265Y-104985200D01*
X56562200Y-104964233D01*
X56562200Y-104964222D01*
X56556022Y-104901493D01*
X56531605Y-104821004D01*
X56531605Y-104821003D01*
X56491956Y-104746824D01*
X56451968Y-104698099D01*
X56451964Y-104698095D01*
X56438595Y-104681805D01*
X56422305Y-104668436D01*
X54102869Y-102349000D01*
X56753000Y-102349000D01*
X56753000Y-102571000D01*
X56796310Y-102788734D01*
X56881266Y-102993835D01*
X57004602Y-103178421D01*
X57161579Y-103335398D01*
X57346165Y-103458734D01*
X57551266Y-103543690D01*
X57769000Y-103587000D01*
X57991000Y-103587000D01*
X58208734Y-103543690D01*
X58413835Y-103458734D01*
X58598421Y-103335398D01*
X58755398Y-103178421D01*
X58878734Y-102993835D01*
X58963690Y-102788734D01*
X59007000Y-102571000D01*
X59007000Y-102349000D01*
X58963690Y-102131266D01*
X58878734Y-101926165D01*
X58755398Y-101741579D01*
X58598421Y-101584602D01*
X58413835Y-101461266D01*
X58208734Y-101376310D01*
X57991000Y-101333000D01*
X57769000Y-101333000D01*
X57551266Y-101376310D01*
X57346165Y-101461266D01*
X57161579Y-101584602D01*
X57004602Y-101741579D01*
X56881266Y-101926165D01*
X56796310Y-102131266D01*
X56753000Y-102349000D01*
X54102869Y-102349000D01*
X51562869Y-99809000D01*
X56753000Y-99809000D01*
X56753000Y-100031000D01*
X56796310Y-100248734D01*
X56881266Y-100453835D01*
X57004602Y-100638421D01*
X57161579Y-100795398D01*
X57346165Y-100918734D01*
X57551266Y-101003690D01*
X57769000Y-101047000D01*
X57991000Y-101047000D01*
X58208734Y-101003690D01*
X58413835Y-100918734D01*
X58598421Y-100795398D01*
X58755398Y-100638421D01*
X58878734Y-100453835D01*
X58963690Y-100248734D01*
X59007000Y-100031000D01*
X59007000Y-99809000D01*
X58963690Y-99591266D01*
X58878734Y-99386165D01*
X58755398Y-99201579D01*
X58598421Y-99044602D01*
X58413835Y-98921266D01*
X58208734Y-98836310D01*
X57991000Y-98793000D01*
X57769000Y-98793000D01*
X57551266Y-98836310D01*
X57346165Y-98921266D01*
X57161579Y-99044602D01*
X57004602Y-99201579D01*
X56881266Y-99386165D01*
X56796310Y-99591266D01*
X56753000Y-99809000D01*
X51562869Y-99809000D01*
X49672453Y-97918585D01*
X49798542Y-97729880D01*
X49966418Y-97324592D01*
X50052000Y-96894340D01*
X50052000Y-96455660D01*
X49966418Y-96025408D01*
X49909916Y-95889000D01*
X50873000Y-95889000D01*
X50873000Y-96111000D01*
X50916310Y-96328734D01*
X51001266Y-96533835D01*
X51124602Y-96718421D01*
X51281579Y-96875398D01*
X51466165Y-96998734D01*
X51671266Y-97083690D01*
X51889000Y-97127000D01*
X52111000Y-97127000D01*
X52328734Y-97083690D01*
X52533835Y-96998734D01*
X52718421Y-96875398D01*
X52875398Y-96718421D01*
X52998734Y-96533835D01*
X53083690Y-96328734D01*
X53127000Y-96111000D01*
X53127000Y-95889000D01*
X53373000Y-95889000D01*
X53373000Y-96111000D01*
X53416310Y-96328734D01*
X53501266Y-96533835D01*
X53624602Y-96718421D01*
X53781579Y-96875398D01*
X53966165Y-96998734D01*
X54171266Y-97083690D01*
X54389000Y-97127000D01*
X54611000Y-97127000D01*
X54828734Y-97083690D01*
X55033835Y-96998734D01*
X55218421Y-96875398D01*
X55375398Y-96718421D01*
X55459053Y-96593222D01*
X56532936Y-97667105D01*
X56546305Y-97683395D01*
X56562595Y-97696764D01*
X56562599Y-97696768D01*
X56611323Y-97736756D01*
X56668238Y-97767176D01*
X56685504Y-97776405D01*
X56765993Y-97800822D01*
X56828722Y-97807000D01*
X56828733Y-97807000D01*
X56837365Y-97807850D01*
X56881266Y-97913835D01*
X57004602Y-98098421D01*
X57161579Y-98255398D01*
X57346165Y-98378734D01*
X57551266Y-98463690D01*
X57769000Y-98507000D01*
X57991000Y-98507000D01*
X58208734Y-98463690D01*
X58413835Y-98378734D01*
X58598421Y-98255398D01*
X58755398Y-98098421D01*
X58878734Y-97913835D01*
X58963690Y-97708734D01*
X59007000Y-97491000D01*
X59007000Y-97269000D01*
X58963690Y-97051266D01*
X58878734Y-96846165D01*
X58755398Y-96661579D01*
X58598421Y-96504602D01*
X58413835Y-96381266D01*
X58208734Y-96296310D01*
X57991000Y-96253000D01*
X57769000Y-96253000D01*
X57551266Y-96296310D01*
X57346165Y-96381266D01*
X57161579Y-96504602D01*
X57004602Y-96661579D01*
X56896674Y-96823105D01*
X55786468Y-95712900D01*
X55773095Y-95696605D01*
X55708076Y-95643245D01*
X55633896Y-95603595D01*
X55553407Y-95579178D01*
X55545211Y-95578371D01*
X55498734Y-95466165D01*
X55375398Y-95281579D01*
X55218421Y-95124602D01*
X55033835Y-95001266D01*
X54828734Y-94916310D01*
X54611000Y-94873000D01*
X54389000Y-94873000D01*
X54171266Y-94916310D01*
X53966165Y-95001266D01*
X53781579Y-95124602D01*
X53624602Y-95281579D01*
X53501266Y-95466165D01*
X53416310Y-95671266D01*
X53373000Y-95889000D01*
X53127000Y-95889000D01*
X53083690Y-95671266D01*
X52998734Y-95466165D01*
X52875398Y-95281579D01*
X52718421Y-95124602D01*
X52533835Y-95001266D01*
X52328734Y-94916310D01*
X52111000Y-94873000D01*
X51889000Y-94873000D01*
X51671266Y-94916310D01*
X51466165Y-95001266D01*
X51281579Y-95124602D01*
X51124602Y-95281579D01*
X51001266Y-95466165D01*
X50916310Y-95671266D01*
X50873000Y-95889000D01*
X49909916Y-95889000D01*
X49798542Y-95620120D01*
X49554824Y-95255370D01*
X49244630Y-94945176D01*
X48879880Y-94701458D01*
X48474592Y-94533582D01*
X48044340Y-94448000D01*
X47605660Y-94448000D01*
X47175408Y-94533582D01*
X46770120Y-94701458D01*
X46405370Y-94945176D01*
X46095176Y-95255370D01*
X45851458Y-95620120D01*
X45683582Y-96025408D01*
X45598000Y-96455660D01*
X41352000Y-96455660D01*
X41352000Y-90889000D01*
X50873000Y-90889000D01*
X50873000Y-91111000D01*
X50916310Y-91328734D01*
X51001266Y-91533835D01*
X51124602Y-91718421D01*
X51281579Y-91875398D01*
X51466165Y-91998734D01*
X51671266Y-92083690D01*
X51889000Y-92127000D01*
X52111000Y-92127000D01*
X52328734Y-92083690D01*
X52533835Y-91998734D01*
X52718421Y-91875398D01*
X52875398Y-91718421D01*
X52998734Y-91533835D01*
X53083690Y-91328734D01*
X53127000Y-91111000D01*
X53127000Y-90889000D01*
X53373000Y-90889000D01*
X53373000Y-91111000D01*
X53416310Y-91328734D01*
X53501266Y-91533835D01*
X53624602Y-91718421D01*
X53781579Y-91875398D01*
X53966165Y-91998734D01*
X54171266Y-92083690D01*
X54389000Y-92127000D01*
X54611000Y-92127000D01*
X54828734Y-92083690D01*
X55033835Y-91998734D01*
X55218421Y-91875398D01*
X55375398Y-91718421D01*
X55498734Y-91533835D01*
X55583690Y-91328734D01*
X55627000Y-91111000D01*
X55627000Y-90889000D01*
X55583690Y-90671266D01*
X55498734Y-90466165D01*
X55375398Y-90281579D01*
X55243819Y-90150000D01*
X57821418Y-90150000D01*
X57821418Y-91850000D01*
X57827732Y-91914103D01*
X57846430Y-91975743D01*
X57876794Y-92032550D01*
X57917657Y-92082343D01*
X57967450Y-92123206D01*
X58024257Y-92153570D01*
X58085897Y-92172268D01*
X58150000Y-92178582D01*
X59850000Y-92178582D01*
X59914103Y-92172268D01*
X59975743Y-92153570D01*
X60032550Y-92123206D01*
X60082343Y-92082343D01*
X60123206Y-92032550D01*
X60153570Y-91975743D01*
X60172268Y-91914103D01*
X60178582Y-91850000D01*
X60178582Y-91837150D01*
X61508536Y-93167105D01*
X61521905Y-93183395D01*
X61538195Y-93196764D01*
X61538199Y-93196768D01*
X61586923Y-93236756D01*
X61661103Y-93276405D01*
X61679837Y-93282088D01*
X61741593Y-93300822D01*
X61804322Y-93307000D01*
X61804333Y-93307000D01*
X61825300Y-93309065D01*
X61846267Y-93307000D01*
X69471418Y-93307000D01*
X69471418Y-93880000D01*
X69477732Y-93944103D01*
X69496430Y-94005743D01*
X69526794Y-94062550D01*
X69567657Y-94112343D01*
X69617450Y-94153206D01*
X69674257Y-94183570D01*
X69735897Y-94202268D01*
X69800000Y-94208582D01*
X71800000Y-94208582D01*
X71864103Y-94202268D01*
X71925743Y-94183570D01*
X71982550Y-94153206D01*
X72032343Y-94112343D01*
X72073206Y-94062550D01*
X72103570Y-94005743D01*
X72122268Y-93944103D01*
X72128582Y-93880000D01*
X72128582Y-92749302D01*
X82173000Y-92749302D01*
X82173000Y-93010698D01*
X82223996Y-93267072D01*
X82324028Y-93508570D01*
X82469252Y-93725913D01*
X82654087Y-93910748D01*
X82871430Y-94055972D01*
X83112928Y-94156004D01*
X83369302Y-94207000D01*
X83630698Y-94207000D01*
X83887072Y-94156004D01*
X84128570Y-94055972D01*
X84345913Y-93910748D01*
X84530748Y-93725913D01*
X84675972Y-93508570D01*
X84759465Y-93307000D01*
X94703132Y-93307000D01*
X99652546Y-98256415D01*
X99526458Y-98445120D01*
X99358582Y-98850408D01*
X99273000Y-99280660D01*
X99273000Y-99719340D01*
X99358582Y-100149592D01*
X99526458Y-100554880D01*
X99770176Y-100919630D01*
X100080370Y-101229824D01*
X100445120Y-101473542D01*
X100850408Y-101641418D01*
X101280660Y-101727000D01*
X101719340Y-101727000D01*
X102149592Y-101641418D01*
X102554880Y-101473542D01*
X102919630Y-101229824D01*
X103229824Y-100919630D01*
X103473542Y-100554880D01*
X103641418Y-100149592D01*
X103727000Y-99719340D01*
X103727000Y-99280660D01*
X103641418Y-98850408D01*
X103473542Y-98445120D01*
X103229824Y-98080370D01*
X102919630Y-97770176D01*
X102554880Y-97526458D01*
X102149592Y-97358582D01*
X101719340Y-97273000D01*
X101280660Y-97273000D01*
X100850408Y-97358582D01*
X100445120Y-97526458D01*
X100256415Y-97652546D01*
X95196767Y-92592899D01*
X95183395Y-92576605D01*
X95118376Y-92523245D01*
X95044196Y-92483595D01*
X94963707Y-92459178D01*
X94900978Y-92453000D01*
X94900967Y-92453000D01*
X94880000Y-92450935D01*
X94859033Y-92453000D01*
X84759465Y-92453000D01*
X84675972Y-92251430D01*
X84530748Y-92034087D01*
X84345913Y-91849252D01*
X84128570Y-91704028D01*
X83887072Y-91603996D01*
X83630698Y-91553000D01*
X83369302Y-91553000D01*
X83112928Y-91603996D01*
X82871430Y-91704028D01*
X82654087Y-91849252D01*
X82469252Y-92034087D01*
X82324028Y-92251430D01*
X82223996Y-92492928D01*
X82173000Y-92749302D01*
X72128582Y-92749302D01*
X72128582Y-91880000D01*
X72122268Y-91815897D01*
X72103570Y-91754257D01*
X72073206Y-91697450D01*
X72032343Y-91647657D01*
X71982550Y-91606794D01*
X71925743Y-91576430D01*
X71864103Y-91557732D01*
X71800000Y-91551418D01*
X69800000Y-91551418D01*
X69735897Y-91557732D01*
X69674257Y-91576430D01*
X69617450Y-91606794D01*
X69567657Y-91647657D01*
X69526794Y-91697450D01*
X69496430Y-91754257D01*
X69477732Y-91815897D01*
X69471418Y-91880000D01*
X69471418Y-92453000D01*
X62002169Y-92453000D01*
X61714515Y-92165346D01*
X61883318Y-92131769D01*
X62097519Y-92043044D01*
X62290294Y-91914236D01*
X62454236Y-91750294D01*
X62583044Y-91557519D01*
X62671769Y-91343318D01*
X62717000Y-91115924D01*
X62717000Y-90884076D01*
X62903000Y-90884076D01*
X62903000Y-91115924D01*
X62948231Y-91343318D01*
X63036956Y-91557519D01*
X63165764Y-91750294D01*
X63329706Y-91914236D01*
X63522481Y-92043044D01*
X63736682Y-92131769D01*
X63964076Y-92177000D01*
X64195924Y-92177000D01*
X64423318Y-92131769D01*
X64637519Y-92043044D01*
X64830294Y-91914236D01*
X64994236Y-91750294D01*
X65123044Y-91557519D01*
X65211769Y-91343318D01*
X65224232Y-91280660D01*
X99273000Y-91280660D01*
X99273000Y-91719340D01*
X99358582Y-92149592D01*
X99526458Y-92554880D01*
X99770176Y-92919630D01*
X100080370Y-93229824D01*
X100445120Y-93473542D01*
X100850408Y-93641418D01*
X101280660Y-93727000D01*
X101719340Y-93727000D01*
X102149592Y-93641418D01*
X102554880Y-93473542D01*
X102919630Y-93229824D01*
X103229824Y-92919630D01*
X103473542Y-92554880D01*
X103641418Y-92149592D01*
X103727000Y-91719340D01*
X103727000Y-91280660D01*
X103641418Y-90850408D01*
X103473542Y-90445120D01*
X103229824Y-90080370D01*
X102919630Y-89770176D01*
X102554880Y-89526458D01*
X102149592Y-89358582D01*
X101719340Y-89273000D01*
X101280660Y-89273000D01*
X100850408Y-89358582D01*
X100445120Y-89526458D01*
X100080370Y-89770176D01*
X99770176Y-90080370D01*
X99526458Y-90445120D01*
X99358582Y-90850408D01*
X99273000Y-91280660D01*
X65224232Y-91280660D01*
X65257000Y-91115924D01*
X65257000Y-90884076D01*
X65211769Y-90656682D01*
X65123044Y-90442481D01*
X64994236Y-90249706D01*
X64830294Y-90085764D01*
X64637519Y-89956956D01*
X64423318Y-89868231D01*
X64195924Y-89823000D01*
X63964076Y-89823000D01*
X63736682Y-89868231D01*
X63522481Y-89956956D01*
X63329706Y-90085764D01*
X63165764Y-90249706D01*
X63036956Y-90442481D01*
X62948231Y-90656682D01*
X62903000Y-90884076D01*
X62717000Y-90884076D01*
X62671769Y-90656682D01*
X62583044Y-90442481D01*
X62454236Y-90249706D01*
X62290294Y-90085764D01*
X62097519Y-89956956D01*
X61883318Y-89868231D01*
X61655924Y-89823000D01*
X61424076Y-89823000D01*
X61196682Y-89868231D01*
X60982481Y-89956956D01*
X60789706Y-90085764D01*
X60625764Y-90249706D01*
X60496956Y-90442481D01*
X60408231Y-90656682D01*
X60397052Y-90712881D01*
X60383695Y-90696605D01*
X60318676Y-90643245D01*
X60244496Y-90603595D01*
X60178582Y-90583599D01*
X60178582Y-90150000D01*
X60172268Y-90085897D01*
X60153570Y-90024257D01*
X60123206Y-89967450D01*
X60082343Y-89917657D01*
X60032550Y-89876794D01*
X59975743Y-89846430D01*
X59914103Y-89827732D01*
X59850000Y-89821418D01*
X58150000Y-89821418D01*
X58085897Y-89827732D01*
X58024257Y-89846430D01*
X57967450Y-89876794D01*
X57917657Y-89917657D01*
X57876794Y-89967450D01*
X57846430Y-90024257D01*
X57827732Y-90085897D01*
X57821418Y-90150000D01*
X55243819Y-90150000D01*
X55218421Y-90124602D01*
X55033835Y-90001266D01*
X54828734Y-89916310D01*
X54611000Y-89873000D01*
X54389000Y-89873000D01*
X54171266Y-89916310D01*
X53966165Y-90001266D01*
X53781579Y-90124602D01*
X53624602Y-90281579D01*
X53501266Y-90466165D01*
X53416310Y-90671266D01*
X53373000Y-90889000D01*
X53127000Y-90889000D01*
X53083690Y-90671266D01*
X52998734Y-90466165D01*
X52875398Y-90281579D01*
X52718421Y-90124602D01*
X52533835Y-90001266D01*
X52328734Y-89916310D01*
X52111000Y-89873000D01*
X51889000Y-89873000D01*
X51671266Y-89916310D01*
X51466165Y-90001266D01*
X51281579Y-90124602D01*
X51124602Y-90281579D01*
X51001266Y-90466165D01*
X50916310Y-90671266D01*
X50873000Y-90889000D01*
X41352000Y-90889000D01*
X41352000Y-85352000D01*
X110648000Y-85352000D01*
X110648001Y-139148000D01*
%TA.AperFunction,Conductor*%
D32*
G36*
X110648001Y-139148000D02*
G01*
X41352000Y-139148000D01*
X41352000Y-135398849D01*
X81353000Y-135398849D01*
X81353000Y-135601151D01*
X81392467Y-135799565D01*
X81469885Y-135986467D01*
X81582277Y-136154674D01*
X81725326Y-136297723D01*
X81893533Y-136410115D01*
X82080435Y-136487533D01*
X82278849Y-136527000D01*
X82481151Y-136527000D01*
X82679565Y-136487533D01*
X82866467Y-136410115D01*
X83034674Y-136297723D01*
X83177723Y-136154674D01*
X83290115Y-135986467D01*
X83367533Y-135799565D01*
X83407000Y-135601151D01*
X83407000Y-135398849D01*
X88973000Y-135398849D01*
X88973000Y-135601151D01*
X89012467Y-135799565D01*
X89089885Y-135986467D01*
X89202277Y-136154674D01*
X89345326Y-136297723D01*
X89513533Y-136410115D01*
X89700435Y-136487533D01*
X89898849Y-136527000D01*
X90101151Y-136527000D01*
X90299565Y-136487533D01*
X90486467Y-136410115D01*
X90654674Y-136297723D01*
X90797723Y-136154674D01*
X90910115Y-135986467D01*
X90934747Y-135927000D01*
X92348733Y-135927000D01*
X92369700Y-135929065D01*
X92390667Y-135927000D01*
X92390678Y-135927000D01*
X92453407Y-135920822D01*
X92533896Y-135896405D01*
X92608076Y-135856755D01*
X92673095Y-135803395D01*
X92686468Y-135787100D01*
X100271418Y-128202151D01*
X100271418Y-128400000D01*
X100277732Y-128464103D01*
X100296430Y-128525743D01*
X100326794Y-128582550D01*
X100367657Y-128632343D01*
X100417450Y-128673206D01*
X100474257Y-128703570D01*
X100535897Y-128722268D01*
X100600000Y-128728582D01*
X102400000Y-128728582D01*
X102464103Y-128722268D01*
X102525743Y-128703570D01*
X102582550Y-128673206D01*
X102632343Y-128632343D01*
X102673206Y-128582550D01*
X102703570Y-128525743D01*
X102722268Y-128464103D01*
X102728582Y-128400000D01*
X102728582Y-126600000D01*
X102722268Y-126535897D01*
X102703570Y-126474257D01*
X102673206Y-126417450D01*
X102632343Y-126367657D01*
X102582550Y-126326794D01*
X102525743Y-126296430D01*
X102464103Y-126277732D01*
X102400000Y-126271418D01*
X100600000Y-126271418D01*
X100535897Y-126277732D01*
X100474257Y-126296430D01*
X100417450Y-126326794D01*
X100367657Y-126367657D01*
X100326794Y-126417450D01*
X100296430Y-126474257D01*
X100277732Y-126535897D01*
X100271418Y-126600000D01*
X100271418Y-127083599D01*
X100205504Y-127103595D01*
X100170973Y-127122052D01*
X100131323Y-127143245D01*
X100082598Y-127183233D01*
X100082595Y-127183236D01*
X100066305Y-127196605D01*
X100052936Y-127212895D01*
X92192832Y-135073000D01*
X90934747Y-135073000D01*
X90910115Y-135013533D01*
X90797723Y-134845326D01*
X90654674Y-134702277D01*
X90486467Y-134589885D01*
X90299565Y-134512467D01*
X90101151Y-134473000D01*
X89898849Y-134473000D01*
X89700435Y-134512467D01*
X89513533Y-134589885D01*
X89345326Y-134702277D01*
X89202277Y-134845326D01*
X89089885Y-135013533D01*
X89012467Y-135200435D01*
X88973000Y-135398849D01*
X83407000Y-135398849D01*
X83367533Y-135200435D01*
X83290115Y-135013533D01*
X83177723Y-134845326D01*
X83034674Y-134702277D01*
X82866467Y-134589885D01*
X82679565Y-134512467D01*
X82481151Y-134473000D01*
X82278849Y-134473000D01*
X82080435Y-134512467D01*
X81893533Y-134589885D01*
X81725326Y-134702277D01*
X81582277Y-134845326D01*
X81469885Y-135013533D01*
X81392467Y-135200435D01*
X81353000Y-135398849D01*
X41352000Y-135398849D01*
X41352000Y-124056900D01*
X46165535Y-124056900D01*
X46167601Y-124077877D01*
X46167600Y-124867432D01*
X46165535Y-124888400D01*
X46167600Y-124909367D01*
X46167600Y-124909377D01*
X46173778Y-124972106D01*
X46198195Y-125052595D01*
X46198196Y-125052596D01*
X46237845Y-125126776D01*
X46274357Y-125171266D01*
X46291205Y-125191795D01*
X46307500Y-125205168D01*
X48359041Y-127256711D01*
X48372405Y-127272995D01*
X48388689Y-127286359D01*
X48388698Y-127286368D01*
X48437423Y-127326355D01*
X48456035Y-127336303D01*
X48511604Y-127366005D01*
X48592093Y-127390422D01*
X48654822Y-127396600D01*
X48654834Y-127396600D01*
X48675799Y-127398665D01*
X48696764Y-127396600D01*
X51547748Y-127396600D01*
X51501266Y-127466165D01*
X51416310Y-127671266D01*
X51373000Y-127889000D01*
X51373000Y-128111000D01*
X51416310Y-128328734D01*
X51501266Y-128533835D01*
X51624602Y-128718421D01*
X51781579Y-128875398D01*
X51966165Y-128998734D01*
X52171266Y-129083690D01*
X52389000Y-129127000D01*
X52611000Y-129127000D01*
X52828734Y-129083690D01*
X52935569Y-129039437D01*
X56344436Y-132448305D01*
X56357805Y-132464595D01*
X56374095Y-132477964D01*
X56374098Y-132477967D01*
X56422823Y-132517955D01*
X56462473Y-132539148D01*
X56497004Y-132557605D01*
X56577493Y-132582022D01*
X56640222Y-132588200D01*
X56640242Y-132588200D01*
X56661199Y-132590264D01*
X56682156Y-132588200D01*
X88955533Y-132588200D01*
X88976500Y-132590265D01*
X88997467Y-132588200D01*
X88997478Y-132588200D01*
X89060207Y-132582022D01*
X89140696Y-132557605D01*
X89214876Y-132517955D01*
X89279895Y-132464595D01*
X89293268Y-132448300D01*
X89825910Y-131915659D01*
X89842195Y-131902295D01*
X89855559Y-131886011D01*
X89855568Y-131886002D01*
X89895555Y-131837277D01*
X89916748Y-131797627D01*
X89935205Y-131763096D01*
X89959622Y-131682607D01*
X89965800Y-131619878D01*
X89965800Y-131619866D01*
X89967865Y-131598901D01*
X89965800Y-131577936D01*
X89965800Y-130722164D01*
X89967865Y-130701199D01*
X89965800Y-130680234D01*
X89965800Y-130680222D01*
X89959622Y-130617493D01*
X89935205Y-130537004D01*
X89902686Y-130476165D01*
X89895555Y-130462823D01*
X89855568Y-130414098D01*
X89855559Y-130414089D01*
X89842195Y-130397805D01*
X89825912Y-130384442D01*
X87330469Y-127889000D01*
X93373000Y-127889000D01*
X93373000Y-128111000D01*
X93416310Y-128328734D01*
X93501266Y-128533835D01*
X93624602Y-128718421D01*
X93781579Y-128875398D01*
X93966165Y-128998734D01*
X94171266Y-129083690D01*
X94389000Y-129127000D01*
X94611000Y-129127000D01*
X94828734Y-129083690D01*
X95033835Y-128998734D01*
X95218421Y-128875398D01*
X95375398Y-128718421D01*
X95498734Y-128533835D01*
X95583690Y-128328734D01*
X95627000Y-128111000D01*
X95627000Y-127889000D01*
X95583690Y-127671266D01*
X95498734Y-127466165D01*
X95375398Y-127281579D01*
X95218421Y-127124602D01*
X95033835Y-127001266D01*
X94828734Y-126916310D01*
X94611000Y-126873000D01*
X94389000Y-126873000D01*
X94171266Y-126916310D01*
X93966165Y-127001266D01*
X93781579Y-127124602D01*
X93624602Y-127281579D01*
X93501266Y-127466165D01*
X93416310Y-127671266D01*
X93373000Y-127889000D01*
X87330469Y-127889000D01*
X87282367Y-127840899D01*
X87268995Y-127824605D01*
X87203976Y-127771245D01*
X87129796Y-127731595D01*
X87049307Y-127707178D01*
X86986578Y-127701000D01*
X86986567Y-127701000D01*
X86965600Y-127698935D01*
X86944633Y-127701000D01*
X73274617Y-127701000D01*
X73281807Y-127628000D01*
X73272597Y-127534492D01*
X73245322Y-127444577D01*
X73209736Y-127378000D01*
X73245322Y-127311423D01*
X73272597Y-127221508D01*
X73281807Y-127128000D01*
X73272597Y-127034492D01*
X73245322Y-126944577D01*
X73201029Y-126861711D01*
X73141421Y-126789079D01*
X73068789Y-126729471D01*
X72985923Y-126685178D01*
X72896008Y-126657903D01*
X72825923Y-126651000D01*
X72779369Y-126651000D01*
X72604500Y-126476132D01*
X72604500Y-126429577D01*
X72597597Y-126359492D01*
X72570322Y-126269577D01*
X72530312Y-126194723D01*
X72526549Y-126182319D01*
X75319868Y-123389000D01*
X82873000Y-123389000D01*
X82873000Y-123611000D01*
X82916310Y-123828734D01*
X83001266Y-124033835D01*
X83124602Y-124218421D01*
X83281579Y-124375398D01*
X83466165Y-124498734D01*
X83671266Y-124583690D01*
X83889000Y-124627000D01*
X84111000Y-124627000D01*
X84328734Y-124583690D01*
X84533835Y-124498734D01*
X84718421Y-124375398D01*
X84875398Y-124218421D01*
X84998734Y-124033835D01*
X85083690Y-123828734D01*
X85127000Y-123611000D01*
X85127000Y-123389000D01*
X85083690Y-123171266D01*
X85039437Y-123064431D01*
X85218769Y-122885100D01*
X87555432Y-122885100D01*
X87501266Y-122966165D01*
X87416310Y-123171266D01*
X87373000Y-123389000D01*
X87373000Y-123611000D01*
X87416310Y-123828734D01*
X87501266Y-124033835D01*
X87624602Y-124218421D01*
X87781579Y-124375398D01*
X87966165Y-124498734D01*
X88171266Y-124583690D01*
X88389000Y-124627000D01*
X88611000Y-124627000D01*
X88828734Y-124583690D01*
X89033835Y-124498734D01*
X89218421Y-124375398D01*
X89375398Y-124218421D01*
X89498734Y-124033835D01*
X89583690Y-123828734D01*
X89627000Y-123611000D01*
X89627000Y-123389000D01*
X89583690Y-123171266D01*
X89498734Y-122966165D01*
X89444568Y-122885100D01*
X91281232Y-122885100D01*
X92683236Y-124287105D01*
X92696605Y-124303395D01*
X92712895Y-124316764D01*
X92712899Y-124316768D01*
X92712904Y-124316772D01*
X93460562Y-125064432D01*
X93416310Y-125171266D01*
X93373000Y-125389000D01*
X93373000Y-125611000D01*
X93416310Y-125828734D01*
X93501266Y-126033835D01*
X93624602Y-126218421D01*
X93781579Y-126375398D01*
X93966165Y-126498734D01*
X94171266Y-126583690D01*
X94389000Y-126627000D01*
X94611000Y-126627000D01*
X94828734Y-126583690D01*
X95033835Y-126498734D01*
X95218421Y-126375398D01*
X95375398Y-126218421D01*
X95498734Y-126033835D01*
X95583690Y-125828734D01*
X95627000Y-125611000D01*
X95627000Y-125389000D01*
X95583690Y-125171266D01*
X95498734Y-124966165D01*
X95413867Y-124839151D01*
X100273000Y-124839151D01*
X100273000Y-125080849D01*
X100320153Y-125317903D01*
X100412647Y-125541202D01*
X100546927Y-125742167D01*
X100717833Y-125913073D01*
X100918798Y-126047353D01*
X101142097Y-126139847D01*
X101379151Y-126187000D01*
X101620849Y-126187000D01*
X101857903Y-126139847D01*
X102081202Y-126047353D01*
X102282167Y-125913073D01*
X102453073Y-125742167D01*
X102587353Y-125541202D01*
X102679847Y-125317903D01*
X102727000Y-125080849D01*
X102727000Y-124839151D01*
X102679847Y-124602097D01*
X102587353Y-124378798D01*
X102453073Y-124177833D01*
X102282167Y-124006927D01*
X102081202Y-123872647D01*
X101857903Y-123780153D01*
X101620849Y-123733000D01*
X101379151Y-123733000D01*
X101142097Y-123780153D01*
X100918798Y-123872647D01*
X100717833Y-124006927D01*
X100546927Y-124177833D01*
X100412647Y-124378798D01*
X100320153Y-124602097D01*
X100273000Y-124839151D01*
X95413867Y-124839151D01*
X95375398Y-124781579D01*
X95218421Y-124624602D01*
X95033835Y-124501266D01*
X94828734Y-124416310D01*
X94611000Y-124373000D01*
X94389000Y-124373000D01*
X94171266Y-124416310D01*
X94064432Y-124460562D01*
X93603868Y-124000000D01*
X97064431Y-120539437D01*
X97171266Y-120583690D01*
X97389000Y-120627000D01*
X97611000Y-120627000D01*
X97828734Y-120583690D01*
X98033835Y-120498734D01*
X98218421Y-120375398D01*
X98375398Y-120218421D01*
X98498734Y-120033835D01*
X98542987Y-119927000D01*
X100479033Y-119927000D01*
X100500000Y-119929065D01*
X100520967Y-119927000D01*
X100520978Y-119927000D01*
X100583707Y-119920822D01*
X100664196Y-119896405D01*
X100738376Y-119856755D01*
X100803395Y-119803395D01*
X100816768Y-119787100D01*
X101140968Y-119462901D01*
X101200435Y-119487533D01*
X101398849Y-119527000D01*
X101601151Y-119527000D01*
X101799565Y-119487533D01*
X101986467Y-119410115D01*
X102154674Y-119297723D01*
X102297723Y-119154674D01*
X102410115Y-118986467D01*
X102487533Y-118799565D01*
X102527000Y-118601151D01*
X102527000Y-118398849D01*
X102487533Y-118200435D01*
X102410115Y-118013533D01*
X102297723Y-117845326D01*
X102154674Y-117702277D01*
X101986467Y-117589885D01*
X101799565Y-117512467D01*
X101601151Y-117473000D01*
X101398849Y-117473000D01*
X101200435Y-117512467D01*
X101013533Y-117589885D01*
X100845326Y-117702277D01*
X100702277Y-117845326D01*
X100589885Y-118013533D01*
X100512467Y-118200435D01*
X100473000Y-118398849D01*
X100473000Y-118601151D01*
X100512467Y-118799565D01*
X100537099Y-118859032D01*
X100323132Y-119073000D01*
X98542987Y-119073000D01*
X98498734Y-118966165D01*
X98375398Y-118781579D01*
X98218421Y-118624602D01*
X98033835Y-118501266D01*
X97828734Y-118416310D01*
X97611000Y-118373000D01*
X97389000Y-118373000D01*
X97171266Y-118416310D01*
X96966165Y-118501266D01*
X96781579Y-118624602D01*
X96624602Y-118781579D01*
X96501266Y-118966165D01*
X96416310Y-119171266D01*
X96373000Y-119389000D01*
X96373000Y-119611000D01*
X96416310Y-119828734D01*
X96460563Y-119935569D01*
X93000000Y-123396132D01*
X91774868Y-122171000D01*
X91761495Y-122154705D01*
X91696476Y-122101345D01*
X91622296Y-122061695D01*
X91541807Y-122037278D01*
X91479078Y-122031100D01*
X91479067Y-122031100D01*
X91458100Y-122029035D01*
X91437133Y-122031100D01*
X85062866Y-122031100D01*
X85041899Y-122029035D01*
X85020932Y-122031100D01*
X85020922Y-122031100D01*
X84958193Y-122037278D01*
X84877704Y-122061695D01*
X84843173Y-122080152D01*
X84803523Y-122101345D01*
X84754799Y-122141332D01*
X84754795Y-122141336D01*
X84738505Y-122154705D01*
X84725136Y-122170995D01*
X84435569Y-122460563D01*
X84328734Y-122416310D01*
X84111000Y-122373000D01*
X83889000Y-122373000D01*
X83671266Y-122416310D01*
X83466165Y-122501266D01*
X83281579Y-122624602D01*
X83124602Y-122781579D01*
X83001266Y-122966165D01*
X82916310Y-123171266D01*
X82873000Y-123389000D01*
X75319868Y-123389000D01*
X76786220Y-121922649D01*
X76799028Y-121953570D01*
X76944252Y-122170913D01*
X77129087Y-122355748D01*
X77346430Y-122500972D01*
X77587928Y-122601004D01*
X77844302Y-122652000D01*
X78105698Y-122652000D01*
X78362072Y-122601004D01*
X78603570Y-122500972D01*
X78820913Y-122355748D01*
X79005748Y-122170913D01*
X79150972Y-121953570D01*
X79251004Y-121712072D01*
X79302000Y-121455698D01*
X79302000Y-121194302D01*
X79251004Y-120937928D01*
X79150972Y-120696430D01*
X79025067Y-120508000D01*
X81806832Y-120508000D01*
X82121436Y-120822605D01*
X82134805Y-120838895D01*
X82151095Y-120852264D01*
X82151099Y-120852268D01*
X82199823Y-120892255D01*
X82222130Y-120904178D01*
X82274004Y-120931905D01*
X82354493Y-120956322D01*
X82417222Y-120962500D01*
X82417232Y-120962500D01*
X82438199Y-120964565D01*
X82459166Y-120962500D01*
X87913933Y-120962500D01*
X87934900Y-120964565D01*
X87955867Y-120962500D01*
X87955878Y-120962500D01*
X88018607Y-120956322D01*
X88099096Y-120931905D01*
X88173276Y-120892255D01*
X88238295Y-120838895D01*
X88251668Y-120822600D01*
X89493000Y-119581268D01*
X89493000Y-119611000D01*
X89536310Y-119828734D01*
X89621266Y-120033835D01*
X89744602Y-120218421D01*
X89901579Y-120375398D01*
X90086165Y-120498734D01*
X90291266Y-120583690D01*
X90509000Y-120627000D01*
X90731000Y-120627000D01*
X90948734Y-120583690D01*
X91153835Y-120498734D01*
X91338421Y-120375398D01*
X91495398Y-120218421D01*
X91618734Y-120033835D01*
X91703690Y-119828734D01*
X91747000Y-119611000D01*
X91747000Y-119389000D01*
X93873000Y-119389000D01*
X93873000Y-119611000D01*
X93916310Y-119828734D01*
X94001266Y-120033835D01*
X94124602Y-120218421D01*
X94281579Y-120375398D01*
X94466165Y-120498734D01*
X94671266Y-120583690D01*
X94889000Y-120627000D01*
X95111000Y-120627000D01*
X95328734Y-120583690D01*
X95533835Y-120498734D01*
X95718421Y-120375398D01*
X95875398Y-120218421D01*
X95998734Y-120033835D01*
X96083690Y-119828734D01*
X96127000Y-119611000D01*
X96127000Y-119389000D01*
X96083690Y-119171266D01*
X95998734Y-118966165D01*
X95875398Y-118781579D01*
X95718421Y-118624602D01*
X95533835Y-118501266D01*
X95328734Y-118416310D01*
X95111000Y-118373000D01*
X94889000Y-118373000D01*
X94671266Y-118416310D01*
X94466165Y-118501266D01*
X94281579Y-118624602D01*
X94124602Y-118781579D01*
X94001266Y-118966165D01*
X93916310Y-119171266D01*
X93873000Y-119389000D01*
X91747000Y-119389000D01*
X91703690Y-119171266D01*
X91618734Y-118966165D01*
X91495398Y-118781579D01*
X91338421Y-118624602D01*
X91153835Y-118501266D01*
X90948734Y-118416310D01*
X90731000Y-118373000D01*
X90701268Y-118373000D01*
X94016954Y-115057315D01*
X94124602Y-115218421D01*
X94281579Y-115375398D01*
X94466165Y-115498734D01*
X94671266Y-115583690D01*
X94889000Y-115627000D01*
X95111000Y-115627000D01*
X95328734Y-115583690D01*
X95533835Y-115498734D01*
X95718421Y-115375398D01*
X95875398Y-115218421D01*
X95998734Y-115033835D01*
X96083690Y-114828734D01*
X96127000Y-114611000D01*
X96127000Y-114389000D01*
X96083690Y-114171266D01*
X95998734Y-113966165D01*
X95875398Y-113781579D01*
X95718421Y-113624602D01*
X95533835Y-113501266D01*
X95328734Y-113416310D01*
X95111000Y-113373000D01*
X94889000Y-113373000D01*
X94671266Y-113416310D01*
X94466165Y-113501266D01*
X94281579Y-113624602D01*
X94124602Y-113781579D01*
X94001266Y-113966165D01*
X93957336Y-114072222D01*
X93949433Y-114073000D01*
X93949422Y-114073000D01*
X93886693Y-114079178D01*
X93806204Y-114103595D01*
X93771673Y-114122052D01*
X93732023Y-114143245D01*
X93683299Y-114183232D01*
X93683295Y-114183236D01*
X93667005Y-114196605D01*
X93653636Y-114212895D01*
X87758032Y-120108500D01*
X83948845Y-120108500D01*
X83998734Y-120033835D01*
X84083690Y-119828734D01*
X84127000Y-119611000D01*
X84127000Y-119389000D01*
X84083690Y-119171266D01*
X83998734Y-118966165D01*
X83875398Y-118781579D01*
X83718421Y-118624602D01*
X83533835Y-118501266D01*
X83328734Y-118416310D01*
X83111000Y-118373000D01*
X82889000Y-118373000D01*
X82671266Y-118416310D01*
X82466165Y-118501266D01*
X82281579Y-118624602D01*
X82124602Y-118781579D01*
X82001266Y-118966165D01*
X81957013Y-119073000D01*
X65375664Y-119073000D01*
X65354699Y-119070935D01*
X65333734Y-119073000D01*
X65333722Y-119073000D01*
X65270993Y-119079178D01*
X65190504Y-119103595D01*
X65155973Y-119122052D01*
X65116323Y-119143245D01*
X65067598Y-119183232D01*
X65067589Y-119183241D01*
X65051305Y-119196605D01*
X65037941Y-119212889D01*
X63709995Y-120540837D01*
X63693706Y-120554205D01*
X63680337Y-120570495D01*
X63680332Y-120570500D01*
X63640345Y-120619224D01*
X63600696Y-120693404D01*
X63576279Y-120773894D01*
X63568035Y-120857600D01*
X63570101Y-120878577D01*
X63570100Y-123220333D01*
X63568035Y-123241300D01*
X63570100Y-123262267D01*
X63570100Y-123262277D01*
X63576278Y-123325006D01*
X63600695Y-123405495D01*
X63616143Y-123434396D01*
X63640345Y-123479676D01*
X63680332Y-123528400D01*
X63693705Y-123544695D01*
X63710000Y-123558068D01*
X69408230Y-129256300D01*
X59360169Y-129256300D01*
X53539437Y-123435569D01*
X53583690Y-123328734D01*
X53627000Y-123111000D01*
X53627000Y-122889000D01*
X57873000Y-122889000D01*
X57873000Y-123111000D01*
X57916310Y-123328734D01*
X58001266Y-123533835D01*
X58124602Y-123718421D01*
X58281579Y-123875398D01*
X58466165Y-123998734D01*
X58671266Y-124083690D01*
X58889000Y-124127000D01*
X59111000Y-124127000D01*
X59328734Y-124083690D01*
X59533835Y-123998734D01*
X59718421Y-123875398D01*
X59875398Y-123718421D01*
X59998734Y-123533835D01*
X60083690Y-123328734D01*
X60127000Y-123111000D01*
X60127000Y-122889000D01*
X60083690Y-122671266D01*
X60039437Y-122564431D01*
X66912670Y-115691200D01*
X82094833Y-115691200D01*
X82115800Y-115693265D01*
X82136767Y-115691200D01*
X82136778Y-115691200D01*
X82199507Y-115685022D01*
X82279996Y-115660605D01*
X82354176Y-115620955D01*
X82419195Y-115567595D01*
X82432568Y-115551300D01*
X82444431Y-115539437D01*
X82551266Y-115583690D01*
X82769000Y-115627000D01*
X82991000Y-115627000D01*
X83208734Y-115583690D01*
X83413835Y-115498734D01*
X83598421Y-115375398D01*
X83755398Y-115218421D01*
X83878734Y-115033835D01*
X83963690Y-114828734D01*
X84007000Y-114611000D01*
X84007000Y-114389000D01*
X89373000Y-114389000D01*
X89373000Y-114611000D01*
X89416310Y-114828734D01*
X89501266Y-115033835D01*
X89624602Y-115218421D01*
X89781579Y-115375398D01*
X89966165Y-115498734D01*
X90171266Y-115583690D01*
X90389000Y-115627000D01*
X90611000Y-115627000D01*
X90828734Y-115583690D01*
X91033835Y-115498734D01*
X91218421Y-115375398D01*
X91375398Y-115218421D01*
X91498734Y-115033835D01*
X91583690Y-114828734D01*
X91627000Y-114611000D01*
X91627000Y-114389000D01*
X91583690Y-114171266D01*
X91498734Y-113966165D01*
X91375398Y-113781579D01*
X91218421Y-113624602D01*
X91033835Y-113501266D01*
X90828734Y-113416310D01*
X90611000Y-113373000D01*
X90389000Y-113373000D01*
X90171266Y-113416310D01*
X89966165Y-113501266D01*
X89781579Y-113624602D01*
X89624602Y-113781579D01*
X89501266Y-113966165D01*
X89416310Y-114171266D01*
X89373000Y-114389000D01*
X84007000Y-114389000D01*
X83963690Y-114171266D01*
X83878734Y-113966165D01*
X83755398Y-113781579D01*
X83598421Y-113624602D01*
X83413835Y-113501266D01*
X83208734Y-113416310D01*
X82991000Y-113373000D01*
X82769000Y-113373000D01*
X82551266Y-113416310D01*
X82346165Y-113501266D01*
X82161579Y-113624602D01*
X82004602Y-113781579D01*
X81881266Y-113966165D01*
X81796310Y-114171266D01*
X81753000Y-114389000D01*
X81753000Y-114611000D01*
X81796310Y-114828734D01*
X81799817Y-114837200D01*
X76256619Y-114837200D01*
X76375398Y-114718421D01*
X76498734Y-114533835D01*
X76583690Y-114328734D01*
X76627000Y-114111000D01*
X76627000Y-113889000D01*
X76583690Y-113671266D01*
X76498734Y-113466165D01*
X76375398Y-113281579D01*
X76218421Y-113124602D01*
X76033835Y-113001266D01*
X75828734Y-112916310D01*
X75611000Y-112873000D01*
X75389000Y-112873000D01*
X75171266Y-112916310D01*
X74966165Y-113001266D01*
X74781579Y-113124602D01*
X74624602Y-113281579D01*
X74501266Y-113466165D01*
X74416310Y-113671266D01*
X74373000Y-113889000D01*
X74373000Y-114111000D01*
X74416310Y-114328734D01*
X74501266Y-114533835D01*
X74624602Y-114718421D01*
X74743381Y-114837200D01*
X69004918Y-114837200D01*
X69008582Y-114800000D01*
X69008582Y-113200000D01*
X69002268Y-113135897D01*
X68983570Y-113074257D01*
X68953206Y-113017450D01*
X68912343Y-112967657D01*
X68862550Y-112926794D01*
X68805743Y-112896430D01*
X68744103Y-112877732D01*
X68680000Y-112871418D01*
X67080000Y-112871418D01*
X67015897Y-112877732D01*
X66954257Y-112896430D01*
X66897450Y-112926794D01*
X66847657Y-112967657D01*
X66806794Y-113017450D01*
X66776430Y-113074257D01*
X66757732Y-113135897D01*
X66751418Y-113200000D01*
X66751418Y-114800000D01*
X66755066Y-114837033D01*
X66735799Y-114835135D01*
X66714834Y-114837200D01*
X66714822Y-114837200D01*
X66652093Y-114843378D01*
X66571604Y-114867795D01*
X66557380Y-114875398D01*
X66497423Y-114907445D01*
X66448698Y-114947432D01*
X66448689Y-114947441D01*
X66432405Y-114960805D01*
X66419041Y-114977089D01*
X59435569Y-121960563D01*
X59328734Y-121916310D01*
X59111000Y-121873000D01*
X58889000Y-121873000D01*
X58671266Y-121916310D01*
X58466165Y-122001266D01*
X58281579Y-122124602D01*
X58124602Y-122281579D01*
X58001266Y-122466165D01*
X57916310Y-122671266D01*
X57873000Y-122889000D01*
X53627000Y-122889000D01*
X53583690Y-122671266D01*
X53498734Y-122466165D01*
X53375398Y-122281579D01*
X53270819Y-122177000D01*
X57729033Y-122177000D01*
X57750000Y-122179065D01*
X57770967Y-122177000D01*
X57770978Y-122177000D01*
X57833707Y-122170822D01*
X57914196Y-122146405D01*
X57988376Y-122106755D01*
X58053395Y-122053395D01*
X58066768Y-122037100D01*
X58564431Y-121539437D01*
X58671266Y-121583690D01*
X58889000Y-121627000D01*
X59111000Y-121627000D01*
X59328734Y-121583690D01*
X59533835Y-121498734D01*
X59718421Y-121375398D01*
X59875398Y-121218421D01*
X59998734Y-121033835D01*
X60083690Y-120828734D01*
X60127000Y-120611000D01*
X60127000Y-120389000D01*
X60083690Y-120171266D01*
X59998734Y-119966165D01*
X59875398Y-119781579D01*
X59718421Y-119624602D01*
X59533835Y-119501266D01*
X59328734Y-119416310D01*
X59111000Y-119373000D01*
X58889000Y-119373000D01*
X58671266Y-119416310D01*
X58466165Y-119501266D01*
X58281579Y-119624602D01*
X58124602Y-119781579D01*
X58001266Y-119966165D01*
X57916310Y-120171266D01*
X57873000Y-120389000D01*
X57873000Y-120611000D01*
X57916310Y-120828734D01*
X57960563Y-120935569D01*
X57573132Y-121323000D01*
X53270819Y-121323000D01*
X53375398Y-121218421D01*
X53498734Y-121033835D01*
X53583690Y-120828734D01*
X53627000Y-120611000D01*
X53627000Y-120389000D01*
X53583690Y-120171266D01*
X53498734Y-119966165D01*
X53375398Y-119781579D01*
X53218421Y-119624602D01*
X53033835Y-119501266D01*
X52828734Y-119416310D01*
X52611000Y-119373000D01*
X52389000Y-119373000D01*
X52171266Y-119416310D01*
X51966165Y-119501266D01*
X51781579Y-119624602D01*
X51624602Y-119781579D01*
X51501266Y-119966165D01*
X51416310Y-120171266D01*
X51373000Y-120389000D01*
X51373000Y-120611000D01*
X51416310Y-120828734D01*
X51501266Y-121033835D01*
X51624602Y-121218421D01*
X51729181Y-121323000D01*
X50010366Y-121323000D01*
X49989399Y-121320935D01*
X49968432Y-121323000D01*
X49968422Y-121323000D01*
X49905693Y-121329178D01*
X49825204Y-121353595D01*
X49812660Y-121360300D01*
X49751023Y-121393245D01*
X49702298Y-121433232D01*
X49702289Y-121433241D01*
X49686005Y-121446605D01*
X49672641Y-121462889D01*
X48503582Y-122631949D01*
X48503582Y-121825000D01*
X48497268Y-121760897D01*
X48478570Y-121699257D01*
X48448206Y-121642450D01*
X48407343Y-121592657D01*
X48357550Y-121551794D01*
X48300743Y-121521430D01*
X48239103Y-121502732D01*
X48175000Y-121496418D01*
X46825000Y-121496418D01*
X46760897Y-121502732D01*
X46699257Y-121521430D01*
X46642450Y-121551794D01*
X46592657Y-121592657D01*
X46551794Y-121642450D01*
X46521430Y-121699257D01*
X46502732Y-121760897D01*
X46496418Y-121825000D01*
X46496418Y-123175000D01*
X46502732Y-123239103D01*
X46521430Y-123300743D01*
X46551794Y-123357550D01*
X46592657Y-123407343D01*
X46618818Y-123428813D01*
X46307495Y-123740137D01*
X46291206Y-123753505D01*
X46277837Y-123769795D01*
X46277832Y-123769800D01*
X46237845Y-123818524D01*
X46207446Y-123875398D01*
X46198196Y-123892704D01*
X46189667Y-123920821D01*
X46173779Y-123973194D01*
X46165535Y-124056900D01*
X41352000Y-124056900D01*
X41352000Y-117424076D01*
X46323000Y-117424076D01*
X46323000Y-117655924D01*
X46368231Y-117883318D01*
X46456956Y-118097519D01*
X46585764Y-118290294D01*
X46749706Y-118454236D01*
X46942481Y-118583044D01*
X47156682Y-118671769D01*
X47384076Y-118717000D01*
X47615924Y-118717000D01*
X47843318Y-118671769D01*
X48057519Y-118583044D01*
X48250294Y-118454236D01*
X48414236Y-118290294D01*
X48543044Y-118097519D01*
X48596930Y-117967427D01*
X48601267Y-117967000D01*
X48601278Y-117967000D01*
X48664007Y-117960822D01*
X48744496Y-117936405D01*
X48762092Y-117927000D01*
X51457013Y-117927000D01*
X51501266Y-118033835D01*
X51624602Y-118218421D01*
X51781579Y-118375398D01*
X51966165Y-118498734D01*
X52171266Y-118583690D01*
X52389000Y-118627000D01*
X52611000Y-118627000D01*
X52828734Y-118583690D01*
X53033835Y-118498734D01*
X53218421Y-118375398D01*
X53375398Y-118218421D01*
X53498734Y-118033835D01*
X53583690Y-117828734D01*
X53627000Y-117611000D01*
X53627000Y-117389000D01*
X57873000Y-117389000D01*
X57873000Y-117611000D01*
X57916310Y-117828734D01*
X58001266Y-118033835D01*
X58124602Y-118218421D01*
X58281579Y-118375398D01*
X58466165Y-118498734D01*
X58671266Y-118583690D01*
X58889000Y-118627000D01*
X59111000Y-118627000D01*
X59328734Y-118583690D01*
X59533835Y-118498734D01*
X59718421Y-118375398D01*
X59875398Y-118218421D01*
X59998734Y-118033835D01*
X60083690Y-117828734D01*
X60127000Y-117611000D01*
X60127000Y-117389000D01*
X60083690Y-117171266D01*
X59998734Y-116966165D01*
X59875398Y-116781579D01*
X59718421Y-116624602D01*
X59533835Y-116501266D01*
X59328734Y-116416310D01*
X59111000Y-116373000D01*
X58889000Y-116373000D01*
X58671266Y-116416310D01*
X58466165Y-116501266D01*
X58281579Y-116624602D01*
X58124602Y-116781579D01*
X58001266Y-116966165D01*
X57916310Y-117171266D01*
X57873000Y-117389000D01*
X53627000Y-117389000D01*
X53583690Y-117171266D01*
X53498734Y-116966165D01*
X53375398Y-116781579D01*
X53218421Y-116624602D01*
X53033835Y-116501266D01*
X52828734Y-116416310D01*
X52611000Y-116373000D01*
X52389000Y-116373000D01*
X52171266Y-116416310D01*
X51966165Y-116501266D01*
X51781579Y-116624602D01*
X51624602Y-116781579D01*
X51501266Y-116966165D01*
X51457013Y-117073000D01*
X48641267Y-117073000D01*
X48620300Y-117070935D01*
X48599333Y-117073000D01*
X48599322Y-117073000D01*
X48581274Y-117074777D01*
X48543044Y-116982481D01*
X48414236Y-116789706D01*
X48250294Y-116625764D01*
X48057519Y-116496956D01*
X47843318Y-116408231D01*
X47615924Y-116363000D01*
X47384076Y-116363000D01*
X47156682Y-116408231D01*
X46942481Y-116496956D01*
X46749706Y-116625764D01*
X46585764Y-116789706D01*
X46456956Y-116982481D01*
X46368231Y-117196682D01*
X46323000Y-117424076D01*
X41352000Y-117424076D01*
X41352000Y-114150000D01*
X46321418Y-114150000D01*
X46321418Y-115850000D01*
X46327732Y-115914103D01*
X46346430Y-115975743D01*
X46376794Y-116032550D01*
X46417657Y-116082343D01*
X46467450Y-116123206D01*
X46524257Y-116153570D01*
X46585897Y-116172268D01*
X46650000Y-116178582D01*
X48350000Y-116178582D01*
X48414103Y-116172268D01*
X48475743Y-116153570D01*
X48532550Y-116123206D01*
X48582343Y-116082343D01*
X48623206Y-116032550D01*
X48653570Y-115975743D01*
X48672268Y-115914103D01*
X48678582Y-115850000D01*
X48678582Y-114889000D01*
X51373000Y-114889000D01*
X51373000Y-115111000D01*
X51416310Y-115328734D01*
X51501266Y-115533835D01*
X51624602Y-115718421D01*
X51781579Y-115875398D01*
X51966165Y-115998734D01*
X52171266Y-116083690D01*
X52389000Y-116127000D01*
X52611000Y-116127000D01*
X52828734Y-116083690D01*
X53033835Y-115998734D01*
X53218421Y-115875398D01*
X53375398Y-115718421D01*
X53498734Y-115533835D01*
X53583690Y-115328734D01*
X53627000Y-115111000D01*
X53627000Y-114889000D01*
X57873000Y-114889000D01*
X57873000Y-115111000D01*
X57916310Y-115328734D01*
X58001266Y-115533835D01*
X58124602Y-115718421D01*
X58281579Y-115875398D01*
X58466165Y-115998734D01*
X58671266Y-116083690D01*
X58889000Y-116127000D01*
X59111000Y-116127000D01*
X59328734Y-116083690D01*
X59533835Y-115998734D01*
X59718421Y-115875398D01*
X59875398Y-115718421D01*
X59998734Y-115533835D01*
X60083690Y-115328734D01*
X60127000Y-115111000D01*
X60127000Y-114889000D01*
X60083690Y-114671266D01*
X59998734Y-114466165D01*
X59875398Y-114281579D01*
X59718421Y-114124602D01*
X59533835Y-114001266D01*
X59328734Y-113916310D01*
X59111000Y-113873000D01*
X58889000Y-113873000D01*
X58671266Y-113916310D01*
X58466165Y-114001266D01*
X58281579Y-114124602D01*
X58124602Y-114281579D01*
X58001266Y-114466165D01*
X57916310Y-114671266D01*
X57873000Y-114889000D01*
X53627000Y-114889000D01*
X53583690Y-114671266D01*
X53498734Y-114466165D01*
X53375398Y-114281579D01*
X53218421Y-114124602D01*
X53033835Y-114001266D01*
X52828734Y-113916310D01*
X52611000Y-113873000D01*
X52389000Y-113873000D01*
X52171266Y-113916310D01*
X51966165Y-114001266D01*
X51781579Y-114124602D01*
X51624602Y-114281579D01*
X51501266Y-114466165D01*
X51416310Y-114671266D01*
X51373000Y-114889000D01*
X48678582Y-114889000D01*
X48678582Y-114150000D01*
X48672268Y-114085897D01*
X48653570Y-114024257D01*
X48623206Y-113967450D01*
X48582343Y-113917657D01*
X48532550Y-113876794D01*
X48475743Y-113846430D01*
X48414103Y-113827732D01*
X48350000Y-113821418D01*
X46650000Y-113821418D01*
X46585897Y-113827732D01*
X46524257Y-113846430D01*
X46467450Y-113876794D01*
X46417657Y-113917657D01*
X46376794Y-113967450D01*
X46346430Y-114024257D01*
X46327732Y-114085897D01*
X46321418Y-114150000D01*
X41352000Y-114150000D01*
X41352000Y-108889000D01*
X46873000Y-108889000D01*
X46873000Y-109111000D01*
X46916310Y-109328734D01*
X47001266Y-109533835D01*
X47124602Y-109718421D01*
X47281579Y-109875398D01*
X47466165Y-109998734D01*
X47671266Y-110083690D01*
X47889000Y-110127000D01*
X48111000Y-110127000D01*
X48328734Y-110083690D01*
X48533835Y-109998734D01*
X48718421Y-109875398D01*
X48875398Y-109718421D01*
X48998734Y-109533835D01*
X49083690Y-109328734D01*
X49127000Y-109111000D01*
X49127000Y-108889000D01*
X49083690Y-108671266D01*
X48998734Y-108466165D01*
X48875398Y-108281579D01*
X48718421Y-108124602D01*
X48533835Y-108001266D01*
X48328734Y-107916310D01*
X48111000Y-107873000D01*
X47889000Y-107873000D01*
X47671266Y-107916310D01*
X47466165Y-108001266D01*
X47281579Y-108124602D01*
X47124602Y-108281579D01*
X47001266Y-108466165D01*
X46916310Y-108671266D01*
X46873000Y-108889000D01*
X41352000Y-108889000D01*
X41352000Y-101805660D01*
X45598000Y-101805660D01*
X45598000Y-102244340D01*
X45683582Y-102674592D01*
X45851458Y-103079880D01*
X46095176Y-103444630D01*
X46405370Y-103754824D01*
X46770120Y-103998542D01*
X47175408Y-104166418D01*
X47605660Y-104252000D01*
X48044340Y-104252000D01*
X48474592Y-104166418D01*
X48879880Y-103998542D01*
X49244630Y-103754824D01*
X49554824Y-103444630D01*
X49798542Y-103079880D01*
X49966418Y-102674592D01*
X50052000Y-102244340D01*
X50052000Y-101805660D01*
X49966418Y-101375408D01*
X49798542Y-100970120D01*
X49554824Y-100605370D01*
X49244630Y-100295176D01*
X48879880Y-100051458D01*
X48474592Y-99883582D01*
X48044340Y-99798000D01*
X47605660Y-99798000D01*
X47175408Y-99883582D01*
X46770120Y-100051458D01*
X46405370Y-100295176D01*
X46095176Y-100605370D01*
X45851458Y-100970120D01*
X45683582Y-101375408D01*
X45598000Y-101805660D01*
X41352000Y-101805660D01*
X41352000Y-96455660D01*
X45598000Y-96455660D01*
X45598000Y-96894340D01*
X45683582Y-97324592D01*
X45851458Y-97729880D01*
X46095176Y-98094630D01*
X46405370Y-98404824D01*
X46770120Y-98648542D01*
X47175408Y-98816418D01*
X47605660Y-98902000D01*
X48044340Y-98902000D01*
X48474592Y-98816418D01*
X48879880Y-98648542D01*
X49068585Y-98522453D01*
X55708201Y-105162070D01*
X55708200Y-106009422D01*
X55706134Y-106030400D01*
X55708201Y-106051388D01*
X55708200Y-107873000D01*
X55509000Y-107873000D01*
X55291266Y-107916310D01*
X55086165Y-108001266D01*
X54901579Y-108124602D01*
X54744602Y-108281579D01*
X54621266Y-108466165D01*
X54536310Y-108671266D01*
X54493000Y-108889000D01*
X54493000Y-109111000D01*
X54536310Y-109328734D01*
X54621266Y-109533835D01*
X54744602Y-109718421D01*
X54901579Y-109875398D01*
X55086165Y-109998734D01*
X55291266Y-110083690D01*
X55509000Y-110127000D01*
X55731000Y-110127000D01*
X55948734Y-110083690D01*
X56153835Y-109998734D01*
X56338421Y-109875398D01*
X56495398Y-109718421D01*
X56618734Y-109533835D01*
X56703690Y-109328734D01*
X56747000Y-109111000D01*
X56747000Y-108889000D01*
X56703690Y-108671266D01*
X56618734Y-108466165D01*
X56562200Y-108381556D01*
X56562200Y-107989302D01*
X69473000Y-107989302D01*
X69473000Y-108250698D01*
X69523996Y-108507072D01*
X69624028Y-108748570D01*
X69769252Y-108965913D01*
X69954087Y-109150748D01*
X70171430Y-109295972D01*
X70412928Y-109396004D01*
X70669302Y-109447000D01*
X70930698Y-109447000D01*
X71187072Y-109396004D01*
X71428570Y-109295972D01*
X71645913Y-109150748D01*
X71830748Y-108965913D01*
X71975972Y-108748570D01*
X72076004Y-108507072D01*
X72127000Y-108250698D01*
X72127000Y-107989302D01*
X82173000Y-107989302D01*
X82173000Y-108250698D01*
X82223996Y-108507072D01*
X82324028Y-108748570D01*
X82469252Y-108965913D01*
X82654087Y-109150748D01*
X82871430Y-109295972D01*
X83112928Y-109396004D01*
X83369302Y-109447000D01*
X83630698Y-109447000D01*
X83887072Y-109396004D01*
X84128570Y-109295972D01*
X84345913Y-109150748D01*
X84530748Y-108965913D01*
X84675972Y-108748570D01*
X84776004Y-108507072D01*
X84827000Y-108250698D01*
X84827000Y-107989302D01*
X84776004Y-107732928D01*
X84675972Y-107491430D01*
X84530748Y-107274087D01*
X84345913Y-107089252D01*
X84128570Y-106944028D01*
X83887072Y-106843996D01*
X83630698Y-106793000D01*
X83369302Y-106793000D01*
X83112928Y-106843996D01*
X82871430Y-106944028D01*
X82654087Y-107089252D01*
X82469252Y-107274087D01*
X82324028Y-107491430D01*
X82223996Y-107732928D01*
X82173000Y-107989302D01*
X72127000Y-107989302D01*
X72076004Y-107732928D01*
X71975972Y-107491430D01*
X71830748Y-107274087D01*
X71645913Y-107089252D01*
X71428570Y-106944028D01*
X71187072Y-106843996D01*
X70930698Y-106793000D01*
X70669302Y-106793000D01*
X70412928Y-106843996D01*
X70171430Y-106944028D01*
X69954087Y-107089252D01*
X69769252Y-107274087D01*
X69624028Y-107491430D01*
X69523996Y-107732928D01*
X69473000Y-107989302D01*
X56562200Y-107989302D01*
X56562200Y-106457400D01*
X61393433Y-106457400D01*
X61414400Y-106459465D01*
X61435367Y-106457400D01*
X61435378Y-106457400D01*
X61498107Y-106451222D01*
X61578596Y-106426805D01*
X61652776Y-106387155D01*
X61717795Y-106333795D01*
X61731168Y-106317500D01*
X63848668Y-104200000D01*
X64371418Y-104200000D01*
X64371418Y-105800000D01*
X64377732Y-105864103D01*
X64396430Y-105925743D01*
X64426794Y-105982550D01*
X64467657Y-106032343D01*
X64517450Y-106073206D01*
X64574257Y-106103570D01*
X64635897Y-106122268D01*
X64700000Y-106128582D01*
X66300000Y-106128582D01*
X66364103Y-106122268D01*
X66425743Y-106103570D01*
X66482550Y-106073206D01*
X66532343Y-106032343D01*
X66573206Y-105982550D01*
X66603570Y-105925743D01*
X66622268Y-105864103D01*
X66628582Y-105800000D01*
X66628582Y-104509000D01*
X87873000Y-104509000D01*
X87873000Y-104731000D01*
X87916310Y-104948734D01*
X88001266Y-105153835D01*
X88124602Y-105338421D01*
X88281579Y-105495398D01*
X88466165Y-105618734D01*
X88671266Y-105703690D01*
X88889000Y-105747000D01*
X89111000Y-105747000D01*
X89328734Y-105703690D01*
X89435569Y-105659437D01*
X97188927Y-113412797D01*
X97171266Y-113416310D01*
X96966165Y-113501266D01*
X96781579Y-113624602D01*
X96624602Y-113781579D01*
X96501266Y-113966165D01*
X96416310Y-114171266D01*
X96373000Y-114389000D01*
X96373000Y-114611000D01*
X96416310Y-114828734D01*
X96501266Y-115033835D01*
X96624602Y-115218421D01*
X96781579Y-115375398D01*
X96966165Y-115498734D01*
X97171266Y-115583690D01*
X97389000Y-115627000D01*
X97611000Y-115627000D01*
X97828734Y-115583690D01*
X98033835Y-115498734D01*
X98218421Y-115375398D01*
X98375398Y-115218421D01*
X98498734Y-115033835D01*
X98583690Y-114828734D01*
X98627000Y-114611000D01*
X98627000Y-114389000D01*
X98583690Y-114171266D01*
X98498734Y-113966165D01*
X98419111Y-113847000D01*
X100565253Y-113847000D01*
X100589885Y-113906467D01*
X100702277Y-114074674D01*
X100845326Y-114217723D01*
X101013533Y-114330115D01*
X101200435Y-114407533D01*
X101398849Y-114447000D01*
X101601151Y-114447000D01*
X101799565Y-114407533D01*
X101986467Y-114330115D01*
X102154674Y-114217723D01*
X102297723Y-114074674D01*
X102410115Y-113906467D01*
X102487533Y-113719565D01*
X102527000Y-113521151D01*
X102527000Y-113318849D01*
X102487533Y-113120435D01*
X102410115Y-112933533D01*
X102297723Y-112765326D01*
X102154674Y-112622277D01*
X101986467Y-112509885D01*
X101799565Y-112432467D01*
X101601151Y-112393000D01*
X101398849Y-112393000D01*
X101200435Y-112432467D01*
X101013533Y-112509885D01*
X100845326Y-112622277D01*
X100702277Y-112765326D01*
X100589885Y-112933533D01*
X100565253Y-112993000D01*
X97976870Y-112993000D01*
X91764529Y-106780660D01*
X99273000Y-106780660D01*
X99273000Y-107219340D01*
X99358582Y-107649592D01*
X99526458Y-108054880D01*
X99770176Y-108419630D01*
X100080370Y-108729824D01*
X100445120Y-108973542D01*
X100850408Y-109141418D01*
X101280660Y-109227000D01*
X101719340Y-109227000D01*
X102149592Y-109141418D01*
X102554880Y-108973542D01*
X102919630Y-108729824D01*
X103229824Y-108419630D01*
X103473542Y-108054880D01*
X103641418Y-107649592D01*
X103727000Y-107219340D01*
X103727000Y-106780660D01*
X103641418Y-106350408D01*
X103473542Y-105945120D01*
X103229824Y-105580370D01*
X102919630Y-105270176D01*
X102554880Y-105026458D01*
X102149592Y-104858582D01*
X101719340Y-104773000D01*
X101280660Y-104773000D01*
X100850408Y-104858582D01*
X100445120Y-105026458D01*
X100080370Y-105270176D01*
X99770176Y-105580370D01*
X99526458Y-105945120D01*
X99358582Y-106350408D01*
X99273000Y-106780660D01*
X91764529Y-106780660D01*
X90039437Y-105055569D01*
X90083690Y-104948734D01*
X90127000Y-104731000D01*
X90127000Y-104509000D01*
X90083690Y-104291266D01*
X89998734Y-104086165D01*
X89875398Y-103901579D01*
X89718421Y-103744602D01*
X89533835Y-103621266D01*
X89328734Y-103536310D01*
X89111000Y-103493000D01*
X88889000Y-103493000D01*
X88671266Y-103536310D01*
X88466165Y-103621266D01*
X88281579Y-103744602D01*
X88124602Y-103901579D01*
X88001266Y-104086165D01*
X87916310Y-104291266D01*
X87873000Y-104509000D01*
X66628582Y-104509000D01*
X66628582Y-104200000D01*
X66622268Y-104135897D01*
X66603570Y-104074257D01*
X66573206Y-104017450D01*
X66532343Y-103967657D01*
X66482550Y-103926794D01*
X66425743Y-103896430D01*
X66364103Y-103877732D01*
X66300000Y-103871418D01*
X64700000Y-103871418D01*
X64635897Y-103877732D01*
X64574257Y-103896430D01*
X64517450Y-103926794D01*
X64467657Y-103967657D01*
X64426794Y-104017450D01*
X64396430Y-104074257D01*
X64377732Y-104135897D01*
X64371418Y-104200000D01*
X63848668Y-104200000D01*
X64747425Y-103301244D01*
X64781579Y-103335398D01*
X64966165Y-103458734D01*
X65171266Y-103543690D01*
X65389000Y-103587000D01*
X65611000Y-103587000D01*
X65828734Y-103543690D01*
X66033835Y-103458734D01*
X66218421Y-103335398D01*
X66375398Y-103178421D01*
X66498734Y-102993835D01*
X66583690Y-102788734D01*
X66627000Y-102571000D01*
X66627000Y-102349000D01*
X66583690Y-102131266D01*
X66498734Y-101926165D01*
X66375398Y-101741579D01*
X66218421Y-101584602D01*
X66056894Y-101476674D01*
X66824906Y-100708663D01*
X66841195Y-100695295D01*
X66854564Y-100679005D01*
X66854568Y-100679001D01*
X66894555Y-100630277D01*
X66934204Y-100556097D01*
X66934205Y-100556096D01*
X66958622Y-100475607D01*
X66964800Y-100412878D01*
X66964800Y-100412867D01*
X66966865Y-100391900D01*
X66964800Y-100370933D01*
X66964800Y-100369302D01*
X69473000Y-100369302D01*
X69473000Y-100630698D01*
X69523996Y-100887072D01*
X69624028Y-101128570D01*
X69769252Y-101345913D01*
X69954087Y-101530748D01*
X70171430Y-101675972D01*
X70412928Y-101776004D01*
X70669302Y-101827000D01*
X70930698Y-101827000D01*
X71187072Y-101776004D01*
X71428570Y-101675972D01*
X71645913Y-101530748D01*
X71830748Y-101345913D01*
X71975972Y-101128570D01*
X72076004Y-100887072D01*
X72127000Y-100630698D01*
X72127000Y-100369302D01*
X82173000Y-100369302D01*
X82173000Y-100630698D01*
X82223996Y-100887072D01*
X82324028Y-101128570D01*
X82469252Y-101345913D01*
X82654087Y-101530748D01*
X82871430Y-101675972D01*
X83112928Y-101776004D01*
X83369302Y-101827000D01*
X83630698Y-101827000D01*
X83887072Y-101776004D01*
X84128570Y-101675972D01*
X84345913Y-101530748D01*
X84530748Y-101345913D01*
X84675972Y-101128570D01*
X84776004Y-100887072D01*
X84798229Y-100775339D01*
X88016674Y-97556895D01*
X88124602Y-97718421D01*
X88281579Y-97875398D01*
X88466165Y-97998734D01*
X88671266Y-98083690D01*
X88889000Y-98127000D01*
X89111000Y-98127000D01*
X89328734Y-98083690D01*
X89533835Y-97998734D01*
X89718421Y-97875398D01*
X89875398Y-97718421D01*
X89998734Y-97533835D01*
X90083690Y-97328734D01*
X90127000Y-97111000D01*
X90127000Y-96889000D01*
X90083690Y-96671266D01*
X89998734Y-96466165D01*
X89875398Y-96281579D01*
X89718421Y-96124602D01*
X89533835Y-96001266D01*
X89328734Y-95916310D01*
X89111000Y-95873000D01*
X88889000Y-95873000D01*
X88671266Y-95916310D01*
X88466165Y-96001266D01*
X88281579Y-96124602D01*
X88124602Y-96281579D01*
X88001266Y-96466165D01*
X87957365Y-96572151D01*
X87948742Y-96573000D01*
X87948722Y-96573000D01*
X87885993Y-96579178D01*
X87805504Y-96603595D01*
X87770973Y-96622052D01*
X87731323Y-96643245D01*
X87682598Y-96683233D01*
X87682595Y-96683236D01*
X87666305Y-96696605D01*
X87652936Y-96712895D01*
X84603245Y-99762587D01*
X84530748Y-99654087D01*
X84345913Y-99469252D01*
X84128570Y-99324028D01*
X83887072Y-99223996D01*
X83630698Y-99173000D01*
X83369302Y-99173000D01*
X83112928Y-99223996D01*
X82871430Y-99324028D01*
X82654087Y-99469252D01*
X82469252Y-99654087D01*
X82324028Y-99871430D01*
X82223996Y-100112928D01*
X82173000Y-100369302D01*
X72127000Y-100369302D01*
X72076004Y-100112928D01*
X71975972Y-99871430D01*
X71830748Y-99654087D01*
X71645913Y-99469252D01*
X71428570Y-99324028D01*
X71187072Y-99223996D01*
X70930698Y-99173000D01*
X70669302Y-99173000D01*
X70412928Y-99223996D01*
X70171430Y-99324028D01*
X69954087Y-99469252D01*
X69769252Y-99654087D01*
X69624028Y-99871430D01*
X69523996Y-100112928D01*
X69473000Y-100369302D01*
X66964800Y-100369302D01*
X66964800Y-99469067D01*
X66966865Y-99448100D01*
X66964800Y-99427133D01*
X66964800Y-99427122D01*
X66958622Y-99364393D01*
X66934205Y-99283904D01*
X66902184Y-99223996D01*
X66894555Y-99209723D01*
X66854568Y-99160999D01*
X66854564Y-99160995D01*
X66841195Y-99144705D01*
X66824905Y-99131336D01*
X66056894Y-98363326D01*
X66218421Y-98255398D01*
X66375398Y-98098421D01*
X66498734Y-97913835D01*
X66583690Y-97708734D01*
X66627000Y-97491000D01*
X66627000Y-97269000D01*
X66583690Y-97051266D01*
X66498734Y-96846165D01*
X66375398Y-96661579D01*
X66218421Y-96504602D01*
X66033835Y-96381266D01*
X65828734Y-96296310D01*
X65611000Y-96253000D01*
X65389000Y-96253000D01*
X65171266Y-96296310D01*
X64966165Y-96381266D01*
X64781579Y-96504602D01*
X64624602Y-96661579D01*
X64501266Y-96846165D01*
X64416310Y-97051266D01*
X64373000Y-97269000D01*
X64373000Y-97491000D01*
X64416310Y-97708734D01*
X64501266Y-97913835D01*
X64624602Y-98098421D01*
X64781579Y-98255398D01*
X64966165Y-98378734D01*
X65072150Y-98422635D01*
X65079179Y-98494006D01*
X65103596Y-98574496D01*
X65143245Y-98648676D01*
X65183232Y-98697400D01*
X65183237Y-98697405D01*
X65196606Y-98713695D01*
X65212895Y-98727063D01*
X65297110Y-98811278D01*
X65171266Y-98836310D01*
X64966165Y-98921266D01*
X64781579Y-99044602D01*
X64624602Y-99201579D01*
X64501266Y-99386165D01*
X64416310Y-99591266D01*
X64373000Y-99809000D01*
X64373000Y-100031000D01*
X64416310Y-100248734D01*
X64501266Y-100453835D01*
X64624602Y-100638421D01*
X64781579Y-100795398D01*
X64966165Y-100918734D01*
X65171266Y-101003690D01*
X65297110Y-101028722D01*
X65212895Y-101112937D01*
X65196606Y-101126305D01*
X65183237Y-101142595D01*
X65183232Y-101142600D01*
X65143245Y-101191324D01*
X65122667Y-101229824D01*
X65103596Y-101265504D01*
X65079204Y-101345913D01*
X65079179Y-101345994D01*
X65072150Y-101417365D01*
X64966165Y-101461266D01*
X64781579Y-101584602D01*
X64624602Y-101741579D01*
X64501266Y-101926165D01*
X64416310Y-102131266D01*
X64373000Y-102349000D01*
X64373000Y-102467931D01*
X61237532Y-105603400D01*
X58832252Y-105603400D01*
X58878734Y-105533835D01*
X58963690Y-105328734D01*
X59007000Y-105111000D01*
X59007000Y-104889000D01*
X58963690Y-104671266D01*
X58878734Y-104466165D01*
X58755398Y-104281579D01*
X58598421Y-104124602D01*
X58413835Y-104001266D01*
X58208734Y-103916310D01*
X57991000Y-103873000D01*
X57769000Y-103873000D01*
X57551266Y-103916310D01*
X57346165Y-104001266D01*
X57161579Y-104124602D01*
X57004602Y-104281579D01*
X56881266Y-104466165D01*
X56796310Y-104671266D01*
X56753000Y-104889000D01*
X56753000Y-105111000D01*
X56796310Y-105328734D01*
X56881266Y-105533835D01*
X56927748Y-105603400D01*
X56562200Y-105603400D01*
X56562200Y-105006167D01*
X56564265Y-104985200D01*
X56562200Y-104964233D01*
X56562200Y-104964222D01*
X56556022Y-104901493D01*
X56531605Y-104821004D01*
X56531605Y-104821003D01*
X56491956Y-104746824D01*
X56451968Y-104698099D01*
X56451964Y-104698095D01*
X56438595Y-104681805D01*
X56422305Y-104668436D01*
X54102869Y-102349000D01*
X56753000Y-102349000D01*
X56753000Y-102571000D01*
X56796310Y-102788734D01*
X56881266Y-102993835D01*
X57004602Y-103178421D01*
X57161579Y-103335398D01*
X57346165Y-103458734D01*
X57551266Y-103543690D01*
X57769000Y-103587000D01*
X57991000Y-103587000D01*
X58208734Y-103543690D01*
X58413835Y-103458734D01*
X58598421Y-103335398D01*
X58755398Y-103178421D01*
X58878734Y-102993835D01*
X58963690Y-102788734D01*
X59007000Y-102571000D01*
X59007000Y-102349000D01*
X58963690Y-102131266D01*
X58878734Y-101926165D01*
X58755398Y-101741579D01*
X58598421Y-101584602D01*
X58413835Y-101461266D01*
X58208734Y-101376310D01*
X57991000Y-101333000D01*
X57769000Y-101333000D01*
X57551266Y-101376310D01*
X57346165Y-101461266D01*
X57161579Y-101584602D01*
X57004602Y-101741579D01*
X56881266Y-101926165D01*
X56796310Y-102131266D01*
X56753000Y-102349000D01*
X54102869Y-102349000D01*
X51562869Y-99809000D01*
X56753000Y-99809000D01*
X56753000Y-100031000D01*
X56796310Y-100248734D01*
X56881266Y-100453835D01*
X57004602Y-100638421D01*
X57161579Y-100795398D01*
X57346165Y-100918734D01*
X57551266Y-101003690D01*
X57769000Y-101047000D01*
X57991000Y-101047000D01*
X58208734Y-101003690D01*
X58413835Y-100918734D01*
X58598421Y-100795398D01*
X58755398Y-100638421D01*
X58878734Y-100453835D01*
X58963690Y-100248734D01*
X59007000Y-100031000D01*
X59007000Y-99809000D01*
X58963690Y-99591266D01*
X58878734Y-99386165D01*
X58755398Y-99201579D01*
X58598421Y-99044602D01*
X58413835Y-98921266D01*
X58208734Y-98836310D01*
X57991000Y-98793000D01*
X57769000Y-98793000D01*
X57551266Y-98836310D01*
X57346165Y-98921266D01*
X57161579Y-99044602D01*
X57004602Y-99201579D01*
X56881266Y-99386165D01*
X56796310Y-99591266D01*
X56753000Y-99809000D01*
X51562869Y-99809000D01*
X49672453Y-97918585D01*
X49798542Y-97729880D01*
X49966418Y-97324592D01*
X50052000Y-96894340D01*
X50052000Y-96455660D01*
X49966418Y-96025408D01*
X49909916Y-95889000D01*
X50873000Y-95889000D01*
X50873000Y-96111000D01*
X50916310Y-96328734D01*
X51001266Y-96533835D01*
X51124602Y-96718421D01*
X51281579Y-96875398D01*
X51466165Y-96998734D01*
X51671266Y-97083690D01*
X51889000Y-97127000D01*
X52111000Y-97127000D01*
X52328734Y-97083690D01*
X52533835Y-96998734D01*
X52718421Y-96875398D01*
X52875398Y-96718421D01*
X52998734Y-96533835D01*
X53083690Y-96328734D01*
X53127000Y-96111000D01*
X53127000Y-95889000D01*
X53373000Y-95889000D01*
X53373000Y-96111000D01*
X53416310Y-96328734D01*
X53501266Y-96533835D01*
X53624602Y-96718421D01*
X53781579Y-96875398D01*
X53966165Y-96998734D01*
X54171266Y-97083690D01*
X54389000Y-97127000D01*
X54611000Y-97127000D01*
X54828734Y-97083690D01*
X55033835Y-96998734D01*
X55218421Y-96875398D01*
X55375398Y-96718421D01*
X55459053Y-96593222D01*
X56532936Y-97667105D01*
X56546305Y-97683395D01*
X56562595Y-97696764D01*
X56562599Y-97696768D01*
X56611323Y-97736756D01*
X56668238Y-97767176D01*
X56685504Y-97776405D01*
X56765993Y-97800822D01*
X56828722Y-97807000D01*
X56828733Y-97807000D01*
X56837365Y-97807850D01*
X56881266Y-97913835D01*
X57004602Y-98098421D01*
X57161579Y-98255398D01*
X57346165Y-98378734D01*
X57551266Y-98463690D01*
X57769000Y-98507000D01*
X57991000Y-98507000D01*
X58208734Y-98463690D01*
X58413835Y-98378734D01*
X58598421Y-98255398D01*
X58755398Y-98098421D01*
X58878734Y-97913835D01*
X58963690Y-97708734D01*
X59007000Y-97491000D01*
X59007000Y-97269000D01*
X58963690Y-97051266D01*
X58878734Y-96846165D01*
X58755398Y-96661579D01*
X58598421Y-96504602D01*
X58413835Y-96381266D01*
X58208734Y-96296310D01*
X57991000Y-96253000D01*
X57769000Y-96253000D01*
X57551266Y-96296310D01*
X57346165Y-96381266D01*
X57161579Y-96504602D01*
X57004602Y-96661579D01*
X56896674Y-96823105D01*
X55786468Y-95712900D01*
X55773095Y-95696605D01*
X55708076Y-95643245D01*
X55633896Y-95603595D01*
X55553407Y-95579178D01*
X55545211Y-95578371D01*
X55498734Y-95466165D01*
X55375398Y-95281579D01*
X55218421Y-95124602D01*
X55033835Y-95001266D01*
X54828734Y-94916310D01*
X54611000Y-94873000D01*
X54389000Y-94873000D01*
X54171266Y-94916310D01*
X53966165Y-95001266D01*
X53781579Y-95124602D01*
X53624602Y-95281579D01*
X53501266Y-95466165D01*
X53416310Y-95671266D01*
X53373000Y-95889000D01*
X53127000Y-95889000D01*
X53083690Y-95671266D01*
X52998734Y-95466165D01*
X52875398Y-95281579D01*
X52718421Y-95124602D01*
X52533835Y-95001266D01*
X52328734Y-94916310D01*
X52111000Y-94873000D01*
X51889000Y-94873000D01*
X51671266Y-94916310D01*
X51466165Y-95001266D01*
X51281579Y-95124602D01*
X51124602Y-95281579D01*
X51001266Y-95466165D01*
X50916310Y-95671266D01*
X50873000Y-95889000D01*
X49909916Y-95889000D01*
X49798542Y-95620120D01*
X49554824Y-95255370D01*
X49244630Y-94945176D01*
X48879880Y-94701458D01*
X48474592Y-94533582D01*
X48044340Y-94448000D01*
X47605660Y-94448000D01*
X47175408Y-94533582D01*
X46770120Y-94701458D01*
X46405370Y-94945176D01*
X46095176Y-95255370D01*
X45851458Y-95620120D01*
X45683582Y-96025408D01*
X45598000Y-96455660D01*
X41352000Y-96455660D01*
X41352000Y-90889000D01*
X50873000Y-90889000D01*
X50873000Y-91111000D01*
X50916310Y-91328734D01*
X51001266Y-91533835D01*
X51124602Y-91718421D01*
X51281579Y-91875398D01*
X51466165Y-91998734D01*
X51671266Y-92083690D01*
X51889000Y-92127000D01*
X52111000Y-92127000D01*
X52328734Y-92083690D01*
X52533835Y-91998734D01*
X52718421Y-91875398D01*
X52875398Y-91718421D01*
X52998734Y-91533835D01*
X53083690Y-91328734D01*
X53127000Y-91111000D01*
X53127000Y-90889000D01*
X53373000Y-90889000D01*
X53373000Y-91111000D01*
X53416310Y-91328734D01*
X53501266Y-91533835D01*
X53624602Y-91718421D01*
X53781579Y-91875398D01*
X53966165Y-91998734D01*
X54171266Y-92083690D01*
X54389000Y-92127000D01*
X54611000Y-92127000D01*
X54828734Y-92083690D01*
X55033835Y-91998734D01*
X55218421Y-91875398D01*
X55375398Y-91718421D01*
X55498734Y-91533835D01*
X55583690Y-91328734D01*
X55627000Y-91111000D01*
X55627000Y-90889000D01*
X55583690Y-90671266D01*
X55498734Y-90466165D01*
X55375398Y-90281579D01*
X55243819Y-90150000D01*
X57821418Y-90150000D01*
X57821418Y-91850000D01*
X57827732Y-91914103D01*
X57846430Y-91975743D01*
X57876794Y-92032550D01*
X57917657Y-92082343D01*
X57967450Y-92123206D01*
X58024257Y-92153570D01*
X58085897Y-92172268D01*
X58150000Y-92178582D01*
X59850000Y-92178582D01*
X59914103Y-92172268D01*
X59975743Y-92153570D01*
X60032550Y-92123206D01*
X60082343Y-92082343D01*
X60123206Y-92032550D01*
X60153570Y-91975743D01*
X60172268Y-91914103D01*
X60178582Y-91850000D01*
X60178582Y-91837150D01*
X61508536Y-93167105D01*
X61521905Y-93183395D01*
X61538195Y-93196764D01*
X61538199Y-93196768D01*
X61586923Y-93236756D01*
X61661103Y-93276405D01*
X61679837Y-93282088D01*
X61741593Y-93300822D01*
X61804322Y-93307000D01*
X61804333Y-93307000D01*
X61825300Y-93309065D01*
X61846267Y-93307000D01*
X69471418Y-93307000D01*
X69471418Y-93880000D01*
X69477732Y-93944103D01*
X69496430Y-94005743D01*
X69526794Y-94062550D01*
X69567657Y-94112343D01*
X69617450Y-94153206D01*
X69674257Y-94183570D01*
X69735897Y-94202268D01*
X69800000Y-94208582D01*
X71800000Y-94208582D01*
X71864103Y-94202268D01*
X71925743Y-94183570D01*
X71982550Y-94153206D01*
X72032343Y-94112343D01*
X72073206Y-94062550D01*
X72103570Y-94005743D01*
X72122268Y-93944103D01*
X72128582Y-93880000D01*
X72128582Y-92749302D01*
X82173000Y-92749302D01*
X82173000Y-93010698D01*
X82223996Y-93267072D01*
X82324028Y-93508570D01*
X82469252Y-93725913D01*
X82654087Y-93910748D01*
X82871430Y-94055972D01*
X83112928Y-94156004D01*
X83369302Y-94207000D01*
X83630698Y-94207000D01*
X83887072Y-94156004D01*
X84128570Y-94055972D01*
X84345913Y-93910748D01*
X84530748Y-93725913D01*
X84675972Y-93508570D01*
X84759465Y-93307000D01*
X94703132Y-93307000D01*
X99652546Y-98256415D01*
X99526458Y-98445120D01*
X99358582Y-98850408D01*
X99273000Y-99280660D01*
X99273000Y-99719340D01*
X99358582Y-100149592D01*
X99526458Y-100554880D01*
X99770176Y-100919630D01*
X100080370Y-101229824D01*
X100445120Y-101473542D01*
X100850408Y-101641418D01*
X101280660Y-101727000D01*
X101719340Y-101727000D01*
X102149592Y-101641418D01*
X102554880Y-101473542D01*
X102919630Y-101229824D01*
X103229824Y-100919630D01*
X103473542Y-100554880D01*
X103641418Y-100149592D01*
X103727000Y-99719340D01*
X103727000Y-99280660D01*
X103641418Y-98850408D01*
X103473542Y-98445120D01*
X103229824Y-98080370D01*
X102919630Y-97770176D01*
X102554880Y-97526458D01*
X102149592Y-97358582D01*
X101719340Y-97273000D01*
X101280660Y-97273000D01*
X100850408Y-97358582D01*
X100445120Y-97526458D01*
X100256415Y-97652546D01*
X95196767Y-92592899D01*
X95183395Y-92576605D01*
X95118376Y-92523245D01*
X95044196Y-92483595D01*
X94963707Y-92459178D01*
X94900978Y-92453000D01*
X94900967Y-92453000D01*
X94880000Y-92450935D01*
X94859033Y-92453000D01*
X84759465Y-92453000D01*
X84675972Y-92251430D01*
X84530748Y-92034087D01*
X84345913Y-91849252D01*
X84128570Y-91704028D01*
X83887072Y-91603996D01*
X83630698Y-91553000D01*
X83369302Y-91553000D01*
X83112928Y-91603996D01*
X82871430Y-91704028D01*
X82654087Y-91849252D01*
X82469252Y-92034087D01*
X82324028Y-92251430D01*
X82223996Y-92492928D01*
X82173000Y-92749302D01*
X72128582Y-92749302D01*
X72128582Y-91880000D01*
X72122268Y-91815897D01*
X72103570Y-91754257D01*
X72073206Y-91697450D01*
X72032343Y-91647657D01*
X71982550Y-91606794D01*
X71925743Y-91576430D01*
X71864103Y-91557732D01*
X71800000Y-91551418D01*
X69800000Y-91551418D01*
X69735897Y-91557732D01*
X69674257Y-91576430D01*
X69617450Y-91606794D01*
X69567657Y-91647657D01*
X69526794Y-91697450D01*
X69496430Y-91754257D01*
X69477732Y-91815897D01*
X69471418Y-91880000D01*
X69471418Y-92453000D01*
X62002169Y-92453000D01*
X61714515Y-92165346D01*
X61883318Y-92131769D01*
X62097519Y-92043044D01*
X62290294Y-91914236D01*
X62454236Y-91750294D01*
X62583044Y-91557519D01*
X62671769Y-91343318D01*
X62717000Y-91115924D01*
X62717000Y-90884076D01*
X62903000Y-90884076D01*
X62903000Y-91115924D01*
X62948231Y-91343318D01*
X63036956Y-91557519D01*
X63165764Y-91750294D01*
X63329706Y-91914236D01*
X63522481Y-92043044D01*
X63736682Y-92131769D01*
X63964076Y-92177000D01*
X64195924Y-92177000D01*
X64423318Y-92131769D01*
X64637519Y-92043044D01*
X64830294Y-91914236D01*
X64994236Y-91750294D01*
X65123044Y-91557519D01*
X65211769Y-91343318D01*
X65224232Y-91280660D01*
X99273000Y-91280660D01*
X99273000Y-91719340D01*
X99358582Y-92149592D01*
X99526458Y-92554880D01*
X99770176Y-92919630D01*
X100080370Y-93229824D01*
X100445120Y-93473542D01*
X100850408Y-93641418D01*
X101280660Y-93727000D01*
X101719340Y-93727000D01*
X102149592Y-93641418D01*
X102554880Y-93473542D01*
X102919630Y-93229824D01*
X103229824Y-92919630D01*
X103473542Y-92554880D01*
X103641418Y-92149592D01*
X103727000Y-91719340D01*
X103727000Y-91280660D01*
X103641418Y-90850408D01*
X103473542Y-90445120D01*
X103229824Y-90080370D01*
X102919630Y-89770176D01*
X102554880Y-89526458D01*
X102149592Y-89358582D01*
X101719340Y-89273000D01*
X101280660Y-89273000D01*
X100850408Y-89358582D01*
X100445120Y-89526458D01*
X100080370Y-89770176D01*
X99770176Y-90080370D01*
X99526458Y-90445120D01*
X99358582Y-90850408D01*
X99273000Y-91280660D01*
X65224232Y-91280660D01*
X65257000Y-91115924D01*
X65257000Y-90884076D01*
X65211769Y-90656682D01*
X65123044Y-90442481D01*
X64994236Y-90249706D01*
X64830294Y-90085764D01*
X64637519Y-89956956D01*
X64423318Y-89868231D01*
X64195924Y-89823000D01*
X63964076Y-89823000D01*
X63736682Y-89868231D01*
X63522481Y-89956956D01*
X63329706Y-90085764D01*
X63165764Y-90249706D01*
X63036956Y-90442481D01*
X62948231Y-90656682D01*
X62903000Y-90884076D01*
X62717000Y-90884076D01*
X62671769Y-90656682D01*
X62583044Y-90442481D01*
X62454236Y-90249706D01*
X62290294Y-90085764D01*
X62097519Y-89956956D01*
X61883318Y-89868231D01*
X61655924Y-89823000D01*
X61424076Y-89823000D01*
X61196682Y-89868231D01*
X60982481Y-89956956D01*
X60789706Y-90085764D01*
X60625764Y-90249706D01*
X60496956Y-90442481D01*
X60408231Y-90656682D01*
X60397052Y-90712881D01*
X60383695Y-90696605D01*
X60318676Y-90643245D01*
X60244496Y-90603595D01*
X60178582Y-90583599D01*
X60178582Y-90150000D01*
X60172268Y-90085897D01*
X60153570Y-90024257D01*
X60123206Y-89967450D01*
X60082343Y-89917657D01*
X60032550Y-89876794D01*
X59975743Y-89846430D01*
X59914103Y-89827732D01*
X59850000Y-89821418D01*
X58150000Y-89821418D01*
X58085897Y-89827732D01*
X58024257Y-89846430D01*
X57967450Y-89876794D01*
X57917657Y-89917657D01*
X57876794Y-89967450D01*
X57846430Y-90024257D01*
X57827732Y-90085897D01*
X57821418Y-90150000D01*
X55243819Y-90150000D01*
X55218421Y-90124602D01*
X55033835Y-90001266D01*
X54828734Y-89916310D01*
X54611000Y-89873000D01*
X54389000Y-89873000D01*
X54171266Y-89916310D01*
X53966165Y-90001266D01*
X53781579Y-90124602D01*
X53624602Y-90281579D01*
X53501266Y-90466165D01*
X53416310Y-90671266D01*
X53373000Y-90889000D01*
X53127000Y-90889000D01*
X53083690Y-90671266D01*
X52998734Y-90466165D01*
X52875398Y-90281579D01*
X52718421Y-90124602D01*
X52533835Y-90001266D01*
X52328734Y-89916310D01*
X52111000Y-89873000D01*
X51889000Y-89873000D01*
X51671266Y-89916310D01*
X51466165Y-90001266D01*
X51281579Y-90124602D01*
X51124602Y-90281579D01*
X51001266Y-90466165D01*
X50916310Y-90671266D01*
X50873000Y-90889000D01*
X41352000Y-90889000D01*
X41352000Y-85352000D01*
X110648000Y-85352000D01*
X110648001Y-139148000D01*
G37*
%TD.AperFunction*%
D31*
X55960541Y-130334211D02*
X55973905Y-130350495D01*
X55990189Y-130363859D01*
X55990198Y-130363868D01*
X56038923Y-130403855D01*
X56058087Y-130414098D01*
X56113104Y-130443505D01*
X56193593Y-130467922D01*
X56256322Y-130474100D01*
X56256334Y-130474100D01*
X56277299Y-130476165D01*
X56298264Y-130474100D01*
X71742733Y-130474100D01*
X71763700Y-130476165D01*
X71784667Y-130474100D01*
X71784678Y-130474100D01*
X71847407Y-130467922D01*
X71927896Y-130443505D01*
X72002076Y-130403855D01*
X72067095Y-130350495D01*
X72080468Y-130334200D01*
X72414605Y-130000064D01*
X72430895Y-129986695D01*
X72444264Y-129970405D01*
X72444268Y-129970401D01*
X72484255Y-129921677D01*
X72523904Y-129847497D01*
X72523905Y-129847496D01*
X72548322Y-129767007D01*
X72554500Y-129704278D01*
X72554500Y-129704267D01*
X72556565Y-129683300D01*
X72554500Y-129662333D01*
X72554500Y-129516024D01*
X72570322Y-129486423D01*
X72597597Y-129396508D01*
X72604500Y-129326422D01*
X72604500Y-129105000D01*
X72825923Y-129105000D01*
X72896008Y-129098097D01*
X72985923Y-129070822D01*
X73015524Y-129055000D01*
X80300832Y-129055000D01*
X82652941Y-131407111D01*
X82666305Y-131423395D01*
X82682589Y-131436759D01*
X82682598Y-131436768D01*
X82731323Y-131476755D01*
X82770973Y-131497948D01*
X82805504Y-131516405D01*
X82885993Y-131540822D01*
X82948722Y-131547000D01*
X82948732Y-131547000D01*
X82957366Y-131547850D01*
X83001266Y-131653835D01*
X83054964Y-131734200D01*
X56838069Y-131734200D01*
X53539437Y-128435569D01*
X53583690Y-128328734D01*
X53627000Y-128111000D01*
X53627000Y-128000668D01*
X55960541Y-130334211D01*
%TA.AperFunction,Conductor*%
D32*
G36*
X55960541Y-130334211D02*
G01*
X55973905Y-130350495D01*
X55990189Y-130363859D01*
X55990198Y-130363868D01*
X56038923Y-130403855D01*
X56058087Y-130414098D01*
X56113104Y-130443505D01*
X56193593Y-130467922D01*
X56256322Y-130474100D01*
X56256334Y-130474100D01*
X56277299Y-130476165D01*
X56298264Y-130474100D01*
X71742733Y-130474100D01*
X71763700Y-130476165D01*
X71784667Y-130474100D01*
X71784678Y-130474100D01*
X71847407Y-130467922D01*
X71927896Y-130443505D01*
X72002076Y-130403855D01*
X72067095Y-130350495D01*
X72080468Y-130334200D01*
X72414605Y-130000064D01*
X72430895Y-129986695D01*
X72444264Y-129970405D01*
X72444268Y-129970401D01*
X72484255Y-129921677D01*
X72523904Y-129847497D01*
X72523905Y-129847496D01*
X72548322Y-129767007D01*
X72554500Y-129704278D01*
X72554500Y-129704267D01*
X72556565Y-129683300D01*
X72554500Y-129662333D01*
X72554500Y-129516024D01*
X72570322Y-129486423D01*
X72597597Y-129396508D01*
X72604500Y-129326422D01*
X72604500Y-129105000D01*
X72825923Y-129105000D01*
X72896008Y-129098097D01*
X72985923Y-129070822D01*
X73015524Y-129055000D01*
X80300832Y-129055000D01*
X82652941Y-131407111D01*
X82666305Y-131423395D01*
X82682589Y-131436759D01*
X82682598Y-131436768D01*
X82731323Y-131476755D01*
X82770973Y-131497948D01*
X82805504Y-131516405D01*
X82885993Y-131540822D01*
X82948722Y-131547000D01*
X82948732Y-131547000D01*
X82957366Y-131547850D01*
X83001266Y-131653835D01*
X83054964Y-131734200D01*
X56838069Y-131734200D01*
X53539437Y-128435569D01*
X53583690Y-128328734D01*
X53627000Y-128111000D01*
X53627000Y-128000668D01*
X55960541Y-130334211D01*
G37*
%TD.AperFunction*%
D31*
X88253653Y-130019922D02*
X88171266Y-130036310D01*
X87966165Y-130121266D01*
X87781579Y-130244602D01*
X87624602Y-130401579D01*
X87501266Y-130586165D01*
X87457013Y-130693000D01*
X85042987Y-130693000D01*
X84998734Y-130586165D01*
X84875398Y-130401579D01*
X84718421Y-130244602D01*
X84533835Y-130121266D01*
X84328734Y-130036310D01*
X84111000Y-129993000D01*
X83889000Y-129993000D01*
X83671266Y-130036310D01*
X83466165Y-130121266D01*
X83281579Y-130244602D01*
X83124602Y-130401579D01*
X83016674Y-130563105D01*
X81008568Y-128555000D01*
X86788732Y-128555000D01*
X88253653Y-130019922D01*
%TA.AperFunction,Conductor*%
D32*
G36*
X88253653Y-130019922D02*
G01*
X88171266Y-130036310D01*
X87966165Y-130121266D01*
X87781579Y-130244602D01*
X87624602Y-130401579D01*
X87501266Y-130586165D01*
X87457013Y-130693000D01*
X85042987Y-130693000D01*
X84998734Y-130586165D01*
X84875398Y-130401579D01*
X84718421Y-130244602D01*
X84533835Y-130121266D01*
X84328734Y-130036310D01*
X84111000Y-129993000D01*
X83889000Y-129993000D01*
X83671266Y-130036310D01*
X83466165Y-130121266D01*
X83281579Y-130244602D01*
X83124602Y-130401579D01*
X83016674Y-130563105D01*
X81008568Y-128555000D01*
X86788732Y-128555000D01*
X88253653Y-130019922D01*
G37*
%TD.AperFunction*%
D31*
X51501266Y-123533835D02*
X51624602Y-123718421D01*
X51781579Y-123875398D01*
X51966165Y-123998734D01*
X52171266Y-124083690D01*
X52389000Y-124127000D01*
X52611000Y-124127000D01*
X52828734Y-124083690D01*
X52935569Y-124039437D01*
X58516231Y-129620100D01*
X56454170Y-129620100D01*
X53516566Y-126682498D01*
X53503195Y-126666205D01*
X53438176Y-126612845D01*
X53363996Y-126573195D01*
X53283507Y-126548778D01*
X53220778Y-126542600D01*
X53220767Y-126542600D01*
X53199800Y-126540535D01*
X53178833Y-126542600D01*
X52927934Y-126542600D01*
X53033835Y-126498734D01*
X53218421Y-126375398D01*
X53375398Y-126218421D01*
X53498734Y-126033835D01*
X53583690Y-125828734D01*
X53627000Y-125611000D01*
X53627000Y-125389000D01*
X53583690Y-125171266D01*
X53498734Y-124966165D01*
X53375398Y-124781579D01*
X53218421Y-124624602D01*
X53033835Y-124501266D01*
X52828734Y-124416310D01*
X52611000Y-124373000D01*
X52389000Y-124373000D01*
X52171266Y-124416310D01*
X51966165Y-124501266D01*
X51781579Y-124624602D01*
X51624602Y-124781579D01*
X51501266Y-124966165D01*
X51416310Y-125171266D01*
X51373000Y-125389000D01*
X51373000Y-125611000D01*
X51416310Y-125828734D01*
X51501266Y-126033835D01*
X51624602Y-126218421D01*
X51781579Y-126375398D01*
X51966165Y-126498734D01*
X52072066Y-126542600D01*
X48852670Y-126542600D01*
X47776666Y-125466597D01*
X47792273Y-125463493D01*
X47974625Y-125387961D01*
X48138738Y-125278304D01*
X48278304Y-125138738D01*
X48387961Y-124974625D01*
X48406898Y-124928908D01*
X48426267Y-124927000D01*
X48426278Y-124927000D01*
X48489007Y-124920822D01*
X48569496Y-124896405D01*
X48643676Y-124856755D01*
X48708695Y-124803395D01*
X48722068Y-124787100D01*
X50082170Y-123427000D01*
X51457013Y-123427000D01*
X51501266Y-123533835D01*
%TA.AperFunction,Conductor*%
D32*
G36*
X51501266Y-123533835D02*
G01*
X51624602Y-123718421D01*
X51781579Y-123875398D01*
X51966165Y-123998734D01*
X52171266Y-124083690D01*
X52389000Y-124127000D01*
X52611000Y-124127000D01*
X52828734Y-124083690D01*
X52935569Y-124039437D01*
X58516231Y-129620100D01*
X56454170Y-129620100D01*
X53516566Y-126682498D01*
X53503195Y-126666205D01*
X53438176Y-126612845D01*
X53363996Y-126573195D01*
X53283507Y-126548778D01*
X53220778Y-126542600D01*
X53220767Y-126542600D01*
X53199800Y-126540535D01*
X53178833Y-126542600D01*
X52927934Y-126542600D01*
X53033835Y-126498734D01*
X53218421Y-126375398D01*
X53375398Y-126218421D01*
X53498734Y-126033835D01*
X53583690Y-125828734D01*
X53627000Y-125611000D01*
X53627000Y-125389000D01*
X53583690Y-125171266D01*
X53498734Y-124966165D01*
X53375398Y-124781579D01*
X53218421Y-124624602D01*
X53033835Y-124501266D01*
X52828734Y-124416310D01*
X52611000Y-124373000D01*
X52389000Y-124373000D01*
X52171266Y-124416310D01*
X51966165Y-124501266D01*
X51781579Y-124624602D01*
X51624602Y-124781579D01*
X51501266Y-124966165D01*
X51416310Y-125171266D01*
X51373000Y-125389000D01*
X51373000Y-125611000D01*
X51416310Y-125828734D01*
X51501266Y-126033835D01*
X51624602Y-126218421D01*
X51781579Y-126375398D01*
X51966165Y-126498734D01*
X52072066Y-126542600D01*
X48852670Y-126542600D01*
X47776666Y-125466597D01*
X47792273Y-125463493D01*
X47974625Y-125387961D01*
X48138738Y-125278304D01*
X48278304Y-125138738D01*
X48387961Y-124974625D01*
X48406898Y-124928908D01*
X48426267Y-124927000D01*
X48426278Y-124927000D01*
X48489007Y-124920822D01*
X48569496Y-124896405D01*
X48643676Y-124856755D01*
X48708695Y-124803395D01*
X48722068Y-124787100D01*
X50082170Y-123427000D01*
X51457013Y-123427000D01*
X51501266Y-123533835D01*
G37*
%TD.AperFunction*%
D31*
X69285096Y-126626236D02*
X69268806Y-126639605D01*
X69255437Y-126655895D01*
X69255432Y-126655900D01*
X69215445Y-126704624D01*
X69179836Y-126771245D01*
X69175796Y-126778804D01*
X69155258Y-126846508D01*
X69151379Y-126859294D01*
X69143135Y-126943000D01*
X69145201Y-126963977D01*
X69145201Y-127097132D01*
X65702000Y-123653932D01*
X65702000Y-122584465D01*
X65903570Y-122500972D01*
X66120913Y-122355748D01*
X66305748Y-122170913D01*
X66450972Y-121953570D01*
X66551004Y-121712072D01*
X66602000Y-121455698D01*
X66602000Y-121194302D01*
X66551004Y-120937928D01*
X66450972Y-120696430D01*
X66305748Y-120479087D01*
X66120913Y-120294252D01*
X65903570Y-120149028D01*
X65662072Y-120048996D01*
X65451466Y-120007104D01*
X65531570Y-119927000D01*
X75984331Y-119927000D01*
X69285096Y-126626236D01*
%TA.AperFunction,Conductor*%
D32*
G36*
X69285096Y-126626236D02*
G01*
X69268806Y-126639605D01*
X69255437Y-126655895D01*
X69255432Y-126655900D01*
X69215445Y-126704624D01*
X69179836Y-126771245D01*
X69175796Y-126778804D01*
X69155258Y-126846508D01*
X69151379Y-126859294D01*
X69143135Y-126943000D01*
X69145201Y-126963977D01*
X69145201Y-127097132D01*
X65702000Y-123653932D01*
X65702000Y-122584465D01*
X65903570Y-122500972D01*
X66120913Y-122355748D01*
X66305748Y-122170913D01*
X66450972Y-121953570D01*
X66551004Y-121712072D01*
X66602000Y-121455698D01*
X66602000Y-121194302D01*
X66551004Y-120937928D01*
X66450972Y-120696430D01*
X66305748Y-120479087D01*
X66120913Y-120294252D01*
X65903570Y-120149028D01*
X65662072Y-120048996D01*
X65451466Y-120007104D01*
X65531570Y-119927000D01*
X75984331Y-119927000D01*
X69285096Y-126626236D01*
G37*
%TD.AperFunction*%
%TD*%
M02*
