M48
; DRILL file {KiCad 5.1.10} date Mon Jun 21 22:35:54 2021
; FORMAT={-:-/ absolute / inch / decimal}
; #@! TF.CreationDate,2021-06-21T22:35:54+02:00
; #@! TF.GenerationSoftware,Kicad,Pcbnew,5.1.10
; #@! TF.FileFunction,Plated,1,2,PTH
FMAT,2
INCH
T1C0.0074
T2C0.0157
T3C0.0315
T4C0.0354
T5C0.0394
T6C0.0449
T7C0.0866
%
G90
G05
T1
X2.7953Y-5.0197
X2.7953Y-5.0494
X2.825Y-5.0197
X2.825Y-5.0494
T2
X2.9528Y-5.0197
T3
X1.8701Y-4.8228
X1.8701Y-4.9016
X2.0472Y-3.5433
X2.0472Y-3.6417
X2.0669Y-4.5276
X2.0669Y-4.626
X2.0669Y-4.7441
X2.0669Y-4.8425
X2.0669Y-4.9409
X2.0669Y-5.0394
X2.126Y-3.8386
X2.126Y-4.1386
X2.2984Y-3.8386
X2.2984Y-3.9386
X2.2984Y-4.0386
X2.2984Y-4.1386
X2.3228Y-4.5276
X2.3228Y-4.626
X2.3228Y-4.7441
X2.3228Y-4.8425
X2.5984Y-3.8386
X2.5984Y-3.9386
X2.5984Y-4.0386
X2.5984Y-4.1386
X2.6724Y-4.4882
X2.9724Y-4.4882
X3.263Y-4.5079
X3.2677Y-4.7047
X3.3071Y-4.8622
X3.3071Y-5.1622
X3.4843Y-4.8622
X3.4843Y-5.1622
X3.5039Y-3.6024
X3.5039Y-3.7008
X3.5039Y-4.2323
X3.5039Y-4.3307
X3.563Y-4.5079
X3.5677Y-4.7047
X3.7205Y-4.9409
X3.7205Y-5.0394
X3.7402Y-3.5827
X3.7402Y-3.8827
X3.7402Y-4.0157
X3.7402Y-4.3157
X3.7402Y-4.5079
X3.7402Y-4.7047
X3.8386Y-4.5079
X3.8386Y-4.7047
T4
X3.9961Y-4.8803
X3.9961Y-4.9803
T5
X1.8701Y-4.5276
X1.8701Y-4.6276
X2.3228Y-3.5827
X2.4228Y-3.5827
X2.5228Y-3.5827
X2.5699Y-4.7766
X3.0699Y-4.7766
T6
X2.8071Y-3.6764
X2.8071Y-3.9764
X2.8071Y-4.2764
X3.3071Y-3.6764
X3.3071Y-3.9764
X3.3071Y-4.2764
T7
X1.7913Y-3.5039
X1.7913Y-5.3346
X1.8829Y-3.8061
X1.8829Y-4.0167
X3.9961Y-3.6024
X3.9961Y-3.9173
X3.9961Y-4.2126
X4.2126Y-3.5039
X4.2126Y-5.3346
T0
M30
