%TF.GenerationSoftware,KiCad,Pcbnew,5.1.10*%
%TF.CreationDate,2021-06-23T04:39:20+02:00*%
%TF.ProjectId,supply,73757070-6c79-42e6-9b69-6361645f7063,rev?*%
%TF.SameCoordinates,Original*%
%TF.FileFunction,Copper,L1,Top*%
%TF.FilePolarity,Positive*%
%FSLAX46Y46*%
G04 Gerber Fmt 4.6, Leading zero omitted, Abs format (unit mm)*
G04 Created by KiCad (PCBNEW 5.1.10) date 2021-06-23 04:39:20*
%MOMM*%
%LPD*%
G01*
G04 APERTURE LIST*
%TA.AperFunction,ComponentPad*%
%ADD10C,1.400000*%
%TD*%
%TA.AperFunction,ComponentPad*%
%ADD11O,1.400000X1.400000*%
%TD*%
%TA.AperFunction,ComponentPad*%
%ADD12O,1.700000X1.700000*%
%TD*%
%TA.AperFunction,ComponentPad*%
%ADD13R,1.700000X1.700000*%
%TD*%
%TA.AperFunction,ComponentPad*%
%ADD14C,3.800000*%
%TD*%
%TA.AperFunction,ComponentPad*%
%ADD15C,1.600000*%
%TD*%
%TA.AperFunction,ComponentPad*%
%ADD16O,1.600000X1.600000*%
%TD*%
%TA.AperFunction,ComponentPad*%
%ADD17C,2.000000*%
%TD*%
%TA.AperFunction,ComponentPad*%
%ADD18R,2.000000X2.000000*%
%TD*%
%TA.AperFunction,ComponentPad*%
%ADD19R,1.600000X1.600000*%
%TD*%
%TA.AperFunction,ComponentPad*%
%ADD20O,2.000000X2.000000*%
%TD*%
%TA.AperFunction,ComponentPad*%
%ADD21R,1.350000X1.350000*%
%TD*%
%TA.AperFunction,ComponentPad*%
%ADD22O,1.350000X1.350000*%
%TD*%
%TA.AperFunction,SMDPad,CuDef*%
%ADD23O,0.600000X0.300000*%
%TD*%
%TA.AperFunction,SMDPad,CuDef*%
%ADD24O,0.300000X0.600000*%
%TD*%
%TA.AperFunction,SMDPad,CuDef*%
%ADD25R,0.755000X0.755000*%
%TD*%
%TA.AperFunction,ComponentPad*%
%ADD26C,0.377500*%
%TD*%
%TA.AperFunction,ComponentPad*%
%ADD27R,1.800000X1.800000*%
%TD*%
%TA.AperFunction,ComponentPad*%
%ADD28C,1.800000*%
%TD*%
%TA.AperFunction,ViaPad*%
%ADD29C,0.800000*%
%TD*%
%TA.AperFunction,Conductor*%
%ADD30C,0.250000*%
%TD*%
%TA.AperFunction,Conductor*%
%ADD31C,0.200000*%
%TD*%
%TA.AperFunction,Conductor*%
%ADD32C,0.254000*%
%TD*%
%TA.AperFunction,Conductor*%
%ADD33C,0.100000*%
%TD*%
G04 APERTURE END LIST*
D10*
%TO.P,PTC1,1*%
%TO.N,Net-(C10-Pad2)*%
X101500000Y-118500000D03*
D11*
%TO.P,PTC1,2*%
%TO.N,Net-(D2-Pad2)*%
X101500000Y-113420000D03*
%TD*%
D12*
%TO.P,BT1,2*%
%TO.N,GND*%
X47500000Y-117540000D03*
D13*
%TO.P,BT1,1*%
%TO.N,Net-(BT1-Pad1)*%
X47500000Y-115000000D03*
%TD*%
D14*
%TO.P,J2,1*%
%TO.N,Net-(C6-Pad1)*%
X101500000Y-99500000D03*
%TD*%
%TO.P,J3,1*%
%TO.N,Net-(C5-Pad1)*%
X101500000Y-91500000D03*
%TD*%
%TO.P,J4,1*%
%TO.N,GND*%
X101500000Y-107000000D03*
%TD*%
D15*
%TO.P,R3,1*%
%TO.N,Net-(D2-Pad2)*%
X95000000Y-102000000D03*
D16*
%TO.P,R3,2*%
%TO.N,Net-(C6-Pad1)*%
X95000000Y-109620000D03*
%TD*%
%TO.P,R4,2*%
%TO.N,Net-(D2-Pad2)*%
X95000000Y-98620000D03*
D15*
%TO.P,R4,1*%
%TO.N,Net-(C5-Pad1)*%
X95000000Y-91000000D03*
%TD*%
D17*
%TO.P,TR1,6*%
%TO.N,Net-(C5-Pad2)*%
X84000000Y-93380000D03*
D18*
%TO.P,TR1,1*%
%TO.N,Net-(TR1-Pad1)*%
X71300000Y-93380000D03*
D17*
%TO.P,TR1,5*%
%TO.N,Net-(TR1-Pad5)*%
X84000000Y-101000000D03*
%TO.P,TR1,2*%
%TO.N,Net-(TR1-Pad2)*%
X71300000Y-101000000D03*
%TO.P,TR1,4*%
%TO.N,Net-(C6-Pad2)*%
X84000000Y-108620000D03*
%TO.P,TR1,3*%
%TO.N,GND*%
X71300000Y-108620000D03*
%TD*%
D14*
%TO.P,J6,1*%
%TO.N,Earth*%
X45500000Y-135500000D03*
%TD*%
%TO.P,J7,1*%
%TO.N,Earth*%
X107000000Y-135500000D03*
%TD*%
%TO.P,J8,1*%
%TO.N,Earth*%
X45500000Y-89000000D03*
%TD*%
%TO.P,J9,1*%
%TO.N,Earth*%
X107000000Y-89000000D03*
%TD*%
D15*
%TO.P,C1,2*%
%TO.N,GND*%
X52500000Y-117500000D03*
%TO.P,C1,1*%
%TO.N,Net-(BT1-Pad1)*%
X52500000Y-115000000D03*
%TD*%
%TO.P,C2,2*%
%TO.N,GND*%
X52500000Y-120500000D03*
%TO.P,C2,1*%
%TO.N,VCC*%
X52500000Y-123000000D03*
%TD*%
%TO.P,C3,1*%
%TO.N,Net-(C3-Pad1)*%
X95000000Y-114500000D03*
%TO.P,C3,2*%
%TO.N,GND*%
X97500000Y-114500000D03*
%TD*%
%TO.P,C4,1*%
%TO.N,Net-(C4-Pad1)*%
X52500000Y-128000000D03*
%TO.P,C4,2*%
%TO.N,GND*%
X52500000Y-125500000D03*
%TD*%
%TO.P,C5,1*%
%TO.N,Net-(C5-Pad1)*%
X89000000Y-91500000D03*
%TO.P,C5,2*%
%TO.N,Net-(C5-Pad2)*%
X89000000Y-94000000D03*
%TD*%
%TO.P,C6,2*%
%TO.N,Net-(C6-Pad2)*%
X89000000Y-110000000D03*
%TO.P,C6,1*%
%TO.N,Net-(C6-Pad1)*%
X89000000Y-107500000D03*
%TD*%
%TO.P,C7,2*%
%TO.N,GND*%
X59000000Y-115000000D03*
%TO.P,C7,1*%
%TO.N,Net-(C7-Pad1)*%
X59000000Y-117500000D03*
%TD*%
%TO.P,C8,1*%
%TO.N,Net-(C7-Pad1)*%
X59000000Y-120500000D03*
%TO.P,C8,2*%
%TO.N,Net-(C8-Pad2)*%
X59000000Y-123000000D03*
%TD*%
%TO.P,C9,2*%
%TO.N,Net-(C10-Pad2)*%
X97500000Y-119500000D03*
%TO.P,C9,1*%
%TO.N,GND*%
X95000000Y-119500000D03*
%TD*%
%TO.P,C10,1*%
%TO.N,GND*%
X94500000Y-128000000D03*
%TO.P,C10,2*%
%TO.N,Net-(C10-Pad2)*%
X94500000Y-125500000D03*
%TD*%
D19*
%TO.P,D1,1*%
%TO.N,Net-(C10-Pad2)*%
X67880000Y-114000000D03*
D16*
%TO.P,D1,2*%
%TO.N,Net-(D1-Pad2)*%
X75500000Y-114000000D03*
%TD*%
D17*
%TO.P,L1,1*%
%TO.N,VCC*%
X65275000Y-121325000D03*
D20*
%TO.P,L1,2*%
%TO.N,Net-(D1-Pad2)*%
X77975000Y-121325000D03*
%TD*%
D16*
%TO.P,R1,2*%
%TO.N,GND*%
X90620000Y-119500000D03*
D15*
%TO.P,R1,1*%
%TO.N,Net-(R1-Pad1)*%
X83000000Y-119500000D03*
%TD*%
%TO.P,R2,1*%
%TO.N,Net-(C8-Pad2)*%
X82880000Y-114500000D03*
D16*
%TO.P,R2,2*%
%TO.N,GND*%
X90500000Y-114500000D03*
%TD*%
D15*
%TO.P,R5,1*%
%TO.N,Net-(C10-Pad2)*%
X84000000Y-123500000D03*
D16*
%TO.P,R5,2*%
%TO.N,Net-(R5-Pad2)*%
X84000000Y-131120000D03*
%TD*%
%TO.P,R6,2*%
%TO.N,GND*%
X88500000Y-123500000D03*
D15*
%TO.P,R6,1*%
%TO.N,Net-(R5-Pad2)*%
X88500000Y-131120000D03*
%TD*%
D21*
%TO.P,SW1,1*%
%TO.N,Net-(BT1-Pad1)*%
X47500000Y-122500000D03*
D22*
%TO.P,SW1,2*%
%TO.N,VCC*%
X47500000Y-124500000D03*
%TD*%
D23*
%TO.P,U1,1*%
%TO.N,GND*%
X70102500Y-127128000D03*
%TO.P,U1,2*%
%TO.N,Net-(C3-Pad1)*%
X70102500Y-127628000D03*
%TO.P,U1,3*%
%TO.N,VCC*%
X70102500Y-128128000D03*
%TO.P,U1,4*%
%TO.N,Net-(U1-Pad4)*%
X70102500Y-128628000D03*
D24*
%TO.P,U1,5*%
%TO.N,Net-(R1-Pad1)*%
X70627500Y-129153000D03*
%TO.P,U1,6*%
%TO.N,VCC*%
X71127500Y-129153000D03*
%TO.P,U1,7*%
%TO.N,GND*%
X71627500Y-129153000D03*
%TO.P,U1,8*%
%TO.N,Net-(C7-Pad1)*%
X72127500Y-129153000D03*
D23*
%TO.P,U1,9*%
%TO.N,Net-(R5-Pad2)*%
X72652500Y-128628000D03*
%TO.P,U1,10*%
%TO.N,Net-(C4-Pad1)*%
X72652500Y-128128000D03*
%TO.P,U1,11*%
%TO.N,GND*%
X72652500Y-127628000D03*
%TO.P,U1,12*%
%TO.N,Net-(D1-Pad2)*%
X72652500Y-127128000D03*
D24*
%TO.P,U1,13*%
X72127500Y-126603000D03*
%TO.P,U1,14*%
X71627500Y-126603000D03*
%TO.P,U1,15*%
%TO.N,Net-(U1-Pad15)*%
X71127500Y-126603000D03*
%TO.P,U1,16*%
%TO.N,GND*%
X70627500Y-126603000D03*
D25*
%TO.P,U1,17*%
X71000000Y-127500500D03*
X71000000Y-128255500D03*
X71755000Y-127500500D03*
X71755000Y-128255500D03*
D26*
X71000000Y-127500500D03*
X71000000Y-128255500D03*
X71755000Y-127500500D03*
X71755000Y-128255500D03*
%TD*%
D14*
%TO.P,J1,1*%
%TO.N,GND*%
X47825000Y-96675000D03*
%TD*%
%TO.P,J5,1*%
%TO.N,Net-(J5-Pad1)*%
X47825000Y-102025000D03*
%TD*%
D15*
%TO.P,C11,1*%
%TO.N,Net-(C11-Pad1)*%
X52000000Y-90000000D03*
%TO.P,C11,2*%
%TO.N,GND*%
X52000000Y-92500000D03*
%TD*%
%TO.P,R7,1*%
%TO.N,Net-(R7-Pad1)*%
X54000000Y-105120000D03*
D16*
%TO.P,R7,2*%
%TO.N,Net-(C11-Pad1)*%
X54000000Y-97500000D03*
%TD*%
D13*
%TO.P,RV1,1*%
%TO.N,Net-(R7-Pad1)*%
X59000000Y-91000000D03*
D12*
%TO.P,RV1,2*%
%TO.N,Net-(J5-Pad1)*%
X61540000Y-91000000D03*
%TO.P,RV1,3*%
%TO.N,Net-(RV1-Pad3)*%
X64080000Y-91000000D03*
%TD*%
D19*
%TO.P,U2,1*%
%TO.N,Net-(U2-Pad1)*%
X58380000Y-97500000D03*
D16*
%TO.P,U2,5*%
%TO.N,Net-(U2-Pad5)*%
X66000000Y-105120000D03*
%TO.P,U2,2*%
%TO.N,Net-(R7-Pad1)*%
X58380000Y-100040000D03*
%TO.P,U2,6*%
%TO.N,Net-(J5-Pad1)*%
X66000000Y-102580000D03*
%TO.P,U2,3*%
%TO.N,Net-(TR1-Pad1)*%
X58380000Y-102580000D03*
%TO.P,U2,7*%
%TO.N,VCC*%
X66000000Y-100040000D03*
%TO.P,U2,4*%
%TO.N,GND*%
X58380000Y-105120000D03*
%TO.P,U2,8*%
%TO.N,Net-(U2-Pad8)*%
X66000000Y-97500000D03*
%TD*%
D27*
%TO.P,D2,1*%
%TO.N,Net-(D2-Pad1)*%
X101500000Y-127500000D03*
D28*
%TO.P,D2,2*%
%TO.N,Net-(D2-Pad2)*%
X101500000Y-124960000D03*
%TD*%
D10*
%TO.P,R8,1*%
%TO.N,Net-(D2-Pad1)*%
X90000000Y-135500000D03*
D11*
%TO.P,R8,2*%
%TO.N,GND*%
X82380000Y-135500000D03*
%TD*%
D29*
%TO.N,GND*%
X66500000Y-127711749D03*
X58000000Y-125500000D03*
%TO.N,Net-(C4-Pad1)*%
X75000000Y-127500000D03*
%TO.N,Earth*%
X92500000Y-122000000D03*
X53500000Y-101500000D03*
X56000000Y-104000000D03*
X68500000Y-121500000D03*
X61500000Y-128500000D03*
X49500000Y-125500000D03*
X57000000Y-129000000D03*
X50000000Y-116000000D03*
X49000000Y-122500000D03*
%TD*%
D30*
%TO.N,GND*%
X72652500Y-127628000D02*
X72027200Y-127628000D01*
X71755000Y-127500500D02*
X71882400Y-127627900D01*
X71882400Y-127627900D02*
X72027200Y-127627900D01*
X72027200Y-127627900D02*
X72027200Y-127628000D01*
X70415200Y-127128000D02*
X70627500Y-126915700D01*
X70627500Y-126915700D02*
X70627500Y-126603000D01*
X70415200Y-127128000D02*
X70727800Y-127128000D01*
X70102500Y-127128000D02*
X70415200Y-127128000D01*
X71000000Y-127500500D02*
X70727800Y-127228300D01*
X70727800Y-127228300D02*
X70727800Y-127128000D01*
X71755000Y-128255500D02*
X71652100Y-128255500D01*
X71652100Y-128255500D02*
X71627500Y-128280100D01*
X71627500Y-128280100D02*
X71627500Y-129153000D01*
X61880000Y-108620000D02*
X58380000Y-105120000D01*
X71300000Y-108620000D02*
X61880000Y-108620000D01*
X59000000Y-111500000D02*
X61880000Y-108620000D01*
X59000000Y-115000000D02*
X59000000Y-111500000D01*
X52460000Y-117540000D02*
X52500000Y-117500000D01*
X47500000Y-117540000D02*
X52460000Y-117540000D01*
X56500000Y-117500000D02*
X59000000Y-115000000D01*
X52500000Y-117500000D02*
X56500000Y-117500000D01*
X52500000Y-120500000D02*
X52500000Y-117500000D01*
X66500000Y-127711749D02*
X59211749Y-127711749D01*
X58000000Y-126500000D02*
X58000000Y-125500000D01*
X59211749Y-127711749D02*
X58000000Y-126500000D01*
%TO.N,Net-(BT1-Pad1)*%
X52500000Y-115000000D02*
X47500000Y-115000000D01*
%TO.N,Net-(C3-Pad1)*%
X70102500Y-127628000D02*
X69763200Y-127628000D01*
X69763200Y-127628000D02*
X69456000Y-127320800D01*
X69456000Y-127320800D02*
X69456000Y-126938900D01*
X69456000Y-126938900D02*
X76444500Y-119950400D01*
X76444500Y-119950400D02*
X79974400Y-119950400D01*
X79974400Y-119950400D02*
X80651500Y-120627500D01*
X80651500Y-120627500D02*
X85964100Y-120627500D01*
X85964100Y-120627500D02*
X92091600Y-114500000D01*
X92091600Y-114500000D02*
X95000000Y-114500000D01*
%TO.N,Net-(C4-Pad1)*%
X74872000Y-127628000D02*
X75000000Y-127500000D01*
X74872000Y-128128000D02*
X74872000Y-127628000D01*
X72652500Y-128128000D02*
X74872000Y-128128000D01*
%TO.N,Net-(C7-Pad1)*%
X72127500Y-129153000D02*
X72127500Y-129778300D01*
X72127500Y-129778300D02*
X71642600Y-130263200D01*
X71642600Y-130263200D02*
X56563400Y-130263200D01*
X56563400Y-130263200D02*
X53174800Y-126874600D01*
X53174800Y-126874600D02*
X48430700Y-126874600D01*
X48430700Y-126874600D02*
X46499600Y-124943500D01*
X46499600Y-124943500D02*
X46499600Y-121607200D01*
X46499600Y-121607200D02*
X46607200Y-121499600D01*
X46607200Y-121499600D02*
X50034700Y-121499600D01*
X50034700Y-121499600D02*
X50222500Y-121687400D01*
X50222500Y-121687400D02*
X57812600Y-121687400D01*
X57812600Y-121687400D02*
X59000000Y-120500000D01*
%TO.N,Net-(C8-Pad2)*%
X82880000Y-114500000D02*
X81936000Y-115444000D01*
X81936000Y-115444000D02*
X66556000Y-115444000D01*
X66556000Y-115444000D02*
X59000000Y-123000000D01*
%TO.N,Net-(C10-Pad2)*%
X94500000Y-125500000D02*
X86000000Y-125500000D01*
X86000000Y-125500000D02*
X84000000Y-123500000D01*
X100500000Y-119500000D02*
X101500000Y-118500000D01*
X97500000Y-119500000D02*
X100500000Y-119500000D01*
%TO.N,Net-(D1-Pad2)*%
X72127500Y-126603000D02*
X72127500Y-125977700D01*
X77975000Y-121325000D02*
X76649700Y-121325000D01*
X76649700Y-121325000D02*
X76649700Y-121455500D01*
X76649700Y-121455500D02*
X72127500Y-125977700D01*
X72127500Y-126603000D02*
X72652500Y-127128000D01*
X71627500Y-126603000D02*
X72127500Y-126603000D01*
%TO.N,Net-(R1-Pad1)*%
X83000000Y-119500000D02*
X65220600Y-119500000D01*
X65220600Y-119500000D02*
X63916700Y-120803900D01*
X63916700Y-120803900D02*
X63916700Y-123270000D01*
X63916700Y-123270000D02*
X69799700Y-129153000D01*
X69799700Y-129153000D02*
X70627500Y-129153000D01*
%TO.N,Net-(R5-Pad2)*%
X84000000Y-131120000D02*
X82874700Y-131120000D01*
X72652500Y-128628000D02*
X80382700Y-128628000D01*
X80382700Y-128628000D02*
X82874700Y-131120000D01*
%TO.N,VCC*%
X71127500Y-129778300D02*
X59278300Y-129778300D01*
X59278300Y-129778300D02*
X52500000Y-123000000D01*
X71127500Y-129153000D02*
X71127500Y-129778300D01*
X69589800Y-128128000D02*
X65275000Y-123813200D01*
X65275000Y-123813200D02*
X65275000Y-121325000D01*
X47500000Y-124500000D02*
X48500300Y-124500000D01*
X52500000Y-123000000D02*
X50000300Y-123000000D01*
X50000300Y-123000000D02*
X48500300Y-124500000D01*
X70102500Y-128128000D02*
X69589800Y-128128000D01*
%TO.N,Net-(C11-Pad1)*%
X52000000Y-90834998D02*
X52000000Y-90000000D01*
X54000000Y-92834998D02*
X52000000Y-90834998D01*
X54000000Y-97500000D02*
X54000000Y-92834998D01*
%TO.N,Net-(R7-Pad1)*%
X59505001Y-91505001D02*
X59000000Y-91000000D01*
X59505001Y-98914999D02*
X59505001Y-91505001D01*
X58380000Y-100040000D02*
X59505001Y-98914999D01*
%TO.N,Net-(TR1-Pad1)*%
X67580000Y-93380000D02*
X71300000Y-93380000D01*
X58380000Y-102580000D02*
X67580000Y-93380000D01*
%TO.N,Net-(D2-Pad2)*%
X95186401Y-101549991D02*
X95000000Y-101549991D01*
X95450009Y-101813599D02*
X95186401Y-101549991D01*
X101500000Y-113420000D02*
X95450009Y-107370009D01*
D31*
X95450009Y-102450009D02*
X95000000Y-102000000D01*
X95450009Y-107370009D02*
X95450009Y-102450009D01*
X95000000Y-102000000D02*
X95000000Y-98620000D01*
%TD*%
D32*
%TO.N,Earth*%
X110648001Y-139148000D02*
X41352000Y-139148000D01*
X41352000Y-135398849D01*
X81353000Y-135398849D01*
X81353000Y-135601151D01*
X81392467Y-135799565D01*
X81469885Y-135986467D01*
X81582277Y-136154674D01*
X81725326Y-136297723D01*
X81893533Y-136410115D01*
X82080435Y-136487533D01*
X82278849Y-136527000D01*
X82481151Y-136527000D01*
X82679565Y-136487533D01*
X82866467Y-136410115D01*
X83034674Y-136297723D01*
X83177723Y-136154674D01*
X83290115Y-135986467D01*
X83367533Y-135799565D01*
X83407000Y-135601151D01*
X83407000Y-135398849D01*
X88973000Y-135398849D01*
X88973000Y-135601151D01*
X89012467Y-135799565D01*
X89089885Y-135986467D01*
X89202277Y-136154674D01*
X89345326Y-136297723D01*
X89513533Y-136410115D01*
X89700435Y-136487533D01*
X89898849Y-136527000D01*
X90101151Y-136527000D01*
X90299565Y-136487533D01*
X90486467Y-136410115D01*
X90654674Y-136297723D01*
X90797723Y-136154674D01*
X90910115Y-135986467D01*
X90987533Y-135799565D01*
X91027000Y-135601151D01*
X91027000Y-135398849D01*
X90987533Y-135200435D01*
X90910115Y-135013533D01*
X90797723Y-134845326D01*
X90654674Y-134702277D01*
X90486467Y-134589885D01*
X90299565Y-134512467D01*
X90101151Y-134473000D01*
X89898849Y-134473000D01*
X89700435Y-134512467D01*
X89513533Y-134589885D01*
X89345326Y-134702277D01*
X89202277Y-134845326D01*
X89089885Y-135013533D01*
X89012467Y-135200435D01*
X88973000Y-135398849D01*
X83407000Y-135398849D01*
X83367533Y-135200435D01*
X83290115Y-135013533D01*
X83177723Y-134845326D01*
X83034674Y-134702277D01*
X82866467Y-134589885D01*
X82679565Y-134512467D01*
X82481151Y-134473000D01*
X82278849Y-134473000D01*
X82080435Y-134512467D01*
X81893533Y-134589885D01*
X81725326Y-134702277D01*
X81582277Y-134845326D01*
X81469885Y-135013533D01*
X81392467Y-135200435D01*
X81353000Y-135398849D01*
X41352000Y-135398849D01*
X41352000Y-121607200D01*
X46045413Y-121607200D01*
X46047601Y-121629415D01*
X46047600Y-124921295D01*
X46045413Y-124943500D01*
X46054140Y-125032107D01*
X46068926Y-125080849D01*
X46079986Y-125117309D01*
X46121957Y-125195832D01*
X46178441Y-125264659D01*
X46195700Y-125278823D01*
X48095381Y-127178505D01*
X48109541Y-127195759D01*
X48178367Y-127252243D01*
X48245156Y-127287942D01*
X48256890Y-127294214D01*
X48342092Y-127320060D01*
X48430700Y-127328787D01*
X48452905Y-127326600D01*
X51594520Y-127326600D01*
X51501266Y-127466165D01*
X51416310Y-127671266D01*
X51373000Y-127889000D01*
X51373000Y-128111000D01*
X51416310Y-128328734D01*
X51501266Y-128533835D01*
X51624602Y-128718421D01*
X51781579Y-128875398D01*
X51966165Y-128998734D01*
X52171266Y-129083690D01*
X52389000Y-129127000D01*
X52611000Y-129127000D01*
X52828734Y-129083690D01*
X53033835Y-128998734D01*
X53218421Y-128875398D01*
X53375398Y-128718421D01*
X53498734Y-128533835D01*
X53583690Y-128328734D01*
X53627000Y-128111000D01*
X53627000Y-127966023D01*
X56228086Y-130567111D01*
X56242241Y-130584359D01*
X56311067Y-130640843D01*
X56361875Y-130668000D01*
X56389590Y-130682814D01*
X56474792Y-130708660D01*
X56563399Y-130717387D01*
X56585604Y-130715200D01*
X71620395Y-130715200D01*
X71642600Y-130717387D01*
X71664805Y-130715200D01*
X71731207Y-130708660D01*
X71816410Y-130682814D01*
X71894933Y-130640843D01*
X71963759Y-130584359D01*
X71977923Y-130567100D01*
X72431412Y-130113613D01*
X72448659Y-130099459D01*
X72505143Y-130030633D01*
X72547114Y-129952110D01*
X72572960Y-129866907D01*
X72579500Y-129800505D01*
X72581687Y-129778301D01*
X72579500Y-129756096D01*
X72579500Y-129456167D01*
X72597597Y-129396508D01*
X72604500Y-129326422D01*
X72604500Y-129105000D01*
X72825923Y-129105000D01*
X72896008Y-129098097D01*
X72955667Y-129080000D01*
X80195477Y-129080000D01*
X82539386Y-131423911D01*
X82553541Y-131441159D01*
X82622367Y-131497643D01*
X82700890Y-131539614D01*
X82766262Y-131559444D01*
X82786092Y-131565460D01*
X82874699Y-131574187D01*
X82896904Y-131572000D01*
X82967369Y-131572000D01*
X83001266Y-131653835D01*
X83124602Y-131838421D01*
X83281579Y-131995398D01*
X83466165Y-132118734D01*
X83671266Y-132203690D01*
X83889000Y-132247000D01*
X84111000Y-132247000D01*
X84328734Y-132203690D01*
X84533835Y-132118734D01*
X84718421Y-131995398D01*
X84875398Y-131838421D01*
X84998734Y-131653835D01*
X85083690Y-131448734D01*
X85127000Y-131231000D01*
X85127000Y-131009000D01*
X87373000Y-131009000D01*
X87373000Y-131231000D01*
X87416310Y-131448734D01*
X87501266Y-131653835D01*
X87624602Y-131838421D01*
X87781579Y-131995398D01*
X87966165Y-132118734D01*
X88171266Y-132203690D01*
X88389000Y-132247000D01*
X88611000Y-132247000D01*
X88828734Y-132203690D01*
X89033835Y-132118734D01*
X89218421Y-131995398D01*
X89375398Y-131838421D01*
X89498734Y-131653835D01*
X89583690Y-131448734D01*
X89627000Y-131231000D01*
X89627000Y-131009000D01*
X89583690Y-130791266D01*
X89498734Y-130586165D01*
X89375398Y-130401579D01*
X89218421Y-130244602D01*
X89033835Y-130121266D01*
X88828734Y-130036310D01*
X88611000Y-129993000D01*
X88389000Y-129993000D01*
X88171266Y-130036310D01*
X87966165Y-130121266D01*
X87781579Y-130244602D01*
X87624602Y-130401579D01*
X87501266Y-130586165D01*
X87416310Y-130791266D01*
X87373000Y-131009000D01*
X85127000Y-131009000D01*
X85083690Y-130791266D01*
X84998734Y-130586165D01*
X84875398Y-130401579D01*
X84718421Y-130244602D01*
X84533835Y-130121266D01*
X84328734Y-130036310D01*
X84111000Y-129993000D01*
X83889000Y-129993000D01*
X83671266Y-130036310D01*
X83466165Y-130121266D01*
X83281579Y-130244602D01*
X83124602Y-130401579D01*
X83001266Y-130586165D01*
X82995064Y-130601139D01*
X80718023Y-128324100D01*
X80703859Y-128306841D01*
X80635033Y-128250357D01*
X80556510Y-128208386D01*
X80471307Y-128182540D01*
X80404905Y-128176000D01*
X80382700Y-128173813D01*
X80360495Y-128176000D01*
X75321459Y-128176000D01*
X75323744Y-128152800D01*
X75344364Y-128144259D01*
X75463436Y-128064698D01*
X75564698Y-127963436D01*
X75614434Y-127889000D01*
X93373000Y-127889000D01*
X93373000Y-128111000D01*
X93416310Y-128328734D01*
X93501266Y-128533835D01*
X93624602Y-128718421D01*
X93781579Y-128875398D01*
X93966165Y-128998734D01*
X94171266Y-129083690D01*
X94389000Y-129127000D01*
X94611000Y-129127000D01*
X94828734Y-129083690D01*
X95033835Y-128998734D01*
X95218421Y-128875398D01*
X95375398Y-128718421D01*
X95498734Y-128533835D01*
X95583690Y-128328734D01*
X95627000Y-128111000D01*
X95627000Y-127889000D01*
X95583690Y-127671266D01*
X95498734Y-127466165D01*
X95375398Y-127281579D01*
X95218421Y-127124602D01*
X95033835Y-127001266D01*
X94828734Y-126916310D01*
X94611000Y-126873000D01*
X94389000Y-126873000D01*
X94171266Y-126916310D01*
X93966165Y-127001266D01*
X93781579Y-127124602D01*
X93624602Y-127281579D01*
X93501266Y-127466165D01*
X93416310Y-127671266D01*
X93373000Y-127889000D01*
X75614434Y-127889000D01*
X75644259Y-127844364D01*
X75699062Y-127712058D01*
X75727000Y-127571603D01*
X75727000Y-127428397D01*
X75699062Y-127287942D01*
X75644259Y-127155636D01*
X75564698Y-127036564D01*
X75463436Y-126935302D01*
X75344364Y-126855741D01*
X75212058Y-126800938D01*
X75071603Y-126773000D01*
X74928397Y-126773000D01*
X74787942Y-126800938D01*
X74655636Y-126855741D01*
X74536564Y-126935302D01*
X74435302Y-127036564D01*
X74355741Y-127155636D01*
X74300938Y-127287942D01*
X74273000Y-127428397D01*
X74273000Y-127571603D01*
X74293766Y-127676000D01*
X73277079Y-127676000D01*
X73281807Y-127628000D01*
X73272597Y-127534492D01*
X73245322Y-127444577D01*
X73209736Y-127378000D01*
X73245322Y-127311423D01*
X73272597Y-127221508D01*
X73281807Y-127128000D01*
X73272597Y-127034492D01*
X73245322Y-126944577D01*
X73201029Y-126861711D01*
X73141421Y-126789079D01*
X73068789Y-126729471D01*
X72985923Y-126685178D01*
X72896008Y-126657903D01*
X72825923Y-126651000D01*
X72814724Y-126651000D01*
X72604500Y-126440776D01*
X72604500Y-126429577D01*
X72597597Y-126359492D01*
X72579500Y-126299833D01*
X72579500Y-126164923D01*
X75355423Y-123389000D01*
X82873000Y-123389000D01*
X82873000Y-123611000D01*
X82916310Y-123828734D01*
X83001266Y-124033835D01*
X83124602Y-124218421D01*
X83281579Y-124375398D01*
X83466165Y-124498734D01*
X83671266Y-124583690D01*
X83889000Y-124627000D01*
X84111000Y-124627000D01*
X84328734Y-124583690D01*
X84410569Y-124549793D01*
X85664686Y-125803911D01*
X85678841Y-125821159D01*
X85747667Y-125877643D01*
X85769089Y-125889093D01*
X85826190Y-125919614D01*
X85911392Y-125945460D01*
X85999999Y-125954187D01*
X86022204Y-125952000D01*
X93467369Y-125952000D01*
X93501266Y-126033835D01*
X93624602Y-126218421D01*
X93781579Y-126375398D01*
X93966165Y-126498734D01*
X94171266Y-126583690D01*
X94389000Y-126627000D01*
X94611000Y-126627000D01*
X94746738Y-126600000D01*
X100271418Y-126600000D01*
X100271418Y-128400000D01*
X100277732Y-128464103D01*
X100296430Y-128525743D01*
X100326794Y-128582550D01*
X100367657Y-128632343D01*
X100417450Y-128673206D01*
X100474257Y-128703570D01*
X100535897Y-128722268D01*
X100600000Y-128728582D01*
X102400000Y-128728582D01*
X102464103Y-128722268D01*
X102525743Y-128703570D01*
X102582550Y-128673206D01*
X102632343Y-128632343D01*
X102673206Y-128582550D01*
X102703570Y-128525743D01*
X102722268Y-128464103D01*
X102728582Y-128400000D01*
X102728582Y-126600000D01*
X102722268Y-126535897D01*
X102703570Y-126474257D01*
X102673206Y-126417450D01*
X102632343Y-126367657D01*
X102582550Y-126326794D01*
X102525743Y-126296430D01*
X102464103Y-126277732D01*
X102400000Y-126271418D01*
X100600000Y-126271418D01*
X100535897Y-126277732D01*
X100474257Y-126296430D01*
X100417450Y-126326794D01*
X100367657Y-126367657D01*
X100326794Y-126417450D01*
X100296430Y-126474257D01*
X100277732Y-126535897D01*
X100271418Y-126600000D01*
X94746738Y-126600000D01*
X94828734Y-126583690D01*
X95033835Y-126498734D01*
X95218421Y-126375398D01*
X95375398Y-126218421D01*
X95498734Y-126033835D01*
X95583690Y-125828734D01*
X95627000Y-125611000D01*
X95627000Y-125389000D01*
X95583690Y-125171266D01*
X95498734Y-124966165D01*
X95413867Y-124839151D01*
X100273000Y-124839151D01*
X100273000Y-125080849D01*
X100320153Y-125317903D01*
X100412647Y-125541202D01*
X100546927Y-125742167D01*
X100717833Y-125913073D01*
X100918798Y-126047353D01*
X101142097Y-126139847D01*
X101379151Y-126187000D01*
X101620849Y-126187000D01*
X101857903Y-126139847D01*
X102081202Y-126047353D01*
X102282167Y-125913073D01*
X102453073Y-125742167D01*
X102587353Y-125541202D01*
X102679847Y-125317903D01*
X102727000Y-125080849D01*
X102727000Y-124839151D01*
X102679847Y-124602097D01*
X102587353Y-124378798D01*
X102453073Y-124177833D01*
X102282167Y-124006927D01*
X102081202Y-123872647D01*
X101857903Y-123780153D01*
X101620849Y-123733000D01*
X101379151Y-123733000D01*
X101142097Y-123780153D01*
X100918798Y-123872647D01*
X100717833Y-124006927D01*
X100546927Y-124177833D01*
X100412647Y-124378798D01*
X100320153Y-124602097D01*
X100273000Y-124839151D01*
X95413867Y-124839151D01*
X95375398Y-124781579D01*
X95218421Y-124624602D01*
X95033835Y-124501266D01*
X94828734Y-124416310D01*
X94611000Y-124373000D01*
X94389000Y-124373000D01*
X94171266Y-124416310D01*
X93966165Y-124501266D01*
X93781579Y-124624602D01*
X93624602Y-124781579D01*
X93501266Y-124966165D01*
X93467369Y-125048000D01*
X86187225Y-125048000D01*
X85049793Y-123910569D01*
X85083690Y-123828734D01*
X85127000Y-123611000D01*
X85127000Y-123389000D01*
X87373000Y-123389000D01*
X87373000Y-123611000D01*
X87416310Y-123828734D01*
X87501266Y-124033835D01*
X87624602Y-124218421D01*
X87781579Y-124375398D01*
X87966165Y-124498734D01*
X88171266Y-124583690D01*
X88389000Y-124627000D01*
X88611000Y-124627000D01*
X88828734Y-124583690D01*
X89033835Y-124498734D01*
X89218421Y-124375398D01*
X89375398Y-124218421D01*
X89498734Y-124033835D01*
X89583690Y-123828734D01*
X89627000Y-123611000D01*
X89627000Y-123389000D01*
X89583690Y-123171266D01*
X89498734Y-122966165D01*
X89375398Y-122781579D01*
X89218421Y-122624602D01*
X89033835Y-122501266D01*
X88828734Y-122416310D01*
X88611000Y-122373000D01*
X88389000Y-122373000D01*
X88171266Y-122416310D01*
X87966165Y-122501266D01*
X87781579Y-122624602D01*
X87624602Y-122781579D01*
X87501266Y-122966165D01*
X87416310Y-123171266D01*
X87373000Y-123389000D01*
X85127000Y-123389000D01*
X85083690Y-123171266D01*
X84998734Y-122966165D01*
X84875398Y-122781579D01*
X84718421Y-122624602D01*
X84533835Y-122501266D01*
X84328734Y-122416310D01*
X84111000Y-122373000D01*
X83889000Y-122373000D01*
X83671266Y-122416310D01*
X83466165Y-122501266D01*
X83281579Y-122624602D01*
X83124602Y-122781579D01*
X83001266Y-122966165D01*
X82916310Y-123171266D01*
X82873000Y-123389000D01*
X75355423Y-123389000D01*
X76796634Y-121947790D01*
X76799028Y-121953570D01*
X76944252Y-122170913D01*
X77129087Y-122355748D01*
X77346430Y-122500972D01*
X77587928Y-122601004D01*
X77844302Y-122652000D01*
X78105698Y-122652000D01*
X78362072Y-122601004D01*
X78603570Y-122500972D01*
X78820913Y-122355748D01*
X79005748Y-122170913D01*
X79150972Y-121953570D01*
X79251004Y-121712072D01*
X79302000Y-121455698D01*
X79302000Y-121194302D01*
X79251004Y-120937928D01*
X79150972Y-120696430D01*
X79005748Y-120479087D01*
X78929061Y-120402400D01*
X79787177Y-120402400D01*
X80316181Y-120931405D01*
X80330341Y-120948659D01*
X80399167Y-121005143D01*
X80456684Y-121035886D01*
X80477690Y-121047114D01*
X80562892Y-121072960D01*
X80651499Y-121081687D01*
X80673704Y-121079500D01*
X85941895Y-121079500D01*
X85964100Y-121081687D01*
X85986305Y-121079500D01*
X86052707Y-121072960D01*
X86137910Y-121047114D01*
X86216433Y-121005143D01*
X86285259Y-120948659D01*
X86299423Y-120931400D01*
X87841823Y-119389000D01*
X89493000Y-119389000D01*
X89493000Y-119611000D01*
X89536310Y-119828734D01*
X89621266Y-120033835D01*
X89744602Y-120218421D01*
X89901579Y-120375398D01*
X90086165Y-120498734D01*
X90291266Y-120583690D01*
X90509000Y-120627000D01*
X90731000Y-120627000D01*
X90948734Y-120583690D01*
X91153835Y-120498734D01*
X91338421Y-120375398D01*
X91495398Y-120218421D01*
X91618734Y-120033835D01*
X91703690Y-119828734D01*
X91747000Y-119611000D01*
X91747000Y-119389000D01*
X93873000Y-119389000D01*
X93873000Y-119611000D01*
X93916310Y-119828734D01*
X94001266Y-120033835D01*
X94124602Y-120218421D01*
X94281579Y-120375398D01*
X94466165Y-120498734D01*
X94671266Y-120583690D01*
X94889000Y-120627000D01*
X95111000Y-120627000D01*
X95328734Y-120583690D01*
X95533835Y-120498734D01*
X95718421Y-120375398D01*
X95875398Y-120218421D01*
X95998734Y-120033835D01*
X96083690Y-119828734D01*
X96127000Y-119611000D01*
X96127000Y-119389000D01*
X96373000Y-119389000D01*
X96373000Y-119611000D01*
X96416310Y-119828734D01*
X96501266Y-120033835D01*
X96624602Y-120218421D01*
X96781579Y-120375398D01*
X96966165Y-120498734D01*
X97171266Y-120583690D01*
X97389000Y-120627000D01*
X97611000Y-120627000D01*
X97828734Y-120583690D01*
X98033835Y-120498734D01*
X98218421Y-120375398D01*
X98375398Y-120218421D01*
X98498734Y-120033835D01*
X98532631Y-119952000D01*
X100477795Y-119952000D01*
X100500000Y-119954187D01*
X100522205Y-119952000D01*
X100588607Y-119945460D01*
X100673810Y-119919614D01*
X100752333Y-119877643D01*
X100821159Y-119821159D01*
X100835323Y-119803900D01*
X101165967Y-119473256D01*
X101200435Y-119487533D01*
X101398849Y-119527000D01*
X101601151Y-119527000D01*
X101799565Y-119487533D01*
X101986467Y-119410115D01*
X102154674Y-119297723D01*
X102297723Y-119154674D01*
X102410115Y-118986467D01*
X102487533Y-118799565D01*
X102527000Y-118601151D01*
X102527000Y-118398849D01*
X102487533Y-118200435D01*
X102410115Y-118013533D01*
X102297723Y-117845326D01*
X102154674Y-117702277D01*
X101986467Y-117589885D01*
X101799565Y-117512467D01*
X101601151Y-117473000D01*
X101398849Y-117473000D01*
X101200435Y-117512467D01*
X101013533Y-117589885D01*
X100845326Y-117702277D01*
X100702277Y-117845326D01*
X100589885Y-118013533D01*
X100512467Y-118200435D01*
X100473000Y-118398849D01*
X100473000Y-118601151D01*
X100512467Y-118799565D01*
X100526744Y-118834033D01*
X100312777Y-119048000D01*
X98532631Y-119048000D01*
X98498734Y-118966165D01*
X98375398Y-118781579D01*
X98218421Y-118624602D01*
X98033835Y-118501266D01*
X97828734Y-118416310D01*
X97611000Y-118373000D01*
X97389000Y-118373000D01*
X97171266Y-118416310D01*
X96966165Y-118501266D01*
X96781579Y-118624602D01*
X96624602Y-118781579D01*
X96501266Y-118966165D01*
X96416310Y-119171266D01*
X96373000Y-119389000D01*
X96127000Y-119389000D01*
X96083690Y-119171266D01*
X95998734Y-118966165D01*
X95875398Y-118781579D01*
X95718421Y-118624602D01*
X95533835Y-118501266D01*
X95328734Y-118416310D01*
X95111000Y-118373000D01*
X94889000Y-118373000D01*
X94671266Y-118416310D01*
X94466165Y-118501266D01*
X94281579Y-118624602D01*
X94124602Y-118781579D01*
X94001266Y-118966165D01*
X93916310Y-119171266D01*
X93873000Y-119389000D01*
X91747000Y-119389000D01*
X91703690Y-119171266D01*
X91618734Y-118966165D01*
X91495398Y-118781579D01*
X91338421Y-118624602D01*
X91153835Y-118501266D01*
X90948734Y-118416310D01*
X90731000Y-118373000D01*
X90509000Y-118373000D01*
X90291266Y-118416310D01*
X90086165Y-118501266D01*
X89901579Y-118624602D01*
X89744602Y-118781579D01*
X89621266Y-118966165D01*
X89536310Y-119171266D01*
X89493000Y-119389000D01*
X87841823Y-119389000D01*
X92278824Y-114952000D01*
X93967369Y-114952000D01*
X94001266Y-115033835D01*
X94124602Y-115218421D01*
X94281579Y-115375398D01*
X94466165Y-115498734D01*
X94671266Y-115583690D01*
X94889000Y-115627000D01*
X95111000Y-115627000D01*
X95328734Y-115583690D01*
X95533835Y-115498734D01*
X95718421Y-115375398D01*
X95875398Y-115218421D01*
X95998734Y-115033835D01*
X96083690Y-114828734D01*
X96127000Y-114611000D01*
X96127000Y-114389000D01*
X96373000Y-114389000D01*
X96373000Y-114611000D01*
X96416310Y-114828734D01*
X96501266Y-115033835D01*
X96624602Y-115218421D01*
X96781579Y-115375398D01*
X96966165Y-115498734D01*
X97171266Y-115583690D01*
X97389000Y-115627000D01*
X97611000Y-115627000D01*
X97828734Y-115583690D01*
X98033835Y-115498734D01*
X98218421Y-115375398D01*
X98375398Y-115218421D01*
X98498734Y-115033835D01*
X98583690Y-114828734D01*
X98627000Y-114611000D01*
X98627000Y-114389000D01*
X98583690Y-114171266D01*
X98498734Y-113966165D01*
X98375398Y-113781579D01*
X98218421Y-113624602D01*
X98033835Y-113501266D01*
X97828734Y-113416310D01*
X97611000Y-113373000D01*
X97389000Y-113373000D01*
X97171266Y-113416310D01*
X96966165Y-113501266D01*
X96781579Y-113624602D01*
X96624602Y-113781579D01*
X96501266Y-113966165D01*
X96416310Y-114171266D01*
X96373000Y-114389000D01*
X96127000Y-114389000D01*
X96083690Y-114171266D01*
X95998734Y-113966165D01*
X95875398Y-113781579D01*
X95718421Y-113624602D01*
X95533835Y-113501266D01*
X95328734Y-113416310D01*
X95111000Y-113373000D01*
X94889000Y-113373000D01*
X94671266Y-113416310D01*
X94466165Y-113501266D01*
X94281579Y-113624602D01*
X94124602Y-113781579D01*
X94001266Y-113966165D01*
X93967369Y-114048000D01*
X92113805Y-114048000D01*
X92091600Y-114045813D01*
X92002992Y-114054540D01*
X91936620Y-114074674D01*
X91917790Y-114080386D01*
X91839267Y-114122357D01*
X91770441Y-114178841D01*
X91756281Y-114196095D01*
X91616444Y-114335932D01*
X91583690Y-114171266D01*
X91498734Y-113966165D01*
X91375398Y-113781579D01*
X91218421Y-113624602D01*
X91033835Y-113501266D01*
X90828734Y-113416310D01*
X90611000Y-113373000D01*
X90389000Y-113373000D01*
X90171266Y-113416310D01*
X89966165Y-113501266D01*
X89781579Y-113624602D01*
X89624602Y-113781579D01*
X89501266Y-113966165D01*
X89416310Y-114171266D01*
X89373000Y-114389000D01*
X89373000Y-114611000D01*
X89416310Y-114828734D01*
X89501266Y-115033835D01*
X89624602Y-115218421D01*
X89781579Y-115375398D01*
X89966165Y-115498734D01*
X90171266Y-115583690D01*
X90335932Y-115616444D01*
X85776877Y-120175500D01*
X83904077Y-120175500D01*
X83998734Y-120033835D01*
X84083690Y-119828734D01*
X84127000Y-119611000D01*
X84127000Y-119389000D01*
X84083690Y-119171266D01*
X83998734Y-118966165D01*
X83875398Y-118781579D01*
X83718421Y-118624602D01*
X83533835Y-118501266D01*
X83328734Y-118416310D01*
X83111000Y-118373000D01*
X82889000Y-118373000D01*
X82671266Y-118416310D01*
X82466165Y-118501266D01*
X82281579Y-118624602D01*
X82124602Y-118781579D01*
X82001266Y-118966165D01*
X81967369Y-119048000D01*
X65242804Y-119048000D01*
X65220599Y-119045813D01*
X65131992Y-119054540D01*
X65046790Y-119080386D01*
X64968267Y-119122357D01*
X64899441Y-119178841D01*
X64885285Y-119196090D01*
X63612800Y-120468577D01*
X63595541Y-120482741D01*
X63539057Y-120551568D01*
X63519259Y-120588608D01*
X63497086Y-120630091D01*
X63471240Y-120715293D01*
X63462513Y-120803900D01*
X63464700Y-120826105D01*
X63464701Y-123247785D01*
X63462513Y-123270000D01*
X63471240Y-123358607D01*
X63497086Y-123443809D01*
X63526052Y-123498000D01*
X63539058Y-123522333D01*
X63595542Y-123591159D01*
X63612796Y-123605319D01*
X69333775Y-129326300D01*
X59465524Y-129326300D01*
X55567621Y-125428397D01*
X57273000Y-125428397D01*
X57273000Y-125571603D01*
X57300938Y-125712058D01*
X57355741Y-125844364D01*
X57435302Y-125963436D01*
X57536564Y-126064698D01*
X57548000Y-126072340D01*
X57548000Y-126477795D01*
X57545813Y-126500000D01*
X57554540Y-126588607D01*
X57564751Y-126622267D01*
X57580386Y-126673809D01*
X57622357Y-126752332D01*
X57678841Y-126821159D01*
X57696100Y-126835323D01*
X58876430Y-128015654D01*
X58890590Y-128032908D01*
X58959416Y-128089392D01*
X59031647Y-128128000D01*
X59037939Y-128131363D01*
X59123141Y-128157209D01*
X59211749Y-128165936D01*
X59233954Y-128163749D01*
X65927661Y-128163749D01*
X65935302Y-128175185D01*
X66036564Y-128276447D01*
X66155636Y-128356008D01*
X66287942Y-128410811D01*
X66428397Y-128438749D01*
X66571603Y-128438749D01*
X66712058Y-128410811D01*
X66844364Y-128356008D01*
X66963436Y-128276447D01*
X67064698Y-128175185D01*
X67144259Y-128056113D01*
X67199062Y-127923807D01*
X67227000Y-127783352D01*
X67227000Y-127640146D01*
X67199062Y-127499691D01*
X67144259Y-127367385D01*
X67064698Y-127248313D01*
X66963436Y-127147051D01*
X66844364Y-127067490D01*
X66712058Y-127012687D01*
X66571603Y-126984749D01*
X66428397Y-126984749D01*
X66287942Y-127012687D01*
X66155636Y-127067490D01*
X66036564Y-127147051D01*
X65935302Y-127248313D01*
X65927661Y-127259749D01*
X59398973Y-127259749D01*
X58452000Y-126312777D01*
X58452000Y-126072339D01*
X58463436Y-126064698D01*
X58564698Y-125963436D01*
X58644259Y-125844364D01*
X58699062Y-125712058D01*
X58727000Y-125571603D01*
X58727000Y-125428397D01*
X58699062Y-125287942D01*
X58644259Y-125155636D01*
X58564698Y-125036564D01*
X58463436Y-124935302D01*
X58344364Y-124855741D01*
X58212058Y-124800938D01*
X58071603Y-124773000D01*
X57928397Y-124773000D01*
X57787942Y-124800938D01*
X57655636Y-124855741D01*
X57536564Y-124935302D01*
X57435302Y-125036564D01*
X57355741Y-125155636D01*
X57300938Y-125287942D01*
X57273000Y-125428397D01*
X55567621Y-125428397D01*
X53549793Y-123410569D01*
X53583690Y-123328734D01*
X53627000Y-123111000D01*
X53627000Y-122889000D01*
X57873000Y-122889000D01*
X57873000Y-123111000D01*
X57916310Y-123328734D01*
X58001266Y-123533835D01*
X58124602Y-123718421D01*
X58281579Y-123875398D01*
X58466165Y-123998734D01*
X58671266Y-124083690D01*
X58889000Y-124127000D01*
X59111000Y-124127000D01*
X59328734Y-124083690D01*
X59533835Y-123998734D01*
X59718421Y-123875398D01*
X59875398Y-123718421D01*
X59998734Y-123533835D01*
X60083690Y-123328734D01*
X60127000Y-123111000D01*
X60127000Y-122889000D01*
X60083690Y-122671266D01*
X60049793Y-122589431D01*
X66743224Y-115896000D01*
X81913795Y-115896000D01*
X81936000Y-115898187D01*
X81958205Y-115896000D01*
X82024607Y-115889460D01*
X82109810Y-115863614D01*
X82188333Y-115821643D01*
X82257159Y-115765159D01*
X82271323Y-115747900D01*
X82469431Y-115549793D01*
X82551266Y-115583690D01*
X82769000Y-115627000D01*
X82991000Y-115627000D01*
X83208734Y-115583690D01*
X83413835Y-115498734D01*
X83598421Y-115375398D01*
X83755398Y-115218421D01*
X83878734Y-115033835D01*
X83963690Y-114828734D01*
X84007000Y-114611000D01*
X84007000Y-114389000D01*
X83963690Y-114171266D01*
X83878734Y-113966165D01*
X83755398Y-113781579D01*
X83598421Y-113624602D01*
X83413835Y-113501266D01*
X83208734Y-113416310D01*
X82991000Y-113373000D01*
X82769000Y-113373000D01*
X82551266Y-113416310D01*
X82346165Y-113501266D01*
X82161579Y-113624602D01*
X82004602Y-113781579D01*
X81881266Y-113966165D01*
X81796310Y-114171266D01*
X81753000Y-114389000D01*
X81753000Y-114611000D01*
X81796310Y-114828734D01*
X81830207Y-114910569D01*
X81748777Y-114992000D01*
X76043913Y-114992000D01*
X76218421Y-114875398D01*
X76375398Y-114718421D01*
X76498734Y-114533835D01*
X76583690Y-114328734D01*
X76627000Y-114111000D01*
X76627000Y-113889000D01*
X76583690Y-113671266D01*
X76498734Y-113466165D01*
X76375398Y-113281579D01*
X76218421Y-113124602D01*
X76033835Y-113001266D01*
X75828734Y-112916310D01*
X75611000Y-112873000D01*
X75389000Y-112873000D01*
X75171266Y-112916310D01*
X74966165Y-113001266D01*
X74781579Y-113124602D01*
X74624602Y-113281579D01*
X74501266Y-113466165D01*
X74416310Y-113671266D01*
X74373000Y-113889000D01*
X74373000Y-114111000D01*
X74416310Y-114328734D01*
X74501266Y-114533835D01*
X74624602Y-114718421D01*
X74781579Y-114875398D01*
X74956087Y-114992000D01*
X68945451Y-114992000D01*
X68953206Y-114982550D01*
X68983570Y-114925743D01*
X69002268Y-114864103D01*
X69008582Y-114800000D01*
X69008582Y-113200000D01*
X69002268Y-113135897D01*
X68983570Y-113074257D01*
X68953206Y-113017450D01*
X68912343Y-112967657D01*
X68862550Y-112926794D01*
X68805743Y-112896430D01*
X68744103Y-112877732D01*
X68680000Y-112871418D01*
X67080000Y-112871418D01*
X67015897Y-112877732D01*
X66954257Y-112896430D01*
X66897450Y-112926794D01*
X66847657Y-112967657D01*
X66806794Y-113017450D01*
X66776430Y-113074257D01*
X66757732Y-113135897D01*
X66751418Y-113200000D01*
X66751418Y-114800000D01*
X66757732Y-114864103D01*
X66776430Y-114925743D01*
X66806794Y-114982550D01*
X66814549Y-114992000D01*
X66578205Y-114992000D01*
X66556000Y-114989813D01*
X66467392Y-114998540D01*
X66389383Y-115022204D01*
X66382190Y-115024386D01*
X66303667Y-115066357D01*
X66234841Y-115122841D01*
X66220681Y-115140095D01*
X59410569Y-121950207D01*
X59328734Y-121916310D01*
X59111000Y-121873000D01*
X58889000Y-121873000D01*
X58671266Y-121916310D01*
X58466165Y-122001266D01*
X58281579Y-122124602D01*
X58124602Y-122281579D01*
X58001266Y-122466165D01*
X57916310Y-122671266D01*
X57873000Y-122889000D01*
X53627000Y-122889000D01*
X53583690Y-122671266D01*
X53498734Y-122466165D01*
X53375398Y-122281579D01*
X53233219Y-122139400D01*
X57790395Y-122139400D01*
X57812600Y-122141587D01*
X57834805Y-122139400D01*
X57901207Y-122132860D01*
X57986410Y-122107014D01*
X58064933Y-122065043D01*
X58133759Y-122008559D01*
X58147923Y-121991300D01*
X58589431Y-121549793D01*
X58671266Y-121583690D01*
X58889000Y-121627000D01*
X59111000Y-121627000D01*
X59328734Y-121583690D01*
X59533835Y-121498734D01*
X59718421Y-121375398D01*
X59875398Y-121218421D01*
X59998734Y-121033835D01*
X60083690Y-120828734D01*
X60127000Y-120611000D01*
X60127000Y-120389000D01*
X60083690Y-120171266D01*
X59998734Y-119966165D01*
X59875398Y-119781579D01*
X59718421Y-119624602D01*
X59533835Y-119501266D01*
X59328734Y-119416310D01*
X59111000Y-119373000D01*
X58889000Y-119373000D01*
X58671266Y-119416310D01*
X58466165Y-119501266D01*
X58281579Y-119624602D01*
X58124602Y-119781579D01*
X58001266Y-119966165D01*
X57916310Y-120171266D01*
X57873000Y-120389000D01*
X57873000Y-120611000D01*
X57916310Y-120828734D01*
X57950207Y-120910569D01*
X57625377Y-121235400D01*
X53358419Y-121235400D01*
X53375398Y-121218421D01*
X53498734Y-121033835D01*
X53583690Y-120828734D01*
X53627000Y-120611000D01*
X53627000Y-120389000D01*
X53583690Y-120171266D01*
X53498734Y-119966165D01*
X53375398Y-119781579D01*
X53218421Y-119624602D01*
X53033835Y-119501266D01*
X52952000Y-119467369D01*
X52952000Y-118532631D01*
X53033835Y-118498734D01*
X53218421Y-118375398D01*
X53375398Y-118218421D01*
X53498734Y-118033835D01*
X53532631Y-117952000D01*
X56477795Y-117952000D01*
X56500000Y-117954187D01*
X56522205Y-117952000D01*
X56588607Y-117945460D01*
X56673810Y-117919614D01*
X56752333Y-117877643D01*
X56821159Y-117821159D01*
X56835323Y-117803900D01*
X57250223Y-117389000D01*
X57873000Y-117389000D01*
X57873000Y-117611000D01*
X57916310Y-117828734D01*
X58001266Y-118033835D01*
X58124602Y-118218421D01*
X58281579Y-118375398D01*
X58466165Y-118498734D01*
X58671266Y-118583690D01*
X58889000Y-118627000D01*
X59111000Y-118627000D01*
X59328734Y-118583690D01*
X59533835Y-118498734D01*
X59718421Y-118375398D01*
X59875398Y-118218421D01*
X59998734Y-118033835D01*
X60083690Y-117828734D01*
X60127000Y-117611000D01*
X60127000Y-117389000D01*
X60083690Y-117171266D01*
X59998734Y-116966165D01*
X59875398Y-116781579D01*
X59718421Y-116624602D01*
X59533835Y-116501266D01*
X59328734Y-116416310D01*
X59111000Y-116373000D01*
X58889000Y-116373000D01*
X58671266Y-116416310D01*
X58466165Y-116501266D01*
X58281579Y-116624602D01*
X58124602Y-116781579D01*
X58001266Y-116966165D01*
X57916310Y-117171266D01*
X57873000Y-117389000D01*
X57250223Y-117389000D01*
X58589431Y-116049793D01*
X58671266Y-116083690D01*
X58889000Y-116127000D01*
X59111000Y-116127000D01*
X59328734Y-116083690D01*
X59533835Y-115998734D01*
X59718421Y-115875398D01*
X59875398Y-115718421D01*
X59998734Y-115533835D01*
X60083690Y-115328734D01*
X60127000Y-115111000D01*
X60127000Y-114889000D01*
X60083690Y-114671266D01*
X59998734Y-114466165D01*
X59875398Y-114281579D01*
X59718421Y-114124602D01*
X59533835Y-114001266D01*
X59452000Y-113967369D01*
X59452000Y-111687223D01*
X62067225Y-109072000D01*
X70050890Y-109072000D01*
X70124028Y-109248570D01*
X70269252Y-109465913D01*
X70454087Y-109650748D01*
X70671430Y-109795972D01*
X70912928Y-109896004D01*
X71169302Y-109947000D01*
X71430698Y-109947000D01*
X71687072Y-109896004D01*
X71928570Y-109795972D01*
X72145913Y-109650748D01*
X72330748Y-109465913D01*
X72475972Y-109248570D01*
X72576004Y-109007072D01*
X72627000Y-108750698D01*
X72627000Y-108489302D01*
X82673000Y-108489302D01*
X82673000Y-108750698D01*
X82723996Y-109007072D01*
X82824028Y-109248570D01*
X82969252Y-109465913D01*
X83154087Y-109650748D01*
X83371430Y-109795972D01*
X83612928Y-109896004D01*
X83869302Y-109947000D01*
X84130698Y-109947000D01*
X84387072Y-109896004D01*
X84403981Y-109889000D01*
X87873000Y-109889000D01*
X87873000Y-110111000D01*
X87916310Y-110328734D01*
X88001266Y-110533835D01*
X88124602Y-110718421D01*
X88281579Y-110875398D01*
X88466165Y-110998734D01*
X88671266Y-111083690D01*
X88889000Y-111127000D01*
X89111000Y-111127000D01*
X89328734Y-111083690D01*
X89533835Y-110998734D01*
X89718421Y-110875398D01*
X89875398Y-110718421D01*
X89998734Y-110533835D01*
X90083690Y-110328734D01*
X90127000Y-110111000D01*
X90127000Y-109889000D01*
X90083690Y-109671266D01*
X90016477Y-109509000D01*
X93873000Y-109509000D01*
X93873000Y-109731000D01*
X93916310Y-109948734D01*
X94001266Y-110153835D01*
X94124602Y-110338421D01*
X94281579Y-110495398D01*
X94466165Y-110618734D01*
X94671266Y-110703690D01*
X94889000Y-110747000D01*
X95111000Y-110747000D01*
X95328734Y-110703690D01*
X95533835Y-110618734D01*
X95718421Y-110495398D01*
X95875398Y-110338421D01*
X95998734Y-110153835D01*
X96083690Y-109948734D01*
X96127000Y-109731000D01*
X96127000Y-109509000D01*
X96083690Y-109291266D01*
X95998734Y-109086165D01*
X95875398Y-108901579D01*
X95718421Y-108744602D01*
X95533835Y-108621266D01*
X95328734Y-108536310D01*
X95111000Y-108493000D01*
X94889000Y-108493000D01*
X94671266Y-108536310D01*
X94466165Y-108621266D01*
X94281579Y-108744602D01*
X94124602Y-108901579D01*
X94001266Y-109086165D01*
X93916310Y-109291266D01*
X93873000Y-109509000D01*
X90016477Y-109509000D01*
X89998734Y-109466165D01*
X89875398Y-109281579D01*
X89718421Y-109124602D01*
X89533835Y-109001266D01*
X89328734Y-108916310D01*
X89111000Y-108873000D01*
X88889000Y-108873000D01*
X88671266Y-108916310D01*
X88466165Y-109001266D01*
X88281579Y-109124602D01*
X88124602Y-109281579D01*
X88001266Y-109466165D01*
X87916310Y-109671266D01*
X87873000Y-109889000D01*
X84403981Y-109889000D01*
X84628570Y-109795972D01*
X84845913Y-109650748D01*
X85030748Y-109465913D01*
X85175972Y-109248570D01*
X85276004Y-109007072D01*
X85327000Y-108750698D01*
X85327000Y-108489302D01*
X85276004Y-108232928D01*
X85175972Y-107991430D01*
X85030748Y-107774087D01*
X84845913Y-107589252D01*
X84628570Y-107444028D01*
X84495721Y-107389000D01*
X87873000Y-107389000D01*
X87873000Y-107611000D01*
X87916310Y-107828734D01*
X88001266Y-108033835D01*
X88124602Y-108218421D01*
X88281579Y-108375398D01*
X88466165Y-108498734D01*
X88671266Y-108583690D01*
X88889000Y-108627000D01*
X89111000Y-108627000D01*
X89328734Y-108583690D01*
X89533835Y-108498734D01*
X89718421Y-108375398D01*
X89875398Y-108218421D01*
X89998734Y-108033835D01*
X90083690Y-107828734D01*
X90127000Y-107611000D01*
X90127000Y-107389000D01*
X90083690Y-107171266D01*
X89998734Y-106966165D01*
X89875398Y-106781579D01*
X89718421Y-106624602D01*
X89533835Y-106501266D01*
X89328734Y-106416310D01*
X89111000Y-106373000D01*
X88889000Y-106373000D01*
X88671266Y-106416310D01*
X88466165Y-106501266D01*
X88281579Y-106624602D01*
X88124602Y-106781579D01*
X88001266Y-106966165D01*
X87916310Y-107171266D01*
X87873000Y-107389000D01*
X84495721Y-107389000D01*
X84387072Y-107343996D01*
X84130698Y-107293000D01*
X83869302Y-107293000D01*
X83612928Y-107343996D01*
X83371430Y-107444028D01*
X83154087Y-107589252D01*
X82969252Y-107774087D01*
X82824028Y-107991430D01*
X82723996Y-108232928D01*
X82673000Y-108489302D01*
X72627000Y-108489302D01*
X72576004Y-108232928D01*
X72475972Y-107991430D01*
X72330748Y-107774087D01*
X72145913Y-107589252D01*
X71928570Y-107444028D01*
X71687072Y-107343996D01*
X71430698Y-107293000D01*
X71169302Y-107293000D01*
X70912928Y-107343996D01*
X70671430Y-107444028D01*
X70454087Y-107589252D01*
X70269252Y-107774087D01*
X70124028Y-107991430D01*
X70050890Y-108168000D01*
X62067225Y-108168000D01*
X59429793Y-105530569D01*
X59463690Y-105448734D01*
X59507000Y-105231000D01*
X59507000Y-105009000D01*
X64873000Y-105009000D01*
X64873000Y-105231000D01*
X64916310Y-105448734D01*
X65001266Y-105653835D01*
X65124602Y-105838421D01*
X65281579Y-105995398D01*
X65466165Y-106118734D01*
X65671266Y-106203690D01*
X65889000Y-106247000D01*
X66111000Y-106247000D01*
X66328734Y-106203690D01*
X66533835Y-106118734D01*
X66718421Y-105995398D01*
X66875398Y-105838421D01*
X66998734Y-105653835D01*
X67083690Y-105448734D01*
X67127000Y-105231000D01*
X67127000Y-105009000D01*
X67083690Y-104791266D01*
X66998734Y-104586165D01*
X66875398Y-104401579D01*
X66718421Y-104244602D01*
X66533835Y-104121266D01*
X66328734Y-104036310D01*
X66111000Y-103993000D01*
X65889000Y-103993000D01*
X65671266Y-104036310D01*
X65466165Y-104121266D01*
X65281579Y-104244602D01*
X65124602Y-104401579D01*
X65001266Y-104586165D01*
X64916310Y-104791266D01*
X64873000Y-105009000D01*
X59507000Y-105009000D01*
X59463690Y-104791266D01*
X59378734Y-104586165D01*
X59255398Y-104401579D01*
X59098421Y-104244602D01*
X58913835Y-104121266D01*
X58708734Y-104036310D01*
X58491000Y-103993000D01*
X58269000Y-103993000D01*
X58051266Y-104036310D01*
X57846165Y-104121266D01*
X57661579Y-104244602D01*
X57504602Y-104401579D01*
X57381266Y-104586165D01*
X57296310Y-104791266D01*
X57253000Y-105009000D01*
X57253000Y-105231000D01*
X57296310Y-105448734D01*
X57381266Y-105653835D01*
X57504602Y-105838421D01*
X57661579Y-105995398D01*
X57846165Y-106118734D01*
X58051266Y-106203690D01*
X58269000Y-106247000D01*
X58491000Y-106247000D01*
X58708734Y-106203690D01*
X58790569Y-106169793D01*
X61240775Y-108620000D01*
X58696096Y-111164681D01*
X58678842Y-111178841D01*
X58622358Y-111247667D01*
X58580386Y-111326191D01*
X58554540Y-111411393D01*
X58545813Y-111500000D01*
X58548001Y-111522215D01*
X58548000Y-113967369D01*
X58466165Y-114001266D01*
X58281579Y-114124602D01*
X58124602Y-114281579D01*
X58001266Y-114466165D01*
X57916310Y-114671266D01*
X57873000Y-114889000D01*
X57873000Y-115111000D01*
X57916310Y-115328734D01*
X57950207Y-115410569D01*
X56312777Y-117048000D01*
X53532631Y-117048000D01*
X53498734Y-116966165D01*
X53375398Y-116781579D01*
X53218421Y-116624602D01*
X53033835Y-116501266D01*
X52828734Y-116416310D01*
X52611000Y-116373000D01*
X52389000Y-116373000D01*
X52171266Y-116416310D01*
X51966165Y-116501266D01*
X51781579Y-116624602D01*
X51624602Y-116781579D01*
X51501266Y-116966165D01*
X51450800Y-117088000D01*
X48586751Y-117088000D01*
X48543044Y-116982481D01*
X48414236Y-116789706D01*
X48250294Y-116625764D01*
X48057519Y-116496956D01*
X47843318Y-116408231D01*
X47615924Y-116363000D01*
X47384076Y-116363000D01*
X47156682Y-116408231D01*
X46942481Y-116496956D01*
X46749706Y-116625764D01*
X46585764Y-116789706D01*
X46456956Y-116982481D01*
X46368231Y-117196682D01*
X46323000Y-117424076D01*
X46323000Y-117655924D01*
X46368231Y-117883318D01*
X46456956Y-118097519D01*
X46585764Y-118290294D01*
X46749706Y-118454236D01*
X46942481Y-118583044D01*
X47156682Y-118671769D01*
X47384076Y-118717000D01*
X47615924Y-118717000D01*
X47843318Y-118671769D01*
X48057519Y-118583044D01*
X48250294Y-118454236D01*
X48414236Y-118290294D01*
X48543044Y-118097519D01*
X48586751Y-117992000D01*
X51483937Y-117992000D01*
X51501266Y-118033835D01*
X51624602Y-118218421D01*
X51781579Y-118375398D01*
X51966165Y-118498734D01*
X52048001Y-118532632D01*
X52048000Y-119467369D01*
X51966165Y-119501266D01*
X51781579Y-119624602D01*
X51624602Y-119781579D01*
X51501266Y-119966165D01*
X51416310Y-120171266D01*
X51373000Y-120389000D01*
X51373000Y-120611000D01*
X51416310Y-120828734D01*
X51501266Y-121033835D01*
X51624602Y-121218421D01*
X51641581Y-121235400D01*
X50409723Y-121235400D01*
X50370023Y-121195700D01*
X50355859Y-121178441D01*
X50287033Y-121121957D01*
X50208510Y-121079986D01*
X50123307Y-121054140D01*
X50056905Y-121047600D01*
X50034700Y-121045413D01*
X50012495Y-121047600D01*
X46629404Y-121047600D01*
X46607199Y-121045413D01*
X46518592Y-121054140D01*
X46511693Y-121056233D01*
X46433390Y-121079986D01*
X46354867Y-121121957D01*
X46286041Y-121178441D01*
X46271880Y-121195696D01*
X46195695Y-121271882D01*
X46178442Y-121286041D01*
X46121958Y-121354867D01*
X46079986Y-121433391D01*
X46054140Y-121518593D01*
X46045413Y-121607200D01*
X41352000Y-121607200D01*
X41352000Y-114150000D01*
X46321418Y-114150000D01*
X46321418Y-115850000D01*
X46327732Y-115914103D01*
X46346430Y-115975743D01*
X46376794Y-116032550D01*
X46417657Y-116082343D01*
X46467450Y-116123206D01*
X46524257Y-116153570D01*
X46585897Y-116172268D01*
X46650000Y-116178582D01*
X48350000Y-116178582D01*
X48414103Y-116172268D01*
X48475743Y-116153570D01*
X48532550Y-116123206D01*
X48582343Y-116082343D01*
X48623206Y-116032550D01*
X48653570Y-115975743D01*
X48672268Y-115914103D01*
X48678582Y-115850000D01*
X48678582Y-115452000D01*
X51467369Y-115452000D01*
X51501266Y-115533835D01*
X51624602Y-115718421D01*
X51781579Y-115875398D01*
X51966165Y-115998734D01*
X52171266Y-116083690D01*
X52389000Y-116127000D01*
X52611000Y-116127000D01*
X52828734Y-116083690D01*
X53033835Y-115998734D01*
X53218421Y-115875398D01*
X53375398Y-115718421D01*
X53498734Y-115533835D01*
X53583690Y-115328734D01*
X53627000Y-115111000D01*
X53627000Y-114889000D01*
X53583690Y-114671266D01*
X53498734Y-114466165D01*
X53375398Y-114281579D01*
X53218421Y-114124602D01*
X53033835Y-114001266D01*
X52828734Y-113916310D01*
X52611000Y-113873000D01*
X52389000Y-113873000D01*
X52171266Y-113916310D01*
X51966165Y-114001266D01*
X51781579Y-114124602D01*
X51624602Y-114281579D01*
X51501266Y-114466165D01*
X51467369Y-114548000D01*
X48678582Y-114548000D01*
X48678582Y-114150000D01*
X48672268Y-114085897D01*
X48653570Y-114024257D01*
X48623206Y-113967450D01*
X48582343Y-113917657D01*
X48532550Y-113876794D01*
X48475743Y-113846430D01*
X48414103Y-113827732D01*
X48350000Y-113821418D01*
X46650000Y-113821418D01*
X46585897Y-113827732D01*
X46524257Y-113846430D01*
X46467450Y-113876794D01*
X46417657Y-113917657D01*
X46376794Y-113967450D01*
X46346430Y-114024257D01*
X46327732Y-114085897D01*
X46321418Y-114150000D01*
X41352000Y-114150000D01*
X41352000Y-105009000D01*
X52873000Y-105009000D01*
X52873000Y-105231000D01*
X52916310Y-105448734D01*
X53001266Y-105653835D01*
X53124602Y-105838421D01*
X53281579Y-105995398D01*
X53466165Y-106118734D01*
X53671266Y-106203690D01*
X53889000Y-106247000D01*
X54111000Y-106247000D01*
X54328734Y-106203690D01*
X54533835Y-106118734D01*
X54718421Y-105995398D01*
X54875398Y-105838421D01*
X54998734Y-105653835D01*
X55083690Y-105448734D01*
X55127000Y-105231000D01*
X55127000Y-105009000D01*
X55083690Y-104791266D01*
X54998734Y-104586165D01*
X54875398Y-104401579D01*
X54718421Y-104244602D01*
X54533835Y-104121266D01*
X54328734Y-104036310D01*
X54111000Y-103993000D01*
X53889000Y-103993000D01*
X53671266Y-104036310D01*
X53466165Y-104121266D01*
X53281579Y-104244602D01*
X53124602Y-104401579D01*
X53001266Y-104586165D01*
X52916310Y-104791266D01*
X52873000Y-105009000D01*
X41352000Y-105009000D01*
X41352000Y-101805660D01*
X45598000Y-101805660D01*
X45598000Y-102244340D01*
X45683582Y-102674592D01*
X45851458Y-103079880D01*
X46095176Y-103444630D01*
X46405370Y-103754824D01*
X46770120Y-103998542D01*
X47175408Y-104166418D01*
X47605660Y-104252000D01*
X48044340Y-104252000D01*
X48474592Y-104166418D01*
X48879880Y-103998542D01*
X49244630Y-103754824D01*
X49554824Y-103444630D01*
X49798542Y-103079880D01*
X49966418Y-102674592D01*
X50007312Y-102469000D01*
X57253000Y-102469000D01*
X57253000Y-102691000D01*
X57296310Y-102908734D01*
X57381266Y-103113835D01*
X57504602Y-103298421D01*
X57661579Y-103455398D01*
X57846165Y-103578734D01*
X58051266Y-103663690D01*
X58269000Y-103707000D01*
X58491000Y-103707000D01*
X58708734Y-103663690D01*
X58913835Y-103578734D01*
X59098421Y-103455398D01*
X59255398Y-103298421D01*
X59378734Y-103113835D01*
X59463690Y-102908734D01*
X59507000Y-102691000D01*
X59507000Y-102469000D01*
X64873000Y-102469000D01*
X64873000Y-102691000D01*
X64916310Y-102908734D01*
X65001266Y-103113835D01*
X65124602Y-103298421D01*
X65281579Y-103455398D01*
X65466165Y-103578734D01*
X65671266Y-103663690D01*
X65889000Y-103707000D01*
X66111000Y-103707000D01*
X66328734Y-103663690D01*
X66533835Y-103578734D01*
X66718421Y-103455398D01*
X66875398Y-103298421D01*
X66998734Y-103113835D01*
X67083690Y-102908734D01*
X67127000Y-102691000D01*
X67127000Y-102469000D01*
X67083690Y-102251266D01*
X66998734Y-102046165D01*
X66875398Y-101861579D01*
X66718421Y-101704602D01*
X66533835Y-101581266D01*
X66328734Y-101496310D01*
X66111000Y-101453000D01*
X65889000Y-101453000D01*
X65671266Y-101496310D01*
X65466165Y-101581266D01*
X65281579Y-101704602D01*
X65124602Y-101861579D01*
X65001266Y-102046165D01*
X64916310Y-102251266D01*
X64873000Y-102469000D01*
X59507000Y-102469000D01*
X59463690Y-102251266D01*
X59429793Y-102169431D01*
X61670224Y-99929000D01*
X64873000Y-99929000D01*
X64873000Y-100151000D01*
X64916310Y-100368734D01*
X65001266Y-100573835D01*
X65124602Y-100758421D01*
X65281579Y-100915398D01*
X65466165Y-101038734D01*
X65671266Y-101123690D01*
X65889000Y-101167000D01*
X66111000Y-101167000D01*
X66328734Y-101123690D01*
X66533835Y-101038734D01*
X66718421Y-100915398D01*
X66764517Y-100869302D01*
X69973000Y-100869302D01*
X69973000Y-101130698D01*
X70023996Y-101387072D01*
X70124028Y-101628570D01*
X70269252Y-101845913D01*
X70454087Y-102030748D01*
X70671430Y-102175972D01*
X70912928Y-102276004D01*
X71169302Y-102327000D01*
X71430698Y-102327000D01*
X71687072Y-102276004D01*
X71928570Y-102175972D01*
X72145913Y-102030748D01*
X72330748Y-101845913D01*
X72475972Y-101628570D01*
X72576004Y-101387072D01*
X72627000Y-101130698D01*
X72627000Y-100869302D01*
X82673000Y-100869302D01*
X82673000Y-101130698D01*
X82723996Y-101387072D01*
X82824028Y-101628570D01*
X82969252Y-101845913D01*
X83154087Y-102030748D01*
X83371430Y-102175972D01*
X83612928Y-102276004D01*
X83869302Y-102327000D01*
X84130698Y-102327000D01*
X84387072Y-102276004D01*
X84628570Y-102175972D01*
X84845913Y-102030748D01*
X85030748Y-101845913D01*
X85175972Y-101628570D01*
X85276004Y-101387072D01*
X85327000Y-101130698D01*
X85327000Y-100869302D01*
X85276004Y-100612928D01*
X85175972Y-100371430D01*
X85030748Y-100154087D01*
X84845913Y-99969252D01*
X84628570Y-99824028D01*
X84387072Y-99723996D01*
X84130698Y-99673000D01*
X83869302Y-99673000D01*
X83612928Y-99723996D01*
X83371430Y-99824028D01*
X83154087Y-99969252D01*
X82969252Y-100154087D01*
X82824028Y-100371430D01*
X82723996Y-100612928D01*
X82673000Y-100869302D01*
X72627000Y-100869302D01*
X72576004Y-100612928D01*
X72475972Y-100371430D01*
X72330748Y-100154087D01*
X72145913Y-99969252D01*
X71928570Y-99824028D01*
X71687072Y-99723996D01*
X71430698Y-99673000D01*
X71169302Y-99673000D01*
X70912928Y-99723996D01*
X70671430Y-99824028D01*
X70454087Y-99969252D01*
X70269252Y-100154087D01*
X70124028Y-100371430D01*
X70023996Y-100612928D01*
X69973000Y-100869302D01*
X66764517Y-100869302D01*
X66875398Y-100758421D01*
X66998734Y-100573835D01*
X67083690Y-100368734D01*
X67127000Y-100151000D01*
X67127000Y-99929000D01*
X67083690Y-99711266D01*
X66998734Y-99506165D01*
X66875398Y-99321579D01*
X66718421Y-99164602D01*
X66533835Y-99041266D01*
X66328734Y-98956310D01*
X66111000Y-98913000D01*
X65889000Y-98913000D01*
X65671266Y-98956310D01*
X65466165Y-99041266D01*
X65281579Y-99164602D01*
X65124602Y-99321579D01*
X65001266Y-99506165D01*
X64916310Y-99711266D01*
X64873000Y-99929000D01*
X61670224Y-99929000D01*
X64210224Y-97389000D01*
X64873000Y-97389000D01*
X64873000Y-97611000D01*
X64916310Y-97828734D01*
X65001266Y-98033835D01*
X65124602Y-98218421D01*
X65281579Y-98375398D01*
X65466165Y-98498734D01*
X65671266Y-98583690D01*
X65889000Y-98627000D01*
X66111000Y-98627000D01*
X66328734Y-98583690D01*
X66509050Y-98509000D01*
X93873000Y-98509000D01*
X93873000Y-98731000D01*
X93916310Y-98948734D01*
X94001266Y-99153835D01*
X94124602Y-99338421D01*
X94281579Y-99495398D01*
X94466165Y-99618734D01*
X94573001Y-99662987D01*
X94573000Y-100957013D01*
X94466165Y-101001266D01*
X94281579Y-101124602D01*
X94124602Y-101281579D01*
X94001266Y-101466165D01*
X93916310Y-101671266D01*
X93873000Y-101889000D01*
X93873000Y-102111000D01*
X93916310Y-102328734D01*
X94001266Y-102533835D01*
X94124602Y-102718421D01*
X94281579Y-102875398D01*
X94466165Y-102998734D01*
X94671266Y-103083690D01*
X94889000Y-103127000D01*
X95023010Y-103127000D01*
X95023009Y-107220548D01*
X95004549Y-107281402D01*
X94995822Y-107370009D01*
X95004549Y-107458616D01*
X95030395Y-107543818D01*
X95072367Y-107622342D01*
X95114696Y-107673919D01*
X100526744Y-113085968D01*
X100512467Y-113120435D01*
X100473000Y-113318849D01*
X100473000Y-113521151D01*
X100512467Y-113719565D01*
X100589885Y-113906467D01*
X100702277Y-114074674D01*
X100845326Y-114217723D01*
X101013533Y-114330115D01*
X101200435Y-114407533D01*
X101398849Y-114447000D01*
X101601151Y-114447000D01*
X101799565Y-114407533D01*
X101986467Y-114330115D01*
X102154674Y-114217723D01*
X102297723Y-114074674D01*
X102410115Y-113906467D01*
X102487533Y-113719565D01*
X102527000Y-113521151D01*
X102527000Y-113318849D01*
X102487533Y-113120435D01*
X102410115Y-112933533D01*
X102297723Y-112765326D01*
X102154674Y-112622277D01*
X101986467Y-112509885D01*
X101799565Y-112432467D01*
X101601151Y-112393000D01*
X101398849Y-112393000D01*
X101200435Y-112432467D01*
X101165968Y-112446744D01*
X95877009Y-107157786D01*
X95877009Y-106780660D01*
X99273000Y-106780660D01*
X99273000Y-107219340D01*
X99358582Y-107649592D01*
X99526458Y-108054880D01*
X99770176Y-108419630D01*
X100080370Y-108729824D01*
X100445120Y-108973542D01*
X100850408Y-109141418D01*
X101280660Y-109227000D01*
X101719340Y-109227000D01*
X102149592Y-109141418D01*
X102554880Y-108973542D01*
X102919630Y-108729824D01*
X103229824Y-108419630D01*
X103473542Y-108054880D01*
X103641418Y-107649592D01*
X103727000Y-107219340D01*
X103727000Y-106780660D01*
X103641418Y-106350408D01*
X103473542Y-105945120D01*
X103229824Y-105580370D01*
X102919630Y-105270176D01*
X102554880Y-105026458D01*
X102149592Y-104858582D01*
X101719340Y-104773000D01*
X101280660Y-104773000D01*
X100850408Y-104858582D01*
X100445120Y-105026458D01*
X100080370Y-105270176D01*
X99770176Y-105580370D01*
X99526458Y-105945120D01*
X99358582Y-106350408D01*
X99273000Y-106780660D01*
X95877009Y-106780660D01*
X95877009Y-102716010D01*
X95998734Y-102533835D01*
X96083690Y-102328734D01*
X96127000Y-102111000D01*
X96127000Y-101889000D01*
X96083690Y-101671266D01*
X95998734Y-101466165D01*
X95875398Y-101281579D01*
X95718421Y-101124602D01*
X95533835Y-101001266D01*
X95427000Y-100957013D01*
X95427000Y-99662987D01*
X95533835Y-99618734D01*
X95718421Y-99495398D01*
X95875398Y-99338421D01*
X95913992Y-99280660D01*
X99273000Y-99280660D01*
X99273000Y-99719340D01*
X99358582Y-100149592D01*
X99526458Y-100554880D01*
X99770176Y-100919630D01*
X100080370Y-101229824D01*
X100445120Y-101473542D01*
X100850408Y-101641418D01*
X101280660Y-101727000D01*
X101719340Y-101727000D01*
X102149592Y-101641418D01*
X102554880Y-101473542D01*
X102919630Y-101229824D01*
X103229824Y-100919630D01*
X103473542Y-100554880D01*
X103641418Y-100149592D01*
X103727000Y-99719340D01*
X103727000Y-99280660D01*
X103641418Y-98850408D01*
X103473542Y-98445120D01*
X103229824Y-98080370D01*
X102919630Y-97770176D01*
X102554880Y-97526458D01*
X102149592Y-97358582D01*
X101719340Y-97273000D01*
X101280660Y-97273000D01*
X100850408Y-97358582D01*
X100445120Y-97526458D01*
X100080370Y-97770176D01*
X99770176Y-98080370D01*
X99526458Y-98445120D01*
X99358582Y-98850408D01*
X99273000Y-99280660D01*
X95913992Y-99280660D01*
X95998734Y-99153835D01*
X96083690Y-98948734D01*
X96127000Y-98731000D01*
X96127000Y-98509000D01*
X96083690Y-98291266D01*
X95998734Y-98086165D01*
X95875398Y-97901579D01*
X95718421Y-97744602D01*
X95533835Y-97621266D01*
X95328734Y-97536310D01*
X95111000Y-97493000D01*
X94889000Y-97493000D01*
X94671266Y-97536310D01*
X94466165Y-97621266D01*
X94281579Y-97744602D01*
X94124602Y-97901579D01*
X94001266Y-98086165D01*
X93916310Y-98291266D01*
X93873000Y-98509000D01*
X66509050Y-98509000D01*
X66533835Y-98498734D01*
X66718421Y-98375398D01*
X66875398Y-98218421D01*
X66998734Y-98033835D01*
X67083690Y-97828734D01*
X67127000Y-97611000D01*
X67127000Y-97389000D01*
X67083690Y-97171266D01*
X66998734Y-96966165D01*
X66875398Y-96781579D01*
X66718421Y-96624602D01*
X66533835Y-96501266D01*
X66328734Y-96416310D01*
X66111000Y-96373000D01*
X65889000Y-96373000D01*
X65671266Y-96416310D01*
X65466165Y-96501266D01*
X65281579Y-96624602D01*
X65124602Y-96781579D01*
X65001266Y-96966165D01*
X64916310Y-97171266D01*
X64873000Y-97389000D01*
X64210224Y-97389000D01*
X67767224Y-93832000D01*
X69971418Y-93832000D01*
X69971418Y-94380000D01*
X69977732Y-94444103D01*
X69996430Y-94505743D01*
X70026794Y-94562550D01*
X70067657Y-94612343D01*
X70117450Y-94653206D01*
X70174257Y-94683570D01*
X70235897Y-94702268D01*
X70300000Y-94708582D01*
X72300000Y-94708582D01*
X72364103Y-94702268D01*
X72425743Y-94683570D01*
X72482550Y-94653206D01*
X72532343Y-94612343D01*
X72573206Y-94562550D01*
X72603570Y-94505743D01*
X72622268Y-94444103D01*
X72628582Y-94380000D01*
X72628582Y-93249302D01*
X82673000Y-93249302D01*
X82673000Y-93510698D01*
X82723996Y-93767072D01*
X82824028Y-94008570D01*
X82969252Y-94225913D01*
X83154087Y-94410748D01*
X83371430Y-94555972D01*
X83612928Y-94656004D01*
X83869302Y-94707000D01*
X84130698Y-94707000D01*
X84387072Y-94656004D01*
X84628570Y-94555972D01*
X84845913Y-94410748D01*
X85030748Y-94225913D01*
X85175972Y-94008570D01*
X85225499Y-93889000D01*
X87873000Y-93889000D01*
X87873000Y-94111000D01*
X87916310Y-94328734D01*
X88001266Y-94533835D01*
X88124602Y-94718421D01*
X88281579Y-94875398D01*
X88466165Y-94998734D01*
X88671266Y-95083690D01*
X88889000Y-95127000D01*
X89111000Y-95127000D01*
X89328734Y-95083690D01*
X89533835Y-94998734D01*
X89718421Y-94875398D01*
X89875398Y-94718421D01*
X89998734Y-94533835D01*
X90083690Y-94328734D01*
X90127000Y-94111000D01*
X90127000Y-93889000D01*
X90083690Y-93671266D01*
X89998734Y-93466165D01*
X89875398Y-93281579D01*
X89718421Y-93124602D01*
X89533835Y-93001266D01*
X89328734Y-92916310D01*
X89111000Y-92873000D01*
X88889000Y-92873000D01*
X88671266Y-92916310D01*
X88466165Y-93001266D01*
X88281579Y-93124602D01*
X88124602Y-93281579D01*
X88001266Y-93466165D01*
X87916310Y-93671266D01*
X87873000Y-93889000D01*
X85225499Y-93889000D01*
X85276004Y-93767072D01*
X85327000Y-93510698D01*
X85327000Y-93249302D01*
X85276004Y-92992928D01*
X85175972Y-92751430D01*
X85030748Y-92534087D01*
X84845913Y-92349252D01*
X84628570Y-92204028D01*
X84387072Y-92103996D01*
X84130698Y-92053000D01*
X83869302Y-92053000D01*
X83612928Y-92103996D01*
X83371430Y-92204028D01*
X83154087Y-92349252D01*
X82969252Y-92534087D01*
X82824028Y-92751430D01*
X82723996Y-92992928D01*
X82673000Y-93249302D01*
X72628582Y-93249302D01*
X72628582Y-92380000D01*
X72622268Y-92315897D01*
X72603570Y-92254257D01*
X72573206Y-92197450D01*
X72532343Y-92147657D01*
X72482550Y-92106794D01*
X72425743Y-92076430D01*
X72364103Y-92057732D01*
X72300000Y-92051418D01*
X70300000Y-92051418D01*
X70235897Y-92057732D01*
X70174257Y-92076430D01*
X70117450Y-92106794D01*
X70067657Y-92147657D01*
X70026794Y-92197450D01*
X69996430Y-92254257D01*
X69977732Y-92315897D01*
X69971418Y-92380000D01*
X69971418Y-92928000D01*
X67602205Y-92928000D01*
X67580000Y-92925813D01*
X67491392Y-92934540D01*
X67406190Y-92960386D01*
X67327667Y-93002357D01*
X67258841Y-93058841D01*
X67244681Y-93076095D01*
X58790569Y-101530207D01*
X58708734Y-101496310D01*
X58491000Y-101453000D01*
X58269000Y-101453000D01*
X58051266Y-101496310D01*
X57846165Y-101581266D01*
X57661579Y-101704602D01*
X57504602Y-101861579D01*
X57381266Y-102046165D01*
X57296310Y-102251266D01*
X57253000Y-102469000D01*
X50007312Y-102469000D01*
X50052000Y-102244340D01*
X50052000Y-101805660D01*
X49966418Y-101375408D01*
X49798542Y-100970120D01*
X49554824Y-100605370D01*
X49244630Y-100295176D01*
X48879880Y-100051458D01*
X48474592Y-99883582D01*
X48044340Y-99798000D01*
X47605660Y-99798000D01*
X47175408Y-99883582D01*
X46770120Y-100051458D01*
X46405370Y-100295176D01*
X46095176Y-100605370D01*
X45851458Y-100970120D01*
X45683582Y-101375408D01*
X45598000Y-101805660D01*
X41352000Y-101805660D01*
X41352000Y-96455660D01*
X45598000Y-96455660D01*
X45598000Y-96894340D01*
X45683582Y-97324592D01*
X45851458Y-97729880D01*
X46095176Y-98094630D01*
X46405370Y-98404824D01*
X46770120Y-98648542D01*
X47175408Y-98816418D01*
X47605660Y-98902000D01*
X48044340Y-98902000D01*
X48474592Y-98816418D01*
X48879880Y-98648542D01*
X49244630Y-98404824D01*
X49554824Y-98094630D01*
X49798542Y-97729880D01*
X49966418Y-97324592D01*
X50052000Y-96894340D01*
X50052000Y-96455660D01*
X49966418Y-96025408D01*
X49798542Y-95620120D01*
X49554824Y-95255370D01*
X49244630Y-94945176D01*
X48879880Y-94701458D01*
X48474592Y-94533582D01*
X48044340Y-94448000D01*
X47605660Y-94448000D01*
X47175408Y-94533582D01*
X46770120Y-94701458D01*
X46405370Y-94945176D01*
X46095176Y-95255370D01*
X45851458Y-95620120D01*
X45683582Y-96025408D01*
X45598000Y-96455660D01*
X41352000Y-96455660D01*
X41352000Y-89889000D01*
X50873000Y-89889000D01*
X50873000Y-90111000D01*
X50916310Y-90328734D01*
X51001266Y-90533835D01*
X51124602Y-90718421D01*
X51281579Y-90875398D01*
X51466165Y-90998734D01*
X51605951Y-91056635D01*
X51622357Y-91087330D01*
X51678841Y-91156157D01*
X51696100Y-91170321D01*
X51898779Y-91373000D01*
X51889000Y-91373000D01*
X51671266Y-91416310D01*
X51466165Y-91501266D01*
X51281579Y-91624602D01*
X51124602Y-91781579D01*
X51001266Y-91966165D01*
X50916310Y-92171266D01*
X50873000Y-92389000D01*
X50873000Y-92611000D01*
X50916310Y-92828734D01*
X51001266Y-93033835D01*
X51124602Y-93218421D01*
X51281579Y-93375398D01*
X51466165Y-93498734D01*
X51671266Y-93583690D01*
X51889000Y-93627000D01*
X52111000Y-93627000D01*
X52328734Y-93583690D01*
X52533835Y-93498734D01*
X52718421Y-93375398D01*
X52875398Y-93218421D01*
X52998734Y-93033835D01*
X53083690Y-92828734D01*
X53127000Y-92611000D01*
X53127000Y-92601222D01*
X53548001Y-93022224D01*
X53548000Y-96467369D01*
X53466165Y-96501266D01*
X53281579Y-96624602D01*
X53124602Y-96781579D01*
X53001266Y-96966165D01*
X52916310Y-97171266D01*
X52873000Y-97389000D01*
X52873000Y-97611000D01*
X52916310Y-97828734D01*
X53001266Y-98033835D01*
X53124602Y-98218421D01*
X53281579Y-98375398D01*
X53466165Y-98498734D01*
X53671266Y-98583690D01*
X53889000Y-98627000D01*
X54111000Y-98627000D01*
X54328734Y-98583690D01*
X54533835Y-98498734D01*
X54718421Y-98375398D01*
X54875398Y-98218421D01*
X54998734Y-98033835D01*
X55083690Y-97828734D01*
X55127000Y-97611000D01*
X55127000Y-97389000D01*
X55083690Y-97171266D01*
X54998734Y-96966165D01*
X54875398Y-96781579D01*
X54793819Y-96700000D01*
X57251418Y-96700000D01*
X57251418Y-98300000D01*
X57257732Y-98364103D01*
X57276430Y-98425743D01*
X57306794Y-98482550D01*
X57347657Y-98532343D01*
X57397450Y-98573206D01*
X57454257Y-98603570D01*
X57515897Y-98622268D01*
X57580000Y-98628582D01*
X59053001Y-98628582D01*
X59053001Y-98727775D01*
X58790569Y-98990207D01*
X58708734Y-98956310D01*
X58491000Y-98913000D01*
X58269000Y-98913000D01*
X58051266Y-98956310D01*
X57846165Y-99041266D01*
X57661579Y-99164602D01*
X57504602Y-99321579D01*
X57381266Y-99506165D01*
X57296310Y-99711266D01*
X57253000Y-99929000D01*
X57253000Y-100151000D01*
X57296310Y-100368734D01*
X57381266Y-100573835D01*
X57504602Y-100758421D01*
X57661579Y-100915398D01*
X57846165Y-101038734D01*
X58051266Y-101123690D01*
X58269000Y-101167000D01*
X58491000Y-101167000D01*
X58708734Y-101123690D01*
X58913835Y-101038734D01*
X59098421Y-100915398D01*
X59255398Y-100758421D01*
X59378734Y-100573835D01*
X59463690Y-100368734D01*
X59507000Y-100151000D01*
X59507000Y-99929000D01*
X59463690Y-99711266D01*
X59429793Y-99629431D01*
X59808907Y-99250317D01*
X59826160Y-99236158D01*
X59882644Y-99167332D01*
X59924615Y-99088809D01*
X59950461Y-99003606D01*
X59957001Y-98937204D01*
X59957001Y-98937203D01*
X59959188Y-98914999D01*
X59957001Y-98892794D01*
X59957001Y-92159255D01*
X59975743Y-92153570D01*
X60032550Y-92123206D01*
X60082343Y-92082343D01*
X60123206Y-92032550D01*
X60153570Y-91975743D01*
X60172268Y-91914103D01*
X60178582Y-91850000D01*
X60178582Y-90884076D01*
X60363000Y-90884076D01*
X60363000Y-91115924D01*
X60408231Y-91343318D01*
X60496956Y-91557519D01*
X60625764Y-91750294D01*
X60789706Y-91914236D01*
X60982481Y-92043044D01*
X61196682Y-92131769D01*
X61424076Y-92177000D01*
X61655924Y-92177000D01*
X61883318Y-92131769D01*
X62097519Y-92043044D01*
X62290294Y-91914236D01*
X62454236Y-91750294D01*
X62583044Y-91557519D01*
X62671769Y-91343318D01*
X62717000Y-91115924D01*
X62717000Y-90884076D01*
X62903000Y-90884076D01*
X62903000Y-91115924D01*
X62948231Y-91343318D01*
X63036956Y-91557519D01*
X63165764Y-91750294D01*
X63329706Y-91914236D01*
X63522481Y-92043044D01*
X63736682Y-92131769D01*
X63964076Y-92177000D01*
X64195924Y-92177000D01*
X64423318Y-92131769D01*
X64637519Y-92043044D01*
X64830294Y-91914236D01*
X64994236Y-91750294D01*
X65123044Y-91557519D01*
X65192846Y-91389000D01*
X87873000Y-91389000D01*
X87873000Y-91611000D01*
X87916310Y-91828734D01*
X88001266Y-92033835D01*
X88124602Y-92218421D01*
X88281579Y-92375398D01*
X88466165Y-92498734D01*
X88671266Y-92583690D01*
X88889000Y-92627000D01*
X89111000Y-92627000D01*
X89328734Y-92583690D01*
X89533835Y-92498734D01*
X89718421Y-92375398D01*
X89875398Y-92218421D01*
X89998734Y-92033835D01*
X90083690Y-91828734D01*
X90127000Y-91611000D01*
X90127000Y-91389000D01*
X90083690Y-91171266D01*
X89998734Y-90966165D01*
X89947175Y-90889000D01*
X93873000Y-90889000D01*
X93873000Y-91111000D01*
X93916310Y-91328734D01*
X94001266Y-91533835D01*
X94124602Y-91718421D01*
X94281579Y-91875398D01*
X94466165Y-91998734D01*
X94671266Y-92083690D01*
X94889000Y-92127000D01*
X95111000Y-92127000D01*
X95328734Y-92083690D01*
X95533835Y-91998734D01*
X95718421Y-91875398D01*
X95875398Y-91718421D01*
X95998734Y-91533835D01*
X96083690Y-91328734D01*
X96093252Y-91280660D01*
X99273000Y-91280660D01*
X99273000Y-91719340D01*
X99358582Y-92149592D01*
X99526458Y-92554880D01*
X99770176Y-92919630D01*
X100080370Y-93229824D01*
X100445120Y-93473542D01*
X100850408Y-93641418D01*
X101280660Y-93727000D01*
X101719340Y-93727000D01*
X102149592Y-93641418D01*
X102554880Y-93473542D01*
X102919630Y-93229824D01*
X103229824Y-92919630D01*
X103473542Y-92554880D01*
X103641418Y-92149592D01*
X103727000Y-91719340D01*
X103727000Y-91280660D01*
X103641418Y-90850408D01*
X103473542Y-90445120D01*
X103229824Y-90080370D01*
X102919630Y-89770176D01*
X102554880Y-89526458D01*
X102149592Y-89358582D01*
X101719340Y-89273000D01*
X101280660Y-89273000D01*
X100850408Y-89358582D01*
X100445120Y-89526458D01*
X100080370Y-89770176D01*
X99770176Y-90080370D01*
X99526458Y-90445120D01*
X99358582Y-90850408D01*
X99273000Y-91280660D01*
X96093252Y-91280660D01*
X96127000Y-91111000D01*
X96127000Y-90889000D01*
X96083690Y-90671266D01*
X95998734Y-90466165D01*
X95875398Y-90281579D01*
X95718421Y-90124602D01*
X95533835Y-90001266D01*
X95328734Y-89916310D01*
X95111000Y-89873000D01*
X94889000Y-89873000D01*
X94671266Y-89916310D01*
X94466165Y-90001266D01*
X94281579Y-90124602D01*
X94124602Y-90281579D01*
X94001266Y-90466165D01*
X93916310Y-90671266D01*
X93873000Y-90889000D01*
X89947175Y-90889000D01*
X89875398Y-90781579D01*
X89718421Y-90624602D01*
X89533835Y-90501266D01*
X89328734Y-90416310D01*
X89111000Y-90373000D01*
X88889000Y-90373000D01*
X88671266Y-90416310D01*
X88466165Y-90501266D01*
X88281579Y-90624602D01*
X88124602Y-90781579D01*
X88001266Y-90966165D01*
X87916310Y-91171266D01*
X87873000Y-91389000D01*
X65192846Y-91389000D01*
X65211769Y-91343318D01*
X65257000Y-91115924D01*
X65257000Y-90884076D01*
X65211769Y-90656682D01*
X65123044Y-90442481D01*
X64994236Y-90249706D01*
X64830294Y-90085764D01*
X64637519Y-89956956D01*
X64423318Y-89868231D01*
X64195924Y-89823000D01*
X63964076Y-89823000D01*
X63736682Y-89868231D01*
X63522481Y-89956956D01*
X63329706Y-90085764D01*
X63165764Y-90249706D01*
X63036956Y-90442481D01*
X62948231Y-90656682D01*
X62903000Y-90884076D01*
X62717000Y-90884076D01*
X62671769Y-90656682D01*
X62583044Y-90442481D01*
X62454236Y-90249706D01*
X62290294Y-90085764D01*
X62097519Y-89956956D01*
X61883318Y-89868231D01*
X61655924Y-89823000D01*
X61424076Y-89823000D01*
X61196682Y-89868231D01*
X60982481Y-89956956D01*
X60789706Y-90085764D01*
X60625764Y-90249706D01*
X60496956Y-90442481D01*
X60408231Y-90656682D01*
X60363000Y-90884076D01*
X60178582Y-90884076D01*
X60178582Y-90150000D01*
X60172268Y-90085897D01*
X60153570Y-90024257D01*
X60123206Y-89967450D01*
X60082343Y-89917657D01*
X60032550Y-89876794D01*
X59975743Y-89846430D01*
X59914103Y-89827732D01*
X59850000Y-89821418D01*
X58150000Y-89821418D01*
X58085897Y-89827732D01*
X58024257Y-89846430D01*
X57967450Y-89876794D01*
X57917657Y-89917657D01*
X57876794Y-89967450D01*
X57846430Y-90024257D01*
X57827732Y-90085897D01*
X57821418Y-90150000D01*
X57821418Y-91850000D01*
X57827732Y-91914103D01*
X57846430Y-91975743D01*
X57876794Y-92032550D01*
X57917657Y-92082343D01*
X57967450Y-92123206D01*
X58024257Y-92153570D01*
X58085897Y-92172268D01*
X58150000Y-92178582D01*
X59053002Y-92178582D01*
X59053001Y-96371418D01*
X57580000Y-96371418D01*
X57515897Y-96377732D01*
X57454257Y-96396430D01*
X57397450Y-96426794D01*
X57347657Y-96467657D01*
X57306794Y-96517450D01*
X57276430Y-96574257D01*
X57257732Y-96635897D01*
X57251418Y-96700000D01*
X54793819Y-96700000D01*
X54718421Y-96624602D01*
X54533835Y-96501266D01*
X54452000Y-96467369D01*
X54452000Y-92857202D01*
X54454187Y-92834997D01*
X54445460Y-92746390D01*
X54419614Y-92661188D01*
X54392788Y-92611000D01*
X54377643Y-92582665D01*
X54321159Y-92513839D01*
X54303911Y-92499684D01*
X52695163Y-90890938D01*
X52718421Y-90875398D01*
X52875398Y-90718421D01*
X52998734Y-90533835D01*
X53083690Y-90328734D01*
X53127000Y-90111000D01*
X53127000Y-89889000D01*
X53083690Y-89671266D01*
X52998734Y-89466165D01*
X52875398Y-89281579D01*
X52718421Y-89124602D01*
X52533835Y-89001266D01*
X52328734Y-88916310D01*
X52111000Y-88873000D01*
X51889000Y-88873000D01*
X51671266Y-88916310D01*
X51466165Y-89001266D01*
X51281579Y-89124602D01*
X51124602Y-89281579D01*
X51001266Y-89466165D01*
X50916310Y-89671266D01*
X50873000Y-89889000D01*
X41352000Y-89889000D01*
X41352000Y-85352000D01*
X110648000Y-85352000D01*
X110648001Y-139148000D01*
%TA.AperFunction,Conductor*%
D33*
G36*
X110648001Y-139148000D02*
G01*
X41352000Y-139148000D01*
X41352000Y-135398849D01*
X81353000Y-135398849D01*
X81353000Y-135601151D01*
X81392467Y-135799565D01*
X81469885Y-135986467D01*
X81582277Y-136154674D01*
X81725326Y-136297723D01*
X81893533Y-136410115D01*
X82080435Y-136487533D01*
X82278849Y-136527000D01*
X82481151Y-136527000D01*
X82679565Y-136487533D01*
X82866467Y-136410115D01*
X83034674Y-136297723D01*
X83177723Y-136154674D01*
X83290115Y-135986467D01*
X83367533Y-135799565D01*
X83407000Y-135601151D01*
X83407000Y-135398849D01*
X88973000Y-135398849D01*
X88973000Y-135601151D01*
X89012467Y-135799565D01*
X89089885Y-135986467D01*
X89202277Y-136154674D01*
X89345326Y-136297723D01*
X89513533Y-136410115D01*
X89700435Y-136487533D01*
X89898849Y-136527000D01*
X90101151Y-136527000D01*
X90299565Y-136487533D01*
X90486467Y-136410115D01*
X90654674Y-136297723D01*
X90797723Y-136154674D01*
X90910115Y-135986467D01*
X90987533Y-135799565D01*
X91027000Y-135601151D01*
X91027000Y-135398849D01*
X90987533Y-135200435D01*
X90910115Y-135013533D01*
X90797723Y-134845326D01*
X90654674Y-134702277D01*
X90486467Y-134589885D01*
X90299565Y-134512467D01*
X90101151Y-134473000D01*
X89898849Y-134473000D01*
X89700435Y-134512467D01*
X89513533Y-134589885D01*
X89345326Y-134702277D01*
X89202277Y-134845326D01*
X89089885Y-135013533D01*
X89012467Y-135200435D01*
X88973000Y-135398849D01*
X83407000Y-135398849D01*
X83367533Y-135200435D01*
X83290115Y-135013533D01*
X83177723Y-134845326D01*
X83034674Y-134702277D01*
X82866467Y-134589885D01*
X82679565Y-134512467D01*
X82481151Y-134473000D01*
X82278849Y-134473000D01*
X82080435Y-134512467D01*
X81893533Y-134589885D01*
X81725326Y-134702277D01*
X81582277Y-134845326D01*
X81469885Y-135013533D01*
X81392467Y-135200435D01*
X81353000Y-135398849D01*
X41352000Y-135398849D01*
X41352000Y-121607200D01*
X46045413Y-121607200D01*
X46047601Y-121629415D01*
X46047600Y-124921295D01*
X46045413Y-124943500D01*
X46054140Y-125032107D01*
X46068926Y-125080849D01*
X46079986Y-125117309D01*
X46121957Y-125195832D01*
X46178441Y-125264659D01*
X46195700Y-125278823D01*
X48095381Y-127178505D01*
X48109541Y-127195759D01*
X48178367Y-127252243D01*
X48245156Y-127287942D01*
X48256890Y-127294214D01*
X48342092Y-127320060D01*
X48430700Y-127328787D01*
X48452905Y-127326600D01*
X51594520Y-127326600D01*
X51501266Y-127466165D01*
X51416310Y-127671266D01*
X51373000Y-127889000D01*
X51373000Y-128111000D01*
X51416310Y-128328734D01*
X51501266Y-128533835D01*
X51624602Y-128718421D01*
X51781579Y-128875398D01*
X51966165Y-128998734D01*
X52171266Y-129083690D01*
X52389000Y-129127000D01*
X52611000Y-129127000D01*
X52828734Y-129083690D01*
X53033835Y-128998734D01*
X53218421Y-128875398D01*
X53375398Y-128718421D01*
X53498734Y-128533835D01*
X53583690Y-128328734D01*
X53627000Y-128111000D01*
X53627000Y-127966023D01*
X56228086Y-130567111D01*
X56242241Y-130584359D01*
X56311067Y-130640843D01*
X56361875Y-130668000D01*
X56389590Y-130682814D01*
X56474792Y-130708660D01*
X56563399Y-130717387D01*
X56585604Y-130715200D01*
X71620395Y-130715200D01*
X71642600Y-130717387D01*
X71664805Y-130715200D01*
X71731207Y-130708660D01*
X71816410Y-130682814D01*
X71894933Y-130640843D01*
X71963759Y-130584359D01*
X71977923Y-130567100D01*
X72431412Y-130113613D01*
X72448659Y-130099459D01*
X72505143Y-130030633D01*
X72547114Y-129952110D01*
X72572960Y-129866907D01*
X72579500Y-129800505D01*
X72581687Y-129778301D01*
X72579500Y-129756096D01*
X72579500Y-129456167D01*
X72597597Y-129396508D01*
X72604500Y-129326422D01*
X72604500Y-129105000D01*
X72825923Y-129105000D01*
X72896008Y-129098097D01*
X72955667Y-129080000D01*
X80195477Y-129080000D01*
X82539386Y-131423911D01*
X82553541Y-131441159D01*
X82622367Y-131497643D01*
X82700890Y-131539614D01*
X82766262Y-131559444D01*
X82786092Y-131565460D01*
X82874699Y-131574187D01*
X82896904Y-131572000D01*
X82967369Y-131572000D01*
X83001266Y-131653835D01*
X83124602Y-131838421D01*
X83281579Y-131995398D01*
X83466165Y-132118734D01*
X83671266Y-132203690D01*
X83889000Y-132247000D01*
X84111000Y-132247000D01*
X84328734Y-132203690D01*
X84533835Y-132118734D01*
X84718421Y-131995398D01*
X84875398Y-131838421D01*
X84998734Y-131653835D01*
X85083690Y-131448734D01*
X85127000Y-131231000D01*
X85127000Y-131009000D01*
X87373000Y-131009000D01*
X87373000Y-131231000D01*
X87416310Y-131448734D01*
X87501266Y-131653835D01*
X87624602Y-131838421D01*
X87781579Y-131995398D01*
X87966165Y-132118734D01*
X88171266Y-132203690D01*
X88389000Y-132247000D01*
X88611000Y-132247000D01*
X88828734Y-132203690D01*
X89033835Y-132118734D01*
X89218421Y-131995398D01*
X89375398Y-131838421D01*
X89498734Y-131653835D01*
X89583690Y-131448734D01*
X89627000Y-131231000D01*
X89627000Y-131009000D01*
X89583690Y-130791266D01*
X89498734Y-130586165D01*
X89375398Y-130401579D01*
X89218421Y-130244602D01*
X89033835Y-130121266D01*
X88828734Y-130036310D01*
X88611000Y-129993000D01*
X88389000Y-129993000D01*
X88171266Y-130036310D01*
X87966165Y-130121266D01*
X87781579Y-130244602D01*
X87624602Y-130401579D01*
X87501266Y-130586165D01*
X87416310Y-130791266D01*
X87373000Y-131009000D01*
X85127000Y-131009000D01*
X85083690Y-130791266D01*
X84998734Y-130586165D01*
X84875398Y-130401579D01*
X84718421Y-130244602D01*
X84533835Y-130121266D01*
X84328734Y-130036310D01*
X84111000Y-129993000D01*
X83889000Y-129993000D01*
X83671266Y-130036310D01*
X83466165Y-130121266D01*
X83281579Y-130244602D01*
X83124602Y-130401579D01*
X83001266Y-130586165D01*
X82995064Y-130601139D01*
X80718023Y-128324100D01*
X80703859Y-128306841D01*
X80635033Y-128250357D01*
X80556510Y-128208386D01*
X80471307Y-128182540D01*
X80404905Y-128176000D01*
X80382700Y-128173813D01*
X80360495Y-128176000D01*
X75321459Y-128176000D01*
X75323744Y-128152800D01*
X75344364Y-128144259D01*
X75463436Y-128064698D01*
X75564698Y-127963436D01*
X75614434Y-127889000D01*
X93373000Y-127889000D01*
X93373000Y-128111000D01*
X93416310Y-128328734D01*
X93501266Y-128533835D01*
X93624602Y-128718421D01*
X93781579Y-128875398D01*
X93966165Y-128998734D01*
X94171266Y-129083690D01*
X94389000Y-129127000D01*
X94611000Y-129127000D01*
X94828734Y-129083690D01*
X95033835Y-128998734D01*
X95218421Y-128875398D01*
X95375398Y-128718421D01*
X95498734Y-128533835D01*
X95583690Y-128328734D01*
X95627000Y-128111000D01*
X95627000Y-127889000D01*
X95583690Y-127671266D01*
X95498734Y-127466165D01*
X95375398Y-127281579D01*
X95218421Y-127124602D01*
X95033835Y-127001266D01*
X94828734Y-126916310D01*
X94611000Y-126873000D01*
X94389000Y-126873000D01*
X94171266Y-126916310D01*
X93966165Y-127001266D01*
X93781579Y-127124602D01*
X93624602Y-127281579D01*
X93501266Y-127466165D01*
X93416310Y-127671266D01*
X93373000Y-127889000D01*
X75614434Y-127889000D01*
X75644259Y-127844364D01*
X75699062Y-127712058D01*
X75727000Y-127571603D01*
X75727000Y-127428397D01*
X75699062Y-127287942D01*
X75644259Y-127155636D01*
X75564698Y-127036564D01*
X75463436Y-126935302D01*
X75344364Y-126855741D01*
X75212058Y-126800938D01*
X75071603Y-126773000D01*
X74928397Y-126773000D01*
X74787942Y-126800938D01*
X74655636Y-126855741D01*
X74536564Y-126935302D01*
X74435302Y-127036564D01*
X74355741Y-127155636D01*
X74300938Y-127287942D01*
X74273000Y-127428397D01*
X74273000Y-127571603D01*
X74293766Y-127676000D01*
X73277079Y-127676000D01*
X73281807Y-127628000D01*
X73272597Y-127534492D01*
X73245322Y-127444577D01*
X73209736Y-127378000D01*
X73245322Y-127311423D01*
X73272597Y-127221508D01*
X73281807Y-127128000D01*
X73272597Y-127034492D01*
X73245322Y-126944577D01*
X73201029Y-126861711D01*
X73141421Y-126789079D01*
X73068789Y-126729471D01*
X72985923Y-126685178D01*
X72896008Y-126657903D01*
X72825923Y-126651000D01*
X72814724Y-126651000D01*
X72604500Y-126440776D01*
X72604500Y-126429577D01*
X72597597Y-126359492D01*
X72579500Y-126299833D01*
X72579500Y-126164923D01*
X75355423Y-123389000D01*
X82873000Y-123389000D01*
X82873000Y-123611000D01*
X82916310Y-123828734D01*
X83001266Y-124033835D01*
X83124602Y-124218421D01*
X83281579Y-124375398D01*
X83466165Y-124498734D01*
X83671266Y-124583690D01*
X83889000Y-124627000D01*
X84111000Y-124627000D01*
X84328734Y-124583690D01*
X84410569Y-124549793D01*
X85664686Y-125803911D01*
X85678841Y-125821159D01*
X85747667Y-125877643D01*
X85769089Y-125889093D01*
X85826190Y-125919614D01*
X85911392Y-125945460D01*
X85999999Y-125954187D01*
X86022204Y-125952000D01*
X93467369Y-125952000D01*
X93501266Y-126033835D01*
X93624602Y-126218421D01*
X93781579Y-126375398D01*
X93966165Y-126498734D01*
X94171266Y-126583690D01*
X94389000Y-126627000D01*
X94611000Y-126627000D01*
X94746738Y-126600000D01*
X100271418Y-126600000D01*
X100271418Y-128400000D01*
X100277732Y-128464103D01*
X100296430Y-128525743D01*
X100326794Y-128582550D01*
X100367657Y-128632343D01*
X100417450Y-128673206D01*
X100474257Y-128703570D01*
X100535897Y-128722268D01*
X100600000Y-128728582D01*
X102400000Y-128728582D01*
X102464103Y-128722268D01*
X102525743Y-128703570D01*
X102582550Y-128673206D01*
X102632343Y-128632343D01*
X102673206Y-128582550D01*
X102703570Y-128525743D01*
X102722268Y-128464103D01*
X102728582Y-128400000D01*
X102728582Y-126600000D01*
X102722268Y-126535897D01*
X102703570Y-126474257D01*
X102673206Y-126417450D01*
X102632343Y-126367657D01*
X102582550Y-126326794D01*
X102525743Y-126296430D01*
X102464103Y-126277732D01*
X102400000Y-126271418D01*
X100600000Y-126271418D01*
X100535897Y-126277732D01*
X100474257Y-126296430D01*
X100417450Y-126326794D01*
X100367657Y-126367657D01*
X100326794Y-126417450D01*
X100296430Y-126474257D01*
X100277732Y-126535897D01*
X100271418Y-126600000D01*
X94746738Y-126600000D01*
X94828734Y-126583690D01*
X95033835Y-126498734D01*
X95218421Y-126375398D01*
X95375398Y-126218421D01*
X95498734Y-126033835D01*
X95583690Y-125828734D01*
X95627000Y-125611000D01*
X95627000Y-125389000D01*
X95583690Y-125171266D01*
X95498734Y-124966165D01*
X95413867Y-124839151D01*
X100273000Y-124839151D01*
X100273000Y-125080849D01*
X100320153Y-125317903D01*
X100412647Y-125541202D01*
X100546927Y-125742167D01*
X100717833Y-125913073D01*
X100918798Y-126047353D01*
X101142097Y-126139847D01*
X101379151Y-126187000D01*
X101620849Y-126187000D01*
X101857903Y-126139847D01*
X102081202Y-126047353D01*
X102282167Y-125913073D01*
X102453073Y-125742167D01*
X102587353Y-125541202D01*
X102679847Y-125317903D01*
X102727000Y-125080849D01*
X102727000Y-124839151D01*
X102679847Y-124602097D01*
X102587353Y-124378798D01*
X102453073Y-124177833D01*
X102282167Y-124006927D01*
X102081202Y-123872647D01*
X101857903Y-123780153D01*
X101620849Y-123733000D01*
X101379151Y-123733000D01*
X101142097Y-123780153D01*
X100918798Y-123872647D01*
X100717833Y-124006927D01*
X100546927Y-124177833D01*
X100412647Y-124378798D01*
X100320153Y-124602097D01*
X100273000Y-124839151D01*
X95413867Y-124839151D01*
X95375398Y-124781579D01*
X95218421Y-124624602D01*
X95033835Y-124501266D01*
X94828734Y-124416310D01*
X94611000Y-124373000D01*
X94389000Y-124373000D01*
X94171266Y-124416310D01*
X93966165Y-124501266D01*
X93781579Y-124624602D01*
X93624602Y-124781579D01*
X93501266Y-124966165D01*
X93467369Y-125048000D01*
X86187225Y-125048000D01*
X85049793Y-123910569D01*
X85083690Y-123828734D01*
X85127000Y-123611000D01*
X85127000Y-123389000D01*
X87373000Y-123389000D01*
X87373000Y-123611000D01*
X87416310Y-123828734D01*
X87501266Y-124033835D01*
X87624602Y-124218421D01*
X87781579Y-124375398D01*
X87966165Y-124498734D01*
X88171266Y-124583690D01*
X88389000Y-124627000D01*
X88611000Y-124627000D01*
X88828734Y-124583690D01*
X89033835Y-124498734D01*
X89218421Y-124375398D01*
X89375398Y-124218421D01*
X89498734Y-124033835D01*
X89583690Y-123828734D01*
X89627000Y-123611000D01*
X89627000Y-123389000D01*
X89583690Y-123171266D01*
X89498734Y-122966165D01*
X89375398Y-122781579D01*
X89218421Y-122624602D01*
X89033835Y-122501266D01*
X88828734Y-122416310D01*
X88611000Y-122373000D01*
X88389000Y-122373000D01*
X88171266Y-122416310D01*
X87966165Y-122501266D01*
X87781579Y-122624602D01*
X87624602Y-122781579D01*
X87501266Y-122966165D01*
X87416310Y-123171266D01*
X87373000Y-123389000D01*
X85127000Y-123389000D01*
X85083690Y-123171266D01*
X84998734Y-122966165D01*
X84875398Y-122781579D01*
X84718421Y-122624602D01*
X84533835Y-122501266D01*
X84328734Y-122416310D01*
X84111000Y-122373000D01*
X83889000Y-122373000D01*
X83671266Y-122416310D01*
X83466165Y-122501266D01*
X83281579Y-122624602D01*
X83124602Y-122781579D01*
X83001266Y-122966165D01*
X82916310Y-123171266D01*
X82873000Y-123389000D01*
X75355423Y-123389000D01*
X76796634Y-121947790D01*
X76799028Y-121953570D01*
X76944252Y-122170913D01*
X77129087Y-122355748D01*
X77346430Y-122500972D01*
X77587928Y-122601004D01*
X77844302Y-122652000D01*
X78105698Y-122652000D01*
X78362072Y-122601004D01*
X78603570Y-122500972D01*
X78820913Y-122355748D01*
X79005748Y-122170913D01*
X79150972Y-121953570D01*
X79251004Y-121712072D01*
X79302000Y-121455698D01*
X79302000Y-121194302D01*
X79251004Y-120937928D01*
X79150972Y-120696430D01*
X79005748Y-120479087D01*
X78929061Y-120402400D01*
X79787177Y-120402400D01*
X80316181Y-120931405D01*
X80330341Y-120948659D01*
X80399167Y-121005143D01*
X80456684Y-121035886D01*
X80477690Y-121047114D01*
X80562892Y-121072960D01*
X80651499Y-121081687D01*
X80673704Y-121079500D01*
X85941895Y-121079500D01*
X85964100Y-121081687D01*
X85986305Y-121079500D01*
X86052707Y-121072960D01*
X86137910Y-121047114D01*
X86216433Y-121005143D01*
X86285259Y-120948659D01*
X86299423Y-120931400D01*
X87841823Y-119389000D01*
X89493000Y-119389000D01*
X89493000Y-119611000D01*
X89536310Y-119828734D01*
X89621266Y-120033835D01*
X89744602Y-120218421D01*
X89901579Y-120375398D01*
X90086165Y-120498734D01*
X90291266Y-120583690D01*
X90509000Y-120627000D01*
X90731000Y-120627000D01*
X90948734Y-120583690D01*
X91153835Y-120498734D01*
X91338421Y-120375398D01*
X91495398Y-120218421D01*
X91618734Y-120033835D01*
X91703690Y-119828734D01*
X91747000Y-119611000D01*
X91747000Y-119389000D01*
X93873000Y-119389000D01*
X93873000Y-119611000D01*
X93916310Y-119828734D01*
X94001266Y-120033835D01*
X94124602Y-120218421D01*
X94281579Y-120375398D01*
X94466165Y-120498734D01*
X94671266Y-120583690D01*
X94889000Y-120627000D01*
X95111000Y-120627000D01*
X95328734Y-120583690D01*
X95533835Y-120498734D01*
X95718421Y-120375398D01*
X95875398Y-120218421D01*
X95998734Y-120033835D01*
X96083690Y-119828734D01*
X96127000Y-119611000D01*
X96127000Y-119389000D01*
X96373000Y-119389000D01*
X96373000Y-119611000D01*
X96416310Y-119828734D01*
X96501266Y-120033835D01*
X96624602Y-120218421D01*
X96781579Y-120375398D01*
X96966165Y-120498734D01*
X97171266Y-120583690D01*
X97389000Y-120627000D01*
X97611000Y-120627000D01*
X97828734Y-120583690D01*
X98033835Y-120498734D01*
X98218421Y-120375398D01*
X98375398Y-120218421D01*
X98498734Y-120033835D01*
X98532631Y-119952000D01*
X100477795Y-119952000D01*
X100500000Y-119954187D01*
X100522205Y-119952000D01*
X100588607Y-119945460D01*
X100673810Y-119919614D01*
X100752333Y-119877643D01*
X100821159Y-119821159D01*
X100835323Y-119803900D01*
X101165967Y-119473256D01*
X101200435Y-119487533D01*
X101398849Y-119527000D01*
X101601151Y-119527000D01*
X101799565Y-119487533D01*
X101986467Y-119410115D01*
X102154674Y-119297723D01*
X102297723Y-119154674D01*
X102410115Y-118986467D01*
X102487533Y-118799565D01*
X102527000Y-118601151D01*
X102527000Y-118398849D01*
X102487533Y-118200435D01*
X102410115Y-118013533D01*
X102297723Y-117845326D01*
X102154674Y-117702277D01*
X101986467Y-117589885D01*
X101799565Y-117512467D01*
X101601151Y-117473000D01*
X101398849Y-117473000D01*
X101200435Y-117512467D01*
X101013533Y-117589885D01*
X100845326Y-117702277D01*
X100702277Y-117845326D01*
X100589885Y-118013533D01*
X100512467Y-118200435D01*
X100473000Y-118398849D01*
X100473000Y-118601151D01*
X100512467Y-118799565D01*
X100526744Y-118834033D01*
X100312777Y-119048000D01*
X98532631Y-119048000D01*
X98498734Y-118966165D01*
X98375398Y-118781579D01*
X98218421Y-118624602D01*
X98033835Y-118501266D01*
X97828734Y-118416310D01*
X97611000Y-118373000D01*
X97389000Y-118373000D01*
X97171266Y-118416310D01*
X96966165Y-118501266D01*
X96781579Y-118624602D01*
X96624602Y-118781579D01*
X96501266Y-118966165D01*
X96416310Y-119171266D01*
X96373000Y-119389000D01*
X96127000Y-119389000D01*
X96083690Y-119171266D01*
X95998734Y-118966165D01*
X95875398Y-118781579D01*
X95718421Y-118624602D01*
X95533835Y-118501266D01*
X95328734Y-118416310D01*
X95111000Y-118373000D01*
X94889000Y-118373000D01*
X94671266Y-118416310D01*
X94466165Y-118501266D01*
X94281579Y-118624602D01*
X94124602Y-118781579D01*
X94001266Y-118966165D01*
X93916310Y-119171266D01*
X93873000Y-119389000D01*
X91747000Y-119389000D01*
X91703690Y-119171266D01*
X91618734Y-118966165D01*
X91495398Y-118781579D01*
X91338421Y-118624602D01*
X91153835Y-118501266D01*
X90948734Y-118416310D01*
X90731000Y-118373000D01*
X90509000Y-118373000D01*
X90291266Y-118416310D01*
X90086165Y-118501266D01*
X89901579Y-118624602D01*
X89744602Y-118781579D01*
X89621266Y-118966165D01*
X89536310Y-119171266D01*
X89493000Y-119389000D01*
X87841823Y-119389000D01*
X92278824Y-114952000D01*
X93967369Y-114952000D01*
X94001266Y-115033835D01*
X94124602Y-115218421D01*
X94281579Y-115375398D01*
X94466165Y-115498734D01*
X94671266Y-115583690D01*
X94889000Y-115627000D01*
X95111000Y-115627000D01*
X95328734Y-115583690D01*
X95533835Y-115498734D01*
X95718421Y-115375398D01*
X95875398Y-115218421D01*
X95998734Y-115033835D01*
X96083690Y-114828734D01*
X96127000Y-114611000D01*
X96127000Y-114389000D01*
X96373000Y-114389000D01*
X96373000Y-114611000D01*
X96416310Y-114828734D01*
X96501266Y-115033835D01*
X96624602Y-115218421D01*
X96781579Y-115375398D01*
X96966165Y-115498734D01*
X97171266Y-115583690D01*
X97389000Y-115627000D01*
X97611000Y-115627000D01*
X97828734Y-115583690D01*
X98033835Y-115498734D01*
X98218421Y-115375398D01*
X98375398Y-115218421D01*
X98498734Y-115033835D01*
X98583690Y-114828734D01*
X98627000Y-114611000D01*
X98627000Y-114389000D01*
X98583690Y-114171266D01*
X98498734Y-113966165D01*
X98375398Y-113781579D01*
X98218421Y-113624602D01*
X98033835Y-113501266D01*
X97828734Y-113416310D01*
X97611000Y-113373000D01*
X97389000Y-113373000D01*
X97171266Y-113416310D01*
X96966165Y-113501266D01*
X96781579Y-113624602D01*
X96624602Y-113781579D01*
X96501266Y-113966165D01*
X96416310Y-114171266D01*
X96373000Y-114389000D01*
X96127000Y-114389000D01*
X96083690Y-114171266D01*
X95998734Y-113966165D01*
X95875398Y-113781579D01*
X95718421Y-113624602D01*
X95533835Y-113501266D01*
X95328734Y-113416310D01*
X95111000Y-113373000D01*
X94889000Y-113373000D01*
X94671266Y-113416310D01*
X94466165Y-113501266D01*
X94281579Y-113624602D01*
X94124602Y-113781579D01*
X94001266Y-113966165D01*
X93967369Y-114048000D01*
X92113805Y-114048000D01*
X92091600Y-114045813D01*
X92002992Y-114054540D01*
X91936620Y-114074674D01*
X91917790Y-114080386D01*
X91839267Y-114122357D01*
X91770441Y-114178841D01*
X91756281Y-114196095D01*
X91616444Y-114335932D01*
X91583690Y-114171266D01*
X91498734Y-113966165D01*
X91375398Y-113781579D01*
X91218421Y-113624602D01*
X91033835Y-113501266D01*
X90828734Y-113416310D01*
X90611000Y-113373000D01*
X90389000Y-113373000D01*
X90171266Y-113416310D01*
X89966165Y-113501266D01*
X89781579Y-113624602D01*
X89624602Y-113781579D01*
X89501266Y-113966165D01*
X89416310Y-114171266D01*
X89373000Y-114389000D01*
X89373000Y-114611000D01*
X89416310Y-114828734D01*
X89501266Y-115033835D01*
X89624602Y-115218421D01*
X89781579Y-115375398D01*
X89966165Y-115498734D01*
X90171266Y-115583690D01*
X90335932Y-115616444D01*
X85776877Y-120175500D01*
X83904077Y-120175500D01*
X83998734Y-120033835D01*
X84083690Y-119828734D01*
X84127000Y-119611000D01*
X84127000Y-119389000D01*
X84083690Y-119171266D01*
X83998734Y-118966165D01*
X83875398Y-118781579D01*
X83718421Y-118624602D01*
X83533835Y-118501266D01*
X83328734Y-118416310D01*
X83111000Y-118373000D01*
X82889000Y-118373000D01*
X82671266Y-118416310D01*
X82466165Y-118501266D01*
X82281579Y-118624602D01*
X82124602Y-118781579D01*
X82001266Y-118966165D01*
X81967369Y-119048000D01*
X65242804Y-119048000D01*
X65220599Y-119045813D01*
X65131992Y-119054540D01*
X65046790Y-119080386D01*
X64968267Y-119122357D01*
X64899441Y-119178841D01*
X64885285Y-119196090D01*
X63612800Y-120468577D01*
X63595541Y-120482741D01*
X63539057Y-120551568D01*
X63519259Y-120588608D01*
X63497086Y-120630091D01*
X63471240Y-120715293D01*
X63462513Y-120803900D01*
X63464700Y-120826105D01*
X63464701Y-123247785D01*
X63462513Y-123270000D01*
X63471240Y-123358607D01*
X63497086Y-123443809D01*
X63526052Y-123498000D01*
X63539058Y-123522333D01*
X63595542Y-123591159D01*
X63612796Y-123605319D01*
X69333775Y-129326300D01*
X59465524Y-129326300D01*
X55567621Y-125428397D01*
X57273000Y-125428397D01*
X57273000Y-125571603D01*
X57300938Y-125712058D01*
X57355741Y-125844364D01*
X57435302Y-125963436D01*
X57536564Y-126064698D01*
X57548000Y-126072340D01*
X57548000Y-126477795D01*
X57545813Y-126500000D01*
X57554540Y-126588607D01*
X57564751Y-126622267D01*
X57580386Y-126673809D01*
X57622357Y-126752332D01*
X57678841Y-126821159D01*
X57696100Y-126835323D01*
X58876430Y-128015654D01*
X58890590Y-128032908D01*
X58959416Y-128089392D01*
X59031647Y-128128000D01*
X59037939Y-128131363D01*
X59123141Y-128157209D01*
X59211749Y-128165936D01*
X59233954Y-128163749D01*
X65927661Y-128163749D01*
X65935302Y-128175185D01*
X66036564Y-128276447D01*
X66155636Y-128356008D01*
X66287942Y-128410811D01*
X66428397Y-128438749D01*
X66571603Y-128438749D01*
X66712058Y-128410811D01*
X66844364Y-128356008D01*
X66963436Y-128276447D01*
X67064698Y-128175185D01*
X67144259Y-128056113D01*
X67199062Y-127923807D01*
X67227000Y-127783352D01*
X67227000Y-127640146D01*
X67199062Y-127499691D01*
X67144259Y-127367385D01*
X67064698Y-127248313D01*
X66963436Y-127147051D01*
X66844364Y-127067490D01*
X66712058Y-127012687D01*
X66571603Y-126984749D01*
X66428397Y-126984749D01*
X66287942Y-127012687D01*
X66155636Y-127067490D01*
X66036564Y-127147051D01*
X65935302Y-127248313D01*
X65927661Y-127259749D01*
X59398973Y-127259749D01*
X58452000Y-126312777D01*
X58452000Y-126072339D01*
X58463436Y-126064698D01*
X58564698Y-125963436D01*
X58644259Y-125844364D01*
X58699062Y-125712058D01*
X58727000Y-125571603D01*
X58727000Y-125428397D01*
X58699062Y-125287942D01*
X58644259Y-125155636D01*
X58564698Y-125036564D01*
X58463436Y-124935302D01*
X58344364Y-124855741D01*
X58212058Y-124800938D01*
X58071603Y-124773000D01*
X57928397Y-124773000D01*
X57787942Y-124800938D01*
X57655636Y-124855741D01*
X57536564Y-124935302D01*
X57435302Y-125036564D01*
X57355741Y-125155636D01*
X57300938Y-125287942D01*
X57273000Y-125428397D01*
X55567621Y-125428397D01*
X53549793Y-123410569D01*
X53583690Y-123328734D01*
X53627000Y-123111000D01*
X53627000Y-122889000D01*
X57873000Y-122889000D01*
X57873000Y-123111000D01*
X57916310Y-123328734D01*
X58001266Y-123533835D01*
X58124602Y-123718421D01*
X58281579Y-123875398D01*
X58466165Y-123998734D01*
X58671266Y-124083690D01*
X58889000Y-124127000D01*
X59111000Y-124127000D01*
X59328734Y-124083690D01*
X59533835Y-123998734D01*
X59718421Y-123875398D01*
X59875398Y-123718421D01*
X59998734Y-123533835D01*
X60083690Y-123328734D01*
X60127000Y-123111000D01*
X60127000Y-122889000D01*
X60083690Y-122671266D01*
X60049793Y-122589431D01*
X66743224Y-115896000D01*
X81913795Y-115896000D01*
X81936000Y-115898187D01*
X81958205Y-115896000D01*
X82024607Y-115889460D01*
X82109810Y-115863614D01*
X82188333Y-115821643D01*
X82257159Y-115765159D01*
X82271323Y-115747900D01*
X82469431Y-115549793D01*
X82551266Y-115583690D01*
X82769000Y-115627000D01*
X82991000Y-115627000D01*
X83208734Y-115583690D01*
X83413835Y-115498734D01*
X83598421Y-115375398D01*
X83755398Y-115218421D01*
X83878734Y-115033835D01*
X83963690Y-114828734D01*
X84007000Y-114611000D01*
X84007000Y-114389000D01*
X83963690Y-114171266D01*
X83878734Y-113966165D01*
X83755398Y-113781579D01*
X83598421Y-113624602D01*
X83413835Y-113501266D01*
X83208734Y-113416310D01*
X82991000Y-113373000D01*
X82769000Y-113373000D01*
X82551266Y-113416310D01*
X82346165Y-113501266D01*
X82161579Y-113624602D01*
X82004602Y-113781579D01*
X81881266Y-113966165D01*
X81796310Y-114171266D01*
X81753000Y-114389000D01*
X81753000Y-114611000D01*
X81796310Y-114828734D01*
X81830207Y-114910569D01*
X81748777Y-114992000D01*
X76043913Y-114992000D01*
X76218421Y-114875398D01*
X76375398Y-114718421D01*
X76498734Y-114533835D01*
X76583690Y-114328734D01*
X76627000Y-114111000D01*
X76627000Y-113889000D01*
X76583690Y-113671266D01*
X76498734Y-113466165D01*
X76375398Y-113281579D01*
X76218421Y-113124602D01*
X76033835Y-113001266D01*
X75828734Y-112916310D01*
X75611000Y-112873000D01*
X75389000Y-112873000D01*
X75171266Y-112916310D01*
X74966165Y-113001266D01*
X74781579Y-113124602D01*
X74624602Y-113281579D01*
X74501266Y-113466165D01*
X74416310Y-113671266D01*
X74373000Y-113889000D01*
X74373000Y-114111000D01*
X74416310Y-114328734D01*
X74501266Y-114533835D01*
X74624602Y-114718421D01*
X74781579Y-114875398D01*
X74956087Y-114992000D01*
X68945451Y-114992000D01*
X68953206Y-114982550D01*
X68983570Y-114925743D01*
X69002268Y-114864103D01*
X69008582Y-114800000D01*
X69008582Y-113200000D01*
X69002268Y-113135897D01*
X68983570Y-113074257D01*
X68953206Y-113017450D01*
X68912343Y-112967657D01*
X68862550Y-112926794D01*
X68805743Y-112896430D01*
X68744103Y-112877732D01*
X68680000Y-112871418D01*
X67080000Y-112871418D01*
X67015897Y-112877732D01*
X66954257Y-112896430D01*
X66897450Y-112926794D01*
X66847657Y-112967657D01*
X66806794Y-113017450D01*
X66776430Y-113074257D01*
X66757732Y-113135897D01*
X66751418Y-113200000D01*
X66751418Y-114800000D01*
X66757732Y-114864103D01*
X66776430Y-114925743D01*
X66806794Y-114982550D01*
X66814549Y-114992000D01*
X66578205Y-114992000D01*
X66556000Y-114989813D01*
X66467392Y-114998540D01*
X66389383Y-115022204D01*
X66382190Y-115024386D01*
X66303667Y-115066357D01*
X66234841Y-115122841D01*
X66220681Y-115140095D01*
X59410569Y-121950207D01*
X59328734Y-121916310D01*
X59111000Y-121873000D01*
X58889000Y-121873000D01*
X58671266Y-121916310D01*
X58466165Y-122001266D01*
X58281579Y-122124602D01*
X58124602Y-122281579D01*
X58001266Y-122466165D01*
X57916310Y-122671266D01*
X57873000Y-122889000D01*
X53627000Y-122889000D01*
X53583690Y-122671266D01*
X53498734Y-122466165D01*
X53375398Y-122281579D01*
X53233219Y-122139400D01*
X57790395Y-122139400D01*
X57812600Y-122141587D01*
X57834805Y-122139400D01*
X57901207Y-122132860D01*
X57986410Y-122107014D01*
X58064933Y-122065043D01*
X58133759Y-122008559D01*
X58147923Y-121991300D01*
X58589431Y-121549793D01*
X58671266Y-121583690D01*
X58889000Y-121627000D01*
X59111000Y-121627000D01*
X59328734Y-121583690D01*
X59533835Y-121498734D01*
X59718421Y-121375398D01*
X59875398Y-121218421D01*
X59998734Y-121033835D01*
X60083690Y-120828734D01*
X60127000Y-120611000D01*
X60127000Y-120389000D01*
X60083690Y-120171266D01*
X59998734Y-119966165D01*
X59875398Y-119781579D01*
X59718421Y-119624602D01*
X59533835Y-119501266D01*
X59328734Y-119416310D01*
X59111000Y-119373000D01*
X58889000Y-119373000D01*
X58671266Y-119416310D01*
X58466165Y-119501266D01*
X58281579Y-119624602D01*
X58124602Y-119781579D01*
X58001266Y-119966165D01*
X57916310Y-120171266D01*
X57873000Y-120389000D01*
X57873000Y-120611000D01*
X57916310Y-120828734D01*
X57950207Y-120910569D01*
X57625377Y-121235400D01*
X53358419Y-121235400D01*
X53375398Y-121218421D01*
X53498734Y-121033835D01*
X53583690Y-120828734D01*
X53627000Y-120611000D01*
X53627000Y-120389000D01*
X53583690Y-120171266D01*
X53498734Y-119966165D01*
X53375398Y-119781579D01*
X53218421Y-119624602D01*
X53033835Y-119501266D01*
X52952000Y-119467369D01*
X52952000Y-118532631D01*
X53033835Y-118498734D01*
X53218421Y-118375398D01*
X53375398Y-118218421D01*
X53498734Y-118033835D01*
X53532631Y-117952000D01*
X56477795Y-117952000D01*
X56500000Y-117954187D01*
X56522205Y-117952000D01*
X56588607Y-117945460D01*
X56673810Y-117919614D01*
X56752333Y-117877643D01*
X56821159Y-117821159D01*
X56835323Y-117803900D01*
X57250223Y-117389000D01*
X57873000Y-117389000D01*
X57873000Y-117611000D01*
X57916310Y-117828734D01*
X58001266Y-118033835D01*
X58124602Y-118218421D01*
X58281579Y-118375398D01*
X58466165Y-118498734D01*
X58671266Y-118583690D01*
X58889000Y-118627000D01*
X59111000Y-118627000D01*
X59328734Y-118583690D01*
X59533835Y-118498734D01*
X59718421Y-118375398D01*
X59875398Y-118218421D01*
X59998734Y-118033835D01*
X60083690Y-117828734D01*
X60127000Y-117611000D01*
X60127000Y-117389000D01*
X60083690Y-117171266D01*
X59998734Y-116966165D01*
X59875398Y-116781579D01*
X59718421Y-116624602D01*
X59533835Y-116501266D01*
X59328734Y-116416310D01*
X59111000Y-116373000D01*
X58889000Y-116373000D01*
X58671266Y-116416310D01*
X58466165Y-116501266D01*
X58281579Y-116624602D01*
X58124602Y-116781579D01*
X58001266Y-116966165D01*
X57916310Y-117171266D01*
X57873000Y-117389000D01*
X57250223Y-117389000D01*
X58589431Y-116049793D01*
X58671266Y-116083690D01*
X58889000Y-116127000D01*
X59111000Y-116127000D01*
X59328734Y-116083690D01*
X59533835Y-115998734D01*
X59718421Y-115875398D01*
X59875398Y-115718421D01*
X59998734Y-115533835D01*
X60083690Y-115328734D01*
X60127000Y-115111000D01*
X60127000Y-114889000D01*
X60083690Y-114671266D01*
X59998734Y-114466165D01*
X59875398Y-114281579D01*
X59718421Y-114124602D01*
X59533835Y-114001266D01*
X59452000Y-113967369D01*
X59452000Y-111687223D01*
X62067225Y-109072000D01*
X70050890Y-109072000D01*
X70124028Y-109248570D01*
X70269252Y-109465913D01*
X70454087Y-109650748D01*
X70671430Y-109795972D01*
X70912928Y-109896004D01*
X71169302Y-109947000D01*
X71430698Y-109947000D01*
X71687072Y-109896004D01*
X71928570Y-109795972D01*
X72145913Y-109650748D01*
X72330748Y-109465913D01*
X72475972Y-109248570D01*
X72576004Y-109007072D01*
X72627000Y-108750698D01*
X72627000Y-108489302D01*
X82673000Y-108489302D01*
X82673000Y-108750698D01*
X82723996Y-109007072D01*
X82824028Y-109248570D01*
X82969252Y-109465913D01*
X83154087Y-109650748D01*
X83371430Y-109795972D01*
X83612928Y-109896004D01*
X83869302Y-109947000D01*
X84130698Y-109947000D01*
X84387072Y-109896004D01*
X84403981Y-109889000D01*
X87873000Y-109889000D01*
X87873000Y-110111000D01*
X87916310Y-110328734D01*
X88001266Y-110533835D01*
X88124602Y-110718421D01*
X88281579Y-110875398D01*
X88466165Y-110998734D01*
X88671266Y-111083690D01*
X88889000Y-111127000D01*
X89111000Y-111127000D01*
X89328734Y-111083690D01*
X89533835Y-110998734D01*
X89718421Y-110875398D01*
X89875398Y-110718421D01*
X89998734Y-110533835D01*
X90083690Y-110328734D01*
X90127000Y-110111000D01*
X90127000Y-109889000D01*
X90083690Y-109671266D01*
X90016477Y-109509000D01*
X93873000Y-109509000D01*
X93873000Y-109731000D01*
X93916310Y-109948734D01*
X94001266Y-110153835D01*
X94124602Y-110338421D01*
X94281579Y-110495398D01*
X94466165Y-110618734D01*
X94671266Y-110703690D01*
X94889000Y-110747000D01*
X95111000Y-110747000D01*
X95328734Y-110703690D01*
X95533835Y-110618734D01*
X95718421Y-110495398D01*
X95875398Y-110338421D01*
X95998734Y-110153835D01*
X96083690Y-109948734D01*
X96127000Y-109731000D01*
X96127000Y-109509000D01*
X96083690Y-109291266D01*
X95998734Y-109086165D01*
X95875398Y-108901579D01*
X95718421Y-108744602D01*
X95533835Y-108621266D01*
X95328734Y-108536310D01*
X95111000Y-108493000D01*
X94889000Y-108493000D01*
X94671266Y-108536310D01*
X94466165Y-108621266D01*
X94281579Y-108744602D01*
X94124602Y-108901579D01*
X94001266Y-109086165D01*
X93916310Y-109291266D01*
X93873000Y-109509000D01*
X90016477Y-109509000D01*
X89998734Y-109466165D01*
X89875398Y-109281579D01*
X89718421Y-109124602D01*
X89533835Y-109001266D01*
X89328734Y-108916310D01*
X89111000Y-108873000D01*
X88889000Y-108873000D01*
X88671266Y-108916310D01*
X88466165Y-109001266D01*
X88281579Y-109124602D01*
X88124602Y-109281579D01*
X88001266Y-109466165D01*
X87916310Y-109671266D01*
X87873000Y-109889000D01*
X84403981Y-109889000D01*
X84628570Y-109795972D01*
X84845913Y-109650748D01*
X85030748Y-109465913D01*
X85175972Y-109248570D01*
X85276004Y-109007072D01*
X85327000Y-108750698D01*
X85327000Y-108489302D01*
X85276004Y-108232928D01*
X85175972Y-107991430D01*
X85030748Y-107774087D01*
X84845913Y-107589252D01*
X84628570Y-107444028D01*
X84495721Y-107389000D01*
X87873000Y-107389000D01*
X87873000Y-107611000D01*
X87916310Y-107828734D01*
X88001266Y-108033835D01*
X88124602Y-108218421D01*
X88281579Y-108375398D01*
X88466165Y-108498734D01*
X88671266Y-108583690D01*
X88889000Y-108627000D01*
X89111000Y-108627000D01*
X89328734Y-108583690D01*
X89533835Y-108498734D01*
X89718421Y-108375398D01*
X89875398Y-108218421D01*
X89998734Y-108033835D01*
X90083690Y-107828734D01*
X90127000Y-107611000D01*
X90127000Y-107389000D01*
X90083690Y-107171266D01*
X89998734Y-106966165D01*
X89875398Y-106781579D01*
X89718421Y-106624602D01*
X89533835Y-106501266D01*
X89328734Y-106416310D01*
X89111000Y-106373000D01*
X88889000Y-106373000D01*
X88671266Y-106416310D01*
X88466165Y-106501266D01*
X88281579Y-106624602D01*
X88124602Y-106781579D01*
X88001266Y-106966165D01*
X87916310Y-107171266D01*
X87873000Y-107389000D01*
X84495721Y-107389000D01*
X84387072Y-107343996D01*
X84130698Y-107293000D01*
X83869302Y-107293000D01*
X83612928Y-107343996D01*
X83371430Y-107444028D01*
X83154087Y-107589252D01*
X82969252Y-107774087D01*
X82824028Y-107991430D01*
X82723996Y-108232928D01*
X82673000Y-108489302D01*
X72627000Y-108489302D01*
X72576004Y-108232928D01*
X72475972Y-107991430D01*
X72330748Y-107774087D01*
X72145913Y-107589252D01*
X71928570Y-107444028D01*
X71687072Y-107343996D01*
X71430698Y-107293000D01*
X71169302Y-107293000D01*
X70912928Y-107343996D01*
X70671430Y-107444028D01*
X70454087Y-107589252D01*
X70269252Y-107774087D01*
X70124028Y-107991430D01*
X70050890Y-108168000D01*
X62067225Y-108168000D01*
X59429793Y-105530569D01*
X59463690Y-105448734D01*
X59507000Y-105231000D01*
X59507000Y-105009000D01*
X64873000Y-105009000D01*
X64873000Y-105231000D01*
X64916310Y-105448734D01*
X65001266Y-105653835D01*
X65124602Y-105838421D01*
X65281579Y-105995398D01*
X65466165Y-106118734D01*
X65671266Y-106203690D01*
X65889000Y-106247000D01*
X66111000Y-106247000D01*
X66328734Y-106203690D01*
X66533835Y-106118734D01*
X66718421Y-105995398D01*
X66875398Y-105838421D01*
X66998734Y-105653835D01*
X67083690Y-105448734D01*
X67127000Y-105231000D01*
X67127000Y-105009000D01*
X67083690Y-104791266D01*
X66998734Y-104586165D01*
X66875398Y-104401579D01*
X66718421Y-104244602D01*
X66533835Y-104121266D01*
X66328734Y-104036310D01*
X66111000Y-103993000D01*
X65889000Y-103993000D01*
X65671266Y-104036310D01*
X65466165Y-104121266D01*
X65281579Y-104244602D01*
X65124602Y-104401579D01*
X65001266Y-104586165D01*
X64916310Y-104791266D01*
X64873000Y-105009000D01*
X59507000Y-105009000D01*
X59463690Y-104791266D01*
X59378734Y-104586165D01*
X59255398Y-104401579D01*
X59098421Y-104244602D01*
X58913835Y-104121266D01*
X58708734Y-104036310D01*
X58491000Y-103993000D01*
X58269000Y-103993000D01*
X58051266Y-104036310D01*
X57846165Y-104121266D01*
X57661579Y-104244602D01*
X57504602Y-104401579D01*
X57381266Y-104586165D01*
X57296310Y-104791266D01*
X57253000Y-105009000D01*
X57253000Y-105231000D01*
X57296310Y-105448734D01*
X57381266Y-105653835D01*
X57504602Y-105838421D01*
X57661579Y-105995398D01*
X57846165Y-106118734D01*
X58051266Y-106203690D01*
X58269000Y-106247000D01*
X58491000Y-106247000D01*
X58708734Y-106203690D01*
X58790569Y-106169793D01*
X61240775Y-108620000D01*
X58696096Y-111164681D01*
X58678842Y-111178841D01*
X58622358Y-111247667D01*
X58580386Y-111326191D01*
X58554540Y-111411393D01*
X58545813Y-111500000D01*
X58548001Y-111522215D01*
X58548000Y-113967369D01*
X58466165Y-114001266D01*
X58281579Y-114124602D01*
X58124602Y-114281579D01*
X58001266Y-114466165D01*
X57916310Y-114671266D01*
X57873000Y-114889000D01*
X57873000Y-115111000D01*
X57916310Y-115328734D01*
X57950207Y-115410569D01*
X56312777Y-117048000D01*
X53532631Y-117048000D01*
X53498734Y-116966165D01*
X53375398Y-116781579D01*
X53218421Y-116624602D01*
X53033835Y-116501266D01*
X52828734Y-116416310D01*
X52611000Y-116373000D01*
X52389000Y-116373000D01*
X52171266Y-116416310D01*
X51966165Y-116501266D01*
X51781579Y-116624602D01*
X51624602Y-116781579D01*
X51501266Y-116966165D01*
X51450800Y-117088000D01*
X48586751Y-117088000D01*
X48543044Y-116982481D01*
X48414236Y-116789706D01*
X48250294Y-116625764D01*
X48057519Y-116496956D01*
X47843318Y-116408231D01*
X47615924Y-116363000D01*
X47384076Y-116363000D01*
X47156682Y-116408231D01*
X46942481Y-116496956D01*
X46749706Y-116625764D01*
X46585764Y-116789706D01*
X46456956Y-116982481D01*
X46368231Y-117196682D01*
X46323000Y-117424076D01*
X46323000Y-117655924D01*
X46368231Y-117883318D01*
X46456956Y-118097519D01*
X46585764Y-118290294D01*
X46749706Y-118454236D01*
X46942481Y-118583044D01*
X47156682Y-118671769D01*
X47384076Y-118717000D01*
X47615924Y-118717000D01*
X47843318Y-118671769D01*
X48057519Y-118583044D01*
X48250294Y-118454236D01*
X48414236Y-118290294D01*
X48543044Y-118097519D01*
X48586751Y-117992000D01*
X51483937Y-117992000D01*
X51501266Y-118033835D01*
X51624602Y-118218421D01*
X51781579Y-118375398D01*
X51966165Y-118498734D01*
X52048001Y-118532632D01*
X52048000Y-119467369D01*
X51966165Y-119501266D01*
X51781579Y-119624602D01*
X51624602Y-119781579D01*
X51501266Y-119966165D01*
X51416310Y-120171266D01*
X51373000Y-120389000D01*
X51373000Y-120611000D01*
X51416310Y-120828734D01*
X51501266Y-121033835D01*
X51624602Y-121218421D01*
X51641581Y-121235400D01*
X50409723Y-121235400D01*
X50370023Y-121195700D01*
X50355859Y-121178441D01*
X50287033Y-121121957D01*
X50208510Y-121079986D01*
X50123307Y-121054140D01*
X50056905Y-121047600D01*
X50034700Y-121045413D01*
X50012495Y-121047600D01*
X46629404Y-121047600D01*
X46607199Y-121045413D01*
X46518592Y-121054140D01*
X46511693Y-121056233D01*
X46433390Y-121079986D01*
X46354867Y-121121957D01*
X46286041Y-121178441D01*
X46271880Y-121195696D01*
X46195695Y-121271882D01*
X46178442Y-121286041D01*
X46121958Y-121354867D01*
X46079986Y-121433391D01*
X46054140Y-121518593D01*
X46045413Y-121607200D01*
X41352000Y-121607200D01*
X41352000Y-114150000D01*
X46321418Y-114150000D01*
X46321418Y-115850000D01*
X46327732Y-115914103D01*
X46346430Y-115975743D01*
X46376794Y-116032550D01*
X46417657Y-116082343D01*
X46467450Y-116123206D01*
X46524257Y-116153570D01*
X46585897Y-116172268D01*
X46650000Y-116178582D01*
X48350000Y-116178582D01*
X48414103Y-116172268D01*
X48475743Y-116153570D01*
X48532550Y-116123206D01*
X48582343Y-116082343D01*
X48623206Y-116032550D01*
X48653570Y-115975743D01*
X48672268Y-115914103D01*
X48678582Y-115850000D01*
X48678582Y-115452000D01*
X51467369Y-115452000D01*
X51501266Y-115533835D01*
X51624602Y-115718421D01*
X51781579Y-115875398D01*
X51966165Y-115998734D01*
X52171266Y-116083690D01*
X52389000Y-116127000D01*
X52611000Y-116127000D01*
X52828734Y-116083690D01*
X53033835Y-115998734D01*
X53218421Y-115875398D01*
X53375398Y-115718421D01*
X53498734Y-115533835D01*
X53583690Y-115328734D01*
X53627000Y-115111000D01*
X53627000Y-114889000D01*
X53583690Y-114671266D01*
X53498734Y-114466165D01*
X53375398Y-114281579D01*
X53218421Y-114124602D01*
X53033835Y-114001266D01*
X52828734Y-113916310D01*
X52611000Y-113873000D01*
X52389000Y-113873000D01*
X52171266Y-113916310D01*
X51966165Y-114001266D01*
X51781579Y-114124602D01*
X51624602Y-114281579D01*
X51501266Y-114466165D01*
X51467369Y-114548000D01*
X48678582Y-114548000D01*
X48678582Y-114150000D01*
X48672268Y-114085897D01*
X48653570Y-114024257D01*
X48623206Y-113967450D01*
X48582343Y-113917657D01*
X48532550Y-113876794D01*
X48475743Y-113846430D01*
X48414103Y-113827732D01*
X48350000Y-113821418D01*
X46650000Y-113821418D01*
X46585897Y-113827732D01*
X46524257Y-113846430D01*
X46467450Y-113876794D01*
X46417657Y-113917657D01*
X46376794Y-113967450D01*
X46346430Y-114024257D01*
X46327732Y-114085897D01*
X46321418Y-114150000D01*
X41352000Y-114150000D01*
X41352000Y-105009000D01*
X52873000Y-105009000D01*
X52873000Y-105231000D01*
X52916310Y-105448734D01*
X53001266Y-105653835D01*
X53124602Y-105838421D01*
X53281579Y-105995398D01*
X53466165Y-106118734D01*
X53671266Y-106203690D01*
X53889000Y-106247000D01*
X54111000Y-106247000D01*
X54328734Y-106203690D01*
X54533835Y-106118734D01*
X54718421Y-105995398D01*
X54875398Y-105838421D01*
X54998734Y-105653835D01*
X55083690Y-105448734D01*
X55127000Y-105231000D01*
X55127000Y-105009000D01*
X55083690Y-104791266D01*
X54998734Y-104586165D01*
X54875398Y-104401579D01*
X54718421Y-104244602D01*
X54533835Y-104121266D01*
X54328734Y-104036310D01*
X54111000Y-103993000D01*
X53889000Y-103993000D01*
X53671266Y-104036310D01*
X53466165Y-104121266D01*
X53281579Y-104244602D01*
X53124602Y-104401579D01*
X53001266Y-104586165D01*
X52916310Y-104791266D01*
X52873000Y-105009000D01*
X41352000Y-105009000D01*
X41352000Y-101805660D01*
X45598000Y-101805660D01*
X45598000Y-102244340D01*
X45683582Y-102674592D01*
X45851458Y-103079880D01*
X46095176Y-103444630D01*
X46405370Y-103754824D01*
X46770120Y-103998542D01*
X47175408Y-104166418D01*
X47605660Y-104252000D01*
X48044340Y-104252000D01*
X48474592Y-104166418D01*
X48879880Y-103998542D01*
X49244630Y-103754824D01*
X49554824Y-103444630D01*
X49798542Y-103079880D01*
X49966418Y-102674592D01*
X50007312Y-102469000D01*
X57253000Y-102469000D01*
X57253000Y-102691000D01*
X57296310Y-102908734D01*
X57381266Y-103113835D01*
X57504602Y-103298421D01*
X57661579Y-103455398D01*
X57846165Y-103578734D01*
X58051266Y-103663690D01*
X58269000Y-103707000D01*
X58491000Y-103707000D01*
X58708734Y-103663690D01*
X58913835Y-103578734D01*
X59098421Y-103455398D01*
X59255398Y-103298421D01*
X59378734Y-103113835D01*
X59463690Y-102908734D01*
X59507000Y-102691000D01*
X59507000Y-102469000D01*
X64873000Y-102469000D01*
X64873000Y-102691000D01*
X64916310Y-102908734D01*
X65001266Y-103113835D01*
X65124602Y-103298421D01*
X65281579Y-103455398D01*
X65466165Y-103578734D01*
X65671266Y-103663690D01*
X65889000Y-103707000D01*
X66111000Y-103707000D01*
X66328734Y-103663690D01*
X66533835Y-103578734D01*
X66718421Y-103455398D01*
X66875398Y-103298421D01*
X66998734Y-103113835D01*
X67083690Y-102908734D01*
X67127000Y-102691000D01*
X67127000Y-102469000D01*
X67083690Y-102251266D01*
X66998734Y-102046165D01*
X66875398Y-101861579D01*
X66718421Y-101704602D01*
X66533835Y-101581266D01*
X66328734Y-101496310D01*
X66111000Y-101453000D01*
X65889000Y-101453000D01*
X65671266Y-101496310D01*
X65466165Y-101581266D01*
X65281579Y-101704602D01*
X65124602Y-101861579D01*
X65001266Y-102046165D01*
X64916310Y-102251266D01*
X64873000Y-102469000D01*
X59507000Y-102469000D01*
X59463690Y-102251266D01*
X59429793Y-102169431D01*
X61670224Y-99929000D01*
X64873000Y-99929000D01*
X64873000Y-100151000D01*
X64916310Y-100368734D01*
X65001266Y-100573835D01*
X65124602Y-100758421D01*
X65281579Y-100915398D01*
X65466165Y-101038734D01*
X65671266Y-101123690D01*
X65889000Y-101167000D01*
X66111000Y-101167000D01*
X66328734Y-101123690D01*
X66533835Y-101038734D01*
X66718421Y-100915398D01*
X66764517Y-100869302D01*
X69973000Y-100869302D01*
X69973000Y-101130698D01*
X70023996Y-101387072D01*
X70124028Y-101628570D01*
X70269252Y-101845913D01*
X70454087Y-102030748D01*
X70671430Y-102175972D01*
X70912928Y-102276004D01*
X71169302Y-102327000D01*
X71430698Y-102327000D01*
X71687072Y-102276004D01*
X71928570Y-102175972D01*
X72145913Y-102030748D01*
X72330748Y-101845913D01*
X72475972Y-101628570D01*
X72576004Y-101387072D01*
X72627000Y-101130698D01*
X72627000Y-100869302D01*
X82673000Y-100869302D01*
X82673000Y-101130698D01*
X82723996Y-101387072D01*
X82824028Y-101628570D01*
X82969252Y-101845913D01*
X83154087Y-102030748D01*
X83371430Y-102175972D01*
X83612928Y-102276004D01*
X83869302Y-102327000D01*
X84130698Y-102327000D01*
X84387072Y-102276004D01*
X84628570Y-102175972D01*
X84845913Y-102030748D01*
X85030748Y-101845913D01*
X85175972Y-101628570D01*
X85276004Y-101387072D01*
X85327000Y-101130698D01*
X85327000Y-100869302D01*
X85276004Y-100612928D01*
X85175972Y-100371430D01*
X85030748Y-100154087D01*
X84845913Y-99969252D01*
X84628570Y-99824028D01*
X84387072Y-99723996D01*
X84130698Y-99673000D01*
X83869302Y-99673000D01*
X83612928Y-99723996D01*
X83371430Y-99824028D01*
X83154087Y-99969252D01*
X82969252Y-100154087D01*
X82824028Y-100371430D01*
X82723996Y-100612928D01*
X82673000Y-100869302D01*
X72627000Y-100869302D01*
X72576004Y-100612928D01*
X72475972Y-100371430D01*
X72330748Y-100154087D01*
X72145913Y-99969252D01*
X71928570Y-99824028D01*
X71687072Y-99723996D01*
X71430698Y-99673000D01*
X71169302Y-99673000D01*
X70912928Y-99723996D01*
X70671430Y-99824028D01*
X70454087Y-99969252D01*
X70269252Y-100154087D01*
X70124028Y-100371430D01*
X70023996Y-100612928D01*
X69973000Y-100869302D01*
X66764517Y-100869302D01*
X66875398Y-100758421D01*
X66998734Y-100573835D01*
X67083690Y-100368734D01*
X67127000Y-100151000D01*
X67127000Y-99929000D01*
X67083690Y-99711266D01*
X66998734Y-99506165D01*
X66875398Y-99321579D01*
X66718421Y-99164602D01*
X66533835Y-99041266D01*
X66328734Y-98956310D01*
X66111000Y-98913000D01*
X65889000Y-98913000D01*
X65671266Y-98956310D01*
X65466165Y-99041266D01*
X65281579Y-99164602D01*
X65124602Y-99321579D01*
X65001266Y-99506165D01*
X64916310Y-99711266D01*
X64873000Y-99929000D01*
X61670224Y-99929000D01*
X64210224Y-97389000D01*
X64873000Y-97389000D01*
X64873000Y-97611000D01*
X64916310Y-97828734D01*
X65001266Y-98033835D01*
X65124602Y-98218421D01*
X65281579Y-98375398D01*
X65466165Y-98498734D01*
X65671266Y-98583690D01*
X65889000Y-98627000D01*
X66111000Y-98627000D01*
X66328734Y-98583690D01*
X66509050Y-98509000D01*
X93873000Y-98509000D01*
X93873000Y-98731000D01*
X93916310Y-98948734D01*
X94001266Y-99153835D01*
X94124602Y-99338421D01*
X94281579Y-99495398D01*
X94466165Y-99618734D01*
X94573001Y-99662987D01*
X94573000Y-100957013D01*
X94466165Y-101001266D01*
X94281579Y-101124602D01*
X94124602Y-101281579D01*
X94001266Y-101466165D01*
X93916310Y-101671266D01*
X93873000Y-101889000D01*
X93873000Y-102111000D01*
X93916310Y-102328734D01*
X94001266Y-102533835D01*
X94124602Y-102718421D01*
X94281579Y-102875398D01*
X94466165Y-102998734D01*
X94671266Y-103083690D01*
X94889000Y-103127000D01*
X95023010Y-103127000D01*
X95023009Y-107220548D01*
X95004549Y-107281402D01*
X94995822Y-107370009D01*
X95004549Y-107458616D01*
X95030395Y-107543818D01*
X95072367Y-107622342D01*
X95114696Y-107673919D01*
X100526744Y-113085968D01*
X100512467Y-113120435D01*
X100473000Y-113318849D01*
X100473000Y-113521151D01*
X100512467Y-113719565D01*
X100589885Y-113906467D01*
X100702277Y-114074674D01*
X100845326Y-114217723D01*
X101013533Y-114330115D01*
X101200435Y-114407533D01*
X101398849Y-114447000D01*
X101601151Y-114447000D01*
X101799565Y-114407533D01*
X101986467Y-114330115D01*
X102154674Y-114217723D01*
X102297723Y-114074674D01*
X102410115Y-113906467D01*
X102487533Y-113719565D01*
X102527000Y-113521151D01*
X102527000Y-113318849D01*
X102487533Y-113120435D01*
X102410115Y-112933533D01*
X102297723Y-112765326D01*
X102154674Y-112622277D01*
X101986467Y-112509885D01*
X101799565Y-112432467D01*
X101601151Y-112393000D01*
X101398849Y-112393000D01*
X101200435Y-112432467D01*
X101165968Y-112446744D01*
X95877009Y-107157786D01*
X95877009Y-106780660D01*
X99273000Y-106780660D01*
X99273000Y-107219340D01*
X99358582Y-107649592D01*
X99526458Y-108054880D01*
X99770176Y-108419630D01*
X100080370Y-108729824D01*
X100445120Y-108973542D01*
X100850408Y-109141418D01*
X101280660Y-109227000D01*
X101719340Y-109227000D01*
X102149592Y-109141418D01*
X102554880Y-108973542D01*
X102919630Y-108729824D01*
X103229824Y-108419630D01*
X103473542Y-108054880D01*
X103641418Y-107649592D01*
X103727000Y-107219340D01*
X103727000Y-106780660D01*
X103641418Y-106350408D01*
X103473542Y-105945120D01*
X103229824Y-105580370D01*
X102919630Y-105270176D01*
X102554880Y-105026458D01*
X102149592Y-104858582D01*
X101719340Y-104773000D01*
X101280660Y-104773000D01*
X100850408Y-104858582D01*
X100445120Y-105026458D01*
X100080370Y-105270176D01*
X99770176Y-105580370D01*
X99526458Y-105945120D01*
X99358582Y-106350408D01*
X99273000Y-106780660D01*
X95877009Y-106780660D01*
X95877009Y-102716010D01*
X95998734Y-102533835D01*
X96083690Y-102328734D01*
X96127000Y-102111000D01*
X96127000Y-101889000D01*
X96083690Y-101671266D01*
X95998734Y-101466165D01*
X95875398Y-101281579D01*
X95718421Y-101124602D01*
X95533835Y-101001266D01*
X95427000Y-100957013D01*
X95427000Y-99662987D01*
X95533835Y-99618734D01*
X95718421Y-99495398D01*
X95875398Y-99338421D01*
X95913992Y-99280660D01*
X99273000Y-99280660D01*
X99273000Y-99719340D01*
X99358582Y-100149592D01*
X99526458Y-100554880D01*
X99770176Y-100919630D01*
X100080370Y-101229824D01*
X100445120Y-101473542D01*
X100850408Y-101641418D01*
X101280660Y-101727000D01*
X101719340Y-101727000D01*
X102149592Y-101641418D01*
X102554880Y-101473542D01*
X102919630Y-101229824D01*
X103229824Y-100919630D01*
X103473542Y-100554880D01*
X103641418Y-100149592D01*
X103727000Y-99719340D01*
X103727000Y-99280660D01*
X103641418Y-98850408D01*
X103473542Y-98445120D01*
X103229824Y-98080370D01*
X102919630Y-97770176D01*
X102554880Y-97526458D01*
X102149592Y-97358582D01*
X101719340Y-97273000D01*
X101280660Y-97273000D01*
X100850408Y-97358582D01*
X100445120Y-97526458D01*
X100080370Y-97770176D01*
X99770176Y-98080370D01*
X99526458Y-98445120D01*
X99358582Y-98850408D01*
X99273000Y-99280660D01*
X95913992Y-99280660D01*
X95998734Y-99153835D01*
X96083690Y-98948734D01*
X96127000Y-98731000D01*
X96127000Y-98509000D01*
X96083690Y-98291266D01*
X95998734Y-98086165D01*
X95875398Y-97901579D01*
X95718421Y-97744602D01*
X95533835Y-97621266D01*
X95328734Y-97536310D01*
X95111000Y-97493000D01*
X94889000Y-97493000D01*
X94671266Y-97536310D01*
X94466165Y-97621266D01*
X94281579Y-97744602D01*
X94124602Y-97901579D01*
X94001266Y-98086165D01*
X93916310Y-98291266D01*
X93873000Y-98509000D01*
X66509050Y-98509000D01*
X66533835Y-98498734D01*
X66718421Y-98375398D01*
X66875398Y-98218421D01*
X66998734Y-98033835D01*
X67083690Y-97828734D01*
X67127000Y-97611000D01*
X67127000Y-97389000D01*
X67083690Y-97171266D01*
X66998734Y-96966165D01*
X66875398Y-96781579D01*
X66718421Y-96624602D01*
X66533835Y-96501266D01*
X66328734Y-96416310D01*
X66111000Y-96373000D01*
X65889000Y-96373000D01*
X65671266Y-96416310D01*
X65466165Y-96501266D01*
X65281579Y-96624602D01*
X65124602Y-96781579D01*
X65001266Y-96966165D01*
X64916310Y-97171266D01*
X64873000Y-97389000D01*
X64210224Y-97389000D01*
X67767224Y-93832000D01*
X69971418Y-93832000D01*
X69971418Y-94380000D01*
X69977732Y-94444103D01*
X69996430Y-94505743D01*
X70026794Y-94562550D01*
X70067657Y-94612343D01*
X70117450Y-94653206D01*
X70174257Y-94683570D01*
X70235897Y-94702268D01*
X70300000Y-94708582D01*
X72300000Y-94708582D01*
X72364103Y-94702268D01*
X72425743Y-94683570D01*
X72482550Y-94653206D01*
X72532343Y-94612343D01*
X72573206Y-94562550D01*
X72603570Y-94505743D01*
X72622268Y-94444103D01*
X72628582Y-94380000D01*
X72628582Y-93249302D01*
X82673000Y-93249302D01*
X82673000Y-93510698D01*
X82723996Y-93767072D01*
X82824028Y-94008570D01*
X82969252Y-94225913D01*
X83154087Y-94410748D01*
X83371430Y-94555972D01*
X83612928Y-94656004D01*
X83869302Y-94707000D01*
X84130698Y-94707000D01*
X84387072Y-94656004D01*
X84628570Y-94555972D01*
X84845913Y-94410748D01*
X85030748Y-94225913D01*
X85175972Y-94008570D01*
X85225499Y-93889000D01*
X87873000Y-93889000D01*
X87873000Y-94111000D01*
X87916310Y-94328734D01*
X88001266Y-94533835D01*
X88124602Y-94718421D01*
X88281579Y-94875398D01*
X88466165Y-94998734D01*
X88671266Y-95083690D01*
X88889000Y-95127000D01*
X89111000Y-95127000D01*
X89328734Y-95083690D01*
X89533835Y-94998734D01*
X89718421Y-94875398D01*
X89875398Y-94718421D01*
X89998734Y-94533835D01*
X90083690Y-94328734D01*
X90127000Y-94111000D01*
X90127000Y-93889000D01*
X90083690Y-93671266D01*
X89998734Y-93466165D01*
X89875398Y-93281579D01*
X89718421Y-93124602D01*
X89533835Y-93001266D01*
X89328734Y-92916310D01*
X89111000Y-92873000D01*
X88889000Y-92873000D01*
X88671266Y-92916310D01*
X88466165Y-93001266D01*
X88281579Y-93124602D01*
X88124602Y-93281579D01*
X88001266Y-93466165D01*
X87916310Y-93671266D01*
X87873000Y-93889000D01*
X85225499Y-93889000D01*
X85276004Y-93767072D01*
X85327000Y-93510698D01*
X85327000Y-93249302D01*
X85276004Y-92992928D01*
X85175972Y-92751430D01*
X85030748Y-92534087D01*
X84845913Y-92349252D01*
X84628570Y-92204028D01*
X84387072Y-92103996D01*
X84130698Y-92053000D01*
X83869302Y-92053000D01*
X83612928Y-92103996D01*
X83371430Y-92204028D01*
X83154087Y-92349252D01*
X82969252Y-92534087D01*
X82824028Y-92751430D01*
X82723996Y-92992928D01*
X82673000Y-93249302D01*
X72628582Y-93249302D01*
X72628582Y-92380000D01*
X72622268Y-92315897D01*
X72603570Y-92254257D01*
X72573206Y-92197450D01*
X72532343Y-92147657D01*
X72482550Y-92106794D01*
X72425743Y-92076430D01*
X72364103Y-92057732D01*
X72300000Y-92051418D01*
X70300000Y-92051418D01*
X70235897Y-92057732D01*
X70174257Y-92076430D01*
X70117450Y-92106794D01*
X70067657Y-92147657D01*
X70026794Y-92197450D01*
X69996430Y-92254257D01*
X69977732Y-92315897D01*
X69971418Y-92380000D01*
X69971418Y-92928000D01*
X67602205Y-92928000D01*
X67580000Y-92925813D01*
X67491392Y-92934540D01*
X67406190Y-92960386D01*
X67327667Y-93002357D01*
X67258841Y-93058841D01*
X67244681Y-93076095D01*
X58790569Y-101530207D01*
X58708734Y-101496310D01*
X58491000Y-101453000D01*
X58269000Y-101453000D01*
X58051266Y-101496310D01*
X57846165Y-101581266D01*
X57661579Y-101704602D01*
X57504602Y-101861579D01*
X57381266Y-102046165D01*
X57296310Y-102251266D01*
X57253000Y-102469000D01*
X50007312Y-102469000D01*
X50052000Y-102244340D01*
X50052000Y-101805660D01*
X49966418Y-101375408D01*
X49798542Y-100970120D01*
X49554824Y-100605370D01*
X49244630Y-100295176D01*
X48879880Y-100051458D01*
X48474592Y-99883582D01*
X48044340Y-99798000D01*
X47605660Y-99798000D01*
X47175408Y-99883582D01*
X46770120Y-100051458D01*
X46405370Y-100295176D01*
X46095176Y-100605370D01*
X45851458Y-100970120D01*
X45683582Y-101375408D01*
X45598000Y-101805660D01*
X41352000Y-101805660D01*
X41352000Y-96455660D01*
X45598000Y-96455660D01*
X45598000Y-96894340D01*
X45683582Y-97324592D01*
X45851458Y-97729880D01*
X46095176Y-98094630D01*
X46405370Y-98404824D01*
X46770120Y-98648542D01*
X47175408Y-98816418D01*
X47605660Y-98902000D01*
X48044340Y-98902000D01*
X48474592Y-98816418D01*
X48879880Y-98648542D01*
X49244630Y-98404824D01*
X49554824Y-98094630D01*
X49798542Y-97729880D01*
X49966418Y-97324592D01*
X50052000Y-96894340D01*
X50052000Y-96455660D01*
X49966418Y-96025408D01*
X49798542Y-95620120D01*
X49554824Y-95255370D01*
X49244630Y-94945176D01*
X48879880Y-94701458D01*
X48474592Y-94533582D01*
X48044340Y-94448000D01*
X47605660Y-94448000D01*
X47175408Y-94533582D01*
X46770120Y-94701458D01*
X46405370Y-94945176D01*
X46095176Y-95255370D01*
X45851458Y-95620120D01*
X45683582Y-96025408D01*
X45598000Y-96455660D01*
X41352000Y-96455660D01*
X41352000Y-89889000D01*
X50873000Y-89889000D01*
X50873000Y-90111000D01*
X50916310Y-90328734D01*
X51001266Y-90533835D01*
X51124602Y-90718421D01*
X51281579Y-90875398D01*
X51466165Y-90998734D01*
X51605951Y-91056635D01*
X51622357Y-91087330D01*
X51678841Y-91156157D01*
X51696100Y-91170321D01*
X51898779Y-91373000D01*
X51889000Y-91373000D01*
X51671266Y-91416310D01*
X51466165Y-91501266D01*
X51281579Y-91624602D01*
X51124602Y-91781579D01*
X51001266Y-91966165D01*
X50916310Y-92171266D01*
X50873000Y-92389000D01*
X50873000Y-92611000D01*
X50916310Y-92828734D01*
X51001266Y-93033835D01*
X51124602Y-93218421D01*
X51281579Y-93375398D01*
X51466165Y-93498734D01*
X51671266Y-93583690D01*
X51889000Y-93627000D01*
X52111000Y-93627000D01*
X52328734Y-93583690D01*
X52533835Y-93498734D01*
X52718421Y-93375398D01*
X52875398Y-93218421D01*
X52998734Y-93033835D01*
X53083690Y-92828734D01*
X53127000Y-92611000D01*
X53127000Y-92601222D01*
X53548001Y-93022224D01*
X53548000Y-96467369D01*
X53466165Y-96501266D01*
X53281579Y-96624602D01*
X53124602Y-96781579D01*
X53001266Y-96966165D01*
X52916310Y-97171266D01*
X52873000Y-97389000D01*
X52873000Y-97611000D01*
X52916310Y-97828734D01*
X53001266Y-98033835D01*
X53124602Y-98218421D01*
X53281579Y-98375398D01*
X53466165Y-98498734D01*
X53671266Y-98583690D01*
X53889000Y-98627000D01*
X54111000Y-98627000D01*
X54328734Y-98583690D01*
X54533835Y-98498734D01*
X54718421Y-98375398D01*
X54875398Y-98218421D01*
X54998734Y-98033835D01*
X55083690Y-97828734D01*
X55127000Y-97611000D01*
X55127000Y-97389000D01*
X55083690Y-97171266D01*
X54998734Y-96966165D01*
X54875398Y-96781579D01*
X54793819Y-96700000D01*
X57251418Y-96700000D01*
X57251418Y-98300000D01*
X57257732Y-98364103D01*
X57276430Y-98425743D01*
X57306794Y-98482550D01*
X57347657Y-98532343D01*
X57397450Y-98573206D01*
X57454257Y-98603570D01*
X57515897Y-98622268D01*
X57580000Y-98628582D01*
X59053001Y-98628582D01*
X59053001Y-98727775D01*
X58790569Y-98990207D01*
X58708734Y-98956310D01*
X58491000Y-98913000D01*
X58269000Y-98913000D01*
X58051266Y-98956310D01*
X57846165Y-99041266D01*
X57661579Y-99164602D01*
X57504602Y-99321579D01*
X57381266Y-99506165D01*
X57296310Y-99711266D01*
X57253000Y-99929000D01*
X57253000Y-100151000D01*
X57296310Y-100368734D01*
X57381266Y-100573835D01*
X57504602Y-100758421D01*
X57661579Y-100915398D01*
X57846165Y-101038734D01*
X58051266Y-101123690D01*
X58269000Y-101167000D01*
X58491000Y-101167000D01*
X58708734Y-101123690D01*
X58913835Y-101038734D01*
X59098421Y-100915398D01*
X59255398Y-100758421D01*
X59378734Y-100573835D01*
X59463690Y-100368734D01*
X59507000Y-100151000D01*
X59507000Y-99929000D01*
X59463690Y-99711266D01*
X59429793Y-99629431D01*
X59808907Y-99250317D01*
X59826160Y-99236158D01*
X59882644Y-99167332D01*
X59924615Y-99088809D01*
X59950461Y-99003606D01*
X59957001Y-98937204D01*
X59957001Y-98937203D01*
X59959188Y-98914999D01*
X59957001Y-98892794D01*
X59957001Y-92159255D01*
X59975743Y-92153570D01*
X60032550Y-92123206D01*
X60082343Y-92082343D01*
X60123206Y-92032550D01*
X60153570Y-91975743D01*
X60172268Y-91914103D01*
X60178582Y-91850000D01*
X60178582Y-90884076D01*
X60363000Y-90884076D01*
X60363000Y-91115924D01*
X60408231Y-91343318D01*
X60496956Y-91557519D01*
X60625764Y-91750294D01*
X60789706Y-91914236D01*
X60982481Y-92043044D01*
X61196682Y-92131769D01*
X61424076Y-92177000D01*
X61655924Y-92177000D01*
X61883318Y-92131769D01*
X62097519Y-92043044D01*
X62290294Y-91914236D01*
X62454236Y-91750294D01*
X62583044Y-91557519D01*
X62671769Y-91343318D01*
X62717000Y-91115924D01*
X62717000Y-90884076D01*
X62903000Y-90884076D01*
X62903000Y-91115924D01*
X62948231Y-91343318D01*
X63036956Y-91557519D01*
X63165764Y-91750294D01*
X63329706Y-91914236D01*
X63522481Y-92043044D01*
X63736682Y-92131769D01*
X63964076Y-92177000D01*
X64195924Y-92177000D01*
X64423318Y-92131769D01*
X64637519Y-92043044D01*
X64830294Y-91914236D01*
X64994236Y-91750294D01*
X65123044Y-91557519D01*
X65192846Y-91389000D01*
X87873000Y-91389000D01*
X87873000Y-91611000D01*
X87916310Y-91828734D01*
X88001266Y-92033835D01*
X88124602Y-92218421D01*
X88281579Y-92375398D01*
X88466165Y-92498734D01*
X88671266Y-92583690D01*
X88889000Y-92627000D01*
X89111000Y-92627000D01*
X89328734Y-92583690D01*
X89533835Y-92498734D01*
X89718421Y-92375398D01*
X89875398Y-92218421D01*
X89998734Y-92033835D01*
X90083690Y-91828734D01*
X90127000Y-91611000D01*
X90127000Y-91389000D01*
X90083690Y-91171266D01*
X89998734Y-90966165D01*
X89947175Y-90889000D01*
X93873000Y-90889000D01*
X93873000Y-91111000D01*
X93916310Y-91328734D01*
X94001266Y-91533835D01*
X94124602Y-91718421D01*
X94281579Y-91875398D01*
X94466165Y-91998734D01*
X94671266Y-92083690D01*
X94889000Y-92127000D01*
X95111000Y-92127000D01*
X95328734Y-92083690D01*
X95533835Y-91998734D01*
X95718421Y-91875398D01*
X95875398Y-91718421D01*
X95998734Y-91533835D01*
X96083690Y-91328734D01*
X96093252Y-91280660D01*
X99273000Y-91280660D01*
X99273000Y-91719340D01*
X99358582Y-92149592D01*
X99526458Y-92554880D01*
X99770176Y-92919630D01*
X100080370Y-93229824D01*
X100445120Y-93473542D01*
X100850408Y-93641418D01*
X101280660Y-93727000D01*
X101719340Y-93727000D01*
X102149592Y-93641418D01*
X102554880Y-93473542D01*
X102919630Y-93229824D01*
X103229824Y-92919630D01*
X103473542Y-92554880D01*
X103641418Y-92149592D01*
X103727000Y-91719340D01*
X103727000Y-91280660D01*
X103641418Y-90850408D01*
X103473542Y-90445120D01*
X103229824Y-90080370D01*
X102919630Y-89770176D01*
X102554880Y-89526458D01*
X102149592Y-89358582D01*
X101719340Y-89273000D01*
X101280660Y-89273000D01*
X100850408Y-89358582D01*
X100445120Y-89526458D01*
X100080370Y-89770176D01*
X99770176Y-90080370D01*
X99526458Y-90445120D01*
X99358582Y-90850408D01*
X99273000Y-91280660D01*
X96093252Y-91280660D01*
X96127000Y-91111000D01*
X96127000Y-90889000D01*
X96083690Y-90671266D01*
X95998734Y-90466165D01*
X95875398Y-90281579D01*
X95718421Y-90124602D01*
X95533835Y-90001266D01*
X95328734Y-89916310D01*
X95111000Y-89873000D01*
X94889000Y-89873000D01*
X94671266Y-89916310D01*
X94466165Y-90001266D01*
X94281579Y-90124602D01*
X94124602Y-90281579D01*
X94001266Y-90466165D01*
X93916310Y-90671266D01*
X93873000Y-90889000D01*
X89947175Y-90889000D01*
X89875398Y-90781579D01*
X89718421Y-90624602D01*
X89533835Y-90501266D01*
X89328734Y-90416310D01*
X89111000Y-90373000D01*
X88889000Y-90373000D01*
X88671266Y-90416310D01*
X88466165Y-90501266D01*
X88281579Y-90624602D01*
X88124602Y-90781579D01*
X88001266Y-90966165D01*
X87916310Y-91171266D01*
X87873000Y-91389000D01*
X65192846Y-91389000D01*
X65211769Y-91343318D01*
X65257000Y-91115924D01*
X65257000Y-90884076D01*
X65211769Y-90656682D01*
X65123044Y-90442481D01*
X64994236Y-90249706D01*
X64830294Y-90085764D01*
X64637519Y-89956956D01*
X64423318Y-89868231D01*
X64195924Y-89823000D01*
X63964076Y-89823000D01*
X63736682Y-89868231D01*
X63522481Y-89956956D01*
X63329706Y-90085764D01*
X63165764Y-90249706D01*
X63036956Y-90442481D01*
X62948231Y-90656682D01*
X62903000Y-90884076D01*
X62717000Y-90884076D01*
X62671769Y-90656682D01*
X62583044Y-90442481D01*
X62454236Y-90249706D01*
X62290294Y-90085764D01*
X62097519Y-89956956D01*
X61883318Y-89868231D01*
X61655924Y-89823000D01*
X61424076Y-89823000D01*
X61196682Y-89868231D01*
X60982481Y-89956956D01*
X60789706Y-90085764D01*
X60625764Y-90249706D01*
X60496956Y-90442481D01*
X60408231Y-90656682D01*
X60363000Y-90884076D01*
X60178582Y-90884076D01*
X60178582Y-90150000D01*
X60172268Y-90085897D01*
X60153570Y-90024257D01*
X60123206Y-89967450D01*
X60082343Y-89917657D01*
X60032550Y-89876794D01*
X59975743Y-89846430D01*
X59914103Y-89827732D01*
X59850000Y-89821418D01*
X58150000Y-89821418D01*
X58085897Y-89827732D01*
X58024257Y-89846430D01*
X57967450Y-89876794D01*
X57917657Y-89917657D01*
X57876794Y-89967450D01*
X57846430Y-90024257D01*
X57827732Y-90085897D01*
X57821418Y-90150000D01*
X57821418Y-91850000D01*
X57827732Y-91914103D01*
X57846430Y-91975743D01*
X57876794Y-92032550D01*
X57917657Y-92082343D01*
X57967450Y-92123206D01*
X58024257Y-92153570D01*
X58085897Y-92172268D01*
X58150000Y-92178582D01*
X59053002Y-92178582D01*
X59053001Y-96371418D01*
X57580000Y-96371418D01*
X57515897Y-96377732D01*
X57454257Y-96396430D01*
X57397450Y-96426794D01*
X57347657Y-96467657D01*
X57306794Y-96517450D01*
X57276430Y-96574257D01*
X57257732Y-96635897D01*
X57251418Y-96700000D01*
X54793819Y-96700000D01*
X54718421Y-96624602D01*
X54533835Y-96501266D01*
X54452000Y-96467369D01*
X54452000Y-92857202D01*
X54454187Y-92834997D01*
X54445460Y-92746390D01*
X54419614Y-92661188D01*
X54392788Y-92611000D01*
X54377643Y-92582665D01*
X54321159Y-92513839D01*
X54303911Y-92499684D01*
X52695163Y-90890938D01*
X52718421Y-90875398D01*
X52875398Y-90718421D01*
X52998734Y-90533835D01*
X53083690Y-90328734D01*
X53127000Y-90111000D01*
X53127000Y-89889000D01*
X53083690Y-89671266D01*
X52998734Y-89466165D01*
X52875398Y-89281579D01*
X52718421Y-89124602D01*
X52533835Y-89001266D01*
X52328734Y-88916310D01*
X52111000Y-88873000D01*
X51889000Y-88873000D01*
X51671266Y-88916310D01*
X51466165Y-89001266D01*
X51281579Y-89124602D01*
X51124602Y-89281579D01*
X51001266Y-89466165D01*
X50916310Y-89671266D01*
X50873000Y-89889000D01*
X41352000Y-89889000D01*
X41352000Y-85352000D01*
X110648000Y-85352000D01*
X110648001Y-139148000D01*
G37*
%TD.AperFunction*%
D32*
X51501266Y-123533835D02*
X51624602Y-123718421D01*
X51781579Y-123875398D01*
X51966165Y-123998734D01*
X52171266Y-124083690D01*
X52389000Y-124127000D01*
X52611000Y-124127000D01*
X52828734Y-124083690D01*
X52910569Y-124049793D01*
X58671976Y-129811200D01*
X56750625Y-129811200D01*
X53510123Y-126570700D01*
X53495959Y-126553441D01*
X53427133Y-126496957D01*
X53348610Y-126454986D01*
X53263407Y-126429140D01*
X53197005Y-126422600D01*
X53174800Y-126420413D01*
X53152595Y-126422600D01*
X53147778Y-126422600D01*
X53218421Y-126375398D01*
X53375398Y-126218421D01*
X53498734Y-126033835D01*
X53583690Y-125828734D01*
X53627000Y-125611000D01*
X53627000Y-125389000D01*
X53583690Y-125171266D01*
X53498734Y-124966165D01*
X53375398Y-124781579D01*
X53218421Y-124624602D01*
X53033835Y-124501266D01*
X52828734Y-124416310D01*
X52611000Y-124373000D01*
X52389000Y-124373000D01*
X52171266Y-124416310D01*
X51966165Y-124501266D01*
X51781579Y-124624602D01*
X51624602Y-124781579D01*
X51501266Y-124966165D01*
X51416310Y-125171266D01*
X51373000Y-125389000D01*
X51373000Y-125611000D01*
X51416310Y-125828734D01*
X51501266Y-126033835D01*
X51624602Y-126218421D01*
X51781579Y-126375398D01*
X51852222Y-126422600D01*
X48617924Y-126422600D01*
X47680959Y-125485635D01*
X47792273Y-125463493D01*
X47974625Y-125387961D01*
X48138738Y-125278304D01*
X48278304Y-125138738D01*
X48387961Y-124974625D01*
X48397332Y-124952000D01*
X48478095Y-124952000D01*
X48500300Y-124954187D01*
X48522505Y-124952000D01*
X48588907Y-124945460D01*
X48674110Y-124919614D01*
X48752633Y-124877643D01*
X48821459Y-124821159D01*
X48835623Y-124803900D01*
X50187525Y-123452000D01*
X51467369Y-123452000D01*
X51501266Y-123533835D01*
%TA.AperFunction,Conductor*%
D33*
G36*
X51501266Y-123533835D02*
G01*
X51624602Y-123718421D01*
X51781579Y-123875398D01*
X51966165Y-123998734D01*
X52171266Y-124083690D01*
X52389000Y-124127000D01*
X52611000Y-124127000D01*
X52828734Y-124083690D01*
X52910569Y-124049793D01*
X58671976Y-129811200D01*
X56750625Y-129811200D01*
X53510123Y-126570700D01*
X53495959Y-126553441D01*
X53427133Y-126496957D01*
X53348610Y-126454986D01*
X53263407Y-126429140D01*
X53197005Y-126422600D01*
X53174800Y-126420413D01*
X53152595Y-126422600D01*
X53147778Y-126422600D01*
X53218421Y-126375398D01*
X53375398Y-126218421D01*
X53498734Y-126033835D01*
X53583690Y-125828734D01*
X53627000Y-125611000D01*
X53627000Y-125389000D01*
X53583690Y-125171266D01*
X53498734Y-124966165D01*
X53375398Y-124781579D01*
X53218421Y-124624602D01*
X53033835Y-124501266D01*
X52828734Y-124416310D01*
X52611000Y-124373000D01*
X52389000Y-124373000D01*
X52171266Y-124416310D01*
X51966165Y-124501266D01*
X51781579Y-124624602D01*
X51624602Y-124781579D01*
X51501266Y-124966165D01*
X51416310Y-125171266D01*
X51373000Y-125389000D01*
X51373000Y-125611000D01*
X51416310Y-125828734D01*
X51501266Y-126033835D01*
X51624602Y-126218421D01*
X51781579Y-126375398D01*
X51852222Y-126422600D01*
X48617924Y-126422600D01*
X47680959Y-125485635D01*
X47792273Y-125463493D01*
X47974625Y-125387961D01*
X48138738Y-125278304D01*
X48278304Y-125138738D01*
X48387961Y-124974625D01*
X48397332Y-124952000D01*
X48478095Y-124952000D01*
X48500300Y-124954187D01*
X48522505Y-124952000D01*
X48588907Y-124945460D01*
X48674110Y-124919614D01*
X48752633Y-124877643D01*
X48821459Y-124821159D01*
X48835623Y-124803900D01*
X50187525Y-123452000D01*
X51467369Y-123452000D01*
X51501266Y-123533835D01*
G37*
%TD.AperFunction*%
D32*
X69152096Y-126603581D02*
X69134842Y-126617741D01*
X69088825Y-126673813D01*
X69078358Y-126686567D01*
X69036386Y-126765091D01*
X69010540Y-126850293D01*
X69005230Y-126904206D01*
X65727000Y-123625977D01*
X65727000Y-122574110D01*
X65903570Y-122500972D01*
X66120913Y-122355748D01*
X66305748Y-122170913D01*
X66450972Y-121953570D01*
X66551004Y-121712072D01*
X66602000Y-121455698D01*
X66602000Y-121194302D01*
X66551004Y-120937928D01*
X66450972Y-120696430D01*
X66305748Y-120479087D01*
X66120913Y-120294252D01*
X65903570Y-120149028D01*
X65662072Y-120048996D01*
X65405698Y-119998000D01*
X65361825Y-119998000D01*
X65407825Y-119952000D01*
X75803675Y-119952000D01*
X69152096Y-126603581D01*
%TA.AperFunction,Conductor*%
D33*
G36*
X69152096Y-126603581D02*
G01*
X69134842Y-126617741D01*
X69088825Y-126673813D01*
X69078358Y-126686567D01*
X69036386Y-126765091D01*
X69010540Y-126850293D01*
X69005230Y-126904206D01*
X65727000Y-123625977D01*
X65727000Y-122574110D01*
X65903570Y-122500972D01*
X66120913Y-122355748D01*
X66305748Y-122170913D01*
X66450972Y-121953570D01*
X66551004Y-121712072D01*
X66602000Y-121455698D01*
X66602000Y-121194302D01*
X66551004Y-120937928D01*
X66450972Y-120696430D01*
X66305748Y-120479087D01*
X66120913Y-120294252D01*
X65903570Y-120149028D01*
X65662072Y-120048996D01*
X65405698Y-119998000D01*
X65361825Y-119998000D01*
X65407825Y-119952000D01*
X75803675Y-119952000D01*
X69152096Y-126603581D01*
G37*
%TD.AperFunction*%
D32*
X49887180Y-121991304D02*
X49901341Y-122008559D01*
X49970167Y-122065043D01*
X50048690Y-122107014D01*
X50106670Y-122124602D01*
X50133892Y-122132860D01*
X50222499Y-122141587D01*
X50244704Y-122139400D01*
X51766781Y-122139400D01*
X51624602Y-122281579D01*
X51501266Y-122466165D01*
X51467369Y-122548000D01*
X50022504Y-122548000D01*
X50000299Y-122545813D01*
X49911692Y-122554540D01*
X49891862Y-122560556D01*
X49826490Y-122580386D01*
X49747967Y-122622357D01*
X49679141Y-122678841D01*
X49664985Y-122696090D01*
X48367029Y-123994048D01*
X48278304Y-123861262D01*
X48138738Y-123721696D01*
X47974625Y-123612039D01*
X47792273Y-123536507D01*
X47626750Y-123503582D01*
X48175000Y-123503582D01*
X48239103Y-123497268D01*
X48300743Y-123478570D01*
X48357550Y-123448206D01*
X48407343Y-123407343D01*
X48448206Y-123357550D01*
X48478570Y-123300743D01*
X48497268Y-123239103D01*
X48503582Y-123175000D01*
X48503582Y-121951600D01*
X49847476Y-121951600D01*
X49887180Y-121991304D01*
%TA.AperFunction,Conductor*%
D33*
G36*
X49887180Y-121991304D02*
G01*
X49901341Y-122008559D01*
X49970167Y-122065043D01*
X50048690Y-122107014D01*
X50106670Y-122124602D01*
X50133892Y-122132860D01*
X50222499Y-122141587D01*
X50244704Y-122139400D01*
X51766781Y-122139400D01*
X51624602Y-122281579D01*
X51501266Y-122466165D01*
X51467369Y-122548000D01*
X50022504Y-122548000D01*
X50000299Y-122545813D01*
X49911692Y-122554540D01*
X49891862Y-122560556D01*
X49826490Y-122580386D01*
X49747967Y-122622357D01*
X49679141Y-122678841D01*
X49664985Y-122696090D01*
X48367029Y-123994048D01*
X48278304Y-123861262D01*
X48138738Y-123721696D01*
X47974625Y-123612039D01*
X47792273Y-123536507D01*
X47626750Y-123503582D01*
X48175000Y-123503582D01*
X48239103Y-123497268D01*
X48300743Y-123478570D01*
X48357550Y-123448206D01*
X48407343Y-123407343D01*
X48448206Y-123357550D01*
X48478570Y-123300743D01*
X48497268Y-123239103D01*
X48503582Y-123175000D01*
X48503582Y-121951600D01*
X49847476Y-121951600D01*
X49887180Y-121991304D01*
G37*
%TD.AperFunction*%
%TD*%
M02*
